<svg xmlns="http://www.w3.org/2000/svg" width="599" height="228" fill="none"><path fill="#959FB2" fill-rule="evenodd" d="M483.624 201.739L542.549 1.771l190.462 133.925-249.387 66.043zm-36.928 90.134l-104.37-148.437 140.476 58.882-36.106 89.555zM129.863 88.959l50.728 32.587 97.077 62.474L2.009 335.974 129.863 88.959zm211.444 54.064c10.396 14.806 94.459 134.535 104.312 148.377L278.503 183.741h-.001l-97.445-62.599-49.522-31.87 209.772 53.751zM541.851 2.024l-58.856 199.734L342.098 142.7 541.851 2.024zm-263.416 182.49l166.964 107.45-199.33-33.456 32.366-73.994zM4.086 335.504l273.629-150.835-32.286 73.814L4.086 335.504zM542.552 1.05a.3.3 0 00-.157-.05c-.017 0-.032.003-.048.005-.023.002-.045-.001-.066.006-.018.006-.03.02-.046.03-.009.004-.021.003-.03.009L341.431 142.446 129.915 88.248a.303.303 0 00-.116-.005.302.302 0 00-.317.156L1.029 336.571c-.002.005 0 .009-.002.014a.281.281 0 00-.025.157c.002.01.005.017.006.028.005.017.005.036.013.053.01.021.03.033.043.05.01.014.011.033.024.045.01.009.022.013.032.021l.032.02a.306.306 0 00.143.041c.03 0 .062-.005.092-.014l244.271-77.949 201.06 33.746c.009.002.018-.001.028 0 .007 0 .014.004.022.004a.21.21 0 00.043-.005l.015-.001h.006l.012-.006.014-.006c.013-.004.025-.007.037-.013a.26.26 0 00.05-.031c.009-.006.017-.011.024-.018.004-.004.009-.005.013-.009l.004-.006c.013-.014.022-.031.033-.047.008-.013.017-.025.023-.038l.003-.004.002-.003 36.364-90.195 250.368-66.301a.298.298 0 00.216-.233.291.291 0 00-.12-.292L542.552 1.049z" clip-rule="evenodd"/><path fill="#959FB2" d="M483.624 201.739l-.24-.071-.126.426.43-.113-.064-.242zM542.549 1.771l.143-.204-.285-.2-.098.333.24.071zm190.462 133.925l.064.242.519-.137-.439-.309-.144.204zM446.696 291.873l-.204.144.264.376.172-.427-.232-.093zm-104.37-148.437l.096-.231-.8-.335.499.709.205-.143zm140.476 58.882l.232.094.092-.229-.227-.095-.097.23zM129.863 88.958l.136-.21-.231-.148-.127.244.222.115zm50.728 32.588l.135-.21v-.001l-.135.211zm97.077 62.474l.12.219.367-.202-.352-.227-.135.21zM2.009 335.974l-.222-.115-.378.731.72-.397-.12-.219zm339.298-192.951l.205-.144-.053-.075-.09-.023-.062.242zM445.619 291.4l-.135.21.339-.355-.204.145zM278.503 183.741l.135-.21-.062-.04h-.073v.25zm-.001 0v.25h.852l-.717-.46-.135.21zm-97.445-62.599l-.135.21.135-.21zm-49.522-31.87l.062-.242-.197.452.135-.21zM541.851 2.024l.24.07.202-.687-.586.413.144.204zm-58.856 199.734l-.097.23.258.108.079-.267-.24-.071zM342.098 142.7l-.144-.204-.37.26.417.175.097-.231zm-63.663 41.814l.135-.211-.247-.158-.117.269.229.1zm166.964 107.45l-.042.246.177-.457-.135.211zm-199.33-33.456l-.229-.1-.129.294.317.053.041-.247zM4.086 335.504l-.12-.218.196.457-.076-.239zm273.629-150.835l.23.101.295-.675-.645.355.12.219zm-32.286 73.814l.076.238.107-.034.046-.104-.229-.1zM542.552 1.05l.144-.205-.003-.002-.141.207zm-.157-.05l.013-.25h-.004l-.009.25zm-.048.005l-.027-.249.027.249zm-.066.006l.078.238.006-.002-.084-.236zm-.046.03l.122.218.002-.002-.124-.217zm-.03.009l-.137-.21-.007.005.144.205zM341.431 142.446l-.062.242.111.029.095-.067-.144-.204zM129.915 88.248l.062-.243h-.003l-.059.243zm-.116-.005l-.042.246.038.007.038-.005-.034-.248zm-.128.005l.064.242.004-.001-.068-.24zm-.189.151l-.222-.116v.001l.222.115zM1.029 336.571l-.222-.114-.004.007-.004.008.23.099zm-.002.014l.227.105.003-.008.004-.008-.234-.089zm-.025.157l.249-.03v-.003l-.249.033zm.006.028l-.246.044.003.013.243-.057zm.013.053l.228-.103-.228.103zm.043.05l.203-.146-.002-.003-.201.149zm.024.045l-.176.178.006.006.17-.184zm.032.021l-.15.199.005.004.145-.203zm.032.02l-.124.217.005.003.119-.22zm.235.027l.074.239.002-.001-.076-.238zm244.271-77.949l.042-.246-.06-.01-.058.018.076.238zm201.06 33.746l.045-.246-.004-.001-.041.247zm.028 0l.02-.249-.005-.001-.015.25zm.065-.001l-.031-.248-.01.002.041.246zm.015-.001l.03.248.025-.003.023-.007-.078-.238zm.006 0v.25h.03l.03-.008-.06-.242zm.012-.006l.068.24.009-.002.01-.004-.087-.234zm.014-.006l-.078-.237-.008.003.086.234zm.037-.013l.098.231.006-.003.007-.003-.111-.225zm.05-.031l.148.202.006-.004-.154-.198zm.024-.018l-.162-.191-.007.006-.007.007.176.178zm.013-.009l-.176-.178-.006.007-.007.007.189.164zm.004-.006l.176.178.007-.008-.183-.17zm.033-.047l.21.137.004-.009-.214-.128zm.023-.038l.229.101.005-.011.003-.01-.237-.08zm.003-.004l-.207-.141-.009.013-.007.014.223.114zm.002-.003v.25h.168l.063-.156-.231-.094zm36.364-90.195l-.064-.242-.121.033-.047.116.232.093zm250.368-66.301l.064.241-.064-.241zm.216-.233l.246.045-.246-.045zm-.12-.292l-.144.205.144-.205zM483.864 201.81L542.788 1.842l-.479-.142-58.925 199.968.48.142zM542.405 1.976L732.867 135.9l.288-.409L542.692 1.567l-.287.409zm190.542 133.479L483.56 201.497l.128.484 249.387-66.043-.128-.483zM446.901 291.729L342.53 143.292l-.409.287 104.371 148.438.409-.288zM342.229 143.666l140.477 58.883.193-.461-140.477-58.883-.193.461zm140.341 58.559l-36.106 89.554.464.187 36.106-89.554-.464-.187zM129.728 89.169l50.728 32.587.27-.421-50.727-32.587-.271.42zm50.727 32.587l97.077 62.475.271-.421-97.077-62.474-.271.42zm97.092 62.045L1.889 335.755l.24.438 275.659-151.954-.241-.438zM2.231 336.089L130.085 89.073l-.444-.23L1.787 335.86l.444.23zm338.872-192.922c10.395 14.805 94.458 134.535 104.313 148.378l.407-.29c-9.853-13.841-93.915-133.569-104.311-148.376l-.409.288zM445.755 291.19L278.638 183.531l-.271.42L445.484 291.61l.271-.42zM278.503 183.491h-.001v.5h.001v-.5zm.134.04l-97.445-62.599-.27.42 97.445 62.599.27-.42zm-97.445-62.599l-49.522-31.87-.27.42 49.522 31.87.27-.42zm-49.719-31.418l209.772 53.751.124-.484L131.597 89.03l-.124.484zm410.138-87.56l-58.856 199.733.48.142L542.091 2.095l-.48-.142zm-58.52 199.573l-140.897-59.058-.193.462 140.897 59.057.193-.461zm-140.849-58.623L541.995 2.228l-.288-.408-199.753 140.676.288.408zm-63.943 41.82l166.964 107.45.271-.421-166.964-107.45-.271.421zM445.44 291.717l-199.33-33.456-.082.494 199.329 33.455.083-.493zm-199.142-33.109l32.366-73.994-.458-.2-32.366 73.994.458.2zM4.207 335.723l273.629-150.835-.241-.438L3.965 335.286l.242.437zm273.279-151.154L245.2 258.383l.458.2 32.287-73.813-.459-.201zm-32.133 73.676L4.01 335.266l.152.477 241.343-77.022-.152-.476zM542.693.843a.557.557 0 00-.285-.093l-.026.5c.011 0 .018.002.022.003l.007.003.282-.413zm-.289-.093a.46.46 0 00-.065.004l-.015.002h-.004l.053.497.021-.002h.003l.003-.001h-.014l.018-.5zm-.084.006h.005-.02a.333.333 0 00-.108.02l.168.47a.123.123 0 01-.032.009h-.011.013c.008 0 .022 0 .038-.002l-.053-.497zm-.117.018c-.049.016-.083.041-.096.05l-.008.006-.002.002.015-.01.247.435a.244.244 0 00.036-.024l.009-.006.003-.002-.012.007a.206.206 0 01-.036.017l-.156-.475zm-.089.048c.022-.013.041-.018.051-.021l.011-.002h-.001l-.034.008a.252.252 0 00-.073.034l.274.417a.226.226 0 01-.059.028l-.015.004h-.004.008l.018-.005a.27.27 0 00.067-.026l-.243-.437zm-.053.023L341.287 142.242l.288.408L542.349 1.254l-.288-.409zM341.493 142.204L129.977 88.005l-.124.485 211.516 54.198.124-.484zm-211.519-54.2a.58.58 0 00-.21-.009l.069.496a.06.06 0 01.024 0l.117-.487zm-.134-.008a.532.532 0 00-.236.012l.135.48.018.001.083-.493zm-.232.01a.55.55 0 00-.348.277l.443.232a.054.054 0 01.032-.025l-.127-.483zm-.348.278L.807 336.457l.444.229L129.704 88.514l-.444-.23zM.8 336.472a.223.223 0 00-.02.077c-.002.009-.002.017-.002.021v-.012a.3.3 0 01.015-.062l.468.178a.31.31 0 00.016-.069v-.027.022a.243.243 0 01-.019.071l-.459-.199zm0 .008a.515.515 0 00-.045.294l.495-.065c0-.005 0-.011.004-.019l-.454-.21zm-.046.291c.003.022.007.04.009.046v-.003l.491-.089-.004-.021-.002-.007v-.003l.003.018-.497.059zm.011.056v-.002.006l.002.01c.003.016.01.049.026.086l.456-.207.008.024.002.008v-.003l-.001-.008-.006-.029-.487.115zm.028.099c.025.056.062.091.074.103l.008.008.002.002-.014-.017.402-.298c-.014-.018-.028-.032-.036-.041l-.01-.009-.004-.004.01.011a.207.207 0 01.024.039l-.456.206zm.068.093l-.02-.033c0-.002-.002-.008.002.003.004.01.023.061.07.107l.35-.356c.018.018.03.035.036.047l.007.013.001.004v-.002l-.002-.004-.006-.015a.364.364 0 00-.032-.056l-.406.292zm.057.083c.015.014.03.024.04.031l.025.015.004.002c-.002-.002-.009-.005-.017-.012l.3-.399-.032-.022-.01-.005-.002-.001-.001-.001.007.005c.006.003.015.01.026.019l-.34.368zm.057.04c.02.014.037.025.053.034l.248-.434c-.007-.004-.009-.005-.01-.007l-.29.407zm.058.037a.56.56 0 00.262.071v-.5c.004 0 .004.001 0-.001a.094.094 0 01-.024-.01l-.238.44zm.262.071a.575.575 0 00.166-.025l-.147-.478-.019.003v.5zm.168-.026l244.271-77.948-.152-.477-244.27 77.949.151.476zm244.154-77.94l201.059 33.745.083-.493L245.7 258.791l-.083.493zm201.055 33.745c.037.007.068.004.076.004h.003l-.021-.001.031-.499h-.034l-.009.001h-.002.013c.008 0 .02 0 .034.003l-.091.492zm.053.003c-.014-.001-.025-.004-.03-.005l-.004-.001.002.001.024.005a.23.23 0 00.051.005v-.5c.017 0 .03.002.039.003l.01.003-.01-.003a.214.214 0 00-.041-.006l-.041.498zm.043.005a.493.493 0 00.084-.008l-.082-.493-.008.001h.006v.5zm.074-.007l-.009.001c-.001 0-.002 0 0 0h.007l.016-.002-.061-.496.009-.001c.001 0 .002 0 0 0l-.008.001-.016.001.062.496zm.062-.011l-.036.008-.021.003-.015.001v-.5h-.021c-.01.001-.034.003-.063.013l.156.475zm-.012.004a.246.246 0 00.072-.03l.008-.004h-.001l-.01.006a.207.207 0 01-.049.02l-.136-.481a.215.215 0 00-.055.023l-.013.007-.004.002h.002c0-.001.001-.002.003-.002l.013-.008c.012-.005.029-.013.05-.018l.12.485zm.039-.014l.007-.002.007-.003-.173-.469-.007.002-.008.003.174.469zm.005-.002c.004-.002.032-.01.057-.02l-.195-.461h-.001l-.006.002-.011.004.156.475zm.07-.026a.75.75 0 00.087-.054l-.295-.404-.013.009.221.449zm.093-.058h-.001l.008-.006a.243.243 0 00.038-.032l-.351-.356.011-.01.004-.003.001-.001-.001.001-.003.002-.013.009.307.396zm.031-.025a.187.187 0 01-.031.022l-.006.003s0 .001 0 0l.002-.001a.3.3 0 00.076-.06l-.378-.328a.224.224 0 01.043-.038l.014-.009.006-.004s.001 0 0 0l-.001.001-.01.005a.372.372 0 00-.038.027l.323.382zm.027-.022a.393.393 0 00.033-.038l.007-.012.002-.003v-.001l-.001.003-.007.01a.216.216 0 01-.029.035l-.351-.356a.266.266 0 00-.032.038l-.008.012-.002.003v.001l.001-.003.007-.009a.226.226 0 01.029-.036l.351.356zm.012-.014a.352.352 0 00.043-.055l.011-.017.005-.008-.418-.274-.011.017-.004.007c-.002.003.001-.003.008-.01l.366.34zm.064-.089v.001l.003-.004.004-.007c.006-.009.02-.029.031-.055l-.457-.202.007-.015.001-.002-.002.003-.003.005-.012.019.428.257zm.046-.086c-.01.03-.024.051-.028.057l-.002.002h.001v-.001l.002-.002c.002-.003.009-.013.016-.027l-.446-.227.015-.025.001-.002-.002.003a.237.237 0 00-.031.062l.474.16zm-.027.056l.008-.013c-.001.001-.02.034-.056.064a.248.248 0 01-.157.056v-.5a.259.259 0 00-.159.057.239.239 0 00-.056.065l.006-.01.414.281zm.026-.049l36.365-90.195-.464-.187-36.364 90.195.463.187zm36.197-90.047l250.368-66.302-.128-.483-250.368 66.301.128.484zm250.368-66.302a.545.545 0 00.398-.429l-.492-.089a.046.046 0 01-.034.035l.128.483zm.398-.429a.543.543 0 00-.223-.542l-.287.41c.015.01.021.026.018.043l.492.089zm-.223-.541L542.696.845l-.288.41 191.323 134.529.287-.409z"/></svg>