<svg width="95" height="65" viewBox="0 0 95 65" fill="none" xmlns="http://www.w3.org/2000/svg"><path fill-rule="evenodd" clip-rule="evenodd" d="M35 32.5a2.5 2.5 0 1 0-5 0 2.5 2.5 0 0 0 5 0zM35 2.5a2.5 2.5 0 1 0-5 0 2.5 2.5 0 0 0 5 0zM5 2.5a2.5 2.5 0 1 0-5 0 2.5 2.5 0 0 0 5 0zM95 32.5a2.5 2.5 0 1 0-5 0 2.5 2.5 0 0 0 5 0zM95 2.5a2.5 2.5 0 1 0-5 0 2.5 2.5 0 0 0 5 0zM65 32.5a2.5 2.5 0 1 0-5 0 2.5 2.5 0 0 0 5 0zM65 2.5a2.5 2.5 0 1 0-5 0 2.5 2.5 0 0 0 5 0zM95 62.5a2.5 2.5 0 1 0-5 0 2.5 2.5 0 0 0 5 0zM65 62.5a2.5 2.5 0 1 0-5 0 2.5 2.5 0 0 0 5 0z" fill="#FFCF00"/></svg>