<svg width="833" height="528" xmlns="http://www.w3.org/2000/svg" xmlns:xlink="http://www.w3.org/1999/xlink"><defs><path d="M18.2 0h570.6C598.851582 0 607 8.14841755 607 18.2V350H0V18.2C0 8.14841755 8.14841755 0 18.2 0z" id="a"/><filter x="-2.8%" y="-3.7%" width="105.6%" height="109.7%" filterUnits="objectBoundingBox" id="b"><feOffset dy="4" in="SourceAlpha" result="shadowOffsetOuter1"/><feGaussianBlur stdDeviation="5" in="shadowOffsetOuter1" result="shadowBlurOuter1"/><feColorMatrix values="0 0 0 0 0 0 0 0 0 0 0 0 0 0 0 0 0 0 0.1 0" in="shadowBlurOuter1"/></filter><path d="M18.2 0h570.6C598.851582 0 607 8.14841755 607 18.2V350H0V18.2C0 8.14841755 8.14841755 0 18.2 0z" id="d"/><filter x="-6.9%" y="-10.3%" width="113.8%" height="124%" filterUnits="objectBoundingBox" id="e"><feOffset dy="6" in="SourceAlpha" result="shadowOffsetOuter1"/><feGaussianBlur stdDeviation="13" in="shadowOffsetOuter1" result="shadowBlurOuter1"/><feColorMatrix values="0 0 0 0 0 0 0 0 0 0 0 0 0 0 0 0 0 0 0.1 0" in="shadowBlurOuter1"/></filter></defs><g fill="none" fill-rule="evenodd"><g transform="translate(216 6)"><mask id="c" fill="#fff"><use xlink:href="#a"/></mask><use fill="#000" filter="url(#b)" xlink:href="#a"/><use fill="#FFF" xlink:href="#a"/><g mask="url(#c)"><g fill-rule="nonzero" transform="translate(-2 43)"><path fill="#FFF" d="M0 0h541v295H0z"/><path fill="#F5F5F5" d="M0 0h39.9753695v295H0zM79.9507389 0h39.9753695v295H79.9507389zM159.901478 0h39.9753695v295H159.901478zM239.852217 0h39.9753695v295H239.852217zM319.802956 0h39.9753695v295H319.802956zM399.753695 0h39.9753695v310.980469H399.753695zM480 0h39.9753695v310.980469H480zM556.756979 0h39.9753695v310.980469H556.756979z"/><path fill="#E7E7E7" d="M0 15.1054217h610v1H0z"/><rect fill="#7ED321" x="79.9507389" y="58.6445783" width="79.9507389" height="10.6626506" rx="2.5"/><rect fill="#7ED321" x="119.926108" y="87.9668675" width="159.013136" height="10.6626506" rx="2.5"/><rect fill="#7ED321" x="160.789819" y="117.289157" width="118.149425" height="10.6626506" rx="2.5"/><rect fill="#F8E71C" x="239.852217" y="147.5" width="239.852217" height="10.6626506" rx="2.5"/><rect fill="#F5A623" x="279.827586" y="176.822289" width="239.852217" height="10.6626506" rx="2.5"/><rect fill="#50E3C2" x="483" y="206" width="80.8390805" height="10.6626506" rx="2.5"/><path fill="#D8D8D8" d="M5.33004926 59.5331325h28.4269294v7.99698795H5.33004926z"/><g transform="translate(86.16913 3.554217)" fill="#E7E7E7"><rect width="6.2183908" height="8.88554217" rx="1"/><rect x="10.6600985" width="6.2183908" height="8.88554217" rx="1"/><rect x="21.320197" width="6.2183908" height="8.88554217" rx="1"/></g><g transform="translate(126.144499 3.554217)" fill="#E7E7E7"><rect width="6.2183908" height="8.88554217" rx="1"/><rect x="10.6600985" width="6.2183908" height="8.88554217" rx="1"/><rect x="21.320197" width="6.2183908" height="8.88554217" rx="1"/></g><g transform="translate(166.119869 3.554217)" fill="#E7E7E7"><rect width="6.2183908" height="8.88554217" rx="1"/><rect x="10.6600985" width="6.2183908" height="8.88554217" rx="1"/><rect x="21.320197" width="6.2183908" height="8.88554217" rx="1"/></g><g transform="translate(206.095238 3.554217)" fill="#E7E7E7"><rect width="6.2183908" height="8.88554217" rx="1"/><rect x="10.6600985" width="6.2183908" height="8.88554217" rx="1"/><rect x="21.320197" width="6.2183908" height="8.88554217" rx="1"/></g><g transform="translate(246.070608 3.554217)" fill="#E7E7E7"><rect width="6.2183908" height="8.88554217" rx="1"/><rect x="10.6600985" width="6.2183908" height="8.88554217" rx="1"/><rect x="21.320197" width="6.2183908" height="8.88554217" rx="1"/></g><g transform="translate(286.045977 3.554217)" fill="#E7E7E7"><rect width="6.2183908" height="8.88554217" rx="1"/><rect x="10.6600985" width="6.2183908" height="8.88554217" rx="1"/><rect x="21.320197" width="6.2183908" height="8.88554217" rx="1"/></g><g transform="translate(326.021346 3.554217)" fill="#E7E7E7"><rect width="6.2183908" height="8.88554217" rx="1"/><rect x="10.6600985" width="6.2183908" height="8.88554217" rx="1"/><rect x="21.320197" width="6.2183908" height="8.88554217" rx="1"/></g><g transform="translate(365.996716 3.554217)" fill="#E7E7E7"><rect width="6.2183908" height="8.88554217" rx="1"/><rect x="10.6600985" width="6.2183908" height="8.88554217" rx="1"/><rect x="21.320197" width="6.2183908" height="8.88554217" rx="1"/></g><g transform="translate(405.972085 3.554217)" fill="#E7E7E7"><rect width="6.2183908" height="8.88554217" rx="1"/><rect x="10.6600985" width="6.2183908" height="8.88554217" rx="1"/><rect x="21.320197" width="6.2183908" height="8.88554217" rx="1"/></g><g transform="translate(445.947455 3.554217)" fill="#E7E7E7"><rect width="6.2183908" height="8.88554217" rx="1"/><rect x="10.6600985" width="6.2183908" height="8.88554217" rx="1"/><rect x="21.320197" width="6.2183908" height="8.88554217" rx="1"/></g><g transform="translate(485.922824 3.554217)" fill="#E7E7E7"><rect width="6.2183908" height="8.88554217" rx="1"/><rect x="39" width="6.2183908" height="8.88554217" rx="1"/><rect x="11" width="6.2183908" height="8.88554217" rx="1"/><rect x="50" width="6.2183908" height="8.88554217" rx="1"/><rect x="21" width="6.2183908" height="8.88554217" rx="1"/><rect x="60" width="6.2183908" height="8.88554217" rx="1"/><rect x="77" width="6.2183908" height="8.88554217" rx="1"/><rect x="88" width="6.2183908" height="8.88554217" rx="1"/><rect x="98" width="6.2183908" height="8.88554217" rx="1"/></g><g transform="translate(45.305419 3.554217)" fill="#E7E7E7"><rect width="6.2183908" height="8.88554217" rx="1"/><rect x="10.6600985" width="6.2183908" height="8.88554217" rx="1"/><rect x="21.320197" width="6.2183908" height="8.88554217" rx="1"/></g><path fill="#D8D8D8" d="M4.44170772 88.8554217h28.4269294v7.99698795H4.44170772zM4.44170772 118.177711h28.4269294v7.99698795H4.44170772zM4.44170772 148.388554h28.4269294v7.99698795H4.44170772zM4.44170772 177.710843h28.4269294v7.99698795H4.44170772zM4.44170772 207.033133h28.4269294v7.99698795H4.44170772z"/></g></g><path fill="#FFF" mask="url(#c)" d="M-16.8119534-2.41919192h688.405248v36.2373737h-688.405248z"/><ellipse fill="#E1E1E1" cx="18.1051805" cy="16.1684783" rx="4.76452119" ry="4.75543478"/><ellipse fill="#E1E1E1" cx="34.3045526" cy="16.1684783" rx="4.76452119" ry="4.75543478"/><ellipse fill="#E1E1E1" cx="51.4568289" cy="16.1684783" rx="4.76452119" ry="4.75543478"/></g><g transform="translate(26 146)"><mask id="f" fill="#fff"><use xlink:href="#d"/></mask><use fill="#000" filter="url(#e)" xlink:href="#d"/><use fill="#F9FAFA" xlink:href="#d"/><path fill="#FFF" fill-rule="nonzero" mask="url(#f)" d="M2 22h609v332H2z"/><path fill="#D8D8D8" fill-rule="nonzero" mask="url(#f)" d="M18 70h576v1H18z"/><path fill="#F5F5F5" fill-rule="nonzero" mask="url(#f)" d="M18 94h138v248H18zM164 94h138v248H164zM310 94h138v248H310zM456 94h138v248H456z"/><path fill="#D8D8D8" fill-rule="nonzero" mask="url(#f)" d="M18 55h24v5H18zM47 55h24v5H47zM77 55h24v5H77z"/><path fill="#FFF" fill-rule="nonzero" mask="url(#f)" d="M20 97h133v31H20zM167 97h133v31H167zM313 97h133v31H313zM20 131h133v31H20zM167 131h133v31H167zM313 131h133v31H313z"/><path fill="#7ED321" fill-rule="nonzero" mask="url(#f)" d="M20 97h3v31h-3zM167 97h3v31h-3zM313 97h3v31h-3zM20 131h3v31h-3z"/><path fill="#F5A623" fill-rule="nonzero" mask="url(#f)" d="M167 131h3v31h-3zM313 131h3v31h-3z"/><path fill="#D8D8D8" fill-rule="nonzero" mask="url(#f)" d="M29 102h39v5H29zM176 102h39v5h-39zM322 102h39v5h-39zM29 136h39v5H29zM176 136h39v5h-39zM322 136h39v5h-39zM139 102h9v9h-9zM286 102h9v9h-9zM432 102h9v9h-9zM139 136h9v9h-9zM286 136h9v9h-9zM432 136h9v9h-9zM29 110h92v5H29zM176 110h92v5h-92zM322 110h92v5h-92zM29 144h53v5H29zM176 144h98v5h-98zM322 144h85v5h-85z"/><rect fill="#4A90E2" fill-rule="nonzero" mask="url(#f)" x="29" y="119" width="50" height="5" rx="2.5"/><rect fill="#4A90E2" fill-rule="nonzero" mask="url(#f)" x="176" y="119" width="50" height="5" rx="2.5"/><rect fill="#FFCF00" fill-rule="nonzero" mask="url(#f)" x="322" y="119" width="50" height="5" rx="2.5"/><rect fill="#4A90E2" fill-rule="nonzero" mask="url(#f)" x="29" y="153" width="50" height="5" rx="2.5"/><path fill="#FFF" fill-rule="nonzero" mask="url(#f)" d="M20 165h133v31H20zM167 165h133v31H167zM313 165h133v31H313zM459 97h133v31H459z"/><path fill="#7ED321" fill-rule="nonzero" mask="url(#f)" d="M20 165h3v31h-3z"/><path fill="#F5A623" fill-rule="nonzero" mask="url(#f)" d="M167 165h3v31h-3zM313 165h3v31h-3z"/><path fill="#7ED321" fill-rule="nonzero" mask="url(#f)" d="M459 97h3v31h-3z"/><path fill="#D8D8D8" fill-rule="nonzero" mask="url(#f)" d="M29 170h39v5H29zM176 170h39v5h-39zM322 170h39v5h-39zM468 102h39v5h-39zM139 170h9v9h-9zM286 170h9v9h-9zM432 170h9v9h-9zM578 102h9v9h-9zM29 179h72v5H29zM176 179h53v5h-53zM322 179h55v5h-55zM468 111h55v5h-55z"/><rect fill="#4A90E2" fill-rule="nonzero" mask="url(#f)" x="29" y="187" width="50" height="5" rx="2.5"/><path fill="#FFF" fill-rule="nonzero" mask="url(#f)" d="M20 199h133v31H20zM313 199h133v31H313zM459 131h133v31H459zM313 233h133v31H313zM459 165h133v31H459z"/><path fill="#7ED321" fill-rule="nonzero" mask="url(#f)" d="M20 199h3v31h-3zM313 199h3v31h-3zM459 131h3v31h-3zM313 233h3v31h-3zM459 165h3v31h-3z"/><path fill="#D8D8D8" fill-rule="nonzero" mask="url(#f)" d="M29 204h39v5H29zM322 204h39v5h-39zM468 136h39v5h-39zM322 238h39v5h-39zM468 170h39v5h-39zM139 204h9v9h-9zM432 204h9v9h-9zM578 136h9v9h-9zM432 238h9v9h-9zM578 170h9v9h-9zM29 212h58v5H29zM322 212h68v5h-68zM468 144h68v5h-68zM322 246h79v5h-79zM468 178h79v5h-79z"/><rect fill="#4A90E2" fill-rule="nonzero" mask="url(#f)" x="29" y="221" width="50" height="5" rx="2.5"/><rect fill="#FFCF00" fill-rule="nonzero" mask="url(#f)" x="322" y="221" width="50" height="5" rx="2.5"/><rect fill="#7ED321" fill-rule="nonzero" mask="url(#f)" x="468" y="153" width="50" height="5" rx="2.5"/><rect fill="#FFCF00" fill-rule="nonzero" mask="url(#f)" x="322" y="255" width="50" height="5" rx="2.5"/><rect fill="#7ED321" fill-rule="nonzero" mask="url(#f)" x="468" y="187" width="50" height="5" rx="2.5"/><path fill="#FFF" mask="url(#f)" d="M-16.8119534-4.41919192h688.405248v36.2373737h-688.405248z"/><ellipse fill="#E1E1E1" cx="18.1051805" cy="16.1684783" rx="4.76452119" ry="4.75543478"/><ellipse fill="#E1E1E1" cx="34.3045526" cy="16.1684783" rx="4.76452119" ry="4.75543478"/><ellipse fill="#E1E1E1" cx="51.4568289" cy="16.1684783" rx="4.76452119" ry="4.75543478"/></g></g></svg>