<svg xmlns="http://www.w3.org/2000/svg" width="28" height="28"><path d="M11.535 13.27L3.1 8.302l8.436-5.376V13.27zm-8.967 5.863l8.967-3.789.001 8.94-8.968-5.151zm4.423 7.463l-4.486-6.024 8.602 4.912-4.116 1.112zM2.164 9.21l8.647 5.077-9.367 3.962.72-9.039zm6.321-7.82l2.23.55-6.028 3.83 3.798-4.38zm3.806-.375L8.492.024A.801.801 0 007.7.273L1.16 7.859a.925.925 0 00-.217.517l-.86 10.766a.893.893 0 00.168.585l5.9 7.96a.78.78 0 00.832.285l5.315-1.479a.766.766 0 00.564-.737l-.001-10.932.001-13.073a.763.763 0 00-.57-.737zm4.743 13.271l8.647-5.077.72 9.04-9.367-3.963zm3.819 12.31l-4.115-1.112 8.601-4.912-4.486 6.024zm-4.544-11.252l8.968 3.789-8.969 5.151.001-8.94zm8.435-7.043l-8.435 4.97V2.925L24.743 8.3zM19.36 1.389l3.797 4.382L17.13 1.94l2.23-.55zm7.326 6.47L20.146.273a.802.802 0 00-.794-.249l-3.799.99a.763.763 0 00-.57.737v24.005c0 .344.231.647.564.737l5.314 1.479a.782.782 0 00.831-.284l5.9-7.961a.896.896 0 00.17-.585l-.86-10.766a.927.927 0 00-.216-.517z" fill="#0A0B09" fill-rule="evenodd" opacity=".7"/></svg>