<svg xmlns="http://www.w3.org/2000/svg" width="228" height="29" viewBox="0 0 228 29">
    <g fill="none" fill-rule="evenodd">
        <path fill="#0A0B09" d="M41.768 20.109h2.713c1.56 0 3.793-.312 3.793-2.54 0-1.773-1.225-2.396-3.673-2.396h-2.833v4.936zm0-7.524h2.689c2.016 0 3.096-.838 3.096-2.3 0-1.51-1.08-2.108-3.36-2.108h-2.425v4.408zm-3.025-6.9h6.626c2.569 0 5.21 1.174 5.21 4.265 0 1.917-1.2 3.186-2.953 3.713v.048c2.136.288 3.673 1.726 3.673 4.002 0 3.69-3.217 4.935-6.434 4.935h-6.122V5.685zM53.1 11.148h2.76v1.916h.049c.624-1.317 1.848-2.252 3.36-2.252.216 0 .505.024.697.072v2.636a3.371 3.371 0 0 0-.889-.12c-2.593 0-3.097 2.252-3.097 3.091v6.157H53.1v-11.5M67.888 17.401h-.648c-1.825 0-4.393.216-4.393 1.917 0 1.102 1.032 1.438 2.016 1.438 1.97 0 3.025-1.126 3.025-2.947V17.4zm.048 3.786h-.072c-.576 1.006-1.944 1.749-3.577 1.749-1.849 0-4.321-.887-4.321-3.57 0-3.426 4.321-3.906 7.922-3.906v-.287c0-1.414-1.2-2.109-2.64-2.109-1.225 0-2.401.576-3.146 1.318l-1.488-1.749c1.296-1.198 3.121-1.82 4.874-1.82 4.129 0 5.137 2.539 5.137 4.839v6.996h-2.689v-1.461zM73.362 22.648h2.881v-11.5h-2.88v11.5zm1.417-17.13c1.056 0 1.872.742 1.872 1.724 0 .983-.816 1.725-1.872 1.725s-1.825-.814-1.825-1.725c0-.91.769-1.725 1.825-1.725zM79.076 11.148h2.737v1.845h.048c.504-1.15 1.872-2.18 3.577-2.18 3.001 0 4.25 2.3 4.25 4.647v7.188h-2.881v-6.373c0-1.365-.313-3.067-2.161-3.067-1.825 0-2.69 1.582-2.69 3.115v6.325h-2.88v-11.5M100.635 9.231c-.648-.839-1.92-1.462-3.121-1.462-1.392 0-3.001.671-3.001 2.324 0 1.558 1.32 2.013 3.241 2.612 2.184.671 4.97 1.63 4.97 4.96 0 3.642-2.857 5.415-6.194 5.415-2.21 0-4.49-.839-5.834-2.42l2.16-2.013c.84 1.15 2.377 1.869 3.722 1.869 1.416 0 3.073-.695 3.073-2.516 0-1.773-1.777-2.276-3.914-2.947-2.064-.647-4.297-1.653-4.297-4.816 0-3.45 3.145-4.983 6.218-4.983 1.705 0 3.649.599 4.945 1.82l-1.968 2.157M103.252 13.448v-2.3h2.017v-3.33h2.833v3.33h2.88v2.3h-2.88v5.343c0 1.03.24 1.773 1.512 1.773.384 0 .888-.072 1.224-.24l.096 2.253c-.504.191-1.272.311-1.92.311-3.049 0-3.745-1.869-3.745-4.073v-5.367h-2.017M119.985 17.401h-.648c-1.824 0-4.393.216-4.393 1.917 0 1.102 1.032 1.438 2.016 1.438 1.969 0 3.025-1.126 3.025-2.947V17.4zm.048 3.786h-.072c-.576 1.006-1.944 1.749-3.577 1.749-1.848 0-4.321-.887-4.321-3.57 0-3.426 4.321-3.906 7.922-3.906v-.287c0-1.414-1.2-2.109-2.64-2.109-1.225 0-2.401.576-3.145 1.318l-1.489-1.749c1.297-1.198 3.12-1.82 4.874-1.82 4.129 0 5.137 2.539 5.137 4.839v6.996h-2.689v-1.461zM123.853 13.448v-2.3h2.017v-3.33h2.833v3.33h2.88v2.3h-2.88v5.343c0 1.03.24 1.773 1.512 1.773.384 0 .888-.072 1.224-.24l.096 2.253c-.504.191-1.272.311-1.92.311-3.049 0-3.745-1.869-3.745-4.073v-5.367h-2.017M133.744 22.648h2.88v-11.5h-2.88v11.5zm1.417-17.13c1.056 0 1.872.742 1.872 1.724 0 .983-.816 1.725-1.872 1.725-1.057 0-1.825-.814-1.825-1.725 0-.91.768-1.725 1.825-1.725zM144.668 20.588c2.28 0 3.337-1.94 3.337-3.738 0-1.797-1.056-3.69-3.337-3.69s-3.337 1.893-3.337 3.69 1.056 3.738 3.337 3.738zm0-9.776c3.48 0 6.266 2.42 6.266 6.038 0 3.618-2.785 6.134-6.266 6.134-3.482 0-6.266-2.516-6.266-6.134 0-3.618 2.784-6.038 6.266-6.038zM152.71 11.148h2.737v1.845h.048c.504-1.15 1.873-2.18 3.577-2.18 3.001 0 4.25 2.3 4.25 4.647v7.188h-2.881v-6.373c0-1.365-.312-3.067-2.16-3.067-1.826 0-2.69 1.582-2.69 3.115v6.325h-2.88v-11.5M11.535 13.27L3.1 8.302l8.436-5.376V13.27zm-8.967 5.863l8.967-3.789.001 8.94-8.968-5.151zm4.423 7.463l-4.486-6.024 8.602 4.912-4.116 1.112zM2.164 9.21l8.647 5.077-9.367 3.962.72-9.039zm6.321-7.82l2.23.55L4.687 5.77 8.485 1.39zm3.806-.375L8.492.024A.801.801 0 0 0 7.7.273L1.16 7.859a.925.925 0 0 0-.217.517L.083 19.142a.893.893 0 0 0 .168.585l5.9 7.96a.78.78 0 0 0 .832.285l5.315-1.479a.766.766 0 0 0 .564-.737l-.001-10.932.001-13.073a.763.763 0 0 0-.57-.737zM17.034 14.286l8.647-5.077.72 9.04-9.367-3.963zm3.819 12.31l-4.115-1.112 8.601-4.912-4.486 6.024zm-4.544-11.252l8.968 3.789-8.969 5.151.001-8.94zm8.435-7.043l-8.435 4.97V2.925L24.743 8.3zM19.36 1.389l3.797 4.382L17.13 1.94l2.23-.55zm7.326 6.47L20.146.273a.802.802 0 0 0-.794-.249l-3.799.99a.763.763 0 0 0-.57.737V25.756c0 .344.231.647.564.737l5.314 1.479a.782.782 0 0 0 .831-.284l5.9-7.961a.896.896 0 0 0 .17-.585l-.86-10.766a.927.927 0 0 0-.216-.517zM166.672 9.292c.127 0 .249-.024.365-.072.115-.048.172-.145.172-.292 0-.135-.053-.224-.158-.269a.842.842 0 0 0-.332-.067h-.403v.7h.356zm-.798-1.074h.865c.115 0 .227.013.336.039a.896.896 0 0 1 .293.124.66.66 0 0 1 .207.221.67.67 0 0 1 .076.335.619.619 0 0 1-.154.436.768.768 0 0 1-.413.226l.663 1.073h-.538l-.576-1.025h-.317v1.025h-.442V8.218zm-.99 1.237c0 .25.049.486.145.71.096.223.227.42.394.589a1.81 1.81 0 0 0 1.306.542 1.81 1.81 0 0 0 1.307-.542c.165-.17.297-.366.393-.59a1.78 1.78 0 0 0 .144-.709c0-.256-.048-.495-.144-.719a1.866 1.866 0 0 0-.393-.585 1.86 1.86 0 0 0-.587-.393 1.816 1.816 0 0 0-.72-.144 1.846 1.846 0 0 0-1.7 1.122 1.813 1.813 0 0 0-.144.719zm-.345 0a2.161 2.161 0 0 1 .643-1.538c.2-.196.431-.35.697-.465.266-.116.549-.173.85-.173.3 0 .584.057.85.173.266.115.498.27.697.465a2.166 2.166 0 0 1 .643 1.538c0 .3-.058.582-.173.844a2.183 2.183 0 0 1-2.017 1.313 2.21 2.21 0 0 1-1.546-.628 2.178 2.178 0 0 1-.471-.685 2.067 2.067 0 0 1-.173-.844z"/>
        <path fill="#000" d="M182.256 23V6.008h5.064c2.592 0 5.472.936 5.472 4.344 0 1.776-1.2 3.24-3 3.648v.048c2.208.24 3.84 1.776 3.84 4.248 0 2.832-2.424 4.704-6.336 4.704h-5.04zm1.728-15.504v5.952h3.48c1.656 0 3.6-.72 3.6-2.976 0-2.16-1.848-2.976-4.08-2.976h-3zm0 7.368v6.648h3.216c2.496 0 4.68-.936 4.68-3.312 0-2.232-1.608-3.336-4.368-3.336h-3.528zm14.62-10.008V23h-1.632V4.856h1.632zm15.028 12.528c0 3.384-2.496 5.904-6 5.904-3.48 0-5.976-2.52-5.976-5.904s2.496-5.904 5.976-5.904c3.504 0 6 2.52 6 5.904zm-1.728 0c0-2.52-1.656-4.536-4.272-4.536-2.592 0-4.248 2.016-4.248 4.536 0 2.52 1.656 4.512 4.248 4.512 2.616 0 4.272-1.992 4.272-4.512zm4.156 9.12l1.176-1.248c.888 1.152 2.592 2.064 4.296 2.064 3.216 0 4.392-1.992 4.392-4.416v-2.112h-.048c-.864 1.392-2.616 2.208-4.248 2.208-3.504 0-5.808-2.424-5.808-5.712 0-3.192 2.304-5.808 5.808-5.808 1.632 0 3.36.792 4.248 2.232h.048v-1.944h1.632v11.136c0 2.448-1.128 5.856-6.096 5.856-2.064 0-4.08-.864-5.4-2.256zm1.488-9.264c0 2.352 1.536 4.368 4.248 4.368 2.52 0 4.32-1.776 4.32-4.368 0-2.352-1.8-4.392-4.32-4.392-2.712 0-4.248 2.04-4.248 4.392z"/>
    </g>
</svg>
