<svg xmlns="http://www.w3.org/2000/svg" width="18" height="14" fill="none"><mask id="canada-black-a" width="18" height="14" x="0" y="0" maskUnits="userSpaceOnUse"><rect width="18" height="13" y=".5" fill="#fff" rx="1"/></mask><g mask="url(#canada-black-a)"><mask id="canada-black-b" width="18" height="14" x="0" y="0" maskUnits="userSpaceOnUse"><path fill="#fff" fill-rule="evenodd" d="M12.857.5H18v13h-5.143V.5zM0 .5h5.143v13H0V.5zm10.091 6.263c-.129.131-.206.095-.167-.101l.362-1.828-.857.432L9 3.968l-.429 1.3-.857-.433.362 1.828c.037.187-.038.232-.167.1l-.39-.391a.316.316 0 00-.107-.074.308.308 0 00-.254 0 .316.316 0 00-.107.074l-.194.195L6 6.133l.429.868-.195.196a.326.326 0 00-.098.238.338.338 0 00.1.237l1.05 1.062H8.57l.215 1.3h.428l.215-1.3h1.285l1.05-1.062a.335.335 0 00.002-.476l-.195-.195.43-.87-.857.436-.194-.196a.33.33 0 00-.469 0l-.389.392z" clip-rule="evenodd"/></mask><g mask="url(#canada-black-b)"><path fill="#000" d="M0 .5h18v13H0z"/></g></g></svg>