<svg xmlns="http://www.w3.org/2000/svg" width="18" height="18" fill="none" viewBox="0 0 18 18">
    <path fill="currentColor" d="M9 0C4.032 0 0 4.032 0 9s4.032 9 9 9 9-4.032 9-9-4.032-9-9-9zM1.8 9c0-.549.072-1.089.189-1.602L6.291 11.7v.9c0 .99.81 1.8 1.8 1.8v1.737C4.554 15.687 1.8 12.663 1.8 9zm12.501 4.86c-.234-.729-.9-1.26-1.71-1.26h-.9V9.9c0-.495-.405-.9-.9-.9h-5.4V7.2h1.8c.495 0 .9-.405.9-.9V4.5h1.8c.99 0 1.8-.81 1.8-1.8v-.369C14.328 3.393 16.2 5.985 16.2 9c0 1.872-.729 3.582-1.899 4.86z"/>
</svg>
