<svg xmlns="http://www.w3.org/2000/svg" width="55" height="53" fill="none"><path fill="#470137" d="M12.023 0h30.963a11.699 11.699 0 0 1 11.698 11.698v29.603a11.693 11.693 0 0 1-7.222 10.808c-1.419.588-2.94.891-4.476.891H12.023A11.701 11.701 0 0 1 .324 41.3V11.698A11.7 11.7 0 0 1 12.023 0z"/><path fill="#FF61F6" d="m28.9 13.939-6.783 11.195 7.257 11.889c.047.083.06.18.036.273-.024.086-.108.032-.255.056h-5.18c-.36 0-.62-.013-.766-.257-.486-.948-.973-1.89-1.458-2.827a96.747 96.747 0 0 0-1.55-2.862c-.548-.972-1.09-1.957-1.624-2.955h-.036c-.487.973-.991 1.945-1.513 2.918-.522.972-1.04 1.938-1.55 2.898a124.91 124.91 0 0 1-1.566 2.863c-.098.22-.268.241-.511.241H8.406c-.097 0-.152.039-.164-.059a.359.359 0 0 1 .055-.255l7.038-11.564-6.857-11.591c-.074-.098-.086-.176-.036-.241a.251.251 0 0 1 .099-.071.26.26 0 0 1 .12-.02h5.14a.758.758 0 0 1 .33.055c.087.05.161.118.218.2.437.973.924 1.946 1.46 2.918.535.973 1.076 1.933 1.622 2.88a41.286 41.286 0 0 1 1.513 2.88h.036c.482-.996.974-1.969 1.477-2.917.503-.948 1.013-1.903 1.531-2.863a149.52 149.52 0 0 0 1.513-2.862.566.566 0 0 1 .146-.241.514.514 0 0 1 .291-.054h4.777a.207.207 0 0 1 .218.078.211.211 0 0 1 .031.19.212.212 0 0 1-.067.095l.003.01zm10.466 23.885a11.303 11.303 0 0 1-4.868-1.02 7.74 7.74 0 0 1-3.41-3.083 9.836 9.836 0 0 1-1.24-5.159 9.518 9.518 0 0 1 1.24-4.777 9.1 9.1 0 0 1 3.614-3.5 11.644 11.644 0 0 1 5.724-1.314c.12 0 .28.007.474.017.196.011.426.03.693.056v-7.185c0-.17.072-.255.22-.255h4.593a.177.177 0 0 1 .076.004.172.172 0 0 1 .068.033c.02.015.038.034.05.056a.183.183 0 0 1 .026.126v21.556c0 .415.018.864.055 1.35.037.484.068.922.092 1.311a.383.383 0 0 1-.22.362c-1.185.494-2.42.86-3.683 1.093a19.713 19.713 0 0 1-3.504.329zm2.223-4.522v-9.955a3.604 3.604 0 0 0-.602-.11 7.163 7.163 0 0 0-.748-.036 5.614 5.614 0 0 0-2.552.584 4.975 4.975 0 0 0-1.914 1.678 5.004 5.004 0 0 0-.748 2.88 6.42 6.42 0 0 0 .383 2.334c.22.602.57 1.15 1.021 1.605.433.418.957.73 1.531.91a5.939 5.939 0 0 0 1.88.293c.339 0 .655-.012.947-.037.272-.02.54-.069.802-.146z"/></svg>