<svg xmlns="http://www.w3.org/2000/svg" width="72" height="48" fill="none"><path fill="#054ADA" d="M64.167 30.661h3.917v-1.956h-1.959v-1.958l-1.958-.009v-1.956H62.21V20.88l1.957-.015v-1.946l5.874.008v1.944h-3.916v1.958h1.959v1.96l1.941.007v1.96H72v3.903h-1.958l-.016 1.96h-5.858V30.66zm-1.957-1.94h1.942v1.944H62.21v-1.944zm7.847-7.834L72 20.88v1.944l-1.942.007v-1.944zm-14.96-.013H53.14v-1.958h1.958v-1.942l1.958-.014v-1.947L62.929 15v1.943l-3.915.014v1.959h1.957v1.958h-1.957V32.62h-3.916V20.874zm-3.523 5.873v-5.873h-1.957v-1.958h-7.832v1.958h-1.958v9.789h1.958v1.958h7.832v-1.958h-5.874v-3.916h7.83zm-7.831-5.873h3.915v3.915h-3.915v-3.915zm7.831 9.789h-1.957v-1.958h1.957v1.958zM28.338 18.916h3.916v1.958h1.958v-1.958h3.915v3.915h-5.873v9.79h-3.916V18.915zM14.263 15h3.915v3.916h5.874v1.958h1.958V32.62h-3.913V20.874h-3.919V32.62h-3.915V15z"/><path fill="#F80" d="M1.958 24.79h5.874v-3.916H1.958v-1.958H9.79v1.958h1.958V32.62H1.96v-1.96H0v-3.914h1.958V24.79zm1.958 1.957v3.916h3.916v-3.916H3.916zM0 20.874h1.958v1.957H0v-1.957z"/></svg>