<svg width="48" height="30" viewBox="0 0 48 30" fill="none" xmlns="http://www.w3.org/2000/svg">
<path d="M13.5266 11.0727C13.5266 11.6633 13.5905 12.1423 13.7022 12.4935C13.8299 12.8447 13.9896 13.2279 14.2131 13.6429C14.2929 13.7706 14.3248 13.8984 14.3248 14.0101C14.3248 14.1698 14.229 14.3294 14.0215 14.489L13.0157 15.1595C12.8721 15.2553 12.7284 15.3032 12.6007 15.3032C12.441 15.3032 12.2814 15.2234 12.1217 15.0797C11.8982 14.8403 11.7067 14.5848 11.547 14.3294C11.3874 14.058 11.2277 13.7547 11.0521 13.3875C9.8069 14.8562 8.2424 15.5906 6.35861 15.5906C5.0176 15.5906 3.94799 15.2074 3.16574 14.4411C2.38348 13.6749 1.98438 12.6531 1.98438 11.376C1.98438 10.019 2.46331 8.91748 3.43713 8.08733C4.41096 7.25719 5.70407 6.84212 7.34839 6.84212C7.89118 6.84212 8.44993 6.89001 9.04061 6.96983C9.6313 7.04965 10.2379 7.17737 10.8765 7.32105V6.15565C10.8765 4.94236 10.6211 4.09625 10.1262 3.60135C9.61533 3.10646 8.75326 2.86699 7.524 2.86699C6.96525 2.86699 6.39053 2.93085 5.79985 3.07453C5.20917 3.21821 4.63446 3.39382 4.0757 3.61732C3.82027 3.72907 3.6287 3.79293 3.51695 3.82485C3.4052 3.85678 3.32538 3.87275 3.26152 3.87275C3.03802 3.87275 2.92627 3.7131 2.92627 3.37785V2.5956C2.92627 2.34017 2.9582 2.1486 3.03802 2.03685C3.11784 1.9251 3.26152 1.81335 3.48502 1.7016C4.04378 1.41424 4.71428 1.17477 5.49653 0.9832C6.27878 0.775664 7.10893 0.679878 7.98697 0.679878C9.88672 0.679878 11.2756 1.11092 12.1696 1.97299C13.0477 2.83506 13.4947 4.14414 13.4947 5.90022V11.0727H13.5266ZM7.04507 13.4992C7.5719 13.4992 8.11468 13.4035 8.6894 13.2119C9.26412 13.0203 9.77497 12.6691 10.206 12.1902C10.4614 11.8868 10.653 11.5516 10.7488 11.1685C10.8446 10.7853 10.9084 10.3223 10.9084 9.77956V9.10905C10.4455 8.9973 9.95058 8.90152 9.43972 8.83766C8.92886 8.7738 8.43397 8.74187 7.93908 8.74187C6.86946 8.74187 6.08721 8.94941 5.56039 9.38045C5.03356 9.81148 4.77814 10.4181 4.77814 11.2163C4.77814 11.9667 4.96971 12.5254 5.36882 12.9086C5.75196 13.3077 6.31071 13.4992 7.04507 13.4992ZM19.8644 15.2234C19.5771 15.2234 19.3855 15.1755 19.2578 15.0638C19.1301 14.968 19.0183 14.7445 18.9225 14.4411L15.1709 2.1007C15.0751 1.78142 15.0272 1.57388 15.0272 1.46213C15.0272 1.2067 15.155 1.06302 15.4104 1.06302H16.9749C17.2782 1.06302 17.4858 1.11092 17.5975 1.22267C17.7252 1.31845 17.821 1.54195 17.9168 1.84528L20.5988 12.4137L23.0892 1.84528C23.1691 1.52599 23.2648 1.31845 23.3926 1.22267C23.5203 1.12688 23.7438 1.06302 24.0311 1.06302H25.3083C25.6116 1.06302 25.8191 1.11092 25.9469 1.22267C26.0746 1.31845 26.1863 1.54195 26.2502 1.84528L28.7725 12.5414L31.5344 1.84528C31.6302 1.52599 31.7419 1.31845 31.8537 1.22267C31.9814 1.12688 32.1889 1.06302 32.4763 1.06302H33.961C34.2164 1.06302 34.3601 1.19074 34.3601 1.46213C34.3601 1.54195 34.3441 1.62177 34.3281 1.71756C34.3122 1.81335 34.2802 1.94106 34.2164 2.11667L30.369 14.4571C30.2732 14.7764 30.1614 14.9839 30.0337 15.0797C29.906 15.1755 29.6985 15.2394 29.4271 15.2394H28.0541C27.7508 15.2394 27.5433 15.1915 27.4156 15.0797C27.2879 14.968 27.1761 14.7604 27.1123 14.4411L24.6378 4.14414L22.1793 14.4252C22.0994 14.7445 22.0037 14.952 21.8759 15.0638C21.7482 15.1755 21.5247 15.2234 21.2374 15.2234H19.8644ZM40.3786 15.6544C39.5485 15.6544 38.7183 15.5586 37.9201 15.3671C37.1219 15.1755 36.4993 14.968 36.0842 14.7285C35.8288 14.5848 35.6532 14.4252 35.5893 14.2815C35.5255 14.1378 35.4935 13.9782 35.4935 13.8345V13.0203C35.4935 12.6851 35.6212 12.5254 35.8607 12.5254C35.9565 12.5254 36.0523 12.5414 36.1481 12.5733C36.2439 12.6052 36.3875 12.6691 36.5472 12.733C37.09 12.9724 37.6806 13.164 38.3033 13.2917C38.9418 13.4194 39.5644 13.4833 40.203 13.4833C41.2088 13.4833 41.991 13.3077 42.5338 12.9565C43.0766 12.6052 43.364 12.0944 43.364 11.4398C43.364 10.9928 43.2203 10.6257 42.9329 10.3223C42.6456 10.019 42.1028 9.74763 41.3205 9.4922L39.0057 8.7738C37.8403 8.40662 36.9782 7.86383 36.4514 7.14544C35.9246 6.44301 35.6532 5.66075 35.6532 4.83061C35.6532 4.1601 35.7969 3.56942 36.0842 3.05857C36.3716 2.54771 36.7547 2.1007 37.2336 1.74949C37.7126 1.38231 38.2554 1.11092 38.8939 0.919343C39.5325 0.727771 40.203 0.647949 40.9054 0.647949C41.2567 0.647949 41.6238 0.663914 41.9751 0.711807C42.3422 0.7597 42.6775 0.823557 43.0127 0.887414C43.332 0.967236 43.6353 1.04706 43.9227 1.14284C44.2101 1.23863 44.4336 1.33442 44.5932 1.4302C44.8167 1.55792 44.9764 1.68563 45.0721 1.82931C45.1679 1.95703 45.2158 2.13263 45.2158 2.35613V3.10646C45.2158 3.44171 45.0881 3.61732 44.8486 3.61732C44.7209 3.61732 44.5134 3.55346 44.242 3.42575C43.332 3.01067 42.3103 2.80314 41.1768 2.80314C40.2669 2.80314 39.5485 2.94681 39.0536 3.25014C38.5587 3.55346 38.3033 4.01643 38.3033 4.67096C38.3033 5.11797 38.4629 5.50111 38.7822 5.80443C39.1015 6.10776 39.6922 6.41108 40.5383 6.68247L42.8052 7.40087C43.9546 7.76805 44.7848 8.27891 45.2797 8.93344C45.7746 9.58798 46.014 10.3383 46.014 11.1685C46.014 11.8549 45.8704 12.4775 45.599 13.0203C45.3116 13.5631 44.9285 14.042 44.4336 14.4252C43.9387 14.8243 43.348 15.1116 42.6615 15.3192C41.9431 15.5427 41.1928 15.6544 40.3786 15.6544Z" fill="white"/>
<path fill-rule="evenodd" clip-rule="evenodd" d="M43.3962 23.4135C38.1439 27.2929 30.513 29.3523 23.9516 29.3523C14.7562 29.3523 6.47067 25.9519 0.212648 20.3005C-0.282247 19.8535 0.164755 19.2468 0.755435 19.5981C7.52432 23.5253 15.8737 25.904 24.5104 25.904C30.3374 25.904 36.7391 24.6907 42.6299 22.2002C43.508 21.8011 44.2583 22.775 43.3962 23.4135Z" fill="white"/>
<path fill-rule="evenodd" clip-rule="evenodd" d="M45.5834 20.9229C44.9129 20.0608 41.1453 20.5078 39.4371 20.7154C38.9262 20.7792 38.8464 20.3322 39.3094 19.997C42.3107 17.8897 47.2436 18.4963 47.8184 19.1987C48.3931 19.9171 47.6587 24.8501 44.849 27.2128C44.418 27.58 44.0029 27.3885 44.1945 26.9095C44.833 25.3291 46.2539 21.769 45.5834 20.9229Z" fill="white"/>
</svg>
