<svg xmlns="http://www.w3.org/2000/svg" width="166" height="24" fill="none" viewBox="0 0 166 24">
    <path fill="#fff" d="M82.533 2.953l-6.078 4.951h3.97V24l2.108-1.698V2.952zM84.285 20.864l6.185-5.076h-4.08V.061l-2.105 1.465v19.338zM160.844 5.844c.701.365 1.205.673 1.513.925l2.187-4.162c-1.093-.673-2.411-1.276-3.953-1.808C159.078.266 157.438 0 155.672 0c-1.682 0-3.237.28-4.667.84-1.401.562-2.523 1.388-3.363 2.482-.813 1.093-1.22 2.452-1.22 4.078 0 1.822.575 3.223 1.724 4.204 1.177.954 2.971 1.738 5.382 2.355 1.934.505 3.49.967 4.667 1.388 1.205.392 1.808 1.05 1.808 1.976 0 1.373-1.29 2.06-3.868 2.06-1.29 0-2.509-.154-3.658-.463-1.149-.308-2.159-.686-3.028-1.135-.84-.448-1.443-.855-1.807-1.22l-2.271 4.416c1.458.925 3.125 1.653 5.003 2.186 1.878.533 3.771.799 5.677.799 1.653 0 3.195-.224 4.625-.673 1.429-.476 2.578-1.233 3.447-2.27.897-1.066 1.346-2.467 1.346-4.205 0-1.43-.337-2.579-1.009-3.448-.645-.896-1.584-1.611-2.817-2.144-1.206-.532-2.635-1.009-4.289-1.43-1.878-.448-3.308-.854-4.289-1.219-.953-.364-1.429-.98-1.429-1.85 0-1.485 1.317-2.228 3.952-2.228.981 0 1.934.14 2.859.42.925.253 1.724.56 2.397.925z"/>
    <path fill="#fff" fill-rule="evenodd" d="M116.597 23.84c-1.85 0-3.532-.323-5.046-.967-1.514-.673-2.818-1.57-3.911-2.691-1.093-1.15-1.934-2.439-2.523-3.868-.587-1.43-.883-2.902-.883-4.415 0-1.542.309-3.027.925-4.457.617-1.43 1.487-2.69 2.608-3.784 1.121-1.121 2.438-2.004 3.951-2.649 1.514-.645 3.168-.967 4.962-.967 1.85 0 3.532.35 5.046 1.051 1.514.673 2.803 1.584 3.868 2.733 1.093 1.121 1.933 2.397 2.522 3.826.589 1.43.884 2.887.884 4.373 0 1.541-.308 3.027-.925 4.457-.617 1.401-1.487 2.663-2.608 3.784-1.093 1.093-2.395 1.962-3.909 2.607-1.514.644-3.168.967-4.961.967zm-7.233-11.9c0 1.262.295 2.468.884 3.617.587 1.12 1.414 2.032 2.48 2.733 1.093.7 2.396 1.05 3.91 1.05 1.541 0 2.845-.364 3.91-1.092 1.066-.757 1.878-1.696 2.439-2.818.56-1.149.841-2.326.841-3.531 0-1.262-.294-2.453-.883-3.574-.588-1.121-1.429-2.018-2.523-2.691-1.065-.7-2.34-1.051-3.825-1.051-1.542 0-2.86.364-3.954 1.093-1.065.729-1.878 1.654-2.438 2.775-.561 1.121-.841 2.284-.841 3.49zM.813 23.672L11.07.168h4.163l10.217 23.504h-5.382l-2.354-5.508H8.59l-2.355 5.508H.813zm12.36-17.323l-3.447 7.4h6.77l-3.322-7.4z" clip-rule="evenodd"/>
    <path fill="#fff" d="M45.33.168l6.474 8.325L58.28.168h5.508l-9.292 11.9 8.998 11.604h-5.508l-6.18-7.989-6.14 7.989h-5.591l9.04-11.605L39.778.168h5.55z"/>
</svg>
