<svg fill="none" height="48" viewBox="0 0 151 48" width="151" xmlns="http://www.w3.org/2000/svg" xmlns:xlink="http://www.w3.org/1999/xlink"><clipPath id="a"><path d="m0 0h150.261v48h-150.261z"/></clipPath><g clip-path="url(#a)"><path clip-rule="evenodd" d="m0 42.991c0 2.766 2.243 5.009 5.009 5.009h140.243c2.766 0 5.009-2.243 5.009-5.009v-37.981c0-2.766-2.243-5.009-5.009-5.009h-140.243c-2.766-.001-5.009 2.242-5.009 5.008v37.981z" fill="#c00" fill-rule="evenodd"/><path d="m23.965 31.904c.053-.882.107-2.19.107-3.34v-15.624h2.323v8.12h.054c.828-1.442 2.324-2.377 4.407-2.377 3.206 0 5.476 2.67 5.449 6.598 0 4.62-2.912 6.918-5.796 6.918-1.87 0-3.366-.721-4.327-2.43h-.08l-.107 2.136h-2.03zm2.43-5.182c0 .294.054.587.107.855.454 1.63 1.817 2.751 3.526 2.751 2.458 0 3.927-2.003 3.927-4.968 0-2.591-1.336-4.808-3.847-4.808-1.602 0-3.098 1.095-3.58 2.884-.052.268-.133.588-.133.962zm20.639 5.182-.187-1.63h-.08c-.722 1.015-2.11 1.924-3.954 1.924-2.617 0-3.953-1.844-3.953-3.714 0-3.125 2.778-4.834 7.773-4.808v-.267c0-1.068-.294-2.991-2.938-2.991-1.202 0-2.458.374-3.365.962l-.535-1.55c1.069-.694 2.618-1.148 4.247-1.148 3.954 0 4.915 2.698 4.915 5.289v4.834c0 1.122.053 2.217.214 3.099zm-.348-6.598c-2.564-.053-5.475.4-5.475 2.911 0 1.523 1.015 2.244 2.217 2.244 1.683 0 2.75-1.069 3.125-2.164.08-.24.133-.507.133-.748zm6.454-12.366h2.35v18.964h-2.35zm6.243 16.56c.694.454 1.922.934 3.098.934 1.71 0 2.51-.854 2.51-1.923 0-1.122-.667-1.736-2.403-2.377-2.324-.828-3.42-2.11-3.42-3.66 0-2.083 1.684-3.793 4.462-3.793 1.309 0 2.457.374 3.178.802l-.587 1.71c-.508-.321-1.443-.748-2.645-.748-1.389 0-2.163.801-2.163 1.763 0 1.068.774 1.549 2.457 2.19 2.244.855 3.392 1.977 3.392 3.9 0 2.27-1.763 3.873-4.835 3.873-1.415 0-2.724-.347-3.633-.88zm18.733 2.404-.187-1.63h-.08c-.722 1.015-2.11 1.924-3.954 1.924-2.617 0-3.953-1.844-3.953-3.714 0-3.125 2.779-4.834 7.773-4.808v-.267c0-1.068-.293-2.991-2.938-2.991-1.202 0-2.457.374-3.365.962l-.535-1.55c1.069-.694 2.618-1.148 4.247-1.148 3.954 0 4.915 2.698 4.915 5.289v4.834c0 1.122.053 2.217.214 3.099zm-.347-6.598c-2.565-.053-5.476.4-5.476 2.911 0 1.523 1.015 2.244 2.217 2.244 1.682 0 2.751-1.069 3.125-2.164.08-.24.133-.507.133-.748v-2.243zm6.435-2.831c0-1.336-.027-2.431-.107-3.5h2.057l.107 2.084h.08c.721-1.228 1.923-2.377 4.06-2.377 1.763 0 3.099 1.069 3.66 2.591h.053c.4-.721.908-1.282 1.443-1.683.774-.587 1.629-.908 2.858-.908 1.709 0 4.247 1.122 4.247 5.61v7.612h-2.297v-7.32c0-2.484-.909-3.98-2.805-3.98-1.335 0-2.377.99-2.778 2.138-.107.32-.187.748-.187 1.175v7.987h-2.297v-7.747c0-2.057-.908-3.552-2.698-3.552-1.47 0-2.537 1.175-2.912 2.35-.133.348-.187.748-.187 1.149v7.8h-2.297v-9.43zm25.281-7.132c.027.801-.561 1.442-1.495 1.442-.828 0-1.416-.64-1.416-1.442 0-.828.614-1.47 1.469-1.47.881 0 1.442.642 1.442 1.47zm-2.617 16.56v-12.927h2.35v12.929h-2.35zm15.543-2.003h-.054c-.694 1.282-2.137 2.297-4.22 2.297-3.018 0-5.476-2.617-5.476-6.544 0-4.834 3.125-6.971 5.85-6.971 2.003 0 3.339.988 3.98 2.243h.054l.079-1.95h2.217c-.053 1.096-.079 2.217-.079 3.553v14.664h-2.351zm0-5.69c0-.32-.027-.694-.107-.988-.348-1.442-1.603-2.671-3.366-2.671-2.43 0-3.9 2.057-3.9 4.968 0 2.565 1.229 4.809 3.82 4.809 1.522 0 2.831-.935 3.365-2.565.107-.32.187-.775.187-1.122v-2.43h.001zm9.258-3.619c0 1.122-.911 2.023-2.068 2.023s-2.08-.9-2.08-2.023c0-1.11.923-2.01 2.08-2.01s2.068.9 2.068 2.01zm-3.529.012c0 .842.619 1.508 1.461 1.508s1.461-.667 1.461-1.52c0-.83-.619-1.508-1.472-1.508-.83 0-1.45.679-1.45 1.52zm1.204.947h-.573v-1.858c.129-.024.433-.059.819-.059.42 0 .607.059.748.14.116.082.198.223.198.41 0 .186-.175.35-.432.42v.024c.211.07.327.21.386.479.058.269.093.374.128.443h-.642c-.059-.07-.094-.233-.129-.396-.035-.188-.129-.281-.315-.281h-.187v.678zm.024-1.064h.164c.21 0 .35-.081.35-.221 0-.152-.129-.234-.327-.234-.07 0-.14.011-.187.011z" fill="#fff"/></g></svg>