<svg width="43" height="48" viewBox="0 0 43 48" fill="none" xmlns="http://www.w3.org/2000/svg">
<path d="M40.0059 9.80339L24.8737 0.813559C23.9788 0.284746 22.9619 0 21.9449 0C20.928 0 19.911 0.284746 19.0161 0.813559L3.88389 9.80339C2.09406 10.861 0.955078 12.8542 0.955078 15.0102V32.9898C0.955078 35.1458 2.05338 37.0983 3.88389 38.1966L19.0161 47.1864C19.911 47.7153 20.928 48 21.9449 48C22.9619 48 23.9788 47.7153 24.8737 47.1864L40.0059 38.1966C41.7958 37.139 42.9347 35.1458 42.9347 32.9898V14.9695C42.9347 12.8542 41.8364 10.861 40.0059 9.80339ZM19.5449 46.2102L4.41271 37.2203C2.9483 36.3254 2.01271 34.6983 2.01271 32.9492V14.9695C2.01271 13.2203 2.9483 11.5525 4.41271 10.6983L19.5449 1.70847C20.2771 1.26102 21.0907 1.05763 21.9449 1.05763C22.7991 1.05763 23.6127 1.30169 24.3449 1.70847L39.4771 10.6983C40.7381 11.4305 41.5517 12.7322 41.7958 14.1559C41.3076 13.0983 40.1686 12.7729 38.8263 13.5458L24.5483 22.4136C22.7585 23.4712 21.4568 24.6102 21.4568 26.7661V44.4203C21.4568 45.722 21.9856 46.5356 22.7585 46.7797C22.5144 46.8203 22.2297 46.861 21.9449 46.861C21.1313 46.9017 20.2771 46.6576 19.5449 46.2102Z" fill="white"/>
<path d="M36.061 34.6984L32.2779 36.9357C32.1966 36.9763 32.1152 37.0577 32.1152 37.1797V38.156C32.1152 38.278 32.1966 38.3187 32.2779 38.278L36.1017 35.9594C36.183 35.9187 36.2237 35.7967 36.2237 35.6746V34.8204C36.2237 34.6984 36.1424 34.6577 36.061 34.6984Z" fill="#4DA925"/>
<path d="M28.0051 26.4001C28.1271 26.3187 28.2084 26.4001 28.2491 26.5628V27.8645C28.7779 27.6611 29.2661 27.5797 29.7135 27.7018C29.7949 27.7425 29.8356 27.8645 29.7949 27.9865L29.5101 29.1255C29.4695 29.2069 29.4288 29.2882 29.3881 29.3696C29.3474 29.4103 29.3474 29.4103 29.3068 29.4103C29.2661 29.4103 29.2254 29.4509 29.1847 29.4103C28.9813 29.3696 28.5339 29.2475 27.8017 29.6543C27.0288 30.0611 26.744 30.7119 26.7847 31.2001C26.7847 31.8103 27.1101 31.973 28.1271 31.973C29.5101 32.0136 30.1203 32.6238 30.161 34.0069C30.161 35.3899 29.4288 36.895 28.2898 37.7899L28.3305 39.0916C28.3305 39.2543 28.2491 39.417 28.1271 39.4984L27.3542 39.9458C27.2322 40.0272 27.1508 39.9458 27.1101 39.7831V38.5221C26.4593 38.8069 25.8084 38.8475 25.361 38.6848C25.2796 38.6441 25.239 38.5221 25.2796 38.4001L25.5644 37.2204C25.6051 37.1391 25.6457 37.017 25.6864 36.9764C25.7271 36.9357 25.7271 36.9357 25.7678 36.9357C25.8084 36.895 25.8491 36.895 25.8898 36.9357C26.3373 37.0984 26.9474 37.017 27.4762 36.7323C28.2084 36.3662 28.6559 35.634 28.6559 34.9018C28.6559 34.2509 28.2898 33.9662 27.4356 33.9662C26.3373 33.9662 25.3203 33.7628 25.2796 32.1357C25.2796 30.7933 25.9712 29.4103 27.0695 28.556V27.2543C27.0695 27.0916 27.1508 26.9289 27.2729 26.8475L28.0051 26.4001Z" fill="#2A3238"/>
</svg>
