<svg fill="none" height="30" viewBox="0 0 106 30" width="106" xmlns="http://www.w3.org/2000/svg"><path d="m4.012 0v11.169c.758-1.049 1.773-1.883 2.946-2.429 1.21-.555 2.529-.836 3.86-.823 1.786-.03 3.546.42 5.098 1.304 1.489.858 2.707 2.116 3.517 3.632.848 1.557 1.272 3.355 1.272 5.394s-.424 3.843-1.272 5.413c-.807 1.52-2.026 2.784-3.517 3.645-1.549.88-3.304 1.329-5.085 1.3-1.45 0-6.446-.272-6.92-.272s-3.432.043-3.432.043v-27.836c.176-.05.425-.11.747-.19.45-.095.906-.166 1.364-.215.137-.015.557-.065 1.102-.111zm9.89 24.501c1.004-.608 1.82-1.483 2.36-2.526.59-1.153.885-2.434.857-3.73.027-1.294-.267-2.576-.858-3.729-.535-1.04-1.353-1.909-2.359-2.507-1.022-.594-2.187-.898-3.369-.879-1.177-.014-2.336.29-3.354.88-1.011.59-1.83 1.46-2.359 2.504-.582 1.156-.873 2.436-.847 3.73-.026 1.293.265 2.573.847 3.729.532 1.048 1.35 1.924 2.359 2.526 1.015.6 2.175.912 3.354.899 1.184.018 2.35-.292 3.37-.897zm70.054-8.739c-.181-1-.518-1.967-.997-2.865-.507-.987-1.184-1.877-2-2.629-.442-.403-.922-.762-1.434-1.072-1.513-.893-3.244-1.35-5-1.32-1.77-.026-3.512.43-5.04 1.32-1.49.88-2.704 2.158-3.507 3.69-.862 1.637-1.3 3.465-1.273 5.315-.031 1.87.42 3.716 1.31 5.361.855 1.562 2.144 2.844 3.71 3.69 1.524.779 3.196 1.223 4.905 1.306 1.709.082 3.415-.2 5.007-.827 1.284-.537 2.418-1.377 3.305-2.449l-.774-.935c-.174-.197-.387-.355-.627-.463-.239-.108-.498-.164-.76-.163-.377 0-.743.117-1.05.334h-.012c-1.22.858-2.68 1.287-4.382 1.287-1.92 0-3.526-.542-4.819-1.625-1.288-1.076-2.105-2.612-2.277-4.281h11.748c.551.005 1.103-.023 1.651-.084.572-.125 1.096-.41 1.51-.823.415-.413.703-.936.83-1.508.075-.417.067-.845-.024-1.259zm-3.547-.072c-.078.357-.288.671-.588.88-.16.11-.34.183-.531.215-.054 0-.762.015-.762.015h-10.287c.197-1.735.868-3.138 2.011-4.207 1.144-1.07 2.565-1.605 4.264-1.607.783-.025 1.563.105 2.295.384.732.28 1.401.702 1.968 1.242.466.43.86.932 1.167 1.486.345.618.585 1.055.463 1.591z" fill="#010101"/><path d="m46.056.54c.18-.051.429-.122.75-.19.451-.095.906-.166 1.364-.215.137-.017.558-.069 1.109-.114l.304-.021v18.207l10.648-10.097h4.272l-8.214 8.378 9.025 11.896h-4.339l-7.33-9.449s-3.418 2.9-3.78 3.914c-.169.436-.26.897-.27 1.364v4.171h-3.54v-27.844zm40.744 0c.18-.051.429-.122.75-.19.451-.095.906-.166 1.364-.215.138-.017.558-.069 1.109-.114l.307-.021v10.978c.757-.985 1.753-1.761 2.893-2.256 1.259-.55 2.621-.825 3.995-.804 2.482 0 4.453.746 5.912 2.239 1.46 1.492 2.193 3.682 2.199 6.57v11.667h-3.537v-11.257c0-1.964-.454-3.443-1.362-4.437-.907-.994-2.21-1.494-3.905-1.501-1.914 0-3.425.58-4.531 1.741-1.107 1.161-1.661 2.828-1.664 5.001v10.442h-3.53z" fill="#010101"/><path d="m37.205 9.222c-.31-.407-.64-.798-.99-1.171-1.092-1.16-1.676-1.39-2.019-1.46-.212-.04-.428-.056-.643-.046-.922.043-1.553.53-2.11.959-.563.434-1.054.955-1.454 1.542-.01.015-.015.033-.015.051v5.598c0 .016.004.032.013.046s.021.026.036.033c.013.003.027.003.04 0 .02 0 .04-.005.054-.017l7.077-5.42c.016-.014.026-.034.027-.055.003-.022-.003-.043-.016-.06z" fill="#23b355"/><path d="m42.217 10.585c-.121-.18-.265-.346-.429-.49-.681-.623-1.473-.725-2.17-.816-.705-.09-1.42-.068-2.119.065-.017.002-.033.01-.045.023l-3.954 3.96c-.012.011-.02.026-.024.042-.004.017-.003.034.002.05.005.015.015.03.028.04s.029.017.045.02l8.834 1.17h.013c.02 0 .042-.008.058-.022s.026-.034.03-.055c.068-.507.11-1.017.126-1.529.05-1.591-.202-2.164-.395-2.457z" fill="#02abaf"/><path d="m45.104 18.443c-.043-.922-.53-1.553-.959-2.11-.434-.563-.954-1.053-1.542-1.452-.015-.011-.033-.017-.051-.017h-5.598c-.017 0-.033.004-.047.014-.014.009-.025.022-.032.037-.008.014-.013.03-.013.046 0 .017.005.032.013.046l5.42 7.077c.006.01.015.018.025.024s.021.01.033.012c.011.002.023 0 .035-.002.01-.003.022-.009.03-.016.408-.31.799-.64 1.172-.991 1.16-1.092 1.39-1.675 1.46-2.018.043-.214.061-.432.054-.65z" fill="#4998d3"/><path d="m42.291 22.395c-.002-.017-.01-.033-.023-.044l-3.957-3.96c-.012-.011-.026-.02-.043-.023-.016-.004-.033-.003-.049.002s-.03.015-.04.028c-.011.013-.018.029-.02.045l-1.171 8.833c-.003.024.003.048.018.067.014.019.036.031.06.034.508.069 1.022.112 1.528.129h.386c1.302 0 1.804-.215 2.072-.399.18-.122.346-.266.491-.429.622-.682.725-1.473.815-2.17.089-.703.066-1.416-.066-2.113z" fill="#8a278a"/><path d="m36.727 21.767c-.014-.008-.03-.013-.047-.013-.016 0-.033.005-.047.013l-7.077 5.42c-.01.006-.017.015-.023.025s-.01.021-.012.033c-.001.012 0 .023.002.035.003.01.009.021.016.03.31.408.64.8.99 1.172 1.092 1.16 1.676 1.39 2.019 1.46.17.033.343.05.517.05h.13c.922-.041 1.553-.528 2.11-.96.564-.433 1.055-.953 1.455-1.541.009-.016.014-.033.015-.052v-5.597c-.001-.015-.006-.03-.014-.044-.008-.013-.02-.024-.034-.03z" fill="#ed1557"/><path d="m33.268 23.112c-.005-.016-.014-.03-.027-.041-.013-.01-.029-.017-.046-.02l-8.833-1.177c-.024-.003-.047.004-.066.018-.02.015-.032.036-.035.06-.068.508-.111 1.022-.128 1.528-.048 1.592.214 2.166.396 2.458.122.181.266.346.43.491.681.622 1.473.725 2.17.815.284.037.57.056.857.056.426 0 .85-.04 1.268-.12.017-.003.033-.011.045-.024l3.959-3.958c.008-.013.014-.027.016-.042s0-.03-.006-.044z" fill="#f05223"/><path d="m29.854 21.525-5.42-7.077c-.006-.01-.015-.017-.025-.023s-.021-.01-.033-.012c-.012-.001-.023 0-.035.002-.011.003-.021.009-.03.016-.408.31-.799.64-1.172.99-1.16 1.092-1.39 1.675-1.46 2.018-.04.212-.055.428-.045.644.043.922.527 1.553.958 2.11.435.563.955 1.053 1.542 1.454.016.01.034.015.052.015h5.597c.017 0 .033-.004.047-.013s.025-.021.032-.036c.007-.014.009-.03.007-.045-.001-.016-.006-.03-.015-.043z" fill="#f7aa1b"/><path d="m29.68 9.153c-.507-.069-1.017-.11-1.529-.126-1.591-.05-2.164.201-2.458.394-.18.122-.346.266-.49.43-.623.681-.726 1.472-.816 2.17-.09.705-.068 1.42.065 2.118.002.018.01.035.023.047l3.96 3.957c.007.008.017.015.028.02.01.004.022.006.033.006.01.002.02.002.03 0 .016-.005.03-.015.041-.028.01-.013.017-.029.02-.045l1.17-8.834c.003-.012.003-.025 0-.037-.002-.012-.007-.024-.014-.034s-.017-.02-.027-.026c-.011-.006-.023-.01-.036-.012z" fill="#a6ce38"/></svg>