<svg xmlns="http://www.w3.org/2000/svg" width="49" height="48" fill="none" viewBox="0 0 49 48">
    <path fill="#fff" d="M15.591 1.827C18.503.62 21.624 0 24.775 0c3.152 0 6.273.62 9.185 1.827 2.912 1.206 5.557 2.974 7.786 5.202 2.229 2.229 3.996 4.875 5.203 7.787 1.206 2.911 1.826 6.032 1.826 9.184 0 3.152-.62 6.273-1.826 9.184-1.207 2.912-2.974 5.558-5.203 7.787-2.229 2.228-4.874 3.996-7.786 5.202S27.927 48 24.775 48c-3.151 0-6.272-.62-9.184-1.827-2.912-1.206-5.558-2.974-7.786-5.202-2.229-2.229-3.997-4.875-5.203-7.787C1.396 30.273.775 27.152.775 24c0-3.152.621-6.273 1.827-9.184 1.206-2.912 2.974-5.558 5.203-7.787 2.228-2.228 4.874-3.996 7.786-5.202z"/>
    <path fill="#E36526" d="M24.775 0c-3.151 0-6.272.62-9.184 1.827-2.912 1.206-5.558 2.974-7.786 5.202-2.229 2.229-3.997 4.875-5.203 7.787C1.396 17.727.775 20.848.775 24c0 3.152.621 6.273 1.827 9.184 1.206 2.912 2.974 5.558 5.203 7.787 2.228 2.228 4.874 3.996 7.786 5.202S21.624 48 24.775 48c3.152 0 6.273-.62 9.185-1.827 2.912-1.206 5.557-2.974 7.786-5.202 2.229-2.229 3.996-4.875 5.203-7.787 1.206-2.911 1.826-6.032 1.826-9.184 0-3.152-.62-6.273-1.826-9.184-1.207-2.912-2.974-5.558-5.203-7.787-2.229-2.228-4.874-3.996-7.786-5.202S27.927 0 24.775 0zM14.022 12.98h21.809v7.837H14.022V12.98zm0 14.141h21.809v7.838H14.022V27.12z"/>
    <path fill="#944022" d="M33.185 10.771H11.887v4.054H33.09c1.178 0 2.134.956 2.134 2.134s-.955 2.132-2.134 2.132H11.887v4.055h21.298c3.417 0 6.188-2.771 6.188-6.188-.002-3.416-2.77-6.187-6.188-6.187zM33.185 24.853H11.887v4.053H33.09c1.178 0 2.134.955 2.134 2.134 0 1.177-.955 2.133-2.134 2.133H11.887v4.054h21.298c3.417 0 6.188-2.77 6.188-6.188-.002-3.415-2.77-6.186-6.188-6.186z"/>
</svg>
