<svg fill="none" height="48" width="48" xmlns="http://www.w3.org/2000/svg"><path d="M24 48c13.255 0 24-10.745 24-24S37.255 0 24 0 0 10.745 0 24s10.745 24 24 24z" fill="#20c4cb"/><path d="M30.22 28.017c-.98 1.077-2.351 1.616-2.988 1.616-.735 0-1.127-.441-1.225-1.127-.049-.245 0-.538.05-.783.244-1.519.783-2.498.783-2.743 0-.098-.05-.147-.098-.147-.49 0-2.155 1.714-2.4 2.84l-.196.931c-.147.637-.735 1.029-1.175 1.029-.196 0-.343-.098-.392-.343v-.294l.098-.49c-.882.686-1.862 1.127-2.302 1.127-.637 0-.98-.343-1.078-.833-.392.539-.93.833-1.518.833-.735 0-1.42-.49-1.764-1.225a8.927 8.927 0 0 1-1.763 1.519c-1.028.636-2.155 1.175-3.477 1.175-1.225 0-2.302-.637-2.841-1.175-.882-.784-1.323-2.008-1.47-3.086-.44-3.429 1.666-7.984 4.947-9.943.735-.44 1.568-.686 2.351-.686 1.568 0 2.743 1.127 2.89 2.45.147 1.224-.343 2.252-1.665 2.89-.686.342-1.029.342-1.127.146-.049-.098-.049-.294.098-.392 1.274-1.028 1.274-1.91 1.127-3.134-.098-.784-.588-1.274-1.176-1.274-2.547 0-6.073 5.535-5.583 9.551.196 1.567 1.175 3.38 3.134 3.38.637 0 1.372-.196 1.96-.49 1.077-.539 1.714-.98 2.302-1.714-.147-1.862 1.469-4.213 3.82-4.213 1.028 0 1.861.392 1.96 1.225.146 1.029-.736 1.224-1.078 1.224-.294 0-.735-.098-.784-.343-.05-.293.637-.146.539-.783-.05-.392-.49-.539-.882-.539-1.47 0-2.302 2.057-2.155 3.33.049.588.392 1.176.882 1.176.44 0 1.077-.637 1.273-1.518.147-.637.735-1.029 1.176-1.029.245 0 .391.098.391.343v.294c-.049.245-.245 1.175-.245 1.322s.099.392.392.392c.245 0 1.029-.44 1.813-1.126.244-1.225.538-2.743.538-2.841.098-.49.294-1.029 1.274-1.029.196 0 .343.098.392.343v.294l-.245 1.323c.881-1.176 2.253-2.058 3.085-2.058.343 0 .637.196.686.54.05.195-.049.538-.147.93a20.608 20.608 0 0 0-.832 3.037c-.05.244.049.538.44.538.343 0 1.372-.392 2.204-1.518v-.49c0-.882.05-1.567.245-2.106.147-.539.833-1.029 1.274-1.029.245 0 .392.147.392.392 0 .098 0 .196-.05.294-.293.93-.49 1.763-.49 2.596 0 .49.099 1.225.197 1.616 0 .098.049.147.147.147.147 0 1.126-.93 1.812-2.106-.637-.392-.98-1.126-.98-2.008 0-1.47.882-2.253 1.764-2.253.685 0 1.273.49 1.273 1.47 0 .636-.245 1.322-.588 2.008h.196c.54 0 .93-.245 1.176-.54.098-.097.196-.195.294-.244.685-.833 1.714-1.42 2.89-1.42 1.028 0 1.86.391 1.959 1.224.147 1.029-.784 1.273-1.078 1.273s-.784-.098-.784-.342c-.049-.245.637-.147.588-.784-.049-.392-.49-.588-.881-.588-1.372 0-2.302 1.812-2.156 3.33.05.588.343 1.176.882 1.176.44 0 1.078-.636 1.323-1.518.146-.588.734-1.029 1.175-1.029.196 0 .392.098.392.343 0 .147-.05.392-.245 1.372-.098.391-.098.783-.098 1.028.098.588.343.98.588 1.225.098.098.147.196.147.245 0 .146-.098.293-.294.293-.05 0-.147 0-.196-.049-1.078-.44-1.518-1.175-1.616-1.812-.392.539-.931.784-1.519.784-.93 0-1.861-.833-2.008-1.91-.049-.441 0-.93.147-1.372-.392.245-.784.392-1.175.392h-.343c-.93 1.322-1.91 2.253-2.645 2.694-.294.147-.588.245-.784.245-.147 0-.343-.05-.44-.196-.295-.196-.442-.686-.49-1.273zm3.33-4.409c0 .588.294 1.176.637 1.568.147-.392.245-.784.245-1.176 0-.735-.294-1.077-.49-1.077-.294 0-.392.391-.392.685z" fill="#fff"/></svg>