<svg xmlns="http://www.w3.org/2000/svg" width="35" height="48" fill="none" viewBox="0 0 35 48"><path fill="#fff" fill-rule="evenodd" d="M34.006 9.433L30.908 44.14 16.982 48 3.095 44.145 0 9.433h34.006zm-5.75 32.496l2.648-29.658h-13.9v4.258H6.327l.387 4.257h10.288v4.36H7.095l.381 4.256h9.527v6.8l-.018.005-4.742-1.28-.303-3.396H7.666l.597 6.685 8.72 2.42.02-.005v4.418l11.253-3.12z" clip-rule="evenodd"/><path fill="#fff" fill-opacity=".2" d="M7.094 25.145l.381 4.258h9.527v-4.258H7.094zM17.003 16.529H6.328l.387 4.257h10.288v-4.257zM17.003 40.631v-4.43l-.019.006-4.741-1.28-.303-3.396H7.666l.596 6.685 8.721 2.42.02-.005z"/><path fill="#fff" d="M8.004 0h5.156v2.156h-3v2.156h3V6.47H8.004V0zM14.191 0h5.157v1.875h-3v.375h3v4.313H14.19v-1.97h3V4.22h-3V0zM20.379 0h5.156v1.875h-3v.375h3v4.313H20.38v-1.97h3V4.22h-3V0z"/><path fill="#fff" fill-opacity=".8" fill-rule="evenodd" d="M30.904 12.271L28.257 41.93l-11.253 3.12V40.63l8.713-2.414.064-.72 1-11.207.104-1.144.769-8.616h-10.65V12.27h13.9zm-13.9 8.515v4.36H22.6l.387-4.36h-5.984zm0 15.416l4.733-1.278.495-5.521h-5.228v6.799z" clip-rule="evenodd"/></svg>