<svg xmlns="http://www.w3.org/2000/svg" width="31" height="44"><defs><linearGradient id="a" x1="50%" x2="50%" y1="100.001%" y2=".001%"><stop offset="38.7%" stop-color="#D1D3D4" stop-opacity="0"/><stop offset="100%" stop-color="#D1D3D4"/></linearGradient><linearGradient id="b" x1="49.999%" x2="49.999%" y1="100.001%" y2=".001%"><stop offset="38.7%" stop-color="#D1D3D4" stop-opacity="0"/><stop offset="100%" stop-color="#D1D3D4"/></linearGradient><linearGradient id="c" x1="0%" x2="99.999%" y1="50.001%" y2="50.001%"><stop offset="0%" stop-color="#E8E7E5"/><stop offset="100%" stop-color="#FFF"/></linearGradient><linearGradient id="d" x1="0%" y1="50%" y2="50%"><stop offset="0%" stop-color="#E8E7E5"/><stop offset="100%" stop-color="#FFF"/></linearGradient></defs><g fill="none" fill-rule="evenodd"><path d="M-9-3h49v49H-9z"/><path fill="#2062AF" d="M28.033 39.925 15.5 43.278 2.966 39.925.074 8.796h30.852z"/><path fill="#3C9CD7" d="M15.5 11.519v29.029l.029.008 10.298-2.69 2.377-26.347z"/><path fill="#000" fill-rule="nonzero" d="M8.449 4.316v-1.76h2.697V.63h-4.72v5.444h4.72V4.316H8.449zm7.549-1.76h1.886V.63h-4.72v1.926c.63.601.96.89 1.873 1.759l-1.874.002v1.757h4.72V4.316l-1.885-1.76zm6.69 0h1.886V.63h-4.72v1.926c.63.601.96.89 1.874 1.759l-1.875.002v1.757h4.721V4.316l-1.886-1.76z"/><path fill="#FFF" d="m15.188 18.958-8.762 3.557.29 3.522 8.472-3.53L24.2 18.75l.374-3.603z"/><path fill="url(#a)" d="m15.426 25.426.3 3.611 8.774-3.62v-3.64l-9.074 3.649z" transform="translate(-9 -3)"/><path fill="url(#b)" d="M33.574 18.148 24.5 21.907v3.5l8.713-3.705z" transform="translate(-9 -3)"/><path fill="url(#c)" d="m15.426 25.407.287 3.589 12.849.041-.288 4.785-4.228 1.196-4.064-1.031-.246-2.97h-3.777l.493 5.733 7.635 2.269 7.594-2.228.986-11.384H15.426z" transform="translate(-9 -3)"/><path fill="#000" fill-rule="nonzero" d="M15.5 22.407H6.426l.3 3.589 8.774.027v-3.616zm0 9.6-.043.01-4.258-1.03-.258-2.97H6.985l.516 5.733 7.999 2.269v-4.013z" opacity=".05"/><path fill="url(#d)" d="M14.519 18.148h19.055l-.376 3.63h-18.22l-.46-3.63z" transform="translate(-9 -3)"/><path fill="#000" d="M15.5 15.148H5.519l.477 3.63H15.5v-3.63z" opacity=".05"/></g></svg>