<svg width="32" height="48" viewBox="0 0 32 48" fill="none" xmlns="http://www.w3.org/2000/svg">
<path d="M16 24C16 19.6268 19.5452 16.0814 23.9186 16.0814C28.2918 16.0814 31.8371 19.6268 31.8371 24C31.8371 28.3733 28.2918 31.9185 23.9186 31.9185C19.5452 31.9185 16 28.3733 16 24Z" fill="#1ABCFE"/>
<path d="M0.162109 39.8371C0.162109 35.4639 3.70736 31.9186 8.08066 31.9186H15.9992V39.8371C15.9992 44.2105 12.454 47.7557 8.08066 47.7557C3.70736 47.7557 0.162109 44.2105 0.162109 39.8371Z" fill="#0ACF83"/>
<path d="M16 0.244385V16.0814H23.9186C28.2919 16.0814 31.8371 12.5362 31.8371 8.16293C31.8371 3.78964 28.2919 0.244385 23.9186 0.244385H16Z" fill="#FF7262"/>
<path d="M0.162109 8.16294C0.162109 12.5362 3.70736 16.0814 8.08066 16.0814H15.9992V0.244385H8.08066C3.70736 0.244385 0.162109 3.78964 0.162109 8.16294Z" fill="#F24E1E"/>
<path d="M0.162109 24C0.162109 28.3733 3.70736 31.9185 8.08066 31.9185H15.9992V16.0814H8.08066C3.70736 16.0814 0.162109 19.6268 0.162109 24Z" fill="#A259FF"/>
</svg>
