<svg xmlns="http://www.w3.org/2000/svg" width="48" height="48" fill="none" viewBox="0 0 48 48"><path fill="#fff" d="M18.75 3h-7.5C9.937 3 9 4.031 9 5.25v7.5c0 1.313.938 2.25 2.25 2.25h7.5c1.219 0 2.25-.938 2.25-2.25v-7.5C21 4.031 19.969 3 18.75 3zM18 12h-6V6h6v6zm.75 6h-7.5C9.937 18 9 19.031 9 20.25v7.5c0 1.313.938 2.25 2.25 2.25h7.5c1.219 0 2.25-.938 2.25-2.25v-7.5c0-1.219-1.031-2.25-2.25-2.25zM18 27h-6v-6h6v6zm.75 6h-7.5C9.937 33 9 34.031 9 35.25v7.5c0 1.313.938 2.25 2.25 2.25h7.5c1.219 0 2.25-.938 2.25-2.25v-7.5c0-1.219-1.031-2.25-2.25-2.25zM18 42h-6v-6h6v6zM36.75 3h-7.5C27.937 3 27 4.031 27 5.25v7.5c0 1.313.938 2.25 2.25 2.25h7.5c1.219 0 2.25-.938 2.25-2.25v-7.5C39 4.031 37.969 3 36.75 3zM36 12h-6V6h6v6zm.75 6h-7.5C27.937 18 27 19.031 27 20.25v7.5c0 1.313.938 2.25 2.25 2.25h7.5c1.219 0 2.25-.938 2.25-2.25v-7.5c0-1.219-1.031-2.25-2.25-2.25zM36 27h-6v-6h6v6zm.75 6h-7.5C27.937 33 27 34.031 27 35.25v7.5c0 1.313.938 2.25 2.25 2.25h7.5c1.219 0 2.25-.938 2.25-2.25v-7.5c0-1.219-1.031-2.25-2.25-2.25zM36 42h-6v-6h6v6z"/></svg>