<svg xmlns="http://www.w3.org/2000/svg" width="96" height="40" fill="none" viewBox="0 0 96 40">
    <g clip-path="url(#clip0)">
        <path fill="#413000" d="M57.434 13.615c-2.1 0-3.663 1.031-3.663 3.513 0 1.87 1.03 3.167 3.55 3.167 2.136 0 3.587-1.258 3.587-3.245 0-2.25-1.298-3.435-3.474-3.435zm-4.2 17.521c-.496.61-.991 1.258-.991 2.023 0 1.525 1.945 1.984 4.618 1.984 2.213 0 5.229-.155 5.229-2.213 0-1.223-1.45-1.299-3.284-1.414l-5.571-.38zM64.533 13.73c.686.878 1.413 2.1 1.413 3.856 0 4.236-3.321 6.717-8.13 6.717-1.222 0-2.329-.152-3.015-.343l-1.26 2.023 3.74.228c6.603.421 10.495.612 10.495 5.687 0 4.39-3.854 6.87-10.495 6.87-6.908 0-9.542-1.756-9.542-4.771 0-1.718.764-2.632 2.1-3.894-1.26-.532-1.68-1.486-1.68-2.517 0-.84.42-1.603 1.108-2.33.687-.724 1.45-1.45 2.366-2.29-1.87-.915-3.283-2.9-3.283-5.725 0-4.388 2.901-7.402 8.74-7.402 1.641 0 2.634.15 3.512.381h7.443v3.243l-3.512.268M74.763 6.795c-2.177 0-3.436-1.261-3.436-3.438 0-2.173 1.26-3.357 3.436-3.357 2.213 0 3.473 1.184 3.473 3.357 0 2.177-1.26 3.438-3.473 3.438zm-4.925 22.937v-3.014l1.947-.267c.535-.077.61-.19.61-.765v-11.22c0-.42-.113-.688-.496-.802l-2.06-.725.419-3.09h7.901v15.838c0 .611.037.687.611.765l1.947.266v3.014h-10.88M95.809 28.252c-1.642.8-4.046 1.526-6.223 1.526-4.541 0-6.259-1.83-6.259-6.145v-10c0-.228 0-.38-.306-.38H80.35V9.854c3.36-.382 4.694-2.062 5.114-6.222h3.627v5.421c0 .267 0 .382.305.382h5.382v3.816H89.09v9.122c0 2.252.535 3.129 2.595 3.129 1.07 0 2.175-.266 3.091-.61l1.032 3.36"/>
        <path fill="#F05133" d="M39.257 18.236L21.804.786C20.8-.22 19.17-.22 18.164.785L14.54 4.408l4.597 4.597c1.069-.36 2.293-.119 3.145.733.856.857 1.096 2.092.726 3.164l4.43 4.43c1.073-.368 2.31-.13 3.165.728 1.197 1.196 1.197 3.134 0 4.33-1.197 1.198-3.135 1.198-4.333 0-.9-.9-1.122-2.222-.666-3.33l-4.132-4.132v10.873c.291.144.567.337.81.58 1.196 1.195 1.196 3.133 0 4.331-1.197 1.197-3.136 1.197-4.331 0-1.197-1.198-1.197-3.136 0-4.332.295-.295.637-.518 1.002-.668V14.739c-.365-.15-.706-.371-1.003-.669-.906-.905-1.124-2.235-.66-3.348L12.76 6.19.792 18.155c-1.005 1.006-1.005 2.636 0 3.641l17.452 17.451c1.005 1.005 2.634 1.005 3.64 0L39.256 21.88c1.005-1.006 1.005-2.636 0-3.642"/>
    </g>
    <defs>
        <clipPath id="clip0">
            <path fill="#fff" d="M0 0H95.767V40H0z" transform="translate(0.0390625)"/>
        </clipPath>
    </defs>
</svg>
