<svg width="50" height="48" viewBox="0 0 50 48" fill="none" xmlns="http://www.w3.org/2000/svg">
<path fill-rule="evenodd" clip-rule="evenodd" d="M24.5853 0.0904692C18.7489 0.0845372 13.1011 2.15725 8.65404 5.93719C4.20701 9.71712 1.25139 14.9572 0.316909 20.7183C-0.617576 26.4795 0.530143 32.3851 3.55436 37.3769C6.57858 42.3687 11.2816 46.1204 16.8207 47.9596C18.0419 48.1858 18.4942 47.4169 18.4942 46.7685C18.4942 46.1202 18.4942 44.6427 18.4942 42.5923C11.6644 44.0999 10.217 39.3055 10.217 39.3055C9.76192 37.8195 8.79508 36.5429 7.4881 35.7021C5.27179 34.1944 7.66901 34.1944 7.66901 34.1944C8.44592 34.3042 9.18767 34.5892 9.83809 35.0281C10.4885 35.4669 11.0306 36.048 11.4232 36.7273C11.7568 37.3322 12.2065 37.8653 12.7466 38.2959C13.2867 38.7265 13.9066 39.0463 14.5705 39.2368C15.2345 39.4273 15.9296 39.4848 16.6158 39.4061C17.3021 39.3273 17.9661 39.1138 18.5696 38.7778C18.6642 37.5375 19.1989 36.3718 20.0773 35.491C14.6195 34.8729 8.89024 32.7621 8.89024 23.3541C8.85277 20.9162 9.75426 18.5572 11.4081 16.7655C10.67 14.646 10.7561 12.3264 11.6493 10.2674C11.6493 10.2674 13.7148 9.60399 18.4038 12.7852C22.4302 11.6797 26.6801 11.6797 30.7065 12.7852C35.3954 9.60399 37.4459 10.2674 37.4459 10.2674C38.3484 12.3234 38.44 14.6448 37.7022 16.7655C39.356 18.5572 40.2575 20.9162 40.22 23.3541C40.22 32.7923 34.4757 34.8578 29.0028 35.4156C29.5897 36.0056 30.0428 36.7148 30.3316 37.4952C30.6203 38.2756 30.7379 39.1089 30.6764 39.9387C30.6764 43.2255 30.6764 45.879 30.6764 46.6781C30.6764 47.4772 31.1136 48.0953 32.365 47.8692C37.8866 46.0126 42.5692 42.255 45.5775 37.2665C48.5859 32.278 49.7244 26.383 48.7899 20.633C47.8554 14.8831 44.9087 9.65204 40.4755 5.87294C36.0422 2.09385 30.4107 0.0124509 24.5853 0V0.0904692Z" fill="#191717"/>
</svg>
