<svg xmlns="http://www.w3.org/2000/svg" width="43" height="43" fill="none" viewBox="0 0 43 43"><path fill="#fff" d="M21.25.547C9.744.547.422 9.869.422 21.375S9.744 42.203 21.25 42.203s20.828-9.322 20.828-20.828S32.756.547 21.25.547zm16.209 12.765h-6.97c-.757-3.695-2.016-6.886-3.612-9.154 4.62 1.596 8.398 4.871 10.582 9.154zm-8.818 8.063c0 1.932-.168 3.78-.42 5.375H14.195c-.252-1.596-.336-3.443-.336-5.375 0-1.848.084-3.695.336-5.375h14.026c.252 1.68.42 3.527.42 5.375zM21.25 3.235c2.184 0 5.123 3.779 6.55 10.078H14.616c1.428-6.3 4.367-10.079 6.635-10.079zm-5.71.923c-1.597 2.268-2.856 5.46-3.612 9.154H4.957C7.141 9.03 10.92 5.755 15.539 4.159zM3.11 21.375c0-1.848.251-3.611.755-5.375h7.643c-.252 1.764-.336 3.527-.336 5.375 0 1.932.084 3.695.336 5.375H3.865c-.504-1.68-.756-3.443-.756-5.375zm1.847 8.063h6.97c.757 3.779 2.016 6.97 3.612 9.238-4.62-1.596-8.398-4.871-10.582-9.239zM21.25 39.516c-2.268 0-5.207-3.696-6.635-10.078h13.186c-1.428 6.382-4.367 10.078-6.551 10.078zm5.627-.84c1.596-2.268 2.855-5.46 3.611-9.239h6.971c-2.184 4.368-5.963 7.643-10.582 9.239zm4.031-11.926c.252-1.68.42-3.443.42-5.375 0-1.848-.168-3.611-.42-5.375h7.643c.504 1.764.84 3.527.84 5.375 0 1.932-.336 3.695-.84 5.375h-7.643z"/></svg>