<svg xmlns="http://www.w3.org/2000/svg" width="49" height="48" fill="none"><path fill="#4285F4" d="M3.35 42.2h7.637V23.654L.078 15.473v23.455A3.273 3.273 0 0 0 3.351 42.2z"/><path fill="#34A853" d="M37.168 42.2h7.637a3.273 3.273 0 0 0 3.273-3.273V15.472l-10.91 8.182V42.2z"/><path fill="#FBBC04" d="M37.168 9.474v14.18l10.91-8.181v-4.362a4.91 4.91 0 0 0-7.855-3.927l-3.055 2.29z"/><path fill="#EA4335" d="M10.988 23.654V9.474l13.09 9.817 13.09-9.817v14.18l-13.09 9.817-13.09-9.817z"/><path fill="#C5221F" d="M.079 11.11v4.362l10.909 8.182V9.474l-3.055-2.29A4.908 4.908 0 0 0 .079 11.11z"/></svg>