<svg fill="none" height="48" width="142" xmlns="http://www.w3.org/2000/svg"><path d="M17.995 20.476h-8.54v2.534h6.057c-.3 3.554-3.256 5.07-6.048 5.07-3.57 0-6.686-2.81-6.686-6.748 0-3.836 2.97-6.79 6.694-6.79 2.874 0 4.567 1.831 4.567 1.831l1.775-1.837S13.536 12 9.382 12C4.092 12 0 16.465 0 21.287c0 4.725 3.85 9.333 9.517 9.333 4.984 0 8.633-3.414 8.633-8.463 0-1.066-.154-1.681-.154-1.681z" fill="#4885ed"/><path d="M24.992 18.64c-3.505 0-6.016 2.74-6.016 5.936 0 3.242 2.436 6.033 6.057 6.033 3.278 0 5.964-2.505 5.964-5.964 0-3.963-3.124-6.005-6.005-6.005zm.035 2.35c1.723 0 3.356 1.394 3.356 3.64 0 2.197-1.626 3.63-3.364 3.63-1.91 0-3.417-1.53-3.417-3.648 0-2.073 1.488-3.621 3.425-3.621z" fill="#db3236"/><path d="M38.076 18.64c-3.505 0-6.017 2.74-6.017 5.936 0 3.242 2.437 6.033 6.058 6.033 3.278 0 5.964-2.505 5.964-5.964 0-3.963-3.124-6.005-6.005-6.005zm.035 2.35c1.723 0 3.356 1.394 3.356 3.64 0 2.197-1.626 3.63-3.364 3.63-1.91 0-3.417-1.53-3.417-3.648 0-2.073 1.488-3.621 3.425-3.621z" fill="#f4c20d"/><path d="M50.913 18.646c-3.216 0-5.745 2.818-5.745 5.98 0 3.602 2.931 5.991 5.69 5.991 1.706 0 2.613-.677 3.282-1.454v1.18c0 2.065-1.254 3.301-3.146 3.301-1.828 0-2.745-1.359-3.063-2.13l-2.3.961C46.447 34.201 48.088 36 51.012 36c3.199 0 5.636-2.015 5.636-6.24V19.006H54.14v1.014c-.77-.831-1.826-1.373-3.227-1.373zm.233 2.346c1.577 0 3.197 1.347 3.197 3.647 0 2.338-1.616 3.626-3.232 3.626-1.715 0-3.31-1.393-3.31-3.604 0-2.298 1.657-3.669 3.345-3.669z" fill="#4885ed"/><path d="M67.8 18.633c-3.034 0-5.581 2.414-5.581 5.976 0 3.77 2.84 6.006 5.873 6.006 2.532 0 4.087-1.386 5.014-2.627l-2.069-1.376c-.537.833-1.434 1.647-2.932 1.647-1.682 0-2.456-.921-2.935-1.814l8.025-3.33-.417-.975c-.776-1.911-2.584-3.507-4.977-3.507zm.106 2.301c1.093 0 1.88.582 2.214 1.279l-5.359 2.24c-.23-1.735 1.412-3.519 3.145-3.519z" fill="#db3236"/><path d="M58.392 30.259h2.635v-17.64h-2.636v17.64z" fill="#3cba54"/><path d="M124.615 30.516c-1.392 0-2.593-.55-3.603-1.648-1.011-1.098-1.516-2.46-1.516-4.086s.505-2.989 1.516-4.088c1.01-1.098 2.211-1.648 3.603-1.648.82 0 1.557.176 2.209.528.652.351 1.139.79 1.461 1.318h.088l-.088-1.494v-4.966h2.021v15.733h-1.933V28.67h-.088c-.322.527-.809.966-1.461 1.318-.652.351-1.389.527-2.209.527zm.33-1.845c.952 0 1.762-.352 2.428-1.055.667-.703 1-1.648 1-2.834 0-1.187-.333-2.132-1-2.835-.666-.703-1.476-1.055-2.428-1.055-.937 0-1.743.355-2.417 1.066-.674.71-1.011 1.651-1.011 2.823s.337 2.113 1.011 2.824c.674.71 1.48 1.066 2.417 1.066zm-40.7 1.494h-2.022V16.366h-4.395v-1.934h10.81v1.934h-4.393zm6.875 0h-2.022V19.398h1.933v1.758h.088c.205-.586.626-1.07 1.263-1.45.638-.381 1.256-.572 1.857-.572.6 0 1.106.088 1.517.264l-.77 1.89c-.263-.103-.622-.154-1.076-.154-.733 0-1.38.29-1.945.868-.564.579-.846 1.337-.846 2.274v5.889zm10.069.351c-1.627 0-2.949-.542-3.967-1.625-1.018-1.084-1.527-2.454-1.527-4.11 0-1.567.495-2.914 1.483-4.043.989-1.128 2.252-1.692 3.791-1.692 1.596 0 2.874.52 3.834 1.56.959 1.04 1.439 2.432 1.439 4.176l-.022.373h-8.504c.059 1.084.422 1.941 1.088 2.571s1.447.945 2.34.945c1.45 0 2.432-.616 2.945-1.846l1.801.747c-.351.835-.93 1.534-1.736 2.098-.805.564-1.794.846-2.966.846zm2.9-7.03c-.044-.616-.326-1.202-.846-1.759-.52-.556-1.293-.835-2.319-.835-.747 0-1.395.235-1.944.704-.55.468-.926 1.098-1.132 1.89zm6.079-4.088v1.494h.088c.293-.512.754-.948 1.384-1.307a4.009 4.009 0 0 1 2.022-.539c1.333 0 2.351.41 3.054 1.23.703.821 1.054 1.92 1.054 3.297v6.592h-2.021V23.88c0-1.992-.886-2.988-2.658-2.988-.836 0-1.517.334-2.044 1-.527.667-.791 1.44-.791 2.318v5.955h-2.022V19.398zm26.781 11.118c-1.201 0-2.194-.293-2.978-.878a5.216 5.216 0 0 1-1.725-2.198l1.802-.747c.571 1.348 1.546 2.021 2.923 2.021.63 0 1.146-.139 1.549-.417s.604-.645.604-1.099c0-.703-.491-1.179-1.473-1.428l-2.175-.527c-.688-.176-1.34-.509-1.955-1-.615-.49-.923-1.153-.923-1.988 0-.952.421-1.725 1.263-2.319.843-.593 1.842-.89 3-.89.952 0 1.802.216 2.549.649a3.656 3.656 0 0 1 1.604 1.857l-1.759.724c-.395-.952-1.215-1.428-2.461-1.428-.6 0-1.105.125-1.515.374s-.616.586-.616 1.01c0 .616.477 1.034 1.429 1.253l2.131.505c1.011.235 1.758.637 2.241 1.209.484.571.725 1.216.725 1.934 0 .967-.395 1.772-1.186 2.417-.791.644-1.809.966-3.054.966z" fill="#767676"/></svg>