<svg width="142" height="24" viewBox="0 0 142 24" fill="none" xmlns="http://www.w3.org/2000/svg">
<path d="M17.9955 8.47563H9.45424V11.0101H15.5117C15.2124 14.5641 12.2556 16.0798 9.46448 16.0798C5.89357 16.0798 2.7776 13.2702 2.7776 9.33221C2.7776 5.49603 5.74794 2.54161 9.47237 2.54161C12.3458 2.54161 14.039 4.37337 14.039 4.37337L15.8136 2.53571C15.8136 2.53571 13.5358 0 9.38167 0C4.09233 0 0 4.46463 0 9.28703C0 14.0124 3.84957 18.6204 9.51676 18.6204C14.5014 18.6204 18.1501 15.2057 18.1501 10.1566C18.1501 9.09129 17.9955 8.47563 17.9955 8.47563Z" fill="#4885ED"/>
<path d="M24.9909 6.64014C21.4862 6.64014 18.9746 9.38003 18.9746 12.5756C18.9746 15.8184 21.4107 18.6092 25.032 18.6092C28.3103 18.6092 30.996 16.1036 30.996 12.6453C30.996 8.68156 27.8719 6.64014 24.9909 6.64014ZM25.0257 8.99087C26.7492 8.99087 28.3823 10.3842 28.3823 12.6294C28.3823 14.827 26.7561 16.2601 25.0178 16.2601C23.1078 16.2601 21.601 14.7304 21.601 12.612C21.601 10.5391 23.0891 8.99087 25.0257 8.99087Z" fill="#DB3236"/>
<path d="M38.0748 6.64014C34.5702 6.64014 32.0586 9.38003 32.0586 12.5756C32.0586 15.8184 34.4947 18.6092 38.116 18.6092C41.3943 18.6092 44.08 16.1036 44.08 12.6453C44.08 8.68156 40.9559 6.64014 38.0748 6.64014ZM38.1097 8.99087C39.8332 8.99087 41.4663 10.3842 41.4663 12.6294C41.4663 14.827 39.84 16.2601 38.1018 16.2601C36.1918 16.2601 34.685 14.7304 34.685 12.612C34.685 10.5391 36.1731 8.99087 38.1097 8.99087Z" fill="#F4C20D"/>
<path d="M50.9133 6.64648C47.6965 6.64648 45.168 9.46397 45.168 12.6263C45.168 16.2285 48.0994 18.6172 50.8579 18.6172C52.5635 18.6172 53.4705 17.9401 54.1401 17.163V18.3432C54.1401 20.4079 52.8864 21.6443 50.9941 21.6443C49.1661 21.6443 48.2492 20.2851 47.9306 19.5138L45.6305 20.4753C46.4465 22.2006 48.089 23.9998 51.0131 23.9998C54.2115 23.9998 56.6492 21.9852 56.6492 17.7602V7.00607H54.1401V8.01986C53.3691 7.18854 52.3141 6.64648 50.9133 6.64648ZM51.1462 8.99248C52.7234 8.99248 54.3428 10.3391 54.3428 12.639C54.3428 14.9765 52.7268 16.2649 51.1113 16.2649C49.3964 16.2649 47.8007 14.8723 47.8007 12.6611C47.8007 10.3635 49.458 8.99248 51.1462 8.99248Z" fill="#4885ED"/>
<path d="M67.801 6.63281C64.7665 6.63281 62.2188 9.04703 62.2188 12.6094C62.2188 16.3789 65.0586 18.6146 68.0924 18.6146C70.6245 18.6146 72.1785 17.2294 73.1059 15.9882L71.0372 14.6117C70.5003 15.4448 69.6029 16.2591 68.1051 16.2591C66.4226 16.2591 65.6491 15.3379 65.1698 14.4454L73.1947 11.1157L72.7781 10.1399C72.0025 8.22894 70.194 6.63281 67.801 6.63281ZM67.9055 8.93442C68.9989 8.93442 69.7858 9.51577 70.12 10.2128L64.7612 12.4526C64.5301 10.7185 66.173 8.93442 67.9055 8.93442Z" fill="#DB3236"/>
<path d="M58.3906 18.2587H61.0265V0.618652H58.3906V18.2587Z" fill="#3CBA54"/>
<path d="M124.615 18.5161C123.223 18.5161 122.022 17.9668 121.012 16.8682C120.001 15.7696 119.496 14.4074 119.496 12.7815C119.496 11.1556 120.001 9.79327 121.012 8.69445C122.022 7.59564 123.223 7.04623 124.615 7.04622C125.435 7.04623 126.172 7.22203 126.824 7.57361C127.476 7.92522 127.963 8.36477 128.285 8.89226H128.373L128.285 7.39826V2.43213H130.306V18.1647H128.373V16.6707H128.285C127.963 17.1978 127.476 17.6371 126.824 17.9887C126.172 18.3403 125.435 18.5161 124.615 18.5161ZM124.945 16.6707C125.897 16.6707 126.707 16.3191 127.373 15.6159C128.04 14.9127 128.373 13.9679 128.373 12.7815C128.373 11.5951 128.04 10.6502 127.373 9.94704C126.707 9.24387 125.897 8.89227 124.945 8.89226C124.008 8.89227 123.202 9.24744 122.528 9.95777C121.854 10.6681 121.517 11.6092 121.517 12.7811C121.517 13.9531 121.854 14.8943 122.528 15.6049C123.202 16.3154 124.008 16.6707 124.945 16.6707Z" fill="white"/>
<path d="M84.2447 18.1647H82.2229V4.36601H77.8281V2.43213H88.6388V4.36601H84.2447V18.1647Z" fill="white"/>
<path d="M91.1194 18.1649H89.0977V7.39848H91.0315V9.156H91.1194C91.3241 8.56995 91.7451 8.08648 92.3824 7.70559C93.0196 7.32473 93.6385 7.13429 94.2391 7.13428C94.8397 7.13429 95.3452 7.22235 95.7556 7.39848L94.9865 9.2881C94.7227 9.18529 94.3637 9.13388 93.9096 9.13387C93.1773 9.13388 92.5292 9.42323 91.9653 10.0019C91.4013 10.5806 91.1194 11.3387 91.1194 12.2761V18.1649Z" fill="white"/>
<path d="M101.189 18.5162C99.5622 18.5162 98.2401 17.9743 97.2222 16.8905C96.2043 15.8066 95.6953 14.437 95.6953 12.7816C95.6953 11.2143 96.1896 9.86664 97.1782 8.73853C98.1669 7.61044 99.4303 7.0464 100.969 7.04639C102.565 7.0464 103.843 7.56641 104.803 8.60643C105.762 9.64647 106.242 11.0382 106.242 12.7816L106.22 13.1551H97.7163C97.7749 14.2392 98.1375 15.0962 98.804 15.7261C99.4705 16.3559 100.251 16.6709 101.144 16.6709C102.594 16.6709 103.576 16.0555 104.089 14.8248L105.89 15.5718C105.539 16.4069 104.96 17.1064 104.154 17.6703C103.349 18.2343 102.36 18.5162 101.188 18.5162H101.189ZM104.089 11.4855C104.045 10.8699 103.763 10.2838 103.243 9.72727C102.723 9.17071 101.95 8.89243 100.924 8.89243C100.177 8.89243 99.5292 9.1268 98.98 9.5955C98.4308 10.0642 98.0537 10.6942 97.8485 11.4855H104.089Z" fill="white"/>
<path d="M110.168 7.39843V8.89243H110.256C110.549 8.37968 111.01 7.94382 111.64 7.58484C112.27 7.22588 112.944 7.0464 113.662 7.04639C114.995 7.0464 116.013 7.45655 116.716 8.27686C117.419 9.09718 117.77 10.196 117.77 11.5733V18.1649H115.749V11.8804C115.749 9.88843 114.863 8.89243 113.091 8.89243C112.255 8.89243 111.574 9.2257 111.047 9.89222C110.52 10.5588 110.256 11.3315 110.256 12.2103V18.1649H108.234V7.39843H110.168Z" fill="white"/>
<path d="M136.949 18.5162C135.748 18.5162 134.755 18.2233 133.971 17.6375C133.188 17.0516 132.613 16.3193 132.246 15.4404L134.048 14.6934C134.619 16.0408 135.594 16.7145 136.971 16.7145C137.601 16.7145 138.117 16.5753 138.52 16.297C138.923 16.0188 139.124 15.6525 139.124 15.1983C139.124 14.4951 138.633 14.0191 137.651 13.77L135.476 13.243C134.788 13.0673 134.136 12.734 133.521 12.2432C132.906 11.7524 132.598 11.0896 132.598 10.255C132.598 9.30281 133.019 8.53 133.861 7.93655C134.704 7.34312 135.703 7.0464 136.861 7.04639C137.813 7.0464 138.663 7.26254 139.41 7.69481C140.157 8.12711 140.691 8.74603 141.014 9.55158L139.255 10.2765C138.86 9.32427 138.04 8.84818 136.794 8.84817C136.194 8.84818 135.689 8.97268 135.279 9.22167C134.869 9.47068 134.663 9.80774 134.663 10.2329C134.663 10.848 135.14 11.2655 136.092 11.4855L138.223 11.9904C139.234 12.2246 139.981 12.6274 140.464 13.1987C140.948 13.7701 141.189 14.4147 141.189 15.1326C141.189 16.0996 140.794 16.9052 140.003 17.5496C139.212 18.194 138.194 18.5162 136.949 18.5162Z" fill="white"/>
</svg>
