<svg xmlns="http://www.w3.org/2000/svg" width="40" height="53" fill="none"><g clip-path="url(#a)"><mask id="b" width="39" height="53" x="0" y="0" maskUnits="userSpaceOnUse"><path fill="#fff" d="M24.322.758H4.43C2.5.758.92 2.338.92 4.268v44.464c0 1.93 1.58 3.51 3.51 3.51h30.422a3.52 3.52 0 0 0 3.51-3.51V14.799L24.323.76z"/></mask><g mask="url(#b)"><path fill="#0F9D58" d="M24.322.758H4.43C2.5.758.92 2.338.92 4.268v44.464c0 1.93 1.58 3.51 3.51 3.51h30.422a3.52 3.52 0 0 0 3.51-3.51V14.799l-8.19-5.85-5.85-8.19z"/></g><mask id="c" width="39" height="53" x="0" y="0" maskUnits="userSpaceOnUse"><path fill="#fff" d="M24.322.758H4.43C2.5.758.92 2.338.92 4.268v44.464c0 1.93 1.58 3.51 3.51 3.51h30.422a3.52 3.52 0 0 0 3.51-3.51V14.799L24.323.76z"/></mask><g mask="url(#c)"><path fill="#F1F1F1" d="M10.28 25.915V42.88h18.722V25.915H10.28zm8.19 14.626h-5.85v-2.925h5.85v2.925zm0-4.68h-5.85v-2.926h5.85v2.926zm0-4.68h-5.85v-2.926h5.85v2.925zm8.192 9.36h-5.85v-2.925h5.85v2.925zm0-4.68h-5.85v-2.926h5.85v2.926zm0-4.68h-5.85v-2.926h5.85v2.925z"/></g><mask id="d" width="39" height="53" x="0" y="0" maskUnits="userSpaceOnUse"><path fill="#fff" d="M24.322.758H4.43C2.5.758.92 2.338.92 4.268v44.464c0 1.93 1.58 3.51 3.51 3.51h30.422a3.52 3.52 0 0 0 3.51-3.51V14.799L24.323.76z"/></mask><g mask="url(#d)"><path fill="url(#e)" d="m25.349 13.772 13.014 13.012V14.799l-13.014-1.027z"/></g><mask id="f" width="39" height="53" x="0" y="0" maskUnits="userSpaceOnUse"><path fill="#fff" d="M24.322.758H4.43C2.5.758.92 2.338.92 4.268v44.464c0 1.93 1.58 3.51 3.51 3.51h30.422a3.52 3.52 0 0 0 3.51-3.51V14.799L24.323.76z"/></mask><g mask="url(#f)"><path fill="#87CEAC" d="M24.321.758v10.53a3.51 3.51 0 0 0 3.51 3.511h10.531L24.322.76z"/></g><mask id="g" width="39" height="53" x="0" y="0" maskUnits="userSpaceOnUse"><path fill="#fff" d="M24.322.758H4.43C2.5.758.92 2.338.92 4.268v44.464c0 1.93 1.58 3.51 3.51 3.51h30.422a3.52 3.52 0 0 0 3.51-3.51V14.799L24.323.76z"/></mask><g mask="url(#g)"><path fill="#fff" fill-opacity=".2" d="M4.43.758C2.5.758.92 2.338.92 4.268v.293c0-1.93 1.58-3.51 3.51-3.51h19.892V.758H4.43z"/></g><mask id="h" width="39" height="53" x="0" y="0" maskUnits="userSpaceOnUse"><path fill="#fff" d="M24.322.758H4.43C2.5.758.92 2.338.92 4.268v44.464c0 1.93 1.58 3.51 3.51 3.51h30.422a3.52 3.52 0 0 0 3.51-3.51V14.799L24.323.76z"/></mask><g mask="url(#h)"><path fill="#263238" fill-opacity=".2" d="M34.852 51.95H4.43c-1.93 0-3.51-1.58-3.51-3.51v.292c0 1.93 1.58 3.51 3.51 3.51h30.422a3.52 3.52 0 0 0 3.51-3.51v-.293a3.52 3.52 0 0 1-3.51 3.51z"/></g><mask id="i" width="39" height="53" x="0" y="0" maskUnits="userSpaceOnUse"><path fill="#fff" d="M24.322.758H4.43C2.5.758.92 2.338.92 4.268v44.464c0 1.93 1.58 3.51 3.51 3.51h30.422a3.52 3.52 0 0 0 3.51-3.51V14.799L24.323.76z"/></mask><g mask="url(#i)"><path fill="#263238" fill-opacity=".1" d="M27.831 14.8a3.51 3.51 0 0 1-3.51-3.511v.292c0 1.94 1.571 3.51 3.51 3.51h10.531V14.8h-10.53z"/></g><path fill="url(#j)" d="M24.322.758H4.43C2.5.758.92 2.338.92 4.268v44.464c0 1.93 1.58 3.51 3.51 3.51h30.422a3.52 3.52 0 0 0 3.51-3.51V14.799L24.323.76z"/></g><defs><radialGradient id="j" cx="0" cy="0" r="1" gradientTransform="translate(2.106 1.781) scale(60.3759)" gradientUnits="userSpaceOnUse"><stop stop-color="#fff" stop-opacity=".1"/><stop offset="1" stop-color="#fff" stop-opacity="0"/></radialGradient><linearGradient id="e" x1="31.857" x2="31.857" y1="14.889" y2="26.785" gradientUnits="userSpaceOnUse"><stop stop-color="#263238" stop-opacity=".2"/><stop offset="1" stop-color="#263238" stop-opacity=".02"/></linearGradient><clipPath id="a"><path fill="#fff" d="M0 0h38.761v53H0z" transform="translate(.26)"/></clipPath></defs></svg>