<svg width="163" height="24" viewBox="0 0 163 24" fill="none" xmlns="http://www.w3.org/2000/svg">
<path d="M98.2676 19.165V6.41602H102.166C104.122 6.41602 105.688 7.00634 106.863 8.18698C108.038 9.36763 108.624 10.9025 108.624 12.7896C108.624 14.6767 108.038 16.2115 106.863 17.3921C105.688 18.5728 104.122 19.1631 102.166 19.1631H98.2676V19.165ZM99.905 17.5992H102.166C103.637 17.5992 104.802 17.1773 105.663 16.3354C106.522 15.4934 106.954 14.3109 106.954 12.7915C106.954 11.2838 106.524 10.105 105.663 9.25731C104.804 8.40956 103.637 7.98376 102.166 7.98376H99.905V17.5992Z" fill="#5F6368"/>
<path d="M110.789 11.4811C111.631 10.5966 112.705 10.1553 114.01 10.1553C115.314 10.1553 116.389 10.5985 117.231 11.4811C118.072 12.3656 118.494 13.4727 118.494 14.8024C118.494 16.132 118.072 17.2391 117.231 18.1237C116.389 19.0082 115.314 19.4495 114.01 19.4495C112.705 19.4495 111.631 19.0082 110.789 18.1237C109.947 17.2391 109.525 16.132 109.525 14.8024C109.525 13.4727 109.947 12.3656 110.789 11.4811ZM112.009 17.0901C112.572 17.6669 113.24 17.9533 114.01 17.9533C114.78 17.9533 115.448 17.665 116.011 17.0901C116.574 16.5153 116.857 15.7527 116.857 14.8024C116.857 13.852 116.574 13.0895 116.011 12.5146C115.448 11.9398 114.78 11.6514 114.01 11.6514C113.24 11.6514 112.572 11.9398 112.009 12.5146C111.445 13.0914 111.163 13.854 111.163 14.8024C111.163 15.7527 111.445 16.5153 112.009 17.0901Z" fill="#5F6368"/>
<path d="M119.656 19.165V10.4398H121.222V11.6514H121.294C121.543 11.2353 121.925 10.883 122.441 10.5927C122.958 10.3024 123.471 10.1572 123.98 10.1572C125.333 10.1572 126.252 10.7146 126.738 11.8314C127.45 10.7166 128.465 10.1572 129.781 10.1572C130.812 10.1572 131.59 10.4863 132.111 11.1463C132.634 11.8043 132.895 12.6985 132.895 13.8269V19.1688H131.258V14.0727C131.258 13.194 131.097 12.5708 130.778 12.203C130.456 11.8353 129.97 11.6514 129.318 11.6514C128.678 11.6514 128.147 11.9243 127.725 12.4701C127.303 13.0159 127.094 13.6392 127.094 14.3398V19.165H125.457V14.0727C125.457 13.194 125.296 12.5708 124.977 12.203C124.656 11.8353 124.17 11.6514 123.518 11.6514C122.877 11.6514 122.347 11.9243 121.925 12.4701C121.503 13.0159 121.294 13.6392 121.294 14.3398V19.165H119.656Z" fill="#5F6368"/>
<path d="M137.216 19.4494C136.291 19.4494 135.517 19.1823 134.894 18.6481C134.271 18.1139 133.959 17.4075 133.959 16.5288C133.959 15.5785 134.327 14.8352 135.062 14.2933C135.798 13.7533 136.705 13.4823 137.785 13.4823C138.745 13.4823 139.535 13.6604 140.153 14.0165V13.7669C140.153 13.1262 139.932 12.6133 139.494 12.2262C139.055 11.841 138.515 11.6475 137.874 11.6475C137.4 11.6475 136.971 11.7598 136.584 11.9862C136.198 12.2127 135.933 12.5204 135.792 12.9114L134.298 12.2707C134.499 11.7481 134.896 11.2643 135.49 10.8191C136.082 10.3739 136.866 10.1514 137.84 10.1514C138.954 10.1514 139.88 10.4785 140.615 11.1307C141.351 11.783 141.718 12.7043 141.718 13.8907V19.161H140.153V17.9494H140.081C139.429 18.952 138.474 19.4494 137.216 19.4494ZM137.483 17.9552C138.159 17.9552 138.774 17.7036 139.326 17.1985C139.878 16.6933 140.153 16.0972 140.153 15.4081C139.69 15.0288 138.995 14.8391 138.07 14.8391C137.274 14.8391 136.676 15.0114 136.272 15.3559C135.869 15.7004 135.666 16.103 135.666 16.5675C135.666 16.9952 135.85 17.3339 136.218 17.5817C136.587 17.8294 137.009 17.9552 137.483 17.9552Z" fill="#5F6368"/>
<path d="M144.937 8.25103C144.713 8.47748 144.44 8.58974 144.118 8.58974C143.797 8.58974 143.524 8.47748 143.3 8.25103C143.075 8.02652 142.961 7.75168 142.961 7.43232C142.961 7.11103 143.073 6.83813 143.3 6.61361C143.524 6.3891 143.797 6.2749 144.118 6.2749C144.44 6.2749 144.711 6.38716 144.937 6.61361C145.162 6.84006 145.276 7.11297 145.276 7.43232C145.276 7.75168 145.164 8.02458 144.937 8.25103ZM144.937 19.1652H143.3V10.4401H144.937V19.1652Z" fill="#5F6368"/>
<path d="M148.208 10.4398V11.6514H148.28C148.516 11.2353 148.892 10.883 149.401 10.5927C149.912 10.3024 150.455 10.1572 151.038 10.1572C152.118 10.1572 152.943 10.4901 153.512 11.154C154.081 11.8198 154.365 12.7101 154.365 13.825V19.1669H152.728V14.0727C152.728 12.4585 152.01 11.6514 150.575 11.6514C149.9 11.6514 149.348 11.9224 148.921 12.4624C148.493 13.0024 148.28 13.6295 148.28 14.3417V19.1669H146.643V10.4398H148.208Z" fill="#5F6368"/>
<path d="M159.131 19.4494C158.158 19.4494 157.355 19.2113 156.72 18.7372C156.085 18.263 155.618 17.6688 155.322 16.9565L156.782 16.3507C157.244 17.4423 158.034 17.9881 159.149 17.9881C159.658 17.9881 160.076 17.8759 160.403 17.6494C160.73 17.4249 160.893 17.1268 160.893 16.7591C160.893 16.1901 160.496 15.803 159.7 15.6017L157.939 15.1739C157.382 15.0307 156.853 14.7617 156.356 14.363C155.858 13.9662 155.609 13.4281 155.609 12.7507C155.609 11.9784 155.949 11.3533 156.633 10.8713C157.314 10.3913 158.125 10.1494 159.062 10.1494C159.832 10.1494 160.521 10.3255 161.127 10.6739C161.733 11.0243 162.164 11.5255 162.425 12.1778L161.001 12.7662C160.682 11.9939 160.016 11.6088 159.007 11.6088C158.522 11.6088 158.111 11.7094 157.78 11.9107C157.447 12.112 157.283 12.3849 157.283 12.7294C157.283 13.2288 157.668 13.5655 158.44 13.7436L160.167 14.1539C160.985 14.3436 161.589 14.6707 161.982 15.1333C162.373 15.5959 162.569 16.1184 162.569 16.701C162.569 17.4849 162.247 18.1372 161.607 18.6597C160.962 19.1881 160.138 19.4494 159.131 19.4494Z" fill="#5F6368"/>
<path d="M43.0936 19.4477C39.1259 19.4477 35.791 16.2135 35.791 12.24C35.791 8.26642 39.1259 5.03223 43.0936 5.03223C45.2884 5.03223 46.8504 5.89352 48.0271 7.01803L46.6394 8.40577C45.7975 7.61416 44.6555 6.99868 43.0936 6.99868C40.1962 6.99868 37.9317 9.33674 37.9317 12.238C37.9317 15.1393 40.1962 17.4755 43.0936 17.4755C44.973 17.4755 46.0433 16.7206 46.7284 16.0335C47.2897 15.4703 47.6594 14.6632 47.7988 13.5542H43.0433V11.5896H49.713C49.7826 11.9419 49.8175 12.3638 49.8175 12.8206C49.8175 14.2974 49.413 16.1264 48.1142 17.4271C46.8504 18.7432 45.2362 19.4477 43.0936 19.4477Z" fill="#5F6368"/>
<path d="M59.8059 14.8063C59.8059 17.4792 57.7195 19.4476 55.1588 19.4476C52.5982 19.4476 50.5117 17.4792 50.5117 14.8063C50.5117 12.116 52.5982 10.165 55.1588 10.165C57.7195 10.165 59.8059 12.116 59.8059 14.8063ZM57.7717 14.8063C57.7717 13.136 56.562 11.9941 55.1588 11.9941C53.7556 11.9941 52.5459 13.136 52.5459 14.8063C52.5459 16.4592 53.7556 17.6186 55.1588 17.6186C56.562 17.6186 57.7717 16.4573 57.7717 14.8063Z" fill="#5F6368"/>
<path d="M69.9211 14.8063C69.9211 17.4792 67.8347 19.4476 65.274 19.4476C62.7134 19.4476 60.627 17.4773 60.627 14.8063C60.627 12.116 62.7134 10.165 65.274 10.165C67.8347 10.165 69.9211 12.116 69.9211 14.8063ZM67.8869 14.8063C67.8869 13.136 66.6773 11.9941 65.274 11.9941C63.8708 11.9941 62.6611 13.136 62.6611 14.8063C62.6611 16.4592 63.8708 17.6186 65.274 17.6186C66.6773 17.6186 67.8869 16.4573 67.8869 14.8063Z" fill="#5F6368"/>
<path d="M79.5968 10.4457V18.7779C79.5968 22.2057 77.5781 23.6128 75.1897 23.6128C72.9426 23.6128 71.5916 22.1012 71.0826 20.8702L72.8555 20.1328C73.171 20.8896 73.9432 21.7857 75.1897 21.7857C76.7168 21.7857 77.6652 20.8373 77.6652 19.0605V18.3928H77.5955C77.1387 18.956 76.2619 19.4476 75.1548 19.4476C72.8381 19.4476 70.7129 17.427 70.7129 14.8237C70.7129 12.205 72.8381 10.165 75.1548 10.165C76.26 10.165 77.1387 10.6567 77.5955 11.2025H77.6652V10.4457H79.5968ZM77.8045 14.8237C77.8045 13.1883 76.7168 11.9941 75.329 11.9941C73.9239 11.9941 72.749 13.1902 72.749 14.8237C72.749 16.4418 73.9258 17.6186 75.329 17.6186C76.7168 17.6186 77.8045 16.4399 77.8045 14.8237Z" fill="#5F6368"/>
<path d="M83.0986 5.52393V19.1652H81.0625V5.52393H83.0986Z" fill="#5F6368"/>
<path d="M90.992 16.3354L92.5713 17.3902C92.0623 18.147 90.8333 19.4476 88.71 19.4476C86.0758 19.4476 84.1113 17.4076 84.1113 14.8063C84.1113 12.0463 86.0952 10.165 88.4836 10.165C90.8894 10.165 92.0642 12.0812 92.4513 13.1186L92.6623 13.645L86.4629 16.2115C86.9371 17.1425 87.6746 17.6186 88.71 17.6186C89.7455 17.6186 90.4655 17.1096 90.992 16.3354ZM86.1281 14.665L90.272 12.9425C90.0436 12.3618 89.3584 11.9573 88.5513 11.9573C87.5158 11.9573 86.0758 12.8728 86.1281 14.665Z" fill="#5F6368"/>
<path d="M25.6119 0C26.2486 0 26.6783 0.650323 26.4267 1.23484L17.4519 22.7052C17.1112 23.491 16.3351 24 15.4777 24H9.34413C8.70735 24 8.26219 23.371 8.51574 22.7865L9.21832 21.1006L10.7512 12.149L15.2048 6.73548L17.4732 1.29484C17.8119 0.509032 18.4467 0 19.3041 0H25.6119Z" fill="#4285F4"/>
<path d="M15.2358 6.66014C13.6758 5.14466 11.539 4.22143 9.18932 4.2466C4.48222 4.29885 0.70609 8.14659 0.758348 12.8401C0.808671 17.4601 4.54996 21.1763 9.15835 21.2421C9.17964 21.184 13.2809 14.7466 13.2809 14.7466C13.2809 14.7466 15.2358 6.66401 15.2358 6.66014Z" fill="#FBBC04"/>
<path d="M15.2356 6.66016C15.2356 6.66016 9.1524 21.244 9.15821 21.244C9.23176 21.246 9.3053 21.246 9.37885 21.244C14.0879 21.1918 17.8621 17.346 17.8098 12.6505C17.7847 10.3008 16.8014 8.18338 15.2356 6.66016Z" fill="#EA4335"/>
</svg>
