<svg xmlns="http://www.w3.org/2000/svg" width="55" height="53" fill="none"><path fill="url(#a)" d="M50.285 0h-9.963c-2.41 0-4.388 1.918-4.388 4.254v12.483H21.51c-2.338 0-4.245 1.848-4.245 4.15v13.981H4.28c-2.374 0-4.28 1.848-4.28 4.15v9.763C0 51.082 1.906 52.93 4.28 53h46.041c2.41 0 4.389-1.918 4.389-4.254V4.254C54.674 1.918 52.695 0 50.285 0z"/><path fill="url(#b)" d="M50.285 0h-9.963c-2.41 0-4.388 1.918-4.388 4.254v12.483H21.51c-2.338 0-4.245 1.848-4.245 4.15v13.981H4.28c-2.374 0-4.28 1.848-4.28 4.15v9.763C0 51.082 1.906 52.93 4.28 53h46.041c2.41 0 4.389-1.918 4.389-4.254V4.254C54.674 1.918 52.695 0 50.285 0z"/><path fill="#F57C00" d="M50.319 0H40.42c-2.411 0-4.39 1.918-4.39 4.254V53h14.289c2.411 0 4.39-1.918 4.39-4.254V4.254C54.71 1.918 52.73 0 50.32 0z"/><path fill="#FFC107" d="M17.277 20.921v13.947H4.319C1.944 34.868 0 36.752 0 39.053v9.763C0 51.117 1.944 53 4.32 53h31.673V16.737H21.596c-2.376 0-4.32 1.883-4.32 4.184z"/><path fill="url(#c)" d="M35.903 17.097V53H50.29c2.428 0 4.42-1.899 4.42-4.212v-13.74L35.904 17.097z"/><path fill="#fff" d="M21.437 17.36h14.466v-.263H21.437c-2.387 0-4.34 1.42-4.34 3.156v.263c0-1.736 1.953-3.156 4.34-3.156zM4.274 34.456h12.823v-.263H4.274C1.924 34.194 0 35.614 0 37.35v.263c0-1.736 1.923-3.157 4.274-3.157zM50.289 0h-9.965c-2.428 0-4.42 1.425-4.42 3.16v.26c0-1.736 1.992-3.161 4.42-3.161h9.965c2.428 0 4.42 1.425 4.42 3.16V3.16c0-1.735-1.992-3.16-4.42-3.16z" opacity=".2"/><path fill="#BF360C" d="M50.35 52.741H4.323C1.945 52.741 0 51.342 0 49.633v.258C0 51.602 1.945 53 4.322 53h45.993c2.413 0 4.394-1.425 4.394-3.16v-.26c.036 1.736-1.945 3.161-4.358 3.161z" opacity=".2"/><path fill="url(#d)" d="M50.319 0H40.42c-2.411 0-4.39 1.918-4.39 4.254v12.483H21.631c-2.376 0-4.32 1.883-4.32 4.184v13.947H4.32c-2.376 0-4.32 1.883-4.32 4.185v9.763C0 51.117 1.944 53 4.32 53h45.998c2.412 0 4.392-1.918 4.392-4.254V4.254C54.71 1.918 52.73 0 50.318 0z"/><defs><linearGradient id="a" x1="0" x2="54.71" y1="53" y2="53" gradientUnits="userSpaceOnUse"><stop stop-color="#fff" stop-opacity=".1"/><stop offset="1" stop-color="#fff" stop-opacity=".01"/></linearGradient><linearGradient id="b" x1="0" x2="54.71" y1="53" y2="53" gradientUnits="userSpaceOnUse"><stop stop-color="#fff" stop-opacity=".1"/><stop offset="1" stop-color="#fff" stop-opacity=".01"/></linearGradient><linearGradient id="c" x1="19.872" x2="51.269" y1="51.793" y2="60" gradientUnits="userSpaceOnUse"><stop stop-color="#BF360C" stop-opacity=".2"/><stop offset="1" stop-color="#BF360C" stop-opacity=".02"/></linearGradient><linearGradient id="d" x1=".65" x2="34.917" y1="34.936" y2="70.309" gradientUnits="userSpaceOnUse"><stop stop-color="#fff" stop-opacity=".1"/><stop offset="1" stop-color="#fff" stop-opacity=".01"/></linearGradient></defs></svg>