<svg width="85" height="50" viewBox="0 0 85 50" fill="none" xmlns="http://www.w3.org/2000/svg">
<path d="M15.7842 15.8357L7.43499 7.45093C2.82899 12.0668 0.242188 18.3214 0.242188 24.8422C0.242187 31.3631 2.82899 37.6176 7.43499 42.2335L15.8198 33.8487C13.4307 31.4625 12.0853 28.2262 12.0787 24.8496C12.072 21.4729 13.4046 18.2314 15.7842 15.8357V15.8357Z" fill="#E8710A"/>
<path d="M7.43457 7.45098L15.7838 15.8357C16.9684 14.6498 18.3751 13.7089 19.9236 13.067C21.4721 12.4251 23.1319 12.0947 24.8081 12.0947C26.4843 12.0947 28.1441 12.4251 29.6926 13.067C31.2411 13.7089 32.6478 14.6498 33.8324 15.8357L39.9078 5.42584L39.5525 5.14161C34.8137 1.60614 28.9608 -0.106041 23.0637 0.31798C17.1665 0.742001 11.6189 3.27391 7.43457 7.45098V7.45098Z" fill="#F9AB00"/>
<path d="M39.9433 44.2586L33.8324 33.8842C32.6478 35.0702 31.2411 36.011 29.6926 36.653C28.1441 37.2949 26.4843 37.6253 24.8081 37.6253C23.1319 37.6253 21.4721 37.2949 19.9236 36.653C18.3751 36.011 16.9684 35.0702 15.7838 33.8842L7.43457 42.269C11.6105 46.4088 17.1302 48.9174 22.9951 49.341C28.86 49.7646 34.6829 48.0751 39.4104 44.5783L39.8012 44.2586" fill="#F9AB00"/>
<path d="M42.2866 7.45098C37.6805 12.0669 35.0938 18.3214 35.0938 24.8423C35.0937 31.3631 37.6805 37.6177 42.2866 42.2336L50.6713 33.8488C48.2779 31.4554 46.9333 28.2093 46.9333 24.8245C46.9333 21.4397 48.2779 18.1936 50.6713 15.8002C53.0647 13.4068 56.3108 12.0622 59.6956 12.0622C63.0804 12.0622 66.3265 13.4068 68.7199 15.8002L77.1402 7.45098C74.8533 5.15962 72.1369 3.34175 69.1466 2.10142C66.1563 0.86109 62.9507 0.222656 59.7134 0.222656C56.476 0.222656 53.2705 0.86109 50.2802 2.10142C47.2898 3.34175 44.5735 5.15962 42.2866 7.45098V7.45098Z" fill="#F9AB00"/>
<path d="M77.1437 7.45093L68.7944 15.8357C71.1878 18.2291 72.5324 21.4752 72.5324 24.86C72.5324 28.2447 71.1878 31.4909 68.7944 33.8843C66.401 36.2777 63.1549 37.6223 59.7702 37.6223C56.3854 37.6223 53.1393 36.2777 50.7459 33.8843L42.29 42.269C46.9072 46.8909 53.1713 49.4893 59.7043 49.4927C62.9391 49.4943 66.1426 48.8588 69.1318 47.6224C72.121 46.386 74.8374 44.573 77.1259 42.2868C79.4144 40.0006 81.2303 37.2861 82.4697 34.2981C83.7091 31.3102 84.3479 28.1074 84.3495 24.8725C84.3512 21.6377 83.7157 18.4343 82.4793 15.4451C81.2429 12.4559 79.4299 9.73945 77.1437 7.45093V7.45093Z" fill="#E8710A"/>
</svg>
