<svg xmlns="http://www.w3.org/2000/svg" width="226" height="24" fill="none" viewBox="0 0 226 24"><path fill="#767676" d="M85.452 18.607c-1.189 0-2.342-.39-3.46-1.152-1.135-.781-1.862-1.863-2.217-3.247l1.916-.78c.23.887.692 1.65 1.401 2.253.71.62 1.49.922 2.377.922.905 0 1.686-.23 2.324-.71.639-.479.958-1.117.958-1.933 0-.905-.32-1.614-.958-2.093-.639-.497-1.667-.958-3.05-1.366-1.438-.461-2.537-1.047-3.265-1.756-.745-.727-1.117-1.632-1.117-2.767 0-1.171.461-2.182 1.383-3.051.923-.87 2.129-1.295 3.619-1.295 1.384 0 2.501.337 3.353 1.029.869.691 1.419 1.436 1.685 2.252l-1.916.799c-.142-.515-.479-.994-1.011-1.437-.532-.444-1.224-.656-2.076-.656-.798 0-1.49.23-2.057.674-.568.443-.852 1.01-.852 1.667 0 .603.266 1.118.78 1.525.515.408 1.296.799 2.307 1.118.798.266 1.472.514 2.004.745.532.248 1.082.568 1.632.958.55.408.976.905 1.242 1.49.284.603.426 1.295.426 2.075 0 .78-.16 1.49-.497 2.111-.32.621-.763 1.118-1.295 1.473-.532.354-1.117.638-1.738.833-.621.23-1.26.32-1.898.32zM97.71 18.607c-1.686 0-3.051-.567-4.098-1.685-1.047-1.117-1.579-2.536-1.579-4.24 0-1.613.515-3.015 1.526-4.185 1.029-1.171 2.323-1.757 3.92-1.757 1.65 0 2.962.533 3.956 1.615.993 1.082 1.49 2.518 1.49 4.31l-.018.39h-8.78c.053 1.118.443 2.005 1.117 2.661.692.656 1.49.976 2.412.976 1.49 0 2.519-.639 3.051-1.916l1.863.78c-.355.87-.958 1.58-1.792 2.165-.834.603-1.845.886-3.069.886zm2.997-7.255c-.053-.638-.337-1.241-.869-1.809-.532-.567-1.33-.869-2.395-.869-.78 0-1.436.248-2.004.727-.568.48-.958 1.136-1.17 1.951h6.438zM107.873 18.607c-1.188 0-2.164-.337-2.962-1.028-.798-.674-1.188-1.58-1.188-2.697 0-1.206.461-2.164 1.401-2.855.94-.692 2.093-1.03 3.477-1.03 1.224 0 2.235.231 3.015.675v-.32c0-.816-.284-1.472-.833-1.969-.568-.496-1.242-.745-2.058-.745-.603 0-1.153.142-1.65.426-.496.284-.833.674-1.011 1.189l-1.916-.816c.249-.674.763-1.277 1.526-1.845.763-.568 1.756-.852 2.998-.852 1.419 0 2.607.408 3.547 1.242.94.834 1.402 2.005 1.402 3.512v6.759h-2.005v-1.544h-.088c-.834 1.278-2.058 1.898-3.655 1.898zm.337-1.898c.87 0 1.65-.319 2.342-.957.709-.639 1.064-1.402 1.064-2.289-.585-.479-1.472-.727-2.661-.727-1.011 0-1.773.213-2.288.656-.514.444-.78.958-.78 1.544 0 .55.23.975.709 1.294.479.32 1.011.48 1.614.48zM117.701 18.253h-2.094V7.13h2.005v1.81h.089c.212-.604.638-1.1 1.312-1.49.657-.391 1.295-.586 1.916-.586s1.135.088 1.561.266l-.798 1.951c-.266-.106-.639-.16-1.118-.16-.763 0-1.419.302-2.004.905-.586.603-.869 1.384-.869 2.341v6.085zM128.007 18.608c-1.668 0-3.033-.568-4.115-1.686-1.083-1.135-1.615-2.536-1.615-4.24 0-1.702.532-3.103 1.615-4.239 1.082-1.135 2.447-1.685 4.115-1.685 1.242 0 2.27.302 3.086.905.816.603 1.419 1.366 1.792 2.288l-1.916.798c-.567-1.4-1.614-2.093-3.104-2.093-.922 0-1.738.373-2.448 1.136-.71.762-1.064 1.72-1.064 2.89 0 1.172.354 2.13 1.064 2.892.71.763 1.526 1.135 2.448 1.135 1.561 0 2.625-.691 3.228-2.093l1.863.799c-.373.904-.994 1.667-1.827 2.288-.852.603-1.88.905-3.122.905zM136.308 2.004v5.127l-.089 1.543h.089c.302-.532.78-.976 1.437-1.348.656-.373 1.348-.55 2.093-.55 1.383 0 2.43.426 3.157 1.277.728.852 1.082 1.987 1.082 3.406v6.794h-2.093V11.76c0-2.058-.922-3.087-2.749-3.087-.869 0-1.561.337-2.111 1.029-.55.692-.816 1.49-.816 2.395v6.155h-2.093V2.004h2.093zM156.6 18.608c-2.395 0-4.399-.816-6.014-2.43-1.614-1.615-2.43-3.637-2.43-6.067s.816-4.435 2.43-6.067c1.615-1.614 3.619-2.43 6.014-2.43 2.448 0 4.434.887 5.978 2.661l-1.455 1.401c-1.1-1.383-2.608-2.057-4.523-2.057-1.774 0-3.264.603-4.488 1.791-1.224 1.189-1.827 2.767-1.827 4.7 0 1.934.603 3.513 1.827 4.702 1.224 1.188 2.714 1.791 4.488 1.791 1.951 0 3.618-.78 5.002-2.359l1.454 1.454c-.745.887-1.667 1.597-2.784 2.13-1.136.531-2.36.78-3.672.78zM165.47 8.461c1.082-1.135 2.448-1.685 4.115-1.685 1.667 0 3.033.568 4.115 1.685 1.082 1.136 1.614 2.537 1.614 4.24 0 1.703-.532 3.104-1.614 4.24-1.082 1.135-2.448 1.684-4.115 1.684-1.667 0-3.033-.567-4.115-1.685-1.082-1.135-1.615-2.536-1.615-4.24 0-1.702.533-3.121 1.615-4.239zm1.543 7.149c.727.727 1.579 1.1 2.554 1.1.976 0 1.827-.373 2.555-1.1.727-.727 1.082-1.703 1.082-2.91 0-1.205-.355-2.181-1.082-2.908-.728-.728-1.579-1.1-2.555-1.1-.975 0-1.827.372-2.554 1.1-.727.727-1.082 1.703-1.082 2.909.018 1.206.372 2.164 1.082 2.909zM178.772 7.13v1.544h.089c.301-.532.78-.975 1.437-1.348.656-.372 1.348-.55 2.093-.55 1.383 0 2.43.426 3.157 1.277.727.852 1.082 1.987 1.082 3.406v6.794h-2.093V11.76c0-2.058-.922-3.087-2.749-3.087-.87 0-1.561.337-2.111 1.029-.55.692-.816 1.49-.816 2.395v6.155h-2.093V7.13h2.004zM192.716 18.608c-1.242 0-2.271-.302-3.069-.905-.816-.603-1.401-1.366-1.774-2.27l1.863-.781c.585 1.401 1.596 2.093 3.015 2.093.656 0 1.189-.142 1.597-.426.408-.284.62-.674.62-1.135 0-.727-.514-1.224-1.525-1.472l-2.253-.55c-.709-.178-1.383-.532-2.022-1.029-.639-.514-.958-1.188-.958-2.058 0-.975.444-1.773 1.313-2.394.869-.621 1.898-.923 3.104-.923.976 0 1.862.23 2.625.674.781.444 1.331 1.082 1.65 1.916l-1.809.745c-.408-.976-1.26-1.472-2.537-1.472-.621 0-1.135.124-1.561.39-.426.266-.639.603-.639 1.047 0 .638.497 1.064 1.473 1.294l2.199.515c1.047.248 1.81.656 2.324 1.242.497.585.745 1.26.745 2.004 0 .993-.408 1.827-1.224 2.501-.816.674-1.88.994-3.157.994zM199.491 8.461c1.082-1.135 2.448-1.685 4.115-1.685 1.668 0 3.034.568 4.116 1.685 1.082 1.136 1.614 2.537 1.614 4.24 0 1.703-.532 3.104-1.614 4.24-1.082 1.135-2.448 1.684-4.116 1.684-1.667 0-3.033-.567-4.115-1.685-1.082-1.135-1.614-2.536-1.614-4.24 0-1.702.532-3.121 1.614-4.239zm1.561 7.149c.727.727 1.579 1.1 2.554 1.1.976 0 1.827-.373 2.555-1.1.727-.727 1.082-1.703 1.082-2.91 0-1.205-.355-2.181-1.082-2.908-.728-.728-1.579-1.1-2.555-1.1-.975 0-1.827.372-2.554 1.1-.727.727-1.082 1.703-1.082 2.909 0 1.206.355 2.164 1.082 2.909zM212.919 18.253h-2.093V2.004h2.093v16.249zM220.102 18.608c-1.685 0-3.051-.568-4.098-1.686-1.046-1.117-1.578-2.536-1.578-4.239 0-1.614.514-3.015 1.525-4.186 1.029-1.17 2.324-1.756 3.92-1.756 1.65 0 2.963.532 3.956 1.614.993 1.082 1.49 2.519 1.49 4.31l-.018.39h-8.78c.053 1.118.443 2.005 1.117 2.661.692.657 1.49.976 2.413.976 1.49 0 2.519-.639 3.051-1.916l1.862.78c-.354.87-.957 1.58-1.791 2.165-.834.603-1.863.887-3.069.887zm2.998-7.255c-.053-.639-.337-1.242-.869-1.81-.532-.567-1.331-.869-2.395-.869-.781 0-1.437.249-2.004.727-.568.48-.958 1.136-1.171 1.952h6.439z"/><path fill="#4885ED" d="M.91 9.313C.91 4.186 5.22 0 10.365 0c2.838 0 4.86 1.118 6.385 2.572L14.96 4.364c-1.082-1.03-2.572-1.81-4.594-1.81-3.743 0-6.67 3.016-6.67 6.759 0 3.742 2.927 6.758 6.67 6.758 2.43 0 3.813-.976 4.7-1.863.728-.727 1.207-1.773 1.384-3.193h-6.084V8.48h8.567c.089.461.142.993.142 1.596 0 1.916-.514 4.275-2.2 5.943-1.631 1.703-3.724 2.607-6.492 2.607C5.221 18.608.91 14.44.91 9.313z"/><path fill="#DB3236" d="M25.974 6.634c-3.317 0-6.013 2.519-6.013 5.996 0 3.459 2.696 5.995 6.013 5.995 3.317 0 6.014-2.536 6.014-5.995 0-3.477-2.697-5.996-6.014-5.996zm0 9.614c-1.81 0-3.388-1.49-3.388-3.636 0-2.164 1.561-3.636 3.388-3.636 1.81 0 3.388 1.472 3.388 3.636 0 2.146-1.578 3.636-3.388 3.636z"/><path fill="#F4C20D" d="M39.101 6.634c-3.317 0-6.013 2.519-6.013 5.996 0 3.459 2.696 5.995 6.013 5.995 3.317 0 6.014-2.536 6.014-5.995 0-3.477-2.697-5.996-6.014-5.996zm0 9.614c-1.81 0-3.388-1.49-3.388-3.636 0-2.164 1.561-3.636 3.388-3.636s3.388 1.472 3.388 3.636c0 2.146-1.578 3.636-3.388 3.636z"/><path fill="#4885ED" d="M55.208 6.989v.976h-.088c-.586-.71-1.721-1.349-3.158-1.349-2.998 0-5.747 2.626-5.747 6.014 0 3.352 2.75 5.978 5.747 5.978 1.437 0 2.572-.639 3.157-1.366h.09v.869c0 2.288-1.225 3.512-3.194 3.512-1.614 0-2.607-1.153-3.015-2.129l-2.288.958C47.367 22.05 49.123 24 52.032 24c3.087 0 5.694-1.81 5.694-6.244V6.99h-2.519zm-3.015 9.26c-1.81 0-3.335-1.526-3.335-3.62 0-2.11 1.525-3.653 3.335-3.653 1.791 0 3.193 1.543 3.193 3.654.017 2.11-1.402 3.618-3.193 3.618z"/><path fill="#3CBA54" d="M62.16.639h-2.625v17.614h2.625V.639z"/><path fill="#DB3236" d="M69.38 16.248c-1.348 0-2.288-.62-2.91-1.81l8.019-3.316-.267-.674C73.726 9.1 72.2 6.634 69.096 6.634c-3.086 0-5.659 2.43-5.659 5.996 0 3.352 2.537 5.995 5.943 5.995 2.75 0 4.328-1.685 5.002-2.66l-2.04-1.366c-.692.993-1.614 1.65-2.962 1.65zm-.195-7.308c1.046 0 1.933.514 2.217 1.277l-5.357 2.217c-.07-2.305 1.792-3.494 3.14-3.494z"/></svg>