<svg xmlns="http://www.w3.org/2000/svg" width="39" height="53" fill="none"><g clip-path="url(#a)"><mask id="b" width="39" height="53" x="0" y="0" maskUnits="userSpaceOnUse"><path fill="#fff" d="M24.307 0H3.948C1.972 0 .355 1.626.355 3.614v45.772C.355 51.374 1.972 53 3.948 53h31.138c1.976 0 3.593-1.626 3.593-3.614V14.455L24.306 0z"/></mask><g mask="url(#b)"><path fill="#4285F4" d="M24.307 0H3.948C1.972 0 .355 1.626.355 3.614v45.772C.355 51.374 1.972 53 3.948 53h31.138c1.976 0 3.593-1.626 3.593-3.614V14.455l-8.384-6.023L24.307 0z"/></g><mask id="c" width="39" height="53" x="0" y="0" maskUnits="userSpaceOnUse"><path fill="#fff" d="M24.307 0H3.948C1.972 0 .355 1.626.355 3.614v45.772C.355 51.374 1.972 53 3.948 53h31.138c1.976 0 3.593-1.626 3.593-3.614V14.455L24.306 0z"/></mask><g mask="url(#c)"><path fill="url(#d)" d="m25.358 13.398 13.32 13.394V14.455l-13.32-1.057z"/></g><mask id="e" width="39" height="53" x="0" y="0" maskUnits="userSpaceOnUse"><path fill="#fff" d="M24.307 0H3.948C1.972 0 .355 1.626.355 3.614v45.772C.355 51.374 1.972 53 3.948 53h31.138c1.976 0 3.593-1.626 3.593-3.614V14.455L24.306 0z"/></mask><g mask="url(#e)"><path fill="#F1F1F1" d="M9.937 38.545h19.161v-2.409H9.937v2.41zm0 4.819h14.37v-2.41H9.938v2.41zm0-16.864v2.41h19.161V26.5H9.937zm0 7.227h19.161v-2.409H9.937v2.41z"/></g><mask id="f" width="39" height="53" x="0" y="0" maskUnits="userSpaceOnUse"><path fill="#fff" d="M24.307 0H3.948C1.972 0 .355 1.626.355 3.614v45.772C.355 51.374 1.972 53 3.948 53h31.138c1.976 0 3.593-1.626 3.593-3.614V14.455L24.306 0z"/></mask><g mask="url(#f)"><path fill="#A1C2FA" d="M24.308 0v10.84c0 1.997 1.607 3.614 3.592 3.614h10.78L24.308 0z"/></g><mask id="g" width="39" height="53" x="0" y="0" maskUnits="userSpaceOnUse"><path fill="#fff" d="M24.307 0H3.948C1.972 0 .355 1.626.355 3.614v45.772C.355 51.374 1.972 53 3.948 53h31.138c1.976 0 3.593-1.626 3.593-3.614V14.455L24.306 0z"/></mask><g mask="url(#g)"><path fill="#fff" fill-opacity=".2" d="M3.948 0C1.972 0 .355 1.626.355 3.614v.3C.355 1.928 1.972.302 3.948.302h20.36V0H3.947z"/></g><mask id="h" width="39" height="53" x="0" y="0" maskUnits="userSpaceOnUse"><path fill="#fff" d="M24.307 0H3.948C1.972 0 .355 1.626.355 3.614v45.772C.355 51.374 1.972 53 3.948 53h31.138c1.976 0 3.593-1.626 3.593-3.614V14.455L24.306 0z"/></mask><g mask="url(#h)"><path fill="#1A237E" fill-opacity=".2" d="M35.086 52.699H3.948c-1.976 0-3.593-1.626-3.593-3.614v.301C.355 51.374 1.972 53 3.948 53h31.138c1.976 0 3.593-1.626 3.593-3.614v-.3c0 1.987-1.617 3.613-3.593 3.613z"/></g><mask id="i" width="39" height="53" x="0" y="0" maskUnits="userSpaceOnUse"><path fill="#fff" d="M24.307 0H3.948C1.972 0 .355 1.626.355 3.614v45.772C.355 51.374 1.972 53 3.948 53h31.138c1.976 0 3.593-1.626 3.593-3.614V14.455L24.306 0z"/></mask><g mask="url(#i)"><path fill="#1A237E" fill-opacity=".1" d="M27.9 14.455c-1.985 0-3.592-1.617-3.592-3.614v.301c0 1.997 1.607 3.614 3.592 3.614h10.78v-.301H27.9z"/></g><path fill="url(#j)" d="M24.307 0H3.948C1.972 0 .355 1.626.355 3.614v45.772C.355 51.374 1.972 53 3.948 53h31.138c1.976 0 3.593-1.626 3.593-3.614V14.455L24.306 0z"/></g><defs><radialGradient id="j" cx="0" cy="0" r="1" gradientTransform="translate(1.57 1.048) scale(61.7954)" gradientUnits="userSpaceOnUse"><stop stop-color="#fff" stop-opacity=".1"/><stop offset="1" stop-color="#fff" stop-opacity="0"/></radialGradient><linearGradient id="d" x1="32.019" x2="32.019" y1="14.548" y2="26.794" gradientUnits="userSpaceOnUse"><stop stop-color="#1A237E" stop-opacity=".2"/><stop offset="1" stop-color="#1A237E" stop-opacity=".02"/></linearGradient><clipPath id="a"><path fill="#fff" d="M0 0h38.323v53H0z" transform="translate(.355)"/></clipPath></defs></svg>