<svg xmlns="http://www.w3.org/2000/svg" width="35" height="48" fill="none" viewBox="0 0 35 48">
    <mask id="ax4fw91doa" width="35" height="48" x="0" y="0" maskUnits="userSpaceOnUse">
        <path fill="#fff" d="M21.515 0H3.227C1.452 0 0 1.452 0 3.227v40.88c0 1.774 1.452 3.226 3.227 3.226h27.97c1.775 0 3.227-1.452 3.227-3.227V12.91L21.515 0z"/>
    </mask>
    <g mask="url(#ax4fw91doa)">
        <path fill="#673AB7" d="M21.515 0H3.227C1.452 0 0 1.452 0 3.227v40.88c0 1.774 1.452 3.226 3.227 3.226h27.97c1.775 0 3.227-1.452 3.227-3.227V12.91l-7.53-5.379L21.515 0z"/>
    </g>
    <mask id="nfbt0959sb" width="35" height="48" x="0" y="0" maskUnits="userSpaceOnUse">
        <path fill="#fff" d="M21.515 0H3.227C1.452 0 0 1.452 0 3.227v40.88c0 1.774 1.452 3.226 3.227 3.226h27.97c1.775 0 3.227-1.452 3.227-3.227V12.91L21.515 0z"/>
    </mask>
    <g mask="url(#nfbt0959sb)">
        <path fill="#F1F1F1" d="M13.985 36.576h11.833v-2.152H13.985v2.152zm0-12.91v2.152h11.833v-2.151H13.985zm-2.69 1.076c0 .89-.723 1.614-1.613 1.614s-1.614-.723-1.614-1.614c0-.89.724-1.613 1.614-1.613.89 0 1.614.723 1.614 1.613zm0 5.38c0 .89-.723 1.613-1.613 1.613s-1.614-.723-1.614-1.614c0-.89.724-1.613 1.614-1.613.89 0 1.614.723 1.614 1.613zm0 5.378c0 .89-.723 1.614-1.613 1.614S8.068 36.39 8.068 35.5c0-.89.724-1.614 1.614-1.614.89 0 1.614.724 1.614 1.614zm2.69-4.303h11.833v-2.151H13.985v2.151z"/>
    </g>
    <mask id="5toh1omntc" width="35" height="48" x="0" y="0" maskUnits="userSpaceOnUse">
        <path fill="#fff" d="M21.515 0H3.227C1.452 0 0 1.452 0 3.227v40.88c0 1.774 1.452 3.226 3.227 3.226h27.97c1.775 0 3.227-1.452 3.227-3.227V12.91L21.515 0z"/>
    </mask>
    <g mask="url(#5toh1omntc)">
        <path fill="url(#paint0_linear)" d="M22.46 11.965l11.965 11.962V12.91l-11.965-.944z"/>
    </g>
    <mask id="b779pzq5vd" width="35" height="48" x="0" y="0" maskUnits="userSpaceOnUse">
        <path fill="#fff" d="M21.515 0H3.227C1.452 0 0 1.452 0 3.227v40.88c0 1.774 1.452 3.226 3.227 3.226h27.97c1.775 0 3.227-1.452 3.227-3.227V12.91L21.515 0z"/>
    </mask>
    <g mask="url(#b779pzq5vd)">
        <path fill="#B39DDB" d="M21.515 0v9.682c0 1.783 1.444 3.227 3.227 3.227h9.682L21.515 0z"/>
    </g>
    <mask id="bmfr2zl7ue" width="35" height="48" x="0" y="0" maskUnits="userSpaceOnUse">
        <path fill="#fff" d="M21.515 0H3.227C1.452 0 0 1.452 0 3.227v40.88c0 1.774 1.452 3.226 3.227 3.226h27.97c1.775 0 3.227-1.452 3.227-3.227V12.91L21.515 0z"/>
    </mask>
    <g mask="url(#bmfr2zl7ue)">
        <path fill="#fff" fill-opacity=".2" d="M3.227 0C1.452 0 0 1.452 0 3.227v.27C0 1.72 1.452.268 3.227.268h18.288V0H3.227z"/>
    </g>
    <mask id="7jewd559ef" width="35" height="48" x="0" y="0" maskUnits="userSpaceOnUse">
        <path fill="#fff" d="M21.515 0H3.227C1.452 0 0 1.452 0 3.227v40.88c0 1.774 1.452 3.226 3.227 3.226h27.97c1.775 0 3.227-1.452 3.227-3.227V12.91L21.515 0z"/>
    </mask>
    <g mask="url(#7jewd559ef)">
        <path fill="#311B92" fill-opacity=".2" d="M31.197 47.064H3.227C1.452 47.064 0 45.612 0 43.837v.27c0 1.774 1.452 3.226 3.227 3.226h27.97c1.775 0 3.227-1.452 3.227-3.227v-.269c0 1.775-1.452 3.227-3.227 3.227z"/>
    </g>
    <mask id="sne6jw58og" width="35" height="48" x="0" y="0" maskUnits="userSpaceOnUse">
        <path fill="#fff" d="M21.515 0H3.227C1.452 0 0 1.452 0 3.227v40.88c0 1.774 1.452 3.226 3.227 3.226h27.97c1.775 0 3.227-1.452 3.227-3.227V12.91L21.515 0z"/>
    </mask>
    <g mask="url(#sne6jw58og)">
        <path fill="#311B92" fill-opacity=".1" d="M24.742 12.909c-1.783 0-3.227-1.444-3.227-3.227v.269c0 1.783 1.444 3.227 3.227 3.227h9.682v-.27h-9.682z"/>
    </g>
    <path fill="url(#paint1_radial)" d="M21.515 0H3.227C1.452 0 0 1.452 0 3.227v40.88c0 1.774 1.452 3.226 3.227 3.226h27.97c1.775 0 3.227-1.452 3.227-3.227V12.91L21.515 0z"/>
    <defs>
        <radialGradient id="paint1_radial" cx="0" cy="0" r="1" gradientTransform="translate(1.09058 0.940848) scale(55.5086)" gradientUnits="userSpaceOnUse">
            <stop stop-color="#fff" stop-opacity=".1"/>
            <stop offset="1" stop-color="#fff" stop-opacity="0"/>
        </radialGradient>
        <linearGradient id="paint0_linear" x1="28.443" x2="28.443" y1="12.992" y2="23.929" gradientUnits="userSpaceOnUse">
            <stop stop-color="#311B92" stop-opacity=".2"/>
            <stop offset="1" stop-color="#311B92" stop-opacity=".02"/>
        </linearGradient>
    </defs>
</svg>
