<svg width="53" height="48" viewBox="0 0 53 48" fill="none" xmlns="http://www.w3.org/2000/svg">
<g clip-path="url(#clip0)">
<path d="M46.0881 34.9092H27.0751C22.4714 34.9092 19.9062 38.0853 19.9062 41.4546C19.9062 44.5715 22.0881 48.0001 27.0751 48.0001H46.0881V34.9092Z" fill="#669DF6"/>
<path d="M46.0884 48.0001C49.7034 48.0001 52.6339 45.0696 52.6339 41.4546C52.6339 37.8397 49.7034 34.9092 46.0884 34.9092C42.4735 34.9092 39.543 37.8397 39.543 41.4546C39.543 45.0696 42.4735 48.0001 46.0884 48.0001Z" fill="#1A73E8"/>
<path d="M26.4513 17.4546H7.43836C2.83473 17.4546 0.269531 20.6307 0.269531 24C0.269531 27.1169 2.45135 30.5455 7.43836 30.5455H26.4513V17.4546Z" fill="#669DF6"/>
<path d="M26.4517 30.5455C30.0667 30.5455 32.9972 27.615 32.9972 24C32.9972 20.3851 30.0667 17.4546 26.4517 17.4546C22.8367 17.4546 19.9062 20.3851 19.9062 24C19.9062 27.615 22.8367 30.5455 26.4517 30.5455Z" fill="#1A73E8"/>
<path d="M46.0881 0H27.0751C22.4714 0 19.9062 3.1761 19.9062 6.54545C19.9062 9.66234 22.0881 13.0909 27.0751 13.0909H46.0881V0Z" fill="#669DF6"/>
<path d="M46.0884 13.0909C49.7034 13.0909 52.6339 10.1604 52.6339 6.54545C52.6339 2.9305 49.7034 0 46.0884 0C42.4735 0 39.543 2.9305 39.543 6.54545C39.543 10.1604 42.4735 13.0909 46.0884 13.0909Z" fill="#1A73E8"/>
</g>
<defs>
<clipPath id="clip0">
<rect width="52.3636" height="48" fill="white" transform="translate(0.269531)"/>
</clipPath>
</defs>
</svg>
