<svg xmlns="http://www.w3.org/2000/svg" width="49" height="48" fill="none" viewBox="0 0 49 48"><path fill="#8AB4F8" d="M28.535 46.034l-8.332-8.125 17.894-18.272 8.626 8.454-18.188 17.943z"/><path fill="#4285F4" d="M28.57 10.113l-8.3-8.476-18.154 17.98c-2.34 2.34-2.34 6.134 0 8.477l17.88 17.997 8.455-7.909-13.623-14.326 13.743-13.743z"/><path fill="#8AB4F8" d="M46.605 19.757l-18-18c-2.343-2.343-6.142-2.343-8.485 0-2.342 2.342-2.342 6.142 0 8.484l18 18c2.343 2.343 6.142 2.343 8.485 0 2.343-2.343 2.343-6.142 0-8.484z"/><path fill="#246FDB" d="M24.225 48c3.238 0 5.864-2.625 5.864-5.863 0-3.239-2.626-5.864-5.864-5.864s-5.864 2.625-5.864 5.864c0 3.238 2.626 5.863 5.864 5.863z"/></svg>