<svg width="225" height="24" viewBox="0 0 225 24" fill="none" xmlns="http://www.w3.org/2000/svg">
<path d="M84.731 18.6074C83.5425 18.6074 82.3895 18.2172 81.272 17.4545C80.1367 16.674 79.4095 15.5919 79.0547 14.2083L80.9704 13.4278C81.201 14.3148 81.6622 15.0775 82.3718 15.6806C83.0813 16.3015 83.8618 16.603 84.7487 16.603C85.6534 16.603 86.4338 16.3724 87.0724 15.8935C87.711 15.4145 88.0303 14.776 88.0303 13.96C88.0303 13.0553 87.711 12.3458 87.0724 11.8669C86.4338 11.3702 85.405 10.909 84.0214 10.501C82.5846 10.0398 81.4848 9.45445 80.7576 8.74492C80.0126 8.01764 79.6401 7.11299 79.6401 5.97773C79.6401 4.807 80.1013 3.79592 81.0236 2.92674C81.946 2.05756 83.1522 1.63184 84.6423 1.63184C86.0259 1.63184 87.1434 1.96886 87.9948 2.66066C88.864 3.35246 89.4139 4.09747 89.68 4.91343L87.7642 5.71166C87.6223 5.19725 87.2853 4.71831 86.7531 4.27485C86.221 3.83139 85.5292 3.61853 84.6777 3.61853C83.8795 3.61853 83.1877 3.84913 82.6201 4.29259C82.0525 4.73605 81.7687 5.30368 81.7687 5.96C81.7687 6.5631 82.0347 7.07751 82.5491 7.48549C83.0636 7.89348 83.844 8.28372 84.8551 8.60301C85.6534 8.86909 86.3274 9.11742 86.8596 9.34802C87.3917 9.59636 87.9416 9.91565 88.4915 10.3059C89.0414 10.7139 89.4671 11.2106 89.7332 11.7959C90.017 12.399 90.1589 13.0908 90.1589 13.8713C90.1589 14.6518 89.9993 15.3613 89.6622 15.9822C89.3429 16.603 88.8995 17.0997 88.3673 17.4545C87.8352 17.8092 87.2498 18.093 86.629 18.2882C86.0081 18.5188 85.3695 18.6074 84.731 18.6074Z" fill="white"/>
<path d="M96.9888 18.6077C95.3036 18.6077 93.9378 18.0401 92.8912 16.9225C91.8447 15.805 91.3125 14.386 91.3125 12.6831C91.3125 11.0689 91.8269 9.66755 92.838 8.49682C93.8668 7.32609 95.1617 6.74072 96.7582 6.74072C98.4078 6.74072 99.7205 7.27287 100.714 8.35491C101.707 9.43695 102.204 10.8738 102.204 12.6653L102.186 13.0556H93.4056C93.4588 14.1731 93.8491 15.06 94.5231 15.7163C95.2149 16.3727 96.0132 16.6919 96.9356 16.6919C98.4256 16.6919 99.4544 16.0534 99.9866 14.7762L101.849 15.5567C101.494 16.4259 100.891 17.1354 100.058 17.7208C99.2238 18.3239 98.2127 18.6077 96.9888 18.6077ZM99.9866 11.3527C99.9333 10.7141 99.6495 10.111 99.1174 9.54338C98.5852 8.97576 97.787 8.6742 96.7227 8.6742C95.9422 8.6742 95.2859 8.92254 94.7183 9.40148C94.1506 9.88041 93.7604 10.5367 93.5475 11.3527H99.9866Z" fill="white"/>
<path d="M107.153 18.6077C105.964 18.6077 104.989 18.2707 104.19 17.5789C103.392 16.9048 103.002 16.0001 103.002 14.8826C103.002 13.6764 103.463 12.7185 104.403 12.0268C105.343 11.335 106.496 10.9979 107.88 10.9979C109.104 10.9979 110.115 11.2285 110.896 11.672V11.3527C110.896 10.5367 110.612 9.88041 110.062 9.38374C109.494 8.88706 108.82 8.63873 108.004 8.63873C107.401 8.63873 106.851 8.78063 106.355 9.06445C105.858 9.34826 105.521 9.73851 105.343 10.2529L103.428 9.43695C103.676 8.7629 104.19 8.15979 104.953 7.59216C105.716 7.02454 106.709 6.74072 107.951 6.74072C109.37 6.74072 110.558 7.14871 111.499 7.98241C112.439 8.81611 112.9 9.98684 112.9 11.4946V18.2529H110.896V16.7097H110.807C109.973 17.9868 108.749 18.6077 107.153 18.6077ZM107.49 16.7097C108.359 16.7097 109.139 16.3904 109.831 15.7518C110.541 15.1132 110.896 14.3505 110.896 13.4636C110.31 12.9846 109.423 12.7363 108.235 12.7363C107.224 12.7363 106.461 12.9491 105.947 13.3926C105.432 13.8361 105.166 14.3505 105.166 14.9358C105.166 15.4857 105.397 15.9115 105.876 16.2307C106.355 16.55 106.887 16.7097 107.49 16.7097Z" fill="white"/>
<path d="M116.98 18.2528H114.887V7.13082H116.891V8.94013H116.98C117.193 8.33703 117.618 7.84036 118.292 7.45011C118.949 7.05987 119.587 6.86475 120.208 6.86475C120.829 6.86475 121.343 6.95344 121.769 7.13082L120.971 9.08204C120.705 8.97561 120.332 8.9224 119.853 8.9224C119.091 8.9224 118.434 9.22395 117.849 9.82705C117.264 10.4302 116.98 11.2106 116.98 12.1685V18.2528Z" fill="white"/>
<path d="M127.286 18.6075C125.619 18.6075 124.253 18.0399 123.171 16.9224C122.089 15.7871 121.557 14.3858 121.557 12.6829C121.557 10.98 122.089 9.5787 123.171 8.44345C124.253 7.30819 125.619 6.7583 127.286 6.7583C128.528 6.7583 129.557 7.05985 130.373 7.66296C131.189 8.26606 131.792 9.02881 132.164 9.95121L130.248 10.7494C129.681 9.3481 128.634 8.65631 127.144 8.65631C126.222 8.65631 125.406 9.02881 124.696 9.79156C123.987 10.5543 123.632 11.5122 123.632 12.6829C123.632 13.8536 123.987 14.8115 124.696 15.5743C125.406 16.337 126.222 16.7095 127.144 16.7095C128.705 16.7095 129.769 16.0177 130.373 14.6164L132.235 15.4146C131.863 16.3193 131.242 17.082 130.408 17.7029C129.557 18.306 128.528 18.6075 127.286 18.6075Z" fill="white"/>
<path d="M135.587 2.00439V7.13078L135.499 8.67402H135.587C135.889 8.14187 136.368 7.69841 137.024 7.3259C137.68 6.9534 138.372 6.77601 139.117 6.77601C140.501 6.77601 141.547 7.20173 142.275 8.05317C143.002 8.90462 143.357 10.0399 143.357 11.4589V18.2527H141.264V11.7605C141.264 9.70284 140.341 8.67402 138.514 8.67402C137.645 8.67402 136.953 9.01105 136.403 9.70284C135.853 10.3946 135.587 11.1929 135.587 12.0975V18.2527H133.494V2.00439H135.587Z" fill="white"/>
<path d="M155.879 18.6076C153.484 18.6076 151.48 17.7916 149.866 16.1775C148.252 14.5633 147.436 12.5411 147.436 10.1109C147.436 7.68078 148.252 5.67634 149.866 4.04441C151.48 2.43022 153.484 1.61426 155.879 1.61426C158.327 1.61426 160.314 2.50118 161.857 4.27501L160.402 5.67634C159.302 4.29275 157.795 3.61869 155.879 3.61869C154.105 3.61869 152.615 4.2218 151.391 5.41027C150.167 6.59874 149.564 8.17745 149.564 10.1109C149.564 12.0444 150.167 13.6231 151.391 14.8116C152.615 16.0001 154.105 16.6032 155.879 16.6032C157.83 16.6032 159.498 15.8227 160.881 14.244L162.336 15.6985C161.591 16.5854 160.668 17.295 159.551 17.8271C158.416 18.3593 157.192 18.6076 155.879 18.6076Z" fill="white"/>
<path d="M164.749 8.46102C165.831 7.32577 167.197 6.77588 168.864 6.77588C170.532 6.77588 171.898 7.34351 172.98 8.46102C174.062 9.59628 174.594 10.9976 174.594 12.7005C174.594 14.4034 174.062 15.8047 172.98 16.94C171.898 18.0752 170.532 18.6251 168.864 18.6251C167.197 18.6251 165.831 18.0575 164.749 16.94C163.667 15.8047 163.135 14.4034 163.135 12.7005C163.135 10.9976 163.667 9.57854 164.749 8.46102ZM166.292 15.6096C167.019 16.3369 167.871 16.7094 168.847 16.7094C169.822 16.7094 170.674 16.3369 171.401 15.6096C172.128 14.8823 172.483 13.9067 172.483 12.7005C172.483 11.4943 172.128 10.5187 171.401 9.7914C170.674 9.06413 169.822 8.69162 168.847 8.69162C167.871 8.69162 167.019 9.06413 166.292 9.7914C165.565 10.5187 165.21 11.4943 165.21 12.7005C165.228 13.9067 165.583 14.8646 166.292 15.6096Z" fill="white"/>
<path d="M178.051 7.13065V8.67388H178.14C178.442 8.14173 178.92 7.69827 179.577 7.32577C180.233 6.95326 180.925 6.77588 181.67 6.77588C183.054 6.77588 184.1 7.2016 184.827 8.05304C185.555 8.90448 185.909 10.0397 185.909 11.4588V18.2526H183.816V11.7604C183.816 9.70271 182.894 8.67388 181.067 8.67388C180.198 8.67388 179.506 9.01091 178.956 9.70271C178.406 10.3945 178.14 11.1927 178.14 12.0974V18.2526H176.047V7.13065H178.051Z" fill="white"/>
<path d="M191.995 18.6075C190.753 18.6075 189.724 18.306 188.926 17.7029C188.11 17.0998 187.525 16.337 187.152 15.4324L189.015 14.6519C189.6 16.0532 190.611 16.745 192.03 16.745C192.687 16.745 193.219 16.6031 193.627 16.3193C194.035 16.0355 194.248 15.6452 194.248 15.184C194.248 14.4567 193.733 13.9601 192.722 13.7117L190.469 13.1618C189.76 12.9845 189.086 12.6297 188.447 12.133C187.809 11.6186 187.489 10.9446 187.489 10.0754C187.489 9.09976 187.933 8.30154 188.802 7.6807C189.671 7.05985 190.7 6.7583 191.906 6.7583C192.882 6.7583 193.769 6.9889 194.531 7.43236C195.312 7.87582 195.862 8.5144 196.181 9.3481L194.372 10.0931C193.964 9.1175 193.112 8.62083 191.835 8.62083C191.214 8.62083 190.7 8.745 190.274 9.01107C189.849 9.27715 189.636 9.61418 189.636 10.0576C189.636 10.6962 190.132 11.1219 191.108 11.3525L193.308 11.8669C194.354 12.1153 195.117 12.5233 195.631 13.1086C196.128 13.694 196.376 14.3681 196.376 15.1131C196.376 16.1064 195.968 16.9401 195.152 17.6142C194.336 18.2882 193.272 18.6075 191.995 18.6075Z" fill="white"/>
<path d="M198.77 8.46102C199.852 7.32577 201.218 6.77588 202.886 6.77588C204.553 6.77588 205.919 7.34351 207.001 8.46102C208.083 9.59628 208.615 10.9976 208.615 12.7005C208.615 14.4034 208.083 15.8047 207.001 16.94C205.919 18.0752 204.553 18.6251 202.886 18.6251C201.218 18.6251 199.852 18.0575 198.77 16.94C197.688 15.8047 197.156 14.4034 197.156 12.7005C197.156 10.9976 197.688 9.57854 198.77 8.46102ZM200.331 15.6096C201.059 16.3369 201.91 16.7094 202.886 16.7094C203.861 16.7094 204.713 16.3369 205.44 15.6096C206.167 14.8823 206.522 13.9067 206.522 12.7005C206.522 11.4943 206.167 10.5187 205.44 9.7914C204.713 9.06413 203.861 8.69162 202.886 8.69162C201.91 8.69162 201.059 9.06413 200.331 9.7914C199.604 10.5187 199.249 11.4943 199.249 12.7005C199.249 13.9067 199.604 14.8646 200.331 15.6096Z" fill="white"/>
<path d="M212.199 18.2527H210.105V2.00439H212.199V18.2527Z" fill="white"/>
<path d="M219.383 18.6077C217.698 18.6077 216.332 18.0401 215.286 16.9225C214.239 15.805 213.707 14.386 213.707 12.6831C213.707 11.0689 214.221 9.66755 215.233 8.49682C216.261 7.32609 217.556 6.74072 219.153 6.74072C220.802 6.74072 222.115 7.27287 223.108 8.35491C224.102 9.43695 224.598 10.8738 224.598 12.6653L224.581 13.0556H215.8C215.853 14.1731 216.244 15.06 216.918 15.7163C217.609 16.3727 218.408 16.6919 219.33 16.6919C220.82 16.6919 221.849 16.0534 222.381 14.7762L224.244 15.5567C223.889 16.4259 223.286 17.1354 222.452 17.7208C221.618 18.3239 220.59 18.6077 219.383 18.6077ZM222.381 11.3527C222.328 10.7141 222.044 10.111 221.512 9.54338C220.98 8.97576 220.182 8.6742 219.117 8.6742C218.337 8.6742 217.68 8.92254 217.113 9.40148C216.545 9.88041 216.155 10.5367 215.942 11.3527H222.381Z" fill="white"/>
<path d="M0.189453 9.31264C0.189453 4.18625 4.49987 0 9.644 0C12.4821 0 14.5043 1.11752 16.0298 2.57206L14.2382 4.36364C13.1562 3.33481 11.6662 2.55432 9.644 2.55432C5.9012 2.55432 2.97438 5.56985 2.97438 9.31264C2.97438 13.0554 5.9012 16.071 9.644 16.071C12.0742 16.071 13.4577 15.0953 14.3447 14.2084C15.0719 13.4812 15.5509 12.4346 15.7283 11.0155H9.644V8.47894H18.2116C18.3003 8.94013 18.3535 9.47228 18.3535 10.0754C18.3535 11.9911 17.8391 14.3503 16.154 16.0177C14.522 17.7206 12.4289 18.6253 9.66174 18.6253C4.49987 18.6075 0.189453 14.439 0.189453 9.31264Z" fill="#4885ED"/>
<path d="M25.2535 6.63428C21.9365 6.63428 19.2402 9.15312 19.2402 12.6298C19.2402 16.0888 21.9365 18.6254 25.2535 18.6254C28.5706 18.6254 31.2668 16.0888 31.2668 12.6298C31.2668 9.15312 28.5706 6.63428 25.2535 6.63428ZM25.2535 16.2485C23.4442 16.2485 21.8655 14.7584 21.8655 12.6121C21.8655 10.448 23.4265 8.97574 25.2535 8.97574C27.0628 8.97574 28.6416 10.448 28.6416 12.6121C28.6416 14.7584 27.0628 16.2485 25.2535 16.2485Z" fill="#DB3236"/>
<path d="M38.3805 6.63428C35.0634 6.63428 32.3672 9.15312 32.3672 12.6298C32.3672 16.0888 35.0634 18.6254 38.3805 18.6254C41.6976 18.6254 44.3938 16.0888 44.3938 12.6298C44.3938 9.15312 41.6976 6.63428 38.3805 6.63428ZM38.3805 16.2485C36.5712 16.2485 34.9925 14.7584 34.9925 12.6121C34.9925 10.448 36.5534 8.97574 38.3805 8.97574C40.2075 8.97574 41.7685 10.448 41.7685 12.6121C41.7685 14.7584 40.1898 16.2485 38.3805 16.2485Z" fill="#F4C20D"/>
<path d="M54.4875 6.98872V7.96433H54.3988C53.8134 7.25479 52.6782 6.61621 51.2414 6.61621C48.2436 6.61621 45.4941 9.24149 45.4941 12.6295C45.4941 15.9821 48.2436 18.6073 51.2414 18.6073C52.6782 18.6073 53.8134 17.9688 54.3988 17.2415H54.4875V18.1107C54.4875 20.3989 53.2635 21.6229 51.2946 21.6229C49.6804 21.6229 48.687 20.4699 48.2791 19.4943L45.9908 20.4521C46.6471 22.0486 48.4032 23.9998 51.3123 23.9998C54.3988 23.9998 57.0063 22.1905 57.0063 17.7559V6.98872H54.4875ZM51.472 16.2481C49.6627 16.2481 48.1372 14.7226 48.1372 12.6295C48.1372 10.5187 49.6627 8.97541 51.472 8.97541C53.2635 8.97541 54.6649 10.5187 54.6649 12.6295C54.6826 14.7404 53.2635 16.2481 51.472 16.2481Z" fill="#4885ED"/>
<path d="M61.4397 0.638672H58.8145V18.2529H61.4397V0.638672Z" fill="#3CBA54"/>
<path d="M68.6591 16.2485C67.311 16.2485 66.3709 15.6276 65.7501 14.4392L73.7678 11.1221L73.5017 10.448C73.005 9.09991 71.4795 6.63428 68.3753 6.63428C65.2889 6.63428 62.7168 9.06443 62.7168 12.6298C62.7168 15.9824 65.2534 18.6254 68.6591 18.6254C71.4086 18.6254 72.9873 16.9403 73.6614 15.9647L71.6215 14.5988C70.9297 15.5921 70.0073 16.2485 68.6591 16.2485ZM68.464 8.94026C69.5106 8.94026 70.3975 9.45468 70.6813 10.2174L65.3243 12.4347C65.2534 10.1287 67.1159 8.94026 68.464 8.94026Z" fill="#DB3236"/>
</svg>
