<svg xmlns="http://www.w3.org/2000/svg" width="44" height="48" fill="none" viewBox="0 0 44 48">
    <path fill="url(#paint0_radial)" d="M38.88 0c2.386 0 4.32 1.934 4.32 4.32v39.36c0 2.386-1.934 4.32-4.32 4.32H4.32C1.934 48 0 46.066 0 43.68V4.32C0 1.934 1.934 0 4.32 0h34.56zM10.8 31.2v9.6l5.4-4.8-5.4-4.8zm4.8-24h-4.8v20.815l3.39-1.536.04-.017C14.734 26.24 19.938 24 24.6 24c2.437 0 2.977 1.346 3 2.466V40.8h4.8V26.35c-.003-.478-.111-3.004-2.09-5.005-.967-.979-2.743-2.145-5.71-2.145-3.254 0-6.604.847-9 1.627V7.2zm12 0l-.067.326C26.975 10.129 25.811 12.624 24 15h4.8l.213-.246c2.03-2.388 3.074-4.918 3.387-7.554h-4.8z"/>
    <path fill="url(#paint1_linear)" d="M38.88 0c2.386 0 4.32 1.934 4.32 4.32v39.36c0 2.386-1.934 4.32-4.32 4.32H4.32C1.934 48 0 46.066 0 43.68V4.32C0 1.934 1.934 0 4.32 0h34.56zM10.8 31.2v9.6l5.4-4.8-5.4-4.8zm4.8-24h-4.8v20.815l3.39-1.536.04-.017C14.734 26.24 19.938 24 24.6 24c2.437 0 2.977 1.346 3 2.466V40.8h4.8V26.35c-.003-.478-.111-3.004-2.09-5.005-.967-.979-2.743-2.145-5.71-2.145-3.254 0-6.604.847-9 1.627V7.2zm12 0l-.067.326C26.975 10.129 25.811 12.624 24 15h4.8l.213-.246c2.03-2.388 3.074-4.918 3.387-7.554h-4.8z"/>
    <defs>
        <radialGradient id="paint0_radial" cx="0" cy="0" r="1" gradientTransform="translate(21.6 21.63) scale(32.1015)" gradientUnits="userSpaceOnUse">
            <stop stop-color="#844DB8"/>
            <stop offset="1" stop-color="#5B16A3"/>
        </radialGradient>
        <linearGradient id="paint1_linear" x1="4.347" x2="45.759" y1="45.3" y2="3.888" gradientUnits="userSpaceOnUse">
            <stop stop-color="#7673C0" stop-opacity=".5"/>
            <stop offset="1" stop-color="#7673C0" stop-opacity="0"/>
        </linearGradient>
    </defs>
</svg>
