<svg width="54" height="48" viewBox="0 0 54 48" fill="none" xmlns="http://www.w3.org/2000/svg">
<path fill-rule="evenodd" clip-rule="evenodd" d="M31.9043 37.5601V47.8413H34.4284V43.1161L34.9491 43.1259V47.8413H37.5018V37.5601H34.9491V41.3747H34.4284V37.5601L31.9043 37.5601Z" fill="black"/>
<path fill-rule="evenodd" clip-rule="evenodd" d="M31.7676 37.4233L34.5651 37.4234V41.238H34.8124V37.4234H37.6385V47.978H34.8124V43.26L34.5651 43.2554V47.978H31.7676V37.4233ZM32.041 37.6968V47.7046H34.2917V42.9768L35.0858 42.9917V47.7046H37.365V37.6968H35.0858V41.5114H34.2917V37.6968L32.041 37.6968Z" fill="#FDEE21"/>
<path fill-rule="evenodd" clip-rule="evenodd" d="M40.6441 37.5601H38.1855V47.8413H40.6441V37.5601Z" fill="black"/>
<path fill-rule="evenodd" clip-rule="evenodd" d="M38.0488 37.4233H40.7808V47.978H38.0488V37.4233ZM38.3222 37.6968V47.7046H40.5074V37.6968H38.3222Z" fill="#FDEE21"/>
<path fill-rule="evenodd" clip-rule="evenodd" d="M41.0859 37.5822L43.028 47.8634H45.9594L47.9015 37.5822H45.2918L44.6485 41.9813C44.5949 42.1498 44.4138 42.1498 44.3814 41.9813L43.7385 37.582L41.0859 37.5822Z" fill="black"/>
<path fill-rule="evenodd" clip-rule="evenodd" d="M43.8556 37.4453L44.5138 41.9491C44.5139 41.9489 44.514 41.9487 44.514 41.9485L45.1725 37.4455H48.0653L46.0716 48.0001H42.9137L40.9199 37.4455L43.8556 37.4453ZM41.2498 37.7189L43.1403 47.7267H45.845L47.7354 37.7189H45.4089L44.7811 42.0122L44.7777 42.0228C44.7377 42.1484 44.6362 42.2444 44.5059 42.2444C44.3696 42.2444 44.2716 42.1401 44.2461 42.0071L44.2455 42.0041L43.6192 37.7187L41.2498 37.7189Z" fill="#FDEE21"/>
<path fill-rule="evenodd" clip-rule="evenodd" d="M53.2648 37.5601H48.3848V47.8413H53.2648V45.1454L50.5514 45.1222L50.5514 43.9665H51.8441V41.29H50.5514L50.5514 40.2559H53.2648V37.5601Z" fill="black"/>
<path fill-rule="evenodd" clip-rule="evenodd" d="M48.248 37.4233H53.4015V40.3926H50.6881L50.6881 41.1533H51.9808V44.1032H50.6881L50.6881 44.9867L53.4015 45.0098V47.978H48.248V37.4233ZM48.5215 37.6968V47.7046H53.1281V45.2809L50.4146 45.2578L50.4147 43.8298H51.7074V41.4267H50.4147L50.4146 40.1192H53.1281V37.6968H48.5215Z" fill="#FDEE21"/>
<path fill-rule="evenodd" clip-rule="evenodd" d="M26.9103 6.38098C26.4992 5.2553 12.3604 -0.241441 12.1796 0.362051C9.58333 1.03885 8.52668 4.03131 6.74073 5.92676L2.77469 5.6996C1.0276 7.94628 0.110844 10.2417 0.735075 12.6275C2.97429 15.6613 5.57368 18.2429 7.19383 22.0536C7.32189 23.8498 14.9678 22.242 16.6066 21.8864C14.3679 23.4889 12.4184 25.9728 13.2562 33.1267C14.021 36.4861 14.5441 40.2369 21.3276 44.0365C22.2206 44.5366 24.0682 45.1138 25.2107 45.5345C26.3034 46.0356 27.5811 46.2416 31.1854 45.1393C33.2712 44.2403 35.5232 43.6987 37.5642 42.8019L35.111 42.917C31.7326 42.9905 29.1245 43.2425 28.3201 42.2986L25.2109 36.9311L27.0235 33.4104C29.5322 33.6677 30.3648 35.7021 32.576 36.4768L35.1821 34.5461C42.7519 39.0145 45.7635 31.7142 46.6266 26.0284C46.5345 23.7151 41.6178 26.7541 41.9159 25.6724C42.0313 23.1857 40.0044 19.9323 38.6947 17.3973L40.2104 11.5324C40.8981 10.9199 37.0266 4.39606 33.8652 3.58252C31.0914 2.86862 26.9101 6.38098 26.9101 6.38098L26.9103 6.38098Z" fill="#FDEE21"/>
<path fill-rule="evenodd" clip-rule="evenodd" d="M39.3468 18.8453C39.3739 19.4752 39.3709 20.2413 39.4318 20.7192C39.4213 21.0837 39.148 21.0971 38.9219 21.1735L40.3949 21.7129C40.6874 22.2051 40.9224 22.6972 41.1598 23.1893C41.4352 24.4 41.2297 24.4346 41.0465 24.5238C40.5119 24.5292 39.9789 24.5302 39.4814 24.4244C39.7043 24.5421 39.7533 24.6278 39.7769 24.7785C39.8204 25.0564 39.6414 25.4358 39.3468 25.8015C39.7825 26.0432 40.5768 26.2797 41.1669 26.5042L41.8397 25.0065C41.535 22.8062 40.6111 20.7784 39.3468 18.8452L39.3468 18.8453Z" fill="#C8C037"/>
<path fill-rule="evenodd" clip-rule="evenodd" d="M42.0957 26.2251C42.9127 26.5657 44.0413 26.4658 45.6062 25.6593C45.8389 25.4938 46.0557 25.5928 45.6392 25.865C43.5868 27.7068 42.6043 26.7854 42.0957 26.2251L42.0957 26.2251Z" fill="#C8C037"/>
<path fill-rule="evenodd" clip-rule="evenodd" d="M45.7629 25.4185C46.0056 25.8832 45.8586 26.2611 45.7771 26.6535C45.5237 28.65 44.9015 30.2284 43.6808 31.8778C39.7102 38.2614 35.7016 34.2671 32.5055 31.6675L31.1835 34.9801C31.1133 35.2705 30.8215 35.4966 32.8861 36.4056L34.9894 34.9199C43.0107 41.0231 48.6948 26.3772 45.7627 25.4186L45.7629 25.4185Z" fill="#C8C037"/>
<path fill-rule="evenodd" clip-rule="evenodd" d="M33.4734 31.1226C32.9323 31.1613 31.3217 31.7089 31.25 32.0261L31.9911 30.9219L33.4734 31.1226Z" fill="#C8C037"/>
<path fill-rule="evenodd" clip-rule="evenodd" d="M32.4219 24.3537C32.521 24.3537 32.997 24.4815 32.9459 24.453C32.8729 24.4124 32.9378 25.1205 33.0876 25.4894L32.5069 26.7529C33.6192 25.47 35.3781 25.5554 37.011 25.39L36.232 24.9073C36.3673 24.456 36.208 24.0989 36.1328 23.7148L32.4219 24.3537Z" fill="#C8C037"/>
<path fill-rule="evenodd" clip-rule="evenodd" d="M35.1537 20.549C33.9602 20.9149 32.8178 21.5126 32.0508 22.7869C32.6359 20.6866 32.7552 20.7664 32.9441 20.6626C33.7625 20.2966 34.4327 20.5247 35.1537 20.549V20.549Z" fill="#C8C037"/>
<path fill-rule="evenodd" clip-rule="evenodd" d="M28.7803 45.1654C27.3371 46.7578 24.1171 45.0449 21.4429 44.1716C14.6478 39.8507 13.3203 35.783 13.2281 31.7926C12.8787 26.0764 14.6339 22.7551 16.854 21.9688C15.3847 24.8012 14.6997 29.8856 15.381 33.6665C15.9309 35.7699 15.9423 39.3176 19.4618 41.2165C21.1852 42.1868 20.7184 42.9421 21.8838 43.8508C23.1609 44.8467 26.7217 45.7934 28.7802 45.1654L28.7803 45.1654Z" fill="#FCF6A0"/>
<path fill-rule="evenodd" clip-rule="evenodd" d="M30.937 18.7491C28.4936 15.2843 25.0572 13.9837 21.1819 13.8416C21.9586 13.5884 22.7353 13.4566 23.5119 13.0821C23.7021 12.8823 23.6399 12.5306 23.5686 12.1736C19.8383 11.1995 17.484 9.99576 14.5039 8.87988L22.5492 10.8106C27.9823 11.017 27.5157 12.3583 30.9373 18.7493L30.937 18.7491Z" fill="#FCF6A0"/>
<path fill-rule="evenodd" clip-rule="evenodd" d="M33.5529 17.0779C31.7473 14.5002 29.996 11.3719 27.6188 9.38229C21.8803 6.79218 16.2036 4.86857 9.55078 3.11813L11.674 0.387695C18.7336 1.99916 25.3646 4.69574 31.3041 9.141C32.3089 11.6819 32.9791 14.2261 33.5524 17.0776L33.5529 17.0779Z" fill="#FCF6A0"/>
<path fill-rule="evenodd" clip-rule="evenodd" d="M37.1932 12.5229C37.1932 12.5229 36.1809 10.2519 35.6881 9.38466C34.5447 8.11764 33.9666 5.75656 31.625 4.64404C32.3656 4.84404 32.8725 4.60575 34.3844 5.97642L36.7658 10.4938L37.1932 12.5229Z" fill="#FCF6A0"/>
<path fill-rule="evenodd" clip-rule="evenodd" d="M38.4531 16.4577C38.6866 14.49 39.1299 11.3338 38.6211 10.0869C37.2057 8.18769 35.7801 6.22463 34.354 4.40221C34.1178 4.18241 33.9478 3.8841 33.7617 3.65137C35.7668 4.17084 37.8593 5.56495 40.6811 11.0687L38.4531 16.4577Z" fill="#FCF6A0"/>
<path fill-rule="evenodd" clip-rule="evenodd" d="M30.0215 16.6902C29.2229 16.0616 28.5112 13.8385 27.301 13.3763C26.1809 13.2826 25.7702 12.9302 24.2972 13.2303C24.8315 12.9626 25.3358 12.6201 25.9037 12.4368C26.2884 12.346 26.6492 12.4466 27.0162 12.4972C27.1068 12.4543 27.1662 12.4011 27.144 12.3205C25.6613 11.4043 22.6197 11.3912 20.5664 10.8682C22.9494 10.9479 25.5861 10.8158 27.377 11.3902C28.8171 12.6682 29.285 15.075 30.0216 16.6902L30.0215 16.6902Z" fill="black"/>
<path fill-rule="evenodd" clip-rule="evenodd" d="M34.3887 5.96924C34.7193 5.99927 36.4984 8.8136 36.582 9.28189C36.73 10.3056 37.0949 11.4532 37.193 12.5243C36.8999 11.497 36.5806 10.4698 36.1814 9.44252C36.0647 9.15963 35.7697 8.52011 34.9496 7.61557C34.5677 6.97801 34.4853 6.47688 34.3887 5.96929L34.3887 5.96924Z" fill="black"/>
<path fill-rule="evenodd" clip-rule="evenodd" d="M40.4174 21.2979H39.6562L40.4976 21.5187L40.4174 21.2979Z" fill="black"/>
<path fill-rule="evenodd" clip-rule="evenodd" d="M35.2256 20.5377C34.4601 20.4436 33.6747 20.4311 32.9093 20.5993C32.5973 21.0184 32.5758 21.4446 32.4395 21.8386C33.37 20.813 33.7392 20.7503 35.2256 20.5377V20.5377Z" fill="black"/>
<path fill-rule="evenodd" clip-rule="evenodd" d="M45.6641 25.8306C45.2381 26.1705 45.1955 26.4905 43.9361 26.874C43.0176 27.0912 42.4987 26.723 42.0664 26.2281C42.7218 26.4158 42.8266 26.911 44.5841 26.3558L45.6641 25.8306Z" fill="black"/>
<path fill-rule="evenodd" clip-rule="evenodd" d="M41.8463 26.043C41.5397 26.8859 41.2092 27.7378 40.876 28.5273C40.0826 29.4578 40.4207 28.9276 39.233 30.3728C39.613 29.7865 40.1073 29.2231 40.3661 28.6124C40.5478 28.2104 40.7741 27.7838 40.8743 27.4266C40.5593 27.2693 39.9147 27.2569 39.8273 27.3133C38.7713 27.9361 38.5807 28.5953 37.9582 29.2371C38.4094 28.5158 38.7948 27.7285 39.3179 27.0793C39.3776 26.995 39.7648 26.9787 40.003 26.929C39.6329 26.8655 38.9481 26.7325 38.893 26.7386C38.2041 26.9041 37.8181 27.5042 37.3066 27.9027C37.6795 27.3643 38.0229 26.8038 38.4964 26.3411C38.5432 26.2866 39.823 26.3988 40.4862 26.6634L40.4994 26.9273L40.8759 27.0793L41.1592 26.3695L41.8463 26.043Z" fill="black"/>
<path fill-rule="evenodd" clip-rule="evenodd" d="M33.4899 31.1253C33.32 31.0672 31.8186 30.8741 31.8186 30.9194C31.2421 31.3297 31.1547 31.7223 31.1671 32.0622C32.1261 31.1188 32.0904 31.1161 33.49 31.1253L33.4899 31.1253Z" fill="black"/>
<path fill-rule="evenodd" clip-rule="evenodd" d="M32.3497 24.3397C32.3497 24.3397 33.4331 24.1818 33.412 24.283C33.3335 24.6588 33.5446 25.5749 33.5678 25.4471L32.9587 25.9439C34.2343 25.3027 35.577 25.4315 36.9388 25.3335C36.9388 25.3335 35.7922 25.017 35.8623 25.007C36.1181 24.9707 35.7942 23.8112 35.7065 23.7861C35.9246 23.7123 36.1377 23.6566 36.358 23.6016C34.7184 23.1725 33.7702 23.4253 32.3496 24.3398L32.3497 24.3397Z" fill="black"/>
<path fill-rule="evenodd" clip-rule="evenodd" d="M41.7267 25.1487L41.4859 25.2693C41.4518 24.564 40.6942 24.6157 40.0554 24.6092L39.5313 24.4814C39.6906 24.6289 40.1832 24.6174 39.9845 24.9357C39.8173 25.0251 39.7404 25.4086 39.6446 25.7307L39.3613 25.7449C39.8618 25.9405 40.326 26.1119 40.8769 26.3412L41.2027 26.3908L41.9816 25.972L41.7267 25.1487Z" fill="black"/>
<path fill-rule="evenodd" clip-rule="evenodd" d="M34.5456 24.673C34.4237 24.4318 33.8102 24.4661 33.6779 24.6221C33.5705 24.749 33.6713 25.5627 33.8091 25.4254C34.0083 25.2503 34.2685 25.1771 34.581 25.1912C34.6204 25.0409 34.6065 24.8785 34.5456 24.673L34.5456 24.673Z" fill="white"/>
<path fill-rule="evenodd" clip-rule="evenodd" d="M40.4282 25.885C40.4859 25.8428 40.6078 25.4349 40.5684 25.3128C40.4879 25.0248 39.9174 25.0854 39.9174 25.0854C39.7782 25.1673 39.6562 25.6164 39.7071 25.7645C39.7314 25.89 40.3367 25.9299 40.4282 25.885L40.4282 25.885Z" fill="white"/>
<path fill-rule="evenodd" clip-rule="evenodd" d="M16.0352 39.9619L16.3955 39.9972C18.5318 41.0461 22.0493 42.6013 27.1416 41.7656L27.9407 43.0229C25.698 44.1127 23.2859 43.8619 21.0256 43.9384L16.0352 39.9619Z" fill="black"/>
<path fill-rule="evenodd" clip-rule="evenodd" d="M12.9668 31.6698L14.0369 36.1623C16.9019 37.9532 21.796 40.0045 25.8754 39.839L24.9739 37.7705C16.4584 35.9621 15.7381 33.6761 12.967 31.6694L12.9668 31.6698Z" fill="black"/>
<path fill-rule="evenodd" clip-rule="evenodd" d="M15.6298 22.4673C16.1528 25.9487 16.851 28.588 19.8782 30.7989C21.7337 32.1333 23.5755 33.462 25.8156 34.5587C25.8156 34.5587 25.6192 35.5807 25.455 35.5625C18.7884 34.822 13.9076 29.2941 13.3164 26.7692C13.889 24.8324 14.7105 23.6227 15.6296 22.4673H15.6298Z" fill="black"/>
<path fill-rule="evenodd" clip-rule="evenodd" d="M18.8341 20.4949C19.7225 24.3534 21.8408 28.2614 23.9462 31.8067C24.718 32.786 24.92 33.2181 26.1095 33.8143C27.7173 34.3234 28.8543 34.1935 30.0214 34.1169C29.7016 33.5251 29.4174 32.9064 29.0502 32.3502C26.4369 30.2835 27.6447 28.4019 28.3388 27.2106C26.8857 26.8434 24.9604 26.063 24.6952 25.0366C24.2687 21.7168 24.4853 20.6637 24.9121 18.9585C22.9444 19.3734 20.9505 19.7845 18.834 20.4949L18.8341 20.4949Z" fill="black"/>
<path fill-rule="evenodd" clip-rule="evenodd" d="M11.6165 0C10.9698 0.422487 10.3467 1.02658 9.67645 1.71318C8.56526 2.86339 7.82657 3.9854 6.6955 4.81722C6.46929 5.01228 5.83446 5.32641 5.03638 5.373C4.66042 5.39177 4.41551 5.45398 3.72469 5.36724C3.11544 5.03735 2.53663 5.25188 1.97174 5.92755C1.3523 6.81834 0.567816 8.50983 0.2416 9.57463C-0.430718 12.2902 1.28337 14.5276 2.92714 16.252C4.38944 17.6805 5.23251 18.5733 5.83291 19.8829C6.28751 20.7323 6.62428 21.898 6.98888 22.7154C7.12035 22.9745 7.09302 22.9731 7.4469 23.0512C8.21102 23.2143 9.27097 23.2156 10.2146 23.2967C10.6229 23.3024 11.1835 23.2872 11.7148 23.2318C12.4468 23.0936 13.3069 22.9581 14.0277 22.7088C14.7321 22.5354 15.3597 22.2952 15.9254 22.074C15.8525 22.3216 15.3135 22.56 15.1115 22.8738C13.1938 25.6189 12.6685 28.0615 13.0024 31.9156C13.1912 33.6238 13.5833 35.0399 14.1748 36.6602C14.4455 37.4016 15.0215 38.5759 15.5735 39.3559C17.215 41.6753 20.8872 44.6537 25.9992 45.8003C26.8911 45.9222 27.9033 45.8571 28.8552 45.6036C31.3783 44.8388 36.5204 43.03 36.5204 43.03C36.5204 43.03 31.9559 43.4076 29.8655 43.2009C29.3815 43.1252 28.8482 43.0995 28.5111 42.7697C28.4545 42.6967 28.2491 42.2829 28.3818 42.2792C28.5628 42.2741 29.0824 42.0585 29.8847 41.9869C28.1718 41.8025 28.1962 41.8047 28.0712 41.4927C27.8768 41.0084 27.5792 40.3464 27.2728 39.7671C28.0254 39.8306 29.6918 39.9242 30.2574 39.3405C30.2574 39.3405 29.2713 39.4544 28.3998 39.3522C28.1062 39.3177 27.606 39.1392 27.4557 39.084C27.0644 38.9317 26.7424 38.8843 26.6673 38.785C26.5314 38.4392 26.4394 38.3229 26.2754 37.8597C26.0533 37.2464 26.0357 36.5622 25.9934 35.936C26.5635 36.6387 27.2899 37.2302 28.2515 37.5323C28.2638 37.5063 29.499 38.0692 30.396 37.7797L30.582 37.7197C30.582 37.7363 29.9877 37.7718 29.7697 37.6639C27.9454 36.8885 27.6708 36.2098 27.3763 35.8727L26.5885 34.6927C26.8281 34.215 26.9635 34.1968 27.2809 34.1924C28.2411 34.2991 28.6589 34.3811 29.2432 34.2402C29.638 35.0527 29.7447 35.87 30.6434 36.4613C33.6378 37.3501 34.2883 36.1973 35.0136 35.1787C37.168 36.7599 40.6753 37.2474 43.1112 35.2062C46.2078 31.623 47.1882 25.9741 46.9136 25.6516C46.5269 24.9955 46.0195 24.3188 45.5838 24.4124C44.0308 24.8363 43.4582 25.6241 41.9194 25.4444C42.1026 25.4341 42.4108 25.4291 42.4132 25.4116C42.5317 24.1086 42.4036 23.4782 42.3464 23.3699C41.8795 22.3401 41.2663 21.2563 40.8389 20.4441C40.7287 20.2756 40.4051 18.9959 39.8628 18.4903C39.6303 18.2918 39.0611 17.7682 39.0611 17.7682L39.0128 18.3247C39.0128 18.3247 39.2354 18.3583 39.3201 18.7031C39.6411 20.0101 41.2759 23.1005 41.3959 23.2486C41.9753 24.184 41.4548 25.3492 41.8953 26.0029C41.9376 26.0859 42.794 25.9956 43.4577 26.0364C44.5492 25.8016 44.5031 25.3206 45.4459 25.2483C46.0811 25.1996 46.1448 26.3924 46.1364 26.485C46.018 27.802 45.6174 29.3333 45.0043 30.7317C43.7295 33.1877 42.3018 35.3936 40.2771 35.7012C37.8073 36.1328 36.524 35.0531 35.1851 34.3655L34.673 34.8023C32.933 36.535 30.8671 36.3811 30.0221 34.1172C29.6014 33.239 29.0533 32.7007 28.5839 31.9474L26.0949 33.7401C25.8877 34.165 25.6329 34.8351 25.3235 35.5836C25.1083 36.104 24.9279 36.9977 24.9397 37.7404C24.6206 38.2839 26.0448 40.4882 26.9447 41.829C27.2102 42.2247 27.7059 42.9158 27.7225 42.9589C27.901 43.4218 28.2918 43.8305 28.3155 43.8803C29.9862 46.0593 26.2081 45.5575 25.4278 45.4259C23.8883 45.1806 22.3825 44.5376 20.9672 43.6777C20.885 43.6278 20.8032 43.5772 20.7217 43.5259C19.0396 42.4668 17.492 41.1117 16.1761 39.7715C15.3914 38.883 14.6443 37.0618 14.0925 35.7707C13.2655 32.6665 12.0786 27.286 15.2937 23.2087C15.4975 22.9757 15.7174 22.5877 15.9047 22.5109C16.8599 21.8648 17.8972 21.4244 19.0127 21.1799L18.9001 20.4568C18.343 20.5834 16.4673 21.2695 15.9369 21.5566C14.7308 21.9062 13.7304 22.2713 12.1933 22.6562C11.6937 22.7173 11.2022 22.7184 10.7231 22.6533C9.6173 22.5031 7.73256 22.6373 7.61235 22.5256C6.86363 21.4815 6.65865 19.6107 5.97551 18.6095L5.96744 18.5995L5.95879 18.59C5.56055 18.0548 5.09636 17.6181 4.63921 17.1639C3.00211 15.5374 1.60091 13.9647 1.20869 12.2981C1.11006 11.8061 0.856082 11.2964 0.991068 9.84044L0.993558 9.83331L0.995928 9.82619C1.3898 8.46604 2.03056 7.3573 3.11807 6.24612C4.24978 6.26439 5.36997 6.28925 6.24253 6.45593C6.64284 6.5229 7.47532 6.63164 8.33513 6.95195C10.5114 7.76266 13.387 9.09557 13.387 9.09557C11.2285 7.91012 8.81489 6.37053 7.29075 6.05982C7.06398 6.02772 6.92461 5.92427 6.85726 5.74368C9.14963 4.39681 9.56898 2.81104 11.0768 1.38883C11.7658 1.08889 12.0345 0.935767 12.62 0.87215C18.0349 1.72834 21.4437 3.88508 24.1402 5.32722C25.2346 5.9224 26.2295 6.37246 27.1798 6.91448C28.0127 7.18846 30.5262 9.0861 31.2618 10.1092C32.0091 11.687 32.5547 13.3913 33.0523 15.0358C33.4091 16.7085 33.7221 17.387 33.7221 17.387C33.7221 17.387 33.4189 15.9879 33.4694 15.7366C33.7838 15.8541 34.5272 16.0861 34.8353 16.0501C34.8353 16.0501 33.4589 15.3386 33.2785 14.7098C32.6998 12.6921 32.1193 9.55103 31.9628 9.38726C31.5217 8.83222 29.6823 7.42452 28.554 6.77337C28.1272 6.52704 27.8965 6.37425 27.8785 6.26595C28.2389 5.90183 28.6841 5.42015 29.0832 5.11409C29.4658 4.82071 29.8142 4.48986 30.3474 4.29186C32.6911 3.23628 34.0313 4.69797 34.3493 4.40198C34.3493 4.40198 33.8451 3.82402 34.069 3.91916C34.2984 4.0434 35.0459 4.1899 35.1279 4.26619C35.9822 4.93441 38.2154 7.37663 39.5614 9.95352C39.8847 10.5847 40.0161 11.0004 39.8662 11.7604C39.7158 12.5212 39.5995 12.9395 39.4355 13.4476C39.2874 13.7872 38.4494 16.1126 38.4526 16.425C38.2838 17.7008 38.9998 19.2981 38.9998 19.2981C39.0066 18.8645 38.9731 18.6335 39.0124 18.3235L39.0606 17.7694C39.0606 17.7694 39.0301 17.622 39.0356 17.5636C39.072 17.1805 39.166 16.8583 39.1936 16.6389C39.4627 14.9726 39.9304 13.7731 40.4611 12.3109C40.6187 11.9419 40.8251 11.7367 40.8145 11.4557C40.8232 10.9572 40.3771 10.288 40.0547 9.63445C39.7295 8.97391 39.3409 8.23757 38.8307 7.46145C37.6674 5.78873 36.6758 4.47997 34.86 3.66089C34.3519 3.43793 32.3527 3.21995 31.6623 3.34948C30.8248 3.52396 30.1046 3.69603 29.5304 4.06375C28.6268 4.6424 27.9166 5.53831 27.0839 6.0662C25.2414 5.14487 24.3522 4.45533 24.1864 4.36027C23.0914 3.77352 21.7767 3.09262 20.3623 2.4469C19.6842 1.81451 15.4731 0.301999 11.617 0.000305867L11.6165 0ZM35.1847 34.3644C34.0492 33.4768 33.0933 32.563 32.4631 31.622C32.2574 32.7287 31.5108 33.5169 30.9337 34.2921C30.8189 34.4739 30.736 34.7218 31.3017 35.5118C31.4542 35.7223 32.0058 35.7582 32.3782 35.7389C31.9993 35.4525 31.4229 35.1497 31.3301 34.8872C31.9965 35.3409 32.6136 35.4713 33.1713 35.3982C33.2988 35.3839 33.4571 35.2488 33.5795 35.0407C33.8281 34.5065 34.0228 34.3779 34.2195 34.2341L34.6727 34.802L35.1847 34.3644Z" fill="black"/>
</svg>
