<svg width="130" height="28" viewBox="0 0 130 28" fill="none" xmlns="http://www.w3.org/2000/svg">
<path d="M30.7686 4.74024V10.9096H36.7275V4.74024H40.3346V20.7378H36.7275V14.0663H30.7686V20.7378H27.1615V4.74024H30.7686ZM47.7224 18.4118C49.1475 18.4118 50.0262 17.0088 50.0262 14.9228C50.0262 13.2134 49.3616 11.456 47.7224 11.456C46.013 11.456 45.3484 13.2134 45.3484 14.945C45.3484 16.9128 46.1791 18.4118 47.6965 18.4118H47.7224ZM47.6522 20.9962C44.2592 20.9962 41.6453 18.781 41.6453 15.0151C41.6453 11.2493 44.1153 8.86792 47.8627 8.86792C51.3996 8.86792 53.7699 11.312 53.7699 14.8269C53.7699 19.0505 50.7572 20.9962 47.6707 20.9962H47.6522ZM61.0617 18.4118C62.4868 18.4118 63.3655 17.0088 63.3655 14.9228C63.3655 13.2134 62.7009 11.456 61.0617 11.456C59.3522 11.456 58.6877 13.2134 58.6877 14.945C58.6877 16.9128 59.5184 18.4118 61.0395 18.4118H61.0617ZM60.9915 20.9962C57.5985 20.9962 54.9883 18.781 54.9883 15.0151C54.9883 11.2493 57.4582 8.86792 61.2056 8.86792C64.7426 8.86792 67.1129 11.312 67.1129 14.8269C67.1129 19.0505 64.0965 20.9962 61.01 20.9962H60.9915ZM68.4309 11.7883V16.5584C68.4309 18.1977 68.7632 19.3127 69.4278 19.9994C70.1718 20.6758 71.1513 21.0337 72.1562 20.9962C72.9429 21.0139 73.7276 20.9093 74.4822 20.6861L74.4563 17.9577C74.1059 18.0333 73.7476 18.0655 73.3893 18.0537C72.3223 18.0537 71.9642 17.4113 71.9642 16.012V11.7883H74.5486V9.13006H71.9642V5.61156C71.5018 5.61107 71.0439 5.70172 70.6166 5.87832C70.1893 6.05493 69.801 6.31402 69.4739 6.64079C69.1467 6.96756 68.8872 7.35561 68.7102 7.78273C68.5331 8.20985 68.442 8.66769 68.442 9.13006L68.4309 11.7883ZM105.388 11.7883V16.5584C105.388 18.1977 105.72 19.3127 106.385 19.9994C107.129 20.6754 108.109 21.0333 109.113 20.9962C109.9 21.0138 110.685 20.9092 111.439 20.6861L111.413 17.9577C111.063 18.0332 110.705 18.0654 110.346 18.0537C109.28 18.0537 108.921 17.4113 108.921 16.012V11.7883H111.506V9.13006H108.921V5.61156C108.459 5.61107 108.001 5.70172 107.574 5.87832C107.146 6.05493 106.758 6.31402 106.431 6.64079C106.104 6.96756 105.844 7.35561 105.667 7.78273C105.49 8.20985 105.399 8.66769 105.399 9.13006L105.388 11.7883ZM76.4574 17.6033C77.4138 18.1239 78.4779 18.4158 79.5661 18.4561C80.6737 18.4561 81.1093 18.0869 81.1093 17.5073C81.1093 16.9276 80.7401 16.6027 79.4221 16.1523C77.0001 15.3696 76.0734 14.0404 76.0993 12.6892C76.0993 10.5035 77.9453 8.86792 80.8214 8.86792C81.9429 8.85478 83.0535 9.08926 84.074 9.55464L83.4575 12.0246C82.6732 11.6342 81.8149 11.4152 80.9395 11.3822C80.0608 11.3822 79.5661 11.7514 79.5661 12.3089C79.5661 12.8664 80.0165 13.1654 81.4416 13.6639C83.6568 14.4023 84.5503 15.5357 84.5762 17.223C84.5762 19.4087 82.8926 20.9962 79.5698 20.9962C78.2713 21.0203 76.9856 20.7356 75.8187 20.1655L76.4574 17.6033ZM96.8743 17.0162C96.8743 18.5336 96.9223 19.7705 96.9703 20.7415H93.8321L93.6659 19.1022H93.5958C93.2074 19.7062 92.6686 20.1987 92.0323 20.5314C91.396 20.8642 90.6841 21.0256 89.9665 20.9999C87.5925 20.9999 85.8831 19.5231 85.8831 15.9455V9.13006H89.4902V15.3733C89.4902 17.0568 90.0367 18.0758 91.3363 18.0758C91.8644 18.0613 92.3654 17.8385 92.7299 17.456C93.0944 17.0735 93.2929 16.5624 93.282 16.0341V9.13006H96.8891L96.8743 17.0162ZM99.3406 9.13006H102.951V20.7378H99.3406V9.13006ZM101.124 7.60894C100.864 7.62321 100.604 7.58376 100.361 7.49307C100.117 7.40237 99.8947 7.26238 99.7076 7.08185C99.5205 6.90131 99.3726 6.68411 99.2732 6.44383C99.1739 6.20355 99.1252 5.94536 99.1301 5.6854C99.1301 4.57779 99.9387 3.76185 101.172 3.76185C101.434 3.74716 101.697 3.7864 101.944 3.87716C102.191 3.96792 102.417 4.10828 102.608 4.28959C102.798 4.47091 102.95 4.68933 103.053 4.93141C103.156 5.17348 103.208 5.43409 103.207 5.69718C103.205 5.96026 103.15 6.22025 103.044 6.46112C102.938 6.702 102.784 6.91866 102.591 7.09777C102.399 7.27687 102.171 7.41462 101.923 7.50253C101.675 7.59045 101.412 7.62666 101.15 7.60894H101.124ZM120.308 13.59C120.308 12.7372 119.938 11.2382 118.288 11.2382C116.745 11.2382 116.128 12.6375 116.032 13.59H120.308ZM116.058 16.06C116.176 17.5811 117.649 18.2752 119.333 18.2752C120.422 18.2927 121.506 18.1242 122.538 17.7768L122.999 20.2394C121.66 20.7575 120.233 21.0084 118.798 20.9778C114.858 20.9778 112.602 18.6998 112.602 15.0447C112.602 12.0911 114.448 8.84946 118.465 8.84946C122.216 8.84946 123.634 11.7699 123.634 14.6422C123.632 15.127 123.593 15.6109 123.516 16.0895L116.058 16.06ZM14.424 1.25866C13.0036 0.434225 11.3904 0 9.74804 0C8.10568 0 6.49252 0.434225 5.07209 1.25866C3.65813 0.446681 2.05432 0.023753 0.423828 0.0329044V9.34788C0.423344 11.7971 0.905341 14.2225 1.8423 16.4855C2.77925 18.7484 4.1528 20.8046 5.88452 22.5367C7.61623 24.2688 9.67218 25.6427 11.935 26.5801C14.1977 27.5175 16.623 28 19.0722 28V0.0329044C17.4418 0.023753 15.8379 0.446681 14.424 1.25866V1.25866Z" fill="black"/>
<path d="M13.7632 3.39633C12.7644 3.39399 11.8009 3.76555 11.0623 4.43789C10.3237 5.11023 9.86344 6.03466 9.77214 7.02928V7.00344V7.02928C9.69671 6.15843 9.33849 5.33615 8.75214 4.68788C8.16578 4.0396 7.38347 3.6009 6.52454 3.43871C5.66561 3.27652 4.77719 3.39972 3.99481 3.78954C3.21243 4.17935 2.57903 4.81438 2.19122 5.59776C1.80341 6.38113 1.68248 7.26986 1.84688 8.12837C2.01127 8.98689 2.45197 9.76807 3.10174 10.3528C3.75152 10.9375 4.57471 11.2936 5.44575 11.3668C6.3168 11.44 7.18788 11.2263 7.92613 10.7582L9.77214 12.6264L11.644 10.7804C12.1676 11.1094 12.7604 11.3124 13.3758 11.3736C13.9912 11.4347 14.6123 11.3523 15.1905 11.1328C15.7686 10.9133 16.2879 10.5627 16.7076 10.1085C17.1273 9.65436 17.436 9.10904 17.6093 8.51544C17.7827 7.92183 17.816 7.2961 17.7066 6.68746C17.5972 6.07881 17.3481 5.50383 16.979 5.00771C16.6098 4.51159 16.1306 4.10787 15.579 3.82826C15.0274 3.54866 14.4185 3.40081 13.8001 3.39633H13.7632ZM5.74784 10.042C5.3639 10.0413 4.98463 9.95775 4.63599 9.79696C4.28734 9.63617 3.97754 9.40196 3.72779 9.11036C3.47803 8.81876 3.29422 8.47665 3.18891 8.10744C3.08361 7.73823 3.05931 7.35062 3.11767 6.97114C3.17603 6.59167 3.31567 6.22928 3.52705 5.90877C3.73843 5.58825 4.01655 5.31719 4.34238 5.11411C4.66821 4.91103 5.03407 4.78073 5.41491 4.73213C5.79576 4.68353 6.18262 4.71778 6.54901 4.83253C6.35107 4.91975 6.17733 5.05385 6.0428 5.22323C5.90827 5.39261 5.81699 5.59218 5.77683 5.80473C5.73667 6.01728 5.74885 6.2364 5.81231 6.44319C5.87577 6.64998 5.9886 6.83821 6.14107 6.99164C6.29354 7.14508 6.48106 7.2591 6.68745 7.32386C6.89383 7.38862 7.11288 7.40217 7.32567 7.36335C7.53846 7.32453 7.73861 7.23451 7.90884 7.10105C8.07906 6.96758 8.21425 6.7947 8.30272 6.59731C8.42461 6.99678 8.45106 7.41927 8.37995 7.83082C8.30884 8.24237 8.14215 8.63149 7.89329 8.9669C7.64443 9.30231 7.32034 9.57464 6.94707 9.762C6.57381 9.94936 6.16179 10.0465 5.74414 10.0457L5.74784 10.042ZM13.7448 10.0641C13.3275 10.0628 12.9163 9.96357 12.5443 9.77435C12.1724 9.58512 11.8501 9.31121 11.6033 8.97466C11.3566 8.63812 11.1923 8.24834 11.1237 7.8367C11.0551 7.42507 11.0841 7.00308 11.2083 6.6047C11.2989 6.79906 11.435 6.96871 11.6051 7.09924C11.7752 7.22977 11.9743 7.31733 12.1855 7.35449C12.3967 7.39165 12.6137 7.37731 12.8182 7.31269C13.0226 7.24807 13.2084 7.13507 13.3599 6.9833C13.5114 6.83152 13.624 6.64544 13.6882 6.44086C13.7524 6.23627 13.7662 6.01921 13.7286 5.80812C13.691 5.59702 13.6031 5.39811 13.4722 5.22827C13.3413 5.05843 13.1714 4.92267 12.9768 4.83253C13.3438 4.71948 13.7309 4.68706 14.1115 4.73747C14.4922 4.78789 14.8575 4.91996 15.1824 5.12463C15.5073 5.32931 15.7842 5.60177 15.994 5.92336C16.2038 6.24495 16.3417 6.60808 16.3982 6.9879C16.4547 7.36772 16.4285 7.75526 16.3213 8.124C16.2141 8.49274 16.0285 8.83397 15.7773 9.12434C15.526 9.41471 15.2149 9.64737 14.8654 9.80638C14.5159 9.9654 14.1361 10.047 13.7521 10.0457L13.7448 10.0641Z" fill="white"/>
<path d="M125.281 11.1606C125.28 10.7873 125.378 10.4203 125.566 10.0973C125.75 9.77085 126.019 9.50036 126.345 9.31462C126.669 9.12801 127.036 9.02979 127.41 9.02979C127.784 9.02979 128.151 9.12801 128.475 9.31462C128.801 9.49897 129.072 9.76814 129.258 10.0936C129.422 10.3765 129.519 10.6934 129.541 11.0197C129.563 11.3461 129.509 11.6731 129.385 11.9755C129.26 12.2779 129.067 12.5475 128.822 12.7634C128.576 12.9793 128.284 13.1358 127.968 13.2206C127.652 13.3055 127.321 13.3164 127 13.2527C126.679 13.1889 126.377 13.0521 126.118 12.8529C125.858 12.6537 125.648 12.3974 125.504 12.104C125.359 11.8105 125.285 11.4877 125.285 11.1606H125.281ZM125.58 11.1606C125.58 11.6502 125.775 12.1198 126.121 12.466C126.467 12.8122 126.937 13.0066 127.426 13.0066C127.748 13.0085 128.065 12.923 128.342 12.7593C128.619 12.5983 128.849 12.368 129.01 12.091C129.174 11.8111 129.261 11.4925 129.261 11.168C129.261 10.8435 129.174 10.5249 129.01 10.245C128.849 9.96805 128.619 9.73775 128.342 9.57675C128.062 9.41253 127.743 9.32596 127.419 9.32596C127.094 9.32596 126.776 9.41253 126.496 9.57675C126.219 9.73775 125.989 9.96805 125.828 10.245C125.665 10.5225 125.581 10.839 125.584 11.1606H125.58ZM128.275 10.6438C128.277 10.7861 128.235 10.9254 128.154 11.0425C128.069 11.1613 127.951 11.2515 127.814 11.3009L128.486 12.4085H128.01L127.43 11.4228H127.061V12.4233H126.644V9.90165H127.382C127.627 9.88169 127.87 9.94691 128.072 10.0863C128.145 10.1586 128.2 10.2461 128.235 10.3425C128.269 10.439 128.282 10.5419 128.272 10.6438H128.275ZM127.061 11.072H127.367C127.501 11.0798 127.632 11.0377 127.736 10.9539C127.781 10.918 127.816 10.8723 127.84 10.8204C127.864 10.7685 127.875 10.7118 127.873 10.6548C127.877 10.5984 127.869 10.5418 127.847 10.4893C127.826 10.4368 127.793 10.3898 127.751 10.3521C127.64 10.2847 127.512 10.2526 127.382 10.2598H127.061V11.072Z" fill="black"/>
</svg>
