<svg xmlns="http://www.w3.org/2000/svg" width="29" height="43"><g fill="none" fill-rule="evenodd"><path fill="#E44D26" d="M2.686 39.519.053 8.47h28.934l-2.636 31.044-11.849 3.454z"/><path fill="#F16529" d="m14.52 40.328 9.575-2.79 2.252-26.529H14.52z"/><path fill="#EBEBEB" fill-rule="nonzero" d="M14.52 22.525H9.727l-.331-3.9h5.124v-3.808H5.437l.087 1.022.89 10.493h8.106v-3.807zm0 9.89-.016.004-4.034-1.145-.258-3.037H6.576l.508 5.979 7.42 2.165.016-.005v-3.962z"/><path fill="#000" fill-rule="nonzero" d="M2.745.032h1.84v1.912H6.27V.032h1.84v5.79H6.27V3.884H4.586v1.938h-1.84V.032zm7.786 1.92h-1.62V.033h5.083v1.92h-1.622v3.87h-1.84v-3.87zm4.27-1.92h1.919l1.18 2.035L19.08.032H21v5.79h-1.833v-2.87L17.9 5.012h-.031L16.6 2.951v2.87h-1.8V.032zm7.115 0h1.841V3.91h2.59v1.913h-4.43V.032z"/><path fill="#FFF" fill-rule="nonzero" d="M14.508 22.525v3.807h4.46l-.42 4.94-4.04 1.145v3.962l7.426-2.163.054-.644.851-10.025.089-1.022h-8.42zm0-7.708v3.808h8.75l.072-.856.165-1.93.086-1.022h-9.073z"/></g></svg>