<svg xmlns="http://www.w3.org/2000/svg" width="35" height="48" fill="none" viewBox="0 0 35 48"><path fill="#fff" d="M3.127 0h2.169v2.143H7.28V0h2.17v6.49H7.28V4.315H5.296V6.49h-2.17V0zM12.3 2.152h-1.91V0h5.99v2.152h-1.91v4.337H12.3V2.152zM17.332 0h2.262l1.39 2.28L22.375 0h2.263v6.49h-2.16V3.272L20.985 5.58h-.037l-1.494-2.307v3.216h-2.122V0zM25.717 0h2.17v4.344h3.05V6.49h-5.22V0zM11.402 25.087h5.636v-4.37h-6.026l.39 4.37zM0 9.334l3.103 34.8L17.029 48l13.94-3.864 3.106-34.802H0zM28.31 41.92l-11.272 3.125v-4.43l-.007.003-8.743-2.427-.612-6.853h4.285l.317 3.555 4.754 1.284.006-.002v-6.82H7.499L6.348 16.448h10.69V12.18h13.926L28.31 41.92z"/><path fill="#fff" d="M22.29 29.355h-5.253v6.82l4.758-1.284.496-5.536zM17.038 12.18v4.268h10.69l-.383 4.268H17.037v4.371h9.919l-1.171 13.104-8.748 2.425v4.429L28.31 41.92l2.655-29.74H17.037z" opacity=".8"/><g opacity=".2"><path fill="#fff" d="M17.037 16.448H6.347L7.5 29.355h9.538v-4.268h-5.635l-.39-4.37h6.025v-4.269zM17.037 36.175l-.006.002-4.753-1.284-.318-3.555H7.676l.611 6.852 8.743 2.428.007-.002v-4.441z" opacity=".2"/></g></svg>