<svg width="61" height="48" viewBox="0 0 61 48" fill="none" xmlns="http://www.w3.org/2000/svg">
<path d="M10.2423 40.5275H5.94434V41.8242H7.14639V46.5588H5.94434V47.8582H10.2423V46.5588H9.03758V41.8242H10.2423V40.5275Z" fill="white"/>
<path d="M17.2993 40.3826C16.7416 40.3826 16.2261 40.4721 15.7553 40.6483C15.2845 40.8245 14.8899 41.077 14.5716 41.4032C14.2402 41.7399 13.9877 42.1449 13.8141 42.6184C13.6405 43.0918 13.5537 43.6179 13.5537 44.1992C13.5537 44.8226 13.6458 45.3723 13.8273 45.8484C14.0088 46.3245 14.2665 46.7217 14.5979 47.0399C14.9294 47.3582 15.3239 47.6002 15.7842 47.7606C16.2471 47.9211 16.7495 48 17.294 48C17.6596 48 17.949 47.9842 18.1594 47.9474C18.3698 47.9106 18.5934 47.858 18.8327 47.7896C19.0169 47.737 19.1931 47.6738 19.3588 47.6028C19.5271 47.5292 19.7034 47.4529 19.8849 47.3714V45.6196H19.6902C19.6008 45.6985 19.4877 45.7905 19.3509 45.8984C19.2115 46.0062 19.0616 46.1062 18.9011 46.2009C18.7117 46.3192 18.5039 46.4113 18.2804 46.4797C18.0542 46.5481 17.828 46.5823 17.5991 46.5823C17.3598 46.5823 17.1151 46.5454 16.8705 46.4665C16.6233 46.3903 16.4023 46.2614 16.1998 46.0825C16.0052 45.9036 15.8421 45.6616 15.7106 45.3539C15.5817 45.0462 15.5159 44.6621 15.5159 44.2045C15.5159 43.7652 15.5764 43.3917 15.6974 43.084C15.8158 42.7762 15.9736 42.529 16.1656 42.3422C16.3708 42.1476 16.5917 42.0108 16.8311 41.9266C17.0704 41.8424 17.3229 41.8004 17.5886 41.8004C17.828 41.8004 18.0515 41.8372 18.262 41.9082C18.4724 41.9792 18.667 42.0687 18.8485 42.1739C19.0248 42.2765 19.1826 42.3843 19.322 42.4921C19.4614 42.6 19.5771 42.692 19.6692 42.7709H19.8849V40.9929C19.7507 40.9271 19.5955 40.8561 19.4167 40.7798C19.2378 40.7009 19.0379 40.6325 18.8196 40.5694C18.6092 40.5141 18.3803 40.4694 18.1331 40.4352C17.8832 40.401 17.607 40.3826 17.2993 40.3826Z" fill="white"/>
<path d="M27.542 40.5275H25.3667L22.6602 47.8582H24.5671L25.0774 46.3799H27.7893L28.2969 47.8582H30.2486L27.542 40.5275ZM25.5325 45.0332L26.432 42.4108L27.3316 45.0332H25.5325Z" fill="white"/>
<path d="M40.175 40.5275H38.439V44.7255L35.764 40.5275H33.502V47.8582H35.238V42.8264L38.3496 47.8582H40.175V40.5275Z" fill="white"/>
<path d="M50.9153 40.5272H49.1793V44.7252L46.5043 40.5272H44.2422V47.8579H45.9782V42.8261L49.0898 47.8579H50.9153V40.5272Z" fill="white"/>
<path d="M30.5983 0.000102997C29.4745 0.000139236 28.3291 0.114086 27.1764 0.344053C25.2615 0.770166 23.5702 1.68814 21.8763 2.6219C16.2922 5.35742 12.7334 11.0994 13.2252 17.3148L15.945 16.5257C15.6136 12.1436 16.7998 8.25076 19.5353 5.07335C21.1977 13.898 24.7881 21.9178 30.1329 29.2275C30.6209 29.2589 31.0933 29.2903 31.5617 29.2903C32.035 29.2903 32.5043 29.2582 32.9815 29.1617C31.0982 27.2652 29.5963 25.2241 28.076 23.183C30.4011 22.123 32.7579 21.0314 34.8621 19.5453C34.5781 18.8351 34.3729 18.0592 34.0099 17.4253C31.7952 19.1034 29.5016 20.558 27.0501 21.6495C25.9112 19.9425 24.9301 18.1854 23.9806 16.4126V16.239C26.5898 15.179 29.1044 13.8665 31.4454 12.1436C31.035 11.3835 30.5932 10.5917 30.1329 9.91311C27.9339 11.6202 25.6719 13.2036 23.2993 14.4688H23.0626C21.6238 11.415 20.4849 8.21919 19.6458 4.89975C20.4218 4.02912 21.3082 3.19004 22.2077 2.51143L24.8354 1.76706C31.4454 9.18452 35.7486 17.6015 38.1053 26.7103C38.7234 26.0948 39.2758 25.4293 39.4178 24.6086C38.9602 23.325 38.6287 22.0125 38.0422 20.7947C37.7423 19.8925 37.1558 19.0561 36.9664 18.1696C38.6919 16.9045 40.3516 15.5288 41.9798 14.0085C41.9482 12.8696 41.6641 11.828 41.1275 10.8784H41.0013C39.4021 12.6802 37.5845 14.4372 35.7643 15.9549C34.7832 14.3583 33.881 12.7275 32.8079 11.1625C34.6412 9.77107 36.414 8.09293 38.0422 6.32275C37.4583 5.56259 36.6981 4.75508 35.8275 4.45523C34.436 6.00711 32.871 7.63527 31.2718 8.9478C29.3438 6.49635 27.2553 4.06067 24.9459 1.83018C25.8862 1.61713 26.9574 1.5106 28.027 1.5106C29.0965 1.5106 30.1644 1.61713 31.0982 1.83018C36.5403 2.81129 41.8377 8.15606 42.7084 13.614C43.8631 19.7189 41.6799 25.3346 36.6823 29.0512C34.9114 29.6935 33.0234 30.0191 31.1421 30.0191C27.0915 30.0191 23.0748 28.5086 20.3429 25.3977C22.2393 25.0821 24.0437 24.5113 25.8639 23.9274C25.5929 23.4697 25.2615 23.041 25.0564 22.5517C20.0295 24.571 14.5509 25.7328 8.77389 25.7328C8.07907 25.7328 7.37894 25.716 6.67578 25.6818C8.64304 25.9348 10.6517 26.0446 12.6728 26.0446C13.9512 26.0446 15.2347 26.0006 16.5158 25.9212C17.8598 27.5967 19.5669 28.9408 21.3082 29.9061C23.294 31.0113 25.7614 31.5623 28.2459 31.5623C31.2012 31.5623 34.1805 30.7822 36.3982 29.2275C38.897 28.1675 41.3011 26.2999 42.9924 23.9274C46.1882 19.8452 46.6775 13.1089 44.3049 8.49011L43.2791 6.73308C40.2875 2.30812 35.6571 -9.15527e-05 30.5983 0.000102997Z" fill="white"/>
<path d="M21.5292 15.3239C17.1313 17.3781 12.3862 18.6275 7.29395 19.0247C7.64125 19.03 7.98898 19.0327 8.33649 19.0327C10.0444 19.0327 11.7446 18.9691 13.3358 18.8511C13.6672 20.858 14.3484 22.7413 15.44 24.4326C16.5789 24.2117 17.7179 24.0223 18.791 23.6909C17.8283 22.4099 17.1471 20.9843 16.6421 19.4824C16.5631 19.1194 16.2922 18.6907 16.5158 18.3434C18.4754 17.9805 20.3902 17.5359 22.2078 16.8573L21.5292 15.3239Z" fill="white"/>
<path d="M30.1738 35.8867C19.8105 35.887 9.43639 36.9036 0 38.907C9.46326 37.8775 19.3507 37.3926 29.2493 37.3926C39.7351 37.3927 50.2332 37.9369 60.2498 38.9543C50.8545 36.8992 40.5195 35.8865 30.1738 35.8867Z" fill="white"/>
</svg>
