<svg height="45" width="45" xmlns="http://www.w3.org/2000/svg" xmlns:xlink="http://www.w3.org/1999/xlink"><linearGradient id="a"><stop offset="0" stop-color="#e09b3d"/><stop offset=".3" stop-color="#c74c4d"/><stop offset=".6" stop-color="#c21975"/><stop offset="1" stop-color="#7024c4"/></linearGradient><linearGradient id="b" x1="50%" x2="50%" xlink:href="#a" y1="99.709%" y2=".777%"/><linearGradient id="c" x1="50%" x2="50%" xlink:href="#a" y1="146.099%" y2="-45.16%"/><linearGradient id="d" x1="50%" x2="50%" xlink:href="#a" y1="658.141%" y2="-140.029%"/><g fill="none"><path d="M31.594 0H13.406C6.014 0 0 6.014 0 13.406v18.188C0 38.986 6.014 45 13.406 45h18.188C38.986 45 45 38.986 45 31.594V13.406C45 6.014 38.986 0 31.594 0zm8.879 31.594a8.879 8.879 0 0 1-8.879 8.879H13.406a8.879 8.879 0 0 1-8.879-8.879V13.406a8.879 8.879 0 0 1 8.879-8.879h18.188a8.879 8.879 0 0 1 8.879 8.879z" fill="url(#b)"/><path d="M21.774 10.161c-6.403 0-11.613 5.21-11.613 11.613s5.21 11.613 11.613 11.613c6.404 0 11.613-5.21 11.613-11.613s-5.21-11.613-11.613-11.613zm0 18.71a7.096 7.096 0 1 1 0-14.193 7.096 7.096 0 0 1 0 14.192z" fill="url(#c)"/><circle cx="34.839" cy="11.613" fill="url(#d)" r="2.903"/></g></svg>