<svg xmlns="http://www.w3.org/2000/svg" width="44" height="43"><g fill="none" fill-rule="evenodd"><path fill="#DC395F" d="M39.62 0H4.38A3.9 3.9 0 0 0 .478 3.898v35.204A3.9 3.9 0 0 0 4.38 43h35.24a3.9 3.9 0 0 0 3.902-3.898V3.898A3.9 3.9 0 0 0 39.62 0"/><path fill="#FFF" fill-rule="nonzero" d="M13.803 13.791c1.451 0 2.667-1.124 2.667-2.596S15.254 8.6 13.803 8.6c-1.452 0-2.667 1.123-2.667 2.595 0 1.472 1.215 2.596 2.667 2.596m-5.53 13.9a8.81 8.81 0 0 0-.236 1.95c0 2.286 1.255 3.803 3.922 3.803 2.213 0 4.006-1.297 5.298-3.392l-.789 3.125h4.393l2.51-9.945c.628-2.517 1.844-3.824 3.688-3.824 1.451 0 2.353.891 2.353 2.363 0 .426-.039.89-.196 1.394l-1.294 4.571a6.791 6.791 0 0 0-.275 1.937c0 2.17 1.295 3.757 4.001 3.757 2.315 0 4.158-1.47 5.178-4.996l-1.726-.658c-.863 2.362-1.608 2.789-2.197 2.789-.588 0-.902-.388-.902-1.162 0-.349.079-.735.196-1.201l1.256-4.454a9.709 9.709 0 0 0 .431-2.825c0-3.331-2.04-5.07-4.51-5.07-2.315 0-4.669 2.062-5.845 4.231l.862-3.894h-6.707l-.941 3.43h3.138l-1.933 7.64c-1.517 3.332-4.305 3.386-4.655 3.31-.574-.129-.941-.344-.941-1.081 0-.426.078-1.037.274-1.773l2.942-11.526H8.115l-.941 3.43h3.099l-2 8.071"/></g></svg>