<svg fill="none" height="48" viewBox="0 0 141 48" width="141" xmlns="http://www.w3.org/2000/svg"><path d="m55.11 30.23-4.624-12.853h-2.488v-17.377h-47.998v48h47.998v-23.204l4.673 11.66h4.806l7.647-19.08h-5.352zm16.826-12.853h-5.171v19.08h5.17v-19.08zm8.304 5.571c0-1.056.944-1.858 2.622-1.858 1.856 0 2.767 1.094 2.876 2.295h4.989c-.146-2.804-2.113-6.446-7.829-6.446-4.696 0-7.645 2.84-7.645 6.3 0 7.573 10.595 4.552 10.595 7.756 0 1.054-1.02 1.746-2.986 1.746-2.148 0-3.094-1.201-3.168-2.476h-5.243c.255 3.57 2.293 6.627 8.266 6.627 5.17 0 8.083-2.693 8.083-6.116 0-7.828-10.56-4.624-10.56-7.828zm18.345-5.571h-5.17v19.08h5.17zm12.278-.437c-6.116 0-10.012 4.552-10.012 9.976s3.896 9.976 10.012 9.976 10.014-4.55 10.014-9.976-3.896-9.977-10.014-9.977zm0 15.401c-2.729 0-4.841-2.003-4.841-5.425 0-3.423 2.108-5.424 4.841-5.424s4.843 2.003 4.843 5.424c0 3.42-2.107 5.425-4.843 5.425zm22.746-15.401c-2.84 0-4.805 1.13-5.68 2.768v-2.331h-4.77v19.08h5.171v-10.925c0-2.55 1.383-4.149 3.895-4.149 2.295 0 3.242 1.53 3.242 3.75v11.324h5.169v-11.91c0-4.55-2.439-7.609-7.027-7.609z" fill="#f06"/><path d="m16.813 15.116c.544-.007 1.074-.174 1.523-.48.449-.307.797-.74 1.001-1.245.204-.504.254-1.057.144-1.59s-.375-1.021-.762-1.403c-.387-.383-.878-.642-1.412-.746s-1.087-.047-1.589.162c-.502.21-.93.563-1.232 1.016s-.463.984-.463 1.528c.002.365.075.725.216 1.061.14.336.347.641.606.898.26.256.566.458.904.595s.7.206 1.064.204zm-5.807 14.77c-.159.68-.241 1.376-.247 2.074 0 2.43 1.32 4.042 4.117 4.042 2.321 0 4.203-1.379 5.557-3.606l-.825 3.321h4.609l2.64-10.56c.654-2.684 1.931-4.08 3.866-4.08 1.522 0 2.469.943 2.469 2.51.007.502-.063 1.002-.206 1.482l-1.358 4.872c-.194.668-.29 1.361-.288 2.057 0 2.307 1.357 3.993 4.198 3.993 2.429 0 4.364-1.564 5.433-5.31l-1.81-.699c-.906 2.51-1.698 2.963-2.305 2.963s-.943-.411-.943-1.233c.018-.433.087-.861.206-1.277l1.32-4.732c.297-.973.45-1.985.454-3.002 0-3.54-2.14-5.388-4.735-5.388-2.428 0-4.904 2.191-6.133 4.496l.907-4.138h-7.048l-.988 3.645h3.295l-2.03 8.12c-1.591 3.539-4.526 3.596-4.884 3.514-.604-.135-.988-.365-.988-1.148.018-.638.115-1.271.288-1.886l3.088-12.247h-7.821l-.989 3.645h3.252z" fill="#fff"/></svg>
