<svg xmlns="http://www.w3.org/2000/svg" width="44" height="48" fill="none" viewBox="0 0 44 48">
    <path fill="#99424F" d="M42.464 23.64c0 1.215-.33 2.34-.929 3.3.891 1.746 1.236 3.748.891 5.735-.457 2.587-2.037 4.836-4.358 6.185-1.985 1.155-4.194 1.47-6.328 1.777-1.056.15-2.052.293-3.01.525-2.599.637-5.242 1.957-7.788 3.224C17.362 46.163 13.656 48 10.009 48c-2.127 0-4.089-.622-5.886-1.86C.948 43.93-.377 40.03.43 35.165c.404-2.437 1.46-4.604 2.389-6.523l.3-.6c-1.154-1.154-1.805-2.729-1.805-4.363 0-3.434 2.785-6.224 6.215-6.224 3.415 0 6.2 2.782 6.2 6.209 0 2.729-1.774 5.143-4.38 5.945-.652 1.777.067 3.764 1.737 4.889 1.842-.75 3.55-1.852 5.092-3.3.802-.756 1.528-1.589 2.164-2.488-1.572-1.14-2.62-2.985-2.62-5.069 0-2.834 1.902-5.226 4.485-5.976L14.225 0h29.579l-5.968 17.612c2.666.697 4.65 3.127 4.65 6.013l-.022.015zm-2.696-.007c-.008-1.665-1.169-3.097-2.786-3.442-.112-.03-.225-.037-.33-.052h-.03c-.052-.015-.104-.015-.15-.015h-.179c-.082 0-.15.015-.225.015h-.067c-.052 0-.112.015-.165.015-.015.015-.037.015-.052.015l-.21.045h-.022l-.195.03c-.015 0-.037.015-.052.015-.053.015-.113.037-.165.052-.015 0-.03.015-.045.015-.06.03-.127.06-.195.083-.067.022-.142.045-.194.075-.015 0-.03.015-.045.015l-.165.097c0 .015-.015.015-.015.015l-.36.247-.015.015c-.18.135-.344.285-.486.458-.15.172-.277.36-.39.555-.292.532-.449 1.132-.449 1.74 0 1.933 1.565 3.5 3.497 3.5s3.497-1.567 3.49-3.493zm-16.692-6.104c.225.046.442.083.651.15L29.014 6.98l5.272 10.767c.21-.067.42-.135.622-.18l5.017-14.793H18.104l4.972 14.755zm7.114 4.896c.247-1.214.854-2.331 1.737-3.209l-2.898-5.93-2.875 5.803c.958.885 1.617 2.054 1.872 3.337h2.164zm-9.113-2.189c-1.528.39-2.651 1.762-2.636 3.39 0 1.933 1.565 3.5 3.497 3.5s3.497-1.567 3.497-3.5c0-.683-.195-1.35-.57-1.92-.112-.18-.246-.345-.389-.503l-.015-.015c-.15-.142-.307-.277-.471-.404l-.015-.015c-.053-.03-.098-.068-.15-.098-.015 0-.015-.015-.03-.015-.053-.03-.112-.067-.18-.097-.052-.038-.12-.075-.18-.098h-.014c-.053-.03-.113-.045-.165-.067-.015 0-.03-.015-.045-.015-.045-.03-.098-.038-.135-.053-.03 0-.037-.015-.052-.015-.053-.03-.113-.037-.18-.052l-.195-.045c-.03-.015-.037-.015-.052-.015-.053-.015-.098-.015-.15-.03-.03-.015-.045-.015-.067-.015-.045 0-.083-.015-.135-.015h-.54c-.052 0-.097.015-.15.015h-.081c-.053.015-.113.015-.165.03h-.045l-.195.045.008.007zM3.92 23.633c0 1.934 1.565 3.501 3.497 3.501s3.497-1.567 3.497-3.501c0-1.935-1.565-3.502-3.497-3.502S3.92 21.698 3.92 23.633zm35.764 8.532c.195-1.08.083-2.16-.277-3.209-.95.562-2.03.862-3.137.862-2.883 0-5.317-1.972-6.006-4.656h-2.329c-.696 2.67-3.123 4.656-6.006 4.656-.322 0-.636-.015-.958-.067-.824 1.252-1.79 2.406-2.883 3.434-1.985 1.874-4.231 3.276-6.657 4.138l-.57.21-.524-.277c-2.913-1.5-4.41-4.544-3.886-7.49-.33-.053-.652-.135-.959-.248l-.15.323c-.89 1.822-1.82 3.718-2.149 5.75-.352 2.167-.509 6.126 2.546 8.24 1.333.93 2.734 1.372 4.299 1.372 3.01 0 6.26-1.612 9.697-3.321 2.688-1.335 5.467-2.722 8.357-3.434 1.079-.262 2.21-.427 3.273-.585 1.954-.27 3.819-.547 5.331-1.424 1.595-.93 2.689-2.482 2.988-4.274z"/>
</svg>
