<svg xmlns="http://www.w3.org/2000/svg" width="52" height="53" fill="none"><path fill="#2684FF" d="M50.648 25.016 27.84 2.21 25.63 0 .613 25.016a2.101 2.101 0 0 0 0 2.966L16.3 43.667 25.629 53l25.018-25.018a2.097 2.097 0 0 0 0-2.966zm-25.019 9.318L17.796 26.5l7.834-7.836 7.836 7.836-7.836 7.834z"/><path fill="url(#a)" d="M25.63 18.664C20.5 13.533 20.473 5.223 25.574.061L8.428 17.201l9.333 9.334 7.868-7.871z"/><path fill="url(#b)" d="m33.486 26.478-7.857 7.856a13.196 13.196 0 0 1 3.869 9.333c0 3.501-1.393 6.857-3.87 9.333l17.19-17.189-9.332-9.333z"/><defs><linearGradient id="a" x1="22.262" x2="13.29" y1="12.708" y2="21.678" gradientUnits="userSpaceOnUse"><stop stop-color="#0052CC"/><stop offset="1" stop-color="#2684FF"/></linearGradient><linearGradient id="b" x1="29.093" x2="38.048" y1="40.205" y2="31.251" gradientUnits="userSpaceOnUse"><stop stop-color="#0052CC"/><stop offset="1" stop-color="#2684FF"/></linearGradient></defs></svg>