<svg fill="none" height="48" viewBox="0 0 42 48" width="42" xmlns="http://www.w3.org/2000/svg"><path d="m2.501 25.097c0 1.496-.12 1.983-.427 2.342-.343.308-.787.479-1.248.479l.12.854c.714.01 1.407-.242 1.948-.71.291-.354.508-.764.637-1.204.13-.441.169-.903.115-1.359v-5.657h-1.145zm8.54-.674c0 .64 0 1.214.051 1.71h-1.017l-.068-1.018c-.213.36-.517.657-.882.861-.364.204-.777.308-1.195.302-.99 0-2.17-.539-2.17-2.735v-3.65h1.145v3.419c0 1.188.367 1.983 1.401 1.983.213.002.424-.038.621-.119.197-.08.376-.199.527-.35.15-.15.269-.329.35-.526.08-.197.12-.408.118-.62v-3.83h1.145v4.539zm2.171-2.497c0-.794 0-1.444-.05-2.034h1.025l.05 1.069c.23-.386.558-.703.953-.917.394-.213.839-.316 1.287-.297 1.521 0 2.666 1.273 2.666 3.17 0 2.24-1.376 3.35-2.863 3.35-.38.018-.759-.064-1.099-.236s-.63-.43-.84-.746v3.418h-1.129zm1.129 1.667c.003.155.02.31.05.461.098.38.319.716.628.956.31.24.69.37 1.082.369 1.205 0 1.914-.983 1.914-2.41 0-1.248-.666-2.316-1.871-2.316-.477.04-.923.25-1.255.595s-.527.799-.548 1.277zm6.843-3.706 1.376 3.683c.145.41.299.906.401 1.273.12-.376.248-.854.402-1.299l1.248-3.657h1.205l-1.71 4.444c-.854 2.136-1.375 3.239-2.162 3.905-.396.362-.878.615-1.401.735l-.282-.957c.365-.12.705-.309 1-.555.417-.34.748-.774.965-1.265.047-.085.079-.178.094-.274-.01-.103-.035-.204-.076-.299l-2.325-5.751h1.248zm7.671-1.793v1.795h1.641v.855h-1.64v3.367c0 .769.221 1.213.854 1.213.224.004.449-.022.666-.077l.052.855c-.327.113-.672.165-1.017.154-.23.014-.458-.021-.672-.104-.214-.082-.408-.21-.567-.375-.349-.466-.507-1.046-.445-1.624v-3.418h-.974v-.855h.991v-1.52zm3.751 5.116c-.024.29.016.58.117.854.1.272.259.52.464.726.206.205.454.364.727.464s.564.14.854.118c.586.013 1.168-.098 1.709-.325l.197.854c-.664.274-1.377.405-2.094.385-.418.029-.838-.034-1.23-.182-.391-.149-.746-.38-1.04-.68-.294-.298-.52-.657-.662-1.05-.142-.395-.197-.815-.162-1.233 0-1.88 1.12-3.367 2.948-3.367 2.052 0 2.564 1.795 2.564 2.94.011.176.011.353 0 .53h-4.418l.026-.035zm3.35-.855c.033-.229.016-.462-.048-.683-.065-.222-.176-.427-.327-.602-.15-.175-.337-.315-.547-.412s-.437-.148-.668-.15c-.47.035-.91.243-1.233.585-.325.34-.51.791-.519 1.262zm2.78-.525c0-.734 0-1.367-.051-1.948h1.025v1.222h.051c.108-.377.33-.711.637-.956.306-.245.681-.389 1.073-.411.107-.014.217-.014.324 0v1.068c-.13-.015-.262-.015-.393 0-.388.015-.757.17-1.038.438-.282.268-.456.628-.491 1.015-.032.175-.05.352-.052.53v3.324h-1.128v-4.272l.043-.008z" fill="#fff"/><path d="m38.234 2.722c.035.574-.101 1.146-.392 1.642s-.723.895-1.241 1.144c-.518.25-1.1.34-1.669.259-.569-.082-1.101-.33-1.529-.716-.427-.385-.73-.888-.87-1.446s-.111-1.145.083-1.686c.195-.542.546-1.013 1.01-1.354.462-.34 1.017-.536 1.591-.56.377-.021.754.033 1.11.158.356.126.684.32.964.573.28.252.508.558.67.899.162.34.255.71.273 1.087z" fill="#767677"/><path d="m21.335 36.19c-7.691 0-14.451-2.76-17.946-6.836 1.356 3.667 3.803 6.831 7.012 9.065 3.208 2.235 7.024 3.433 10.934 3.433s7.726-1.198 10.935-3.433c3.209-2.234 5.656-5.398 7.012-9.065-3.487 4.077-10.221 6.837-17.947 6.837zm0-26.507c7.692 0 14.452 2.76 17.947 6.837-1.356-3.668-3.803-6.831-7.012-9.066-3.209-2.234-7.025-3.432-10.935-3.432s-7.725 1.198-10.934 3.432c-3.209 2.236-5.656 5.398-7.012 9.066 3.495-4.085 10.22-6.837 17.946-6.837z" fill="#f37726"/><path d="m10.747 44.123c.045.724-.126 1.444-.492 2.07-.365.625-.909 1.127-1.561 1.443-.652.315-1.384.43-2.101.328-.718-.102-1.388-.415-1.927-.9-.54-.484-.922-1.118-1.099-1.82-.177-.703-.141-1.442.103-2.124s.686-1.276 1.27-1.706c.582-.43 1.28-.677 2.004-.709.474-.025.949.043 1.397.201s.86.403 1.213.72c.353.318.64.702.845 1.13.205.429.323.893.348 1.367z" fill="#9e9e9e"/><path d="m4.263 8.754c-.415.011-.823-.1-1.174-.32-.352-.22-.63-.54-.8-.918-.171-.378-.226-.797-.158-1.206.067-.41.254-.79.537-1.093s.65-.515 1.053-.61c.403-.096.826-.07 1.215.074.388.144.726.4.97.735.243.336.382.736.4 1.15.016.56-.19 1.104-.572 1.514-.383.41-.911.651-1.471.674z" fill="#616262"/></svg>