<svg width="49" height="48" fill="none" xmlns="http://www.w3.org/2000/svg"><g clip-path="url(#a)"><path d="M48.353 3.53v40.94A3.53 3.53 0 0 1 44.825 48H3.883a3.53 3.53 0 0 1-3.53-3.53V3.53A3.53 3.53 0 0 1 3.884 0h40.941a3.53 3.53 0 0 1 3.53 3.53zM14.471 18.352H7.412V40.94h7.06V18.353zm.636-7.765a4.066 4.066 0 0 0-4.038-4.094h-.127a4.094 4.094 0 1 0 0 8.188 4.066 4.066 0 0 0 4.165-3.967v-.127zm26.188 16.63c0-6.79-4.32-9.43-8.612-9.43a8.048 8.048 0 0 0-7.144 3.643h-.197v-3.078h-6.636V40.94h7.06V28.927A4.687 4.687 0 0 1 30 23.873h.268c2.245 0 3.91 1.412 3.91 4.97V40.94h7.06l.056-13.722z" fill="#2867B2"/></g><defs><clipPath id="a"><path fill="#fff" transform="translate(.354)" d="M0 0h48v48H0z"/></clipPath></defs></svg>