<svg width="50" height="48" viewBox="0 0 50 48" fill="none" xmlns="http://www.w3.org/2000/svg">
<g clip-path="url(#clip0)">
<path d="M48.6488 21.488H34.0216L46.6888 14.176L44.1768 9.824L31.508 17.136L38.82 4.472L34.468 1.96L27.1544 14.6208V0H22.1272V14.6224L14.8136 1.96L10.46 4.472L17.772 17.1328L5.10641 9.824L2.59281 14.176L15.26 21.488H0.632812V26.5136H15.2584L2.59281 33.8256L5.10481 38.1776L17.7736 30.8656L10.46 43.5296L14.812 46.0416L22.1272 33.3792V48H27.1544V33.0656L34.6024 45.9616L38.684 43.6064L31.2344 30.7072L44.1736 38.176L46.6872 33.824L34.0216 26.512H48.6472V21.488H48.6488ZM24.6408 30.832C23.7434 30.8321 22.8548 30.6555 22.0256 30.3121C21.1965 29.9688 20.4431 29.4655 19.8085 28.8311C19.1739 28.1966 18.6704 27.4433 18.3269 26.6142C17.9834 25.7852 17.8065 24.8966 17.8064 23.9992C17.8063 23.1018 17.983 22.2132 18.3263 21.384C18.6696 20.5549 19.1729 19.8015 19.8074 19.1669C20.4418 18.5322 21.1951 18.0288 22.0242 17.6853C22.8532 17.3418 23.7418 17.1649 24.6392 17.1648C26.4516 17.1646 28.1898 17.8844 29.4715 19.1658C30.7532 20.4471 31.4734 22.1852 31.4736 23.9976C31.4738 25.81 30.7541 27.5482 29.4727 28.8299C28.1913 30.1116 26.4532 30.8318 24.6408 30.832Z" fill="#615CF5"/>
</g>
<defs>
<clipPath id="clip0">
<rect width="49" height="48" fill="white" transform="translate(0.632812)"/>
</clipPath>
</defs>
</svg>
