<svg fill="none" height="48" width="48" xmlns="http://www.w3.org/2000/svg"><g fill="#fff"><path d="M11.162 24.909c-.38-.02-.73.013-1.022.072-2.435.49-3.81 2.562-3.54 5.254.246 2.435 2.708 4.488 4.989 4.55.236.005.47-.011.7-.05 2.467-.42 3.114-3.1 2.706-5.732-.459-2.973-2.47-4.02-3.833-4.094zm2.418 7.04c-.09.21-.45.499-.963.479-.527-.04-1.115-.424-1.195-1.38-.039-.472.14-1.047.25-1.346.21-.58.02-1.19-.477-1.516a1.293 1.293 0 0 0-.982-.182c-.335.072-.62.268-.803.555-.152.237-.244.533-.295.692l-.032.098c-.113.3-.29.389-.411.372-.057-.008-.135-.046-.186-.183-.138-.376-.027-1.442.682-2.224a2.144 2.144 0 0 1 1.84-.662c.712.09 1.305.521 1.668 1.214.484.92.053 1.886-.204 2.463l-.076.17c-.16.384-.17.718-.023.942.112.173.313.273.547.278.11.002.21-.022.299-.042.127-.03.258-.06.338.04.03.03.076.107.023.232z"/><path d="M45.47 29.564a3.341 3.341 0 0 0-1.007-.836 13.787 13.787 0 0 0-.22-.689c.584-1.232.537-2.305.437-2.896-.155-1-.582-1.838-1.343-2.637-.928-.974-2.473-1.6-3.704-1.97a126.78 126.78 0 0 0-.05-1.66c-.025-.55-.075-1.688-.432-2.837a9.14 9.14 0 0 0-1.137-2.544c1.863-2.237 2.874-4.548 2.87-6.61-.004-3.342-2.605-5.5-6.625-5.5-1.908 0-4.085.483-6.298 1.4-.003 0-.124.052-.293.123-.674-.66-1.56-1.528-1.619-1.58C25.04.448 23.782 0 22.317 0c-1.744 0-3.748.647-5.957 1.921-1.904 1.1-3.951 2.672-5.918 4.547-4.013 3.824-7.247 8.402-8.653 12.245-.604 1.651-.863 3.149-.77 4.453.111 1.582.753 2.91 1.853 3.84l.685.58a9.118 9.118 0 0 0-.17 2.972c.198 1.965 1.193 3.833 2.803 5.259 1.294 1.146 2.88 1.892 4.478 2.121a17.625 17.625 0 0 0 6.377 7.012c2.971 1.877 6.528 2.929 10.285 3.04.24.006.482.01.72.01h.002c3.878 0 7.51-.953 10.502-2.758a16.66 16.66 0 0 0 6.823-7.905l.015-.036c.238-.614 1.018-2.776 1.018-4.808 0-1.467-.511-2.403-.94-2.929zm-1.55 7.166c-2.656 6.364-8.993 9.906-16.544 9.682-7.038-.21-13.041-3.923-15.668-9.977-1.59 0-3.226-.698-4.47-1.8-1.312-1.163-2.122-2.666-2.279-4.235-.123-1.221.028-2.357.41-3.348l-1.475-1.25C-2.858 20.1 18.258-3.37 25.012 2.52c.034.03 2.297 2.251 2.303 2.256l1.255-.533c5.923-2.454 10.73-1.27 10.736 2.645.003 2.036-1.294 4.408-3.372 6.562.753.698 1.356 1.79 1.703 3.038.29.922.342 1.859.368 2.458.035.83.076 2.762.08 2.797.053.016.652.18.833.231 1.59.447 2.722 1.041 3.275 1.622.553.58.827 1.142.928 1.802.093.532.08 1.471-.622 2.52 0 0 .18.395.357.956.175.56.301 1.026.321 1.095.643 0 1.652.74 1.652 2.525.002 1.776-.736 3.79-.91 4.236z"/><path d="M42.86 31.424c-.341-.21-.748-.136-.748-.136s-.186-1.272-.712-2.427c-1.559 1.23-3.565 2.095-5.094 2.534-1.764.507-4.15.895-6.813.737-1.477-.12-2.455-.55-2.822.644 3.375 1.235 6.946.707 6.946.707a.125.125 0 0 1 .138.112.134.134 0 0 1-.078.134s-2.743 1.274-7.101-.074c.121 1.023 1.117 1.48 1.592 1.666.6.233 1.255.341 1.255.341 5.4.929 10.448-2.158 11.585-2.937.086-.058.142 0 .073.102-.066.1-.07.105-.11.159-1.392 1.793-5.132 3.872-9.998 3.87-2.122 0-4.242-.748-5.022-1.896-1.209-1.782-.06-4.384 1.954-4.113l.881.1c2.517.28 6.16-.074 9.162-1.467 2.747-1.275 3.785-2.678 3.628-3.814a1.64 1.64 0 0 0-.473-.929c-.494-.483-1.276-.859-2.596-1.23-.436-.122-.733-.2-1.052-.305-.567-.186-.848-.336-.91-1.403a304.12 304.12 0 0 1-.139-2.762c-.052-1.176-.193-2.784-1.191-3.448a1.684 1.684 0 0 0-.853-.273c-.297-.014-.446.04-.506.05-.57.096-.906.4-1.326.75-1.244 1.036-2.295 1.206-3.463 1.156-.698-.029-1.438-.137-2.285-.188l-.497-.03c-1.957-.1-4.055 1.591-4.404 3.99-.486 3.34 1.934 5.066 2.631 6.08.09.121.192.291.192.454 0 .194-.126.348-.248.479v.001c-1.997 2.053-2.635 5.314-1.883 8.032.093.34.212.664.353.974 1.766 4.124 7.241 6.046 12.59 4.298a13.15 13.15 0 0 0 2.033-.858 10.678 10.678 0 0 0 3.112-2.326c1.42-1.483 2.264-3.095 2.591-5.081.165-1.065-.071-1.475-.393-1.673zm-7.203-6.829c-.007.44-.273.791-.594.787-.32-.006-.575-.367-.567-.807.007-.44.273-.79.594-.786.32.006.575.367.567.806zm-1.47-5.198c.624-.1.926.545 1.15 1.613.15.718.12 1.377-.046 1.76a3.607 3.607 0 0 0-.929 0c-.248-.318-.472-.83-.598-1.432-.223-1.067-.2-1.84.424-1.94zm-2.092 5.737c.141-.288.576-.364.97-.17.395.194.601.584.459.872-.141.288-.576.365-.97.17-.395-.194-.601-.584-.459-.872zm-2.445-.323c-.063.101-.202.082-.494.05-.528-.06-1.062-.095-1.871.194 0 0-.294.118-.426.118a.14.14 0 0 1-.096-.035c-.02-.017-.044-.049-.044-.107-.001-.119.108-.289.284-.443.205-.178.526-.37 1.106-.461.8-.095 1.387.278 1.524.498.059.095.036.157.017.186zm-4.465-1.1c-.105-.016-.149-.06-.163-.12-.04-.184.243-.487.542-.705.904-.65 2.076-.79 3.059-.368.481.204.933.569 1.154.928.107.175.127.31.058.38-.107.113-.382-.016-.828-.212-.447-.195-1.026-.414-1.725-.371-.99.06-1.85.495-2.097.467zm6.799-12.11c.086.02.14-.128.064-.171-1.13-.634-2.865-1.064-4.096-1.073-.06 0-.095-.07-.059-.12.213-.285.504-.569.77-.773.06-.047.023-.143-.052-.138-1.752.108-3.75.946-4.898 1.73a.076.076 0 0 1-.116-.08c.09-.43.371-.999.518-1.265.035-.062-.033-.132-.097-.1-1.846.945-3.906 2.626-5.58 4.561-.06.069.028.165.101.113 1.446-1.052 3.427-2.03 6.024-2.663 2.91-.71 5.71-.413 7.421-.02zm-6.249-5.995s-1.838-2.131-2.393-2.288C19.929 2.395 12.554 7.481 7.845 14.2c-1.905 2.72-4.632 7.534-3.329 10.01.161.307 1.07 1.095 1.558 1.502.817-1.186 2.153-2.045 3.668-2.34 1.93-5.178 5.15-9.95 9.414-13.233 3.166-2.64 6.579-4.533 6.579-4.533z"/></g></svg>