<svg xmlns="http://www.w3.org/2000/svg" width="86" height="38" fill="none" viewBox="0 0 86 38"><path fill="#1FB6FF" d="M72.538 24.407c-30.691-2.445-56.002 5.014-61.75 7.826-3.179 1.468-3.423 3.302-2.934 4.28.367.733 1.956 1.223 3.546.367 12.228-6.603 36.805-11.861 61.138-10.394.611 0 1.1-.489 1.1-1.1 0-.49-.489-.979-1.1-.979zm7.581-9.293c-1.345 1.468-3.18 2.568-3.79 2.08-.612-.49 0-2.324 0-2.324 3.056-1.956 8.926-6.97 8.926-10.883 0-3.546-3.18-4.646-6.48-1.345-2.691 2.935-4.647 6.603-5.748 10.516-1.712 1.712-4.524 3.913-6.97 3.913-1.345 0-1.59-.978-1.467-2.201 2.079 0 7.948-1.712 7.948-6.603 0-.856-.367-1.59-.978-2.2-.612-.612-1.345-.857-2.201-.735-2.69 0-5.992 2.69-7.704 6.603-.366-.122-.855-.244-1.222-.489.489-.978.733-1.956 1.1-2.934.367-2.08-.489-3.302-2.079-3.057-1.1 0-2.323.978-2.69 3.057-.122 1.1.123 2.2.49 3.056-.734 2.324-3.669 5.136-4.647 5.014-.978-.123.122-4.158 1.1-7.214.612-.612.979-1.223 1.346-2.08.244-.61.122-1.344-.49-1.589-1.467-.611-3.179.123-3.79 1.59-.367.733-.734 1.467-1.1 2.323-.857.978-2.08 2.323-2.446 2.201-.49-.367 1.345-2.812 1.1-4.28-.122-1.1-1.222-1.956-2.323-1.834-1.712.245-3.79 3.424-3.79 3.424.244-.611.366-1.223.489-1.834-.123-1.223-2.324-1.712-3.424.489-.734 2.079-1.345 4.28-1.59 6.48-.489.979-2.323 3.913-3.79 4.036-1.223.122.244-5.258.489-5.503.611-.978 1.467-3.057 1.345-4.035 0-.489-.122-.856-.49-1.1-.366-.245-.855-.367-1.222-.245-.734.245-1.345.734-1.712 1.345-.489-.611-1.345-.978-2.2-.856-4.892.49-7.949 9.049-7.582 13.084.245 2.2 1.345 3.546 3.18 3.179 2.078-.245 3.79-3.424 3.79-3.424s.489 2.568 2.812 2.323c1.712-.489 3.18-1.59 4.28-3.056 0 .122-.122.244-.122.489-.367 2.2 3.179 1.956 3.423.244 1.1-8.192 3.79-11.494 4.524-11.494.612 0-1.711 3.79-.366 5.38 1.1 1.223 2.934.245 4.524-1.1-.245.978-.367 2.079-.49 3.057-.121 2.323.734 4.157 2.935 4.035 2.935-.122 5.992-3.79 8.07-7.214.49.367 1.101.611 1.712.733-.244.856-.244 1.712-.244 2.446.122 2.69 1.956 3.668 4.157 3.546 2.446-.122 5.38-1.957 7.337-3.79 0 .121 0 .244-.122.244-.123 1.345.122 3.668 1.956 3.79 2.079.123 5.747-1.956 7.581-4.28 1.345-.733-.244-2.2-1.345-.977zM82.076 4.11c.244 0 .366.244.366.489 0 2.323-5.624 7.092-5.624 7.092s3.668-7.581 5.258-7.581zM68.38 8.878c.244 0 .366 0 .489.245.122.245.122.367.122.49 0 1.344-1.712 2.322-3.668 2.322 1.1-1.59 2.2-3.057 3.057-3.057zm-37.906 3.546c-.122 1.346-2.568 7.582-3.79 7.582-1.59.122.855-8.682 3.423-8.682.49 0 .49.367.367 1.1zM9.81 14.136c1.59 0-1.345 8.193-.978 11.739.367 3.546 4.28 2.568 4.035.489-.489-3.546 1.957-14.673 4.28-14.673 1.712 0-1.956 7.58-1.223 12.35.49 3.057 4.647 2.2 4.157.122-1.345-6.236 3.057-12.228 2.446-16.63-.245-1.834-1.345-2.812-2.446-2.812-3.912 0-7.091 8.07-7.091 8.07s.489-4.524-2.813-4.769C5.531 7.778.762 19.516.884 30.154c.122 3.424 4.28 2.813 4.035.123-.244-4.769 2.446-16.14 4.891-16.14z"/></svg>