<svg fill="none" height="30" viewBox="0 0 150 30" width="150" xmlns="http://www.w3.org/2000/svg"><path d="m24.846 23.215c-.008.115-.051.217-.128.307-.073.08-.192.149-.358.205-.164.057-.383.097-.657.12-.277.034-.626.051-1.047.051-.434 0-.786-.017-1.056-.05-.272-.025-.49-.065-.658-.121-.155-.057-.265-.126-.328-.205-.049-.091-.07-.193-.062-.307l.672-9.042c.036-.511.02-.978-.05-1.4-.06-.422-.182-.781-.365-1.079-.17-.308-.404-.542-.7-.701-.283-.17-.636-.256-1.059-.256-.512 0-1.045.2-1.6.6-.554.399-1.167.98-1.84 1.744l-.754 10.138c-.009.114-.051.217-.128.307-.073.08-.198.148-.374.204-.165.058-.384.098-.658.121-.277.034-.62.051-1.03.051-.422 0-.769-.017-1.042-.051-.271-.024-.49-.064-.657-.12-.156-.058-.266-.126-.329-.205-.06-.091-.088-.194-.08-.307l.672-9.042c.036-.512.02-.979-.05-1.401-.06-.422-.176-.78-.346-1.078-.171-.308-.404-.542-.7-.702-.295-.17-.648-.255-1.06-.255-.523 0-1.062.2-1.616.599-.554.4-1.162.98-1.823 1.744l-.755 10.139c-.008.114-.05.216-.128.306-.073.08-.197.15-.374.205-.164.057-.384.097-.658.12-.276.035-.625.052-1.046.052-.422 0-.769-.017-1.042-.051-.271-.025-.49-.065-.657-.12-.156-.058-.266-.126-.329-.206-.06-.09-.088-.193-.08-.306l1.132-15.25c.009-.114.045-.212.11-.292.063-.091.171-.166.325-.223.152-.057.343-.097.574-.12.243-.034.541-.052.895-.052.365 0 .666.018.902.052.237.024.417.064.539.12.134.057.225.132.274.223.051.08.072.178.064.292l-.132 1.761c.911-.913 1.8-1.597 2.667-2.051.877-.456 1.772-.683 2.685-.683.628 0 1.187.068 1.677.204.492.126.923.314 1.292.567.381.24.701.53.96.87.26.342.47.724.633 1.146.492-.49.968-.911 1.428-1.266.472-.353.926-.638 1.363-.855.45-.227.89-.392 1.319-.493.442-.114.885-.171 1.33-.171 1.014 0 1.856.17 2.526.511s1.194.808 1.571 1.401c.39.581.647 1.265.77 2.052.125.786.154 1.618.089 2.495l-.728 9.762zm17.244.05c-.012.158-.079.283-.2.376-.123.091-.31.154-.562.188-.243.045-.604.068-1.08.068-.512 0-.887-.023-1.124-.068-.226-.034-.386-.097-.483-.188-.085-.091-.121-.217-.11-.376l.092-1.213c-.677.672-1.434 1.196-2.27 1.57-.826.378-1.73.567-2.71.567-.808 0-1.547-.108-2.215-.325-.658-.205-1.222-.512-1.692-.923-.459-.421-.802-.94-1.03-1.556-.228-.615-.311-1.334-.25-2.155.066-.89.294-1.659.685-2.308.402-.66.96-1.203 1.677-1.625.727-.434 1.61-.753 2.652-.958 1.041-.204 2.24-.306 3.595-.306h1.487l.07-.923c.036-.479.016-.894-.061-1.248-.065-.365-.202-.667-.411-.906-.198-.24-.482-.416-.85-.53-.356-.114-.808-.171-1.355-.171-.718 0-1.368.079-1.949.237-.57.159-1.079.335-1.527.53-.447.195-.825.371-1.133.53-.297.158-.536.237-.717.237-.126 0-.237-.04-.333-.12-.085-.08-.156-.194-.214-.342-.046-.148-.078-.331-.096-.548-.019-.217-.018-.456.001-.718.027-.353.076-.633.146-.84.074-.205.195-.387.366-.548.17-.17.463-.353.877-.548.414-.205.895-.393 1.443-.566.548-.17 1.138-.308 1.772-.411.645-.115 1.304-.172 1.978-.172 1.197 0 2.208.12 3.032.36.838.228 1.512.587 2.022 1.078.512.478.865 1.1 1.06 1.863s.253 1.67.173 2.718l-.763 10.257zm-3.737-6.53h-1.64c-.695 0-1.291.05-1.79.153-.5.102-.91.256-1.232.462-.323.204-.57.455-.74.752-.158.285-.251.616-.28.992-.048.638.114 1.14.487 1.505.383.366.934.549 1.651.549.604 0 1.169-.155 1.693-.463.536-.308 1.088-.758 1.657-1.351l.194-2.6zm16.846 4.977c-.037.502-.1.889-.188 1.162-.077.262-.17.45-.282.566-.11.102-.27.2-.484.292-.2.08-.438.149-.716.205-.268.068-.562.12-.884.153-.31.035-.625.052-.944.052-.855 0-1.588-.109-2.198-.326-.609-.216-1.102-.547-1.48-.991-.377-.456-.636-1.026-.778-1.71-.142-.685-.179-1.495-.11-2.43l.582-7.813h-1.827c-.217 0-.372-.13-.466-.392-.094-.274-.118-.725-.073-1.352.024-.329.057-.609.097-.84.051-.228.11-.405.175-.53.067-.137.143-.234.227-.292.095-.058.2-.086.314-.086h1.812l.256-3.402c.008-.114.045-.216.11-.306.075-.092.194-.166.357-.223.177-.069.402-.114.676-.137.288-.034.637-.051 1.047-.051.421 0 .768.017 1.041.05.284.025.503.07.658.138.156.057.264.131.325.223.06.09.088.193.08.306l-.255 3.402h3.317c.114 0 .21.028.285.086.085.057.152.154.2.292.05.125.076.302.081.53.017.227.014.507-.01.84-.047.627-.138 1.078-.275 1.352-.134.261-.309.392-.524.392h-3.335l-.533 7.161c-.061.832.024 1.459.255 1.881.232.41.684.616 1.356.616.228 0 .435-.017.621-.051.186-.045.35-.09.49-.137l.369-.137c.105-.045.199-.068.28-.068.067 0 .128.023.182.068.066.034.11.113.135.238.024.114.04.273.05.478.019.205.016.466-.008.785l-.01.006zm18.969-6.344c-.1 1.357-.34 2.582-.717 3.675-.366 1.084-.856 2.007-1.47 2.77-.616.763-1.354 1.35-2.217 1.76-.862.41-1.829.616-2.9.616-.445 0-.852-.046-1.22-.137-.36-.08-.71-.206-1.05-.376-.328-.183-.653-.405-.975-.667s-.653-.57-.992-.922l-.533 7.178c-.008.115-.051.217-.128.307-.075.092-.2.166-.376.223-.165.068-.385.12-.661.154-.277.034-.626.05-1.047.05s-.768-.016-1.041-.05c-.272-.034-.491-.086-.658-.154-.156-.057-.264-.131-.325-.223-.061-.09-.088-.193-.08-.306l1.585-21.3c.009-.114.045-.212.11-.292.063-.091.165-.166.307-.223.152-.057.343-.097.573-.12.244-.035.542-.052.895-.052.341 0 .625.017.852.051.237.025.422.065.555.121.143.057.241.132.292.223.051.08.073.178.064.292l-.133 1.796c.478-.456.941-.854 1.388-1.197.46-.353.92-.643 1.381-.871.463-.24.932-.416 1.406-.53.488-.114 1-.171 1.535-.171 1.117 0 2.052.222 2.806.666.755.434 1.349 1.032 1.78 1.796.445.764.744 1.652.896 2.667.152 1.014.186 2.097.1 3.248zm-4.502.307c.048-.65.044-1.27-.015-1.863-.046-.604-.172-1.14-.376-1.608-.195-.468-.475-.838-.84-1.11-.354-.285-.816-.428-1.389-.428-.285 0-.573.046-.866.137-.28.08-.575.217-.886.411-.3.195-.614.446-.944.753-.329.308-.682.69-1.06 1.145l-.374 5.023c.548.764 1.08 1.356 1.595 1.778.516.41 1.07.615 1.662.615.56 0 1.044-.142 1.45-.427.42-.285.774-.655 1.06-1.11.285-.468.507-.992.665-1.572.168-.58.274-1.162.318-1.744zm11.682 7.54c-.008.115-.051.217-.128.307-.073.08-.198.149-.374.205-.165.057-.384.097-.658.12-.276.035-.625.052-1.047.052-.42 0-.768-.017-1.04-.052-.272-.024-.492-.064-.658-.12-.156-.057-.266-.125-.33-.205-.06-.091-.087-.193-.08-.307l1.674-22.48c.008-.115.05-.218.128-.308.075-.091.194-.165.358-.223.176-.068.401-.119.675-.153.277-.034.626-.051 1.047-.051s.769.017 1.041.051.485.085.64.153c.166.058.28.132.341.223.061.092.088.194.08.307l-1.673 22.481z" fill="#fff"/><path d="m101.651 15.437c-.097 1.3-.356 2.485-.778 3.557-.421 1.072-1.008 1.995-1.76 2.77-.753.774-1.67 1.372-2.75 1.795-1.08.421-2.321.632-3.723.632-1.356 0-2.522-.189-3.496-.566-.974-.378-1.766-.925-2.375-1.64-.609-.72-1.033-1.602-1.273-2.65-.241-1.047-.312-2.243-.212-3.589.097-1.3.357-2.485.778-3.556.434-1.084 1.027-2.007 1.78-2.77.752-.774 1.663-1.373 2.732-1.795 1.08-.422 2.321-.632 3.723-.632 1.368 0 2.54.188 3.515.566.974.365 1.76.907 2.356 1.626.609.718 1.033 1.601 1.273 2.648.241 1.048.311 2.25.21 3.608zm-4.438.172c.056-.752.043-1.442-.037-2.068-.067-.638-.225-1.19-.475-1.658s-.604-.833-1.063-1.096c-.448-.262-1.031-.393-1.748-.393-.638 0-1.206.12-1.703.36-.495.228-.914.57-1.257 1.026-.34.445-.615.987-.822 1.626-.194.627-.322 1.346-.383 2.156-.056.752-.045 1.448.033 2.086.079.627.237 1.174.475 1.64.25.468.604.833 1.063 1.096.46.251 1.043.376 1.75.376.649 0 1.221-.114 1.717-.341.497-.24.916-.582 1.257-1.027.34-.444.609-.98.803-1.607.195-.638.323-1.363.384-2.174z" fill="#11557c"/><path d="m113.598 21.712c-.036.502-.099.889-.188 1.162-.077.262-.17.45-.281.566-.11.102-.271.2-.484.292-.2.08-.439.149-.716.205-.268.068-.563.12-.885.153-.31.035-.625.052-.944.052-.855 0-1.587-.109-2.197-.326-.609-.216-1.103-.547-1.48-.991-.378-.456-.637-1.026-.778-1.71-.143-.685-.179-1.495-.11-2.43l.581-7.813h-1.827c-.216 0-.372-.13-.465-.392-.094-.274-.119-.725-.074-1.352.025-.329.057-.609.097-.84.051-.228.11-.405.176-.53.067-.137.142-.234.226-.292.095-.058.2-.086.314-.086h1.812l.256-3.402c.009-.114.045-.216.11-.306.075-.092.195-.166.358-.223.176-.069.402-.114.676-.137.287-.034.636-.051 1.046-.051.422 0 .769.017 1.042.05.283.025.503.07.657.138.156.057.264.131.325.223.061.09.088.193.081.306l-.256 3.402h3.317c.115 0 .21.028.285.086.085.057.152.154.201.292.049.125.076.302.081.53.017.227.013.507-.011.84-.047.627-.138 1.078-.274 1.352-.134.261-.309.392-.525.392h-3.333l-.534 7.161c-.061.832.025 1.459.256 1.881.231.41.683.616 1.355.616.228 0 .435-.017.621-.051.187-.045.35-.09.49-.137l.369-.137c.106-.045.199-.068.279-.068.069 0 .13.023.183.068.066.034.111.113.135.238.025.114.041.273.05.478.019.205.017.466-.008.785zm7.344 1.503c-.009.115-.051.217-.128.307-.073.08-.198.149-.375.205-.164.057-.383.097-.657.12-.277.035-.625.052-1.047.052-.421 0-.768-.017-1.041-.052-.272-.024-.491-.064-.658-.12-.156-.057-.265-.125-.328-.205-.061-.091-.088-.193-.081-.307l1.673-22.48c.009-.115.052-.218.128-.308.076-.091.195-.165.358-.223.177-.068.402-.119.676-.153.277-.034.626-.051 1.047-.051s.768.017 1.041.051c.272.034.485.085.639.153.167.058.281.132.342.223.061.092.088.194.08.307l-1.673 22.481zm8.614 0c-.008.115-.051.217-.128.307-.073.08-.198.149-.374.205-.165.057-.384.097-.658.12-.276.035-.625.052-1.047.052-.421 0-.768-.017-1.041-.052-.271-.024-.491-.064-.657-.12-.156-.057-.266-.125-.329-.205-.061-.091-.088-.193-.081-.307l1.133-15.215c.008-.114.05-.212.124-.292.076-.092.195-.166.358-.223.177-.068.402-.12.676-.154.277-.034.625-.05 1.047-.05.421 0 .768.016 1.041.05.272.035.485.086.639.154.167.057.281.131.342.223.061.08.088.178.08.292l-1.132 15.216h.007zm1.845-20.411c-.065.865-.286 1.463-.663 1.796-.378.328-1.045.493-2.002.493-.968 0-1.612-.16-1.931-.479-.307-.319-.429-.894-.365-1.726.064-.865.28-1.463.646-1.796.378-.34 1.051-.511 2.021-.511.957 0 1.594.164 1.912.493.317.319.445.894.384 1.726zm18.395 12.582c-.101 1.357-.34 2.576-.716 3.66-.378 1.083-.874 2.006-1.489 2.768-.615.764-1.348 1.35-2.199 1.761-.841.41-1.778.616-2.813.616-.512 0-.987-.051-1.425-.154-.439-.09-.854-.245-1.248-.462-.382-.216-.761-.49-1.136-.822-.363-.329-.732-.727-1.107-1.196l-.124 1.658c-.01.126-.053.234-.128.326-.063.08-.171.148-.323.204-.142.057-.333.098-.574.12-.241.025-.533.037-.877.037-.353 0-.648-.012-.886-.036-.226-.025-.411-.065-.555-.12-.134-.058-.225-.126-.274-.205-.049-.092-.07-.2-.062-.326l1.673-22.48c.009-.115.051-.218.128-.308.075-.091.195-.165.358-.223.177-.068.402-.119.676-.153.276-.034.625-.051 1.047-.051.421 0 .768.017 1.041.051.271.034.484.085.639.153.167.058.281.132.342.223.061.092.087.194.08.307l-.627 8.429c.417-.388.829-.718 1.237-.992s.812-.497 1.213-.667c.402-.183.81-.314 1.224-.393.416-.08.852-.12 1.308-.12 1.129 0 2.069.227 2.82.683.755.444 1.348 1.048 1.78 1.812.444.763.742 1.659.895 2.685.152 1.015.186 2.086.102 3.215zm-4.485.307c.049-.649.044-1.276-.014-1.881-.047-.604-.172-1.14-.377-1.608-.204-.468-.49-.838-.858-1.11-.353-.285-.822-.428-1.407-.428-.285 0-.567.04-.845.12-.281.08-.576.218-.886.412-.3.194-.615.445-.945.752-.329.308-.682.69-1.059 1.146l-.377 5.06c.548.774 1.08 1.366 1.595 1.777.529.4 1.095.599 1.699.599.56 0 1.044-.142 1.45-.427.41-.285.757-.656 1.042-1.111.296-.456.522-.974.679-1.556.158-.581.259-1.163.302-1.745z" fill="#fff"/><path d="m93.75 28.239c7.135 0 12.92-5.785 12.92-12.92 0-7.136-5.785-12.92-12.92-12.92s-12.92 5.784-12.92 12.92c0 7.135 5.785 12.92 12.92 12.92z" fill="#fff" stroke="#fff" stroke-linejoin="round" stroke-miterlimit="100000" stroke-width=".526"/><path d="m93.661 27.496c3.252 0 6.371-1.292 8.671-3.591 2.299-2.3 3.591-5.419 3.591-8.67 0-3.253-1.292-6.372-3.591-8.671-2.3-2.3-5.419-3.591-8.67-3.591-1.611 0-3.206.317-4.693.933-1.488.616-2.84 1.52-3.978 2.658-1.139 1.139-2.042 2.49-2.658 3.978s-.934 3.082-.934 4.692.318 3.205.934 4.693c.616 1.487 1.52 2.84 2.658 3.978s2.49 2.042 3.978 2.658 3.082.933 4.692.933z" fill="#fff" opacity=".05"/><g stroke-linejoin="round"><path d="m93.662 15.235h-12.262m12.262 0h12.261zm0 0 8.669-8.67-8.67 8.67zm0 0v-12.261zm0 0-8.67-8.67zm-.002.001 8.67 8.67m-8.67-8.67-8.669 8.67 8.67-8.67zm0 0v12.26z" opacity=".9" stroke="#858585" stroke-dasharray=".05 .05" stroke-linecap="round" stroke-width=".046"/><path d="m95.02 15.236-.036-.328-.12-.31-.19-.273-.254-.218-.291-.146-.328-.072-.327.007-.32.087-.292.16-.244.226-.182.277-.109.313-.03.328.052.327.13.306.201.266.255.207.302.146.328.062.327-.019.317-.098.284-.171.233-.233.17-.284.1-.317.021-.236" style="stroke:#818181;stroke-dasharray:.05 .05;stroke-linecap:square;stroke-miterlimit:100;stroke-width:.046;opacity:.9"/><path d="m97.747 15.236-.036-.568-.12-.557-.197-.536-.266-.502-.335-.463-.401-.412-.448-.35-.496-.284-.528-.218-.553-.139-.569-.058-.568.018-.56.099-.547.175-.51.255-.474.32-.422.383-.365.437-.302.484-.233.521-.157.546-.08.565v.572l.08.565.157.546.233.521.302.485.365.437.422.382.474.32.51.256.546.174.561.099.568.018.569-.058.553-.139.528-.218.496-.284.448-.35.4-.412.336-.462.266-.503.196-.535.12-.558.037-.568" style="stroke:#818181;stroke-dasharray:.05 .05;stroke-linecap:square;stroke-miterlimit:100;stroke-width:.046;opacity:.9"/><path d="m100.471 15.235-.036-.71-.109-.703-.182-.692-.256-.667-.327-.634-.39-.597-.448-.554-.503-.502-.553-.452-.598-.39-.634-.328-.666-.255-.693-.182-.702-.11-.71-.036-.711.037-.703.11-.692.181-.667.255-.634.328-.605.39-.546.448-.51.51-.448.554-.39.597-.328.634-.255.666-.182.693-.109.703-.036.71.036.71.11.703.181.692.255.667.328.634.39.597.448.554.503.503.553.448.598.39.634.327.666.255.693.182.703.11.71.036.71-.036.703-.11.692-.182.667-.255.634-.327.605-.39.553-.448.503-.503.448-.554.39-.597.327-.634.256-.667.182-.692.109-.703.036-.71" style="stroke:#818181;stroke-dasharray:.05 .05;stroke-linecap:square;stroke-miterlimit:100;stroke-width:.046;opacity:.9"/><path d="m103.196 15.235-.051-.998-.157-.983-.255-.966-.357-.932-.452-.89-.546-.837-.626-.776-.707-.707-.776-.626-.838-.547-.889-.451-.932-.357-.966-.255-.983-.157-.998-.05-.998.05-.984.157-.965.255-.933.357-.889.451-.837.547-.776.626-.707.707-.626.776-.547.838-.451.889-.358.932-.254.966-.157.983-.051.998.05.998.157.984.255.965.358.933.451.888.547.838.626.776.707.707.776.626.837.547.89.451.932.357.965.255.984.157.998.051.998-.051.983-.157.966-.255.932-.357.89-.451.837-.547.776-.626.707-.707.622-.772.547-.838.452-.889.357-.932.255-.966.156-.983.051-.998" style="stroke:#818181;stroke-dasharray:.05 .05;stroke-linecap:square;stroke-miterlimit:100;stroke-width:.046;opacity:.9"/><path d="m93.661 15.234 2.596-.826.003.007.011.037.004.018.01.036.004.019.011.036.015.058.01.051.012.058.007.044.004.018.003.037v.018l.008.044v.018l.003.036.004.018.003.037.004.025v.026l.004.036v.168h-2.694z" fill="#004cff" opacity=".56" stroke="#000" stroke-miterlimit="100" stroke-width=".106"/><path d="m93.661 15.235 2.922-7.636.145.055.146.058.022.011.116.051.022.011.139.066.16.08.11.058.043.026.091.047.044.026.109.062.022.014.131.08.131.08.022.015.11.073.021.014.128.088.127.087.022.015.102.073.036.029.08.062.037.036.036.037-5.045 6.327z" fill="#ceff29" opacity=".56" stroke="#000" stroke-miterlimit="100" stroke-width=".106"/><path d="m93.66 15.235-6.983-8.368.16-.13.2-.161.124-.091.037-.03.124-.09.083-.059.084-.058.084-.058.084-.059.127-.083.044-.03.131-.08.044-.025.182-.11.182-.101.226-.124.138-.073.048-.022.182-.091.182-.087.237-.102.145-.059.048-.018.19-.073.192-.073.244-.083.146-.048.047-.014.197-.059.197-.054.247-.066.146-.036.051-.011 2.404 10.52z" fill="#ff6800" opacity=".56" stroke="#000" stroke-miterlimit="100" stroke-width=".106"/><path d="m93.66 15.234-9.383 1.701-.01-.058-.02-.116-.017-.12-.008-.059-.014-.12-.007-.058-.015-.12-.007-.059-.019-.182-.014-.182-.011-.182-.004-.059-.003-.12v-.058l-.004-.12v-.357l.004-.12.003-.059.008-.12.007-.12v-.058l.01-.12.008-.059.011-.12.015-.12.007-.059.014-.12.008-.058.018-.12.01-.059.037-.182.037-.175.036-.175.015-.058.029-.116.014-.059.03-.116.014-.059.037-.116.036-.117.018-.058.037-.11.018-.057.036-.11.037-.11.022-.054.036-.109.022-.055.044-.109.021-.055.073-.167.073-.164.073-.164.025-.055 8.506 4.095.088.036z" fill="#ffc400" opacity=".56" stroke="#000" stroke-miterlimit="100" stroke-width=".106"/><path d="m93.66 15.235-4.502 3.067-.018-.03-.044-.065-.018-.03-.037-.057-.021-.037-.037-.058-.022-.037-.029-.05-.025-.044-.03-.051-.025-.044-.026-.044-.029-.054-.022-.048-.025-.054 4.86-2.342z" fill="#29ffce" opacity=".6" stroke="#000" stroke-miterlimit="100" stroke-width=".106"/><path d="m93.661 15.235 1.14 6.717-.131.022h-.026l-.109.014-.025.004-.11.01h-.025l-.11.012-.025.003-.11.008h-.025l-.109.007h-.054l-.08.003h-.401l-.11-.003h-.025l-.11-.007h-.025l-.11-.008-.054-.003-.055-.004h-.08l-.08-.01-.054-.008-.08-.011h-.055l-.08-.011-.051-.007-.08-.015-.052-.01-.08-.015-.05-.011-.11-.022 1.5-6.575z" fill="#7dff7a" opacity=".56" stroke="#000" stroke-miterlimit="100" stroke-width=".106"/><path d="m93.661 15.235 8.582 6.72-.127.16-.146.183-.135.156-.153.172-.145.145-.161.164-.145.146-.168.16-.153.139-.175.153-.156.13-.121.1-6.724-8.445z" fill="#ff6800" opacity=".56" stroke="#000" stroke-miterlimit="100" stroke-width=".106"/></g><path d="m93.661 27.496c3.252 0 6.371-1.292 8.671-3.591 2.299-2.3 3.591-5.419 3.591-8.67 0-3.253-1.292-6.372-3.591-8.671-2.3-2.3-5.419-3.591-8.67-3.591-1.611 0-3.206.317-4.693.933-1.488.616-2.84 1.52-3.978 2.658-1.139 1.139-2.042 2.49-2.658 3.978s-.934 3.082-.934 4.692.318 3.205.934 4.693c.616 1.487 1.52 2.84 2.658 3.978s2.49 2.042 3.978 2.658 3.082.933 4.692.933z" stroke="#11557c" stroke-miterlimit="100000" stroke-width=".23"/><path d="m93.662 15.234 2.596-.826.003.007.011.037.004.018.01.036.004.019.011.036.015.058.01.051.012.058.007.044.004.018.003.037v.018l.007.044v.018l.004.036.004.018.003.037.004.025v.026l.004.036v.168h-2.694z" opacity=".6" stroke="#000" stroke-linejoin="round" stroke-miterlimit="100" stroke-width=".106"/><path d="m93.662 15.235 2.921-7.636.146.055.146.058.022.011.116.051.022.011.139.066.16.08.11.058.043.026.091.047.044.026.109.062.022.014.131.08.131.08.022.015.11.073.021.014.128.088.127.087.022.015.102.073.036.029.08.062.037.036.036.037-5.045 6.327zm-.002 0-6.982-8.368.16-.13.2-.161.124-.091.037-.03.124-.09.083-.059.084-.058.084-.058.084-.059.127-.083.044-.03.131-.08.044-.025.182-.11.182-.101.226-.124.138-.073.048-.022.182-.091.182-.087.237-.102.145-.059.048-.018.19-.073.192-.073.244-.083.146-.048.047-.014.197-.059.197-.054.247-.066.146-.036.051-.011 2.404 10.52.026.106z" opacity=".6" stroke="#000" stroke-linejoin="round" stroke-miterlimit="100" stroke-width=".106"/><path d="m93.662 15.234-9.384 1.701-.01-.058-.02-.116-.017-.12-.008-.059-.014-.12-.008-.058-.014-.12-.007-.059-.019-.182-.014-.182-.011-.182-.004-.059-.003-.12v-.058l-.004-.12v-.357l.004-.12.003-.059.008-.12.007-.12v-.058l.01-.12.008-.059.011-.12.015-.12.007-.059.014-.12.008-.058.018-.12.01-.059.037-.182.037-.175.036-.175.015-.058.029-.116.014-.059.03-.116.014-.059.037-.116.036-.117.018-.058.037-.11.018-.057.036-.11.037-.11.022-.054.036-.109.022-.055.043-.109.022-.055.073-.167.073-.164.073-.164.025-.055 8.506 4.095.088.036z" opacity=".6" stroke="#000" stroke-linejoin="round" stroke-miterlimit="100" stroke-width=".106"/><path d="m93.661 15.235-4.502 3.067-.018-.03-.044-.065-.018-.03-.037-.057-.022-.037-.036-.058-.022-.037-.029-.05-.025-.044-.03-.051-.025-.044-.025-.044-.03-.054-.022-.048-.025-.054 4.86-2.342z" opacity=".56" stroke="#000" stroke-linejoin="round" stroke-miterlimit="100" stroke-width=".106"/><path d="m93.662 15.235 1.14 6.717-.131.022h-.026l-.109.014-.025.004-.11.01h-.025l-.11.012-.025.003-.11.008h-.025l-.109.007h-.055l-.08.003h-.4l-.11-.003h-.025l-.11-.007h-.025l-.11-.008-.054-.003-.055-.004h-.08l-.08-.01-.054-.008-.08-.011h-.055l-.08-.011-.051-.007-.08-.015-.051-.01-.08-.015-.052-.011-.109-.022 1.5-6.575z" opacity=".6" stroke="#000" stroke-linejoin="round" stroke-miterlimit="100" stroke-width=".106"/><path d="m93.662 15.235 8.582 6.72-.127.16-.146.183-.135.156-.153.172-.145.145-.161.164-.145.146-.168.16-.153.139-.175.153-.156.13-.121.1-6.724-8.445z" opacity=".6" stroke="#000" stroke-linejoin="round" stroke-miterlimit="100" stroke-width=".106"/></svg>