<svg width="49" height="24" viewBox="0 0 49 24" fill="none" xmlns="http://www.w3.org/2000/svg">
<path fill-rule="evenodd" clip-rule="evenodd" d="M2.27473 21.0941C-0.727031 18.1178 -0.726984 13.2923 2.27482 10.316L10.4278 2.23224C12.9654 -0.283773 16.8358 -0.672891 19.7856 1.06489C20.6981 1.6024 20.6901 2.83544 19.9396 3.57952C19.1892 4.3236 17.9641 4.25956 16.9455 3.96416C15.6411 3.5859 14.1742 3.90678 13.1455 4.92679L4.99247 13.0105C3.49157 14.4987 3.49155 16.9114 4.99243 18.3996C6.49334 19.8878 8.92684 19.8878 10.4277 18.3996L26.7336 2.23234C29.7355 -0.743955 34.6023 -0.743968 37.6042 2.23231L45.7573 10.316C48.7591 13.2922 48.7591 18.1178 45.7573 21.0941C42.7555 24.0704 37.8886 24.0704 34.8867 21.0941L32.1691 18.3996L28.772 21.7678C26.2344 24.2838 22.364 24.6729 19.4141 22.9351C18.5017 22.3976 18.5097 21.1646 19.2602 20.4205C20.0106 19.6764 21.2356 19.7404 22.2543 20.0358C23.5587 20.4141 25.0256 20.0932 26.0543 19.0732L29.5485 15.6088C30.9958 14.1738 33.3423 14.1738 34.7897 15.6088L37.6044 18.3996C39.1053 19.8877 41.5387 19.8877 43.0396 18.3996C44.5405 16.9114 44.5405 14.4987 43.0396 13.0105L34.8865 4.92688C33.3856 3.43874 30.9522 3.43875 29.4513 4.9269L13.1454 21.0942C10.1435 24.0705 5.27655 24.0705 2.27473 21.0941Z" fill="white"/>
</svg>
