<svg width="83" height="24" viewBox="0 0 83 24" fill="none" xmlns="http://www.w3.org/2000/svg">
<path fill-rule="evenodd" clip-rule="evenodd" d="M0.443359 21.523H5.47373C5.99323 21.523 6.41806 21.0982 6.41806 20.5787V11.8628L15.8077 22.3204L25.1979 11.8628V20.5787C25.1979 21.0982 25.6227 21.523 26.1422 21.523H31.1721V2.84717H26.9009C25.6666 2.84717 24.7465 3.44175 24.2494 3.99482L15.8077 13.3962L7.36612 3.99482C6.86947 3.44175 5.94893 2.84717 4.715 2.84717H0.443359V21.523Z" fill="#24ABE2"/>
<path fill-rule="evenodd" clip-rule="evenodd" d="M56.9297 21.5228H81.8153C82.3348 21.5228 82.7596 21.098 82.7596 20.5785V15.6046H70.6596L82.7247 2.86426H57.8545C57.3355 2.86426 56.9102 3.28956 56.9102 3.80859V8.78253H68.9948L56.9297 21.5228Z" fill="#24ABE2"/>
<path fill-rule="evenodd" clip-rule="evenodd" d="M44.7743 0C52.3686 0 58.5251 5.30831 58.5251 12.0002C58.5251 18.6917 52.3686 24 44.7743 24C37.1795 24 31.0234 18.6917 31.0234 12.0002C31.0234 5.30831 37.1795 0 44.7743 0ZM44.7743 5.99662C48.4775 5.99662 51.6532 8.68458 51.6532 12.0002C51.6532 15.3154 48.5735 18.0034 44.7743 18.0034C40.9751 18.0034 37.8949 15.3154 37.8949 12.0002C37.8949 8.68458 41.0711 5.99662 44.7743 5.99662Z" fill="#24ABE2"/>
</svg>
