<svg height="38" width="123" xmlns="http://www.w3.org/2000/svg"><path d="M122.556 5.137H83.14v3.96C79.39 3.687 72.683.077 64.99.077c-8.393 0-15.62 4.297-19.1 10.546l-.001-5.526h-12.07L23.086 20.105 10.182 5.097H.069L0 32.855h9.564l.092-13.39 12.617 14.479h2.343l11.65-14.48.121 13.39h9.507v-5.44c3.483 6.244 10.707 10.54 19.096 10.54 11.796 0 21.323-8.466 21.323-18.94 0-1.458-.2-2.87-.55-4.231H98.47l-17.968 18.11h40.035v-9.076h-16.013l18.032-18.68zM64.99 27.31c-5.203 0-9.394-3.724-9.394-8.346 0-4.621 4.192-8.344 9.394-8.344 5.207 0 9.397 3.723 9.397 8.344 0 4.622-4.19 8.346-9.397 8.346z"/></svg>