<svg xmlns="http://www.w3.org/2000/svg" width="51" height="54" fill="none"><path fill="#185C37" d="M32.023 25.82 11.86 21.847v29.371c0 1.341.974 2.429 2.174 2.429h34.792c1.2 0 2.174-1.088 2.174-2.429V40.396L32.023 25.82z"/><path fill="#21A366" d="M32.023.646H14.034c-1.2 0-2.174 1.087-2.174 2.428v10.822l20.163 13.25 10.674 3.975L51 27.146v-13.25L32.023.646z"/><path fill="#107C41" d="M11.86 13.896h20.163v13.25H11.86v-13.25z"/><path fill="#000" d="M26.291 11.246h-14.43V44.37h14.43c1.199-.005 2.17-1.09 2.174-2.429V13.674c-.004-1.34-.975-2.424-2.174-2.428z" opacity=".1"/><path fill="#000" d="M25.105 12.57H11.86v33.126h13.245c1.199-.005 2.17-1.09 2.174-2.429V15c-.004-1.339-.975-2.424-2.174-2.428z" opacity=".2"/><path fill="#000" d="M25.105 12.57H11.86v30.476h13.245c1.199-.005 2.17-1.09 2.174-2.429V15c-.004-1.34-.975-2.425-2.174-2.43z" opacity=".2"/><path fill="#000" d="M23.919 12.57H11.86v30.476h12.06c1.199-.005 2.17-1.09 2.174-2.429V15c-.004-1.34-.975-2.425-2.174-2.43z" opacity=".2"/><path fill="url(#a)" d="M2.174 12.57h21.745c1.2 0 2.174 1.088 2.174 2.43v24.292c0 1.341-.973 2.429-2.174 2.429H2.174C.974 41.72 0 40.634 0 39.292V15c0-1.34.973-2.428 2.174-2.428z"/><path fill="#fff" d="m6.733 35.04 4.574-7.917-4.19-7.873h3.37l2.287 5.035c.21.478.356.834.434 1.068h.03c.15-.382.308-.752.474-1.112l2.444-4.988h3.095l-4.297 7.827 4.406 7.96h-3.293l-2.641-5.526a4.981 4.981 0 0 1-.316-.738h-.039c-.077.25-.18.49-.306.715l-2.72 5.55H6.734z"/><path fill="#33C481" d="M48.826.646H32.023v13.25H51V3.074c0-1.34-.973-2.428-2.174-2.428z"/><path fill="#107C41" d="M32.023 27.146H51v13.25H32.023v-13.25z"/><defs><linearGradient id="a" x1="4.533" x2="24.543" y1="10.673" y2="41.695" gradientUnits="userSpaceOnUse"><stop stop-color="#18884F"/><stop offset=".5" stop-color="#117E43"/><stop offset="1" stop-color="#0B6631"/></linearGradient></defs></svg>