<svg xmlns="http://www.w3.org/2000/svg" width="50" height="40" fill="none" viewBox="0 0 50 40"><path fill="#fff" d="M49.375 18.75H26.25V12.5h6.25c1.328 0 2.5-1.094 2.5-2.5V2.5C35 1.172 33.828 0 32.5 0h-15C16.094 0 15 1.172 15 2.5V10c0 1.406 1.094 2.5 2.5 2.5h6.25v6.25H.625c-.39 0-.625.313-.625.625v1.25c0 .39.234.625.625.625H10v6.25H5c-1.406 0-2.5 1.172-2.5 2.5v7.5C2.5 38.906 3.594 40 5 40h12.5c1.328 0 2.5-1.094 2.5-2.5V30c0-1.328-1.172-2.5-2.5-2.5h-5v-6.25h25v6.25h-5c-1.406 0-2.5 1.172-2.5 2.5v7.5c0 1.406 1.094 2.5 2.5 2.5H45c1.328 0 2.5-1.094 2.5-2.5V30c0-1.328-1.172-2.5-2.5-2.5h-5v-6.25h9.375c.313 0 .625-.234.625-.625v-1.25c0-.313-.313-.625-.625-.625zM17.5 30v7.5H5V30h12.5zm0-20V2.5h15V10h-15zM45 30v7.5H32.5V30H45z"/></svg>