<svg width="47" height="48" viewBox="0 0 47 48" fill="none" xmlns="http://www.w3.org/2000/svg">
<path d="M28.8117 25.758C32.4127 24.4474 34.2693 20.4657 32.9587 16.8647C31.648 13.2637 27.6664 11.4071 24.0654 12.7177C20.4644 14.0284 18.6077 18.01 19.9184 21.611C21.229 25.212 25.2107 27.0687 28.8117 25.758Z" fill="#FF7F0E"/>
<path fill-rule="evenodd" clip-rule="evenodd" d="M23.3855 10.7168C18.6311 12.4473 16.1797 17.7044 17.9102 22.4588C19.6406 27.2133 24.8977 29.6647 29.6522 27.9342C34.4066 26.2037 36.858 20.9466 35.1276 16.1922C33.3971 11.4377 28.14 8.98632 23.3855 10.7168ZM14.9912 23.5212C12.674 17.1547 15.9566 10.1151 22.3231 7.79785C28.6897 5.48061 35.7293 8.76323 38.0465 15.1298C40.3637 21.4963 37.0811 28.5359 30.7146 30.8532C24.348 33.1704 17.3084 29.8878 14.9912 23.5212Z" fill="#2C7FB8"/>
<path fill-rule="evenodd" clip-rule="evenodd" d="M32.3222 36.6802C29.8882 37.5661 28.6332 40.2575 29.5191 42.6915C30.405 45.1256 33.0963 46.3806 35.5304 45.4946C37.9644 44.6087 39.2194 41.9174 38.3335 39.4833C37.4476 37.0493 34.7562 35.7943 32.3222 36.6802ZM27.4323 43.451C26.1269 39.8645 27.9762 35.8988 31.5627 34.5935C35.1492 33.2881 39.1149 35.1373 40.4203 38.7238C41.7256 42.3103 39.8764 46.276 36.2899 47.5814C32.7034 48.8868 28.7377 47.0376 27.4323 43.451Z" fill="#2C7FB8"/>
<path fill-rule="evenodd" clip-rule="evenodd" d="M6.2572 23.126C4.51387 23.7605 3.615 25.6881 4.24952 27.4315C4.88404 29.1748 6.81167 30.0737 8.555 29.4391C10.2983 28.8046 11.1972 26.877 10.5627 25.1337C9.92815 23.3903 8.00053 22.4915 6.2572 23.126ZM2.75493 27.9754C1.81997 25.4067 3.14444 22.5663 5.71321 21.6314C8.28198 20.6964 11.1223 22.0209 12.0573 24.5897C12.9922 27.1584 11.6678 29.9988 9.09898 30.9337C6.53021 31.8687 3.68988 30.5442 2.75493 27.9754Z" fill="#2C7FB8"/>
<path fill-rule="evenodd" clip-rule="evenodd" d="M16.0454 24.4924L11.593 26.1129L10.7227 23.7216L15.175 22.1011L16.0454 24.4924Z" fill="#2C7FB8"/>
<path fill-rule="evenodd" clip-rule="evenodd" d="M30.7723 36.205L28.5098 29.9887L31.8486 28.7734L34.1111 34.9898L30.7723 36.205Z" fill="#2C7FB8"/>
<path fill-rule="evenodd" clip-rule="evenodd" d="M38.5762 2.46649C39.9476 1.21711 42.0722 1.31606 43.3216 2.6875C44.571 4.05894 44.472 6.18354 43.1006 7.43292C41.7291 8.6823 39.6045 8.58335 38.3552 7.21191C37.1058 5.84047 37.2047 3.71587 38.5762 2.46649ZM44.4974 1.61638C42.6564 -0.404425 39.5258 -0.550226 37.505 1.29072C35.4842 3.13167 35.3384 6.26223 37.1794 8.28303C39.0203 10.3038 42.1509 10.4496 44.1717 8.60869C46.1925 6.76775 46.3383 3.63718 44.4974 1.61638Z" fill="#2C7FB8"/>
<path fill-rule="evenodd" clip-rule="evenodd" d="M33.5273 9.88858L37.0299 6.69775L38.7437 8.57899L35.2411 11.7698L33.5273 9.88858Z" fill="#2C7FB8"/>
<path fill-rule="evenodd" clip-rule="evenodd" d="M22.117 41.012C20.9315 40.8017 20.1411 39.6701 20.3514 38.4847C20.5618 37.2992 21.6933 36.5087 22.8788 36.7191C24.0642 36.9295 24.8547 38.061 24.6443 39.2465C24.434 40.4319 23.3025 41.2224 22.117 41.012ZM19.3351 38.3043C19.0251 40.0511 20.1899 41.7184 21.9366 42.0283C23.6834 42.3383 25.3507 41.1736 25.6607 39.4268C25.9706 37.6801 24.8059 36.0128 23.0591 35.7028C21.3124 35.3928 19.6451 36.5576 19.3351 38.3043Z" fill="#2C7FB8"/>
<path fill-rule="evenodd" clip-rule="evenodd" d="M28.2204 39.0426L25.1929 38.5054L24.9043 40.1315L27.9319 40.6687L28.2204 39.0426Z" fill="#2C7FB8"/>
<path fill-rule="evenodd" clip-rule="evenodd" d="M1.96276 17.6049C1.55489 16.4721 2.14254 15.2232 3.27533 14.8153C4.40811 14.4074 5.65706 14.9951 6.06494 16.1279C6.47281 17.2607 5.88515 18.5096 4.75236 18.9175C3.61958 19.3253 2.37063 18.7377 1.96276 17.6049ZM2.92565 13.8441C1.25651 14.4451 0.390602 16.2854 0.991596 17.9546C1.59259 19.6237 3.4329 20.4896 5.10204 19.8886C6.77118 19.2876 7.63709 17.4473 7.0361 15.7782C6.4351 14.109 4.59479 13.2431 2.92565 13.8441Z" fill="#2C7FB8"/>
<path fill-rule="evenodd" clip-rule="evenodd" d="M6.71077 21.9175L5.66909 19.0244L4.11523 19.5839L5.15691 22.4769L6.71077 21.9175Z" fill="#2C7FB8"/>
<path fill-rule="evenodd" clip-rule="evenodd" d="M43.7061 24.22C44.7984 24.7265 45.2733 26.0225 44.7669 27.1148C44.2605 28.2071 42.9645 28.682 41.8722 28.1756C40.7799 27.6692 40.3049 26.3732 40.8114 25.2809C41.3178 24.1886 42.6138 23.7136 43.7061 24.22ZM45.7034 27.5489C46.4495 25.9394 45.7497 24.0298 44.1402 23.2836C42.5307 22.5374 40.6211 23.2373 39.8749 24.8467C39.1287 26.4562 39.8286 28.3659 41.438 29.1121C43.0475 29.8582 44.9572 29.1584 45.7034 27.5489Z" fill="#2C7FB8"/>
<path fill-rule="evenodd" clip-rule="evenodd" d="M37.9974 23.0654L40.787 24.3588L40.0924 25.8571L37.3027 24.5637L37.9974 23.0654Z" fill="#2C7FB8"/>
<path d="M35.0635 44.2081C36.7871 43.5808 37.6758 41.6749 37.0484 39.9513C36.4211 38.2277 34.5153 37.339 32.7916 37.9663C31.068 38.5937 30.1793 40.4995 30.8067 42.2231C31.434 43.9467 33.3398 44.8355 35.0635 44.2081Z" fill="#FF7F0E"/>
<path d="M8.23236 28.5538C9.48664 28.0973 10.1333 26.7104 9.67683 25.4561C9.22031 24.2018 7.83344 23.5551 6.57916 24.0116C5.32488 24.4682 4.67817 25.855 5.13469 27.1093C5.59121 28.3636 6.97808 29.0103 8.23236 28.5538Z" fill="#FF7F0E"/>
<path d="M41.664 7.22078C42.9183 6.76426 43.565 5.37738 43.1085 4.1231C42.652 2.86883 41.2651 2.22212 40.0108 2.67864C38.7565 3.13516 38.1098 4.52203 38.5663 5.77631C39.0229 7.03059 40.4097 7.67729 41.664 7.22078Z" fill="#FF7F0E"/>
<path fill-rule="evenodd" clip-rule="evenodd" d="M36.6074 35.3978L40.4634 28.4976L41.905 29.3032L38.0491 36.2034L36.6074 35.3978Z" fill="#2C7FB8"/>
</svg>
