<svg xmlns="http://www.w3.org/2000/svg" width="42" height="48" fill="none" viewBox="0 0 42 48">
    <path fill="#fff" d="M2.152 25.098c0 1.495-.12 1.982-.428 2.341-.342.309-.787.48-1.247.479l.12.854c.714.01 1.407-.242 1.948-.709.29-.355.507-.765.637-1.205.129-.44.168-.903.115-1.359v-5.657H2.152v5.256zM10.692 24.423c0 .641 0 1.214.05 1.71H9.727l-.068-1.018c-.213.36-.517.657-.882.862-.365.204-.777.308-1.195.3-.991 0-2.17-.538-2.17-2.734v-3.65h1.144v3.42c0 1.187.368 1.982 1.402 1.982.213.002.424-.038.62-.118.198-.08.377-.2.527-.35.15-.15.27-.33.35-.527.08-.197.12-.408.118-.62V19.85h1.145v4.538l-.025.034zM12.862 21.927c0-.795 0-1.445-.052-2.034h1.026l.051 1.068c.229-.386.558-.703.952-.916.394-.214.84-.317 1.287-.298 1.522 0 2.667 1.274 2.667 3.171 0 2.239-1.376 3.35-2.863 3.35-.38.017-.76-.065-1.1-.237-.339-.172-.629-.429-.84-.746v3.419h-1.128v-6.777zm1.128 1.666c.003.155.02.31.051.462.097.38.318.715.627.955.31.24.69.37 1.082.37 1.205 0 1.915-.983 1.915-2.41 0-1.248-.667-2.317-1.872-2.317-.477.04-.923.251-1.255.596-.332.344-.527.798-.548 1.276v1.068zM20.833 19.887l1.376 3.683c.145.41.3.906.402 1.274.12-.376.248-.855.401-1.3l1.248-3.657h1.205l-1.71 4.444c-.854 2.136-1.375 3.239-2.161 3.905-.396.362-.879.615-1.402.735l-.282-.957c.366-.12.705-.308 1-.555.417-.34.748-.773.966-1.265.046-.085.078-.178.094-.273-.01-.104-.036-.205-.077-.3l-2.325-5.751h1.248l.017.017zM28.507 18.095v1.794h1.64v.855h-1.64v3.367c0 .769.222 1.213.854 1.213.225.004.449-.022.667-.077l.051.855c-.327.113-.671.165-1.017.154-.229.014-.458-.021-.672-.104-.214-.082-.407-.21-.567-.375-.348-.465-.507-1.045-.445-1.623v-3.419h-.974v-.854h.992v-1.522l1.11-.265zM32.257 23.21c-.023.29.017.58.117.854.1.273.26.52.465.726.205.206.453.364.726.465.273.1.564.14.854.117.586.013 1.169-.098 1.71-.325l.196.855c-.664.273-1.377.404-2.094.384-.418.029-.837-.033-1.23-.182-.39-.149-.746-.38-1.04-.679-.294-.299-.52-.658-.662-1.052-.142-.394-.197-.814-.162-1.232 0-1.88 1.12-3.367 2.949-3.367 2.05 0 2.564 1.795 2.564 2.94.01.177.01.353 0 .53H32.23l.026-.034zm3.35-.855c.033-.228.017-.461-.048-.683-.065-.221-.176-.427-.327-.602-.15-.175-.337-.315-.546-.412-.21-.097-.438-.148-.669-.149-.47.034-.91.242-1.233.584-.324.341-.51.791-.518 1.262h3.341zM38.387 21.831c0-.735 0-1.367-.051-1.948h1.026v1.222h.05c.108-.378.33-.712.637-.957.306-.245.681-.389 1.073-.41.108-.015.217-.015.325 0v1.067c-.13-.015-.263-.015-.393 0-.388.015-.758.171-1.04.439-.28.267-.455.628-.49 1.014-.032.175-.05.352-.051.53v3.325h-1.129V21.84l.043-.009z"/>
    <path fill="#767677" d="M37.885 2.722c.035.574-.102 1.146-.393 1.642-.29.496-.723.895-1.24 1.144-.519.25-1.1.34-1.67.259-.569-.082-1.1-.33-1.528-.716-.428-.385-.73-.888-.87-1.446-.141-.558-.112-1.145.083-1.686.194-.542.545-1.013 1.009-1.354.463-.34 1.017-.536 1.592-.56.377-.021.754.033 1.11.158.355.126.683.32.963.573.28.252.508.558.67.899.162.34.255.71.274 1.087z"/>
    <path fill="#F37726" d="M20.988 36.19c-7.692 0-14.452-2.76-17.947-6.836 1.356 3.667 3.803 6.831 7.012 9.065 3.209 2.235 7.025 3.433 10.935 3.433s7.726-1.198 10.934-3.433c3.21-2.234 5.656-5.398 7.012-9.065-3.486 4.077-10.22 6.837-17.946 6.837zM20.988 9.683c7.691 0 14.451 2.76 17.946 6.837-1.356-3.668-3.803-6.831-7.011-9.066-3.21-2.234-7.025-3.432-10.935-3.432S13.262 5.22 10.053 7.454C6.844 9.69 4.397 12.852 3.041 16.52c3.495-4.085 10.221-6.837 17.947-6.837z"/>
    <path fill="#9E9E9E" d="M10.399 44.123c.045.724-.126 1.444-.492 2.07-.366.625-.91 1.127-1.562 1.443-.652.315-1.383.43-2.1.328-.718-.102-1.389-.415-1.928-.9-.539-.484-.921-1.118-1.099-1.82-.177-.703-.141-1.442.103-2.124.245-.682.687-1.276 1.27-1.706.583-.43 1.28-.677 2.005-.709.474-.025.948.043 1.396.201.448.158.86.403 1.213.72.354.318.64.702.845 1.13.205.429.323.893.349 1.367z"/>
    <path fill="#616262" d="M3.914 8.754c-.414.011-.823-.1-1.174-.32s-.63-.54-.8-.918c-.17-.378-.226-.797-.158-1.206.068-.41.255-.79.538-1.093.282-.303.649-.515 1.052-.61.404-.096.826-.07 1.215.074.389.144.726.4.97.735.244.336.383.736.4 1.15.016.56-.19 1.104-.572 1.514-.382.41-.91.651-1.47.674z"/>
</svg>
