<svg xmlns="http://www.w3.org/2000/svg" width="46" height="48" fill="none" viewBox="0 0 46 48"><path fill="#4DABCF" d="M19.737 9.753L11.72 5.706l-8.803 4.393 8.237 4.135 8.584-4.48zM23.414 11.608l8.408 4.246-8.723 4.38-8.25-4.143 8.565-4.483zM34.645 5.766l8.638 4.332-7.727 3.88-8.424-4.25 7.513-3.962zM30.926 3.9L23.149 0l-7.692 3.84 8.014 4.04 7.455-3.98zM24.847 37.387V48l9.42-4.702-.009-10.617-9.411 4.706zM34.254 28.976l-.01-10.505-9.397 4.672V33.65l9.407-4.675zM45.564 27.01v10.653l-8.036 4.008-.006-10.604 8.042-4.058zM45.564 23.283v-10.44l-8.051 4.002.006 10.526 8.045-4.088z"/><path fill="#4D77CF" d="M21.521 23.143l-6.345-3.192v13.787S7.415 17.225 6.697 15.742c-.092-.192-.472-.402-.57-.454C4.728 14.558.65 12.494.65 12.494V36.86l5.642 3.024V27.142s7.677 14.755 7.757 14.917c.08.162.846 1.715 1.671 2.26 1.095.729 5.797 3.556 5.797 3.556l.004-24.732z"/></svg>