<svg xmlns="http://www.w3.org/2000/svg" width="125" height="32" fill="none" viewBox="0 0 125 32"><path fill="#fff" d="M44.058.175l15.27 28.087c.754 1.075 1.754 1.954 2.917 2.563 1.163.61 2.455.932 3.768.94 1.25-.06 2.469-.407 3.563-1.015 1.093-.607 2.032-1.459 2.744-2.488l10.861-20c.103-.19.254-.35.439-.462.185-.113.396-.175.612-.18h24.992c2.048.227 3.95 1.167 5.372 2.657 1.439 1.55 2.251 3.579 2.278 5.694.077 1.96-.567 3.882-1.81 5.4-.722.861-1.613 1.564-2.617 2.067-1.005.502-2.101.792-3.223.854H92.086v-13.84h-7.533v21.401h24.788c3.568-.273 6.959-1.663 9.693-3.97 1.737-1.43 3.155-3.207 4.161-5.22 1.005-2.011 1.577-4.212 1.679-6.459.159-2.329-.258-4.66-1.216-6.79-.957-2.129-2.425-3.988-4.273-5.414-2.964-2.529-6.732-3.916-10.628-3.912h-27.97c-.311 0-.617.083-.884.243-.268.159-.487.388-.634.662L67.327 23.357c-.137.23-.332.42-.564.553-.233.132-.497.201-.764.201-.268 0-.531-.07-.764-.201-.233-.133-.427-.323-.565-.553L52.233 0H50.86l-6.802.175zM0 31.767V7.212c.102-.64.279-1.268.526-1.868.253-.647.576-1.263.963-1.84C2.794 1.732 4.745.546 6.919.205 8.234.04 9.568.175 10.823.6c1.254.424 2.395 1.128 3.338 2.058l2.92 2.92L34.598 24.38s.321.35.584.35c.263 0 .467 0 .438-.35V.088h7.357v25.314c-.16.852-.415 1.684-.759 2.481-.748 1.175-1.773 2.148-2.984 2.835-1.211.688-2.573 1.067-3.965 1.107-4.583.204-7.299-3.504-8.759-4.934L8.993 7.59c-.17-.124-.374-.196-.584-.204-.183.015-.357.086-.497.205V32L0 31.767z"/></svg>