<svg xmlns="http://www.w3.org/2000/svg" width="40" height="48" fill="none" viewBox="0 0 40 48">
    <g fill-rule="evenodd" clip-path="url(#clip0)" clip-rule="evenodd">
        <path fill="#D6FF00" d="M19.942 0C9.352 0 .775 8.592.775 19.2h9.584c0-5.3 4.293-9.6 9.583-9.6V0z"/>
        <path fill="#34E27A" d="M39.108 19.2C39.108 8.592 30.531 0 19.941 0v9.6c5.29 0 9.584 4.3 9.584 9.6h9.583z"/>
        <path fill="#00B9F1" d="M19.941 38.4c10.59 0 19.167-8.592 19.167-19.2h-9.583c0 5.3-4.294 9.6-9.584 9.6v9.6z"/>
        <path fill="#fff" d="M10.359 38.4V19.2H.775V48h19.167v-9.6H10.36z"/>
    </g>
    <defs>
        <clipPath id="clip0">
            <path fill="#fff" d="M0 0H38.333V48H0z" transform="translate(0.775391)"/>
        </clipPath>
    </defs>
</svg>
