<svg width="49" height="48" viewBox="0 0 49 48" fill="none" xmlns="http://www.w3.org/2000/svg">
<path fill-rule="evenodd" clip-rule="evenodd" d="M44.6862 48H4.77421C2.66638 48 0.955078 46.2334 0.955078 44.0557V3.94435C0.955078 1.76557 2.66638 0 4.77525 0H44.6873C46.7972 0 48.5074 1.76557 48.5074 3.94435V44.0557C48.5074 46.2334 46.7961 48 44.6873 48" fill="#3F4F75"/>
<path fill-rule="evenodd" clip-rule="evenodd" d="M12.8336 18.7366C12.8974 18.8203 12.951 18.9114 12.9932 19.0079C12.8629 18.8914 12.7087 18.8049 12.5414 18.7543C12.5069 18.6792 12.4422 18.6155 12.365 18.6009L12.3421 18.5967C12.3208 18.5675 12.2982 18.5393 12.2742 18.5122C12.4736 18.5665 12.6676 18.6416 12.8336 18.7366ZM11.4061 20.6847C11.5282 20.6774 11.6492 20.6534 11.765 20.6107C11.7869 20.6367 11.8109 20.6639 11.836 20.6889C11.688 20.7301 11.533 20.7397 11.381 20.7171L11.4061 20.6858V20.6847ZM11.8736 19.2301C11.9211 19.2525 11.9712 19.269 12.0228 19.2792C12.0276 19.3162 12.03 19.3535 12.0301 19.3908C11.9456 19.2792 11.7922 19.2719 11.6784 19.3366L11.6576 19.2531L11.8287 19.2009C11.8422 19.2114 11.8569 19.2218 11.8736 19.2301ZM11.1254 19.3794C11.1372 19.4675 11.1593 19.554 11.1911 19.6371C11.1389 19.5797 11.1149 19.4941 11.1254 19.3794ZM12.5988 20.0576C12.5752 20.0113 12.5516 19.965 12.5278 19.9188C12.5505 19.8781 12.5697 19.8355 12.5852 19.7915C12.6165 19.8834 12.6186 19.9721 12.5988 20.0576ZM13.348 18.4371C13.3095 18.4106 13.2706 18.3849 13.2311 18.3599C13.1015 18.1878 12.9467 18.0362 12.772 17.9101C12.0228 17.3707 10.877 17.3185 10.3323 18.1731C10.3052 18.2148 10.2802 18.2587 10.2572 18.3046C9.90076 18.6157 9.66083 19.0389 9.57686 19.5046C9.52319 19.5214 9.47636 19.555 9.44329 19.6005C9.41021 19.646 9.39265 19.7009 9.39321 19.7571C9.37755 20.2997 9.65616 20.7244 10.0569 21.0082C10.4742 21.3839 11.093 21.5352 11.6982 21.5508C12.5936 21.5748 13.2113 21.0844 13.4889 20.4343L13.4993 20.4207C13.9762 19.7947 14.0315 18.9254 13.348 18.4371ZM12.8336 10.8374C12.8974 10.9212 12.951 11.0123 12.9932 11.1088C12.863 10.9921 12.7088 10.9055 12.5414 10.8552C12.5069 10.779 12.4422 10.7164 12.365 10.7018L12.3421 10.6966C12.3208 10.6677 12.2982 10.6398 12.2742 10.6131C12.4736 10.6663 12.6676 10.7414 12.8336 10.8374ZM11.4061 12.7856C11.5282 12.7783 11.6492 12.7543 11.765 12.7105C11.7869 12.7376 11.8109 12.7637 11.836 12.7887C11.6882 12.8312 11.533 12.8412 11.381 12.818L11.4061 12.7856ZM11.8736 11.331C11.9212 11.3528 11.9713 11.3689 12.0228 11.379C12.0276 11.4164 12.0301 11.454 12.0301 11.4917C11.9456 11.3801 11.7922 11.3717 11.6784 11.4374L11.6576 11.354L11.8287 11.3018C11.8422 11.3122 11.8569 11.3227 11.8736 11.331ZM11.1254 11.4781C11.1306 11.5126 11.1358 11.547 11.1452 11.5814C11.1577 11.6336 11.1734 11.6848 11.1911 11.7369C11.1389 11.6795 11.1149 11.594 11.1254 11.4781ZM12.5988 12.1564L12.5278 12.0187C12.5508 11.9769 12.5696 11.9352 12.5852 11.8914C12.6165 11.9832 12.6186 12.0719 12.5988 12.1564ZM13.348 10.5369C13.3096 10.5099 13.2707 10.4838 13.2311 10.4587C13.1015 10.2868 12.9468 10.1356 12.772 10.01C12.0228 9.46945 10.877 9.41832 10.3323 10.2729C10.3052 10.3147 10.2802 10.3585 10.2572 10.4034C9.90076 10.7145 9.66083 11.1377 9.57686 11.6034C9.52319 11.6202 9.47636 11.6538 9.44329 11.6993C9.41021 11.7447 9.39265 11.7997 9.39321 11.8559C9.37755 12.3985 9.65616 12.8232 10.0569 13.1081C10.4742 13.4827 11.093 13.634 11.6982 13.6507C12.5936 13.6747 13.2113 13.1842 13.4889 12.5341L13.4993 12.5206C13.9762 11.8945 14.0315 11.0253 13.348 10.5369ZM30.1939 18.7366C30.2578 18.8203 30.3114 18.9114 30.3536 19.0079C30.2232 18.8914 30.069 18.8049 29.9017 18.7543C29.8673 18.6792 29.8026 18.6155 29.7254 18.6009L29.7024 18.5967C29.6812 18.5675 29.6585 18.5393 29.6346 18.5122C29.8349 18.5665 30.028 18.6416 30.1939 18.7366ZM28.7664 20.6847C28.8885 20.6774 29.0096 20.6534 29.1254 20.6107C29.1483 20.6367 29.1713 20.6639 29.1963 20.6889C29.0483 20.7301 28.8933 20.7397 28.7414 20.7171L28.7664 20.6858V20.6847ZM29.2339 19.2301C29.2818 19.2526 29.3323 19.269 29.3842 19.2792C29.3886 19.3162 29.3907 19.3535 29.3904 19.3908C29.3069 19.2792 29.1525 19.2719 29.0388 19.3366L29.0179 19.2531L29.189 19.2009C29.2026 19.2114 29.2172 19.2218 29.2339 19.2301ZM28.4857 19.3794C28.4976 19.4675 28.5197 19.554 28.5515 19.6371C28.4993 19.5797 28.4753 19.4941 28.4857 19.3794ZM29.9591 20.0576C29.9356 20.0113 29.9119 19.965 29.8882 19.9188C29.9112 19.8781 29.9307 19.8355 29.9466 19.7915C29.9769 19.8834 29.9789 19.9721 29.9591 20.0576ZM30.7083 18.4371C30.6702 18.4106 30.6316 18.3849 30.5925 18.3599C30.4626 18.1877 30.3074 18.0361 30.1323 17.9101C29.3842 17.3707 28.2374 17.3185 27.6927 18.1731C27.6666 18.2148 27.6405 18.2587 27.6176 18.3046C27.2609 18.6156 27.0209 19.0388 26.9372 19.5046C26.8835 19.5214 26.8367 19.555 26.8036 19.6005C26.7706 19.646 26.753 19.7009 26.7536 19.7571C26.7379 20.2997 27.0165 20.7244 27.4172 21.0082C27.8346 21.3839 28.4544 21.5352 29.0586 21.5508C29.9539 21.5748 30.5716 21.0844 30.8492 20.4343L30.8596 20.4207C31.3365 19.7947 31.3918 18.9254 30.7083 18.4371ZM30.1939 10.8374C30.2578 10.9212 30.3114 11.0123 30.3536 11.1088C30.2234 10.9921 30.0691 10.9055 29.9017 10.8552C29.8673 10.779 29.8026 10.7164 29.7254 10.7018L29.7024 10.6966C29.6812 10.6677 29.6585 10.6398 29.6346 10.6131C29.8349 10.6663 30.028 10.7414 30.1939 10.8374ZM28.7664 12.7856C28.8885 12.7783 29.0096 12.7543 29.1254 12.7105C29.1483 12.7376 29.1713 12.7637 29.1963 12.7887C29.0486 12.8312 28.8934 12.8412 28.7414 12.818L28.7664 12.7856ZM29.2339 11.331C29.2819 11.3529 29.3324 11.369 29.3842 11.379C29.3887 11.4164 29.3908 11.454 29.3904 11.4917C29.3069 11.3801 29.1525 11.3717 29.0388 11.4374L29.0179 11.354L29.189 11.3018C29.2026 11.3122 29.2172 11.3227 29.2339 11.331ZM28.4857 11.4792C28.501 11.5667 28.523 11.6528 28.5515 11.7369C28.4993 11.6806 28.4753 11.595 28.4857 11.4792ZM29.9591 12.1574L29.8882 12.0197C29.9111 11.978 29.9299 11.9362 29.9466 11.8924C29.9769 11.9842 29.9789 12.0729 29.9591 12.1574ZM30.7083 10.538C30.6703 10.511 30.6317 10.4849 30.5925 10.4597C30.4626 10.2878 30.3075 10.1365 30.1323 10.011C29.3842 9.47049 28.2374 9.41936 27.6927 10.274C27.6666 10.3157 27.6405 10.3595 27.6176 10.4044C27.2609 10.7154 27.0209 11.1387 26.9372 11.6044C26.8835 11.6212 26.8367 11.6548 26.8036 11.7003C26.7706 11.7458 26.753 11.8007 26.7536 11.8569C26.7379 12.3995 27.0165 12.8242 27.4172 13.1091C27.8346 13.4837 28.4544 13.635 29.0586 13.6517C29.9539 13.6757 30.5716 13.1853 30.8492 12.5352L30.8596 12.5216C31.3365 11.8955 31.3918 11.0263 30.7083 10.538Z" fill="#80CFBE"/>
<path fill-rule="evenodd" clip-rule="evenodd" d="M12.0746 25.8887C10.9101 25.8887 9.9668 26.8487 9.9668 28.0341V36.6126C9.9668 37.7969 10.9101 38.7569 12.0746 38.7569C13.2391 38.7569 14.1824 37.7969 14.1824 36.6126V28.0341C14.1824 26.8498 13.2391 25.8898 12.0746 25.8898V25.8887ZM28.9393 25.8887C27.7748 25.8887 26.8315 26.8487 26.8315 28.0341V36.6126C26.8315 37.7969 27.7748 38.7569 28.9393 38.7569C30.1028 38.7569 31.0471 37.7969 31.0471 36.6126V28.0341C31.0471 26.8498 30.1028 25.8898 28.9393 25.8898V25.8887ZM20.507 17.3113C19.3424 17.3113 18.3991 18.2713 18.3991 19.4546V36.6126C18.3991 37.7969 19.3424 38.7569 20.507 38.7569C21.6715 38.7569 22.6148 37.7969 22.6148 36.6126V19.4546C22.6148 18.2703 21.6715 17.3103 20.507 17.3103V17.3113ZM37.3717 17.3113C36.2071 17.3113 35.2638 18.2713 35.2638 19.4546V36.6126C35.2638 37.7969 36.2071 38.7569 37.3717 38.7569C38.5351 38.7569 39.4795 37.7969 39.4795 36.6126V19.4546C39.4795 18.2703 38.5351 17.3103 37.3717 17.3103" fill="white"/>
<path fill-rule="evenodd" clip-rule="evenodd" d="M38.7023 12.5666C38.577 12.7618 38.4278 12.8964 38.2682 12.9778C38.3725 12.815 38.4748 12.6209 38.5635 12.408C38.5843 12.3648 38.6038 12.321 38.6219 12.2765C38.6887 12.216 38.7263 12.1263 38.7002 12.0397C38.7023 12.0365 38.7023 12.0324 38.7033 12.0292C38.8348 11.9311 38.9277 11.7496 38.9621 11.5545L38.984 11.52C38.9944 11.8863 38.9026 12.2536 38.7023 12.5666ZM35.9308 11.8644C35.9231 11.7752 35.92 11.6857 35.9214 11.5962C36.0038 11.904 36.128 12.2056 36.2553 12.4696C36.3283 12.6658 36.4223 12.8724 36.5412 13.0226C36.4799 12.9838 36.4222 12.9395 36.369 12.8901C36.0883 12.6292 35.9663 12.2358 35.9308 11.8644ZM37.375 11.4418C37.3636 11.2456 37.367 11.0489 37.3854 10.8532C37.4104 10.8637 37.4355 10.8751 37.4616 10.8908L37.5023 10.919C37.5377 11.1047 37.5263 11.3583 37.375 11.4407V11.4418ZM39.2772 10.6216C39.2751 10.5587 39.259 10.497 39.2302 10.441C39.2013 10.3851 39.1603 10.3363 39.1103 10.2981C38.9303 9.99989 38.6875 9.74455 38.3986 9.54993C37.999 9.28385 37.5482 9.15341 37.2664 9.50089C37.161 9.49134 37.0551 9.48612 36.9492 9.48524C36.8845 9.48419 36.825 9.48941 36.7687 9.49776C36.4327 9.36524 36.0737 9.36211 35.9183 9.79202C35.8599 9.96258 35.8272 10.1409 35.8212 10.3211C35.7573 10.3688 35.7017 10.4266 35.6563 10.4922C35.3297 10.9607 35.3767 11.7861 35.5061 12.3078C35.7252 13.1969 36.6717 13.896 37.4918 13.6331C37.5607 13.6215 37.6262 13.5952 37.6838 13.5558C38.1221 13.6383 38.6 13.4911 38.9809 13.0268C39.5496 12.335 39.608 11.399 39.2772 10.6216ZM21.8438 12.5666C21.7186 12.7618 21.5683 12.8964 21.4087 12.9778C21.5141 12.815 21.6153 12.6209 21.705 12.408C21.7259 12.3652 21.7447 12.3214 21.7624 12.2765C21.8292 12.216 21.8668 12.1263 21.8417 12.0397C21.8427 12.0362 21.8438 12.0327 21.8449 12.0292C21.9763 11.9311 22.0682 11.7496 22.1037 11.5545L22.1245 11.52C22.135 11.8863 22.0442 12.2536 21.8428 12.5666H21.8438ZM19.0723 11.8644C19.0643 11.7752 19.0608 11.6857 19.0619 11.5962C19.1454 11.904 19.2685 12.2056 19.3958 12.4696C19.4689 12.6658 19.5628 12.8724 19.6828 13.0226C19.6214 12.9838 19.5638 12.9395 19.5106 12.8901C19.2299 12.6292 19.1068 12.2358 19.0723 11.8644ZM20.5165 11.4418C20.5049 11.2456 20.5084 11.0489 20.527 10.8532C20.551 10.8637 20.576 10.8751 20.6021 10.8908C20.6167 10.8991 20.6292 10.9085 20.6438 10.919C20.6783 11.1047 20.6668 11.3583 20.5165 11.4407V11.4418ZM22.4177 10.6216C22.4158 10.5587 22.3998 10.4971 22.3711 10.4412C22.3425 10.3853 22.3017 10.3364 22.2518 10.2981C22.0716 9.99978 21.8284 9.74444 21.5391 9.54993C21.1405 9.28385 20.6887 9.15341 20.408 9.50089C20.3025 9.49134 20.1967 9.48612 20.0908 9.48524C20.0261 9.48419 19.9656 9.48941 19.9103 9.49776C19.5732 9.36524 19.2143 9.36211 19.0588 9.79202C19.0006 9.96264 18.9679 10.1409 18.9617 10.3211C18.8979 10.3688 18.8422 10.4266 18.7969 10.4922C18.4713 10.9607 18.5172 11.7861 18.6466 12.3078C18.8657 13.1969 19.8132 13.896 20.6334 13.6331C20.7022 13.6215 20.7677 13.5952 20.8254 13.5558C21.2637 13.6383 21.7405 13.4911 22.1224 13.0268C22.6901 12.335 22.7485 11.399 22.4177 10.6216Z" fill="#80CFBE"/>
</svg>
