<svg xmlns="http://www.w3.org/2000/svg" width="90" height="32" fill="none" viewBox="0 0 90 32"><path stroke="#FF7849" stroke-width="2" d="M22.624 10.897c0 5.432-3.869 9.62-8.39 9.62H1.45V1.276h12.782c4.522 0 8.39 4.188 8.39 9.62zM1.117 21.333v10M88.278 10.897c0 5.432-3.869 9.62-8.39 9.62H67.106V1.276h12.782c4.521 0 8.39 4.188 8.39 9.62zM67.117 21.333v10"/><circle cx="44.59" cy="16" r="15" stroke="#FF7849" stroke-width="2"/><rect width="2.171" height="3.968" x="40.592" y="7.915" fill="#FF7849" rx="1.086" transform="rotate(-20 40.5918 7.91504)"/><rect width="2.171" height="3.968" fill="#FF7849" rx="1.086" transform="matrix(0.939693 0.34202 0.34202 -0.939693 45.6914 10.9009)"/><rect width="2.171" height="3.968" fill="#FF7849" rx="1.086" transform="matrix(0.939693 0.34202 0.34202 -0.939693 40.5918 23.5906)"/><rect width="2.171" height="3.968" fill="#FF7849" rx="1.086" transform="matrix(-0.34202 0.939693 0.939693 0.34202 37.0547 11.5032)"/><rect width="2.171" height="3.968" x="45.691" y="20.605" fill="#FF7849" rx="1.086" transform="rotate(-20 45.6914 20.6047)"/><rect width="2.171" height="3.968" x="40.043" y="16.605" fill="#FF7849" rx="1.086" transform="rotate(70 40.043 16.6047)"/><rect width="2.171" height="3.968" x="52.73" y="11.503" fill="#FF7849" rx="1.086" transform="rotate(70 52.7305 11.5032)"/><rect width="2.171" height="3.968" fill="#FF7849" rx="1.086" transform="matrix(-0.34202 0.939693 0.939693 0.34202 49.7461 16.6047)"/><circle cx="44.864" cy="15.724" r="1.379" fill="#FF7849"/></svg>