<svg width="114" height="28" viewBox="0 0 114 28" fill="none" xmlns="http://www.w3.org/2000/svg">
<path d="M14.8974 6.38803L13.3586 7.92676C15.8765 10.4447 15.8765 14.5013 13.3586 16.9726C10.8407 19.4905 6.78412 19.4905 4.31285 16.9726C1.79495 14.4547 1.79495 10.398 4.31285 7.92676L8.29953 3.94007L8.85906 3.38055V0.373047L2.84407 6.38803C-0.513129 9.74524 -0.513129 15.1541 2.84407 18.5113C6.20128 21.8685 11.6101 21.8685 14.8974 18.5113C18.2546 15.1307 18.2546 9.74524 14.8974 6.38803Z" fill="#EE4C2C"/>
<path d="M11.8906 6.015C12.5086 6.015 13.0096 5.51398 13.0096 4.89593C13.0096 4.27789 12.5086 3.77686 11.8906 3.77686C11.2725 3.77686 10.7715 4.27789 10.7715 4.89593C10.7715 5.51398 11.2725 6.015 11.8906 6.015Z" fill="#EE4C2C"/>
<path d="M30.4486 14.0815H27.8607V20.7259H25.9023V1.81836C25.9023 1.81836 30.3786 1.81836 30.6584 1.81836C35.6242 1.81836 38.0023 4.26632 38.0023 7.69347C38.0722 11.9133 35.1347 14.0815 30.4486 14.0815ZM30.6584 3.70678C30.4486 3.70678 27.9307 3.70678 27.9307 3.70678V12.4029L30.5884 12.3329C34.1555 12.263 36.1138 10.8642 36.1138 7.92661C36.1138 5.17557 34.1555 3.70678 30.6584 3.70678Z" fill="black"/>
<path d="M46.7688 20.6562L45.6497 23.6637C44.3907 27.0209 43.0618 28.0001 41.1734 28.0001C40.1243 28.0001 39.3549 27.7203 38.5156 27.3706L39.0752 25.6221C39.7046 25.9718 40.4041 26.2516 41.1734 26.2516C42.2225 26.2516 42.9919 25.692 44.041 23.0342L44.9503 20.5863L39.5648 6.92432H41.5931L45.9294 18.3481L50.1959 6.92432H52.1543L46.7688 20.6562Z" fill="black"/>
<path d="M58.5423 3.70667V20.7958H56.5839V3.70667H49.9395V1.88818H65.1401V3.70667C65.1168 3.70667 58.5423 3.70667 58.5423 3.70667Z" fill="black"/>
<path d="M70.6659 21.1456C66.8192 21.1456 64.0215 18.278 64.0215 13.8717C64.0215 9.46538 66.959 6.52783 70.8758 6.52783C74.7925 6.52783 77.5202 9.39543 77.5202 13.8018C77.4503 18.2081 74.5127 21.1456 70.6659 21.1456ZM70.7359 8.27638C67.7983 8.27638 65.9099 10.5845 65.9099 13.8717C65.9099 17.2289 67.8683 19.537 70.8058 19.537C73.7434 19.537 75.6318 17.2289 75.6318 13.9417C75.6318 10.5145 73.6734 8.27638 70.7359 8.27638Z" fill="black"/>
<path d="M82.2048 20.7958H80.3164V6.92404L82.2048 6.50439V9.44196C83.1141 7.69341 84.443 6.50439 86.2615 6.50439C87.1707 6.50439 88.01 6.78416 88.7094 7.13387L88.2198 8.88242C87.5903 8.53271 86.8909 8.25294 86.1216 8.25294C84.6528 8.25294 83.3239 9.372 82.2048 11.82V20.7958Z" fill="black"/>
<path d="M96.0773 21.1456C91.8808 21.1456 89.293 18.1382 89.293 13.8717C89.293 9.53533 92.1606 6.52783 96.0773 6.52783C97.7559 6.52783 99.2247 6.94748 100.414 7.71684L99.9241 9.39544C98.875 8.69602 97.5461 8.27638 96.0773 8.27638C93.0698 8.27638 91.2513 10.5145 91.2513 13.8018C91.2513 17.159 93.2097 19.3971 96.1473 19.3971C97.5461 19.3971 98.9449 18.9775 99.994 18.278L100.414 20.0266C99.1547 20.726 97.686 21.1456 96.0773 21.1456Z" fill="black"/>
<path d="M111.977 20.796V11.8201C111.977 9.37218 110.998 8.32305 109.04 8.32305C107.431 8.32305 105.892 9.16236 104.773 10.2814V20.796H102.885V0.419648L104.773 0C104.773 0 104.773 8.69608 104.773 8.76602C106.242 7.29725 108.06 6.59783 109.599 6.59783C112.257 6.59783 113.936 8.34637 113.936 11.3539V20.8193H111.977V20.796Z" fill="black"/>
</svg>
