<svg xmlns="http://www.w3.org/2000/svg" width="117" height="32" fill="none" viewBox="0 0 117 32"><path fill="#fff" fill-rule="evenodd" d="M14.094 0C21.43 0 28.36 5.718 28.36 14.036c0 4.679-2.195 8.491-5.314 11.033.924 1.501 2.08 2.541 3.466 2.541 1.617 0 2.31-1.27 2.426-2.31h2.08c.115 1.386-.579 6.7-6.355 6.7-3.581 0-5.43-2.08-6.816-4.39-1.155.231-2.426.462-3.696.462C7.047 28.072 0 22.354 0 14.036S7.047 0 14.094 0zm51.812 6.296c5.892 0 10.628 4.159 10.686 10.34 0 6.527-4.794 10.8-10.686 10.8-5.718 0-10.686-4.331-10.686-10.8 0-6.297 4.91-10.34 10.686-10.34zm38.874 0c5.198 0 8.433 1.386 8.433 6.585v8.895c0 1.387.462 2.08 1.617 2.08.578 0 1.04-.232 1.271-.347l.52 1.04c-.462.808-1.964 2.31-4.737 2.31-2.426 0-3.927-1.155-4.158-3.003h-.116c-1.155 2.079-3.235 3.465-6.238 3.465-3.581 0-5.776-1.848-5.776-5.198 0-6.585 9.184-4.737 11.841-9.127v-1.04c0-3.118-1.271-3.812-2.657-3.812-4.159 0-2.311 4.852-6.007 4.852-1.849 0-2.542-1.04-2.542-2.31 0-2.426 3.004-4.39 8.549-4.39zm-65.733.462v13.516c0 2.542 1.27 3.697 3.12 3.697 1.5 0 3.118-.693 3.927-2.31V10.455c0-1.155-.347-1.617-1.617-1.617H43.09v-2.08h8.78v14.845c0 1.386.462 2.08 2.08 2.08h.23v2.194l-7.855 1.271v-2.946h-.116c-1.501 1.906-3.696 3.061-6.585 3.061-3.58 0-6.238-1.848-6.238-6.815v-9.993c0-1.155-.462-1.617-1.733-1.617h-1.27v-2.08h8.664zm52.159-.346c1.848 0 3.35 1.04 3.35 3.119 0 1.502-.693 3.003-2.773 3.003-1.733 0-2.079-1.617-3.58-1.617-1.272 0-2.311 1.27-2.311 3.12v8.201c0 1.849.462 2.426 2.541 2.426h1.155v2.195H77.112v-2.137h.809c2.079 0 2.31-.578 2.31-2.426V10.455c0-1.155-.578-1.617-1.848-1.617h-1.156v-2.08H85.2l.346 4.159h.231c.809-3.004 3.235-4.505 5.43-4.505zm-77.054-4.16c-5.314 0-7.625 3.986-7.625 11.726s2.31 11.726 7.625 11.726c.982 0 1.848-.231 2.541-.462-1.04-2.426-2.426-4.737-5.083-4.737-.462 0-.924.116-1.386.347l-.809-1.617c1.155-.982 2.715-1.733 4.852-1.733 3.35 0 5.083 1.617 6.47 3.697.808-1.733 1.155-4.16 1.155-7.22 0-7.74-2.31-11.726-7.74-11.726zM65.906 8.26c-2.772 0-4.39 2.773-4.39 8.318 0 5.66 1.618 8.548 4.39 8.548 3.004 0 4.159-2.888 4.274-8.548.116-5.488-1.27-8.318-4.274-8.318zm41.473 7.162c-1.848 2.022-6.123 2.31-6.123 6.008 0 1.848 1.156 2.888 2.657 2.888 2.542 0 3.466-2.195 3.466-4.621v-4.275z" clip-rule="evenodd"/></svg>