<svg xmlns="http://www.w3.org/2000/svg" width="54" height="53" fill="none"><g fill-rule="evenodd" clip-path="url(#a)" clip-rule="evenodd"><path fill="url(#b)" d="M41.239 34.982 10.895 53l39.29-2.666 3.026-39.618-11.972 24.266z"/><path fill="url(#c)" d="m50.249 50.307-3.377-23.308-9.199 12.146L50.25 50.307z"/><path fill="url(#d)" d="m50.294 50.307-24.74-1.942-14.528 4.584 39.268-2.642z"/><path fill="url(#e)" d="m11.061 52.954 6.18-20.247-13.6 2.908 7.42 17.34z"/><path fill="url(#f)" d="m37.67 39.212-5.686-22.275-16.275 15.255 21.962 7.02z"/><path fill="url(#g)" d="M51.92 17.25 36.536 4.687l-4.284 13.85L51.92 17.25z"/><path fill="url(#h)" d="m44.726.207-9.048 5L29.97.14l14.756.067z"/><path fill="url(#i)" d="m.063 42.407 3.79-6.913L.787 27.26.063 42.407z"/><path fill="#fff" d="m.583 26.999 3.085 8.75 13.405-3.007 15.303-14.223 4.319-13.717L29.895 0 18.332 4.327C14.691 7.715 7.623 14.418 7.367 14.544 7.115 14.673 2.7 23.018.583 27z"/><path fill="url(#j)" d="M11.415 11.28C19.31 3.452 29.487-1.172 33.392 2.768c3.904 3.94-.236 13.517-8.13 21.342-7.895 7.825-17.946 12.704-21.849 8.764-3.905-3.938.108-13.77 8.002-21.594z"/><path fill="url(#k)" d="m11.061 52.946 6.132-20.311 20.365 6.542c-7.363 6.905-15.552 12.742-26.497 13.77z"/><path fill="url(#l)" d="m32.403 18.48 5.228 20.708c6.15-6.467 11.671-13.42 14.375-22.02l-19.603 1.311z"/><path fill="url(#m)" d="M51.952 17.272C54.045 10.958 54.527 1.9 44.662.217L36.564 4.69l15.387 12.583z"/><path fill="#9E1209" d="M.063 42.316c.29 10.421 7.809 10.577 11.011 10.668L3.677 35.706l-3.613 6.61z"/><path fill="url(#n)" d="M32.432 18.512a4945.212 4945.212 0 0 0 14.445 8.846c.3.17 4.107-6.419 4.971-10.142l-19.416 1.296z"/><path fill="url(#o)" d="m17.185 32.635 8.198 15.816c4.847-2.63 8.643-5.832 12.119-9.263l-20.317-6.553z"/><path fill="url(#p)" d="m3.644 35.728-1.162 13.83c2.192 2.994 5.207 3.254 8.37 3.02-2.288-5.694-6.86-17.081-7.208-16.85z"/><path fill="url(#q)" d="m36.518 4.724 16.285 2.285c-.87-3.683-3.538-6.06-8.088-6.802l-8.197 4.517z"/></g><defs><linearGradient id="b" x1="46.758" x2="35.546" y1="57.82" y2="38.025" gradientUnits="userSpaceOnUse"><stop stop-color="#FB7655"/><stop offset=".41" stop-color="#E42B1E"/><stop offset=".99" stop-color="#900"/><stop offset="1" stop-color="#900"/></linearGradient><linearGradient id="c" x1="52.343" x2="37.893" y1="41.191" y2="31.494" gradientUnits="userSpaceOnUse"><stop stop-color="#871101"/><stop offset=".99" stop-color="#911209"/><stop offset="1" stop-color="#911209"/></linearGradient><linearGradient id="d" x1="40.781" x2="26.332" y1="58.42" y2="48.724" gradientUnits="userSpaceOnUse"><stop stop-color="#871101"/><stop offset=".99" stop-color="#911209"/><stop offset="1" stop-color="#911209"/></linearGradient><linearGradient id="e" x1="10.443" x2="12.683" y1="34.172" y2="48.73" gradientUnits="userSpaceOnUse"><stop stop-color="#fff"/><stop offset=".23" stop-color="#E57252"/><stop offset=".46" stop-color="#DE3B20"/><stop offset=".99" stop-color="#A60003"/><stop offset="1" stop-color="#A60003"/></linearGradient><linearGradient id="f" x1="25.85" x2="26.675" y1="20.578" y2="35.436" gradientUnits="userSpaceOnUse"><stop stop-color="#fff"/><stop offset=".23" stop-color="#E4714E"/><stop offset=".56" stop-color="#BE1A0D"/><stop offset=".99" stop-color="#A80D00"/><stop offset="1" stop-color="#A80D00"/></linearGradient><linearGradient id="g" x1="39.523" x2="41.993" y1="6.846" y2="17.494" gradientUnits="userSpaceOnUse"><stop stop-color="#fff"/><stop offset=".18" stop-color="#E46342"/><stop offset=".4" stop-color="#C82410"/><stop offset=".99" stop-color="#A80D00"/><stop offset="1" stop-color="#A80D00"/></linearGradient><linearGradient id="h" x1="31.978" x2="42.625" y1="3.096" y2="-2.228" gradientUnits="userSpaceOnUse"><stop stop-color="#fff"/><stop offset=".54" stop-color="#C81F11"/><stop offset=".99" stop-color="#BF0905"/><stop offset="1" stop-color="#BF0905"/></linearGradient><linearGradient id="i" x1="1.11" x2="1.986" y1="30.461" y2="39.234" gradientUnits="userSpaceOnUse"><stop stop-color="#fff"/><stop offset=".31" stop-color="#DE4024"/><stop offset=".99" stop-color="#BF190B"/><stop offset="1" stop-color="#BF190B"/></linearGradient><linearGradient id="j" x1="-4.915" x2="36.28" y1="41.606" y2="-.754" gradientUnits="userSpaceOnUse"><stop stop-color="#BD0012"/><stop offset=".07" stop-color="#fff"/><stop offset=".17" stop-color="#fff"/><stop offset=".27" stop-color="#C82F1C"/><stop offset=".33" stop-color="#820C01"/><stop offset=".46" stop-color="#A31601"/><stop offset=".72" stop-color="#B31301"/><stop offset=".99" stop-color="#E82609"/><stop offset="1" stop-color="#E82609"/></linearGradient><linearGradient id="k" x1="26.639" x2="14.231" y1="45.879" y2="42.816" gradientUnits="userSpaceOnUse"><stop stop-color="#8C0C01"/><stop offset=".54" stop-color="#990C00"/><stop offset=".99" stop-color="#A80D0E"/><stop offset="1" stop-color="#A80D0E"/></linearGradient><linearGradient id="l" x1="47.952" x2="36.929" y1="30.986" y2="21.107" gradientUnits="userSpaceOnUse"><stop stop-color="#7E110B"/><stop offset=".99" stop-color="#9E0C00"/><stop offset="1" stop-color="#9E0C00"/></linearGradient><linearGradient id="m" x1="52.002" x2="46.511" y1="12.859" y2="6.989" gradientUnits="userSpaceOnUse"><stop stop-color="#79130D"/><stop offset=".99" stop-color="#9E120B"/><stop offset="1" stop-color="#9E120B"/></linearGradient><linearGradient id="p" x1="7.217" x2="2.742" y1="52.935" y2="37.754" gradientUnits="userSpaceOnUse"><stop stop-color="#8B2114"/><stop offset=".43" stop-color="#9E100A"/><stop offset=".99" stop-color="#B3100C"/><stop offset="1" stop-color="#B3100C"/></linearGradient><linearGradient id="q" x1="41.545" x2="51.577" y1="2.628" y2="7.056" gradientUnits="userSpaceOnUse"><stop stop-color="#B31000"/><stop offset=".44" stop-color="#910F08"/><stop offset=".99" stop-color="#791C12"/><stop offset="1" stop-color="#791C12"/></linearGradient><radialGradient id="n" cx="0" cy="0" r="1" gradientTransform="translate(38.645 21.296) scale(13.5082)" gradientUnits="userSpaceOnUse"><stop stop-color="#A80D00"/><stop offset=".99" stop-color="#7E0E08"/><stop offset="1" stop-color="#7E0E08"/></radialGradient><radialGradient id="o" cx="0" cy="0" r="1" gradientTransform="translate(19.938 39.097) scale(17.9574)" gradientUnits="userSpaceOnUse"><stop stop-color="#A30C00"/><stop offset=".99" stop-color="#800E08"/><stop offset="1" stop-color="#800E08"/></radialGradient><clipPath id="a"><path fill="#fff" d="M0 0h53.148v53H0z" transform="translate(.063)"/></clipPath></defs></svg>