<svg fill="none" height="50" viewBox="0 0 50 50" width="50" xmlns="http://www.w3.org/2000/svg" xmlns:xlink="http://www.w3.org/1999/xlink"><radialGradient id="a" cx="24.5684" cy="34.6" gradientUnits="userSpaceOnUse" r="33.6"><stop offset="0" stop-color="#0053a0"/><stop offset=".5" stop-color="#0053a0"/><stop offset=".95" stop-color="#00264a"/><stop offset="1"/></radialGradient><path d="m48.316 13.884v1.516h1.263m-2.78 1.01 1.517-1.01-1.516 1.01z" stroke="#000" stroke-width=".48"/><path d="m24.568 49c13.255 0 24-10.745 24-24s-10.745-24-24-24-24 10.745-24 24 10.745 24 24 24z" fill="url(#a)" stroke="#000"/><g stroke="#fff"><path d="m2.842 38.642c12.126-13.642 11.62-2.02 22.231 1.01 9.095 2.022 11.621-7.578 5.053-12.63-3.537-3.032-8.084-2.527-11.621-4.548-5.053-2.527-4.042-10.106 1.01-11.621 14.654-5.053 8.085 16.167 24.758 6.567" stroke-width="3.4"/><path d="m39.727 15.905 2.526 5.558 4.547-4.042-.505-1.516z" fill="#fff" stroke-linejoin="round" stroke-width=".73"/></g></svg>