<svg width="41" height="40" viewBox="0 0 41 40" fill="none" xmlns="http://www.w3.org/2000/svg">
<g clip-path="url(#clip0)">
<path d="M17.1045 37.7272C16.2227 37.7272 15.3393 37.7541 14.4582 37.7218C11.7343 37.6211 9.23909 36.7993 7.01331 35.225C4.51429 33.4569 2.6124 31.1953 1.45346 28.3379C0.781119 26.6813 0.483327 24.9463 0.469512 23.1675C0.447254 20.2863 0.438044 17.402 0.469512 14.5224C0.504817 11.133 1.64303 8.14192 3.82814 5.55053C5.13291 4.00231 6.62879 2.6778 8.41478 1.70689C9.99048 0.848223 11.6644 0.284744 13.4573 0.125618C14.2317 0.0572008 15.0115 0.0156863 15.789 0.0118427C18.4231 -0.00199443 21.0582 -0.00199443 23.6944 0.0118427C25.3833 0.00517808 27.0603 0.294749 28.6494 0.867437C30.45 1.52547 32.0357 2.53327 33.4441 3.83012C35.2324 5.47673 36.6016 7.4047 37.4075 9.71627C37.9288 11.2038 38.1978 12.7683 38.2034 14.3448C38.2188 17.9693 38.2111 21.5939 38.2072 25.2192C38.2072 27.2702 36.7927 28.9329 34.7719 29.2735C34.5078 29.318 34.2406 29.3411 33.9729 29.3427C31.172 29.3473 28.3713 29.3473 25.5709 29.3427C25.1511 29.3427 24.7321 29.2958 24.3122 29.2704C24.2757 29.2665 24.2399 29.2569 24.2063 29.242C23.7044 28.9099 23.2016 28.577 22.7035 28.2388C22.629 28.1769 22.5601 28.1085 22.4978 28.0343C22.4835 27.9607 22.4595 27.8894 22.4265 27.8221C21.9721 27.141 21.7357 26.3754 21.573 25.5844C21.5567 25.5226 21.5369 25.4618 21.5139 25.4022C21.4893 25.4598 21.4602 25.5159 21.4371 25.5751C21.2785 26.0425 21.1207 26.5102 20.9636 26.9781L18.5628 25.0163C18.6181 24.9909 18.6718 24.9617 18.7286 24.9394C20.348 24.3329 21.2729 23.1559 21.4663 21.4524C21.5507 20.7106 21.4778 19.9511 21.4763 19.1993C21.478 19.1614 21.4847 19.124 21.4962 19.0878C21.9752 18.0885 22.4403 17.0784 22.943 16.0898C23.146 15.6779 23.3997 15.2931 23.6982 14.9444C24.2017 14.3717 24.8848 14.4462 25.3031 15.0889C25.4604 15.3311 25.5633 15.6101 25.6907 15.8722C25.6535 15.9483 25.6276 16.0293 25.6139 16.1129C25.6139 18.4813 25.607 20.8498 25.627 23.2182C25.6377 24.4328 26.3085 25.1347 27.5243 25.1646C29.0317 25.2023 30.5406 25.1931 32.0526 25.17C32.9951 25.1546 33.6168 24.7203 33.8547 23.9523C33.9413 23.6586 33.9855 23.3539 33.9859 23.0476C33.999 21.7546 33.9898 20.4616 33.9859 19.1686C34.7269 18.7766 35.5333 18.5241 36.3652 18.4237C36.584 18.3998 36.6891 18.3014 36.7352 18.1116C36.8204 17.7656 36.8058 17.4328 36.5978 17.1245C36.3353 16.7348 35.9492 16.6633 35.5655 16.9315C35.0904 17.2606 34.5754 17.4996 33.9936 17.5696L33.9767 15.3464C34.1166 15.2197 34.2634 15.1009 34.4165 14.9905C34.6406 14.8452 34.7089 14.6484 34.6744 14.3978C34.613 13.945 34.3206 13.7152 33.9069 13.6022C33.9073 13.4615 33.9004 13.3209 33.8862 13.1809C33.6452 11.5727 33.0887 10.0837 32.1209 8.77151C31.6535 8.13577 31.1039 7.56075 30.592 6.95807C30.5938 6.91998 30.5992 6.88214 30.6081 6.84507C30.9412 5.83957 30.5644 5.1285 29.5405 4.88481C29.1059 4.78802 28.6658 4.71769 28.2227 4.67418C27.4705 4.58962 26.8205 4.3198 26.3177 3.73326C26.1669 3.55935 26.0043 3.396 25.8311 3.24435C25.5896 3.01385 25.2666 2.88887 24.9331 2.89688C24.2278 2.93071 23.6491 3.19745 23.2661 3.81936C23.1894 3.9485 23.1057 4.07611 23.0251 4.20372L15.964 4.19449C15.964 3.84088 15.9533 3.48573 15.964 3.13211C15.9702 2.88535 15.8266 2.77926 15.6202 2.76081C15.4448 2.74002 15.267 2.7536 15.0967 2.80079C14.7322 2.91533 14.6631 3.06831 14.7644 3.43806C14.8319 3.68175 14.9064 3.92313 14.9778 4.16605L14.4804 4.20603C13.9846 3.18131 13.5195 2.1466 13.5732 0.96891C13.5815 0.879461 13.5643 0.78949 13.5235 0.709469C13.4828 0.629448 13.4201 0.562667 13.343 0.516898C12.9423 0.250149 12.3107 0.375453 12.0497 0.777498C11.9384 0.949693 11.8962 1.12573 12.0436 1.30792C12.6875 2.11662 12.9938 3.07599 13.2532 4.05382C13.2823 4.16451 13.2762 4.38514 13.2463 4.39283C13.1081 4.42665 12.9208 4.45817 12.8165 4.39283C12.6051 4.2522 12.419 4.07676 12.2662 3.87394C11.9983 3.51725 11.7742 3.12673 11.5148 2.76312C11.3373 2.4985 11.1347 2.25162 10.91 2.02591C10.4993 1.64155 9.89378 1.82066 9.71571 2.35646C9.5507 2.85076 9.86922 3.39963 10.4195 3.57874C10.5124 3.60949 10.6406 3.62256 10.6874 3.69021C10.9545 4.07457 11.2008 4.46816 11.4549 4.85945C11.3735 4.91479 11.2945 4.97629 11.2093 5.02626C10.4709 5.45521 9.69653 5.83266 8.99886 6.32003C7.05782 7.67684 5.73694 9.49718 5.10835 11.7988C4.86868 12.7142 4.74313 13.6559 4.73457 14.6023C4.65782 14.557 4.58107 14.517 4.50892 14.4655C4.06684 14.1403 3.63242 13.8051 3.18497 13.4884C2.88794 13.2793 2.63236 13.2878 2.37294 13.4769C2.24509 13.5742 2.15053 13.7088 2.10228 13.8622C2.05403 14.0155 2.05447 14.1801 2.10354 14.3333C2.22864 14.753 2.37447 14.8998 2.76514 14.8929C3.64701 14.876 4.23569 15.3687 4.76066 15.9922L4.73841 16.9792C4.4314 16.89 4.1313 16.7978 3.82583 16.7125C3.47201 16.6125 3.12203 16.4772 2.76053 16.4319C2.21406 16.3642 1.99763 16.5979 1.99993 17.1606C1.99993 17.7756 2.06516 17.821 2.68148 17.8925C3.37224 17.9739 4.063 18.0985 4.75376 18.1999C4.75376 19.9296 4.73687 21.6592 4.75376 23.3889C4.76682 24.8402 5.10794 26.2696 5.75152 27.57C6.29415 28.6716 7.05629 29.6033 7.90592 30.4865C9.87152 32.5352 12.2608 33.5561 15.0875 33.5668C16.7507 33.573 18.4139 33.5668 20.0763 33.5668C20.216 33.5668 20.3557 33.583 20.4954 33.5922C20.4507 33.6502 20.4027 33.7056 20.3519 33.7582C19.0893 34.9359 17.7554 36.0514 17.1045 37.7272Z" fill="#72B52D"/>
<path d="M14.9697 4.16653C14.8983 3.92361 14.8239 3.68223 14.7563 3.43854C14.655 3.06879 14.7241 2.91581 15.0886 2.80127C15.2589 2.75408 15.4367 2.7405 15.6121 2.7613C15.8185 2.77974 15.9621 2.88583 15.9559 3.13259C15.9475 3.48621 15.9559 3.84136 15.9559 4.19498C15.8792 4.92988 15.7502 5.66401 15.7257 6.40045C15.705 7.10614 16.0327 7.6358 16.7303 7.921C17.0013 8.03246 17.2208 8.26769 17.4633 8.44681C17.4802 8.52368 17.4979 8.5944 17.5132 8.66897C17.57 8.94187 17.4403 9.12175 17.1586 9.11407C17.012 9.10945 16.867 9.04257 16.7234 8.99645C16.6322 8.95399 16.5381 8.91802 16.4418 8.88882C16.2253 8.85269 16.1708 8.92342 16.2261 9.1402C16.3742 9.71828 16.7833 10.0988 17.23 10.447C17.2592 10.4693 17.3889 10.4224 17.4157 10.3756C17.7803 9.7352 18.1349 9.0887 18.4903 8.44374C19.0313 7.76188 19.6415 7.15919 20.409 6.73409C20.7644 6.53806 21.1105 6.32512 21.459 6.1191C22.1956 5.69268 22.7513 5.01142 23.0216 4.20343C23.0984 4.07582 23.1836 3.94821 23.2626 3.81907C23.6464 3.1987 24.2243 2.93195 24.9297 2.89659C25.0961 2.8913 25.2619 2.91915 25.4175 2.97853C25.5731 3.03791 25.7154 3.12764 25.8361 3.24252C26.0093 3.39417 26.1718 3.55752 26.3227 3.73143C26.8254 4.31797 27.474 4.58779 28.2277 4.67235C28.6708 4.71586 29.1108 4.7862 29.5455 4.88299C30.5693 5.12667 30.9462 5.83774 30.6131 6.84324C30.6042 6.88032 30.5988 6.91816 30.597 6.95625C30.5761 6.96996 30.5572 6.98651 30.5409 7.00544C29.5531 8.54751 28.3259 9.87434 26.9237 11.0443C26.6167 11.3026 26.1807 11.5148 26.0433 11.8477C25.9059 12.1805 26.0326 12.6525 26.0855 13.0569C26.2145 14.0424 26.4962 14.9787 27.0787 15.8005C27.6996 16.6745 28.5208 17.1972 29.6245 17.1919C30.0213 17.1919 30.0681 17.1919 30.0789 16.8075C30.0847 16.2347 30.0614 15.6621 30.009 15.0917C29.9814 14.7035 30.019 14.6174 30.3828 14.5052C30.444 14.4869 30.5063 14.4725 30.5693 14.4621C31.1488 14.356 31.5157 14.7389 31.3668 15.2954C31.3077 15.5168 31.2033 15.7336 31.1856 15.9573C31.1715 16.2339 31.1893 16.5112 31.2386 16.7837C31.2655 16.952 31.3798 17.0143 31.5333 16.8705C31.7099 16.7045 31.9048 16.5561 32.0706 16.3793C32.69 15.7121 32.9855 14.8864 33.1927 14.0201C33.284 13.6357 33.3024 13.6173 33.6801 13.5942C33.7568 13.5896 33.8336 13.5942 33.9103 13.6004C34.3232 13.7134 34.6157 13.9432 34.6778 14.396C34.7124 14.6466 34.6441 14.8434 34.4199 14.9887C34.2669 15.0991 34.12 15.2179 33.9801 15.3446C33.8535 15.5283 33.6854 15.6967 33.6087 15.8989C33.403 16.4439 33.2426 17.0051 33.0499 17.5547C32.9931 17.7169 33.0868 17.7015 33.172 17.6908C33.4475 17.6554 33.7223 17.6093 33.997 17.5678C34.5788 17.4978 35.0938 17.2603 35.5689 16.9297C35.9527 16.6637 36.3364 16.7329 36.6012 17.1227C36.8092 17.4302 36.8238 17.7638 36.7386 18.1097C36.6925 18.2996 36.5851 18.398 36.3686 18.4218C35.5367 18.5223 34.7303 18.7748 33.9894 19.1667C33.8589 19.2159 33.7269 19.262 33.5979 19.3159C32.9839 19.5695 32.3837 19.854 31.7559 20.0746C30.7881 20.4167 29.7995 20.5773 28.7979 20.1891C27.4517 19.6672 26.444 18.8308 26.1116 17.3387C26.0019 16.8421 25.8292 16.3593 25.6849 15.8704C25.5575 15.6083 25.4546 15.3323 25.2973 15.0871C24.879 14.4444 24.1959 14.3699 23.6924 14.9426C23.3939 15.2913 23.1402 15.6761 22.9372 16.088C22.4345 17.0773 21.9694 18.0867 21.4904 19.086C21.479 19.1221 21.4722 19.1596 21.4705 19.1975C21.4437 19.2223 21.4204 19.2508 21.4014 19.282C20.9079 20.4497 20.1465 21.4276 19.2977 22.357C18.9055 22.7859 18.5256 23.2541 18.2631 23.7676C17.7957 24.6816 17.8264 24.4171 18.557 25.0144L20.9555 26.9709C21.2625 27.2107 21.5595 27.4621 21.8765 27.6865C22.0745 27.8117 22.2795 27.9254 22.4905 28.0271C22.5528 28.1013 22.6217 28.1697 22.6962 28.2316C23.1943 28.5698 23.694 28.9027 24.199 29.2348C24.2326 29.2497 24.2683 29.2593 24.3049 29.2632C24.562 29.5061 24.8376 29.7337 25.0724 29.9958C25.8008 30.803 25.8484 31.8177 25.1929 32.6864C24.9711 32.98 24.6994 33.2344 24.45 33.5066C23.869 34.0801 23.2803 34.6443 22.71 35.2278C22.1973 35.7536 22.1935 35.8758 22.5926 36.4823C22.6981 36.6422 22.8156 36.7938 22.9441 36.9359C23.0275 37.032 23.1279 37.1117 23.2404 37.1711C23.2798 37.188 23.3225 37.1954 23.3653 37.1929C23.408 37.1904 23.4496 37.1779 23.4867 37.1565C23.5105 37.1228 23.5252 37.0835 23.5294 37.0424C23.5335 37.0013 23.5271 36.9599 23.5105 36.922C23.3688 36.7141 23.2088 36.5194 23.0324 36.3401C22.6571 35.9727 22.654 35.7943 23.0539 35.4876C23.3931 35.2278 23.6679 35.2923 23.8344 35.6867C23.9565 35.9811 24.0401 36.2917 24.1675 36.583C24.3978 37.1035 24.8805 37.198 25.2566 36.7814C25.3806 36.6227 25.4529 36.4298 25.4639 36.2286C25.4923 35.8604 25.4531 35.4876 25.4639 35.1171C25.4686 34.952 25.5043 34.7893 25.569 34.6374C25.6603 34.4298 25.965 34.2753 26.1385 34.3299C26.3687 34.4068 26.4793 34.5843 26.4823 34.8265C26.4823 34.9287 26.4823 35.0302 26.4777 35.134C26.4716 35.3131 26.4547 35.4922 26.4601 35.6721C26.4701 36.0495 26.6389 36.1771 27.0058 36.0933C27.1706 36.0597 27.3227 35.9804 27.4448 35.8645C27.5669 35.7486 27.6541 35.6007 27.6965 35.4376C27.8777 34.828 28.022 34.2077 28.1816 33.5927C28.2353 33.5081 28.2898 33.4251 28.3412 33.3405C28.5331 33.0254 28.8209 32.9162 29.1763 32.9408C29.4964 32.9631 29.6667 33.163 29.7826 33.4328C29.8026 33.4797 29.8248 33.525 29.8456 33.5704C29.8548 34.0009 29.6752 34.3645 29.435 34.702C29.1395 35.1178 28.8271 35.523 28.5316 35.9396C28.2246 36.3762 27.903 36.8152 27.8163 37.3625C27.7971 37.4794 27.8593 37.6093 27.8838 37.7338C27.9766 37.7887 28.0742 37.8347 28.1755 37.8714C28.7342 38.0159 29.2738 37.8976 29.8095 37.7377L29.9193 37.72C30.2086 37.6762 30.4995 37.6431 30.7873 37.587C31.059 37.5363 31.2309 37.63 31.3084 37.8945C31.3591 38.0383 31.4007 38.1851 31.4328 38.3342C31.5149 38.86 31.356 39.1083 30.828 39.1683C30.2716 39.2381 29.7108 39.2666 29.1502 39.2536C28.0081 39.2136 26.8837 39.2367 25.7946 39.6472C24.5451 40.1192 23.2688 40.07 21.9916 39.7725C21.0438 39.5519 20.0798 39.4773 19.1127 39.405C18.668 39.3761 18.2266 39.3089 17.7934 39.2044C17.0865 39.0268 16.9122 38.7001 17.0688 37.9898C17.088 37.9037 17.0926 37.8138 17.1041 37.7261C17.7557 36.0503 19.0897 34.9349 20.353 33.761C20.4039 33.7084 20.4518 33.6529 20.4965 33.595C21.2854 32.9695 22.0088 32.2653 22.6555 31.4933C22.7921 31.3326 22.6993 31.2934 22.555 31.2358C21.9886 31.0098 21.4257 30.7773 20.8665 30.5385C19.8472 30.1057 18.831 29.6668 17.8133 29.2317C16.933 28.7182 16.0657 28.1801 15.1677 27.6988C14.5624 27.3723 13.9323 27.0939 13.2835 26.8663C12.6541 26.6472 11.9887 26.5957 11.3324 26.8133C11.184 26.8404 11.0378 26.8784 10.895 26.927C10.7261 26.997 10.6647 26.9755 10.6256 26.7794C10.5012 26.1122 10.2249 25.4972 9.88722 24.9014C9.3185 23.9021 8.77356 22.892 8.21251 21.8888C7.58008 20.7588 6.87474 19.6833 5.9591 18.7532C5.61602 18.4042 5.23304 18.2066 4.74797 18.2012C4.05721 18.0959 3.36645 17.9706 2.67569 17.8937C2.06168 17.8222 1.99644 17.7792 1.99414 17.1619C1.99414 16.5992 2.20828 16.3655 2.75474 16.4331C3.11624 16.4785 3.46623 16.6138 3.82005 16.7137C4.12705 16.799 4.42868 16.8913 4.73262 16.9805C4.9905 17.0043 5.24839 17.032 5.50704 17.0458C5.52469 17.0458 5.57995 16.9205 5.56307 16.9005C5.29904 16.593 5.02581 16.2948 4.75488 15.9934C4.2322 15.37 3.64352 14.8772 2.75935 14.8941C2.36869 14.901 2.22209 14.7542 2.09776 14.3345C2.04764 14.181 2.04651 14.0157 2.09452 13.8615C2.14252 13.7074 2.23728 13.572 2.36562 13.4743C2.62503 13.2852 2.88061 13.2767 3.17764 13.4858C3.6251 13.8025 4.05951 14.1377 4.5016 14.4629C4.57221 14.5144 4.6551 14.5544 4.72725 14.5997C5.36888 15.0786 6.00592 15.5637 6.65447 16.0326C6.81564 16.1487 7.01443 16.2133 7.19556 16.3017C7.10806 16.0972 7.02901 15.8881 6.92923 15.6867C6.88472 15.5983 6.79262 15.5329 6.73429 15.4561C6.65549 15.3563 6.58947 15.2471 6.5378 15.1309C6.44263 14.878 6.57925 14.6251 6.8686 14.439C7.09886 14.2907 7.27922 14.4037 7.38974 14.5805C7.63132 14.9503 7.84527 15.3375 8.02984 15.739C8.31843 16.4024 8.5625 17.085 8.82499 17.7592C8.9309 17.8999 9.03375 18.0436 9.14427 18.1812C9.18175 18.2136 9.22427 18.2395 9.27014 18.2581C9.30206 18.2091 9.32614 18.1554 9.34152 18.099C9.37529 17.7561 9.4042 17.4127 9.42825 17.0689C9.505 15.9488 9.97779 15.3777 11.0032 15.147C11.1835 15.1071 11.3317 15.1186 11.446 15.2731C11.7484 15.6821 12.0693 16.0787 12.3456 16.5031C12.6004 16.8967 12.8061 17.3218 13.0363 17.733C13.3978 18.4072 13.757 19.0822 14.1231 19.754C14.1538 19.8102 14.2313 19.8417 14.2874 19.8847C14.3058 19.8155 14.3288 19.7479 14.3419 19.6779C14.3833 19.4512 14.4186 19.2244 14.46 18.9976C14.7878 17.1711 15.3281 15.4023 15.9275 13.6503C16.1041 13.1337 16.1018 13.133 15.5745 12.9416C15.421 12.8109 15.259 12.6879 15.114 12.5472C14.6074 12.0529 14.3303 11.4249 14.1101 10.7691C13.9404 10.2633 13.7923 9.75134 13.6342 9.24168C13.4239 8.2185 13.1461 7.21454 12.6963 6.269C12.4177 5.68477 11.9764 5.22661 11.4499 4.85224C11.1966 4.46095 10.9502 4.06506 10.6824 3.683C10.6355 3.61535 10.5074 3.60613 10.4145 3.57154C9.86343 3.39242 9.54568 2.84355 9.71069 2.34926C9.88876 1.81115 10.4943 1.63357 10.9049 2.01871C11.1297 2.24442 11.3322 2.49129 11.5097 2.75591C11.7692 3.11952 11.9933 3.51004 12.2611 3.86673C12.414 4.06955 12.6001 4.24499 12.8114 4.38562C12.9158 4.45403 13.1031 4.42252 13.2412 4.38562C13.2712 4.37793 13.2773 4.155 13.2482 4.04661C12.9887 3.06879 12.6825 2.10941 12.0386 1.30071C11.8935 1.11852 11.9334 0.942487 12.0447 0.770292C12.3056 0.368247 12.9373 0.242943 13.3379 0.509692C13.4151 0.555461 13.4777 0.622242 13.5185 0.702263C13.5593 0.782284 13.5765 0.872255 13.5682 0.961704C13.5145 2.1394 13.9796 3.1741 14.4754 4.19882C14.5782 4.45788 14.6865 4.71463 14.7824 4.97677C14.8331 5.11514 14.8876 5.08978 14.9428 4.99292C15.0186 4.86939 15.061 4.72821 15.0657 4.58329C15.0704 4.43837 15.0373 4.29473 14.9697 4.16653ZM21.5534 37.7646C21.7451 37.7152 21.9339 37.6554 22.119 37.5855C22.1502 37.5623 22.1749 37.5316 22.191 37.4962C22.2071 37.4609 22.214 37.422 22.2111 37.3833C22.1551 37.1304 21.8113 36.8867 21.5165 36.8659C21.1927 36.8429 20.8457 37.0051 20.749 37.2503C20.7237 37.3141 20.7644 37.464 20.8143 37.4871C21.056 37.5978 21.3093 37.6762 21.5534 37.7646Z" fill="white"/>
<path d="M28.1784 33.592C28.0188 34.2069 27.8714 34.8281 27.6934 35.4369C27.651 35.6 27.5638 35.7479 27.4417 35.8638C27.3196 35.9797 27.1674 36.059 27.0026 36.0926C26.6357 36.1764 26.4653 36.0488 26.4569 35.6714C26.4515 35.493 26.4684 35.3139 26.4746 35.1333C26.4746 35.031 26.4807 34.9295 26.4792 34.8258C26.4792 34.5836 26.3671 34.4053 26.1353 34.3292C25.9619 34.2715 25.6572 34.426 25.5658 34.6367C25.5011 34.7885 25.4654 34.9513 25.4607 35.1163C25.4499 35.4869 25.4891 35.8597 25.4607 36.2279C25.4497 36.4291 25.3774 36.622 25.2534 36.7806C24.8774 37.1981 24.3931 37.1027 24.1643 36.5823C24.0369 36.291 23.9533 35.9804 23.8312 35.686C23.6662 35.2916 23.3899 35.2247 23.0507 35.4869C22.6508 35.7944 22.6539 35.9719 23.0292 36.3394C23.2056 36.5187 23.3657 36.7134 23.5074 36.9213C23.5239 36.9591 23.5304 37.0006 23.5262 37.0417C23.522 37.0828 23.5073 37.1221 23.4836 37.1558C23.4464 37.1772 23.4049 37.1896 23.3621 37.1922C23.3193 37.1947 23.2766 37.1872 23.2372 37.1704C23.1248 37.111 23.0243 37.0312 22.9409 36.9352C22.8125 36.7931 22.695 36.6415 22.5894 36.4816C22.1903 35.8751 22.1941 35.7528 22.7068 35.227C23.2771 34.6436 23.8658 34.0793 24.4468 33.5059C24.579 33.5356 24.7131 33.5556 24.8482 33.5658C25.846 33.5704 26.8384 33.5658 27.8338 33.5658C27.9505 33.5689 28.0648 33.5843 28.1784 33.592Z" fill="#72B52D"/>
<path d="M27.8817 37.7333C27.8571 37.6087 27.795 37.4788 27.8142 37.362C27.9009 36.8146 28.2186 36.3757 28.5295 35.939C28.825 35.5224 29.1374 35.1173 29.4328 34.7014C29.6731 34.3639 29.8527 34.0003 29.8435 33.5698C29.8811 33.6842 29.9068 33.8022 29.9202 33.9219C29.9202 35.188 29.9202 36.4533 29.9202 37.7194L29.8105 37.7371L27.8817 37.7333Z" fill="#72B52D"/>
<path d="M8.82617 17.7605C8.86242 17.5926 8.88603 17.4222 8.89678 17.2508C8.8868 16.0677 8.99119 14.9023 9.42713 13.7915C10.21 11.7928 11.5762 10.3184 13.4527 9.30367C13.5109 9.27923 13.5713 9.26044 13.6331 9.24756C13.7912 9.75723 13.9401 10.2692 14.1089 10.775C14.3292 11.4307 14.6063 12.0588 15.1128 12.5531C15.2571 12.6938 15.4199 12.8168 15.5734 12.9474C15.5474 12.9762 15.5183 13.002 15.4866 13.0243C14.0215 13.8023 13.2992 15.0699 13.1012 16.675C13.0575 17.0279 13.0559 17.3861 13.0352 17.7412C12.8049 17.33 12.6023 16.9049 12.3444 16.5113C12.0681 16.0846 11.7473 15.688 11.4449 15.2813C11.3306 15.1276 11.1824 15.1153 11.0021 15.1552C9.97667 15.3859 9.50695 15.9547 9.42713 17.0771C9.40257 17.4209 9.37366 17.7643 9.3404 18.1072C9.32503 18.1636 9.30094 18.2173 9.26902 18.2663C9.22316 18.2477 9.18063 18.2217 9.14315 18.1894C9.03493 18.0449 8.93209 17.9011 8.82617 17.7605Z" fill="#72B52D"/>
<path d="M17.8109 29.2337C16.0357 29.5651 14.4017 29.193 12.9288 28.1744C12.357 27.7785 11.8612 27.2712 11.3301 26.8153C11.9863 26.5978 12.6517 26.6493 13.2811 26.8684C13.93 27.096 14.56 27.3744 15.1653 27.7009C16.0633 28.1821 16.9306 28.7202 17.8109 29.2337Z" fill="#72B52D"/>
<path d="M17.4686 8.44678L18.4971 8.44141C18.1402 9.08637 17.7856 9.73287 17.4225 10.3732C17.3957 10.4201 17.269 10.467 17.2368 10.4447C16.7901 10.0988 16.381 9.71826 16.2329 9.13787C16.1776 8.92109 16.2329 8.85037 16.4486 8.8865C16.5449 8.9157 16.639 8.95165 16.7302 8.99412C16.8738 9.04024 17.0188 9.10712 17.1654 9.11173C17.4471 9.11942 17.5768 8.93955 17.52 8.66665C17.5031 8.59439 17.4855 8.52058 17.4686 8.44678Z" fill="#72B52D"/>
<path d="M21.5543 37.7647C21.3087 37.6763 21.0554 37.5978 20.8152 37.4895C20.7653 37.4664 20.7246 37.3165 20.7499 37.2527C20.8466 37.0052 21.1936 36.843 21.5174 36.8683C21.8122 36.8891 22.156 37.1328 22.212 37.3857C22.2149 37.4244 22.208 37.4633 22.1919 37.4986C22.1758 37.5339 22.1511 37.5647 22.1199 37.5879C21.9347 37.6571 21.7459 37.7161 21.5543 37.7647Z" fill="#72B52D"/>
</g>
<defs>
<clipPath id="clip0">
<rect width="37.76" height="40" fill="white" transform="translate(0.443359)"/>
</clipPath>
</defs>
</svg>
