<svg fill="none" height="48" viewBox="0 0 49 48" width="49" xmlns="http://www.w3.org/2000/svg"><path d="m47.684 23.998c0 3.063-.592 6.051-1.767 8.883-1.171 2.829-2.864 5.363-5.032 7.531-2.169 2.169-4.7 3.858-7.531 5.033-2.832 1.171-5.82 1.767-8.883 1.767s-6.052-.593-8.884-1.767c-2.828-1.171-5.362-2.864-7.53-5.033-2.169-2.168-3.855-4.702-5.026-7.53-1.171-2.83-1.767-5.82-1.767-8.884 0-3.062.592-6.05 1.767-8.883 1.171-2.828 2.864-5.362 5.033-7.53 2.164-2.166 4.698-3.858 7.53-5.033 2.83-1.172 5.818-1.768 8.885-1.768 3.062 0 6.05.593 8.883 1.768 2.832 1.171 5.362 2.864 7.53 5.032 2.166 2.165 3.858 4.7 5.033 7.531 1.164 2.832 1.76 5.82 1.76 8.883z" fill="#fff"/><path d="m46.644 14.813c-1.213-2.928-2.963-5.547-5.203-7.786-2.239-2.24-4.858-3.99-7.786-5.2-2.924-1.212-6.015-1.827-9.181-1.827s-6.257.614-9.185 1.828c-2.928 1.213-5.543 2.96-7.786 5.203-2.24 2.239-3.99 4.858-5.2 7.782-1.213 2.928-1.827 6.017-1.827 9.185 0 3.166.614 6.257 1.827 9.185 1.214 2.928 2.964 5.547 5.203 7.786 2.24 2.24 4.859 3.99 7.787 5.203 2.924 1.214 6.015 1.828 9.184 1.828 3.17 0 6.257-.614 9.185-1.828 2.928-1.213 5.547-2.963 7.787-5.203 2.239-2.239 3.989-4.858 5.202-7.786 1.214-2.928 1.828-6.015 1.828-9.185-.007-3.169-.62-6.257-1.835-9.185zm1.04 9.185c0 3.063-.592 6.051-1.767 8.883-1.171 2.829-2.864 5.363-5.033 7.531-2.168 2.169-4.699 3.858-7.53 5.033-2.833 1.17-5.821 1.767-8.884 1.767s-6.05-.593-8.883-1.767c-2.828-1.171-5.362-2.864-7.53-5.033-2.17-2.168-3.855-4.702-5.026-7.53-1.171-2.83-1.768-5.821-1.768-8.884s.593-6.05 1.768-8.883c1.171-2.828 2.864-5.362 5.032-7.53 2.165-2.166 4.7-3.859 7.531-5.033 2.829-1.172 5.817-1.768 8.883-1.768 3.063 0 6.051.593 8.884 1.768 2.832 1.17 5.362 2.864 7.53 5.032 2.165 2.165 3.858 4.699 5.033 7.531 1.164 2.832 1.76 5.82 1.76 8.883z" fill="#444876"/><path d="m45.1 14.977-.706-.32-.866-.383-.866-.373-.866-.362-.866-.344-.866-.323-.866-.298-.866-.273-.865-.242-.867-.209-.865-.174-.866-.138-.866-.1-.866-.06-.866-.021-.866.021-.866.06-.866.1-.866.138-.866.174-.866.21-.866.24-.866.274-.866.298-.866.323-.866.344-.866.362-.866.373-.866.383-.865.39-.866.395-.866.393-.866.39-.866.384-.866.376-.866.366-.866.355-.866.34-.866.323-.866.31-.866.29-.866.273-.866.256-.866.238-.866.22-.866.202-.866.185-.866.166-.876.15-.632.099c-.156 1.068-.238 2.147-.238 3.24 0 .841.053 1.679.146 2.51l.72-.32.866-.39.866-.394.866-.394.866-.39.866-.384.866-.373.866-.362.866-.344.866-.323.866-.298.866-.273.866-.242.866-.209.866-.174.865-.138.866-.1.866-.06.866-.021.866.021.866.06.866.1.866.138.866.174.866.21.866.24.866.274.866.298.866.323.866.344.866.362.866.373.866.383.866.39.866.395.866.393.866.39.865.384.866.376.866.366.866.355.866.34.866.323.866.31.866.29.866.273.866.256.866.238.866.22.866.202.83.178c.59-2.027.902-4.146.902-6.296.017-3.141-.643-6.207-1.878-9.025z" fill="#7db0bc"/><path d="m19.303 12.113c-.223 0-.447.092-.607.252-.163.163-.252.376-.252.606 0 .231.09.444.252.607.164.164.377.252.607.252s.444-.088.607-.252c.16-.16.252-.38.252-.607s-.089-.443-.252-.607c-.163-.163-.376-.252-.607-.252zm-1.351 1.657c-.157-.156-.366-.241-.586-.241s-.43.085-.586.24c-.156.157-.24.366-.24.586s.084.43.24.586.366.241.586.241.43-.085.586-.24c.156-.157.24-.367.24-.587s-.084-.429-.24-.585zm-2.453.724c-.206 0-.401.082-.55.227-.146.146-.227.34-.227.55s.081.401.227.55c.145.146.34.227.55.227.206 0 .404-.081.55-.227.146-.145.227-.34.227-.55s-.081-.4-.227-.55c-.146-.146-.344-.227-.55-.227zm5.441-3.506c-.235 0-.459.092-.625.259-.167.166-.26.386-.26.624s.093.458.26.625c.166.167.387.259.624.259.238 0 .458-.092.625-.26.167-.166.26-.386.26-.624s-.093-.458-.26-.624c-.167-.167-.387-.26-.625-.26zm-6.43 2.126c-.107-.107-.256-.17-.41-.17-.152 0-.3.06-.407.17s-.17.255-.17.408c0 .152.06.301.17.408.11.106.255.17.408.17s.302-.06.408-.17c.107-.11.17-.256.17-.408 0-.153-.06-.302-.17-.409zm-1.005-3.155c-.228 0-.44.088-.6.248s-.249.373-.249.6c0 .223.089.44.249.6s.372.248.6.248c.227 0 .44-.089.6-.248.155-.157.248-.377.248-.6 0-.227-.09-.44-.249-.6-.16-.16-.372-.248-.6-.248zm2.863 2.261c-.12-.122-.287-.189-.457-.189-.174 0-.334.067-.458.188-.12.12-.188.284-.188.458s.067.334.188.458c.12.124.284.188.458.188.17 0 .337-.068.457-.188.121-.12.189-.284.189-.458s-.068-.334-.189-.458zm-5.479 2.43c-.117 0-.231.046-.316.131-.085.086-.132.2-.132.316 0 .117.046.231.132.316.081.082.198.131.316.131.117 0 .23-.046.315-.13.086-.086.132-.2.132-.317s-.046-.23-.132-.316c-.085-.085-.198-.13-.315-.13zm1.625-.642c-.141 0-.28.057-.38.156-.099.1-.155.238-.155.38s.056.276.156.38c.103.102.234.156.38.156.141 0 .276-.057.38-.157.102-.099.155-.234.155-.38 0-.141-.057-.276-.156-.379-.103-.103-.238-.156-.38-.156zm-2.963-2.218c-.195 0-.376.074-.51.213-.14.138-.214.319-.214.51 0 .192.078.377.213.512.139.138.32.213.511.213.192 0 .376-.079.511-.213.135-.135.213-.323.213-.511 0-.196-.074-.377-.213-.511-.135-.135-.32-.213-.51-.213zm3.279.504c-.067-.068-.156-.103-.252-.103-.092 0-.184.039-.251.103-.068.067-.103.156-.103.252 0 .092.039.184.103.252.134.134.372.134.504 0 .067-.068.102-.16.102-.252 0-.096-.035-.185-.102-.252zm5.114-1.427c-.188 0-.366.074-.497.206-.131.131-.206.309-.206.497 0 .184.075.365.206.496.131.132.309.206.497.206.184 0 .366-.074.497-.206.131-.13.206-.312.206-.496 0-.188-.075-.366-.206-.497-.128-.132-.309-.206-.497-.206zm5.69.639c-.16 0-.313.063-.426.177-.114.114-.178.266-.178.426s.064.312.178.426c.113.113.266.177.426.177s.312-.064.425-.177c.114-.114.178-.266.178-.426s-.064-.312-.177-.426c-.114-.114-.27-.177-.426-.177zm1.556-3.205c0-.1-.038-.195-.11-.266-.07-.071-.166-.11-.265-.11-.1 0-.196.039-.267.11-.07.07-.11.167-.11.266 0 .1.04.199.11.266.143.142.39.142.536 0 .068-.07.107-.167.107-.266zm.998 1.487c-.174 0-.344.071-.468.195-.125.124-.196.291-.196.469 0 .174.071.344.196.468.124.124.294.195.468.195s.344-.07.469-.195c.124-.124.195-.294.195-.468 0-.178-.068-.345-.195-.469-.125-.124-.295-.195-.469-.195zm-6.576-.252c-.127-.128-.301-.199-.482-.199s-.355.075-.483.2c-.128.127-.199.3-.199.482 0 .18.075.355.199.482.128.128.302.2.483.2.18 0 .355-.072.482-.2.128-.127.2-.301.2-.482s-.072-.352-.2-.483zm-9.575 7.052c-.142 0-.284.057-.383.16-.103.102-.16.24-.16.383 0 .145.057.284.16.387s.241.16.383.16c.146 0 .284-.057.387-.16s.16-.242.16-.387c0-.142-.057-.284-.16-.383-.103-.103-.241-.16-.387-.16zm10.746-7.336c-.206 0-.405.082-.55.227-.146.146-.227.345-.227.55 0 .206.081.405.227.55.145.146.344.228.55.228s.405-.082.55-.228c.146-.145.227-.344.227-.55 0-.205-.081-.404-.227-.55-.145-.145-.344-.227-.55-.227zm-9.568.784c-.188 0-.376.079-.508.21-.134.135-.209.32-.209.507 0 .192.075.373.21.508.134.135.319.21.507.21s.376-.079.507-.21c.135-.135.21-.316.21-.508 0-.188-.078-.376-.21-.507-.13-.132-.319-.21-.507-.21zm20.808-.347c-.135 0-.26.053-.355.145-.096.096-.145.22-.145.355s.053.26.145.355c.096.096.22.146.355.146.131 0 .262-.054.355-.146.096-.096.145-.22.145-.355s-.053-.259-.145-.355c-.093-.092-.224-.145-.355-.145zm-18.991-2.524c-.174 0-.337.068-.457.192-.125.124-.192.287-.192.458 0 .174.067.337.192.458.124.12.283.191.457.191s.337-.067.458-.191c.12-.125.192-.284.192-.458s-.068-.337-.192-.458c-.124-.12-.284-.192-.458-.192zm3.131 3.315c-.146 0-.284.057-.387.16s-.16.241-.16.386c0 .146.057.284.16.387s.241.16.387.16c.145 0 .284-.057.387-.16.102-.103.16-.241.16-.386 0-.146-.058-.284-.16-.387-.103-.103-.245-.16-.387-.16zm1.412-1.303c-.15 0-.288.057-.394.164-.107.106-.163.245-.163.394s.056.287.163.394c.106.106.245.163.394.163s.287-.057.394-.163c.106-.107.163-.245.163-.394 0-.15-.057-.288-.163-.394-.107-.107-.245-.164-.394-.164zm-9.263 1.516c-.149 0-.29.06-.394.163-.106.107-.163.245-.163.394 0 .15.057.291.163.394.103.103.249.163.394.163.15 0 .291-.06.394-.163.106-.106.163-.245.163-.394s-.057-.29-.163-.394c-.103-.103-.245-.163-.394-.163zm2.023-2.097c-.096-.096-.224-.15-.362-.15s-.263.054-.362.15c-.096.095-.15.223-.15.362 0 .134.054.262.15.362.096.095.224.149.362.149s.263-.054.362-.15c.096-.095.149-.223.149-.361 0-.139-.053-.267-.149-.362zm12.418 1.749c-.113 0-.216.043-.298.124-.078.079-.124.185-.124.299 0 .113.043.216.124.298.078.078.185.124.298.124.11 0 .22-.046.299-.124.078-.078.124-.185.124-.299 0-.113-.043-.216-.124-.298-.079-.078-.189-.124-.299-.124zm-16.201 2.321c-.1-.1-.234-.156-.376-.156s-.277.057-.376.156c-.1.1-.156.234-.156.376s.056.277.156.377c.1.099.234.156.376.156s.277-.057.376-.156c.1-.1.156-.238.156-.377-.003-.142-.057-.277-.156-.376zm17.784-2.686c-.142 0-.28.056-.38.156s-.156.238-.156.38.057.277.156.38c.103.102.234.155.38.155.142 0 .277-.056.38-.156.102-.099.156-.234.156-.38 0-.141-.057-.276-.157-.38-.099-.102-.234-.155-.38-.155zm-13.188 2.381c-.227 0-.44.089-.6.248-.16.16-.248.373-.248.6s.088.44.248.6.373.248.6.248.44-.088.6-.248.248-.373.248-.6-.088-.44-.248-.6-.373-.248-.6-.248zm-2.448 5.27c-.09-.088-.21-.138-.338-.138-.127 0-.248.05-.337.138-.089.09-.138.213-.138.337 0 .128.05.249.138.338.089.088.21.138.337.138.128 0 .249-.05.337-.138.09-.09.139-.21.139-.338 0-.124-.05-.248-.139-.337zm12.662-10.679c-.177 0-.351.071-.475.196-.128.127-.196.294-.196.475s.071.348.196.476c.124.124.298.195.475.195.181 0 .348-.071.476-.195.127-.128.195-.295.195-.476 0-.18-.071-.348-.195-.475-.128-.128-.295-.196-.476-.196zm14.866.952c-.184 0-.354.07-.486.202-.127.128-.202.305-.202.486 0 .185.071.355.202.486.132.132.302.203.486.203.185 0 .355-.071.487-.203.127-.127.202-.305.202-.486 0-.18-.075-.358-.202-.486-.128-.128-.302-.202-.487-.202zm-9.72-.074c-.142 0-.277.056-.38.155-.103.103-.156.238-.156.38s.056.28.156.38c.103.103.238.156.38.156.145 0 .28-.057.38-.156.102-.103.155-.238.155-.38s-.056-.28-.156-.38c-.103-.1-.238-.156-.38-.156zm-12.691 7.324c-.192 0-.37.075-.504.21-.135.134-.21.315-.21.503s.075.37.21.504c.135.135.316.21.504.21s.369-.075.504-.21c.135-.134.21-.316.21-.504s-.075-.369-.21-.504c-.135-.134-.313-.209-.504-.209zm14.664-7.361c-.18 0-.355.071-.483.2-.127.127-.198.3-.198.482 0 .18.07.355.198.483.128.127.302.198.483.198s.355-.07.483-.198.199-.302.199-.483-.075-.355-.2-.483c-.13-.128-.3-.199-.482-.199zm5.143.955c-.15 0-.288.057-.394.164-.103.102-.164.248-.164.393 0 .15.057.288.164.394.106.107.245.164.394.164.145 0 .29-.06.393-.164.107-.106.164-.244.164-.394 0-.145-.06-.29-.163-.393s-.245-.164-.394-.164zm5.686 1.427c-.136 0-.26.053-.352.145-.092.093-.145.22-.145.352 0 .134.053.259.145.351.092.096.22.146.351.146.132 0 .26-.054.352-.146.096-.096.145-.22.145-.351 0-.132-.053-.26-.145-.352-.093-.095-.22-.145-.352-.145zm-20.61-3.116c.16.16.437.16.6 0 .078-.078.124-.188.124-.298s-.046-.22-.124-.298c-.082-.082-.188-.125-.298-.125-.113 0-.22.043-.298.125-.082.078-.128.184-.128.294 0 .114.046.224.124.302zm4.554-2.442c-.17 0-.334.068-.455.188-.12.121-.188.28-.188.455 0 .173.068.333.188.454.121.12.28.188.455.188.17 0 .333-.068.454-.188.12-.12.188-.28.188-.454s-.067-.334-.188-.455c-.12-.12-.287-.188-.454-.188zm15.934 3.237c-.23 0-.444.088-.607.252-.163.163-.252.376-.252.607 0 .23.089.443.252.606.163.164.376.252.607.252.23 0 .444-.088.607-.252.163-.163.252-.376.252-.606 0-.231-.089-.444-.252-.607-.163-.164-.38-.252-.607-.252zm-16.396.703c-.153-.153-.355-.238-.572-.238-.216 0-.418.085-.571.238-.15.149-.238.358-.238.571s.085.422.238.571c.152.153.355.238.571.238.217 0 .42-.085.572-.238.149-.149.237-.358.237-.571-.003-.213-.088-.419-.237-.571zm2.581-3.425c-.213 0-.42.085-.572.238-.149.149-.237.358-.237.571 0 .216.085.419.237.571.15.15.359.238.572.238.216 0 .418-.085.571-.238.153-.152.238-.355.238-.571s-.085-.419-.238-.571c-.153-.157-.355-.238-.571-.238zm7.374.972c-.22 0-.437.089-.593.245s-.245.373-.245.593.089.436.245.592c.156.157.373.245.593.245s.436-.088.592-.245c.157-.156.245-.372.245-.592s-.088-.437-.245-.593c-.156-.156-.372-.245-.592-.245zm-9.685-3.748c-.114 0-.224.047-.305.128-.082.082-.128.192-.128.305 0 .114.046.224.128.306.163.163.447.163.61 0 .082-.082.128-.192.128-.306 0-.113-.046-.223-.128-.305-.082-.081-.192-.128-.305-.128zm7.601 4.408c-.198 0-.393.082-.532.22-.142.142-.22.334-.22.533s.078.39.22.532.334.22.532.22c.203 0 .39-.078.533-.22.142-.142.22-.333.22-.532s-.082-.394-.22-.533c-.139-.142-.33-.22-.533-.22zm-1.067-1.228c-.16 0-.313.064-.426.178-.114.113-.178.262-.178.426 0 .16.064.312.178.426.113.113.266.177.425.177.16 0 .313-.064.426-.177.114-.114.178-.267.178-.426 0-.16-.064-.313-.178-.426-.113-.117-.266-.178-.425-.178zm-3.244-1.771c-.21 0-.405.082-.554.231-.145.146-.23.348-.23.554 0 .21.081.408.23.553.15.146.344.231.554.231s.404-.082.553-.23c.15-.15.231-.345.231-.554 0-.206-.085-.408-.23-.554-.146-.149-.345-.23-.554-.23zm-9.135 3.177c-.234 0-.462.095-.625.259-.167.167-.259.39-.259.624 0 .235.096.462.26.625.162.163.393.259.624.259.238 0 .457-.092.624-.259.164-.163.26-.394.26-.625 0-.237-.093-.457-.26-.624s-.39-.26-.624-.26zm-5.728-.522c-.125 0-.238.05-.327.135-.089.089-.135.202-.135.326s.05.238.135.327c.089.089.202.135.327.135.124 0 .237-.05.326-.135.089-.089.135-.203.135-.327s-.05-.237-.135-.326c-.088-.085-.206-.135-.326-.135zm2.403-.639c-.16 0-.32.064-.433.178-.117.117-.178.27-.178.433s.064.316.178.433c.117.113.27.177.433.177s.316-.064.433-.177c.117-.117.177-.27.177-.433 0-.164-.064-.316-.177-.433-.117-.114-.27-.178-.433-.178zm22.02 3.666c-.202 0-.397.082-.539.224-.145.145-.224.337-.224.54 0 .205.078.397.224.539.146.145.337.223.54.223.202 0 .397-.078.539-.223.142-.142.224-.341.224-.54 0-.202-.079-.394-.224-.54-.139-.141-.337-.223-.54-.223zm-8.577-3.421c-.078-.074-.178-.117-.288-.117-.106 0-.209.043-.283.117-.075.075-.117.178-.117.288 0 .106.042.209.117.287.152.153.418.153.571 0 .078-.075.117-.177.117-.287.004-.107-.039-.213-.117-.288zm-9.813-.834c-.216 0-.419.085-.571.238-.153.153-.238.355-.238.571 0 .217.085.42.238.572.152.152.355.237.571.237s.419-.085.571-.237c.15-.15.238-.359.238-.572s-.085-.418-.238-.571c-.152-.153-.355-.238-.57-.238zm-12.486 10.654c-.184 0-.362.071-.493.203-.131.13-.202.305-.202.493 0 .184.07.362.202.493.131.131.305.202.493.202.185 0 .362-.07.494-.202.131-.131.202-.305.202-.493 0-.185-.071-.362-.202-.494-.132-.13-.309-.202-.494-.202zm1.97.018c-.213 0-.426.088-.575.238-.149.149-.238.361-.238.575 0 .216.086.422.238.574.153.153.359.238.575.238.217 0 .422-.085.575-.238.153-.152.238-.358.238-.575 0-.212-.089-.425-.238-.574-.153-.153-.355-.238-.575-.238zm6.949-7.514c-.206 0-.408.086-.553.231-.15.15-.231.345-.231.554 0 .21.082.404.23.554.146.145.348.23.554.23.21 0 .405-.081.554-.23.149-.15.23-.345.23-.554 0-.21-.081-.405-.23-.554-.15-.149-.344-.23-.554-.23zm-8.673 5.853c-.16 0-.309.06-.423.174-.11.11-.173.266-.173.422 0 .16.06.309.173.422.114.114.263.174.423.174s.309-.06.422-.174c.114-.113.174-.262.174-.422 0-.156-.064-.312-.174-.422-.113-.114-.266-.174-.422-.174zm25.85-9.43c-.174 0-.34.071-.465.192-.124.124-.191.287-.191.465 0 .177.067.34.191.465.12.12.291.191.465.191s.34-.067.465-.191c.12-.125.192-.291.192-.465s-.071-.34-.192-.465c-.124-.12-.287-.192-.465-.192zm-19.53 3.074c-.156 0-.308.064-.418.174s-.174.262-.174.418c0 .16.06.31.174.42.11.11.262.173.418.173.16 0 .31-.06.42-.174.11-.113.173-.262.173-.419 0-.156-.064-.308-.174-.418s-.262-.174-.419-.174zm-3.098 7.176c-.223 0-.444.092-.603.248-.16.16-.249.376-.249.603 0 .228.09.44.249.604.16.16.376.248.603.248s.44-.088.603-.248c.16-.16.249-.376.249-.604 0-.227-.089-.44-.249-.603s-.376-.248-.603-.248zm29.108-6.058c-.223 0-.433.085-.589.244-.156.157-.245.366-.245.59 0 .223.086.433.245.589.16.156.366.245.59.245.223 0 .432-.086.589-.245.156-.156.244-.366.244-.59 0-.223-.085-.432-.244-.589-.157-.156-.366-.244-.59-.244zm3.166.443c-.15 0-.291.06-.394.163-.106.107-.163.245-.163.394 0 .15.057.291.163.394.103.103.248.164.394.164.145 0 .29-.06.394-.164.106-.106.163-.245.163-.394s-.057-.29-.163-.394c-.103-.102-.249-.163-.394-.163zm-20.861-1.628c-.167 0-.326.063-.443.184-.117.117-.185.28-.185.443 0 .167.067.327.185.444.117.117.276.185.443.185s.327-.068.444-.185.184-.277.184-.444c0-.166-.067-.326-.184-.443s-.28-.185-.444-.185zm15.119-.388c-.1-.099-.227-.152-.366-.152-.134 0-.27.057-.365.152-.1.1-.153.227-.153.366 0 .138.054.27.153.365.096.096.23.153.365.153.139 0 .27-.053.366-.153.096-.095.153-.23.153-.365s-.057-.27-.153-.366zm-11.928-.514c-.206 0-.4.082-.55.227-.145.146-.227.34-.227.55s.082.401.227.55c.146.146.344.227.55.227s.401-.081.55-.227c.146-.145.227-.34.227-.55s-.081-.4-.227-.55c-.145-.145-.34-.227-.55-.227zm17.347 4.202c-.177 0-.34.067-.465.191-.124.125-.191.291-.191.465s.067.341.191.465c.125.124.291.192.465.192.178 0 .341-.068.465-.192s.192-.29.192-.465c0-.174-.068-.34-.192-.465-.12-.12-.29-.191-.465-.191zm-33.615 6.942c-.097 0-.192.039-.26.106-.067.068-.106.163-.106.26 0 .095.039.19.106.258.068.068.163.107.26.107.099 0 .19-.04.258-.107s.107-.163.107-.259-.04-.191-.107-.259c-.067-.067-.163-.106-.259-.106zm8.68-12.17c-.195 0-.376.075-.514.213-.139.139-.213.32-.213.515s.075.376.213.514c.138.139.32.213.514.213.196 0 .377-.074.515-.213.139-.138.213-.319.213-.514s-.075-.376-.213-.515c-.138-.138-.323-.213-.514-.213zm5.625-.816c-.135 0-.262.053-.358.149s-.15.224-.15.358c0 .135.054.263.15.359s.223.149.358.149.263-.053.359-.15c.095-.095.149-.223.149-.358 0-.134-.053-.262-.15-.358-.095-.096-.22-.15-.358-.15zm15.985 1.412c-.17 0-.337.071-.458.192-.124.124-.191.284-.191.458s.067.337.191.458c.12.12.288.191.458.191.174 0 .337-.067.458-.191.124-.124.191-.284.191-.458s-.067-.337-.191-.458c-.12-.124-.284-.192-.458-.192zm-17.522-3.148c-.22 0-.422.086-.578.238-.156.153-.238.359-.238.579s.085.422.238.578c.152.156.358.238.578.238s.423-.085.579-.238c.156-.152.237-.358.237-.578 0-.217-.085-.423-.237-.579-.153-.156-.362-.237-.579-.237zm13.518.955c-.198 0-.39.082-.532.22-.142.142-.22.334-.22.533 0 .198.082.39.22.532.139.138.334.22.532.22.2 0 .39-.082.533-.22.142-.142.22-.33.22-.532 0-.203-.078-.39-.22-.533-.142-.138-.334-.22-.533-.22zm-17.403-.532c-.16 0-.31.06-.42.174-.11.11-.173.262-.173.419 0 .156.064.308.174.418.113.114.262.174.419.174.156 0 .308-.06.418-.174.11-.11.174-.262.174-.418 0-.16-.06-.31-.174-.42-.113-.11-.259-.173-.418-.173zm1.532-.625c-.174 0-.344.071-.465.192-.12.12-.191.294-.191.465 0 .177.067.34.191.465.125.124.291.191.465.191s.344-.07.465-.191c.12-.121.192-.295.192-.465s-.071-.345-.192-.465c-.12-.12-.29-.192-.465-.192zm7.535-.585c-.16 0-.308.064-.422.174-.113.113-.174.262-.174.422s.06.312.174.426c.114.113.263.174.423.174s.308-.064.422-.174c.113-.114.174-.263.174-.423s-.064-.308-.174-.422c-.11-.117-.263-.177-.422-.177zm4.973 1.086c-.118 0-.235.046-.316.13-.085.083-.132.2-.132.317s.047.234.132.316c.081.081.198.131.316.131.117 0 .234-.046.315-.131.086-.082.132-.2.132-.316 0-.117-.046-.234-.132-.316-.085-.082-.198-.131-.315-.131zm-1.643-.086c-.231 0-.451.09-.614.256-.164.16-.256.383-.256.614 0 .23.089.45.256.614.166.163.383.255.613.255.231 0 .451-.088.614-.255.164-.163.256-.383.256-.614 0-.227-.092-.45-.256-.614-.163-.163-.383-.256-.614-.256zm4.034-.149c-.11-.11-.263-.17-.415-.17-.153 0-.305.064-.415.17-.11.11-.17.26-.17.416s.06.305.17.415.259.17.415.17.305-.064.415-.17c.11-.11.17-.26.17-.415 0-.16-.06-.306-.17-.416zm-28.694 14.878c-.198 0-.386.078-.528.22-.138.138-.22.333-.22.529 0 .195.078.39.22.528.142.142.33.22.529.22.198 0 .387-.078.529-.22s.22-.33.22-.528c0-.2-.078-.387-.22-.53-.142-.141-.327-.22-.53-.22zm17.962-14.697c-.1 0-.199.04-.27.11-.071.071-.11.17-.11.27s.039.199.11.27c.142.142.397.142.54 0 .07-.071.11-.17.11-.27s-.04-.199-.11-.27c-.072-.07-.17-.11-.27-.11zm5.029-1.255c-.184 0-.365.074-.493.205-.131.131-.206.309-.206.493 0 .185.075.362.206.494.131.13.312.205.493.205.188 0 .362-.074.493-.205.132-.132.206-.313.206-.494 0-.18-.074-.365-.206-.493-.13-.131-.305-.206-.493-.206zm9.611 3.03c-.124 0-.245.05-.334.138-.089.089-.138.21-.138.334s.05.245.138.333c.089.09.21.139.334.139s.245-.05.334-.139c.088-.088.138-.205.138-.333s-.05-.245-.139-.334c-.088-.088-.205-.138-.333-.138zm-26.596 8.038c-.213 0-.422.086-.575.238-.152.153-.238.359-.238.575 0 .217.085.422.238.575s.362.238.575.238.422-.085.575-.238.238-.362.238-.575c0-.216-.085-.422-.238-.575-.153-.152-.358-.238-.575-.238zm3.794 3.461c0-.185-.075-.362-.203-.494-.131-.131-.305-.202-.493-.202-.185 0-.362.075-.494.202-.13.128-.202.31-.202.494s.071.362.202.493c.128.128.31.202.494.202.018 0 .035-.003.053-.003l.38-.15c.021-.017.042-.031.06-.049.128-.135.202-.309.202-.493zm16.783-6.857c-.16-.16-.376-.248-.603-.248-.224 0-.444.092-.604.248-.16.16-.248.376-.248.603 0 .228.089.444.248.604.022.021.047.035.068.053l.766-.124.472-.054c.096-.142.15-.305.15-.479 0-.227-.09-.443-.249-.603zm12.613 2.566c0-.21-.082-.408-.23-.557-.15-.15-.349-.231-.558-.231-.21 0-.412.085-.557.23-.15.15-.23.348-.23.558 0 .113.024.22.07.32l.65.258.365.153c.096-.04.185-.096.263-.174.145-.149.227-.348.227-.557zm-7.61-7.151c-.163-.167-.383-.256-.617-.256-.188 0-.362.06-.511.167-.043.117-.107.223-.196.312-.035.036-.07.064-.11.092-.035.096-.056.196-.056.302 0 .234.092.454.255.618.163.163.387.255.618.255.23 0 .454-.092.617-.255.167-.164.256-.384.256-.618s-.093-.454-.256-.617zm-3.595 3.165c-.131-.131-.298-.213-.479-.238-.096.04-.202.06-.309.06-.042 0-.081-.006-.124-.01-.11.043-.21.107-.295.192-.16.16-.248.376-.248.603s.089.44.248.603c.16.16.377.249.604.249.223 0 .444-.092.603-.249.16-.16.249-.376.249-.603.003-.234-.086-.447-.249-.607zm-2.952 2.023c0-.088.017-.177.039-.259-.036-.127-.1-.248-.195-.34-.146-.146-.334-.224-.54-.224-.202 0-.397.082-.54.224-.145.145-.223.333-.223.539s.078.394.224.54c.142.141.337.223.54.223.201 0 .393-.078.539-.224.078-.078.138-.174.173-.28-.01-.067-.017-.131-.017-.199zm-.678-7.087c.096-.032.195-.053.298-.053.1 0 .199.021.291.05.093-.04.181-.096.252-.171.15-.149.23-.344.23-.554 0-.209-.08-.404-.23-.553-.149-.15-.344-.23-.553-.23-.21 0-.405.08-.554.23-.146.145-.23.348-.23.553 0 .206.084.409.23.554.078.078.167.135.266.174zm-11.765 4.592c-.156-.156-.373-.245-.593-.245s-.436.09-.592.245c-.142.142-.22.323-.238.522.124.153.192.34.192.54 0 .02-.004.039-.008.06.018.021.032.042.054.064.16.16.369.245.592.245.22 0 .437-.09.593-.245.156-.156.245-.373.245-.593 0-.224-.085-.433-.245-.593zm-7.492 6.101c0-.067.007-.131.021-.195-.032-.128-.096-.249-.188-.34-.135-.136-.32-.214-.51-.214-.193 0-.377.075-.512.213-.135.135-.213.32-.213.511 0 .192.075.376.213.511.135.135.32.213.511.213.192 0 .376-.074.511-.213.089-.089.15-.199.181-.32-.007-.053-.014-.11-.014-.166z" fill="#afdad2"/><path d="m8.504 15.023c-.223 0-.444.092-.603.248-.16.16-.249.376-.249.603 0 .228.09.44.249.604.16.16.376.248.603.248s.44-.088.603-.248c.16-.16.249-.376.249-.604 0-.227-.089-.44-.249-.603s-.376-.248-.603-.248z" fill="#afdad2"/><path d="m8.55 39.923c4.223 4.223 9.951 6.597 15.924 6.597s11.701-2.374 15.924-6.597c2.602-2.602 4.497-5.775 5.572-9.224l-.71-.15-.865-.201-.866-.22-.866-.238-.866-.256-.866-.273-.866-.291-.866-.309-.866-.323-.866-.34-.866-.355-.866-.366-.866-.376-.866-.384-.866-.39-.866-.394-.866-.394-.866-.39-.866-.383-.865-.373-.866-.362-.866-.344-.866-.323-.866-.298-.866-.274-.866-.241-.866-.21-.866-.173-.866-.139-.866-.1-.866-.06-.866-.02-.866.02-.866.06-.866.1-.866.139-.866.174-.866.209-.866.241-.865.274-.867.298-.865.323-.866.344-.866.362-.866.373-.866.383-.866.39-.866.394-.866.394-.866.39-.67.299c.63 4.897 2.86 9.479 6.39 13.007z" fill="#5c7da2"/><path d="m4.728 32.037v2.786c1.018 1.856 2.296 3.577 3.818 5.103.33.33.675.646 1.022.955v-8.844z" fill="#444876"/><path d="m9.571 32.037v-.355h-5.199v2.46c.114.226.23.454.355.677v-2.786h4.844z" fill="#fff"/><path d="m9.927 28.413v12.767c1.483 1.256 3.109 2.307 4.84 3.137v-15.904z" fill="#444876"/><path d="m9.927 28.413h4.841v-.355h-5.196v12.815c.117.104.235.207.355.306z" fill="#fff"/><path d="m19.966 27.764h-4.844v16.718c1.547.707 3.17 1.24 4.84 1.58v-18.298z" fill="#444876"/><path d="m15.123 27.764h4.84v2.548h.355v-2.903h-5.55v16.911c.117.057.237.106.354.163v-16.719z" fill="#fff"/><path d="m25.162 30.667h-4.84v15.46c1.358.255 2.75.39 4.152.39.23 0 .457-.011.688-.018z" fill="#444876"/><path d="m25.163 30.667v3.655h.354v-4.01h-5.55v15.747c.117.025.238.046.355.067v-15.46h4.84z" fill="#fff"/><path d="m30.358 34.677h-4.84v11.815c1.646-.078 3.268-.337 4.84-.763z" fill="#444876"/><path d="m30.358 34.677v2.389h.355v-2.744h-5.551v12.178c.117-.004.238-.004.355-.007v-11.816h4.84z" fill="#fff"/><path d="m35.557 37.42h-4.844v8.21c1.69-.487 3.311-1.172 4.84-2.038v-6.171h.004z" fill="#444876"/><path d="m35.558 37.42v.803h.355v-1.157h-5.555v8.663c.117-.032.238-.064.355-.1v-8.208h4.845z" fill="#fff"/><path d="m35.912 38.581v4.813c1.622-.959 3.134-2.12 4.486-3.471.12-.121.238-.249.355-.373v-.969h-4.84z" fill="#444876"/><path d="m35.913 38.226h-.355v5.37c.117-.068.237-.132.355-.203v-4.812h4.84v.969c.117-.124.238-.245.355-.373v-.95h-5.195z" fill="#fff"/></svg>