<svg width="94" height="48" viewBox="0 0 94 48" fill="none" xmlns="http://www.w3.org/2000/svg">
<g clip-path="url(#clip0)">
<path fill-rule="evenodd" clip-rule="evenodd" d="M85.2263 24.217C85.146 24.0475 85.1104 23.9613 85.0658 23.8781C83.9105 21.6784 82.7522 19.4818 81.5909 17.288C81.5313 17.207 81.5041 17.1067 81.5146 17.0066C81.525 16.9066 81.5724 16.814 81.6474 16.747C83.4864 14.5969 85.3194 12.4438 87.1465 10.2878C87.2242 10.2054 87.2759 10.1021 87.2952 9.99054C86.7601 10.1302 86.2221 10.267 85.687 10.4097C83.4675 11.0042 81.2461 11.5987 79.0227 12.1932C78.9847 12.2102 78.9435 12.2191 78.9018 12.2193C78.8602 12.2194 78.8189 12.2108 78.7808 12.194C78.7427 12.1772 78.7086 12.1525 78.6806 12.1217C78.6526 12.0908 78.6314 12.0544 78.6184 12.0148C77.3581 9.90831 76.0918 7.80278 74.8195 5.69825C74.753 5.57904 74.6593 5.4772 74.5461 5.401C74.4411 5.96379 74.342 6.5256 74.2488 7.08641C73.8941 9.06808 73.5414 11.0497 73.1906 13.0314C73.152 13.2454 73.1014 13.4565 73.0806 13.6735C73.0598 13.8905 72.9588 13.9529 72.7834 14.0123C70.1656 14.8367 67.5478 15.6641 64.93 16.4944C64.8002 16.5312 64.681 16.5985 64.5823 16.6906L71.0177 19.2558C70.9375 19.3212 70.8869 19.3688 70.8305 19.4074C69.4899 20.2724 68.1552 21.1345 66.8146 22.0054C66.7494 22.0562 66.6709 22.087 66.5885 22.0938C66.5061 22.1007 66.4236 22.0834 66.3509 22.0441C64.7517 21.3217 63.1465 20.6173 61.5473 19.9009C60.8253 19.6012 60.1845 19.1347 59.6776 18.5395C58.5392 17.1454 58.7651 15.567 60.2721 14.595C60.7785 14.2813 61.3229 14.0335 61.8921 13.8578C64.4574 13.0225 67.0316 12.217 69.6206 11.4084C69.7154 11.39 69.8015 11.3411 69.8659 11.2692C69.9303 11.1973 69.9694 11.1063 69.9773 11.0101C70.3192 9.02448 70.6759 7.04182 71.0326 5.0651C71.2258 4.00392 71.3298 2.91599 71.8411 1.94695C72.0371 1.56817 72.2787 1.21479 72.5604 0.894682C73.583 -0.240815 75.0068 -0.29432 76.0888 0.796589C76.4485 1.16547 76.7646 1.57439 77.0311 2.01532C78.2201 3.95735 79.3952 5.90731 80.5565 7.8652C80.5753 7.91404 80.6039 7.95852 80.6405 7.99589C80.6771 8.03326 80.721 8.06274 80.7695 8.08251C80.8179 8.10228 80.8699 8.11193 80.9222 8.11085C80.9746 8.10977 81.0261 8.098 81.0737 8.07625C83.9432 7.30736 86.8166 6.54541 89.694 5.7904C90.2735 5.62414 90.8829 5.58961 91.4775 5.68933C92.8032 5.93605 93.3799 6.94373 92.934 8.22488C92.7144 8.79229 92.3919 9.3143 91.9828 9.76464C89.9773 12.1228 87.9719 14.479 85.9664 16.8333C85.8912 16.9007 85.8437 16.9938 85.8333 17.0943C85.8229 17.1949 85.8502 17.2957 85.91 17.3772C87.099 19.6393 88.288 21.9073 89.4948 24.1694C89.8008 24.6957 89.9752 25.2882 90.0031 25.8964C90.0086 26.5769 89.7645 27.2359 89.317 27.7486C88.8695 28.2613 88.2496 28.5922 87.5746 28.6787C86.8111 28.7581 86.0395 28.6626 85.3184 28.3993C83.5171 27.8404 81.7148 27.2915 79.9114 26.7525C79.8395 26.7431 79.7735 26.7076 79.7258 26.6529C79.6782 26.5981 79.6522 26.5278 79.6528 26.4552C79.4448 25.186 79.2189 23.9197 78.9989 22.6504C78.9956 22.601 78.9956 22.5513 78.9989 22.5018L85.2263 24.217Z" fill="#E26A1A"/>
<path fill-rule="evenodd" clip-rule="evenodd" d="M81.7159 42.6998C80.0958 42.6998 78.4728 42.6998 76.8499 42.6998C76.7586 42.7076 76.667 42.6888 76.5863 42.6455C76.5055 42.6022 76.4391 42.5364 76.3951 42.4561C74.4709 39.5311 72.5437 36.6082 70.6135 33.6872C70.5541 33.595 70.4887 33.5059 70.3787 33.3483C69.9626 36.5051 69.5583 39.5906 69.1511 42.682H64.9004C64.9509 42.2688 64.9955 41.8675 65.046 41.4692L66.2945 31.9572C66.6908 28.9312 67.0872 25.9042 67.4835 22.8762C67.4979 22.7772 67.5501 22.6877 67.6292 22.6265C69.0916 21.6713 70.5571 20.7231 72.0255 19.7818C72.0662 19.7633 72.1092 19.7503 72.1533 19.7432C71.7104 23.1288 71.2616 26.4878 70.8276 29.8497L70.8811 29.8853L77.8338 22.1747C77.9021 22.567 77.9616 22.9029 78.0181 23.2388C78.1815 24.2019 78.3421 25.165 78.5174 26.1251C78.5365 26.2061 78.5331 26.2908 78.5074 26.3699C78.4817 26.4491 78.4348 26.5196 78.3718 26.574C76.8855 28.1316 75.3993 29.6921 73.913 31.2557L73.7139 31.4756C73.7614 31.5499 73.8001 31.6243 73.8476 31.6926C76.4198 35.2913 78.9861 38.8841 81.5464 42.4709C81.5983 42.5327 81.655 42.5904 81.7159 42.6433V42.6998Z" fill="white"/>
<path fill-rule="evenodd" clip-rule="evenodd" d="M20.1119 41.5201C19.987 42.4654 19.8652 43.3571 19.7492 44.2459C19.5947 45.4349 19.4411 46.6239 19.2885 47.8129C19.2736 47.9496 19.229 48.0121 19.0804 48.0121C17.9152 48.0121 16.747 48.0121 15.5788 48.0121C15.5393 48.0046 15.5005 47.9937 15.4629 47.9794C15.5342 47.4205 15.6026 46.8587 15.6769 46.2999C15.9325 44.3341 16.1912 42.3693 16.4527 40.4054C16.75 38.1612 16.9878 35.9051 17.3712 33.6727C18.049 29.7222 21.399 26.3187 25.3316 25.4686C27.6145 24.9781 29.7904 25.204 31.7849 26.4882C32.7346 27.0757 33.5348 27.8759 34.1223 28.8256C34.7099 29.7753 35.0687 30.8485 35.1706 31.9605C35.5362 35.263 34.3205 38.0036 31.9751 40.2836C30.4779 41.7631 28.5489 42.7281 26.4671 43.0391C24.2764 43.369 22.2164 43.0034 20.3705 41.7133C20.3021 41.636 20.2308 41.5944 20.1119 41.5201ZM31.3479 33.3606C31.2886 32.9315 31.2023 32.5066 31.0893 32.0884C30.3789 29.8917 28.1168 28.6878 25.7923 29.2318C24.5627 29.4931 23.4485 30.1399 22.6118 31.0781C21.7752 32.0164 21.2597 33.1971 21.1404 34.4485C21.0282 35.4007 21.2419 36.3627 21.7466 37.1778C22.2514 37.993 23.0173 38.613 23.9197 38.937C24.6513 39.2042 25.4351 39.2973 26.209 39.2091C26.9829 39.1209 27.7257 38.8537 28.3784 38.4287C30.2125 37.3229 31.2142 35.6791 31.3479 33.3606Z" fill="white"/>
<path fill-rule="evenodd" clip-rule="evenodd" d="M18.2115 22.7454L14.371 25.605C14.1659 25.281 13.9846 24.9599 13.7765 24.6627C13.2266 23.8928 12.5429 23.3191 11.5501 23.2507C11.1607 23.2133 10.7679 23.2684 10.4037 23.4115C10.0396 23.5546 9.71433 23.7816 9.4545 24.0741C9.20566 24.329 9.05839 24.6659 9.04033 25.0217C9.02227 25.3774 9.13467 25.7275 9.35641 26.0062C9.87363 26.684 10.4414 27.326 11.018 27.9532C11.9782 28.9936 12.9799 29.9924 13.9311 31.0387C14.7991 31.9869 15.4887 33.0541 15.7146 34.353C15.9519 35.8583 15.6755 37.3996 14.9299 38.7286C13.5774 41.2403 11.4461 42.6998 8.6341 43.1546C7.40449 43.3694 6.14217 43.3023 4.94224 42.9584C4.18329 42.7369 3.48183 42.3525 2.8868 41.8319C2.29176 41.3113 1.8175 40.6671 1.49711 39.9443C1.24148 39.4182 1.04826 38.8623 0.816406 38.3005L4.97791 36.0712C5.02547 36.1871 5.05817 36.2822 5.10573 36.3684C5.31546 36.8543 5.55675 37.326 5.82805 37.7803C6.19908 38.3887 6.78616 38.8345 7.4718 39.0285C8.15745 39.2225 8.89108 39.1504 9.52585 38.8267C9.89632 38.6584 10.2391 38.4349 10.5424 38.1638C10.9818 37.8174 11.2699 37.3144 11.3464 36.7602C11.4229 36.206 11.2818 35.6437 10.9526 35.1913C10.5435 34.6104 10.0914 34.0609 9.60016 33.5475C8.46467 32.2871 7.28161 31.0655 6.17287 29.7813C5.39259 28.9155 4.88401 27.8395 4.71039 26.687C4.52242 25.4348 4.78921 24.1567 5.46243 23.0843C7.13595 20.3734 9.57044 18.9674 12.7867 19.0833C14.6207 19.1487 16.0832 20.0077 17.2157 21.4316C17.5516 21.8507 17.8667 22.2906 18.2115 22.7454Z" fill="white"/>
<path fill-rule="evenodd" clip-rule="evenodd" d="M49.2989 37.2871C49.0849 38.916 48.8828 40.4676 48.6747 42.0163C48.6692 42.0606 48.6538 42.1032 48.6296 42.1408C48.6054 42.1783 48.5731 42.2099 48.535 42.2333C45.3693 43.6987 41.1959 43.4966 38.5949 40.5419C37.9271 39.785 37.4156 38.9033 37.0901 37.9478C36.7646 36.9922 36.6315 35.9817 36.6985 34.9744C36.9006 30.1233 40.9224 25.8905 45.7349 25.296C48.5439 24.9512 51.0081 25.7091 52.9135 27.8939C54.1839 29.3268 54.8338 31.2051 54.7208 33.1166C54.6613 34.4097 54.4592 35.6997 54.2987 36.9809C54.0698 38.809 53.8201 40.6311 53.5793 42.4533C53.5793 42.5187 53.5585 42.5841 53.5437 42.6643H49.7507C49.8013 42.2452 49.8459 41.835 49.8994 41.4277C50.1758 39.3202 50.476 37.2187 50.7168 35.1082C50.9137 33.8031 50.7236 32.4688 50.1699 31.2707C49.8886 30.6693 49.4507 30.1547 48.902 29.7807C48.3534 29.4068 47.7143 29.1873 47.0517 29.1454C45.621 29.0127 44.191 29.4054 43.0286 30.2499C41.8663 31.0945 41.051 32.3333 40.7351 33.7349C40.322 35.6284 40.97 37.4476 42.48 38.4493C43.99 39.451 45.5268 39.4332 47.132 38.7971C47.956 38.4583 48.6958 37.9428 49.2989 37.2871Z" fill="white"/>
<path fill-rule="evenodd" clip-rule="evenodd" d="M65.2525 25.6645C65.0801 26.9783 64.9076 28.2743 64.7352 29.5941C63.9327 29.5941 63.1479 29.5941 62.3572 29.5941C62.0462 29.5939 61.7429 29.6914 61.4901 29.8727C61.2373 30.054 61.0478 30.31 60.9483 30.6048C60.8816 30.8411 60.8359 31.0828 60.8115 31.3271C60.4152 34.3432 60.0189 37.3603 59.6225 40.3784C59.5244 41.1393 59.4264 41.9003 59.3253 42.6731H55.3867C55.461 42.0786 55.5324 41.5317 55.6037 40.9699C55.8633 39.0179 56.1209 37.063 56.3766 35.1051C56.6025 33.4138 56.8016 31.7195 57.0662 30.0341C57.4199 27.7749 59.6671 25.7685 61.947 25.6704C63.035 25.6258 64.1259 25.6645 65.2525 25.6645Z" fill="white"/>
<path d="M83.4815 40.955V42.682H83.1516V40.955H82.5273V40.6875H84.1057V40.955H83.4815ZM86.3767 42.682V41.0174L85.7228 42.682H85.5147L84.8608 41.0174V42.682H84.5308V40.6875H85.0391L85.6336 42.2035L86.2281 40.6875H86.7305V42.682H86.3767Z" fill="white"/>
<path d="M24.6266 20.9028H22.9976L22.4804 21.9313H21.3301L23.8716 17.1753H24.9803L25.8483 21.9313H24.7782L24.6266 20.9028ZM23.4941 19.9457H24.472L24.2402 18.4594L23.4941 19.9457Z" fill="white"/>
<path d="M29.0435 17.1753H30.5714C31.368 17.1753 31.9268 17.6509 31.9268 18.4683C31.9356 18.6999 31.8957 18.9307 31.8098 19.1459C31.7239 19.3611 31.5939 19.5559 31.4281 19.7177C31.2623 19.8796 31.0644 20.0049 30.8472 20.0857C30.6301 20.1664 30.3984 20.2007 30.1671 20.1864H29.5102L29.2129 21.9254H28.1934L29.0435 17.1753ZM30.4465 18.1324H29.8669L29.6707 19.2293H30.2503C30.3375 19.2351 30.4248 19.2217 30.5061 19.19C30.5875 19.1583 30.6608 19.109 30.721 19.0457C30.7811 18.9825 30.8266 18.9067 30.8542 18.8239C30.8818 18.741 30.8907 18.6531 30.8805 18.5664C30.8874 18.5074 30.8811 18.4475 30.8618 18.3912C30.8426 18.3349 30.811 18.2837 30.7694 18.2412C30.7278 18.1987 30.6772 18.1661 30.6213 18.1457C30.5654 18.1254 30.5057 18.1178 30.4465 18.1235V18.1324Z" fill="white"/>
<path d="M36.4176 20.9028H34.7916L34.2744 21.9313H33.1211L35.6626 17.1753H36.7743L37.6393 21.9313H36.5722L36.4176 20.9028ZM35.2881 19.9457H36.266L36.0342 18.4594L35.2881 19.9457Z" fill="white"/>
<path d="M42.8516 21.7469C42.5148 21.9055 42.1478 21.9896 41.7756 21.9936C40.5212 21.9936 39.7305 21.0484 39.7305 19.8683C39.7397 19.1343 40.0356 18.4331 40.5549 17.9143C41.0742 17.3956 41.7758 17.1004 42.5098 17.092C42.8579 17.0875 43.2016 17.1714 43.5085 17.3357L43.3688 18.4742C43.245 18.3446 43.0952 18.2427 42.9292 18.1751C42.7632 18.1075 42.5848 18.0757 42.4057 18.0818C41.9682 18.1001 41.5545 18.2859 41.2502 18.6007C40.9459 18.9155 40.7743 19.3353 40.7708 19.7732C40.7708 20.4628 41.2048 21.0008 41.8885 21.0008C42.2867 20.999 42.6728 20.864 42.9854 20.6174L42.8516 21.7469Z" fill="white"/>
<path d="M48.9122 20.0021H46.8314L46.5074 21.9313H45.5176L46.3558 17.1753H47.3457L47.0127 19.0539H49.0786L49.4145 17.1753H50.4044L49.5691 21.9313H48.5763L48.9122 20.0021Z" fill="white"/>
<path d="M52.5469 21.9313L53.3851 17.1753H56.0158L55.8493 18.1324H54.2085L54.042 19.0539H55.5402L55.3737 20.0111H53.8637L53.6972 20.9682H55.3381L55.1686 21.9254L52.5469 21.9313Z" fill="white"/>
</g>
<defs>
<clipPath id="clip0">
<rect width="92.2933" height="48" fill="white" transform="translate(0.798828)"/>
</clipPath>
</defs>
</svg>
