<svg xmlns="http://www.w3.org/2000/svg" width="52" height="53" fill="none"><g fill="#767676" clip-path="url(#a)"><path d="M26.18 23.307c-2.33 0-3.674 2.285-3.674 5.109-.023 2.866 1.366 5.062 3.651 5.062 2.307 0 3.652-2.174 3.652-5.13 0-2.756-1.3-5.04-3.63-5.04z"/><path d="M46.111 18.745h-1.248v-6.024c0-.038-.006-.076-.011-.114a.997.997 0 0 0-.242-.66L34.584.494l-.008-.007a1.06 1.06 0 0 0-.203-.17c-.022-.015-.044-.027-.067-.04a1.108 1.108 0 0 0-.201-.084c-.019-.005-.036-.013-.055-.018a1.007 1.007 0 0 0-.234-.03H9.176a2.042 2.042 0 0 0-2.039 2.04v16.56H5.89a2.915 2.915 0 0 0-2.915 2.915v15.157a2.916 2.916 0 0 0 2.915 2.914h1.248v10.376c0 1.124.914 2.039 2.04 2.039h33.647a2.042 2.042 0 0 0 2.039-2.04V39.732h1.248a2.915 2.915 0 0 0 2.915-2.914V21.66a2.915 2.915 0 0 0-2.915-2.915zM9.176 2.185h23.62v10.433c0 .564.458 1.02 1.02 1.02h9.008v5.108H9.176V2.185zm24.306 33.712-.986 2.644a52.437 52.437 0 0 1-5.959-2.128 3.332 3.332 0 0 0-1.052-.224c-3.405-.224-6.586-2.734-6.586-7.662 0-4.524 2.867-7.93 7.37-7.93 4.616 0 7.146 3.495 7.146 7.617 0 3.428-1.59 5.846-3.584 6.742v.09c1.165.336 2.464.605 3.65.85zm-26.567-.65.695-2.822c.919.47 2.329.94 3.786.94 1.567 0 2.396-.649 2.396-1.634 0-.941-.717-1.479-2.531-2.128-2.51-.874-4.144-2.263-4.144-4.459 0-2.576 2.15-4.547 5.712-4.547 1.703 0 2.958.36 3.853.761l-.76 2.756a7.185 7.185 0 0 0-3.159-.717c-1.48 0-2.197.671-2.197 1.456 0 .963.852 1.39 2.801 2.13 2.666.985 3.92 2.372 3.92 4.5 0 2.533-1.95 4.683-6.094 4.683-1.724-.001-3.426-.45-4.278-.918zm35.909 14.307H9.176V39.73h33.648v9.823zm2.262-13.613h-9.433V20.843h3.43v12.231h6.003v2.867z"/></g><defs><clipPath id="a"><path fill="#fff" d="M0 0h52v52H0z" transform="translate(0 .146)"/></clipPath></defs></svg>