<svg fill="none" height="48" viewBox="0 0 48 48" width="48" xmlns="http://www.w3.org/2000/svg"><path d="m48 24c0-13.255-10.745-24-24-24s-24 10.745-24 24 10.745 24 24 24 24-10.745 24-24z" fill="#000"/><path clip-rule="evenodd" d="m23.28 35.978v-3.61c2.47.216 4.908-.674 6.66-2.429 2.79-2.79 3.262-7.145 1.136-10.469l-11.606 11.605-2.588 2.588c-.484-.358-.942-.752-1.367-1.178-4.687-4.686-4.687-12.284 0-16.97 2.425-2.43 5.777-3.702 9.205-3.493v3.61c-2.47-.216-4.908.674-6.66 2.429-2.79 2.79-3.262 7.145-1.136 10.469l11.606-11.605 2.588-2.587c.484.358.942.751 1.367 1.178 4.687 4.685 4.687 12.283 0 16.969-2.425 2.43-5.778 3.702-9.205 3.493z" fill="#fff" fill-rule="evenodd"/></svg>