<svg fill="none" height="48" viewBox="0 0 50 48" width="50" xmlns="http://www.w3.org/2000/svg" xmlns:xlink="http://www.w3.org/1999/xlink"><clipPath id="a"><path d="m0 0h48.955v48h-48.955z" transform="translate(.84082)"/></clipPath><g clip-path="url(#a)" stroke="#fff"><path d="m3.738 71.835s-1.726-41.657 8.422-47.6c11.17-6.54 19.984 3.992 26.848-1.782 8.996-7.566 7.694-34.335 7.694-34.335" stroke-width="5"/><g fill="#fff"><path d="m15.207 46.58c-2.395 0-4.344-1.95-4.344-4.345s1.95-4.344 4.345-4.344c2.394 0 4.344 1.95 4.344 4.344 0 2.395-1.95 4.345-4.345 4.345zm0-5.945c-.883 0 2.788 3.341-1.6 1.6-.821-.325.717 1.601 1.6 1.601.884 0 1.601-.717 1.601-1.6 0-.884-.717-1.601-1.6-1.601zm19.155-29.181c-2.395 0-4.344-1.949-4.344-4.344s1.949-4.344 4.344-4.344 4.344 1.95 4.344 4.344c0 2.395-1.95 4.344-4.344 4.344zm0-5.944c-.884 0 2.602 3.318-1.601 1.6-.818-.334.717 1.601 1.6 1.601.884 0 1.602-.717 1.602-1.6 0-.884-.718-1.601-1.601-1.601zm-27.009 12.504c-2.395 0-4.344-1.949-4.344-4.344s1.949-4.344 4.344-4.344 4.344 1.95 4.344 4.344c0 2.395-1.949 4.344-4.344 4.344zm0-5.944c-.883 0 2.579 3.155-1.6 1.6-.829-.308.717 1.601 1.6 1.601s1.6-.717 1.6-1.6c0-.884-.717-1.601-1.6-1.601zm35.555 26.6c-2.395 0-4.345-1.95-4.345-4.344 0-2.395 1.95-4.344 4.345-4.344s4.344 1.949 4.344 4.344-1.95 4.344-4.344 4.344zm0-5.945c-.884 0 2.579 3.26-1.601 1.6-.821-.325.717 1.601 1.6 1.601.884 0 1.601-.717 1.601-1.6 0-.884-.717-1.601-1.6-1.601z" stroke-width="1.167"/><path d="m24.238 36.626c-2.395 0-4.344-1.949-4.344-4.344s1.949-4.344 4.344-4.344 4.344 1.95 4.344 4.344c0 2.395-1.95 4.344-4.344 4.344zm0-5.945c-.884 0 2.927 3.04-1.601 1.601-.842-.267.717 1.601 1.6 1.601.884 0 1.602-.717 1.602-1.6 0-.884-.718-1.602-1.601-1.602z" stroke-width="1.25"/><path d="m19.037 10.711c-2.395 0-4.345-1.949-4.345-4.344s1.95-4.344 4.345-4.344 4.344 1.95 4.344 4.344c0 2.395-1.95 4.344-4.344 4.344zm0-5.944c-.389.344 2.283 3.421-1.601 1.6-.8-.375.717 1.601 1.6 1.601.884 0 1.601-.717 1.601-1.6 0-.884-.94-2.187-1.6-1.601z" stroke-width="1.167"/></g></g></svg>