<svg fill="none" height="40" viewBox="0 0 58 40" width="58" xmlns="http://www.w3.org/2000/svg" xmlns:xlink="http://www.w3.org/1999/xlink"><clipPath id="a"><path d="m0 0h57.313v40h-57.313z" transform="translate(.134766)"/></clipPath><g clip-path="url(#a)"><path d="m50.685 22.825c-.546.002-1.09.07-1.62.2-.987-3.883-3.07-7.401-6-10.133s-6.584-4.563-10.526-5.274c-.36-.065-.685-.114-1.053-.16.062-1.973.152-4.253 3.053-6.304l-.458-1.156s-5.664 1.756-6.305 6.597c-.28-1.316-2.917-2.965-4.223-3.277l-.648 1.049s1.73.865 2.152 3.253c-3.941.71-7.596 2.538-10.527 5.267-2.932 2.73-5.017 6.246-6.007 10.128-1.034-.256-2.115-.264-3.153-.024s-2.005.723-2.822 1.407c-.817.685-1.46 1.553-1.879 2.533-.418.98-.6 2.046-.53 3.11.071 1.064.392 2.096.936 3.013.545.916 1.298 1.691 2.198 2.262.9.57 1.922.92 2.983 1.021 1.06.101 2.13-.05 3.122-.44.577 1.442 1.315 2.815 2.198 4.093l5.62-3.79-.048-.062c-1.486-1.911-2.394-4.724-2.549-7.524-.167-3.092.585-6.158 2.557-7.96 4.065-3.463 8.496-1.884 11.261 1.434h.744c2.773-3.318 7.209-4.895 11.261-1.435 1.97 1.803 2.724 4.872 2.557 7.96-.152 2.8-1.06 5.614-2.549 7.526l-.049.061 5.62 3.79c.886-1.278 1.625-2.65 2.204-4.094.927.367 1.923.524 2.918.46.995-.063 1.963-.345 2.836-.826.872-.481 1.628-1.149 2.213-1.956.586-.807.985-1.734 1.171-2.713.186-.98.153-1.989-.096-2.954-.248-.966-.707-1.864-1.343-2.632s-1.434-1.385-2.336-1.809c-.902-.423-1.887-.642-2.883-.641zm-43.905 8.759c-.53 0-1.038-.21-1.413-.586-.374-.375-.585-.883-.585-1.413s.21-1.039.585-1.414.883-.585 1.413-.585c.4.001.789.121 1.12.345.017 1.05.088 2.098.214 3.14-.367.336-.845.523-1.342.526zm44.026 0c-.493-.001-.968-.185-1.334-.515.126-1.043.197-2.091.214-3.14.3-.204.65-.322 1.013-.342.362-.02.723.06 1.043.23s.589.425.775.737c.187.311.285.668.284 1.03.002.264-.047.525-.146.77-.1.243-.246.465-.431.652s-.406.336-.649.437-.503.154-.767.154z" fill="#00bf6f"/></g></svg>