<svg width="49" height="48" viewBox="0 0 49 48" fill="none" xmlns="http://www.w3.org/2000/svg">
<path d="M22.9921 32.4303H25.6543V25.1698H32.3501V22.5883H25.6543V15.3278H22.9921V22.5883H16.377V25.1698H22.9921V32.4303Z" fill="#E8762C"/>
<path d="M10.6494 42.9176H12.9083V36.4639H18.878V34.4471H12.9083V27.9126H10.6494V34.4471H4.67969V36.4639H10.6494V42.9176Z" fill="#C72035"/>
<path d="M35.7373 19.6033H37.9961V13.1495H44.0466V11.2134H37.9961V4.67896H35.7373V11.2134H29.7676V13.1495H35.7373V19.6033Z" fill="#59879B"/>
<path d="M23.3949 48H25.3311V43.4017H29.4454V41.7076H25.3311V37.1093H23.3949V41.7076H19.3613V43.4017H23.3949V48Z" fill="#5B6591"/>
<path d="M10.7301 19.6033H12.8276V13.0689H18.878V11.2134H12.8276V4.67896H10.7301V11.2134H4.67969V13.0689H10.7301V19.6033Z" fill="#EB912C"/>
<path d="M42.5942 29.2841H44.5303V24.7664H48.6446V22.9916H44.5303V18.474H42.5942V22.9916H38.5605V24.7664H42.5942V29.2841Z" fill="#5B6591"/>
<path fill-rule="evenodd" clip-rule="evenodd" d="M35.7373 42.9176H37.9961V36.4639H44.0466V34.4471H37.9961V27.9126H35.7373V34.4471H29.7676V36.4639H35.7373V42.9176Z" fill="#1F447E"/>
<path d="M29.1227 5.8084V4.43698H25.0891V0H23.637V4.43698H19.6034V5.8084H23.637V10.2454H25.0891V5.8084H29.1227ZM4.03361 28.9613H5.48571V24.5244H9.51933V23.1529H5.48571V18.7966H4.03361V23.1529H0V24.605L4.03361 24.5244V28.9613Z" fill="#7099A6"/>
</svg>
