<svg width="163" height="30" viewBox="0 0 163 30" fill="none" xmlns="http://www.w3.org/2000/svg">
<mask id="mask0" mask-type="alpha" maskUnits="userSpaceOnUse" x="13" y="0" width="14" height="30">
<path d="M26.8132 7.30038L13.9805 0V30L19.1135 27.0342V18.5932L22.9919 20.8175L22.9348 15.057L19.1135 12.8327V9.46768L26.8132 13.9734V7.30038Z" fill="white"/>
</mask>
<g mask="url(#mask0)">
<path d="M-1.18945 -0.114258H30.2934V30.0568H-1.18945V-0.114258Z" fill="url(#paint0_linear)"/>
</g>
<mask id="mask1" mask-type="alpha" maskUnits="userSpaceOnUse" x="0" y="0" width="13" height="30">
<path d="M0.0078125 7.30038L12.8405 0V30L7.70743 27.0342V9.46768L0.0078125 13.9734V7.30038Z" fill="white"/>
</mask>
<g mask="url(#mask1)">
<path d="M-1.36133 -0.114258H30.1216V30.0568H-1.36133V-0.114258Z" fill="url(#paint1_linear)"/>
</g>
<path d="M50.0265 9.29652H44.3231V25.095H41.1292V9.29652H35.4258V6.72998H50.0265V9.29652Z" fill="#425066"/>
<path d="M53.8475 25.323C52.976 25.3546 52.1072 25.2091 51.2936 24.8954C50.4799 24.5817 49.7384 24.1063 49.1136 23.4979C48.4946 22.8456 48.0138 22.0748 47.7002 21.2319C47.3865 20.389 47.2465 19.4914 47.2885 18.593V18.1938C47.267 16.9315 47.5404 15.6816 48.087 14.5436C48.587 13.5207 49.3559 12.6532 50.3113 12.0341C51.2637 11.4238 52.3743 11.1065 53.5053 11.1215C55.3874 11.1215 56.8133 11.6919 57.8399 12.8896C58.8665 14.0873 59.3798 15.7413 59.3798 17.9086V19.1633H50.4254C50.4769 20.1636 50.881 21.1133 51.5661 21.844C51.8885 22.1787 52.2801 22.4389 52.7136 22.6064C53.1471 22.7739 53.6119 22.8446 54.0756 22.8135C54.7426 22.831 55.4036 22.684 56.0004 22.3856C56.5972 22.0872 57.1114 21.6466 57.4977 21.1025L59.1517 22.6995C58.5457 23.5332 57.7465 24.2075 56.8227 24.6645C55.8988 25.1214 54.8779 25.3474 53.8475 25.323ZM53.5053 13.631C53.1204 13.6071 52.7351 13.6718 52.3792 13.8201C52.0232 13.9684 51.706 14.1964 51.452 14.4865C50.8762 15.1801 50.5366 16.0392 50.4825 16.939H56.357V16.7109C56.3584 15.8643 56.0774 15.0414 55.5585 14.3725C54.9895 13.8796 54.2579 13.6154 53.5053 13.631ZM64.5699 11.4067L64.684 13.0037C65.1625 12.4109 65.7723 11.9375 66.4652 11.6208C67.158 11.304 67.915 11.1526 68.6764 11.1786C71.5281 11.1786 72.9539 12.8325 73.011 16.0835V25.0949H69.9311V16.2546C69.9874 15.5599 69.7842 14.869 69.3608 14.3154C69.1156 14.0917 68.8271 13.9207 68.5132 13.8128C68.1993 13.7049 67.8666 13.6624 67.5357 13.6881C66.9599 13.6643 66.3895 13.8079 65.8935 14.1014C65.3976 14.3949 64.9973 14.8259 64.741 15.3421V25.0379H61.6612V11.3497L64.5699 11.4067ZM82.9349 21.3877C82.9408 21.1369 82.8806 20.889 82.7605 20.6688C82.6404 20.4486 82.4645 20.2638 82.2505 20.1329C81.561 19.751 80.8069 19.4997 80.0262 19.3915C79.1188 19.2193 78.2371 18.9318 77.4026 18.536C75.8627 17.7945 75.1212 16.7109 75.1212 15.3421C75.1269 14.7675 75.2633 14.2018 75.5203 13.688C75.7772 13.1741 76.1479 12.7255 76.6041 12.3763C77.6815 11.5515 79.0125 11.128 80.3684 11.1786C81.7803 11.1021 83.1739 11.5262 84.3037 12.3763C84.7834 12.7428 85.1682 13.2189 85.4262 13.7646C85.6842 14.3103 85.8078 14.9099 85.7866 15.5132H82.7068C82.7086 15.2309 82.6482 14.9517 82.5299 14.6954C82.4116 14.4391 82.2383 14.212 82.0224 14.0303C81.5306 13.6157 80.8957 13.4108 80.2543 13.4599C79.6696 13.4423 79.0932 13.6013 78.6003 13.9162C78.4025 14.0594 78.2421 14.2483 78.1329 14.4667C78.0237 14.6852 77.9688 14.9267 77.9729 15.171C77.9717 15.3845 78.0231 15.5951 78.1226 15.7841C78.222 15.9731 78.3665 16.1347 78.5433 16.2546C79.2947 16.6452 80.1032 16.9147 80.9387 17.0531C81.9308 17.2381 82.8912 17.5646 83.7904 18.0227C84.4127 18.3129 84.9449 18.7662 85.3304 19.3344C85.7992 20.1238 85.9539 21.0607 85.7637 21.9589C85.5735 22.8571 85.0523 23.6508 84.3037 24.1824C83.2736 24.8286 82.1011 25.2131 80.8884 25.3026C79.6756 25.3921 78.4594 25.1837 77.3456 24.6957C76.5209 24.3456 75.8099 23.7729 75.2923 23.0417C74.8273 22.3701 74.5695 21.5769 74.5509 20.7603H77.5167C77.5165 21.0783 77.5883 21.3923 77.7265 21.6787C77.8648 21.9651 78.066 22.2166 78.3152 22.4143C78.8967 22.8251 79.6006 23.0262 80.3113 22.9846C80.9518 23.0199 81.588 22.8609 82.1364 22.5284C82.3728 22.4466 82.5772 22.2923 82.7206 22.0875C82.864 21.8826 82.939 21.6377 82.9349 21.3877ZM87.5547 18.1367C87.5271 16.8921 87.8011 15.6594 88.3532 14.5436C88.84 13.527 89.6131 12.6746 90.5775 12.0911C91.5791 11.5037 92.7247 11.2074 93.8855 11.2356C94.7183 11.1995 95.5495 11.3381 96.3255 11.6426C97.1015 11.9472 97.8052 12.4108 98.3912 13.0037C99.5792 14.2965 100.249 15.9818 100.273 17.7375V18.4789C100.295 19.7229 100.021 20.9542 99.4748 22.0721C99.0058 23.1006 98.2285 23.9577 97.2505 24.5246C96.2317 25.1206 95.0653 25.4171 93.8855 25.3801C93.0194 25.4235 92.1546 25.2718 91.355 24.9362C90.5553 24.6005 89.8413 24.0895 89.2657 23.4409C88.125 22.1862 87.5547 20.4751 87.4977 18.3078L87.5547 18.1367ZM90.5775 18.4219C90.5089 19.587 90.8081 20.7442 91.433 21.7299C91.9273 22.369 92.6538 22.7873 93.4546 22.8941C94.2555 23.0008 95.0661 22.7875 95.7106 22.3002C95.9282 22.1397 96.1204 21.9475 96.2809 21.7299C96.9187 20.6654 97.2171 19.432 97.1364 18.1938C97.1995 17.0213 96.8792 15.8601 96.2239 14.8858C95.741 14.2516 95.0296 13.8312 94.2412 13.714C93.4528 13.5968 92.6498 13.7921 92.0034 14.2584C91.7816 14.4342 91.572 14.6247 91.376 14.8287C90.8063 15.9383 90.5314 17.1755 90.5775 18.4219ZM109.456 14.2584C109.041 14.1921 108.621 14.154 108.201 14.1443C106.775 14.1443 105.863 14.6576 105.349 15.7413V25.0949H102.27V11.4067H105.178L105.235 12.9466C105.538 12.3983 105.985 11.9436 106.528 11.6318C107.071 11.3201 107.689 11.1633 108.315 11.1786C108.683 11.1796 109.049 11.2373 109.399 11.3497L109.456 14.2584ZM122.289 17.2812H114.874V25.0949H111.68V6.72989H123.372V9.29643H114.874V14.7717H122.289V17.2812ZM128.391 25.0949H125.311V6.67285H128.391V25.0949ZM130.616 18.1367C130.588 16.8921 130.862 15.6594 131.414 14.5436C131.901 13.527 132.674 12.6746 133.638 12.0911C134.64 11.5037 135.786 11.2074 136.946 11.2356C137.779 11.1995 138.61 11.3381 139.386 11.6426C140.162 11.9472 140.866 12.4108 141.452 13.0037C142.64 14.2965 143.31 15.9818 143.334 17.7375V18.4789C143.347 19.7159 143.094 20.9413 142.593 22.0721C142.124 23.1006 141.346 23.9577 140.368 24.5246C139.35 25.1206 138.183 25.4171 137.003 25.3801C136.137 25.4235 135.272 25.2718 134.473 24.9362C133.673 24.6005 132.959 24.0895 132.384 23.4409C131.162 22.0173 130.53 20.1815 130.616 18.3078V18.1367ZM133.695 18.4219C133.627 19.587 133.926 20.7442 134.551 21.7299C134.824 22.1217 135.193 22.4374 135.622 22.647C136.051 22.8566 136.526 22.9532 137.003 22.9276C137.473 22.9591 137.943 22.8647 138.364 22.6541C138.785 22.4436 139.142 22.1245 139.399 21.7299C140.037 20.6654 140.335 19.432 140.254 18.1938C140.317 17.0213 139.997 15.8601 139.342 14.8858C138.859 14.2516 138.147 13.8312 137.359 13.714C136.571 13.5968 135.768 13.7921 135.121 14.2584C134.899 14.4342 134.69 14.6247 134.494 14.8287C133.898 15.9286 133.621 17.1732 133.695 18.4219ZM157.193 20.8744L159.361 11.4637H162.327L158.619 25.1519H156.11L153.201 15.7413L150.292 25.1519H147.783L144.019 11.4637H147.041L149.266 20.8173L152.06 11.4637H154.399L157.193 20.8744Z" fill="#425066"/>
<defs>
<linearGradient id="paint0_linear" x1="-1.18945" y1="14.9713" x2="30.2934" y2="14.9713" gradientUnits="userSpaceOnUse">
<stop stop-color="#FF6F00"/>
<stop offset="1" stop-color="#FFA800"/>
</linearGradient>
<linearGradient id="paint1_linear" x1="-61.1788" y1="-8117.65" x2="1676.68" y2="-8117.65" gradientUnits="userSpaceOnUse">
<stop stop-color="#FF6F00"/>
<stop offset="1" stop-color="#FFA800"/>
</linearGradient>
</defs>
</svg>
