<svg width="42" height="48" viewBox="0 0 42 48" fill="none" xmlns="http://www.w3.org/2000/svg">
<path d="M0.117188 11.9755C0.185286 11.9487 0.2581 11.9298 0.320916 11.8936C2.63739 10.5576 4.95354 9.22036 7.26939 7.88204C11.7603 5.28865 16.2512 2.69545 20.7421 0.102431C20.8013 0.0682879 20.8622 0.0365957 20.9294 0C20.9973 0.0356525 21.0643 0.0680997 21.1286 0.105261C26.1198 2.98702 31.1109 5.86902 36.1017 8.75128C37.8959 9.78728 39.6899 10.8235 41.4837 11.8598C41.5484 11.8976 41.6099 11.9404 41.6724 11.9809C41.6724 12.0689 41.6735 12.1569 41.6735 12.245C41.6735 20.0777 41.6735 27.9102 41.6735 35.7427C41.6735 35.8306 41.676 35.9185 41.6773 36.0068C41.6318 36.039 41.5886 36.0751 41.5405 36.1028C34.7011 40.0528 27.8615 44.0022 21.0215 47.9511C20.9947 47.9666 20.9669 47.9806 20.9309 48C20.7276 47.8834 20.5208 47.7657 20.315 47.6469C13.6445 43.7941 6.97367 39.9416 0.30243 36.0894C0.243009 36.0553 0.179061 36.029 0.117188 35.9992V11.9755ZM25.9817 4.9291L25.9091 4.88798C25.8902 4.83139 25.8525 4.8031 25.79 4.81951C25.7568 4.78574 25.7291 4.74273 25.6897 4.71991C25.1221 4.38922 24.5524 4.06175 23.9838 3.73257C23.5237 3.46603 23.0652 3.19684 22.6041 2.93162C22.3981 2.81372 22.1878 2.70205 21.9803 2.58736L21.3885 2.25366C21.2497 2.13463 21.0907 2.05162 20.9139 1.9807L1.82379 13.0039V35.1042L20.9328 46.1378C22.5352 45.2127 24.1298 44.2921 25.7165 43.3759C27.3122 42.4536 28.9075 41.5307 30.5024 40.6073C32.0934 39.689 33.6887 38.7784 35.2776 37.8569C36.87 36.9326 38.4686 36.0207 40.0478 35.0974V13.0179C39.9801 12.9751 39.9133 12.9294 39.8435 12.8891C39.464 12.6688 39.084 12.4495 38.7034 12.2311L37.4001 11.4792C36.9441 11.2161 36.4881 10.9527 36.0321 10.6892C35.5979 10.4383 35.1637 10.1873 34.7296 9.93612C34.2734 9.6729 33.8171 9.41 33.3606 9.14742C32.8339 8.84371 32.3073 8.53969 31.7808 8.23536C31.3248 7.97202 30.8688 7.70862 30.4128 7.44515C29.984 7.1971 29.5564 6.94772 29.1272 6.70041C28.6707 6.43764 28.2125 6.17807 27.7566 5.91455C27.2473 5.6197 26.7379 5.32109 26.2286 5.02795C26.1767 4.99795 26.1128 4.98909 26.0547 4.97023L25.9817 4.9291Z" fill="#404040"/>
<path d="M41.6787 36.0062C41.6774 35.9183 41.675 35.8304 41.675 35.7421C41.675 27.9095 41.675 20.0769 41.675 12.2444C41.675 12.1565 41.675 12.0684 41.6738 11.9803L41.7127 11.9749V35.9994L41.6965 36.0064L41.6787 36.0062Z" fill="#5F5F5F"/>
<path d="M21.9799 2.58743C22.1874 2.70193 22.3979 2.81379 22.6039 2.9315C23.0649 3.19673 23.5235 3.46591 23.9836 3.73246C24.5522 4.06163 25.1219 4.38911 25.6895 4.71979C25.7289 4.74261 25.7566 4.78562 25.7898 4.81939L25.7862 4.82373C25.7385 4.82373 25.6838 4.81015 25.6444 4.82844C25.5433 4.87542 25.4488 4.93691 25.3531 4.9918V5.41699L25.7115 5.61563L26.0715 5.40813C26.0641 5.25892 26.0569 5.11593 26.0498 4.97313L26.053 4.96955C26.1113 4.98841 26.1752 4.99709 26.2271 5.02614C26.7377 5.31985 27.2457 5.61846 27.755 5.91273C28.211 6.17683 28.6692 6.43582 29.1257 6.6986C29.5548 6.9459 29.9825 7.19528 30.4113 7.44334C30.867 7.70743 31.323 7.97083 31.7793 8.23354C32.3059 8.53763 32.8325 8.84165 33.3591 9.1456C33.8152 9.40869 34.2715 9.67159 34.728 9.9343C35.1623 10.1849 35.5965 10.4359 36.0306 10.6873C36.4865 10.9514 36.9425 11.2148 37.3986 11.4774L38.7019 12.2293C39.082 12.4485 39.4621 12.6678 39.842 12.8872C39.9118 12.9276 39.9786 12.9733 40.0463 13.0161V35.0974C38.467 36.0218 36.8685 36.9334 35.276 37.857C33.6871 38.7785 32.0918 39.6891 30.5009 40.6074C28.9046 41.5284 27.3093 42.4513 25.7149 43.376C24.1247 44.295 22.5302 45.2157 20.9313 46.1378L1.82227 35.1042V13.0042L20.9124 1.98096C21.0892 2.05188 21.2482 2.13488 21.387 2.25392L21.2672 2.3439V2.76418L21.62 2.9647C21.7424 2.89245 21.8545 2.82662 21.9703 2.75852C21.9737 2.69816 21.9767 2.64289 21.9799 2.58743ZM12.6206 22.7051C12.5691 22.6385 12.5431 22.6062 12.5186 22.573C12.3697 22.3689 12.1674 22.2098 11.9338 22.1133C11.4711 21.9205 11.0033 21.9168 10.5403 22.1028C9.9418 22.3433 9.56905 22.8039 9.35796 23.3962C9.09708 24.1285 9.08916 24.8727 9.3176 25.6159C9.42338 25.966 9.61342 26.2848 9.87106 26.5444C10.6741 27.3565 12.0794 27.1962 12.6318 26.2283C12.6533 26.197 12.6766 26.1671 12.7016 26.1385C12.718 26.4277 12.7325 26.681 12.7472 26.9396H13.4665C13.4635 24.5598 13.4604 22.1858 13.4573 19.8178H12.6206V22.7051ZM34.8342 24.6782H38.0562C38.1352 23.9933 38.0424 23.3578 37.6913 22.776C37.4533 22.3808 37.1039 22.1267 36.6538 22.0215C36.3342 21.9468 36.0014 21.9496 35.6831 22.0296C35.0459 22.1867 34.6039 22.5868 34.3344 23.1672C33.9586 23.9761 33.9092 24.8176 34.2049 25.661C34.4775 26.4386 35.0374 26.8996 35.8546 27.0281C36.423 27.1175 36.9815 27.0526 37.5265 26.8726C37.6257 26.8398 37.721 26.7947 37.8217 26.754L37.6727 26.1156C37.2414 26.3122 36.8087 26.3784 36.3648 26.3658C35.7369 26.3469 35.2498 26.0951 34.9867 25.4954C34.8759 25.2453 34.8322 24.9808 34.8342 24.6782ZM26.6513 26.1383C26.6251 26.1336 26.6179 26.13 26.6136 26.1319C26.5783 26.1449 26.5434 26.1594 26.5083 26.173C26.0493 26.3509 25.5525 26.4093 25.0647 26.3428C24.4267 26.26 23.9548 25.7836 23.841 25.1113C23.8176 24.9731 23.774 24.8327 23.8201 24.6726H27.0292C27.0946 23.9891 27.016 23.3521 26.6596 22.7705C26.441 22.414 26.1314 22.1669 25.7276 22.0497C25.3759 21.9464 25.0029 21.9399 24.6478 22.0309C23.9961 22.1931 23.5537 22.6091 23.2853 23.2055C22.9312 23.9935 22.8914 24.8127 23.1632 25.6314C23.4098 26.3745 23.9317 26.8404 24.7002 27.0085C25.1292 27.1028 25.5625 27.0771 25.9926 27.0017C26.2644 26.9538 26.5297 26.8832 26.7871 26.748L26.6513 26.1383ZM16.2555 25.9293C15.8818 24.613 15.3849 23.3666 14.9631 22.0958H14.0433C14.6394 23.671 15.2296 25.2304 15.8137 26.774C15.537 27.5648 15.0511 28.1237 14.2963 28.4306C14.3693 28.6862 14.4374 28.9248 14.5106 29.1816C14.6534 29.1267 14.7785 29.0873 14.8962 29.032C15.4266 28.782 15.8062 28.3717 16.1035 27.8777C16.3636 27.4459 16.5709 26.9879 16.7448 26.5167C17.2755 25.0806 17.7967 23.6409 18.3207 22.2024C18.3311 22.1666 18.339 22.1302 18.3443 22.0933H17.4664C17.0644 23.3668 16.6641 24.635 16.2555 25.9293ZM18.4795 22.088C19.0658 23.7214 19.6464 25.3391 20.2212 26.9411H21.0324C21.6317 25.323 22.228 23.7128 22.829 22.0903H21.9501C21.5211 23.4045 21.092 24.7192 20.6674 26.0232C20.2384 24.7107 19.8099 23.3989 19.382 22.088H18.4795ZM30.4726 26.7285C31.1224 27.0781 31.7893 27.1701 32.4831 26.9564C33.059 26.7789 33.4027 26.3814 33.473 25.7767C33.5406 25.1951 33.338 24.7244 32.8334 24.4105C32.6321 24.2855 32.4095 24.1951 32.1977 24.087C32.025 23.9989 31.8464 23.9195 31.6836 23.8156C31.4605 23.6732 31.3788 23.4534 31.4195 23.1953C31.4603 22.9373 31.6204 22.7696 31.8666 22.686C32.0653 22.6214 32.2785 22.6163 32.48 22.6713C32.6945 22.7262 32.9011 22.8111 33.1237 22.8873C33.1863 22.6921 33.2527 22.4855 33.3234 22.2648C33.2259 22.2176 33.1448 22.1705 33.0593 22.1378C32.5247 21.9303 31.9841 21.8871 31.4467 22.1175C30.9787 22.3184 30.6999 22.6805 30.6255 23.1861C30.5474 23.7167 30.7514 24.1317 31.1788 24.4415C31.2858 24.5183 31.3988 24.5863 31.5167 24.645C31.6565 24.7152 31.807 24.7639 31.9462 24.835C32.1073 24.9174 32.2722 24.9995 32.4155 25.1081C32.6562 25.2907 32.7089 25.5554 32.654 25.837C32.6006 26.1098 32.4142 26.2694 32.1531 26.3448C32.0869 26.3636 32.0191 26.3765 31.9505 26.3835C31.5489 26.4258 31.1805 26.3181 30.8306 26.13C30.784 26.1049 30.7363 26.0834 30.681 26.0566C30.6101 26.2854 30.5454 26.4942 30.4726 26.7295V26.7285ZM6.6297 26.2841C6.48181 26.3001 6.34542 26.3218 6.20847 26.3288C5.86307 26.3477 5.65652 26.203 5.57804 25.8665C5.53838 25.689 5.51839 25.5077 5.51843 25.3258C5.5124 24.5218 5.5156 23.7179 5.51636 22.9137C5.51636 22.8658 5.52409 22.8179 5.52937 22.7556H6.70308V22.0788H5.51655V20.9194C5.36865 20.9683 5.23906 21.0107 5.10965 21.0539C4.97497 21.0988 4.84066 21.1447 4.69975 21.1922V22.0903H4.00386V22.7673H4.70616V22.9946C4.70616 23.8175 4.70257 24.6403 4.70842 25.4631C4.70851 25.6764 4.72604 25.8894 4.76086 26.0998C4.85348 26.6316 5.18643 26.9751 5.695 27.0456C5.89665 27.0735 6.10774 27.0486 6.31279 27.03C6.43333 27.019 6.55047 26.9734 6.66969 26.9432C6.65535 26.7055 6.64253 26.494 6.6297 26.2841ZM30.1607 22.0182C29.9742 21.9492 29.7814 21.9543 29.5511 22.0371C29.0844 22.2039 28.8295 22.5706 28.6292 23.0033C28.6156 22.7015 28.6022 22.4012 28.5886 22.0978H27.8858C27.8939 23.7201 27.902 25.3309 27.9101 26.9419H28.7284V26.7498C28.7284 26.1596 28.7284 25.5693 28.7284 24.9793C28.7284 24.7094 28.7245 24.4388 28.7395 24.1697C28.7594 23.819 28.8544 23.4889 29.0791 23.2091C29.3219 22.9073 29.6392 22.7768 30.0255 22.8173C30.0674 22.8218 30.1094 22.8258 30.1607 22.8309V22.0182ZM8.28065 26.9441V22.0961H7.47178V26.9441H8.28065ZM19.4129 35.8407L20.1756 35.3945V34.4483L19.4078 34.0065L18.6088 34.4627V35.387L19.4129 35.8407ZM26.2529 6.50751L25.5286 6.09005L24.787 6.51109V7.38996L25.5325 7.81043L26.2529 7.39033V6.50751ZM13.2428 35.2936V36.1614L13.9785 36.5786L14.6981 36.1589V35.2959L13.9769 34.8809L13.2428 35.2936ZM29.0559 14.854V15.7217L29.7903 16.1367L30.5071 15.7191V14.8523L29.7895 14.4409L29.0559 14.854ZM11.9036 15.4576L11.204 15.8528V16.6755L11.9061 17.0716L12.5833 16.6755V15.8487L11.9036 15.4576ZM30.9304 10.3625V11.1957L31.6161 11.5807L32.3108 11.1823V10.3725L31.6129 9.97354L30.9304 10.3625ZM34.4677 17.3895L33.7886 16.9993L33.0907 17.3944V18.197L33.7898 18.5943L34.4668 18.1981L34.4677 17.3895ZM21.0137 19.3117L21.7083 19.7031L22.3879 19.3007V18.5026L21.6969 18.1087L21.0131 18.5017L21.0137 19.3117ZM24.389 39.5629V40.3584L25.0681 40.7447L25.7221 40.3633V39.5549L25.0668 39.1777L24.389 39.5629ZM28.1419 34.3212L27.5017 33.9579L26.8624 34.3191V35.0688L27.5019 35.4336L28.141 35.0729L28.1419 34.3212ZM21.9476 12.7131L21.3236 13.0685V13.8042L21.9492 14.159L22.5543 13.8055V13.0657L21.9476 12.7131ZM23.1089 30.9616L22.493 31.3107V32.0357L23.11 32.3877L23.7114 32.036V31.3096L23.1089 30.9616ZM21.141 7.04513V6.33453L20.5353 5.98177L19.9249 6.33226V7.04909C20.1048 7.15284 20.2763 7.25659 20.4531 7.35091C20.4925 7.37185 20.5591 7.38298 20.5944 7.36411C20.78 7.26319 20.9613 7.15246 21.141 7.04513ZM38.9484 15.5508L38.3431 15.8937V16.6106L38.9492 16.9539L39.5572 16.6121V15.8973L38.9484 15.5508ZM33.2314 35.7688V36.4919C33.4351 36.6077 33.6354 36.7214 33.835 36.8346L34.4298 36.4869V35.7724L33.8335 35.4283L33.2314 35.7688ZM37.2116 19.8121V20.5014L37.7979 20.834L38.3827 20.502V19.8159L37.7953 19.4822L37.2116 19.8121ZM17.742 15.8924V16.5774L18.3322 16.9122L18.917 16.5789V15.8934L18.3281 15.5593L17.742 15.8924ZM15.8467 8.13753V8.82889L16.4374 9.16485L17.0093 8.83228V8.13432L16.4353 7.80534L15.8467 8.13753ZM9.90973 11.6926L10.479 11.3606V10.68L9.90709 10.3497L9.32986 10.68V11.363L9.90973 11.6926ZM14.3993 41.5673L14.9731 41.2453V40.5585L14.3986 40.2316L13.8147 40.5647V41.235L14.3993 41.5673ZM18.1609 42.5754L18.7393 42.2449V41.5694L18.1602 41.2382L17.5846 41.5643V42.247L18.1609 42.5754ZM9.31213 30.5L8.7298 30.1681L8.15276 30.4949V31.1721L8.73131 31.5003L9.3125 31.1719L9.31213 30.5ZM7.21749 35.0143V35.6839L7.79284 36.0114L8.3663 35.6894V35.0143L7.79435 34.687L7.21749 35.0143ZM15.3497 12.1244V12.8097L15.9192 13.1304L16.4887 12.8097V12.1306L15.9173 11.8058L15.3497 12.1244ZM31.0862 32.0094L31.6393 31.6816V31.0025L31.0813 30.6803L30.5165 31.0066V31.6831L31.0862 32.0094ZM4.36604 34.4483L4.91894 34.1252V33.4674L4.36491 33.1494L3.79749 33.4701V34.1243L4.36604 34.4483ZM26.1754 30.5492V29.8852L25.6206 29.5705L25.0621 29.8852V30.5435L25.6204 30.8618L26.1754 30.5492ZM4.90385 29.3776V28.7173L4.35473 28.401L3.79296 28.7192V29.3768L4.35737 29.6947L4.90385 29.3776ZM11.6899 31.6876L12.2194 31.3879V30.7246L11.6912 30.4155L11.1404 30.7275V31.3835L11.6899 31.6876ZM5.42543 15.6157L4.88763 15.3086L4.34963 15.6144V16.2389L4.88801 16.5466L5.42543 16.2401V15.6157ZM25.3735 13.9368L24.8579 13.6391L24.3388 13.9393V14.5391L24.8612 14.8283L25.3735 14.5371V13.9368ZM8.3829 20.7387C8.3829 20.4044 8.18143 20.1819 7.8781 20.1788C7.57157 20.1756 7.34992 20.4137 7.35369 20.7438C7.35652 21.0564 7.57157 21.2841 7.86301 21.2829C8.17275 21.2814 8.38384 21.0609 8.3829 20.7387ZM5.57163 13.4718L5.06721 13.1826L4.57109 13.4694V14.073L5.07551 14.3584L5.57163 14.0617V13.4718ZM14.1199 17.2031L13.6421 16.9288L13.1635 17.201V17.7841L13.6457 18.0557L14.1199 17.7765V17.2031ZM3.135 30.8793V30.3079L2.66472 30.0369L2.19181 30.3053V30.8831L2.66699 31.1504L3.135 30.8793ZM10.1314 14.9987L9.66375 14.7346L9.20913 14.9941V15.5493L9.66941 15.8075L10.1323 15.5434L10.1314 14.9987ZM25.415 33.979L24.9604 33.7208L24.501 33.983V34.5264L24.9647 34.7879L25.4142 34.5238L25.415 33.979ZM7.14789 16.4444V16.9743L7.61212 17.2374L8.06146 16.9722V16.4415L7.60213 16.1852L7.14789 16.4444ZM28.403 37.4377L28.8442 37.1836V36.6611L28.4043 36.4087L27.9597 36.6603V37.1808L28.403 37.4377ZM27.8314 32.2654V31.7508L27.4 31.5056L26.9699 31.7508V32.2643L27.4015 32.5084L27.8314 32.2654ZM22.5685 29.1567L22.9797 29.3895L23.3802 29.1612V28.6789L22.9761 28.4508L22.5692 28.683L22.5685 29.1567ZM37.9047 29.1433L38.2854 29.3568L38.6489 29.1393V28.6979L38.281 28.4859L37.9038 28.6973L37.9047 29.1433ZM38.4848 14.0634V13.6437L38.1245 13.4373L37.7715 13.6374V14.0651L38.1246 14.2654L38.4848 14.0634ZM20.6481 37.6808L20.2897 37.4733L19.9298 37.6825V38.1009L20.2973 38.3084L20.6481 38.0947V37.6808ZM36.1502 30.1119L36.5129 30.3162L36.867 30.1114V29.6915L36.505 29.49L36.1492 29.6975L36.1502 30.1119ZM26.5625 14.6225V15.0362L26.9222 15.245L27.2825 15.0441V14.6208L26.9241 14.4167L26.5625 14.6225ZM27.4732 12.0889V12.5164L27.8382 12.7195L28.1882 12.5079V12.0912L27.8309 11.8873L27.4732 12.0889ZM13.6402 14.1451L13.9986 14.3479L14.3537 14.1404V13.7254L13.9913 13.5201L13.6395 13.7265L13.6402 14.1451ZM26.142 18.0165L25.7779 18.2279V18.645L26.1454 18.8493L26.4951 18.6418V18.2255L26.142 18.0165ZM14.8749 37.4988V37.9193L15.2352 38.123L15.5936 37.9172V37.4997L15.2325 37.2949L14.8749 37.4988ZM18.5027 13.2711L18.8676 13.4748L19.2209 13.2683V12.8455L18.8647 12.6431L18.5027 12.8474V13.2711ZM22.6935 14.8464V15.2682L23.0561 15.4757L23.4034 15.2656V14.8445L23.0499 14.6444L22.6935 14.8464ZM28.8035 18.2896L28.4404 18.0848L28.0918 18.286V18.7127L28.4424 18.9116L28.8027 18.7073L28.8035 18.2896ZM20.129 4.83976C20.0086 4.77185 19.8862 4.70281 19.7683 4.6366L19.4112 4.8392V5.26608L19.7744 5.46906L20.129 5.26326V4.83976ZM26.8256 9.57457L27.1784 9.36707V8.94829L26.82 8.744L26.4633 8.9515V9.36933L26.8256 9.57457ZM31.6065 19.063L31.245 19.2838V19.684L31.6116 19.9006L31.9775 19.6742C31.9775 19.5927 31.9788 19.5307 31.9775 19.4686C31.9762 19.4066 31.9713 19.3458 31.9679 19.28L31.6065 19.063ZM21.2618 2.88604L20.9056 3.09109V3.51515L21.264 3.72076L21.6122 3.51515V3.08807L21.2618 2.88604ZM30.5731 29.338L30.2166 29.5455V29.9686L30.575 30.1725L30.9226 29.965V29.5419L30.5731 29.338ZM19.2201 7.56369L18.8617 7.76591V8.19336L19.2216 8.39747L19.5699 8.18997V7.76271L19.2201 7.56369ZM20.2046 15.7042L19.8462 15.9094V16.334L20.206 16.5385L20.554 16.3352V15.9094L20.2046 15.7042ZM17.9787 30.6701L17.6235 30.875V31.3041L17.9808 31.5056C18.1011 31.4345 18.2183 31.3649 18.3309 31.2981V30.8786L17.9787 30.6701ZM19.6031 19.5188V19.0868L19.2518 18.8882L18.8959 19.0921V19.5179L19.2558 19.7208L19.6031 19.5188ZM33.0416 12.821L33.4015 13.0263L33.75 12.8212V12.3939L33.401 12.1927L33.0416 12.3949V12.821ZM18.7052 7.79025V7.35506L18.3571 7.16038L18.0036 7.35996V7.78949L18.359 7.99114L18.7052 7.79025ZM28.6652 29.779V30.2155L29.0161 30.4079L29.3685 30.2015V29.7865L29.0076 29.5815L28.6652 29.779ZM20.1033 30.1285L19.7604 29.9307L19.3993 30.1365V30.5583L19.7628 30.7641L20.1024 30.563L20.1033 30.1285ZM32.889 9.35952L32.5306 9.15768L32.1748 9.3631V9.77962C32.2918 9.8464 32.4102 9.9143 32.5332 9.98485L32.8892 9.78151L32.889 9.35952ZM19.3012 10.2427L19.6508 10.0416V9.61475L19.2967 9.41611L18.944 9.61833V10.0398L19.3012 10.2427ZM12.9326 29.4251L12.571 29.2201L12.2209 29.4196V29.8475L12.575 30.0474L12.9334 29.8382L12.9326 29.4251ZM6.60216 29.4957V29.0659L6.24752 28.8647L5.89665 29.0684V29.4907L6.24752 29.692L6.60216 29.4957ZM14.7066 15.9264V15.4989L14.3578 15.2954L14.0022 15.4997V15.9264L14.3569 16.1297L14.7066 15.9264ZM14.3212 32.7355V32.3064L13.9726 32.1045L13.6195 32.3077V32.7374L13.976 32.9373L14.3212 32.7355ZM16.7909 29.5475V29.9786L17.143 30.1764L17.4981 29.9722V29.5555L17.1413 29.3504L16.7909 29.5475ZM24.4986 9.90185L24.8468 9.70039V9.27388L24.4943 9.07543L24.1457 9.27558V9.70284L24.4986 9.90185ZM7.70229 12.5098L8.0607 12.3023V11.8873L7.70229 11.6822L7.35237 11.8799V12.3072L7.70229 12.5098ZM6.71553 17.8312L6.36296 17.6315L6.00757 17.836V18.254L6.36466 18.4585L6.71553 18.2608V17.8312ZM2.63869 18.2151V18.6446L2.99144 18.8435L3.34721 18.6369V18.2219L2.9888 18.017L2.63869 18.2151ZM17.4994 10.6536L17.1508 10.4536L16.8001 10.6611V11.0888L17.1564 11.2863L17.4994 11.0882V10.6536ZM35.452 19.5007V19.9304L35.807 20.1307L36.1564 19.9219V19.5037L35.8027 19.2998L35.452 19.5007ZM35.4879 31.6242V32.0558L35.8402 32.2522C35.9638 32.1811 36.0815 32.1134 36.1956 32.0474V31.6314L35.8372 31.4264L35.4879 31.6242ZM11.8936 14.2228L12.2556 14.429L12.5942 14.23V13.7925L12.2502 13.5967L11.8936 13.8074V14.2228ZM20.2859 41.3713V40.9443L19.9381 40.7428L19.5816 40.946V41.3706L19.9379 41.5726L20.2859 41.3713ZM22.9197 11.1738L22.5664 11.3746V11.7994L22.9231 12.0004L23.2696 11.8016V11.3715L22.9197 11.1738ZM34.6863 29.6239L34.3279 29.4179L33.9837 29.6169V30.0508L34.3336 30.2472L34.6873 30.041L34.6863 29.6239ZM30.8947 17.5822V18.0055L31.2514 18.2081L31.6046 18.0065V17.5826L31.249 17.3821L30.8947 17.5822ZM17.4398 36.4773L17.0889 36.6778V37.1081C17.207 37.176 17.3207 37.2402 17.4409 37.31L17.7921 37.1002V36.6852L17.4398 36.4773ZM29.722 10.4615L29.3698 10.2574L29.0114 10.4587V10.8818L29.3664 11.0842L29.7223 10.8828L29.722 10.4615ZM11.4711 37.4403L11.1174 37.2377L10.7641 37.4452V37.8627L11.12 38.0638L11.4711 37.8674V37.4403ZM29.4809 34.0933C29.6052 34.0231 29.7182 33.9592 29.8325 33.8949V33.4674L29.4773 33.2678L29.1253 33.4723V33.8898L29.4809 34.0933ZM19.056 3.15334V3.57363L19.4122 3.77736L19.7632 3.58117V3.15221L19.412 2.95206L19.056 3.15334ZM31.1219 13.9917L31.4844 14.1885L31.824 13.9911V13.5605L31.4771 13.3598L31.1228 13.5688L31.1219 13.9917ZM24.9757 16.7647L25.3386 16.9707L25.6781 16.7756V16.3372L25.336 16.1454L24.9755 16.3512L24.9757 16.7647ZM24.3154 5.07065L23.9646 4.86957L23.615 5.06971V5.50037L23.9663 5.69995L24.3154 5.49754V5.07065ZM24.4778 18.5418L24.1394 18.3457L23.781 18.5501V18.9714L24.1423 19.1762L24.4769 18.977L24.4778 18.5418ZM35.7882 12.3002L35.4462 12.1068L35.0865 12.3113V12.7284L35.4492 12.9346L35.7887 12.7369L35.7882 12.3002ZM24.0994 4.67772V4.23933L23.761 4.0439L23.4026 4.24744V4.67036L23.7652 4.86994L24.0994 4.67772ZM25.4246 12.9674L25.7815 13.1672L26.1329 12.9655V12.546L25.7745 12.3426L25.424 12.5439L25.4246 12.9674ZM33.8226 33.7577V33.3371C33.7052 33.2682 33.5923 33.2018 33.4755 33.133L33.1171 33.3405V33.7596L33.48 33.9634L33.8226 33.7577ZM26.9352 16.6607C27.0586 16.7305 27.1767 16.7973 27.298 16.8656L27.6407 16.6666V16.2386L27.2917 16.0386L26.9352 16.2461V16.6607ZM8.32895 32.9145L8.66717 32.7108V32.2837L8.32102 32.0868L7.9711 32.2899V32.7144L8.32895 32.9145ZM13.4158 12.5881L13.7615 12.3794V11.9606L13.4108 11.7584L13.0609 11.9627V12.3851L13.4158 12.5881ZM32.6236 29.2797L32.2867 29.4815V29.911L32.6415 30.1106L32.9899 29.8927V29.4891L32.6236 29.2797ZM16.7233 32.7551V33.1748L17.0912 33.3748L17.4207 33.1796V32.7434L17.0823 32.5529L16.7233 32.7551ZM37.066 16.903L37.4095 16.7022V16.2771L37.0581 16.0737L36.7072 16.2812V16.7007L37.066 16.903ZM23.7971 38.432V38.0004C23.6941 37.9362 23.5895 37.871 23.4728 37.7991L23.0955 37.997V38.4171L23.4598 38.6246L23.7971 38.432ZM11.8389 34.3595L12.1802 34.1607V33.7338L11.8312 33.5353L11.4781 33.7406V34.1535L11.8389 34.3595ZM21.6607 33.2277L21.3157 33.4218V33.8556L21.6694 34.0522L22.0139 33.8447V33.4316L21.6607 33.2277ZM31.3363 34.0231L31.6729 33.8288V33.3976L31.3297 33.1996L30.9713 33.4071V33.8207L31.3363 34.0231ZM10.3774 18.3953V18.8322L10.7235 19.0332L11.0731 18.8139V18.41L10.7203 18.2025L10.5458 18.3006L10.3774 18.3953ZM34.3608 15.4127L34.042 15.235L33.7288 15.4146V15.7877L34.045 15.9688C34.1529 15.9073 34.26 15.8462 34.3608 15.7891V15.4127ZM2.58795 24.9108V25.2664C2.68774 25.323 2.78451 25.3783 2.88694 25.4362L3.18253 25.2664V24.907L2.88581 24.7386L2.58795 24.9108ZM27.7824 39.2963V38.9396L27.5074 38.7812L27.2084 38.9492V39.2867L27.503 39.455L27.7824 39.2963ZM18.1077 44.1992L18.3864 44.3454C18.4556 44.309 18.5173 44.2796 18.575 44.2447C18.6063 44.2226 18.6358 44.198 18.6633 44.1713V43.8289L18.3818 43.6805L18.107 43.8334L18.1077 44.1992ZM28.5634 8.85265L28.2893 9.01149V9.33217L28.5654 9.49176L28.8412 9.33123V9.01243L28.5634 8.85265ZM12.8736 9.09788L13.1377 8.94169V8.62101L12.8725 8.47122L12.6061 8.62383V8.94037L12.8736 9.09788ZM11.353 36.0263L11.6231 36.1742L11.878 36.0233V35.709L11.6177 35.5581L11.3536 35.709L11.353 36.0263ZM2.63114 21.6776L2.89524 21.5142V21.2184L2.63869 21.0624L2.38648 21.203V21.5319L2.63114 21.6776ZM17.5101 8.61384V8.92924L17.7678 9.07524L18.0228 8.93509V8.61289L17.7663 8.46425L17.5101 8.61384ZM25.7577 31.8774L25.5125 31.7357L25.2503 31.8919V32.1913L25.5176 32.3422L25.7577 32.1969V31.8774ZM16.1472 6.30189V6.61805L16.394 6.75783L16.649 6.61126V6.30793L16.3921 6.16343L16.1472 6.30189ZM39.4462 32.6638L39.6986 32.5184V32.2132L39.443 32.07L39.1922 32.2168V32.5159L39.4462 32.6638ZM39.6707 22.5587V22.245L39.4215 22.1063L39.1723 22.2488V22.554L39.4249 22.6964L39.6707 22.5587ZM33.1397 14.3831L32.8858 14.2341L32.6279 14.3771V14.6868L32.8879 14.8225L33.1397 14.6853V14.3831ZM6.36598 32.047L6.60951 31.9017V31.6075L6.36278 31.4679L6.11943 31.6103V31.9038L6.36598 32.047ZM29.9574 12.6269V12.3272L29.7161 12.191L29.472 12.3355V12.6201L29.719 12.7584L29.9574 12.6269ZM36.4207 35.8443L36.6627 35.7045V35.4027L36.4184 35.2659L36.1715 35.4106V35.6975L36.4207 35.8443ZM39.4289 26.5984L39.6658 26.4527V26.1398L39.4174 26.0077C39.3314 26.0596 39.258 26.1043 39.1859 26.1479V26.4599L39.4289 26.5984ZM23.6999 34.2295V33.9435L23.4611 33.807L23.2287 33.939V34.2322L23.4634 34.3619L23.6999 34.2295ZM6.55613 33.8049L6.31656 33.9413V34.2408L6.55669 34.3761L6.79211 34.2408V33.9426L6.55613 33.8049ZM10.6637 30.097L10.4279 29.9576L10.19 30.0942V30.3724L10.4238 30.509L10.6633 30.3685L10.6637 30.097ZM10.8567 13.4728V13.1734L10.6254 13.0517L10.386 13.1838V13.4624L10.6266 13.6044L10.8567 13.4728ZM2.80997 15.4667L3.04822 15.6032L3.27006 15.4731V15.1913L3.04369 15.063L2.80922 15.2011L2.80997 15.4667ZM21.2295 10.9873L20.9828 10.8603L20.7602 10.9924V11.2691L20.9979 11.4023L21.2295 11.2678V10.9873ZM17.1885 40.9211V40.6413L16.9553 40.5157L16.7218 40.6441V40.9186L16.9546 41.0569L17.1885 40.9211ZM19.8421 32.617L20.0666 32.4839V32.1915L19.8355 32.0641L19.6119 32.2005V32.4818L19.8421 32.617ZM9.97085 29.4213C10.2014 29.5992 10.2538 29.5981 10.4372 29.4168V29.1744L10.2204 29.0439L9.97085 29.1759V29.4213ZM22.6662 9.30425L22.4398 9.1822L22.2189 9.31123V9.59928L22.4453 9.73133L22.6667 9.59626L22.6662 9.30425ZM9.35099 32.6153V32.9034L9.58848 33.033L9.80673 32.8979V32.6165L9.5766 32.4831L9.35099 32.6153ZM21.3067 28.7204L21.1001 28.5957L20.8643 28.7251V28.9984L21.0924 29.1327L21.3067 29.0129V28.7204ZM21.5253 39.4435L21.3091 39.5674V39.8373L21.5266 39.9628L21.7469 39.8372V39.5649L21.5253 39.4435ZM26.6651 37.5382L26.8864 37.4116V37.1476L26.664 37.0225L26.4487 37.1474V37.4135L26.6651 37.5382ZM35.6126 33.9988L35.8365 34.1309L36.0519 34.0128V33.7428L35.8491 33.6119L35.6126 33.7387V33.9988ZM8.62681 17.4815V17.7539L8.8477 17.8739L9.05313 17.7548V17.4745L8.84317 17.3578L8.62681 17.4815ZM31.2973 36.6018V36.3389L31.0754 36.2138L30.8647 36.3404V36.6028L31.0822 36.7276L31.2973 36.6018ZM2.06089 23.3376L2.2816 23.4592L2.49004 23.3389V23.0776L2.27669 22.9603L2.06089 23.0827V23.3376ZM21.1716 31.9521V31.6912L20.9573 31.5703L20.7466 31.6905V31.9545L20.9596 32.0755C21.0299 32.0347 21.0933 31.9972 21.1716 31.9521ZM29.6186 38.3382V38.5823L29.845 38.7131L30.0468 38.581V38.3392L29.8338 38.2243L29.6186 38.3382ZM33.3008 32.2118V31.9423L33.0978 31.8278L32.8881 31.9495V32.2081L33.1007 32.3282L33.3008 32.2118ZM4.36114 31.8702V32.1187L4.5726 32.2318L4.7669 32.1136V31.8699L4.56544 31.758L4.36114 31.8702ZM7.65909 29.4102L7.85905 29.5253L8.05919 29.4032V29.158L7.85792 29.0424L7.65909 29.1555V29.4102ZM35.8519 14.568L36.0577 14.6797L36.2388 14.5706V14.3239L36.0472 14.2215L35.8519 14.3362V14.568ZM5.1289 17.2589V17.0124L4.94988 16.9135L4.75954 17.0224V17.2504L4.95214 17.3615L5.1289 17.2589ZM6.65686 15.0698L6.472 14.9672L6.28336 15.0718V15.288L6.47916 15.3897L6.65611 15.2816L6.65686 15.0698ZM2.39761 27.0934L2.21727 27.2028V27.4227L2.4044 27.5248L2.5787 27.4163V27.1986L2.39761 27.0934ZM17.0331 38.3028V38.0853L16.8444 37.9794L16.6728 38.0804V38.3126L16.8533 38.4122L17.0331 38.3028ZM9.76505 36.2687L9.57641 36.1595L9.39739 36.2698V36.5045L9.58282 36.6048L9.76561 36.4985L9.76505 36.2687ZM24.4888 11.0924L24.6774 11.1965L24.8517 11.089V10.8673L24.6735 10.7628L24.4888 10.8673V11.0924ZM12.9302 32.6472V32.432L12.75 32.3296L12.5695 32.4309V32.6459L12.7495 32.748L12.9302 32.6472ZM17.0861 15.1543L16.9061 15.0534L16.7254 15.1596V15.3703L16.908 15.4763L17.0861 15.3708V15.1543ZM24.7825 36.8348L24.9523 36.7273V36.5077L24.7717 36.4102L24.602 36.5156V36.7322L24.7825 36.8348ZM22.0325 16.8432V17.0605L22.2149 17.1584L22.3887 17.0512V16.8467L22.2017 16.7453L22.0325 16.8432ZM20.5508 8.97696L20.3752 8.88076L20.2003 8.98489V9.19861L20.3831 9.29991L20.5508 9.1956V8.97696ZM2.74753 32.9905L2.93146 32.8804C2.92768 32.8028 2.92485 32.7423 2.92165 32.6761L2.74018 32.5759L2.57229 32.6767V32.8955L2.74753 32.9905ZM12.9234 38.6029V38.3754L12.7446 38.2867L12.5737 38.3811V38.6033L12.7495 38.6902L12.9234 38.6029ZM7.70474 13.8829V14.0881L7.8864 14.1996L8.06183 14.08V13.8795L7.86735 13.7789L7.70474 13.8829ZM15.4138 31.9068V32.1215L15.5977 32.2169L15.7654 32.1226V31.8997L15.59 31.8029L15.4138 31.9068ZM36.3435 18.429L36.1632 18.3347L35.9896 18.4317V18.6405L36.1711 18.7392L36.3435 18.626V18.429ZM18.8981 29.1033L18.7214 29.2146V29.4183L18.9028 29.514L19.0726 29.4121V29.2174L18.8981 29.1033ZM36.8942 12.7118V12.9318L37.0702 13.0225L37.2211 12.9253V12.7039L37.0549 12.6177L36.8942 12.7118ZM38.8464 18.9276L39.0128 19.0249L39.1793 18.9255V18.7122L39.0095 18.6179L38.8469 18.7171L38.8464 18.9276ZM34.3623 11.068C34.5337 11.1842 34.5635 11.1812 34.6996 11.0316C34.6962 10.9792 34.6924 10.9184 34.6888 10.8596L34.509 10.7705L34.3623 10.8743V11.068ZM9.74995 12.4511L9.90483 12.3587V12.1685L9.74486 12.0825L9.58923 12.1768V12.36L9.74995 12.4511ZM16.1448 18.5441L16.2957 18.6196L16.4292 18.5307V18.3726L16.28 18.2851L16.144 18.3777L16.1448 18.5441ZM28.3155 17.0676C28.3134 17.0269 28.311 16.9794 28.3089 16.938C28.1746 16.8667 28.1202 16.8675 28.0693 16.9399V17.0856C28.1631 17.1701 28.237 17.1476 28.3153 17.0667L28.3155 17.0676Z" fill="#161328"/>
<path d="M21.9811 2.58731C21.9781 2.64258 21.975 2.69785 21.9716 2.75708C21.8558 2.82518 21.7438 2.89101 21.6213 2.96326L21.2695 2.76368V2.3434L21.3893 2.25342L21.9811 2.58731Z" fill="#D28018"/>
<path d="M25.7907 4.81962C25.8529 4.80321 25.8899 4.83093 25.9097 4.88809L25.908 4.88979L25.7871 4.82396L25.7907 4.81962Z" fill="#161328"/>
<path d="M25.9099 4.88867L25.9825 4.92979L25.9808 4.93168L25.9082 4.89037L25.9099 4.88867Z" fill="#161328"/>
<path d="M25.9822 4.9292C26.0059 4.94278 26.0299 4.95618 26.0535 4.96995L26.0503 4.97353L25.9805 4.93109L25.9822 4.9292Z" fill="#161328"/>
<path d="M12.6215 22.705V19.8188H13.4581C13.4611 22.1908 13.4642 24.5647 13.4673 26.9407H12.7481C12.7333 26.6821 12.7188 26.4287 12.7024 26.1395C12.6775 26.1681 12.6542 26.1981 12.6326 26.2293C12.0803 27.1972 10.6749 27.3576 9.8719 26.5455C9.61402 26.2857 9.42384 25.9667 9.31806 25.6163C9.08962 24.873 9.09754 24.1288 9.35843 23.3965C9.56951 22.8042 9.94226 22.3436 10.5408 22.1031C11.0037 21.9171 11.4715 21.9208 11.9343 22.1136C12.1678 22.2101 12.3702 22.3692 12.5191 22.5733C12.544 22.6062 12.57 22.6384 12.6215 22.705ZM12.6519 24.5078L12.626 24.5052C12.626 24.3795 12.6281 24.2537 12.626 24.1279C12.6211 23.8753 12.5941 23.6263 12.4823 23.3947C12.1937 22.7971 11.6091 22.5388 10.992 22.732C10.5855 22.8595 10.3409 23.1681 10.1886 23.5514C9.99357 24.043 9.9649 24.5521 10.0566 25.07C10.1064 25.3512 10.2016 25.6153 10.3718 25.8483C10.6866 26.2789 11.2276 26.4589 11.7266 26.2899C12.1665 26.1409 12.4434 25.8224 12.5519 25.3829C12.6211 25.1001 12.6209 24.8002 12.6519 24.5071V24.5078Z" fill="#EEEEEF"/>
<path d="M34.8341 24.6781C34.832 24.9799 34.8758 25.2451 34.985 25.496C35.2491 26.0957 35.7352 26.3484 36.3632 26.3664C36.8071 26.379 37.2398 26.3128 37.671 26.1162L37.8201 26.7546C37.7193 26.7953 37.6241 26.8404 37.5248 26.8732C36.9799 27.0532 36.4213 27.1185 35.8529 27.0287C35.0358 26.9002 34.4759 26.4392 34.2033 25.6616C33.9075 24.8182 33.9569 23.9767 34.3327 23.1678C34.6023 22.5874 35.0443 22.1869 35.6815 22.0301C35.9998 21.9501 36.3326 21.9474 36.6522 22.022C37.1029 22.1265 37.4522 22.3804 37.6897 22.7766C38.0408 23.3591 38.1336 23.9939 38.0545 24.6788L34.8341 24.6781ZM37.2664 24.0367C37.2673 23.7009 37.2157 23.4645 37.1113 23.232C36.775 22.4823 35.8571 22.4684 35.4104 22.8568C35.0544 23.1665 34.9043 23.5736 34.8377 24.0367H37.2664Z" fill="#EDEDEF"/>
<path d="M26.6508 26.1381L26.7859 26.7493C26.5284 26.8846 26.2632 26.9551 25.9914 27.003C25.5613 27.0785 25.128 27.1038 24.699 27.0098C23.9305 26.8414 23.4085 26.3754 23.162 25.6328C22.8902 24.8141 22.93 23.9948 23.284 23.2069C23.5519 22.6104 23.9948 22.1945 24.6466 22.0322C25.0016 21.9413 25.3747 21.9478 25.7263 22.0511C26.1296 22.1688 26.4398 22.4154 26.6584 22.7719C27.0147 23.3535 27.0934 23.9905 27.0279 24.6739H23.8188C23.7728 24.8341 23.8164 24.9744 23.8398 25.1127C23.9529 25.785 24.4255 26.2613 25.0635 26.3441C25.5513 26.4107 26.048 26.3523 26.5071 26.1743C26.5422 26.1608 26.5771 26.1462 26.6124 26.1332C26.6175 26.1293 26.6246 26.1334 26.6508 26.1381ZM26.2409 24.0386C26.2438 23.7081 26.1751 23.4032 26.0474 23.1665C25.9133 22.9179 25.7163 22.7411 25.4438 22.6572C24.9761 22.5129 24.4989 22.6615 24.1936 23.0475C23.966 23.3353 23.8524 23.6689 23.8081 24.0386H26.2409Z" fill="#EDEEEF"/>
<path d="M16.2565 25.9292C16.6651 24.6349 17.0654 23.3667 17.4674 22.093H18.3459C18.3406 22.1299 18.3327 22.1663 18.3223 22.2021C17.7982 23.6406 17.277 25.0803 16.7464 26.5164C16.5723 26.988 16.365 27.4456 16.105 27.8774C15.8074 28.3718 15.4278 28.7817 14.8978 29.0317C14.78 29.0871 14.655 29.126 14.5122 29.1813C14.439 28.9245 14.3709 28.6859 14.2979 28.4303C15.0524 28.1234 15.5386 27.5645 15.8153 26.7737C15.2314 25.2306 14.6413 23.6712 14.0449 22.0955H14.9636C15.3859 23.3665 15.8828 24.6128 16.2565 25.9292Z" fill="#EDEEEF"/>
<path d="M18.4805 22.0879H19.3829C19.8105 23.3974 20.2386 24.7091 20.6673 26.0231C21.0929 24.719 21.5221 23.4044 21.9501 22.0902H22.8297C22.2287 23.7124 21.6324 25.3228 21.0331 26.941H20.222C19.6465 25.336 19.066 23.7183 18.4805 22.0879Z" fill="#EDEEEF"/>
<path d="M30.4727 26.7293C30.5455 26.4941 30.6102 26.2853 30.6802 26.0583C30.7349 26.0851 30.7832 26.1066 30.8297 26.1317C31.1797 26.3203 31.5481 26.4275 31.9497 26.3852C32.0182 26.3782 32.086 26.3653 32.1523 26.3466C32.4134 26.2711 32.5997 26.1115 32.6531 25.8388C32.708 25.5571 32.6554 25.2917 32.4147 25.1099C32.2713 25.0012 32.1064 24.9191 31.9454 24.8367C31.8061 24.7656 31.6556 24.7169 31.5158 24.6468C31.3979 24.5881 31.2849 24.52 31.178 24.4432C30.7505 24.1335 30.5466 23.7185 30.6247 23.1878C30.699 22.6823 30.9778 22.3201 31.4458 22.1192C31.9829 21.8889 32.5239 21.9328 33.0585 22.1396C33.1447 22.1728 33.2258 22.2194 33.3226 22.2665C33.2519 22.4869 33.1855 22.6934 33.1228 22.889C32.9002 22.8136 32.6937 22.7279 32.4792 22.673C32.2777 22.618 32.0644 22.6231 31.8657 22.6878C31.6205 22.7708 31.4598 22.9366 31.4187 23.1971C31.3776 23.4576 31.4594 23.6749 31.6828 23.8173C31.8456 23.9213 32.0242 24.0007 32.1968 24.0888C32.4086 24.1969 32.6307 24.2872 32.8325 24.4123C33.3371 24.7262 33.5397 25.1968 33.4722 25.7784C33.4018 26.3832 33.0572 26.7806 32.4822 26.9581C31.7892 27.1709 31.1225 27.0789 30.4727 26.7293Z" fill="#EDEDEF"/>
<path d="M6.62974 26.2841C6.64257 26.4941 6.6554 26.7055 6.66973 26.9432C6.55052 26.9734 6.43337 27.0187 6.31283 27.03C6.10778 27.0488 5.8967 27.0736 5.69504 27.0456C5.18572 26.9751 4.85353 26.6306 4.76091 26.0998C4.72609 25.8894 4.70855 25.6764 4.70847 25.4631C4.70262 24.6403 4.7062 23.8175 4.7062 22.9946V22.7673H4.00391V22.0903H4.70073V21.1922C4.84165 21.1447 4.97596 21.0988 5.11064 21.0539C5.24005 21.0107 5.36964 20.9683 5.51754 20.9194V22.0788H6.70407V22.7556H5.52942C5.52414 22.8179 5.5164 22.8658 5.5164 22.9137C5.5164 23.7179 5.51244 24.5218 5.51848 25.3258C5.51843 25.5077 5.53842 25.689 5.57809 25.8665C5.65656 26.203 5.86312 26.3471 6.20852 26.3288C6.34547 26.3216 6.48185 26.3001 6.62974 26.2841Z" fill="#EFF0F1"/>
<path d="M30.1617 22.0182V22.8303C30.1104 22.8252 30.0674 22.8212 30.0264 22.8167C29.6401 22.7762 29.3228 22.9059 29.08 23.2085C28.8558 23.4883 28.7607 23.8184 28.7405 24.1691C28.7254 24.4382 28.7299 24.7088 28.7294 24.9787C28.728 25.5688 28.7294 26.159 28.7294 26.7492V26.9405H27.9111C27.9029 25.3296 27.8948 23.7193 27.8867 22.0965H28.5896C28.6032 22.3998 28.6166 22.7001 28.6301 23.002C28.8305 22.5692 29.0853 22.2025 29.552 22.0358C29.7823 21.9543 29.9751 21.9492 30.1617 22.0182Z" fill="#EDEDEF"/>
<path d="M8.28153 26.9442H7.47266V22.0962H8.28153V26.9442Z" fill="#EEEEEF"/>
<path d="M19.4135 35.8405L18.6094 35.3863V34.462L19.4084 34.0059L20.1762 34.4476V35.3937L19.4135 35.8405Z" fill="#02A853"/>
<path d="M26.253 6.50706V7.39026L25.5326 7.81035L24.7871 7.38988V6.51102L25.5286 6.0896L26.253 6.50706Z" fill="#6FB107"/>
<path d="M13.2429 35.294L13.9764 34.8809L14.6975 35.2959V36.1589L13.9779 36.5786L13.2422 36.1613L13.2429 35.294Z" fill="#FB2F81"/>
<path d="M29.0566 14.8542L29.7899 14.4407L30.508 14.8536V15.7204L29.7912 16.138L29.0568 15.723L29.0566 14.8542Z" fill="#EA0013"/>
<path d="M11.9033 15.4573L12.5824 15.8485V16.6759L11.9052 17.072L11.2031 16.6759V15.8525L11.9033 15.4573Z" fill="#FBFBF5"/>
<path d="M30.9316 10.3621L31.6149 9.97314L32.3128 10.3721V11.1819L31.6181 11.5803L30.9324 11.1953L30.9316 10.3621Z" fill="#024E88"/>
<path d="M34.4689 17.3894V18.198L33.7918 18.5941L33.0918 18.1964V17.3938L33.7898 16.9988L34.4689 17.3894Z" fill="#FAF001"/>
<path d="M21.0137 19.3116V18.5016L21.6979 18.1086L22.3892 18.5016V19.3006L21.7086 19.7039L21.0137 19.3116Z" fill="#024E88"/>
<path d="M24.3887 39.5627L25.0668 39.1777L25.7222 39.555V40.3633L25.0681 40.7447L24.389 40.3584L24.3887 39.5627Z" fill="#D28018"/>
<path d="M28.1419 34.3212V35.0733L27.5028 35.434L26.8633 35.0691V34.3195L27.5026 33.9583L28.1419 34.3212Z" fill="#F8E8BF"/>
<path d="M21.9482 12.7131L22.5549 13.0655V13.8053L21.9497 14.1589L21.3242 13.804V13.0683L21.9482 12.7131Z" fill="#D28018"/>
<path d="M23.11 30.9614L23.7126 31.3095V32.0359L23.1112 32.3875L22.4941 32.0355V31.3106L23.11 30.9614Z" fill="#EA0013"/>
<path d="M21.1423 7.04512C20.9616 7.15189 20.7813 7.26318 20.5953 7.36354C20.56 7.3824 20.4934 7.37127 20.454 7.35034C20.2778 7.25602 20.1063 7.15283 19.9258 7.04851V6.33169L20.5362 5.9812L21.1419 6.33396L21.1423 7.04512Z" fill="#024E88"/>
<path d="M38.9491 15.5508L39.5578 15.8981V16.6128L38.9498 16.9546L38.3438 16.6113V15.8945L38.9491 15.5508Z" fill="#C1C1C5"/>
<path d="M33.2314 35.7687L33.8326 35.4282L34.4289 35.7723V36.4869L33.8341 36.8345C33.6355 36.7213 33.4351 36.6082 33.2305 36.4918L33.2314 35.7687Z" fill="#D28018"/>
<path d="M37.2113 19.8116L37.7946 19.4817L38.382 19.8154V20.5015L37.7972 20.8335L37.2109 20.5009L37.2113 19.8116Z" fill="#C1C1C5"/>
<path d="M17.7416 15.8925L18.3263 15.5593L18.9153 15.8934V16.5789L18.3305 16.9122L17.7402 16.5774L17.7416 15.8925Z" fill="#EA0013"/>
<path d="M15.8477 8.13742L16.4362 7.80542L17.0102 8.1344V8.83236L16.4383 9.16493L15.8477 8.82896V8.13742Z" fill="#D28018"/>
<path d="M9.90995 11.6925L9.33008 11.3635V10.6799L9.90731 10.3496L10.4793 10.6799V11.3611L9.90995 11.6925Z" fill="#FAF001"/>
<path d="M14.3992 41.5672L13.8145 41.2348V40.5646L14.3983 40.2314L14.9729 40.5584V41.2452L14.3992 41.5672Z" fill="#F8E8BF"/>
<path d="M18.162 42.5753L17.5859 42.2469V41.5642L18.1615 41.238L18.7406 41.5693V42.2448L18.162 42.5753Z" fill="#EA0013"/>
<path d="M9.31171 30.4998V31.1717L8.73052 31.5001L8.15234 31.1719V30.4947L8.72976 30.168L9.31171 30.4998Z" fill="#F8E8BF"/>
<path d="M7.21875 35.0143L7.7956 34.687L8.36793 35.0134V35.6887L7.79447 36.0107L7.21913 35.6832L7.21875 35.0143Z" fill="#BB74B5"/>
<path d="M15.3496 12.1236L15.9172 11.8042L16.4886 12.129V12.8081L15.9191 13.1288L15.3496 12.8081V12.1236Z" fill="#FAF001"/>
<path d="M31.0873 32.0086L30.5176 31.6822V31.0058L31.0824 30.6794L31.6404 31.0016V31.6807L31.0873 32.0086Z" fill="#024E88"/>
<path d="M4.36738 34.4482L3.79883 34.1236V33.4694L4.36625 33.1487L4.92028 33.4673V34.126L4.36738 34.4482Z" fill="#EA0013"/>
<path d="M26.1757 30.5492L25.6209 30.8612L25.0625 30.543V29.8852L25.6211 29.5706L26.1764 29.8852L26.1757 30.5492Z" fill="#C1C1C5"/>
<path d="M4.90442 29.3776L4.35737 29.6939L3.79297 29.3765V28.7189L4.35473 28.4006L4.90386 28.717L4.90442 29.3776Z" fill="#F8E8BF"/>
<path d="M11.6905 31.6875L11.1406 31.3834V30.7273L11.6914 30.4153L12.2196 30.7245V31.3877L11.6905 31.6875Z" fill="#024E88"/>
<path d="M5.42541 15.6152V16.2391L4.88798 16.5465L4.34961 16.2394V15.6149L4.8876 15.3091L5.42541 15.6152Z" fill="#EA0013"/>
<path d="M25.3745 13.9359V14.5361L24.8622 14.8274L24.3398 14.5382V13.9383L24.859 13.6382L25.3745 13.9359Z" fill="#034E87"/>
<path d="M8.38332 20.7386C8.38426 21.0608 8.17318 21.2815 7.86287 21.2828C7.57199 21.284 7.35694 21.0565 7.35355 20.7437C7.35053 20.4136 7.57142 20.1755 7.87796 20.1787C8.18185 20.1818 8.38238 20.4044 8.38332 20.7386Z" fill="#EDEDEF"/>
<path d="M5.5728 13.4718V14.0615L5.07668 14.3584L4.57227 14.074V13.4703L5.06838 13.1836L5.5728 13.4718Z" fill="#02A853"/>
<path d="M14.1208 17.2028V17.7763L13.6466 18.0556L13.1641 17.7842V17.2011L13.643 16.9287L14.1208 17.2028Z" fill="#F8E8BF"/>
<path d="M3.13459 30.8793L2.6664 31.1512L2.19141 30.8831V30.3046L2.66451 30.0361L3.13459 30.308V30.8793Z" fill="#FAF001"/>
<path d="M10.1312 14.9985V15.5433L9.66832 15.8074L9.20898 15.5492V14.994L9.66454 14.7339L10.1312 14.9985Z" fill="#FAF001"/>
<path d="M25.4151 33.979V34.5237L24.9656 34.7878L24.502 34.5264V33.9829L24.9613 33.7207L25.4151 33.979Z" fill="#F99B01"/>
<path d="M7.14844 16.4442L7.60268 16.1851L8.06201 16.4414V16.9721L7.61267 17.2373L7.14844 16.9741V16.4442Z" fill="#034E87"/>
<path d="M28.4042 37.4377L27.9609 37.1808V36.6603L28.4054 36.4087L28.8453 36.6611V37.1836L28.4042 37.4377Z" fill="#02A853"/>
<path d="M27.8322 32.2653L27.4023 32.507L26.9707 32.2629V31.7494L27.4008 31.5042L27.8322 31.7494V32.2653Z" fill="#C1C1C5"/>
<path d="M22.5684 29.1566V28.6829L22.9753 28.4507L23.3793 28.6787V29.1611L22.9794 29.3893L22.5684 29.1566Z" fill="#C1C1C5"/>
<path d="M37.9043 29.1432V28.6973L38.2816 28.4858L38.6494 28.6979V29.1393L38.2859 29.3568L37.9043 29.1432Z" fill="#FB2F81"/>
<path d="M38.4847 14.0633L38.1246 14.2654L37.7715 14.065V13.6374L38.1244 13.4373L38.4847 13.6436V14.0633Z" fill="#BDBDC2"/>
<path d="M20.648 37.6815V38.0965L20.2972 38.3102L19.9297 38.1027V37.6843L20.2896 37.4751L20.648 37.6815Z" fill="#F99B01"/>
<path d="M36.1504 30.1125V29.6975L36.5062 29.49L36.8672 29.6922V30.1121L36.5131 30.317L36.1504 30.1125Z" fill="#F4EA03"/>
<path d="M26.5625 14.6224L26.9232 14.4163L27.2816 14.6204V15.0437L26.9222 15.2449L26.5627 15.0365L26.5625 14.6224Z" fill="#BDBDC2"/>
<path d="M27.4727 12.0889L27.8311 11.8867L28.1883 12.0912V12.5079L27.8384 12.7196L27.4734 12.5164L27.4727 12.0889Z" fill="#00A3DD"/>
<path d="M13.6406 14.1443V13.7249L13.9924 13.5186L14.3548 13.7238V14.1388L13.9998 14.3463L13.6406 14.1443Z" fill="#BDBDC2"/>
<path d="M26.1434 18.0156L26.4965 18.2243V18.6404L26.1468 18.8479L25.7793 18.6436V18.2265L26.1434 18.0156Z" fill="#CF7F19"/>
<path d="M14.875 37.4987L15.2334 37.2949L15.5945 37.4998V37.9172L15.2361 38.123L14.8758 37.9193L14.875 37.4987Z" fill="#BDBDC2"/>
<path d="M18.5039 13.271V12.8474L18.8659 12.6431L19.2221 12.8455V13.2682L18.8685 13.4748L18.5039 13.271Z" fill="#0087C7"/>
<path d="M22.6934 14.8463L23.0497 14.6436L23.4032 14.8437V15.2647L23.0559 15.4749L22.6934 15.2674V14.8463Z" fill="#CF7F19"/>
<path d="M28.8035 18.2896V18.7072L28.4432 18.9115L28.0918 18.7127V18.286L28.4396 18.0847L28.8035 18.2896Z" fill="#C1C1C5"/>
<path d="M20.1299 4.84059V5.26239L19.7752 5.46819L19.4121 5.26597V4.84078L19.7692 4.63818C19.8869 4.70364 20.0095 4.77268 20.1299 4.84059Z" fill="#00A3DD"/>
<path d="M26.8265 9.57452L26.4648 9.36948V8.95164L26.8216 8.74414L27.18 8.94844V9.36721L26.8265 9.57452Z" fill="#CF7F19"/>
<path d="M31.6059 19.0627L31.967 19.281C31.9704 19.3463 31.9751 19.4076 31.9766 19.4696C31.9781 19.5317 31.9766 19.5938 31.9766 19.6753L31.6107 19.9016L31.2441 19.6851V19.2848L31.6059 19.0627Z" fill="#034E87"/>
<path d="M21.2614 2.88599L21.6111 3.08802V3.51509L21.2627 3.72071L20.9043 3.51509V3.09104L21.2614 2.88599Z" fill="#FAF001"/>
<path d="M30.5743 29.3379L30.9248 29.5412V29.9644L30.5772 30.1719L30.2188 29.9679V29.5448L30.5743 29.3379Z" fill="#FAF001"/>
<path d="M19.2199 7.56372L19.5697 7.76386V8.19113L19.2214 8.39863L18.8613 8.19415V7.7667L19.2199 7.56372Z" fill="#00A3DD"/>
<path d="M20.2049 15.7041L20.5535 15.9093V16.3351L20.2054 16.5384L19.8457 16.334V15.9093L20.2049 15.7041Z" fill="#00A3DD"/>
<path d="M17.9802 30.6699L18.3313 30.8774V31.2979C18.2181 31.3647 18.1015 31.4343 17.9811 31.5054L17.625 31.3041V30.875L17.9802 30.6699Z" fill="#FAF001"/>
<path d="M19.6037 19.5188L19.2564 19.7208L18.8965 19.5179V19.0921L19.2524 18.8882L19.6037 19.0868V19.5188Z" fill="#F99B01"/>
<path d="M33.041 12.821V12.3948L33.4004 12.1926L33.7494 12.3939V12.8212L33.4009 13.0262L33.041 12.821Z" fill="#F99B01"/>
<path d="M18.7041 7.79015L18.3593 7.99143L18.0039 7.78978V7.35987L18.3561 7.15991L18.7041 7.35459V7.79015Z" fill="#FAF001"/>
<path d="M28.6641 29.7789L29.0078 29.5818L29.3673 29.7857V30.2007L29.0149 30.4071L28.6641 30.2147V29.7789Z" fill="#C1C1C5"/>
<path d="M20.1034 30.1284V30.5622L19.7639 30.7633L19.4004 30.5575V30.1357L19.7614 29.9299L20.1034 30.1284Z" fill="#0087C7"/>
<path d="M32.8902 9.35956V9.78154L32.5342 9.98489C32.4112 9.91434 32.2927 9.84643 32.1758 9.77965V9.36314L32.5316 9.15771L32.8902 9.35956Z" fill="#C1C1C5"/>
<path d="M19.3026 10.2427L18.9453 10.0399V9.61848L19.2981 9.41626L19.6521 9.61471V10.0416L19.3026 10.2427Z" fill="#C1C1C5"/>
<path d="M12.9332 29.425V29.8381L12.5748 30.0473L12.2207 29.8474V29.4195L12.5708 29.22L12.9332 29.425Z" fill="#C1C1C5"/>
<path d="M6.60199 29.4955L6.24735 29.6919L5.89648 29.4906V29.0682L6.24735 28.8645L6.60123 29.0654L6.60199 29.4955Z" fill="#C1C1C5"/>
<path d="M14.7063 15.9264L14.3566 16.1298L14.002 15.9264V15.4997L14.3575 15.2954L14.7063 15.499V15.9264Z" fill="#0087C7"/>
<path d="M14.3209 32.7355L13.9757 32.9373L13.6191 32.7374V32.3077L13.9723 32.1045L14.3209 32.3063V32.7355Z" fill="#F99B01"/>
<path d="M16.791 29.5475L17.1415 29.3503L17.4982 29.5554V29.9721L17.1432 30.1764L16.791 29.9785V29.5475Z" fill="#C1C1C5"/>
<path d="M24.4975 9.90186L24.1445 9.70285V9.27559L24.4931 9.07544L24.8457 9.27389V9.7004L24.4975 9.90186Z" fill="#C1C1C5"/>
<path d="M7.70306 12.5096L7.35352 12.3061V11.8788L7.70344 11.6812L8.06185 11.8862V12.3012L7.70306 12.5096Z" fill="#C1C1C5"/>
<path d="M6.71577 17.8309V18.2604L6.3649 18.4581L6.00781 18.2536V17.8356L6.36321 17.6311L6.71577 17.8309Z" fill="#00A3DD"/>
<path d="M2.63924 18.2147L2.98878 18.0166L3.3472 18.2215V18.6365L2.99142 18.843L2.63867 18.6442L2.63924 18.2147Z" fill="#C1C1C5"/>
<path d="M17.5001 10.6532V11.0871L17.1571 11.2851L16.8008 11.0876V10.6611L17.1515 10.4536L17.5001 10.6532Z" fill="#EA0013"/>
<path d="M35.4531 19.5001L35.8034 19.2988L36.1571 19.5027V19.921L35.8081 20.1307L35.4535 19.9308L35.4531 19.5001Z" fill="#CF7F19"/>
<path d="M35.4883 31.6237L35.8382 31.4258L36.1966 31.6308V32.0468C36.0834 32.1128 35.9648 32.1805 35.8412 32.2516L35.4888 32.0553L35.4883 31.6237Z" fill="#C1C1C5"/>
<path d="M11.8945 14.2226V13.8076L12.2511 13.5969L12.5951 13.7924V14.229L12.2565 14.4281L11.8945 14.2226Z" fill="#CF7F19"/>
<path d="M20.2864 41.3712L19.9384 41.5725L19.582 41.3705V40.9458L19.9386 40.7427L20.2864 40.9441V41.3712Z" fill="#CF7F19"/>
<path d="M22.9209 11.1738L23.2701 11.3711V11.8012L22.9243 12.0004L22.5684 11.7997V11.3749L22.9209 11.1738Z" fill="#F99B01"/>
<path d="M34.686 29.6238V30.041L34.3323 30.2472L33.9824 30.0508V29.617L34.3267 29.418L34.686 29.6238Z" fill="#CF7F19"/>
<path d="M30.8945 17.5822L31.2488 17.3821L31.6044 17.5826V18.0065L31.2512 18.2081L30.8945 18.0055V17.5822Z" fill="#C1C1C5"/>
<path d="M17.4407 36.4773L17.7923 36.6848V37.0998L17.4418 37.3101C17.3217 37.2413 17.2079 37.1762 17.0898 37.1083V36.6774L17.4407 36.4773Z" fill="#CF7F19"/>
<path d="M29.7227 10.4614V10.8827L29.3667 11.0841L29.0117 10.8817V10.4586L29.3701 10.2573L29.7227 10.4614Z" fill="#F99B01"/>
<path d="M11.4707 37.4403V37.8679L11.1196 38.0643L10.7637 37.8627V37.4441L11.117 37.2366L11.4707 37.4403Z" fill="#EA0013"/>
<path d="M29.4806 34.0931L29.125 33.889V33.4716L29.477 33.2671L29.8322 33.4667V33.8947C29.7179 33.959 29.6049 34.023 29.4806 34.0931Z" fill="#C1C1C5"/>
<path d="M19.0566 3.15318L19.4126 2.9519L19.7638 3.15205V3.58101L19.4128 3.7772L19.0566 3.57309V3.15318Z" fill="#C1C1C5"/>
<path d="M31.123 13.9912V13.5686L31.4773 13.3596L31.8242 13.5603V13.9906L31.4847 14.1879L31.123 13.9912Z" fill="#02A853"/>
<path d="M24.9766 16.7649V16.3511L25.337 16.1453L25.6792 16.3371V16.7759L25.3397 16.9709L24.9766 16.7649Z" fill="#02A853"/>
<path d="M24.3156 5.07088V5.49683L23.9665 5.6998L23.6152 5.50116V5.0705L23.9648 4.87036L24.3156 5.07088Z" fill="#CF7F19"/>
<path d="M24.4791 18.5421V18.9773L24.1444 19.1765L23.7832 18.9717V18.5504L24.1416 18.3459L24.4791 18.5421Z" fill="#02A853"/>
<path d="M35.7882 12.3001V12.736L35.4487 12.9337L35.0859 12.7275V12.3104L35.4457 12.106L35.7882 12.3001Z" fill="#02A853"/>
<path d="M24.1002 4.67777L23.7653 4.86999L23.4043 4.66984V4.24749L23.7627 4.04395L24.1011 4.23938L24.1002 4.67777Z" fill="#02A853"/>
<path d="M25.9804 4.93109L26.0502 4.97353C26.0573 5.11633 26.0645 5.25932 26.0718 5.40853L25.7119 5.61604L25.3535 5.4174V4.99259C25.4492 4.93769 25.5437 4.8762 25.6448 4.82923C25.6842 4.81036 25.7391 4.82508 25.7866 4.82451L25.9075 4.89035L25.9804 4.93109Z" fill="#C1C1C5"/>
<path d="M25.4258 12.9673V12.5438L25.7763 12.3425L26.1347 12.5459V12.9654L25.7832 13.1671L25.4258 12.9673Z" fill="#6FB107"/>
<path d="M33.8237 33.7577L33.4821 33.9627L33.1191 33.759V33.3398L33.4776 33.1323C33.5943 33.2012 33.7073 33.2676 33.8246 33.3364L33.8237 33.7577Z" fill="#02A853"/>
<path d="M26.9355 16.6606V16.2456L27.2921 16.0381L27.6411 16.238V16.6661L27.2992 16.8654C27.177 16.7972 27.0589 16.7304 26.9355 16.6606Z" fill="#6FB107"/>
<path d="M8.32911 32.9144L7.9707 32.7143V32.2898L8.32063 32.0867L8.66678 32.2836V32.7107L8.32911 32.9144Z" fill="#034E87"/>
<path d="M13.4156 12.5881L13.0605 12.3846V11.9628L13.4107 11.759L13.7613 11.9613V12.38L13.4156 12.5881Z" fill="#034E87"/>
<path d="M32.624 29.2795L32.9904 29.4889V29.8926L32.6419 30.1095L32.2871 29.91V29.4804L32.624 29.2795Z" fill="#034E87"/>
<path d="M16.7232 32.7545L17.0816 32.5522L17.4201 32.7428V33.1789L17.0905 33.3741L16.7227 33.1742L16.7232 32.7545Z" fill="#034E87"/>
<path d="M37.0654 16.9022L36.707 16.7008V16.2812L37.0579 16.0737L37.4093 16.2771V16.7023L37.0654 16.9022Z" fill="#02A853"/>
<path d="M23.7965 38.4319L23.46 38.6236L23.0957 38.4161V37.996L23.473 37.7981C23.589 37.87 23.6943 37.9352 23.7972 37.9994L23.7965 38.4319Z" fill="#034E87"/>
<path d="M11.8399 34.3593L11.4785 34.1533V33.7404L11.8322 33.5352L12.1818 33.7336V34.1605L11.8399 34.3593Z" fill="#034E87"/>
<path d="M21.6614 33.2275L22.0146 33.4315V33.8446L21.6701 34.0521L21.3164 33.8566V33.4228L21.6614 33.2275Z" fill="#024E88"/>
<path d="M31.3369 34.023L30.9727 33.8214V33.4077L31.3311 33.2002L31.6742 33.3983V33.8295L31.3369 34.023Z" fill="#034E87"/>
<path d="M10.377 18.3953L10.5454 18.301L10.7199 18.2029L11.0726 18.4104V18.8143L10.7231 19.0336L10.377 18.8326V18.3953Z" fill="#034E87"/>
<path d="M34.3605 15.4126V15.7899C34.2597 15.8465 34.153 15.9082 34.0447 15.9697L33.7285 15.7886V15.4147L34.0417 15.2351L34.3605 15.4126Z" fill="#C1C1C5"/>
<path d="M2.58789 24.9107L2.88575 24.7385L3.18248 24.907V25.2667L2.88688 25.4365C2.78445 25.3782 2.68768 25.3233 2.58789 25.2667V24.9107Z" fill="#CF7F19"/>
<path d="M27.783 39.2962L27.5036 39.4548L27.209 39.2866V38.9491L27.508 38.781L27.783 38.9395V39.2962Z" fill="#EA0013"/>
<path d="M18.1074 44.1992V43.8334L18.3823 43.6804L18.6637 43.8289V44.1713C18.6363 44.198 18.6068 44.2225 18.5754 44.2446C18.517 44.2795 18.4553 44.309 18.3868 44.3454L18.1074 44.1992Z" fill="#024E88"/>
<path d="M28.5632 8.85254L28.841 9.01326V9.33206L28.5652 9.49259L28.2891 9.333V9.01232L28.5632 8.85254Z" fill="#BDBDC2"/>
<path d="M12.8757 9.09734L12.6074 8.93982V8.62386L12.8738 8.47144L13.139 8.62122V8.9419L12.8757 9.09734Z" fill="#CF7F19"/>
<path d="M11.3535 36.0261V35.709L11.6176 35.5581L11.8779 35.709V36.0233L11.6231 36.1742L11.3535 36.0261Z" fill="#F4EA03"/>
<path d="M2.63195 21.6774L2.38672 21.5318V21.2028L2.63893 21.0623L2.89547 21.2183V21.514L2.63195 21.6774Z" fill="#034E87"/>
<path d="M17.5098 8.61394L17.7659 8.46436L18.0225 8.613V8.93519L17.7674 9.07535L17.5098 8.92935V8.61394Z" fill="#034E87"/>
<path d="M25.7574 31.8776V32.1983L25.5173 32.3435L25.25 32.1926V31.8933L25.5122 31.7371L25.7574 31.8776Z" fill="#02A853"/>
<path d="M16.1484 6.30179L16.3937 6.16333L16.6506 6.30782V6.61116L16.3956 6.75773L16.1488 6.61794L16.1484 6.30179Z" fill="#BDBDC2"/>
<path d="M39.4475 32.6637L39.1934 32.5158V32.2166L39.4442 32.0698L39.6999 32.213V32.5182L39.4475 32.6637Z" fill="#BDBDC2"/>
<path d="M39.6716 22.5586L39.4264 22.6963L39.1738 22.5538V22.2486L39.423 22.1062L39.6722 22.2449L39.6716 22.5586Z" fill="#BB74B5"/>
<path d="M33.1407 14.383V14.6848L32.8888 14.8219L32.6289 14.6863V14.3771L32.8868 14.2341L33.1407 14.383Z" fill="#034E87"/>
<path d="M6.36569 32.047L6.11914 31.9042V31.6107L6.36248 31.4683L6.60922 31.6075V31.9018L6.36569 32.047Z" fill="#C1C1C5"/>
<path d="M29.958 12.6268L29.7196 12.7588L29.4727 12.6206V12.3359L29.7168 12.1914L29.958 12.3276V12.6268Z" fill="#BDBDC2"/>
<path d="M36.4211 35.8442L36.1719 35.6978V35.4103L36.4188 35.2656L36.6631 35.4024V35.7042L36.4211 35.8442Z" fill="#C1C1C5"/>
<path d="M39.4285 26.5983L39.1855 26.4602V26.1482C39.2576 26.1046 39.331 26.0599 39.417 26.0081L39.6654 26.1401V26.4531L39.4285 26.5983Z" fill="#02A853"/>
<path d="M23.6997 34.2295L23.4632 34.3628L23.2285 34.2331V33.9399L23.4609 33.8079L23.6997 33.9439V34.2295Z" fill="#BDBDC2"/>
<path d="M6.55598 33.8049L6.79196 33.9417V34.2409L6.55654 34.3773L6.31641 34.2409V33.9411L6.55598 33.8049Z" fill="#F4EA03"/>
<path d="M10.6651 30.0969V30.3684L10.4255 30.5089L10.1914 30.3723V30.0941L10.4289 29.9575L10.6651 30.0969Z" fill="#CF7F19"/>
<path d="M10.8574 13.4727L10.6272 13.6047L10.3867 13.4627V13.184L10.6261 13.052L10.8574 13.1737V13.4727Z" fill="#02A853"/>
<path d="M2.81055 15.4667V15.2011L3.04502 15.063L3.27139 15.1913V15.4731L3.04955 15.6032L2.81055 15.4667Z" fill="#F4EA03"/>
<path d="M21.2291 10.9872V11.2681L20.9974 11.4026L20.7598 11.2694V10.9926L20.9824 10.8606L21.2291 10.9872Z" fill="#00A3DD"/>
<path d="M17.1883 40.921L16.9544 41.0559L16.7207 40.9186V40.6451L16.9542 40.5166L17.1883 40.6413V40.921Z" fill="#034E87"/>
<path d="M19.8415 32.6169L19.6113 32.4816V32.2003L19.8349 32.064L20.0659 32.1913V32.4837L19.8415 32.6169Z" fill="#EA0013"/>
<path d="M9.9707 29.4212V29.176L10.2203 29.0439L10.437 29.1745V29.4169C10.2537 29.598 10.2012 29.5991 9.9707 29.4212Z" fill="#034E87"/>
<path d="M22.6666 9.30429V9.59668L22.4451 9.73174L22.2188 9.59969V9.31164L22.4396 9.18262L22.6666 9.30429Z" fill="#034E87"/>
<path d="M9.35156 32.6152L9.57793 32.4832L9.80807 32.6165V32.898L9.58906 33.0334L9.35156 32.9038V32.6152Z" fill="#CF7F19"/>
<path d="M21.3066 28.7204V29.013L21.0933 29.1328L20.8652 28.9984V28.7251L21.101 28.5957L21.3066 28.7204Z" fill="#034E87"/>
<path d="M21.5262 39.4434L21.7478 39.5648V39.837L21.528 39.9627L21.3105 39.8372V39.5673L21.5262 39.4434Z" fill="#F4EA03"/>
<path d="M26.6656 37.5383L26.4492 37.413V37.1469L26.6645 37.022L26.8869 37.147V37.4111L26.6656 37.5383Z" fill="#BDBDC2"/>
<path d="M35.6133 33.9987V33.7386L35.8498 33.6118L36.0526 33.7427V34.0119L35.8372 34.13L35.6133 33.9987Z" fill="#034E87"/>
<path d="M8.62695 17.4814L8.84332 17.3577L9.05327 17.4746V17.7549L8.84785 17.874L8.62695 17.7538V17.4814Z" fill="#F25502"/>
<path d="M31.298 36.6016L31.0827 36.7275L30.8652 36.6026V36.3402L31.0761 36.2136L31.298 36.3387V36.6016Z" fill="#EA0013"/>
<path d="M2.06055 23.3376V23.0814L2.27635 22.959L2.4897 23.0776V23.3389L2.28125 23.4593L2.06055 23.3376Z" fill="#BDBDC2"/>
<path d="M21.1711 31.9521C21.0936 31.9972 21.0294 32.0347 20.9591 32.0755L20.7461 31.9546V31.6905L20.9568 31.5703L21.1711 31.6912V31.9521Z" fill="#CF7F19"/>
<path d="M29.6193 38.3381L29.8344 38.2236L30.0473 38.3385V38.5803L29.8455 38.7124L29.6191 38.5817L29.6193 38.3381Z" fill="#034E87"/>
<path d="M33.3014 32.2117L33.1013 32.3281L32.8887 32.2079V31.9493L33.0984 31.8276L33.3014 31.9421V32.2117Z" fill="#F99B01"/>
<path d="M4.36133 31.8702L4.56562 31.7585L4.76709 31.8704V32.1141L4.57279 32.2324L4.36133 32.1192V31.8702Z" fill="#CF7F19"/>
<path d="M7.66016 29.4101V29.1554L7.85898 29.0422L8.06026 29.1579V29.4031L7.86011 29.5248L7.66016 29.4101Z" fill="#F4EA03"/>
<path d="M35.8516 14.568V14.3361L36.0468 14.2214L36.2385 14.3239V14.5706L36.0574 14.6796L35.8516 14.568Z" fill="#F99B01"/>
<path d="M5.12912 17.2587L4.95236 17.3613L4.75977 17.2502V17.0222L4.9501 16.9133L5.12912 17.0122V17.2587Z" fill="#F4EA03"/>
<path d="M6.65734 15.0697V15.2815L6.4804 15.3896L6.28516 15.2879V15.0717L6.47379 14.967L6.65734 15.0697Z" fill="#EA0013"/>
<path d="M2.39713 27.0933L2.57823 27.1985V27.4162L2.40393 27.5247L2.2168 27.4226V27.2027L2.39713 27.0933Z" fill="#CF7F19"/>
<path d="M17.0329 38.3028L16.8524 38.4122L16.6719 38.3126V38.0804L16.8435 37.9795L17.0322 38.0853L17.0329 38.3028Z" fill="#F4EA03"/>
<path d="M9.76572 36.2687V36.499L9.58293 36.6054L9.39844 36.5045V36.2693L9.57745 36.1589L9.76572 36.2687Z" fill="#CF7F19"/>
<path d="M24.4883 11.0922V10.8672L24.673 10.7627L24.8512 10.8672V11.0889L24.6769 11.1964L24.4883 11.0922Z" fill="#F25502"/>
<path d="M12.931 32.6473L12.7503 32.748L12.5703 32.6459V32.4309L12.7508 32.3296L12.931 32.432V32.6473Z" fill="#F4EA03"/>
<path d="M17.0872 15.1541V15.3707L16.9092 15.4761L16.7266 15.3701V15.1594L16.9073 15.0532L17.0872 15.1541Z" fill="#F25502"/>
<path d="M24.7834 36.8346L24.6016 36.7324V36.5159L24.7713 36.4104L24.9534 36.5075V36.7271L24.7834 36.8346Z" fill="#F4EA03"/>
<path d="M22.0332 16.843L22.203 16.7451L22.3899 16.8466V17.0511L22.2162 17.1582L22.0338 17.0603L22.0332 16.843Z" fill="#BDBDC2"/>
<path d="M20.5517 8.97755V9.19619L20.384 9.3005L20.2012 9.1992V8.98548L20.376 8.88135L20.5517 8.97755Z" fill="#CF7F19"/>
<path d="M2.74751 32.9915L2.57227 32.8972V32.6784L2.74015 32.5776L2.92162 32.6778C2.92483 32.744 2.92766 32.8046 2.93143 32.8821L2.74751 32.9915Z" fill="#BDBDC2"/>
<path d="M12.924 38.6027L12.75 38.6906L12.5742 38.6036V38.3814L12.7451 38.2871L12.924 38.3758V38.6027Z" fill="#034E87"/>
<path d="M7.70508 13.8827L7.86768 13.7788L8.06217 13.8794V14.0799L7.88674 14.1995L7.70508 14.088V13.8827Z" fill="#034E87"/>
<path d="M15.4141 31.9068L15.5903 31.8032L15.7657 31.9V32.123L15.598 32.2173L15.4141 32.1218V31.9068Z" fill="#EA0013"/>
<path d="M36.3441 18.4289V18.6264L36.1717 18.7396L35.9902 18.641V18.4312L36.1638 18.3342L36.3441 18.4289Z" fill="#02A853"/>
<path d="M18.8988 29.1033L19.0739 29.2165V29.4117L18.9041 29.5136L18.7227 29.4179V29.2142L18.8988 29.1033Z" fill="#02A853"/>
<path d="M36.8945 12.7118L37.056 12.6174L37.2222 12.7036V12.9247L37.0713 13.0219L36.8953 12.9311L36.8945 12.7118Z" fill="#CF7F19"/>
<path d="M38.8457 18.9276V18.7159L39.0083 18.6167L39.1781 18.711V18.9244L39.0115 19.0238L38.8457 18.9276Z" fill="#CF7F19"/>
<path d="M34.3613 11.068V10.8743L34.5081 10.7705L34.6879 10.8595C34.6914 10.9188 34.6952 10.9791 34.6986 11.0316C34.562 11.1812 34.5328 11.1842 34.3613 11.068Z" fill="#034E87"/>
<path d="M9.75056 12.4509L9.58984 12.36V12.1768L9.74547 12.0825L9.90543 12.1685V12.3587L9.75056 12.4509Z" fill="#EA0013"/>
<path d="M16.1445 18.5431V18.3763L16.2805 18.2837L16.4298 18.3712V18.5293L16.2962 18.6181L16.1445 18.5431Z" fill="#EA0013"/>
<path d="M28.3155 17.0666C28.2373 17.1475 28.1633 17.17 28.0703 17.0845V16.9389C28.1207 16.8664 28.1756 16.8657 28.3099 16.937C28.311 16.9783 28.3135 17.0258 28.3155 17.0666Z" fill="#02A853"/>
<path d="M12.6511 24.507C12.6201 24.7994 12.6203 25.0993 12.5511 25.3823C12.4434 25.8218 12.1657 26.1402 11.7258 26.2892C11.2269 26.459 10.6859 26.2783 10.371 25.8476C10.2012 25.6147 10.1056 25.3506 10.0558 25.0693C9.96432 24.5515 9.99299 24.0424 10.1879 23.5508C10.3401 23.1675 10.584 22.8589 10.9913 22.7314C11.6077 22.5382 12.1923 22.7964 12.4815 23.394C12.5934 23.6257 12.6203 23.8747 12.6252 24.1273C12.6277 24.2529 12.6252 24.3787 12.6252 24.5045L12.6511 24.507Z" fill="#17142A"/>
<path d="M37.2666 24.0375H34.8379C34.9045 23.575 35.0546 23.1673 35.4106 22.8576C35.8573 22.4692 36.7752 22.4831 37.1115 23.2328C37.2159 23.4654 37.2675 23.7017 37.2666 24.0375Z" fill="#17142A"/>
<path d="M26.2423 24.0386H23.8105C23.8549 23.6689 23.9684 23.3354 24.1961 23.0475C24.5013 22.6615 24.9786 22.5129 25.4462 22.6572C25.7179 22.7411 25.9148 22.9179 26.0499 23.1665C26.1764 23.4033 26.2451 23.7081 26.2423 24.0386Z" fill="#17142A"/>
</svg>
