<svg width="43" height="48" viewBox="0 0 43 48" fill="none" xmlns="http://www.w3.org/2000/svg">
<path d="M31.4794 17.3269C34.5787 19.5413 38.3755 20.8442 42.4762 20.8442V12.9572C41.7001 12.9574 40.9261 12.8765 40.1668 12.7157V18.9239C36.0664 18.9239 32.2701 17.621 29.17 15.4068V31.5018C29.17 39.5533 22.6397 46.0798 14.5845 46.0798C11.579 46.0798 8.78544 45.1717 6.46484 43.6141C9.11343 46.3208 12.8071 48 16.8935 48C24.9491 48 31.4798 41.4734 31.4798 33.4216V17.3269H31.4794ZM34.3283 9.36999C32.7444 7.64045 31.7045 5.40535 31.4794 2.93435V1.91992H29.2909C29.8418 5.06056 31.7208 7.74374 34.3283 9.36999ZM11.5597 37.4356C10.6748 36.2759 10.1965 34.8572 10.1987 33.3985C10.1987 29.716 13.1856 26.7303 16.8707 26.7303C17.5575 26.7301 18.2401 26.8352 18.8946 27.0427V18.9795C18.1298 18.8748 17.3578 18.8303 16.5862 18.8466V25.1226C15.9312 24.9151 15.2483 24.8096 14.5613 24.8103C10.8762 24.8103 7.88946 27.7957 7.88946 31.4787C7.88946 34.0828 9.38244 36.3373 11.5597 37.4356Z" fill="#FF004F"/>
<path d="M29.1708 15.4066C32.271 17.6208 36.0672 18.9237 40.1676 18.9237V12.7156C37.8788 12.2283 35.8526 11.0328 34.3291 9.36999C31.7214 7.74358 29.8426 5.0604 29.2918 1.91992H23.5432V33.4212C23.5302 37.0936 20.5484 40.0672 16.8712 40.0672C14.7043 40.0672 12.7792 39.0348 11.56 37.4356C9.3829 36.3373 7.88992 34.0826 7.88992 31.4788C7.88992 27.7962 10.8767 24.8104 14.5618 24.8104C15.2678 24.8104 15.9484 24.9203 16.5867 25.1228V18.8468C8.67307 19.0102 2.30859 25.473 2.30859 33.4214C2.30859 37.3892 3.89349 40.9861 6.46581 43.6143C8.7864 45.1716 11.58 46.08 14.5855 46.08C22.6408 46.08 29.171 39.5531 29.171 31.5017V15.4066H29.1708Z" fill="black"/>
<path d="M40.1682 12.7156V11.037C38.1043 11.0401 36.0809 10.4624 34.3298 9.36987C35.8799 11.0661 37.9211 12.2357 40.1682 12.7156ZM29.2924 1.91997C29.2398 1.61982 29.1995 1.3177 29.1715 1.01443V0H21.2343V31.5016C21.2216 35.1735 18.2399 38.1471 14.5624 38.1471C13.4828 38.1471 12.4634 37.891 11.5607 37.4358C12.7798 39.0349 14.7049 40.0671 16.8718 40.0671C20.5487 40.0671 23.531 37.0938 23.5439 33.4214V1.91997H29.2924ZM16.5877 18.8468V17.0598C15.9244 16.9692 15.2558 16.9237 14.5863 16.924C6.53036 16.9239 0 23.4508 0 31.5016C0 36.5491 2.56655 40.9974 6.46661 43.614C3.8943 40.986 2.3094 37.3889 2.3094 33.4213C2.3094 25.473 8.6737 19.0102 16.5877 18.8468Z" fill="#00F2EA"/>
</svg>
