<svg xmlns="http://www.w3.org/2000/svg" width="48" height="48" fill="none" viewBox="0 0 48 48">
    <mask id="oqze1bymba" width="48" height="48" x="0" y="0" maskUnits="userSpaceOnUse">
        <circle cx="24" cy="24" r="24" fill="#C4C4C4"/>
    </mask>
    <g mask="url(#oqze1bymba)">
        <path fill="#DB0F0F" d="M-9.941 24H38.059V30.857H-9.941z" transform="rotate(-45 -9.94141 24)"/>
        <path fill="#139FB4" d="M9.453 43.395H57.453V50.252H9.453z" transform="rotate(-45 9.45312 43.395)"/>
        <path fill="#F5D800" d="M-0.244 33.697H47.756V40.554H-0.244z" transform="rotate(-45 -0.244141 33.6974)"/>
        <path fill="#5C12AF" d="M19.151 53.092H67.151V59.949H19.151z" transform="rotate(-45 19.1514 53.0924)"/>
        <path fill="#FFB710" d="M-5.093 28.849H42.907V35.706H-5.093z" transform="rotate(-45 -5.09277 28.8488)"/>
        <path fill="#1251AF" d="M14.303 48.244H62.303V55.101H14.303z" transform="rotate(-45 14.3027 48.2437)"/>
        <path fill="#56D516" d="M4.604 38.546H52.604V45.403H4.604z" transform="rotate(-45 4.60449 38.5462)"/>
        <path fill="#fff" d="M34.174 18.242c-.422-.075-.872-.105-1.275-.22-.252-.072-.532-.244-.776-.421-.492-.36-.979-.61-1.551-.843-.265-.108-.639-.273-.96-.238-.23.025-.473.26-.683.403-.473.32-.864.565-1.311.86-.207.138-.517.313-.61.495-.056.11-.051.289-.11.403-.139.266-.423.562-.702.55-.33-.015-.7-.595-.573-1.026.07-.236.445-.353.702-.494.806-.444 1.501-.901 2.18-1.41.436-.33 1.018-.577 1.79-.605.746-.028 1.758-.032 2.457 0 .578.026 1.065.064 1.57.165 2.886.575 5.804 1.092 8.532 1.868.292.083 1.143.24 1.218.513.048.172-.093.562-.148.843-.065.339-.115.637-.166.88-.047.224-.256.46-.37.695-.332.697-.544 1.497-.83 2.253-.377.997-.798 1.904-1.403 2.73-.577.785-1.36 1.304-2.364 1.776-.446.21-.96.424-1.515.55-.535.121-1.288.246-1.902.11-.882-.197-1.217-.997-1.533-1.777-.335-.829-.533-1.586-.646-2.674-1.063.069-1.287.789-1.644 1.538-.151.318-.313.636-.46.934-.61 1.22-1.263 2.534-2.162 3.426-.48.475-1.02.795-1.718 1.08-1.315.538-2.703 1.006-4.247 1.356-1.421.322-3.524.643-4.838-.036-.844-.436-1.227-1.543-1.589-2.455-.18-.454-.33-.963-.498-1.52-.15-.494-.28-1.089-.61-1.412-.415-.406-1.097-.553-1.274-1.172-.322-.12-.617-.321-.905-.512-1.717-1.142-3.433-2.262-5.189-3.37-.287-.182-.658-.376-.85-.587-.28-.31-.437-.83-.664-1.227-.105-.184-.233-.36-.351-.532-.109-.156-.212-.39-.425-.421-.124.144-.068.397-.075.605-.006.215-.03.459-.018.714.011.237.117.41.11.605-.007.201-.114.405-.332.403-.287-.004-.316-.384-.388-.66-.082-.317-.19-.608-.166-.88.02-.208.135-.479.185-.806.097-.626.05-1.205.573-1.337.295-.074.688.151.997.257.311.106.63.167.923.275.338.123.674.343.997.53.998.582 1.827 1.22 2.789 1.814 1.292.8 2.584 1.549 3.675 2.454 2.935-.853 6.603-1.396 10.212-1.684 1.65-.133 3.288-.069 4.839.146 2.22.308 3.977-.619 5.467-1.245.803-.339 1.61-.648 2.437-1.008-1.32-.232-2.543-.434-3.822-.66zm7.7 1.758c-.725-.152-1.473-.288-2.16-.42-.023-.006-.05-.027-.074-.019-.451.154-.9.24-1.33.403-.802.303-1.585.695-2.271 1.19-.34.245-.718.519-.905.806-.636.975-.477 2.825-.185 3.975.107.42.163.701.351 1.044 1.194.504 2.717-.071 3.509-.66.602-.447 1.056-1.076 1.422-1.703.793-1.36 1.301-2.964 1.643-4.616zm-11.486 2.491c-2.417-.758-5.87-.322-8.384.183-1.768.355-3.741.752-4.322 2.253-.316.817-.398 1.997-.277 3.096.112 1.018.425 1.916.794 2.582 1.162 1.057 3.964.62 5.578.147.996-.292 1.623-.544 2.308-.86.779-.361 1.83-.76 2.087-1.612.07-.234.045-.488.074-.715.194-1.53.767-2.917 1.699-3.773.188-.173.453-.266.536-.494.1-.282.006-.564-.093-.807z"/>
    </g>
</svg>
