<svg width="48" height="48" viewBox="0 0 48 48" fill="none" xmlns="http://www.w3.org/2000/svg">
<mask id="mask0" mask-type="alpha" maskUnits="userSpaceOnUse" x="0" y="0" width="48" height="48">
<circle cx="24" cy="24" r="24" fill="#C4C4C4"/>
</mask>
<g mask="url(#mask0)">
<rect x="-9.94141" y="24" width="48" height="6.85714" transform="rotate(-45 -9.94141 24)" fill="#DB0F0F"/>
<rect x="9.45312" y="43.395" width="48" height="6.85714" transform="rotate(-45 9.45312 43.395)" fill="#139FB4"/>
<rect x="-0.244141" y="33.6973" width="48" height="6.85714" transform="rotate(-45 -0.244141 33.6973)" fill="#F5D800"/>
<rect x="19.1504" y="53.0923" width="48" height="6.85714" transform="rotate(-45 19.1504 53.0923)" fill="#5C12AF"/>
<rect x="-5.0918" y="28.8486" width="48" height="6.85714" transform="rotate(-45 -5.0918 28.8486)" fill="#FFB710"/>
<rect x="14.3027" y="48.2437" width="48" height="6.85714" transform="rotate(-45 14.3027 48.2437)" fill="#1251AF"/>
<rect x="4.60547" y="38.5464" width="48" height="6.85714" transform="rotate(-45 4.60547 38.5464)" fill="#56D516"/>
<path d="M34.1737 18.2418C33.7515 18.1674 33.3018 18.1373 32.899 18.0217C32.6467 17.9496 32.3667 17.7781 32.1231 17.6007C31.6311 17.2407 31.1442 16.9908 30.572 16.7578C30.307 16.6497 29.9335 16.4844 29.6117 16.5197C29.3818 16.5447 29.1394 16.7797 28.9285 16.9227C28.4563 17.2431 28.0653 17.4875 27.6175 17.7836C27.4106 17.9207 27.101 18.0961 27.0083 18.2783C26.9522 18.3875 26.9569 18.5665 26.8973 18.6813C26.7591 18.9472 26.4752 19.2429 26.1956 19.2308C25.8659 19.2159 25.4955 18.6362 25.6234 18.205C25.6933 17.9692 26.0681 17.8517 26.3247 17.7107C27.1307 17.2666 27.8264 16.8099 28.5044 16.2999C28.9412 15.9706 29.5228 15.7238 30.2956 15.696C31.0415 15.6682 32.0528 15.6635 32.7517 15.696C33.3302 15.7218 33.8171 15.7602 34.3217 15.8605C37.2075 16.4359 40.1256 16.9525 42.8538 17.7287C43.1456 17.8122 43.9974 17.9688 44.0724 18.2422C44.1202 18.4142 43.9792 18.8043 43.9243 19.0847C43.8591 19.4235 43.809 19.7215 43.7585 19.9644C43.7111 20.1892 43.5018 20.4242 43.3889 20.66C43.0564 21.3564 42.8443 22.1565 42.558 22.9132C42.1813 23.91 41.7604 24.8163 41.1547 25.6424C40.5781 26.4277 39.7955 26.9466 38.7905 27.419C38.3451 27.6281 37.831 27.8431 37.2762 27.9685C36.7411 28.0903 35.9877 28.2152 35.3741 28.0781C34.4923 27.8819 34.1575 27.0821 33.8412 26.3015C33.5063 25.4732 33.3077 24.7157 33.1952 23.6276C32.1322 23.6966 31.9083 24.4165 31.5513 25.1661C31.3997 25.4841 31.2385 25.8018 31.0901 26.1002C30.4812 27.3203 29.8277 28.6343 28.9289 29.5257C28.4492 30.0008 27.9098 30.3208 27.2112 30.606C25.8959 31.1437 24.5075 31.6122 22.9635 31.9619C21.5428 32.2835 19.4401 32.605 18.1255 31.9255C17.2821 31.4896 16.8995 30.3827 16.537 29.4705C16.3561 29.0166 16.2072 28.5074 16.0386 27.9501C15.8894 27.457 15.7591 26.862 15.4293 26.5393C15.0135 26.1331 14.3316 25.9855 14.1551 25.367C13.8332 25.2468 13.5379 25.0455 13.25 24.8547C11.5327 23.713 9.81737 22.5932 8.06096 21.484C7.77389 21.3031 7.40271 21.1088 7.21159 20.8977C6.93043 20.5875 6.77406 20.0686 6.54662 19.6706C6.44197 19.4869 6.31443 19.3103 6.19597 19.1391C6.08738 18.9825 5.98431 18.7486 5.77108 18.7177C5.6467 18.8618 5.70277 19.1149 5.69645 19.3228C5.68974 19.5379 5.66604 19.7819 5.67789 20.0368C5.68895 20.2742 5.79517 20.4477 5.78846 20.6416C5.78135 20.8433 5.67355 21.0473 5.45637 21.0446C5.16929 21.0411 5.14047 20.6608 5.0682 20.3842C4.98568 20.0682 4.87748 19.7768 4.90196 19.505C4.92131 19.297 5.03661 19.0259 5.08676 18.6993C5.1839 18.073 5.13652 17.4937 5.65973 17.3618C5.95509 17.2877 6.34839 17.5133 6.65679 17.6187C6.96834 17.7252 7.2874 17.7863 7.5804 17.8936C7.91762 18.0174 8.25406 18.2363 8.57706 18.4243C9.57452 19.0056 10.4038 19.6432 11.3657 20.2378C12.6581 21.0372 13.9501 21.7868 15.0408 22.6923C17.9763 21.8389 21.6439 21.2957 25.2534 21.0074C26.9024 20.8754 28.5412 20.9392 30.0918 21.1539C32.3126 21.4621 34.0694 20.535 35.5585 19.9084C36.3621 19.57 37.1688 19.2609 37.996 18.9006C36.6764 18.6691 35.4527 18.4666 34.1737 18.2418ZM41.8745 20C41.1487 19.8481 40.4008 19.7114 39.7141 19.579C39.6908 19.5743 39.664 19.5527 39.6399 19.561C39.1886 19.7145 38.74 19.8011 38.3104 19.964C37.5076 20.2667 36.7249 20.6592 36.039 21.1543C35.6995 21.3987 35.3212 21.6728 35.1336 21.9599C34.4982 22.9348 34.6574 24.7854 34.9492 25.9349C35.0558 26.3544 35.1115 26.636 35.3002 26.9791C36.4935 27.4832 38.017 26.9075 38.8087 26.3196C39.4113 25.8723 39.8654 25.2425 40.231 24.6158C41.0243 23.2559 41.5325 21.6517 41.8745 20ZM30.3876 22.491C27.9706 21.7324 24.5178 22.1691 22.0036 22.6739C20.2358 23.0292 18.2626 23.4259 17.6821 24.9272C17.3658 25.7442 17.2837 26.9239 17.4053 28.0225C17.5174 29.0405 17.8302 29.9386 18.1994 30.6052C19.3615 31.6619 22.1631 31.2244 23.7766 30.7521C24.7729 30.4603 25.4003 30.208 26.0846 29.8916C26.8637 29.5308 27.9153 29.1321 28.1716 28.2795C28.2422 28.0456 28.217 27.7922 28.2458 27.5651C28.4401 26.034 29.0126 24.6483 29.9449 23.7917C30.1333 23.619 30.3975 23.5258 30.4808 23.2975C30.5819 23.0155 30.4871 22.7339 30.3876 22.491Z" fill="white"/>
</g>
</svg>
