<svg fill="none" height="24" viewBox="0 0 108 24" width="108" xmlns="http://www.w3.org/2000/svg" xmlns:xlink="http://www.w3.org/1999/xlink"><clipPath id="a"><path d="m0 0h106.909v24h-106.909z" transform="translate(.448242)"/></clipPath><g clip-path="url(#a)"><path d="m69.502 16.61c-2.225 0-3.368-1.832-3.368-4.082s1.122-3.984 3.368-3.984c2.286 0 3.369 1.813 3.369 3.984-.02 2.29-1.163 4.083-3.37 4.083zm-21.775-8.065c1.303 0 1.845.757 1.845 1.415 0 1.593-1.624 2.29-5.013 2.39 0-1.972 1.123-3.805 3.168-3.805zm-14.436 8.067c-2.105 0-2.988-1.713-2.988-4.083 0-2.35.903-3.984 2.988-3.984 2.125 0 3.128 1.693 3.128 3.984 0 2.39-1.043 4.083-3.128 4.083zm-17.805-10.398h-3.288l5.453 12.508c-1.042 2.31-1.604 2.888-2.325 2.888-.762 0-1.484-.617-2.005-1.155l-1.444 1.912c.982 1.035 2.326 1.633 3.71 1.633 1.724 0 3.047-.996 3.809-2.788l6.296-15.018h-3.228l-3.289 8.963-3.689-8.943zm87.099 2.33c1.604 0 1.925 1.096 1.925 3.665v6.752h2.847v-8.524c0-3.068-2.105-4.402-4.05-4.402-1.724 0-3.308 1.075-4.19 3.067-.502-1.912-2.106-3.067-3.97-3.067-1.625 0-3.249 1.036-4.13 2.967v-2.788h-2.848v12.727h2.847v-5.437c0-2.749 1.444-4.96 3.409-4.96 1.604 0 1.905 1.096 1.905 3.665v6.752h2.847l-.02-5.457c0-2.749 1.463-4.96 3.428-4.96zm-22.719-2.33h-1.441v12.727h2.847v-4.88c0-3.087 1.363-5.178 3.388-5.178.521 0 .963.02 1.444.22l.441-3.008c-.36-.04-.682-.08-1.003-.08-2.004 0-3.448 1.374-4.29 3.147v-2.948zm-10.364-.2c-3.77 0-6.316 2.869-6.316 6.494 0 3.764 2.587 6.573 6.316 6.573 3.79 0 6.376-2.889 6.376-6.573-.02-3.645-2.647-6.493-6.376-6.493zm-21.614 10.598c-1.484 0-2.587-.757-3.048-2.29 3.77-.16 7.459-1.076 7.459-4.402 0-1.912-1.885-3.884-4.592-3.884-3.649 0-6.115 2.967-6.115 6.493 0 3.684 2.426 6.572 6.055 6.572 2.526 0 4.13-1.015 5.394-2.49l-1.384-1.871c-1.464 1.493-2.366 1.872-3.77 1.872zm-14.036-10.597c-1.443 0-2.887.836-3.448 2.151v-1.952h-2.848v17.726h2.848v-6.333c.601.916 1.985 1.513 3.208 1.513 3.79 0 5.794-2.808 5.794-6.592-.02-3.745-1.985-6.513-5.554-6.513zm-19.97-4.9h-13.434v2.769h5.253v15.056h2.989v-15.056h5.193v-2.769zm42.327 5.1h-1.705v2.548h1.705v10.178h2.847v-10.178h2.767v-2.549h-2.767v-1.992c0-1.274.521-1.712 1.704-1.712.441 0 .842.12 1.384.298l.641-2.39c-.521-.298-1.564-.418-2.246-.418-2.726 0-4.33 1.633-4.33 4.461v1.753z" fill="#fff"/></g></svg>