<svg xmlns="http://www.w3.org/2000/svg" width="81" height="18" fill="none" viewBox="0 0 81 18">
    <g clip-path="url(#clip0)">
        <path fill="#262627" d="M52.024 12.458c-1.67 0-2.527-1.374-2.527-3.062 0-1.688.843-2.988 2.527-2.988 1.714 0 2.526 1.36 2.526 2.988-.015 1.718-.872 3.062-2.526 3.062zm-16.331-6.05c.977 0 1.383.568 1.383 1.06 0 1.196-1.218 1.719-3.76 1.793 0-1.478.843-2.853 2.377-2.853zm-10.828 6.05c-1.579 0-2.24-1.284-2.24-3.062 0-1.763.676-2.988 2.24-2.988 1.594 0 2.346 1.27 2.346 2.988 0 1.792-.782 3.062-2.346 3.062zM11.512 4.661H9.046l4.09 9.38c-.782 1.733-1.203 2.166-1.744 2.166-.572 0-1.113-.463-1.504-.866l-1.083 1.434c.737.777 1.744 1.225 2.782 1.225 1.293 0 2.286-.747 2.857-2.091l4.722-11.263h-2.421l-2.466 6.722-2.767-6.707zm65.324 1.747c1.203 0 1.444.822 1.444 2.749v5.064h2.135V7.827c0-2.3-1.579-3.3-3.038-3.3-1.293 0-2.48.806-3.142 2.3-.376-1.434-1.58-2.3-2.978-2.3-1.218 0-2.436.776-3.098 2.225V4.66h-2.135v9.545h2.135v-4.078c0-2.062 1.083-3.72 2.557-3.72 1.203 0 1.428.822 1.428 2.749v5.064h2.136l-.015-4.093c0-2.062 1.097-3.72 2.571-3.72zM59.797 4.661h-1.081v9.545h2.135v-3.66c0-2.315 1.023-3.884 2.541-3.884.391 0 .722.015 1.083.165l.33-2.256c-.27-.03-.51-.06-.751-.06-1.504 0-2.587 1.03-3.218 2.36v-2.21h-1.039zm-7.773-.15c-2.827 0-4.737 2.151-4.737 4.87 0 2.823 1.94 4.93 4.737 4.93 2.842 0 4.782-2.167 4.782-4.93-.015-2.734-1.985-4.87-4.782-4.87zm-16.211 7.947c-1.113 0-1.94-.568-2.286-1.718 2.827-.12 5.594-.806 5.594-3.301 0-1.434-1.413-2.913-3.443-2.913-2.737 0-4.587 2.226-4.587 4.87 0 2.763 1.82 4.93 4.541 4.93 1.895 0 3.098-.763 4.046-1.868l-1.038-1.404c-1.098 1.12-1.774 1.404-2.827 1.404zM25.286 4.511c-1.082 0-2.165.628-2.586 1.613V4.661h-2.135v13.294H22.7v-4.75c.451.687 1.489 1.135 2.406 1.135 2.842 0 4.346-2.106 4.346-4.944-.015-2.808-1.489-4.885-4.166-4.885zM10.31.837H.233v2.076h3.94v11.293h2.24V2.913h3.896V.837zM42.054 4.66h-1.279v1.912h1.279v7.633h2.135V6.573h2.075V4.66H44.19V3.167c0-.956.391-1.285 1.278-1.285.33 0 .632.09 1.038.224l.48-1.792C46.596.09 45.814 0 45.303 0c-2.045 0-3.248 1.225-3.248 3.346v1.315z"/>
    </g>
    <defs>
        <clipPath id="clip0">
            <path fill="#fff" d="M0 0H80.182V18H0z" transform="translate(0.233398)"/>
        </clipPath>
    </defs>
</svg>
