<svg width="47" height="48" viewBox="0 0 47 48" fill="none" xmlns="http://www.w3.org/2000/svg">
<path d="M20.1338 14.6277C20.1338 16.0429 19.8905 17.3365 19.4041 18.5085C18.9397 19.6583 18.2652 20.6534 17.3807 21.4937C16.4962 22.3119 15.4237 22.9532 14.1633 23.4176C12.925 23.8819 11.5429 24.1141 10.0171 24.1141C8.46926 24.1141 7.07615 23.8819 5.8378 23.4176C4.59946 22.9532 3.54912 22.3119 2.68672 21.4937C1.82431 20.6534 1.16093 19.6583 0.696556 18.5085C0.232185 17.3365 0 16.0429 0 14.6277V0H5.63879V14.1633C5.63879 14.8046 5.7162 15.4127 5.87097 15.9876C6.0479 16.5626 6.30217 17.0822 6.63387 17.5466C6.98765 17.9889 7.44101 18.3426 7.99381 18.608C8.56877 18.8734 9.25424 19.006 10.0503 19.006C10.8464 19.006 11.5208 18.8734 12.0736 18.608C12.6486 18.3426 13.113 17.9889 13.4668 17.5466C13.8205 17.0822 14.0749 16.5626 14.2296 15.9876C14.3844 15.4127 14.4618 14.8046 14.4618 14.1633V0H20.1338V14.6277ZM39.6135 23.4839L34.4723 15.1916L29.5301 23.4839H22.7635L30.9895 11.0786L23.4269 0H30.2598L34.6381 7.29725L38.9502 0H45.5508L38.1209 11.0786L46.6123 23.4839H39.6135Z" fill="black"/>
<path d="M17.8465 47.5625C18.4296 48.1455 19.4207 48.1455 20.0038 47.5625L37.1456 30.4206C37.7287 29.8376 37.7287 28.8464 37.1456 28.2634L35.0466 26.1643C34.4635 25.5813 33.5307 25.5813 32.9476 26.1643L18.9543 40.1577L12.3658 33.6274C11.7827 33.0444 10.8498 33.0444 10.2668 33.6274L8.16776 35.7265C7.58471 36.3095 7.58471 37.3007 8.16776 37.8837L17.8465 47.5625Z" fill="black"/>
</svg>
