<svg height="45" width="48" xmlns="http://www.w3.org/2000/svg"><g fill="none"><path d="M46.286 38.643 5.069 45 0 12.57l40.996-6.141z" fill="#03a9f4"/><path d="m38.653 6.429 5.061 32.214L4.28 45l-.422-3.125z" fill="#039be5"/><path d="m0 12.214 2.597 16.072L21.857 9z" fill="#29b6f6"/><g fill="#fff"><path d="M6.823 42.429 2.57 13.37l35.394-5.657 4.464 28.836L6.823 42.43zM5.016 15.256 8.63 39.878l31.354-5.213-3.72-24.51z"/><path d="m10.286 24.932.433 3.354 26.567-4.36-.542-3.355z"/><path d="m14.846 33.412-3.275 3.874.423-5.026c0-.105 0-.21.106-.314l5.493-13.297c.211-.524.845-.838 1.373-.524l.95.42c.529.209.846.837.529 1.36l-5.388 13.193c-.105.104-.105.21-.21.314zm16.088-7.698L20.848 15.061c-.434-.391-.326-1.075.108-1.369l.868-.586c.434-.39 1.193-.293 1.518.098L33.43 23.857l-2.495 1.857zM34.375 27s2.91.75 2.91 3.75c0 1.929-.606 2.679-.606 2.679s-.485-1.286-2.79-2.036c-3.153-.964-3.031-3.107-3.031-3.107l2.668-.536z"/></g><path d="M20.627 24.429 19.286 27l2.124-1.596.447-.975z" fill="#03a9f4"/><path d="m19.048 30.857 1.523-5.143-1.81 2.374-.761 2.77z" fill="#039be5"/><path d="m13.77 30.857 1.659-6.428h-.913l-1.659 6.428z" fill="#03a9f4"/><path d="m35.459 24.429-3.573-3.858h-1.408l3.79 4.06.216.305-2.49 1.929-1.408-1.523-3.464-3.756h-1.408l3.248 3.553 2.166 2.436.758.71.758-.608 2.49-2.03.866-.61z" fill="#039be5"/><path d="M16.714 19.286v.884l6.429 1.687v-.884z" fill="#03a9f4"/><path d="m16.714 32.25-3.066-1.393-.79.857 3.856 1.715z" fill="#039be5"/><path d="M11.571 30.857v.884l.745.402.541-.643z" fill="#03a9f4"/><path d="M38.571 9.684v.104l.858 4.355 1.591-3.733c0-.104.123-.207.123-.31l-.49-2.386c-.98.519-1.837 1.348-2.082 1.97zm-5.142 22.108c-.166-.117-.332-.234-.581-.35-.415-.234-.664-.351-.913-.585L30.857 36l1.825-.35zm-3.381 5.802-.477 2.263 2-.411.572-2.16zm6.319-16.704v.1L36 22.406l1.01-.202.368 2.225.734-2.933.46-1.618-.643-4.45-1.01 3.54z" fill="#0277bd"/><path d="m37.286 14.627.45 4.659.835-4.553-.45-4.447c-.321 1.482-.642 2.964-.707 3.176zm-5.878 21.694-.55 2.25 2.02-.321.55-2.25zm5.878-14.086-.429-1.664-1.178.152-.965 2.42 2.25-.227zM33.52 27l-.55.35-.827 3.858c.275.234.643.467 1.01.584.276.117.46.234.643.35l.918-4.207c-.55-.701-1.194-.935-1.194-.935z" fill="#90a4ae"/><path d="m34.071 28.286.643-2.572-2.02.286-.551 2.095.735-.666c0 .095.642.285 1.193.857z" fill="#0277bd"/><path d="m33.612 27-.734.818-.735 3.39c.275.234.643.467 1.01.584.276.117.46.234.643.35l.918-4.207c-.459-.701-1.102-.935-1.102-.935z" fill="#90a4ae"/><path d="M36 1.286c-6.171 0-10.286 1.607-10.286 1.607v.536c8.846 0 9.977 3.428 10.286 4.285z" fill="#78909c"/><path d="M45.49 3.592c-.208.435-.417.762-1.041.762-1.145 0-2.082-1.742-2.082-1.742C40.598 1.415 37.163 0 34.041 0c-6.245 0-8.327 1.633-8.327 1.633v.544c4.372 0 6.037.435 7.598 1.633 2.498 1.959 2.29 6.421 1.353 9.904l-1.873 5.878 3.018.98 2.186-7.184c.104-.11.624-1.742 1.145-3.374.312-.871 1.145-1.96 2.186-2.286.624-.218 1.457-.327 1.977.109.52.435.52.762.416 1.197l2.082.653 1.77-5.333z" fill="#d7dee2"/><path d="M45.194 4.414c-1.2 0-2.183-1.843-2.183-1.843l-.874 2.879c-.327 1.266-1.637 1.842-2.729 1.497l-4.694-1.612c.546 1.036.764 2.187.874 3.57l4.148 1.38c.327-.69.873-1.496 1.637-1.957l.655-.345c.655-.23 1.529-.345 2.074.115.546.46.546.806.437 1.267l1.747-5.757c-.219.46-.437.806-1.092.806z" fill="#90a4ae"/><path d="m31.544 19.286-9.51 21.745c-.547 1.393.218 3.106 1.748 3.535l.984.321c1.53.429 3.061-.428 3.39-1.5l6.558-23.137z" fill="#424242"/></g></svg>