<svg xmlns="http://www.w3.org/2000/svg" width="59" height="28" fill="none" viewBox="0 0 59 28">
    <path fill="#405A86" d="M12.005 18.532c-.597-.73-1.133-1.414-1.608-2.05-.475-.637-.91-1.226-1.307-1.767-.394-.541-.767-1.07-1.12-1.584.462-1.868.937-3.912 1.425-6.132.489-2.22.964-4.481 1.425-6.785 0-.081-.054-.143-.163-.183-.132-.041-.274-.041-.407 0-.179.05-.34.148-.468.284-.163.176-.269.397-.304.634-.082.46-.183.975-.306 1.543-.122.568-.283 1.265-.484 2.092-.204.826-.448 1.795-.733 2.908s-.631 2.424-1.04 3.934C6.105 10.37 5.432 9.463 4.9 8.706c-.532-.759-.994-1.456-1.385-2.092-.393-.636-.766-1.245-1.12-1.828-.352-.582-.772-1.211-1.26-1.888-.1-.154-.223-.29-.366-.406-.115-.096-.246-.172-.387-.223-.123-.04-.21-.027-.265.04-.054.069-.054.195 0 .388.276.85.616 1.68 1.018 2.478.406.81.86 1.655 1.364 2.535.502.88 1.058 1.813 1.668 2.802.61.989 1.269 2.065 1.974 3.229.027.054.027.203 0 .447-.027.217-.074.515-.142.894-.068.378-.169.892-.302 1.542-.217.948-.394 1.78-.529 2.498-.135.717-.284 1.475-.448 2.274-.165.796-.363 1.696-.594 2.7-.23 1.005-.521 2.236-.872 3.695 0 .163.108.23.325.203.217-.027.475-.15.776-.365.136-.38.346-1.043.63-1.99.286-.948.584-2.004.897-3.168.311-1.163.623-2.368.936-3.615.313-1.246.564-2.37.753-3.37.76 1.002 1.431 1.861 2.015 2.578.585.718 1.114 1.347 1.588 1.889s.902 1.036 1.283 1.482c.38.446.774.886 1.18 1.32.217.027.4-.081.55-.325.15-.244.088-.73-.183-1.462-.736-.893-1.402-1.705-2-2.436z"/>
    <path fill="#405A86" d="M40.464 22.37c-.563-.062-1.106-.25-1.588-.548-.33-.211-.58-.526-.712-.894-.359-.816-.605-1.676-.733-2.558-.109-.812-.218-1.55-.328-2.213-.093-.61-.27-1.205-.529-1.766-.244-.517-.664-.91-1.26-1.178-.272-.108-.562-.027-.872.243-.358.326-.667.702-.916 1.117-.322.518-.601 1.061-.835 1.625-.259.609-.496 1.184-.713 1.725-.216.54-.386 1.021-.508 1.441-.123.42-.184.684-.184.792.027-.487.047-1.042.061-1.665v-.047c.025-.097.031-.198.02-.298-.002-.012-.007-.022-.013-.032l.033-1.613c.014-.704.027-1.435.04-2.193.015-.758.021-1.516.021-2.274-.148-.015-.29-.071-.407-.163-.163-.107-.319-.216-.468-.324-.116-.096-.258-.153-.407-.163-.122 0-.183.122-.183.365.081 1.57.142 3.418.183 5.544.013.666.017 1.345.011 2.035l-.032.032c-.34.339-.794.752-1.363 1.24-.353.322-.815.701-1.385 1.136-.539.415-1.127.763-1.75 1.035-.534.248-1.127.34-1.71.264-.544-.081-.95-.474-1.222-1.178 1.096-.777 2.113-1.66 3.034-2.64.853-.917 1.536-2.066 2.049-3.445.352-1.245.318-2.085-.102-2.52-.42-.435-1.023-.638-1.808-.607-.244-.082-.556-.061-.936.06l-.692.224c-.556.31-1.042.731-1.425 1.239-.451.598-.835 1.245-1.144 1.928-.517 1.462-.788 2.653-.814 3.574-.026.92.028 1.651.163 2.192.037.167.092.33.162.485.103.225.233.436.388.629.073.095.154.183.24.266-.193.204-.402.413-.64.627-.271.249-.59.442-.936.568-.346.122-.72.143-1.079.06-.38-.08-.76-.351-1.14-.811-.28-.713-.479-1.456-.59-2.213-.123-.819-.204-1.643-.242-2.47-.04-.852-.061-1.719-.061-2.598 0-.88-.027-1.74-.082-2.579 1.222-.31 2.459-.555 3.706-.735 1.303-.19 2.457-.338 3.46-.447.3-.054.408-.21.326-.467-.03-.119-.099-.224-.194-.3-.095-.077-.213-.122-.335-.127-1.221.109-2.395.21-3.521.305-1.127.094-2.274.18-3.442.26.027-.378.04-.838.041-1.38 0-.542-.006-1.076-.02-1.604s-.035-1.03-.061-1.503c-.01-.364-.065-.725-.163-1.076-.03-.07-.075-.133-.131-.186-.056-.052-.123-.092-.195-.118-.168-.068-.349-.096-.53-.082-.175.01-.347.052-.508.123-.064.02-.12.061-.16.116-.04.055-.063.12-.064.188 0 .569.007 1.029.02 1.38.014.352.034.71.062 1.076.026.366.053.793.08 1.28.029.487.056 1.164.082 2.03-.747.111-1.5.173-2.255.187-.776.014-1.366.075-1.771.183-.272.054-.455.122-.55.203-.081.059-.139.145-.163.243-.014.1-.014.203 0 .304.013.13.007.26-.02.388.143.13.292.252.448.365.081.055.243.068.484.041.242-.027.642-.081 1.201-.163.556-.081 1.431-.176 2.626-.284.082.975.15 2.071.204 3.29.054 1.217.156 2.388.305 3.512.12 1.002.346 1.989.672 2.944.299.84.76 1.34 1.384 1.502.826.248 1.712.197 2.504-.142.317-.137.612-.322.872-.549.217-.189.421-.392.611-.609.098-.102.187-.214.265-.333l.012.009c.408.256.845.46 1.303.609.572.108 1.159.108 1.73 0 .492-.105.962-.297 1.385-.57.43-.278.832-.597 1.2-.953.38-.366.774-.738 1.181-1.117.352-.406.651-.73.896-.974l.118-.12c-.023 1.144-.07 2.321-.139 3.53.218.3.374.433.469.407.249-.038.501-.052.753-.04.026-.109.108-.407.244-.894.137-.488.32-1.07.55-1.745.23-.677.48-1.4.753-2.173.272-.771.557-1.482.855-2.132.25-.562.542-1.106.872-1.625.285-.433.55-.663.794-.69.163 0 .312.25.448.751s.295 1.111.477 1.83c.176.717.373 1.46.59 2.229.186.699.467 1.368.835 1.99.34.555.753.914 1.242 1.076.488.162 1.072-.014 1.75-.528.053-.08-.008-.126-.184-.14zm-17.61-4.507c.24-.757.56-1.485.957-2.172.38-.65.8-1.15 1.26-1.503.46-.352.921-.42 1.384-.203.055 0 .109.041.163.123.108.162.122.446.04.853-.028.601-.203 1.187-.508 1.706-.308.535-.677 1.032-1.1 1.482-.408.435-.858.83-1.343 1.177-.397.29-.811.553-1.24.79.01-.766.14-1.527.387-2.253zM48.445 8.847c.143-.012.286-.006.428.02.298-.053.488-.168.57-.345.08-.176.27-.386.57-.629.162-.19.217-.474.162-.853-.054-.38-.216-.54-.484-.485-.462.19-.809.434-1.038.731-.215.27-.387.571-.51.894.076.459.177.681.302.667z"/>
    <path fill="#405A86" d="M50.373 21.01c-.135-1.706-.229-3.337-.28-4.893-.052-1.556-.15-2.985-.292-4.287-.172-.055-.357-.055-.529 0-.12.045-.232.114-.325.203-.086.086-.16.181-.224.284-.064.104-.156.188-.265.243.054.65.115 1.53.183 2.64.065 1.063.13 2.158.194 3.283l-.141.067c-.313.15-.618.31-.916.484-.299.174-.638.364-1.018.569-.38.202-.842.453-1.384.75-.529-.347-1.087-.647-1.67-.893-.678-.297-1.357-.629-2.035-.995-.657-.348-1.278-.76-1.854-1.232-.531-.422-.934-.985-1.163-1.624-.218-.623-.109-1.15.326-1.584.435-.434 1.012-.738 1.73-.914.767-.18 1.558-.227 2.341-.143.84.082 1.56.312 2.158.69.217.136.44.272.672.407.23.135.36.148.387.04-.136-.216-.279-.446-.427-.69-.168-.265-.374-.504-.61-.71-.315-.265-.67-.477-1.052-.63-.543-.214-1.11-.364-1.69-.446-.7-.11-1.416-.062-2.096.142-.641.19-1.238.506-1.753.932-.484.396-.874.896-1.14 1.462-.255.537-.334 1.14-.224 1.725.055.542.38 1.084.977 1.625.627.564 1.3 1.074 2.015 1.522.746.474 1.473.907 2.178 1.3.706.393 1.18.725 1.425.995-.353.298-.76.636-1.221 1.015-.443.36-.852.762-1.222 1.198-.33.381-.586.822-.753 1.3-.149.446-.074.886.224 1.32.284.332.671.56 1.1.65.414.108.852.094 1.26-.041.57-.19 1.194-.529 1.872-1.015.679-.487 1.29-1.164 1.832-2.031.183-.312.248-.68.184-1.035-.067-.334-.184-.655-.346-.954-.21-.349-.472-.664-.776-.934.596-.38 1.153-.731 1.67-1.056.516-.325.868-.555 1.058-.69l.11-.079c.06 1.045.121 2.019.182 2.92.065 1.002.126 1.72.184 2.153.219.136.45.252.692.345.244.094.583.1 1.018.02-.055-.433-.137-.893-.245-1.38-.108-.487-.215-1.163-.32-2.028zm-4.75 2.274c-.118.306-.29.588-.508.833-.265.317-.566.603-.896.853-.327.25-.691.449-1.079.589-.38.135-.72.135-1.017 0-.19-.162-.218-.406-.082-.73.161-.367.374-.709.631-1.016.304-.371.638-.717.998-1.035.38-.338.719-.615 1.017-.833.263.18.503.39.713.63.23.256.303.492.223.709zM58.212 15.872c-.055-.609-.245-1.061-.57-1.357-.367-.353-.786-.647-1.242-.872-.532-.27-1.083-.5-1.648-.69-.6-.203-1.211-.365-1.832-.485-.564-.114-1.136-.188-1.71-.223-.11.194-.264.36-.448.485-.095.098-.205.18-.325.243.104.077.2.166.285.264.08.095.162.196.244.304.087.118.169.24.244.366-.155.913-.25 1.835-.285 2.761-.053 1.273-.04 2.547.04 3.817.04.392.116.78.225 1.158.123.45.308.88.55 1.28.248.41.58.763.976 1.035.407.284.91.426 1.507.426.352 0 .732-.203 1.14-.609.447-.46.83-.98 1.14-1.543.374-.671.694-1.372.956-2.095.274-.733.485-1.486.631-2.254.132-.662.172-1.338.121-2.01zm-1.283 2.113c-.116.702-.33 1.385-.633 2.03-.365.775-.86 1.482-1.463 2.09-.245.244-.475.393-.693.447-.208.055-.427.048-.63-.02-.188-.059-.361-.155-.51-.284-.12-.105-.228-.22-.325-.345-.109-.19-.21-.548-.306-1.076-.103-.618-.157-1.242-.163-1.868-.009-.796.039-1.59.143-2.379.112-.882.302-1.751.57-2.599.57.162 1.031.292 1.384.388.353.096.644.184.873.264.199.066.39.155.57.263.148.095.331.21.55.345.27.218.467.57.59 1.056.125.554.14 1.128.043 1.688z"/>
</svg>
