<svg fill="none" height="49" viewBox="0 0 101 49" width="101" xmlns="http://www.w3.org/2000/svg"><g fill="#fff"><path d="m20.876 31.774c-1.024-1.253-1.943-2.425-2.757-3.517-.814-1.09-1.561-2.1-2.24-3.028-.675-.928-1.315-1.833-1.92-2.715.791-3.203 1.606-6.708 2.443-10.514.838-3.805 1.652-7.683 2.443-11.633 0-.14-.093-.244-.279-.314-.227-.07-.47-.07-.698 0-.307.086-.584.254-.803.487-.279.301-.46.68-.522 1.087-.14.79-.314 1.671-.523 2.645-.21.974-.486 2.17-.831 3.587-.35 1.416-.768 3.078-1.257 4.986-.488 1.907-1.082 4.156-1.781 6.745-1.393-1.81-2.545-3.365-3.457-4.665s-1.703-2.495-2.373-3.586c-.675-1.09-1.315-2.135-1.92-3.133s-1.325-2.077-2.16-3.237c-.172-.264-.384-.499-.628-.697-.198-.165-.423-.294-.665-.382-.21-.07-.36-.046-.454.07-.093.116-.093.332 0 .665.473 1.458 1.057 2.878 1.745 4.248.697 1.389 1.477 2.838 2.338 4.346.862 1.508 1.816 3.109 2.86 4.804 1.048 1.695 2.176 3.54 3.386 5.536.047.093.047.348 0 .766-.046.373-.128.883-.244 1.533-.117.649-.289 1.53-.517 2.644-.373 1.625-.676 3.053-.908 4.283-.231 1.23-.487 2.529-.767 3.898-.284 1.365-.624 2.909-1.02 4.63-.395 1.722-.893 3.834-1.495 6.336 0 .28.186.394.559.347.372-.046.814-.256 1.33-.626.232-.65.592-1.788 1.081-3.412.489-1.625 1-3.435 1.536-5.431.534-1.995 1.069-4.06 1.605-6.198.536-2.137.967-4.063 1.291-5.778 1.302 1.717 2.454 3.19 3.456 4.42 1.001 1.23 1.909 2.31 2.722 3.238.813.93 1.546 1.776 2.198 2.54.653.765 1.328 1.52 2.025 2.264.372.047.686-.139.942-.556.256-.418.151-1.253-.314-2.507-1.26-1.53-2.403-2.923-3.427-4.176z"/><path d="m69.67 38.353c-.966-.106-1.896-.427-2.722-.94-.566-.362-.995-.9-1.221-1.532-.615-1.4-1.038-2.874-1.257-4.386-.186-1.392-.373-2.657-.562-3.794-.159-1.047-.464-2.067-.907-3.029-.419-.886-1.14-1.559-2.16-2.019-.466-.185-.965-.046-1.496.417-.614.56-1.143 1.204-1.57 1.915-.552.888-1.03 1.82-1.432 2.785-.443 1.045-.85 2.031-1.221 2.959-.371.927-.662 1.75-.873 2.47-.21.721-.314 1.174-.314 1.359.045-.836.08-1.787.105-2.855v-.08c.041-.168.052-.34.033-.512-.004-.02-.011-.038-.022-.055l.057-2.765.07-3.76c.023-1.3.035-2.599.035-3.899-.255-.025-.497-.122-.698-.279-.28-.184-.547-.37-.803-.557-.198-.163-.442-.26-.698-.279-.21 0-.314.209-.314.627.14 2.692.244 5.86.314 9.504.022 1.143.029 2.306.02 3.49l-.055.055c-.583.58-1.362 1.289-2.338 2.124-.605.554-1.396 1.204-2.374 1.95-.924.711-1.932 1.307-3.001 1.775-.915.424-1.931.581-2.932.452-.931-.14-1.63-.813-2.094-2.02 1.88-1.332 3.621-2.848 5.2-4.525 1.463-1.574 2.634-3.544 3.514-5.908.604-2.135.545-3.576-.175-4.321-.72-.746-1.753-1.093-3.1-1.04-.418-.14-.953-.105-1.605.104l-1.186.382c-.954.53-1.786 1.254-2.443 2.124-.773 1.027-1.431 2.135-1.962 3.306-.886 2.506-1.351 4.549-1.395 6.127-.045 1.58.048 2.832.279 3.76.064.286.158.564.279.83.176.386.4.748.665 1.08.125.161.263.314.412.455-.332.35-.69.71-1.097 1.075-.466.427-1.011.758-1.605.974-.595.21-1.236.246-1.85.105-.653-.14-1.304-.604-1.955-1.393-.482-1.222-.821-2.495-1.012-3.794-.211-1.403-.35-2.816-.415-4.233-.07-1.463-.105-2.948-.105-4.456s-.047-2.982-.14-4.42c2.095-.532 4.216-.953 6.354-1.262 2.234-.325 4.211-.58 5.933-.766.512-.092.698-.36.559-.801-.054-.203-.17-.383-.334-.515-.163-.132-.364-.207-.574-.217-2.094.186-4.106.36-6.038.522-1.93.162-3.897.311-5.9.447.046-.649.07-1.438.07-2.366.001-.929-.01-1.846-.035-2.75-.024-.906-.059-1.765-.104-2.577-.017-.624-.11-1.243-.28-1.845-.052-.12-.128-.229-.225-.318-.096-.09-.21-.16-.333-.203-.287-.117-.598-.165-.907-.14-.301.018-.597.089-.873.21-.11.036-.206.105-.275.199s-.107.206-.109.322c0 .975.012 1.764.035 2.367s.058 1.217.105 1.845c.045.627.092 1.358.14 2.193.047.836.094 1.996.139 3.482-1.28.19-2.573.296-3.867.32-1.33.024-2.342.128-3.037.313-.465.093-.78.21-.942.348-.14.102-.238.25-.28.417-.023.173-.023.348 0 .522.023.222.012.446-.034.664.244.223.5.432.768.627.14.093.416.116.83.07.415-.047 1.102-.14 2.06-.28.953-.139 2.453-.301 4.502-.486.14 1.67.256 3.55.349 5.639.093 2.088.268 4.096.524 6.022.206 1.718.593 3.41 1.151 5.048.512 1.44 1.303 2.299 2.373 2.576 1.416.424 2.935.338 4.293-.245.545-.234 1.05-.551 1.496-.94.372-.324.722-.673 1.047-1.044.168-.176.32-.368.454-.572l.021.015c.7.439 1.45.79 2.234 1.044.98.187 1.986.187 2.967 0 .843-.178 1.648-.51 2.373-.976.738-.477 1.427-1.024 2.059-1.635.651-.627 1.326-1.265 2.024-1.914.604-.696 1.116-1.253 1.536-1.67l.203-.205c-.04 1.961-.12 3.979-.238 6.053.372.511.64.74.803.696.427-.065.86-.088 1.29-.07.046-.185.186-.696.42-1.532.233-.837.548-1.834.942-2.992.395-1.16.825-2.401 1.291-3.724.467-1.323.955-2.542 1.466-3.656.43-.965.929-1.896 1.496-2.786.489-.742.942-1.136 1.361-1.183.28 0 .535.43.768 1.288.233.859.505 1.904.818 3.136.302 1.23.64 2.504 1.012 3.823.318 1.197.8 2.345 1.43 3.412.582.951 1.292 1.566 2.13 1.844.837.278 1.838-.023 3.001-.906.091-.136-.013-.215-.316-.24zm-30.192-7.727c.41-1.298.96-2.547 1.64-3.725.652-1.113 1.372-1.972 2.16-2.576.79-.604 1.58-.72 2.374-.347.093 0 .186.07.28.21.184.277.207.765.069 1.462-.05 1.031-.35 2.035-.873 2.925-.527.917-1.16 1.77-1.884 2.54-.7.748-1.472 1.424-2.304 2.02-.68.495-1.39.947-2.127 1.355.018-1.315.243-2.62.665-3.864zm43.875-15.458c.245-.02.492-.01.733.035.512-.092.838-.29.977-.592.14-.302.466-.662.978-1.078.279-.325.372-.812.279-1.463-.093-.65-.37-.927-.831-.83-.792.325-1.386.743-1.78 1.252-.369.463-.663.98-.873 1.533.13.786.302 1.168.517 1.143z"/><path d="m86.66 36.022c-.233-2.925-.393-5.721-.482-8.39-.089-2.667-.255-5.117-.499-7.349-.295-.094-.612-.094-.907 0-.208.077-.398.196-.559.348-.145.147-.274.31-.383.487-.11.179-.267.323-.454.417.093 1.113.198 2.622.314 4.525.11 1.824.222 3.7.332 5.63l-.242.114c-.535.256-1.059.533-1.57.831-.513.298-1.094.623-1.746.974-.652.348-1.444.777-2.373 1.288-.905-.597-1.863-1.11-2.862-1.532-1.163-.51-2.327-1.078-3.49-1.706-1.126-.597-2.19-1.304-3.178-2.112-.91-.724-1.602-1.69-1.994-2.785-.373-1.067-.187-1.972.559-2.716.745-.743 1.734-1.266 2.966-1.567 1.315-.307 2.672-.39 4.014-.244 1.44.14 2.673.534 3.7 1.183.371.233.755.465 1.15.696.396.232.618.255.666.07-.234-.371-.478-.765-.733-1.183-.288-.455-.641-.865-1.047-1.218-.54-.454-1.148-.818-1.802-1.079-.932-.369-1.904-.626-2.897-.766-1.201-.189-2.43-.105-3.594.244-1.1.324-2.123.867-3.007 1.597-.83.68-1.497 1.536-1.954 2.506-.438.921-.572 1.957-.384 2.959.094.93.652 1.858 1.675 2.785 1.075.968 2.23 1.842 3.455 2.611 1.28.812 2.525 1.555 3.735 2.229 1.21.673 2.024 1.242 2.443 1.705-.605.51-1.303 1.09-2.094 1.74-.76.619-1.461 1.306-2.094 2.054-.568.654-1.007 1.41-1.292 2.229-.256.765-.128 1.52.384 2.263.487.57 1.15.962 1.885 1.114.711.187 1.462.163 2.16-.07.978-.326 2.048-.906 3.211-1.74s2.21-1.995 3.141-3.482c.314-.535.425-1.165.314-1.775-.114-.572-.314-1.123-.593-1.635-.36-.598-.809-1.138-1.33-1.602 1.023-.65 1.977-1.253 2.862-1.81.886-.557 1.49-.952 1.815-1.183l.188-.135c.104 1.791.209 3.46.314 5.007.11 1.718.216 2.947.314 3.69.376.234.773.432 1.187.592.419.161 1 .173 1.745.034-.094-.742-.234-1.53-.419-2.366s-.368-1.995-.55-3.477zm-8.144 3.899c-.203.524-.498 1.008-.872 1.428-.455.544-.97 1.035-1.536 1.462-.561.43-1.185.77-1.85 1.01-.652.232-1.234.232-1.745 0-.325-.278-.372-.695-.14-1.253.277-.628.642-1.214 1.083-1.74.521-.637 1.093-1.23 1.71-1.775.651-.58 1.233-1.055 1.745-1.427.45.306.861.669 1.221 1.078.394.44.521.846.383 1.217zm21.583-12.707c-.094-1.045-.42-1.82-.977-2.327-.629-.606-1.347-1.11-2.13-1.496-.911-.462-1.856-.857-2.825-1.183-1.027-.348-2.076-.625-3.14-.831-.968-.195-1.947-.323-2.932-.382-.19.332-.452.616-.768.83-.162.169-.351.31-.558.418.178.132.342.284.488.452.14.163.28.337.419.522.15.201.29.41.419.626-.266 1.566-.43 3.148-.489 4.735-.09 2.181-.067 4.366.07 6.545.068.671.197 1.335.384 1.984.212.771.529 1.51.942 2.194.426.704.997 1.309 1.675 1.775.698.487 1.56.731 2.583.731.604 0 1.255-.348 1.954-1.044.768-.79 1.426-1.68 1.955-2.645.642-1.152 1.191-2.354 1.64-3.594.47-1.255.832-2.547 1.082-3.864.225-1.134.295-2.293.208-3.446zm-2.199 3.62c-.199 1.205-.564 2.377-1.085 3.481-.626 1.33-1.475 2.541-2.51 3.585-.418.418-.814.673-1.186.766-.356.094-.733.082-1.082-.035-.322-.1-.619-.266-.873-.487-.204-.178-.392-.377-.558-.591-.186-.325-.36-.94-.524-1.845-.177-1.059-.27-2.13-.279-3.203-.016-1.363.066-2.726.245-4.078.191-1.512.518-3.003.977-4.456.977.278 1.768.5 2.373.665s1.103.316 1.496.452c.341.114.669.266.977.452.255.163.569.36.942.592.465.372.802.975 1.012 1.81.215.95.24 1.933.075 2.893z"/></g></svg>