<svg xmlns="http://www.w3.org/2000/svg" width="108" height="24" fill="none" viewBox="0 0 108 24"><path fill="red" d="M33.567 3.748c-.395-1.476-1.555-2.636-3.03-3.031C27.863 0 17.141 0 17.141 0S6.421 0 3.748.717c-1.476.395-2.636 1.555-3.031 3.03C0 6.42 0 12 0 12s0 5.58.717 8.252c.395 1.476 1.555 2.636 3.03 3.031C6.422 24 17.143 24 17.143 24s10.722 0 13.394-.717c1.476-.395 2.636-1.555 3.031-3.03.717-2.674.717-8.253.717-8.253s-.003-5.58-.717-8.252z"/><path fill="#fff" d="M13.71 17.142l8.908-5.141-8.907-5.143v10.284z"/><path fill="#000" d="M41.523 15.604l-3.85-13.902h3.36l1.348 6.302c.345 1.552.596 2.876.76 3.971h.098c.113-.785.367-2.1.76-3.948l1.396-6.325h3.359l-3.898 13.902v6.67H41.52v-6.67h.003zM49.763 21.833c-.677-.458-1.16-1.169-1.447-2.134-.285-.965-.43-2.246-.43-3.85v-2.181c0-1.617.164-2.918.492-3.897.327-.98.838-1.697 1.532-2.145.695-.45 1.606-.675 2.735-.675 1.112 0 2 .229 2.672.686.67.457 1.16 1.174 1.47 2.145.311.973.467 2.269.467 3.886v2.182c0 1.603-.153 2.89-.455 3.86-.302.974-.793 1.685-1.47 2.134-.678.449-1.598.674-2.758.674-1.196.003-2.13-.228-2.808-.685zm3.8-2.354c.185-.491.281-1.29.281-2.402v-4.682c0-1.078-.093-1.868-.282-2.365-.189-.5-.52-.748-.993-.748-.457 0-.782.249-.968.748-.19.5-.282 1.287-.282 2.365v4.682c0 1.112.09 1.914.27 2.402.181.491.505.736.98.736.474 0 .804-.245.993-.736zM68.18 22.276h-2.648l-.294-1.84h-.073c-.72 1.389-1.798 2.083-3.237 2.083-.996 0-1.733-.328-2.207-.98-.474-.654-.711-1.676-.711-3.064V7.245h3.384v11.032c0 .672.073 1.149.22 1.434.147.285.392.429.736.429.294 0 .576-.09.847-.271.271-.181.468-.41.601-.686V7.243h3.381v15.033z"/><path fill="#000" d="M77.371 4.425h-3.358v17.85h-3.31V4.426h-3.36v-2.72h10.028v2.72z"/><path fill="#000" d="M85.533 22.276h-2.648l-.293-1.84h-.073c-.72 1.389-1.798 2.083-3.238 2.083-.996 0-1.732-.328-2.207-.98-.474-.654-.71-1.676-.71-3.064V7.245h3.383v11.032c0 .672.073 1.149.22 1.434.147.285.392.429.737.429.293 0 .576-.09.847-.271.27-.181.468-.41.6-.686V7.243h3.382v15.033zM96.73 9.647c-.206-.949-.536-1.635-.993-2.06-.457-.427-1.087-.638-1.888-.638-.621 0-1.202.174-1.742.527-.538.353-.956.813-1.25 1.386h-.025V.942h-3.26v21.331h2.794l.344-1.422h.074c.262.508.655.906 1.177 1.202.522.293 1.103.44 1.741.44 1.143 0 1.987-.527 2.526-1.58.539-1.056.81-2.701.81-4.942v-2.379c0-1.68-.105-2.997-.308-3.945zm-3.101 6.132c0 1.095-.046 1.953-.136 2.574-.09.62-.24 1.064-.454 1.324-.212.262-.5.392-.858.392-.28 0-.536-.065-.773-.198-.237-.13-.43-.327-.576-.587v-8.531c.113-.41.31-.742.59-1.005.276-.262.581-.392.906-.392.344 0 .61.135.796.403.189.271.318.723.392 1.36.073.639.11 1.545.11 2.721v1.94h.003zM101.839 16.646c0 .965.028 1.687.085 2.17.056.483.174.832.355 1.056.181.22.457.33.833.33.505 0 .855-.198 1.041-.59.189-.392.291-1.047.308-1.962l2.918.173c.017.13.025.31.025.538 0 1.389-.381 2.428-1.14 3.113-.759.686-1.834 1.03-3.223 1.03-1.668 0-2.836-.522-3.505-1.569-.672-1.047-1.005-2.664-1.005-4.854v-2.624c0-2.255.347-3.904 1.042-4.942.694-1.039 1.882-1.558 3.567-1.558 1.16 0 2.052.212 2.672.638.621.426 1.059 1.086 1.313 1.987.254.9.381 2.142.381 3.728v2.574h-5.667v.762zm.429-7.084c-.172.212-.285.559-.344 1.041-.057.483-.085 1.214-.085 2.196v1.078h2.475V12.8c0-.965-.034-1.696-.099-2.196-.065-.5-.183-.85-.356-1.055-.172-.203-.437-.308-.795-.308-.362.003-.627.11-.796.322z"/></svg>