<svg height="41" width="55" xmlns="http://www.w3.org/2000/svg"><g fill="none" fill-rule="evenodd"><path d="m6.43 29.663-5.6-6.226 17.216-6.266 2.656 7.297z" fill="#f89920"/><path d="m6.39 29.55-.29 8.37 17.217-6.267-2.656-7.297z" fill="#ffbe22"/><path d="M54.232 12.277c2.434 7.055-5.5 16.356-17.813 20.837-12.312 4.481-24.368 2.456-27.039-4.512z" fill="#f0670a"/><path d="M54.232 12.277C51.58 5.29 39.511 3.256 27.185 7.742 14.859 12.23 6.92 21.545 9.38 28.602z" fill="#ffd00e"/><path d="M54.23 12.278c1.517 4.72-7.089 12.102-19.363 16.57-12.275 4.468-23.612 4.344-25.485-.247z" fill="#f89920"/><path d="M54.231 12.277c-1.844-4.612-13.199-4.744-25.493-.269C16.443 16.483 7.828 23.882 9.38 28.601l44.85-16.324z" fill="#ffbe22"/><g fill="#f0670a" fill-rule="nonzero"><path d="M30.22 6.184C29.183 2.364 28 .246 26.656.286c-2.599.08-3.473 8.84-2.631 20.066.85 11.345 3.054 19.867 5.804 19.79 1.639-.045 2.562-2.834 2.886-7.674.007-.1-.097-.03-.09-.131 0 0-.014-.177-.076-.181l-.348-.024c-.286 4.7-1.151 7.408-2.386 7.442-2.26.063-4.44-8.367-5.258-19.267-.803-10.72.062-19.39 2.115-19.453.971-.03 2.06 1.922 3.023 5.44 0 0 .527-.108.527-.11z"/><path d="M18.09 4.37c-2.603 1.512 1.351 9.911 8.415 19.586 7.138 9.778 14.095 16.254 16.852 14.66 1.54-.89 1.108-3.594-.876-7.676a.322.322 0 0 0-.416-.146.29.29 0 0 0-.155.393c1.844 3.795 2.24 6.275 1.118 6.924-2.265 1.31-9.147-5.097-16.006-14.491-6.745-9.24-10.658-17.55-8.602-18.745 1.091-.635 3.687.896 7.118 4.202.038.037.258.251.306.265.107.03.053-.182.138-.26a.285.285 0 0 0 .005-.42C22.322 5.13 19.572 3.51 18.09 4.37z"/></g></g></svg>