<svg xmlns="http://www.w3.org/2000/svg" width="74" height="76" fill="none" viewBox="0 0 74 76"><path fill="#fff" stroke="#1358DB" stroke-width="4" d="M36.63 74c19.125 0 34.629-16.118 34.629-36S55.755 2 36.629 2C17.505 2 2 18.118 2 38s15.504 36 34.63 36z"/><path stroke="#1358DB" stroke-linecap="round" stroke-linejoin="round" stroke-width="2.5" d="M43.764 43.433c1.823-1.822.345-6.254-3.3-9.899-3.644-3.645-8.076-5.122-9.899-3.3-1.822 1.823-.345 6.255 3.3 9.9 3.645 3.644 8.077 5.122 9.9 3.3z"/><path stroke="#1358DB" stroke-linecap="round" stroke-linejoin="round" stroke-width="2.5" d="M29.823 31.911L18.246 52.214a2.67 2.67 0 003.54 3.54l20.303-11.568m2.618-15.831a.677.677 0 01.195.473.659.659 0 01-.195.471m-.945-.944a.665.665 0 01.942 0m-.944.937a.668.668 0 01.001-.944m.943.944a.665.665 0 01-.942 0m8.488-8.485a.673.673 0 01.195.471.674.674 0 01-.195.471m-.941-.943a.66.66 0 01.471-.195c.087 0 .174.017.255.05.08.034.154.083.216.145m-.946.944a.67.67 0 010-.943m.945.942a.663.663 0 01-.941 0m.941 17.913a.673.673 0 01.195.472.659.659 0 01-.195.472m-.941-.945a.665.665 0 01.942 0m-.946.945a.677.677 0 01-.195-.472c0-.088.017-.175.05-.256a.684.684 0 01.145-.216m.945.943a.663.663 0 01-.941.001M31.512 22.691a.674.674 0 010 .944m-.946-.944a.668.668 0 01.942 0m-.941.944a.673.673 0 01-.195-.472.659.659 0 01.195-.472m.942.944a.667.667 0 01-.943 0M39.522 16c.375 3.36.054 6.76-.944 9.99m7.544-7.54l-.942 4.713m12.819 11.313a24.6 24.6 0 00-9.991.944m7.541-7.543l-4.713.943"/></svg>