<svg data-name="Layer 1" xmlns="http://www.w3.org/2000/svg" viewBox="0 0 194 107.7"><path fill="none" stroke="#959fb1" stroke-linecap="round" stroke-linejoin="round" stroke-width="1.5" d="M150.89 62.26h12.48V51.39l-6.24-7.52-6.24 7.52v10.87z"/><path fill="none" stroke="#959fb1" stroke-linecap="round" stroke-linejoin="round" stroke-width="1.5" d="M154.7 57.61h4.86v-4.24l-2.43-2.92-2.43 2.92v4.24zm-3.81 4.65v42.14m12.48-42.14v42.14m-12.48-53.01l-2.28-5.75-2.28 5.75v53.01m17.04-53.01l2.28-5.75 2.29 5.75v53.01m-21.61-25.5h21.6m0 16.91h-45.67"/><path d="M127 84s15.59-5.5 19.35-21.74h21.6m-10.82-18.39v-6.54" fill="none" stroke="#959fb1" stroke-linecap="round" stroke-linejoin="round" stroke-width="1.5"/><circle cx="41.9" cy="73.63" r="18.99" fill="none" stroke="#959fb1" stroke-linecap="round" stroke-linejoin="round" stroke-width="1.5"/><circle cx="41.9" cy="73.63" r="23.37" fill="none" stroke="#959fb1" stroke-linecap="round" stroke-linejoin="round" stroke-width="1.5"/><path fill="none" stroke="#959fb1" stroke-linecap="round" stroke-linejoin="round" stroke-width="1.5" d="M41.9 73.63L30.84 104.4M41.9 73.63l11.56 30.77M41.9 73.63V54.64M22.91 73.63h37.98M28.47 87.06L55.33 60.2m-26.86 0l26.86 26.86"/><circle cx="41.9" cy="48.09" r="2.11" fill="none" stroke="#959fb1" stroke-linecap="round" stroke-linejoin="round" stroke-width="1.5"/><circle cx="23.79" cy="91.91" r="2.11" fill="none" stroke="#959fb1" stroke-linecap="round" stroke-linejoin="round" stroke-width="1.5"/><circle cx="59.83" cy="91.91" r="2.11" fill="none" stroke="#959fb1" stroke-linecap="round" stroke-linejoin="round" stroke-width="1.5"/><circle cx="59.6" cy="55.36" r="2.11" fill="none" stroke="#959fb1" stroke-linecap="round" stroke-linejoin="round" stroke-width="1.5"/><circle cx="16.43" cy="73.63" r="2.11" fill="none" stroke="#959fb1" stroke-linecap="round" stroke-linejoin="round" stroke-width="1.5"/><circle cx="67.51" cy="73.63" r="2.11" fill="none" stroke="#959fb1" stroke-linecap="round" stroke-linejoin="round" stroke-width="1.5"/><circle cx="23.79" cy="55.36" r="2.11" fill="none" stroke="#959fb1" stroke-linecap="round" stroke-linejoin="round" stroke-width="1.5"/><circle cx="41.9" cy="73.63" r="3.62" fill="#fff" stroke="#959fb1" stroke-linecap="round" stroke-linejoin="round" stroke-width="1.5"/><path fill="none" stroke="#959fb1" stroke-linecap="round" stroke-linejoin="round" stroke-width="1.5" d="M107.02 17.17h12.35l-6.17-8.76-6.18 8.76zm6.18-8.76v-6.6m-6.18 15.36h12.35v5.01h-12.35zm0 5.01l-2.88 7.51h18.12l-2.89-7.51h-12.35zm15.24 36.94v45.28m-21.97-69.84v24.53h25.81V34.56m-25.81 3.19h25.81m-12.9 0v-3.19m4.81 3.19v-3.19m-9.62 3.19v-3.19m4.81 65.85V64.18m4.81 36.23V64.18m-9.62 36.23V64.18"/><circle cx="113.2" cy="48.07" r="6.23" fill="none" stroke="#959fb1" stroke-linecap="round" stroke-linejoin="round" stroke-width="1.5"/><path fill="none" stroke="#959fb1" stroke-linecap="round" stroke-linejoin="round" stroke-width="1.5" d="M113.2 44.49v3.58l1.75 1.79m-10.81 9.2v45.34m0-74.71v7.06m18.12-7.06v7.06m-18.19 36.91H86.96v30.74M73.4 80.5h-5.72"/><path fill="none" stroke="#959fb1" stroke-linecap="round" stroke-linejoin="round" stroke-width="1.5" d="M93.15 73.66v-9.63H73.4V80.5m-5.2 6.84h18.76M71.74 80.5h15.22m80.98-6.84h19.1v30.74M92.73 80.1v3.26m5.58-3.26v3.26m-5.58 5.73v3.27m5.58-3.27v3.27m88.73-11.21h-8.26m8.26 7.33h-8.26m0 7.33h8.26M5 104.4V81.78h14.37m-9.53.19v22.43m69.51-17.06v17.06M67.96 87.34v17.06"/></svg>