<svg xmlns="http://www.w3.org/2000/svg" width="194" height="104"><g fill="none" fill-rule="evenodd" stroke="#959FB2" stroke-linecap="round" stroke-linejoin="round" stroke-width="1.5"><path d="M164.796 102.599s-12.402-35.343-62.012-35.343m0 0c-49.61 0-62.012 35.343-62.012 35.343"/><path d="M157.18 99.009c-6.31-9.379-22.81-26.315-54.396-26.315-31.587 0-48.08 16.936-54.39 26.315m108.651-63.29l-2.947 50.896M159.69 1.01v10.513h-4.195v3.806h-3.255a2.392 2.392 0 00-2.4 2.384v4.056a3.95 3.95 0 001.26 2.89l.456.425a4.184 4.184 0 002.85 1.119h5.283m2.645 9.516l2.276 44.768M159.871 1.01v10.513h4.195v3.806h3.256a2.391 2.391 0 012.398 2.384v4.056c0 1.096-.455 2.14-1.259 2.89l-.457.425a4.18 4.18 0 01-2.849 1.119h-5.284m-6.383 4.804h13.133M149.84 21.77h19.881m-7.387 64.88h12.494m-12.571 6.344h12.571m1.642-12.507V52.031h16.414v48.756m-11.308-20.3V46.866m5.836 5.165v37.382M75.79 70.722V55.313h-14.5v23.174"/><path d="M66.535 55.313V44.147H49.799v16.959h-7.385v37.906m5.184-26.421h12.897M48.394 66.9H61.29m-12.896-5.794H61.29M49.8 55.313h16.735M49.8 49.52h16.735M48.394 78.487H61.29m-20.518 4.9H24.356V72.693H11.954V102.6"/><path d="M24.356 83.387v13.865h8.572M11.954 91H1.011v11.599m10.943-24.112h8.025m-8.025 4.9h8.025m-8.025 4.902h8.025m-8.025 4.901h8.025m-8.025 4.9h8.025m23.457.915l118.897.091v-18.61h19.243v20.3M28.643 88.009v1.54m4.286-1.54v1.54m4.285-1.54v1.54"/></g></svg>