<svg xmlns="http://www.w3.org/2000/svg" width="164" height="91" fill="none"><g stroke="#959FB1" stroke-linecap="round" stroke-linejoin="round" stroke-width="1.5" clip-path="url(#clip0)"><path d="M34.814 87.029V30.823M41.3 87.029V39.712m6.487 47.317V45.627M28.328 87.029V32.243l6.89-19.569v-8.45h19.055V87.03"/><path d="M35.738 13.08h4.201v6.911h4.52v8.053h4.445v6.76h5.37m13.888 20.497V34.448m-2.319 21.757h4.638m-11.578 9.067h9.242m-9.242 6.345h9.242m-9.242 6.346h9.242m-9.242 9.159V58.926h19.45v28.196m0-32.277V27.722h24.081v59.4M82.336 32.539v2.036m11.956-2.036v2.036m-11.956 5.213v2.037m11.956-2.037v2.037m-7.965-9.286v2.036m11.956-2.036v2.036m-11.956 5.213v2.037m11.956-2.037v2.037M83.554 25.28v1.817m14.183-1.817v1.817M90.1 67.89V28.002m-8.562-6.034l6-.946 5.88 1.014 5.672-.777m-17.552 3.658l6-.946 5.88 1.014 5.672-.777m3.344 46.505V62.88h4.385V45.745h4.033v-12.2h8.26v53.577m-4.176-47.232h3.705m-3.705 16.315h3.705m-3.705-10.874h3.705m-3.705 16.349h3.705m-3.705-10.907h3.705m1.563-3.186h28.786v4.588m-29.836-9.531h16.493v4.943m6.848 39.56s0-12.539 6.444-20.853m-.017-.693a5.432 5.432 0 011.939 2.678 5.47 5.47 0 01.036 3.313m-1.975-5.991s5.336-.54 7.268 5.788m-6.974-6.134s4.63-2.797 8.117.845"/><path d="M149.007 65.804a5.375 5.375 0 00-3.29-.08 5.396 5.396 0 00-2.726 1.854m6.016-1.774s-2.588-4.757-8.856-2.755m9.066 2.299s-.311-5.07-4.974-5.864m5.2 5.898a6.979 6.979 0 00.294-6.962m2 29.166s1.067-5.914 6.1-8.305"/><path d="M157.66 79.374a3.377 3.377 0 00-1.982-.61 3.396 3.396 0 00-1.967.66m3.95-.05s-.765-3.321-4.907-3.186m4.864 2.982s.992-2.855-1.394-4.36"/><path d="M157.543 79.188a3.442 3.442 0 01-.361 3.955m.361-3.955s3.235 1.03 2.773 5.17m-2.58-5.078s2.916-.768 4.201 1.741m-28.281 6.067s1.521-6.219.563-10.984m-.126.27a3.224 3.224 0 00-3.361 1.69m3.361-1.69s-2-2.535-5.504-.743m5.504.532s-.841-3.65-4.319-3.633"/><path d="M134.252 76.366a3.214 3.214 0 011.969.033 3.238 3.238 0 011.586 1.175m-3.555-1.208s1.681-2.78 5.369-1.428m-5.377 1.216s.378-3.726 3.832-4.148M18.842 86.936s0-13.257-6.814-22.045m.025-.726a5.728 5.728 0 00-2.04 2.831 5.766 5.766 0 00-.027 3.497m2.067-6.328s-5.672-.575-7.688 6.109m7.394-6.473s-4.89-2.965-8.57.904"/><path d="M11.96 64.376a5.656 5.656 0 013.476-.087 5.682 5.682 0 012.876 1.963m-6.352-1.876s2.731-5.07 9.36-2.907m-9.536 2.425s.328-5.382 5.26-6.201m-5.546 6.244a7.406 7.406 0 01-.31-7.326m1.075 31.009s-1.11-6.142-6.327-8.61"/><path d="M6.087 79.112a3.505 3.505 0 014.093.042m-4.093-.042s.79-3.448 5.042-3.304M6.154 78.9s-1.025-2.965 1.454-4.545"/><path d="M6.205 78.917a3.564 3.564 0 00.37 4.099m-.37-4.099s-3.36 1.065-2.873 5.357m2.671-5.264s-3.024-.794-4.369 1.808"/></g><defs><clipPath id="clip0"><path fill="#fff" d="M0 0h163v91H0z" transform="translate(.5)"/></clipPath></defs></svg>