<svg xmlns="http://www.w3.org/2000/svg" width="194" height="103"><g fill="none" fill-rule="evenodd" stroke="#959FB2" stroke-linecap="round" stroke-linejoin="round" stroke-width="1.5"><path d="M24.73 16.396V13.24h16.885v3.156m-8.442-3.156c-.135 0 0-12.24 0-12.24M15.827 21.002h17.286m-14.76 4.85h14.82m-8.643 4.782h8.583m17.407-9.632H33.233m14.761 4.85h-14.82m8.643 4.782H29.444v8.942l-8.144-.078v45.118"/><path d="M36.902 30.634v8.942h8.144v45.398M21.3 45.679h23.746M21.3 39.576h23.746M21.3 53.885h23.746M21.3 62.091h23.746M21.3 70.298h23.746m142.419 14.736a14.963 14.963 0 003.524-9.669c0-8.3-6.73-15.027-15.034-15.027s-15.036 6.728-15.036 15.027c0 3.524 1.214 6.765 3.247 9.326m19.777.101c-.972-10.548-6.643-21.454-17.004-21.454m.001 0c0 5.936 5.186 16.52 11.12 21.44m12.884-8.247s-5.517-2.348-14.99-2.348m-14.802 2.348s5.517-2.348 14.99-2.348m-8.013 10.486c1.002-10.51 6.67-21.332 16.99-21.332m.001.001c0 6.015-5.323 16.798-11.354 21.63m-7.173 12.176c.077-.128 0-2.436 0-2.436l2.606-2.603"/><path d="M175.954 88.705h13.027l4 3.998v4.79h-34.053v-4.79l4-3.998h13.026"/><path d="M185.35 97.144c-.077-.128 0-2.436 0-2.436l-2.606-2.603m-6.79-.001v5.04M5.807 82.015c5.823 3.379 14.482 6.129 23.775 6.6 4.487.23 9.122-.072 13.657-1.091 8.894-1.995 17.406-6.742 23.672-15.634v25.657H9.344L5.807 82.015z"/><path d="M66.91 71.89s-1.798 9.194-9.568 16.731c-4.077 3.954-9.8 7.452-17.769 8.925M66.91 87.187c8.384-2.169 16.338-6.871 22.274-15.296v25.655H53.889m-24.307-8.931l-1.502-6.6c3.968 2.304 9.254 4.312 15.16 5.51"/><path d="M89.184 71.89s-1.799 9.194-9.569 16.731c-4.077 3.954-9.8 7.452-17.769 8.925m-10.82-12.572l-.673-2.959a39.937 39.937 0 003.275 1.693m35.556 3.479c8.383-2.169 16.336-6.871 22.273-15.296v25.655"/><path d="M111.457 71.89s-1.799 9.194-9.569 16.731c-4.077 3.954-9.8 7.452-17.769 8.925M73.3 84.974l-.674-2.959a39.577 39.577 0 003.277 1.694"/><path d="M111.457 87.187c8.383-2.169 16.336-6.871 22.273-15.296v25.655H89.183"/><path d="M133.73 71.89s-1.799 9.194-9.569 16.731c-3.156 3.062-7.298 5.848-12.705 7.635m-84.741 1.29H1v3.857m44.046-53.025h11.62v33.638m110.627-19.925v-29.81h-18.399v65.211m7.736-56.058h10.663m0 14.361H156.63m10.663-7.18H156.63m-99.964 9.863h-7.113m7.113 7.364h-7.113m7.113 7.365h-7.113m2.905-24.829v-6.944"/><path d="M148.894 79.151V48.378h-20.816v29.387m-20.442 19.781h9.52m15.98-43.171v2.84m5.35-2.84v2.84m5.349-2.84v2.84m-10.699 6.444v2.84m5.35-2.84v2.84m5.349-2.84v2.84"/></g></svg>