<svg xmlns="http://www.w3.org/2000/svg" width="20" height="14" fill="none"><path fill="#000" fill-rule="evenodd" d="M1 1.978l3.988 2.88H1v-2.88zm0-.484l4.658 3.364h2.684L2.306.5H2a1 1 0 00-1 .994zm0 7.698v2.88l3.988-2.88H1zM2.376 13.5H2a.999.999 0 01-.998-.944l4.656-3.364h2.684L2.376 13.5zm6.124 0H3.047L8.5 9.562V13.5zm8.453 0H11.5V9.562l5.453 3.938zM19 12.556c-.03.526-.465.944-.999.944h-.376l-5.966-4.308h2.684l4.656 3.364zm.001-.484v-2.88h-3.988L19 12.072zm0-7.214v-2.88l-3.988 2.88H19zM17.694.5H18a1 1 0 011 .994l-4.658 3.364h-2.684L17.694.5zM11.5.525v3.963L16.988.525H11.5zm-8.488 0H8.5v3.963L3.012.525z" clip-rule="evenodd"/><path fill="#fff" d="M4.988 4.858v.25h.773l-.627-.452-.146.202zM1 1.978l.146-.202-.396-.287v.49H1zm0 2.88H.75v.25H1v-.25zm4.658 0l-.146.203.065.047h.081v-.25zM1 1.494l-.25-.002v.129l.104.075L1 1.494zm7.342 3.364v.25h.773l-.627-.452-.146.202zM2.306.5l.147-.203L2.387.25h-.08V.5zM1 12.072H.75v.49l.396-.287L1 12.072zm0-2.88v-.25H.75v.25H1zm3.988 0l.146.203.627-.453h-.773v.25zM2.376 13.5v.25h.081l.066-.047-.147-.203zm-1.374-.944l-.147-.203-.11.08.007.136.25-.014zm4.656-3.364v-.25h-.08l-.066.048.146.202zm2.684 0l.146.203.627-.453h-.773v.25zM8.5 13.5v.25h.25v-.25H8.5zm-5.453 0l-.146-.203-.627.453h.773v-.25zM8.5 9.562h.25v-.489l-.396.287.146.202zm8.453 3.938v.25h.773l-.627-.453-.146.203zm-5.453 0h-.25v.25h.25v-.25zm0-3.938l.146-.202-.396-.287v.49h.25zm7.498 2.994l.25.013.008-.136-.111-.08-.146.203zm-1.374.944l-.146.203.065.047h.08v-.25zm-5.966-4.308v-.25h-.773l.627.453.146-.203zm2.684 0l.146-.202-.065-.048h-.081v.25zm4.658 0h.25v-.25H19v.25zm0 2.88l-.146.203.396.286v-.489H19zm-3.988-2.88v-.25h-.773l.627.453.146-.203zM19 1.978h.25V1.49l-.396.287.146.202zm0 2.88v.25h.25v-.25H19zm-3.988 0l-.146-.202-.627.452h.773v-.25zM17.694.5V.25h-.081l-.066.047.147.203zM19 1.494l.146.202.105-.075-.001-.129-.25.002zm-4.658 3.364v.25h.08l.066-.047-.146-.203zm-2.684 0l-.146-.202-.627.452h.773v-.25zm-.158-.37h-.25v.49l.396-.287-.146-.203zm0-3.963v-.25h-.25v.25h.25zm5.488 0l.146.203.627-.453h-.773v.25zM8.5.525h.25v-.25H8.5v.25zm-5.488 0v-.25h-.773l.627.453.146-.203zM8.5 4.488l-.146.203.396.286v-.489H8.5zm-3.366.168l-3.988-2.88-.292.405 3.988 2.88.292-.405zM1 5.108h3.988v-.5H1v.5zm.25-.25v-2.88h-.5v2.88h.5zm4.554-.202L1.146 1.29l-.292.405L5.512 5.06l.292-.405zm2.538-.048H5.658v.5h2.684v-.5zM2.16.703L8.196 5.06l.292-.405L2.453.296 2.16.703zM2 .75h.306v-.5H2v.5zm-.75.745A.75.75 0 012 .75v-.5A1.25 1.25 0 00.75 1.492l.5.003zm0 10.577v-2.88h-.5v2.88h.5zm-.104.203l3.988-2.88-.292-.405-3.988 2.88.292.405zm3.842-3.333H1v.5h3.988v-.5zM2.376 13.25H2v.5h.376v-.5zm-.376 0a.75.75 0 01-.749-.708l-.5.027A1.252 1.252 0 002 13.75v-.5zm-.852-.492l4.656-3.363-.292-.405-4.657 3.363.293.405zm4.51-3.316h2.684v-.5H5.658v.5zm2.538-.453L2.23 13.297l.293.406 5.965-4.308-.292-.405zM8.5 13.25H3.047v.5H8.5v-.5zm-5.307.453l5.453-3.938-.292-.405L2.9 13.296l.292.406zm5.057-4.14V13.5h.5V9.562h-.5zm8.703 3.687H11.5v.5h5.453v-.5zM11.25 9.562V13.5h.5V9.562h-.5zm5.85 3.735L11.645 9.36l-.292.406 5.453 3.938.293-.406zm1.649-.755a.75.75 0 01-.749.708v.5a1.25 1.25 0 001.248-1.18l-.5-.028zM18 13.25h-.376v.5H18v-.5zm-6.488-3.855l5.965 4.308.293-.406-5.966-4.308-.292.406zm2.83-.453h-2.684v.5h2.684v-.5zm4.803 3.41L14.488 8.99l-.292.405 4.656 3.363.293-.405zm-.395-3.16v2.88h.5v-2.88h-.5zm-3.738.25H19v-.5h-3.988v.5zm4.134 2.428l-3.988-2.88-.292.405 3.988 2.88.292-.405zm-.396-9.892v2.88h.5v-2.88h-.5zm.104-.202l-3.988 2.88.292.405 3.988-2.88-.292-.405zm-3.842 3.332H19v-.5h-3.988v.5zM17.694.75H18v-.5h-.306v.5zm.306 0a.75.75 0 01.75.745l.5-.003A1.25 1.25 0 0018 .25v.5zm-3.512 4.31l4.658-3.364-.292-.405-4.658 3.365.292.405zm-2.83.048h2.684v-.5h-2.684v.5zm5.89-4.81l-6.036 4.357.292.406L17.84.703l-.293-.406zm-5.798 4.19V.525h-.5v3.963h.5zM16.842.323l-5.488 3.962.292.406L17.134.728l-.292-.405zM11.5.775h5.488v-.5H11.5v.5zm-3-.5H3.012v.5H8.5v-.5zm.25 4.213V.525h-.5v3.963h.5zM2.866.728L8.354 4.69l.292-.405L3.158.322l-.292.405z"/><path fill="#000" stroke="#FAFAFA" stroke-width=".25" d="M10.9 8.175h-.125v5.2h-1.55v-5.2h-8.1v-2.35h8.1v-5.2h1.55v5.2h8.1v2.35H10.9z"/></svg>