<svg xmlns="http://www.w3.org/2000/svg" width="18" height="14" fill="none"><rect width="18" height="13" y=".5" fill="#000" rx="1"/><mask id="us-black-a" width="18" height="14" x="0" y="0" maskUnits="userSpaceOnUse"><path fill="#fff" fill-rule="evenodd" d="M17 .5H7.714v6.067H0V12.5a1 1 0 001 1h16a1 1 0 001-1v-11a1 1 0 00-1-1z" clip-rule="evenodd"/></mask><g mask="url(#us-black-a)"><path fill="#FAFAFA" fill-rule="evenodd" d="M0 .5h18v.867H0V.5zm0 1.733h18V3.1H0v-.867zm0 1.734h18v.866H0v-.866zM0 5.7h18v.867H0V5.7zm0 1.733h18V8.3H0v-.867zm0 1.734h18v.866H0v-.866zM0 10.9h18v.867H0V10.9zm0 1.733h18v.867H0v-.867z" clip-rule="evenodd"/></g><mask id="us-black-b" width="8" height="7" x="0" y="0" maskUnits="userSpaceOnUse"><path fill="#FFF" fill-rule="evenodd" d="M0 .5h7.714v6.067H0V.5z" clip-rule="evenodd"/></mask><g mask="url(#us-black-b)"><path fill="#FAFAFA" fill-rule="evenodd" d="M1.286 2.233a.424.424 0 01-.305-.128.44.44 0 01.001-.61.434.434 0 01.304-.128.424.424 0 01.304.128.42.42 0 01.124.305.425.425 0 01-.124.305.431.431 0 01-.304.128zm1.714 0a.424.424 0 01-.305-.128.44.44 0 01-.124-.305A.43.43 0 013 1.367a.431.431 0 01.397.598.44.44 0 01-.232.235.442.442 0 01-.165.033zm1.714 0a.431.431 0 01-.396-.598.42.42 0 01.232-.234.419.419 0 01.164-.034.431.431 0 01.397.598.434.434 0 01-.397.268zm1.715 0a.424.424 0 01-.305-.128.44.44 0 01.001-.61.434.434 0 01.304-.128.427.427 0 01.396.268.422.422 0 01.032.165.425.425 0 01-.124.305.431.431 0 01-.304.128zM2.143 3.1a.424.424 0 01-.305-.128.44.44 0 01-.124-.305c0-.24.192-.434.429-.434s.428.194.428.434a.422.422 0 01-.124.305.431.431 0 01-.304.128zm1.714 0a.431.431 0 01-.428-.433.43.43 0 01.428-.434.431.431 0 01.397.599.423.423 0 01-.233.234.415.415 0 01-.164.034zm1.714 0a.431.431 0 01-.428-.433c0-.24.192-.434.428-.434a.431.431 0 01.397.599.423.423 0 01-.233.234.415.415 0 01-.164.034zm.858.867a.424.424 0 01-.305-.128.436.436 0 01.305-.74.427.427 0 01.396.268.431.431 0 01-.396.599zm-1.715 0a.424.424 0 01-.304-.128.42.42 0 01-.124-.306.422.422 0 01.124-.305.416.416 0 01.14-.094.419.419 0 01.164-.034c.237 0 .429.194.429.433 0 .24-.192.434-.429.434zM3 3.967a.424.424 0 01-.305-.128.436.436 0 01-.124-.306c0-.24.192-.433.429-.433s.429.194.429.433c0 .24-.192.434-.429.434zm-1.714 0a.424.424 0 01-.305-.128.436.436 0 01-.124-.306.43.43 0 01.594-.399.42.42 0 01.263.399c0 .24-.192.434-.428.434zm.857.866a.424.424 0 01-.305-.128.44.44 0 01-.124-.305.43.43 0 01.429-.433.43.43 0 01.396.598.42.42 0 01-.232.234.415.415 0 01-.164.034zm1.714 0A.431.431 0 013.43 4.4a.43.43 0 01.428-.433.431.431 0 01.397.598.434.434 0 01-.397.268h-.001zm1.714 0a.431.431 0 01-.396-.598.42.42 0 01.232-.234.419.419 0 01.164-.034.431.431 0 01.397.598.434.434 0 01-.397.268zm.858.867a.424.424 0 01-.305-.128A.44.44 0 016 5.267c0-.24.192-.434.429-.434a.431.431 0 01.396.599.42.42 0 01-.232.234.415.415 0 01-.164.034zm-1.715 0a.431.431 0 01-.428-.433c0-.24.192-.434.428-.434a.431.431 0 01.397.599.423.423 0 01-.233.234.415.415 0 01-.164.034zM3 5.7a.424.424 0 01-.305-.128.44.44 0 01-.124-.305c0-.24.192-.434.429-.434a.431.431 0 01.397.599.423.423 0 01-.233.234A.415.415 0 013 5.7zm-1.714 0a.424.424 0 01-.305-.128.44.44 0 01-.124-.305c0-.24.192-.434.429-.434a.431.431 0 01.396.599.42.42 0 01-.232.234.415.415 0 01-.164.034z" clip-rule="evenodd"/></g></svg>