<svg xmlns="http://www.w3.org/2000/svg" width="1440" height="494" fill="none"><mask id="a" width="1440" height="494" x="0" y="0" maskUnits="userSpaceOnUse"><path fill="#fff" d="M0 0h1440v494H0z"/></mask><g mask="url(#a)"><g opacity=".55"><path stroke="#3C4556" stroke-linecap="square" d="M156.025 597.96 156.026 72M73.96 597.51V72"/><path stroke="#3C4556" stroke-linecap="square" d="M156.364 301.854H-24h180.364zm0-98.477H-24h180.364zm0-98.476H-24h180.364zM224 400.331H-24h248z" clip-rule="evenodd"/><path fill="#3C4556" fill-rule="evenodd" d="M153.518 400.31c0-1.245 1.024-2.254 2.286-2.254s2.285 1.009 2.285 2.254-1.023 2.254-2.285 2.254c-1.262 0-2.286-1.009-2.286-2.254zm-81.521 0c0-1.245 1.023-2.254 2.285-2.254 1.263 0 2.286 1.009 2.286 2.254s-1.023 2.254-2.285 2.254c-1.263 0-2.286-1.009-2.286-2.254zm0-98.442c0-1.245 1.023-2.255 2.285-2.255 1.263 0 2.286 1.01 2.286 2.255 0 1.245-1.023 2.254-2.285 2.254-1.263 0-2.286-1.009-2.286-2.254zm81.521 0c0-1.245 1.024-2.254 2.286-2.254s2.285 1.009 2.285 2.254-1.023 2.255-2.285 2.255c-1.262 0-2.286-1.01-2.286-2.255zm0-98.442c0-1.245 1.024-2.254 2.286-2.254s2.285 1.009 2.285 2.254-1.023 2.254-2.285 2.254c-1.262 0-2.286-1.009-2.286-2.254zm-81.521 0c0-1.245 1.023-2.254 2.285-2.254 1.263 0 2.286 1.009 2.286 2.254s-1.023 2.254-2.285 2.254c-1.263 0-2.286-1.009-2.286-2.254zm0-98.442c0-1.245 1.023-2.255 2.286-2.255 1.262 0 2.285 1.01 2.285 2.255 0 1.245-1.023 2.254-2.285 2.254-1.263 0-2.286-1.009-2.286-2.254zm81.521 0c0-1.245 1.024-2.255 2.286-2.255s2.285 1.01 2.285 2.255c0 1.245-1.023 2.254-2.285 2.254-1.262 0-2.286-1.009-2.286-2.254z" clip-rule="evenodd"/></g><g opacity=".55"><path stroke="#3C4556" stroke-linecap="square" d="M1235.19 1.769V422m161.93-517.856V422m-80.74-517.413V422"/><path stroke="#3C4556" stroke-linecap="square" d="M1464 1.769h-244 244zm-66.55 193.918H1220h177.45zm0 96.96H1220h177.45zm0 96.959H1220h177.45zM1464 98.728h-244 244z" clip-rule="evenodd"/><path fill="#3C4556" fill-rule="evenodd" d="M1314.45 1.823c0 1.226 1.01 2.22 2.25 2.22s2.25-.994 2.25-2.22c0-1.225-1.01-2.22-2.25-2.22s-2.25.995-2.25 2.22zm-81.71 0c0 1.226 1.01 2.22 2.25 2.22s2.25-.994 2.25-2.22c0-1.225-1.01-2.22-2.25-2.22s-2.25.995-2.25 2.22zm161.91 0c0 1.226 1.01 2.22 2.25 2.22 1.25 0 2.25-.994 2.25-2.22 0-1.225-1-2.22-2.25-2.22-1.24 0-2.25.995-2.25 2.22zm0 96.926c0 1.226 1.01 2.219 2.25 2.219 1.25 0 2.25-.993 2.25-2.22 0-1.225-1-2.219-2.25-2.219-1.24 0-2.25.994-2.25 2.22zm-80.2 0c0 1.226 1.01 2.219 2.25 2.219s2.25-.993 2.25-2.22c0-1.225-1.01-2.219-2.25-2.219s-2.25.994-2.25 2.22zm-81.71 0c0 1.226 1.01 2.219 2.25 2.219s2.25-.993 2.25-2.22c0-1.225-1.01-2.219-2.25-2.219s-2.25.994-2.25 2.22zm81.71 96.925c0 1.226 1.01 2.219 2.25 2.219s2.25-.993 2.25-2.219-1.01-2.22-2.25-2.22-2.25.994-2.25 2.22zm-81.71 0c0 1.226 1.01 2.219 2.25 2.219s2.25-.993 2.25-2.219-1.01-2.22-2.25-2.22-2.25.994-2.25 2.22zm161.91 0c0 1.226 1.01 2.219 2.25 2.219 1.25 0 2.25-.993 2.25-2.219s-1-2.22-2.25-2.22c-1.24 0-2.25.994-2.25 2.22zm0 96.925c0 1.226 1.01 2.22 2.25 2.22 1.25 0 2.25-.994 2.25-2.22 0-1.226-1-2.22-2.25-2.22-1.24 0-2.25.994-2.25 2.22zm-80.2 0c0 1.226 1.01 2.22 2.25 2.22s2.25-.994 2.25-2.22c0-1.226-1.01-2.22-2.25-2.22s-2.25.994-2.25 2.22zm-81.71 0c0 1.226 1.01 2.22 2.25 2.22s2.25-.994 2.25-2.22c0-1.226-1.01-2.22-2.25-2.22s-2.25.994-2.25 2.22zm81.71 96.925c0 1.226 1.01 2.22 2.25 2.22s2.25-.994 2.25-2.22c0-1.226-1.01-2.219-2.25-2.219s-2.25.993-2.25 2.219zm-81.71 0c0 1.226 1.01 2.22 2.25 2.22s2.25-.994 2.25-2.22c0-1.226-1.01-2.219-2.25-2.219s-2.25.993-2.25 2.219zm161.91 0c0 1.226 1.01 2.22 2.25 2.22 1.25 0 2.25-.994 2.25-2.22 0-1.226-1-2.219-2.25-2.219-1.24 0-2.25.993-2.25 2.219z" clip-rule="evenodd"/></g></g></svg>