<svg xmlns="http://www.w3.org/2000/svg" width="1440" height="541" fill="none"><g opacity=".25"><path stroke="#3C4556" stroke-linecap="square" d="M-137.703 182.774H12.162m147.154 0h642.185M10.807 59.17H801.5"/><path stroke="#3C4556" stroke-linecap="square" d="M11.485-165.578V76.9v-242.478zm0 348.52v22.965-22.965zm147.832-348.52v371.485-371.485zm296.34 101.314v270.171-270.17zm148.17 0v270.171-270.17zm148.169 0v270.171-270.17zm-444.51-101.314v371.485-371.485z" clip-rule="evenodd"/><path fill="#3C4556" fill-rule="evenodd" d="M11.28 62.11c1.874 0 3.393-1.533 3.393-3.424 0-1.89-1.519-3.423-3.392-3.423-1.874 0-3.392 1.532-3.392 3.423s1.518 3.424 3.392 3.424zm0 124.396c1.874 0 3.393-1.533 3.393-3.424s-1.519-3.424-3.392-3.424c-1.874 0-3.392 1.533-3.392 3.424s1.518 3.424 3.392 3.424zM159.4 62.11c1.873 0 3.392-1.533 3.392-3.424 0-1.89-1.519-3.423-3.392-3.423-1.874 0-3.392 1.532-3.392 3.423s1.518 3.424 3.392 3.424zm0 124.396c1.873 0 3.392-1.533 3.392-3.424s-1.519-3.424-3.392-3.424c-1.874 0-3.392 1.533-3.392 3.424s1.518 3.424 3.392 3.424zM307.517 62.11c1.873 0 3.392-1.533 3.392-3.424 0-1.89-1.519-3.423-3.392-3.423s-3.392 1.532-3.392 3.423 1.519 3.424 3.392 3.424zm0 124.396c1.873 0 3.392-1.533 3.392-3.424s-1.519-3.424-3.392-3.424-3.392 1.533-3.392 3.424 1.519 3.424 3.392 3.424zM455.636 62.11c1.873 0 3.392-1.533 3.392-3.424 0-1.89-1.519-3.423-3.392-3.423s-3.392 1.532-3.392 3.423 1.519 3.424 3.392 3.424zm0 124.396c1.873 0 3.392-1.533 3.392-3.424s-1.519-3.424-3.392-3.424-3.392 1.533-3.392 3.424 1.519 3.424 3.392 3.424zM603.753 62.11c1.874 0 3.392-1.533 3.392-3.424 0-1.89-1.518-3.423-3.392-3.423-1.873 0-3.392 1.532-3.392 3.423s1.519 3.424 3.392 3.424zm0 124.396c1.874 0 3.392-1.533 3.392-3.424s-1.518-3.424-3.392-3.424c-1.873 0-3.392 1.533-3.392 3.424s1.519 3.424 3.392 3.424zM751.873 62.11c1.873 0 3.392-1.533 3.392-3.424 0-1.89-1.519-3.423-3.392-3.423-1.874 0-3.393 1.532-3.393 3.423s1.519 3.424 3.393 3.424zm0 124.396c1.873 0 3.392-1.533 3.392-3.424s-1.519-3.424-3.392-3.424c-1.874 0-3.393 1.533-3.393 3.424s1.519 3.424 3.393 3.424z" clip-rule="evenodd"/><path stroke="#3C4556" stroke-linecap="square" d="M1443.68 182.774H801.499M1592.19 59.17H801.5"/><path stroke="#3C4556" stroke-linecap="square" d="M1147.34-64.264v270.171-270.17zm-148.167 0v270.171-270.17zm-148.169 0v270.171-270.17zm444.506-101.314v371.485-371.485z" clip-rule="evenodd"/><path fill="#3C4556" fill-rule="evenodd" d="M1295.48 62.11c-1.87 0-3.39-1.533-3.39-3.424 0-1.89 1.52-3.423 3.39-3.423 1.88 0 3.4 1.532 3.4 3.423s-1.52 3.424-3.4 3.424zm0 124.396c-1.87 0-3.39-1.533-3.39-3.424s1.52-3.424 3.39-3.424c1.88 0 3.4 1.533 3.4 3.424s-1.52 3.424-3.4 3.424zM1147.36 62.11c-1.87 0-3.39-1.533-3.39-3.424 0-1.89 1.52-3.423 3.39-3.423 1.88 0 3.4 1.532 3.4 3.423s-1.52 3.424-3.4 3.424zm0 124.396c-1.87 0-3.39-1.533-3.39-3.424s1.52-3.424 3.39-3.424c1.88 0 3.4 1.533 3.4 3.424s-1.52 3.424-3.4 3.424zM999.247 62.11c-1.874 0-3.392-1.533-3.392-3.424 0-1.89 1.518-3.423 3.392-3.423 1.873 0 3.393 1.532 3.393 3.423s-1.52 3.424-3.393 3.424zm0 124.396c-1.874 0-3.392-1.533-3.392-3.424s1.518-3.424 3.392-3.424c1.873 0 3.393 1.533 3.393 3.424s-1.52 3.424-3.393 3.424zM851.127 62.11c-1.873 0-3.392-1.533-3.392-3.424 0-1.89 1.519-3.423 3.392-3.423 1.874 0 3.393 1.532 3.393 3.423s-1.519 3.424-3.393 3.424zm0 124.396c-1.873 0-3.392-1.533-3.392-3.424s1.519-3.424 3.392-3.424c1.874 0 3.393 1.533 3.393 3.424s-1.519 3.424-3.393 3.424z" clip-rule="evenodd"/><path stroke="#3C4556" stroke-linecap="square" d="M1592.87 307.727H801.499m790.691 122.928H801.5"/><path stroke="#3C4556" stroke-linecap="square" d="M1147.34 307.221v270.17-270.17zm-148.167 0v270.17-270.17zm-148.169 0v270.17-270.17zm444.506-101.315v371.485-371.485z" clip-rule="evenodd"/><path fill="#3C4556" fill-rule="evenodd" d="M1295.48 311.482c-1.87 0-3.39-1.533-3.39-3.424 0-1.89 1.52-3.423 3.39-3.423 1.88 0 3.4 1.533 3.4 3.423 0 1.891-1.52 3.424-3.4 3.424zm0 122.112c-1.87 0-3.39-1.532-3.39-3.423s1.52-3.424 3.39-3.424c1.88 0 3.4 1.533 3.4 3.424s-1.52 3.423-3.4 3.423zm-148.12 0c-1.87 0-3.39-1.532-3.39-3.423s1.52-3.424 3.39-3.424c1.88 0 3.4 1.533 3.4 3.424s-1.52 3.423-3.4 3.423zm0-122.112c-1.87 0-3.39-1.533-3.39-3.424 0-1.89 1.52-3.423 3.39-3.423 1.88 0 3.4 1.533 3.4 3.423 0 1.891-1.52 3.424-3.4 3.424zm-148.113 0c-1.874 0-3.392-1.533-3.392-3.424 0-1.89 1.518-3.423 3.392-3.423 1.873 0 3.393 1.533 3.393 3.423 0 1.891-1.52 3.424-3.393 3.424zm0 122.112c-1.874 0-3.392-1.532-3.392-3.423s1.518-3.424 3.392-3.424c1.873 0 3.393 1.533 3.393 3.424s-1.52 3.423-3.393 3.423zm-148.12 0c-1.873 0-3.392-1.532-3.392-3.423s1.519-3.424 3.392-3.424c1.874 0 3.393 1.533 3.393 3.424s-1.519 3.423-3.393 3.423zm0-122.112c-1.873 0-3.392-1.533-3.392-3.424 0-1.89 1.519-3.423 3.392-3.423 1.874 0 3.393 1.533 3.393 3.423 0 1.891-1.519 3.424-3.393 3.424z" clip-rule="evenodd"/><path stroke="#3C4556" stroke-linecap="square" d="M10.129 307.727H801.5M10.807 430.655H801.5"/><path stroke="#3C4556" stroke-linecap="square" d="M11.485 205.906v242.479-242.479zm147.832 0v371.485-371.485zm296.34 101.315v270.17-270.17zm148.17 0v270.17-270.17zm148.169 0v270.17-270.17zm-444.51-101.315v371.485-371.485z" clip-rule="evenodd"/><path fill="#3C4556" fill-rule="evenodd" d="M11.28 433.594c1.874 0 3.393-1.532 3.393-3.423s-1.519-3.424-3.392-3.424c-1.874 0-3.392 1.533-3.392 3.424s1.518 3.423 3.392 3.423zm148.12 0c1.873 0 3.392-1.532 3.392-3.423s-1.519-3.424-3.392-3.424c-1.874 0-3.392 1.533-3.392 3.424s1.518 3.423 3.392 3.423zm0-122.112c1.873 0 3.392-1.533 3.392-3.424 0-1.89-1.519-3.423-3.392-3.423-1.874 0-3.392 1.533-3.392 3.423 0 1.891 1.518 3.424 3.392 3.424zm148.117 0c1.873 0 3.392-1.533 3.392-3.424 0-1.89-1.519-3.423-3.392-3.423s-3.392 1.533-3.392 3.423c0 1.891 1.519 3.424 3.392 3.424zm0 122.112c1.873 0 3.392-1.532 3.392-3.423s-1.519-3.424-3.392-3.424-3.392 1.533-3.392 3.424 1.519 3.423 3.392 3.423zm148.119 0c1.873 0 3.392-1.532 3.392-3.423s-1.519-3.424-3.392-3.424-3.392 1.533-3.392 3.424 1.519 3.423 3.392 3.423zm0-122.112c1.873 0 3.392-1.533 3.392-3.424 0-1.89-1.519-3.423-3.392-3.423s-3.392 1.533-3.392 3.423c0 1.891 1.519 3.424 3.392 3.424zm148.117 0c1.874 0 3.392-1.533 3.392-3.424 0-1.89-1.518-3.423-3.392-3.423-1.873 0-3.392 1.533-3.392 3.423 0 1.891 1.519 3.424 3.392 3.424zm0 122.112c1.874 0 3.392-1.532 3.392-3.423s-1.518-3.424-3.392-3.424c-1.873 0-3.392 1.533-3.392 3.424s1.519 3.423 3.392 3.423zm148.12 0c1.873 0 3.392-1.532 3.392-3.423s-1.519-3.424-3.392-3.424c-1.874 0-3.393 1.533-3.393 3.424s1.519 3.423 3.393 3.423zm0-122.112c1.873 0 3.392-1.533 3.392-3.424 0-1.89-1.519-3.423-3.392-3.423-1.874 0-3.393 1.533-3.393 3.423 0 1.891 1.519 3.424 3.393 3.424zm-740.593 0c1.874 0 3.393-1.533 3.393-3.424 0-1.89-1.519-3.423-3.392-3.423-1.874 0-3.392 1.533-3.392 3.423 0 1.891 1.518 3.424 3.392 3.424z" clip-rule="evenodd"/></g></svg>