<svg xmlns="http://www.w3.org/2000/svg" width="52" height="76" fill="none"><path fill="#FFCF00" d="M0 37.531c0 .81.895 1.465 2 1.465s2-.656 2-1.465-.895-1.465-2-1.465-2 .656-2 1.465zm24 0c0 .81.895 1.465 2 1.465s2-.656 2-1.465-.895-1.465-2-1.465-2 .656-2 1.465zm24 0c0 .81.895 1.465 2 1.465s2-.656 2-1.465-.895-1.465-2-1.465-2 .656-2 1.465zM0 55.842c0 .809.895 1.465 2 1.465s2-.656 2-1.465c0-.81-.895-1.465-2-1.465s-2 .656-2 1.465zm24 0c0 .809.895 1.465 2 1.465s2-.656 2-1.465c0-.81-.895-1.465-2-1.465s-2 .656-2 1.465zm24 0c0 .809.895 1.465 2 1.465s2-.656 2-1.465c0-.81-.895-1.465-2-1.465s-2 .656-2 1.465zM0 74.152c0 .81.895 1.465 2 1.465s2-.656 2-1.465-.895-1.465-2-1.465-2 .656-2 1.465zm24 0c0 .81.895 1.465 2 1.465s2-.656 2-1.465-.895-1.465-2-1.465-2 .656-2 1.465zm24 0c0 .81.895 1.465 2 1.465s2-.656 2-1.465-.895-1.465-2-1.465-2 .656-2 1.465zM24 1.643c0 .809.895 1.464 2 1.464s2-.655 2-1.464c0-.81-.895-1.465-2-1.465s-2 .656-2 1.465zM0 19.953c0 .81.895 1.465 2 1.465s2-.656 2-1.465-.895-1.465-2-1.465-2 .656-2 1.465zm24 0c0 .81.895 1.465 2 1.465s2-.656 2-1.465-.895-1.465-2-1.465-2 .656-2 1.465zm24 0c0 .81.895 1.465 2 1.465s2-.656 2-1.465-.895-1.465-2-1.465-2 .656-2 1.465z"/></svg>