<svg xmlns="http://www.w3.org/2000/svg" width="104" height="22" fill="none"><path fill="#FFCF00" fill-rule="evenodd" d="M4 2.328c0 .81-.895 1.465-2 1.465s-2-.656-2-1.465S.895.863 2 .863s2 .656 2 1.465zm25 0c0 .81-.895 1.465-2 1.465s-2-.656-2-1.465.895-1.465 2-1.465 2 .656 2 1.465zm25 17.578c0 .81-.895 1.465-2 1.465s-2-.656-2-1.465.895-1.465 2-1.465 2 .656 2 1.465zm0-17.578c0 .81-.895 1.465-2 1.465s-2-.656-2-1.465.895-1.465 2-1.465 2 .656 2 1.465zm25 17.578c0 .81-.895 1.465-2 1.465s-2-.656-2-1.465.895-1.465 2-1.465 2 .656 2 1.465zm0-17.578c0 .81-.895 1.465-2 1.465s-2-.656-2-1.465.895-1.465 2-1.465 2 .656 2 1.465zm25 17.578c0 .81-.895 1.465-2 1.465s-2-.656-2-1.465.895-1.465 2-1.465 2 .656 2 1.465zm0-17.578c0 .81-.895 1.465-2 1.465s-2-.656-2-1.465.895-1.465 2-1.465 2 .656 2 1.465z" clip-rule="evenodd"/></svg>