<svg width="185" height="569" fill="none" xmlns="http://www.w3.org/2000/svg"><g opacity=".55"><path d="M13.513 21.695v87.172M13.513 194.461V568M157.522 107.683 157.523 568M85.715 108.078V568M85.715 0v20.117" stroke="#3C4556" stroke-linecap="square"/><path clip-rule="evenodd" d="M217 108.472H75.358 217zM13.415 108.472H0h13.415zM217 194.461H0h217zM157.818 366.833H0h157.818zM157.818 453.019 0 453.02l157.818-.001zM157.818 539.206H0h157.818zM217 280.647H0h217z" stroke="#3C4556" stroke-linecap="square"/><path fill-rule="evenodd" clip-rule="evenodd" d="M83.997 22.198c0 1.09.896 1.973 2 1.973 1.105 0 2-.883 2-1.973s-.895-1.973-2-1.973c-1.104 0-2 .883-2 1.973zM11.333 22.198c0 1.09.895 1.973 2 1.973 1.104 0 2-.883 2-1.973s-.896-1.973-2-1.973c-1.105 0-2 .883-2 1.973zM83.997 108.354c0 1.09.896 1.973 2 1.973 1.105 0 2-.883 2-1.973s-.895-1.973-2-1.973c-1.104 0-2 .883-2 1.973zM11.333 108.354c0 1.09.895 1.973 2 1.973 1.104 0 2-.883 2-1.973s-.896-1.973-2-1.973c-1.105 0-2 .883-2 1.973zM83.997 194.51c0 1.089.896 1.973 2 1.973 1.105 0 2-.884 2-1.973 0-1.09-.895-1.973-2-1.973-1.104 0-2 .883-2 1.973zM11.333 194.51c0 1.089.895 1.973 2 1.973 1.104 0 2-.884 2-1.973 0-1.09-.896-1.973-2-1.973-1.105 0-2 .883-2 1.973zM155.328 194.51c0 1.089.896 1.973 2 1.973 1.105 0 2-.884 2-1.973 0-1.09-.895-1.973-2-1.973-1.104 0-2 .883-2 1.973zM155.328 280.665c0 1.09.896 1.973 2 1.973 1.105 0 2-.883 2-1.973 0-1.089-.895-1.973-2-1.973-1.104 0-2 .884-2 1.973zM83.997 280.665c0 1.09.896 1.973 2 1.973 1.105 0 2-.883 2-1.973 0-1.089-.895-1.973-2-1.973-1.104 0-2 .884-2 1.973zM11.333 280.665c0 1.09.895 1.973 2 1.973 1.104 0 2-.883 2-1.973 0-1.089-.896-1.973-2-1.973-1.105 0-2 .884-2 1.973zM83.997 366.821c0 1.09.896 1.973 2 1.973 1.105 0 2-.883 2-1.973 0-1.089-.895-1.973-2-1.973-1.104 0-2 .884-2 1.973zM11.333 366.821c0 1.09.895 1.973 2 1.973 1.104 0 2-.883 2-1.973 0-1.089-.896-1.973-2-1.973-1.105 0-2 .884-2 1.973zM155.328 366.821c0 1.09.896 1.973 2 1.973 1.105 0 2-.883 2-1.973 0-1.089-.895-1.973-2-1.973-1.104 0-2 .884-2 1.973zM155.328 452.977c0 1.09.896 1.973 2 1.973 1.105 0 2-.883 2-1.973s-.895-1.973-2-1.973c-1.104 0-2 .883-2 1.973zM83.997 452.977c0 1.09.896 1.973 2 1.973 1.105 0 2-.883 2-1.973s-.895-1.973-2-1.973c-1.104 0-2 .883-2 1.973zM11.333 452.977c0 1.09.895 1.973 2 1.973 1.104 0 2-.883 2-1.973s-.896-1.973-2-1.973c-1.105 0-2 .883-2 1.973zM83.997 539.133c0 1.089.896 1.973 2 1.973 1.105 0 2-.884 2-1.973 0-1.09-.895-1.973-2-1.973-1.104 0-2 .883-2 1.973zM11.333 539.133c0 1.089.895 1.973 2 1.973 1.104 0 2-.884 2-1.973 0-1.09-.896-1.973-2-1.973-1.105 0-2 .883-2 1.973zM155.328 539.133c0 1.089.896 1.973 2 1.973 1.105 0 2-.884 2-1.973 0-1.09-.895-1.973-2-1.973-1.104 0-2 .883-2 1.973zM155.328 108.354c0 1.09.896 1.973 2 1.973 1.105 0 2-.883 2-1.973s-.895-1.973-2-1.973c-1.104 0-2 .883-2 1.973z" fill="#3C4556"/></g></svg>