<svg width="1440" height="2264" fill="none" xmlns="http://www.w3.org/2000/svg"><g opacity=".15" stroke="#fff" stroke-miterlimit="10"><path d="M321.735 887.099 244.98 1119.22l291.871-199.467-215.116-32.654z"/><path d="M536.85 919.753v-204.92L321.734 887.099l215.116 32.654zM244.98 1119.22l291.871-199.466 52.783 176.196-344.654 23.27z"/><path d="M536.848 714.834v204.92l184.943-230.083-184.943 25.163zM721.791 689.671 536.848 919.754l52.783 176.196 132.16-406.279zM589.634 1095.95l297.63-203.141-165.47-203.138-132.16 406.279z"/><path d="m536.848 714.834 92.471-164.194 92.472 139.031-184.943 25.163z"/><path d="M629.322 550.64 536.85 714.834 321.734 887.099 629.322 550.64zM629.321 550.64 321.733 887.099l-27.085-159.342L629.321 550.64z"/><path d="M294.651 727.757 321.735 887.1l-76.755 232.12 49.671-391.463zM294.65 727.757 91.395 919.754 244.98 1119.22l49.67-391.463zM91.394 919.753l4.147-305.927 199.109 113.93L91.395 919.753z"/><path d="m95.54 613.827 533.78-63.187-334.672 177.117-199.109-113.93zM629.32 550.64l178.881-74.846-86.409 213.876-92.472-139.03zM808.202 475.794l79.062 417.015L721.793 689.67l86.409-213.876zM244.98 1119.22l117.452 132.4 227.202-155.67-344.654 23.27z"/><path d="m362.43 1251.62 428.656-77.84-201.454-77.83-227.202 155.67zM589.634 1095.95l297.63-203.141-96.177 280.961-201.453-77.82zM808.203 475.794l300.237 138.032-221.175 278.983-79.062-417.015z"/><path d="m808.203 475.795 4.437-107.539 295.8 245.571-300.237-138.032zM812.638 368.256 629.32 550.64l178.881-74.846 4.437-107.538z"/><path d="M812.639 368.256 470.09 427.034 629.322 550.64l183.317-182.384zM470.088 427.034 95.539 613.827l533.781-63.186-159.232-123.607zM791.086 1173.77l310.564-299.455-214.387 18.494-96.177 280.961zM1108.44 613.826l-6.79 260.489-214.388 18.494 221.178-278.983z"/><path d="m812.642 368.257 341.758-51.072-45.96 296.642-295.798-245.57zM812.642 368.256l43.519-105.214 298.239 54.142-341.758 51.072zM856.159 263.042 470.09 427.034l342.549-58.778 43.52-105.214z"/><path d="m856.157 263.042-98.899-147.923 397.132 202.065-298.233-54.142z"/><path d="m757.26 115.119 98.899 147.923L470.09 427.034l287.17-311.915zM470.088 427.034l-8.104-219.649 295.274-92.266-287.17 311.915zM461.984 207.385l8.104 219.649L95.539 613.826l366.445-406.441zM91.397 919.754-54.488 1248.22l299.47-129L91.397 919.754zM-54.488 1248.22l416.922 3.39-117.452-132.39-299.47 129z"/><path d="m-54.488 1248.22 550.808 161.65-133.886-158.26-416.922-3.39zM362.43 1251.62l428.656-77.84-294.77 236.09-133.886-158.25zM1108.44 613.826l218.78 139.498-225.58 120.991 6.8-260.489z"/><path d="m1154.39 317.185-45.95 296.642 218.78 139.497-172.83-436.139z"/><path d="m1154.39 317.185 237.34 351.213-64.5 84.926-172.84-436.139zM1154.39 317.184l187.64-28.195 49.7 379.409-237.34-351.214zM1342.03 288.989l-584.772-173.87 397.132 202.065 187.64-28.195z"/><path d="m1342.03 288.989 278.11 210.908-228.41 168.501-49.7-379.409z"/><path d="M1342.03 288.989 1509.1 92.912l111.04 406.985-278.11-210.908z"/><path d="M1509.1 92.912 1342.03 288.99 757.258 115.12 1509.1 92.912zM1391.73 668.398l247.44 201.37-19.03-369.872-228.41 168.502z"/><path d="m1327.23 753.324 311.94 116.444-247.44-201.37-64.5 84.926zM1101.64 874.315l537.53-4.547-311.95-116.444-225.58 120.991zM791.086 1173.78l848.084-304.012-537.52 4.548-310.564 299.464zM791.086 1173.78l605.934-40.11 242.15-263.902-848.084 304.012zM496.317 1409.87l410.066 15.26-115.296-251.35-294.77 236.09z"/><path d="m791.086 1173.77 605.934-40.1-490.638 291.46-115.296-251.36z"/><path d="m496.317 1409.87-89.044 200.73 499.11-185.47-410.066-15.26zM1258.5 1615.89l380.67-746.122-242.15 263.902-138.52 482.22z"/><path d="m407.277 1610.6 89.043-200.73-550.808-161.65 461.765 362.38zM95.543 613.826l-390.946-138.032 386.8 443.959 4.146-305.927z"/><path d="M-54.488 1248.22 91.397 919.753l-386.8-443.959 240.915 772.426zM-295.403 475.794 95.543 613.826 461.99 207.385l-757.392 268.409zM-295.403 475.794-20.736 1l482.725 206.385-757.392 268.409zM1639.17 869.768l263.99 490.442-644.66 255.68 380.67-746.122zM407.273 1610.6l68.248 200.7 782.979-195.41-851.227-5.29z"/><path d="m1903.16 1360.21-315.39 409.57-329.27-153.89 644.66-255.68z"/><path d="m475.52 1811.3 1112.25-41.52-329.27-153.89-782.98 195.41zM-54.496 1248.22l-123.149 680.75 584.914-318.37-461.765-362.38z"/><path d="m407.269 1610.6-584.914 318.37 653.162-117.67-68.248-200.7zM-177.645 1928.97 133.547 2263l341.97-451.7-653.162 117.67zM475.52 1811.3l603.65 270.59 508.6-312.11-1112.25 41.52z"/><path d="M475.524 1811.3 133.555 2263l945.625-181.11-603.656-270.59zM1587.78 1769.78l210.16 169.24-718.76 142.87 508.6-312.11z"/></g></svg>