<svg width="38" height="46" fill="none" xmlns="http://www.w3.org/2000/svg"><path d="M36.825 44.894h-30.8a4.4 4.4 0 01-4.4-4.4M19.225 3.827H7.492a5.867 5.867 0 00-5.867 5.867v30.8a4.4 4.4 0 014.4-4.4h29.333a1.467 1.467 0 001.467-1.467V5.294a1.466 1.466 0 00-1.467-1.467h-4.4M33.892 44.894v-8.8" stroke="#1358DB" stroke-width="1.5" stroke-linecap="round" stroke-linejoin="round"/><path d="M30.958 24.36l-5.866-5.866-5.867 5.867V3.827A2.933 2.933 0 0122.158.894h5.867a2.933 2.933 0 012.933 2.933v20.534z" stroke="#1358DB" stroke-width="1.5" stroke-linecap="round" stroke-linejoin="round"/></svg>