<svg class="animated-icon animated-icon--business" xmlns="http://www.w3.org/2000/svg" viewBox="0 0 48 48"><style>.animated-icon__path--business{fill:none;stroke:#000;stroke-width:1.6;stroke-linecap:round;stroke-linejoin:round;stroke-miterlimit:10}@keyframes draw1--business{0%{animation-timing-function:cubic-bezier(.645,.045,.355,1);stroke-dasharray:48.853px 6.143px;stroke-dashoffset:48.853px}28.57%{stroke-dashoffset:0px}57.1399%{stroke-dashoffset:0px;stroke-dasharray:48.853px 6.143px}57.14%{stroke-dashoffset:0;stroke-dasharray:6.143px 48.853px}85.71%{stroke-dashoffset:-48.853px}to{stroke-dashoffset:-48.853px;stroke-dasharray:6.143px 48.853px}}@keyframes draw2--business{0%{animation-timing-function:cubic-bezier(.645,.045,.355,1);stroke-dasharray:42.71px 23.597px;stroke-dashoffset:48.853px}28.57%{stroke-dashoffset:0px}57.1399%{stroke-dasharray:42.71px 23.597px;stroke-dashoffset:0px}57.14%{stroke-dashoffset:6.143px;stroke-dasharray:23.597px 42.71px}85.71%{stroke-dashoffset:-42.71px}to{stroke-dasharray:23.597px 42.71px;stroke-dashoffset:-42.71px}}@keyframes draw3--business{0%{animation-timing-function:cubic-bezier(.645,.045,.355,1);stroke-dasharray:25.256px 33.471px;stroke-dashoffset:48.853px}28.57%{stroke-dashoffset:0px}57.1399%{stroke-dasharray:25.256px 33.471px;stroke-dashoffset:0px}57.14%{stroke-dashoffset:23.597px;stroke-dasharray:33.471px 25.256px}85.71%{stroke-dashoffset:-25.256px}to{stroke-dasharray:33.471px 25.256px;stroke-dashoffset:-25.256px}}@keyframes draw4--business{0%{animation-timing-function:cubic-bezier(.645,.045,.355,1);stroke-dasharray:15.382px 48.853px;stroke-dashoffset:48.853px}28.57%{stroke-dashoffset:0px}57.1399%{stroke-dasharray:15.382px 48.853px;stroke-dashoffset:0px}57.14%{stroke-dashoffset:33.471px;stroke-dasharray:48.853px 15.382px}85.71%{stroke-dashoffset:-15.382px}to{stroke-dasharray:48.853px 15.382px;stroke-dashoffset:-15.382px}}
</style><path class="animated-icon__path animated-icon__path--business" d="M41.28 29.731V14.350" style="animation:7000ms draw4--business -4700ms infinite"/><path class="animated-icon__path animated-icon__path--business" d="M35.52 29.731v-9.874" style="animation:7000ms draw3--business -4700ms infinite"/><path class="animated-icon__path animated-icon__path--business" d="M29.76 29.731V12.277" style="animation:7000ms draw2--business -4700ms infinite"/><path class="animated-icon__path animated-icon__path--business" d="M24 29.731v-6.143" style="animation:7000ms draw1--business -4700ms infinite"/><path d="M9.88.006A5.754 5.754 0 004.81 2.56a5.757 5.757 0 004.79 8.96A5.76 5.76 0 0010.723.112 5.73 5.73 0 009.88.005zM9.6 1.92a3.845 3.845 0 013.549 2.37 3.852 3.852 0 01-.833 4.185 3.844 3.844 0 01-5.91-.582 3.837 3.837 0 01.48-4.846A3.842 3.842 0 019.6 1.92zm8.64 1.92a.961.961 0 00-.68 1.639c.18.18.425.28.68.28h26.88a.963.963 0 01.96.962V33.6a.965.965 0 01-.96.96H18.24a.961.961 0 00-.68 1.64c.18.18.425.28.68.28h26.88A2.883 2.883 0 0048 33.6V6.72a2.882 2.882 0 00-2.88-2.88H18.24zm-8.64 9.6a9.6 9.6 0 00-9.6 9.6v6.72a2.88 2.88 0 002.88 2.88h.96V43.2a2.877 2.877 0 002.88 2.88h5.76a2.88 2.88 0 002.879-2.88V32.64h.961a2.88 2.88 0 002.879-2.88v-6.72a9.593 9.593 0 00-2.81-6.788 9.604 9.604 0 00-6.79-2.813zm0 1.92a7.679 7.679 0 017.68 7.68v6.72a.96.96 0 01-.959.96h-.962a1.917 1.917 0 00-1.92 1.92V43.2a.961.961 0 01-.959.96H6.72a.963.963 0 01-.96-.96V32.64a1.918 1.918 0 00-1.92-1.92h-.96a.96.96 0 01-.96-.96v-6.72a7.679 7.679 0 017.68-7.68z"/></svg>