<svg xmlns="http://www.w3.org/2000/svg" width="59" height="45"><path stroke="#F9FAFA" d="M57.64 6.428L52.685 1.37c-.01-.01-.025-.012-.035-.025a1.248 1.248 0 0 0-.364-.248A1.284 1.284 0 0 0 51.804 1H34.458c-.972 0-3.445.536-4.957 1.685C27.991 1.536 25.518 1 24.544 1H7.198a1.2 1.2 0 0 0-.478.099c-.082.035-.144.096-.216.146-.062.043-.13.069-.185.124L1.362 6.43A1.298 1.298 0 0 0 1 7.323v32.88c0 .166.032.333.097.488.034.083.094.146.143.22.043.063.067.131.122.187.042.04.094.058.139.093.084.066.166.137.265.177.151.069.312.102.473.102h21.42c.819 1.5 3.047 2.529 5.842 2.529 2.796 0 5.024-1.03 5.842-2.53h21.42c.161 0 .322-.032.474-.098a1.21 1.21 0 0 0 .347-.235c.017-.015.037-.02.054-.036a1.294 1.294 0 0 0 .362-.895V7.324a1.264 1.264 0 0 0-.36-.896zm-26.9-1.52c.404-.546 2.623-1.379 3.718-1.379h16.11v30.353h-16.11c-.736 0-2.33.309-3.718.956V4.908zM8.435 3.527h16.11c1.13 0 3.442.88 3.717 1.265v.002c0 .003 0 0 0 0v30.044c-1.388-.647-2.981-.956-3.718-.956H8.435V3.527zm-4.957 4.32l2.479-2.532v29.308l-2.479 2.532V7.847zm30.98 31.094c-.684 0-1.24.567-1.24 1.265 0 .316-1.318 1.265-3.717 1.265s-3.717-.949-3.717-1.265c0-.698-.555-1.265-1.24-1.265H5.234l2.477-2.53h16.833c1.13 0 3.443.881 3.718 1.265 0 .701.54 1.346 1.224 1.346.627 0 1.13-.407 1.212-1.014.018-.068.032-.14.037-.213.397-.546 2.625-1.383 3.723-1.383h16.833l2.478 2.53H34.458zm21.066-1.786l-2.478-2.529V5.318l2.478 2.53v29.307z"/></svg>