<svg xmlns="http://www.w3.org/2000/svg" width="53" height="62"><path stroke="#F9FAFA" stroke-width=".5" d="M50.03 7a1 1 0 1 0 0-2h-.01a.996.996 0 0 0-.995 1c0 .553.453 1 1.005 1m-48 6a1 1 0 1 0 0-2h-.01a.996.996 0 0 0-.995 1c0 .553.453 1 1.005 1m12 30h-.01a.996.996 0 0 0-.995 1c0 .553.453 1 1.005 1a1 1 0 1 0 0-2m26.8-1.965a1 1 0 0 0-.707 1.225c0 .005.115.486.01.998-.131.643-.545 1.037-1.303 1.24-2.062.553-2.17 2.329-2.24 3.505-.076 1.286-.19 1.54-.76 1.691-1.486.4-2.461 1.383-2.745 2.773a4.494 4.494 0 0 0 .038 1.916 1.001 1.001 0 0 0 1.932-.518c-.001-.005-.115-.486-.011-.998.132-.642.546-1.037 1.304-1.24 2.062-.553 2.169-2.33 2.239-3.505.077-1.286.19-1.538.76-1.691 1.487-.398 2.462-1.383 2.746-2.773a4.495 4.495 0 0 0-.038-1.916 1 1 0 0 0-1.225-.707m10.176-8.481c-.577-1.154-.604-1.43-.187-1.847 1.986-1.986 1.088-4.326 0-5.413a.998.998 0 0 0-1.406-.003 1.004 1.004 0 0 0-.014 1.41c.299.31 1.185 1.412.006 2.593-1.51 1.51-.714 3.1-.188 4.153.577 1.153.605 1.43.188 1.846-1.987 1.986-1.09 4.327 0 5.415a.99.99 0 0 0 1.405.003 1.004 1.004 0 0 0 .014-1.411c-.3-.31-1.185-1.412-.005-2.592 1.509-1.51.713-3.102.187-4.154M9.259 43.034a2.575 2.575 0 0 1-.87-.49c-.492-.435-.626-.99-.423-1.748.553-2.063-.932-3.044-1.915-3.691-1.075-.71-1.238-.936-1.085-1.505.398-1.486.034-2.824-1.028-3.765a4.505 4.505 0 0 0-1.68-.925 1 1 0 0 0-.518 1.932c.006.002.48.143.872.49.49.437.626.992.422 1.75-.552 2.062.933 3.042 1.915 3.69 1.076.71 1.238.937 1.085 1.506C5.636 41.764 6 43.1 7.062 44.042c.747.661 1.586.9 1.679.925a1 1 0 0 0 .518-1.932M46.999 20c0 10.323-8.395 18.165-15.585 21.741a1.002 1.002 0 0 1-1.341-.45 1.001 1.001 0 0 1 .45-1.34C37.203 36.629 45 29.41 45 20c0-9.692-7.738-17-18-17S9 10.31 9 20c0 10.415 11.548 21 18 21a1 1 0 0 1 .929.628c.088.221 2.142 5.468-.034 9.819-1.77 3.538.016 8.136.034 8.182a1 1 0 0 1-1.857.742c-.09-.221-2.142-5.468.034-9.819 1.392-2.784.583-6.225.166-7.587C18.85 42.265 7 31.258 7 20 7 9.168 15.598 1 27 1s20 8.168 20 19"/></svg>