<svg xmlns="http://www.w3.org/2000/svg" width="62" height="61"><path stroke="#FFF" stroke-width=".5" d="M32.469 28.073l-12.004 1.5 4.167 9.31 13.683-.79-5.846-10.02zM14.66 39.459l7.833-.452-4.105-9.174-1.265.158c-.9.167-1.926 1.017-2.626 2.209a6.606 6.606 0 0 0-.551 5.477l.714 1.782zM1.293 43.292C5.04 39.545 7 33.768 7 29.999H3c-.97 0-2-.701-2-2 0-2.626 2.516-4 5-4 1.954 0 22.743-.988 22.952-.998h.002c3.4 0 4.713 2.943 4.954 3.57l6.956 11.922a1 1 0 0 1-.806 1.503l-26 1.5a.992.992 0 0 1-.986-.626l-1-2.5c-.827-2.423-.565-5.023.7-7.181 1-1.705 2.513-2.891 4.048-3.174l14.584-1.824C30.926 25.6 30.156 25 29 25c-.81.04-21 .999-23 .999-1.038 0-3 .418-3 2h4c1.299 0 2 1.03 2 2 0 3.959-1.88 10.092-5.996 14.404.066 3.893 1.089 7.274 2.703 8.889a.999.999 0 1 1-1.414 1.414C2.232 52.644 1 48.64 1 43.999c0-.265.106-.52.293-.707zM48.999 9.999a3.002 3.002 0 0 0 2.997 2.999h.006a3.002 3.002 0 0 0 2.997-2.996l-.001-.003v-.003a3.003 3.003 0 0 0-3-2.997c-1.653 0-3 1.345-3 3zm-6 0a1 1 0 0 1 1-1h3.1a5.003 5.003 0 0 1 .733-1.754l-2.198-2.196a1 1 0 1 1 1.414-1.415l2.199 2.197A4.994 4.994 0 0 1 51 5.1l-.002-3.102a1 1 0 0 1 2-.001L53 5.1c.637.13 1.229.384 1.753.732l2.196-2.198a1.001 1.001 0 0 1 1.415 1.414l-2.198 2.198a4.97 4.97 0 0 1 .733 1.753l3.1-.001a1 1 0 0 1 0 2h-3.101a4.97 4.97 0 0 1-.732 1.754l2.198 2.196a1.002 1.002 0 0 1-.708 1.708 1 1 0 0 1-.707-.293l-2.197-2.197a4.98 4.98 0 0 1-1.753.732v3.1a1 1 0 1 1-2 0v-3.1a4.988 4.988 0 0 1-1.753-.732l-2.197 2.197a.997.997 0 0 1-1.414 0 1 1 0 0 1 0-1.415l2.197-2.196a5.006 5.006 0 0 1-.732-1.753h-3.101a1 1 0 0 1-1-1zm16.918 26.003L48 36.999c-1.534 0-2.633 1.204-2.753 1.34a1.353 1.353 0 0 0-.08.105l-1.937 2.908c-.28.254-.852.645-1.285.647l-36 2a1 1 0 1 0 .11 1.998l35.945-2c1.374 0 2.574-1.158 2.707-1.291a.981.981 0 0 0 .125-.153l1.955-2.932c.203-.206.718-.622 1.296-.626l10.493-.874c-3.21 8.867-10.427 14.028-14.772 14.897a1 1 0 0 0 .393 1.96c5.907-1.18 13.789-7.782 16.76-17.692a.998.998 0 0 0-1.04-1.284zm1.054 22.757a1 1 0 0 1-.823 1.15c-.368.06-.754.09-1.148.09-1.978 0-3.25-.748-4-1.435-.75.687-2.021 1.436-4 1.436-1.978 0-3.25-.75-4-1.436-.75.687-2.021 1.436-4 1.436-1.978 0-3.25-.75-4-1.436-.75.687-2.021 1.436-4 1.436-1.978 0-3.25-.75-4-1.436-.75.687-2.021 1.436-4 1.436-1.978 0-3.25-.75-4-1.436-.75.687-2.021 1.436-4 1.436-1.978 0-3.25-.75-4-1.436-.75.687-2.021 1.436-4 1.436-1.978 0-3.25-.75-4-1.436C6.25 59.25 4.979 60 3 60c-.398 0-.764-.031-1.151-.096a1 1 0 1 1 .334-1.972c.277.047.53.068.817.068 2.299 0 3.08-1.401 3.113-1.46a.999.999 0 0 1 .899-.532.997.997 0 0 1 .883.545C7.92 56.599 8.7 58 11 58s3.08-1.401 3.113-1.46c.176-.328.553-.527.899-.532a.997.997 0 0 1 .883.545C15.92 56.599 16.7 58 19 58s3.08-1.401 3.113-1.46c.176-.328.537-.527.899-.532a.997.997 0 0 1 .883.545C23.92 56.599 24.7 58 27 58s3.08-1.401 3.113-1.46c.176-.328.519-.527.899-.532a.997.997 0 0 1 .883.545C31.92 56.599 32.7 58 35 58s3.08-1.401 3.113-1.46c.177-.328.502-.527.899-.532a.997.997 0 0 1 .883.545C39.92 56.599 40.7 58 43 58s3.08-1.401 3.113-1.46a.988.988 0 0 1 .899-.532.997.997 0 0 1 .883.545C47.92 56.599 48.7 58 51 58s3.08-1.401 3.113-1.46c.176-.328.543-.527.899-.532a.997.997 0 0 1 .883.545C55.92 56.599 56.7 58 59 58c.285 0 .562-.022.822-.065a.996.996 0 0 1 1.149.824z"/></svg>