<svg xmlns="http://www.w3.org/2000/svg" width="47" height="56"><path stroke="#F9FAFA" stroke-width=".7" d="M14.077 17.435c-5.767 0-8.35 6.485-8.35 12.913 0 .648.53 1.174 1.183 1.174.652 0 1.182-.526 1.182-1.174 0-5.26 1.85-10.565 5.985-10.565.653 0 1.183-.526 1.183-1.174 0-.648-.53-1.174-1.183-1.174zM32.92 12.74c-.198 0-.376.033-.567.045 2.504-2.367 4.19-5.916 4.19-10.61 0-.648-.53-1.174-1.182-1.174-4.798 0-9.637 2.675-11.813 7.835-.948-2.855-2.312-5.043-3.52-6.94l-.223-.348a1.185 1.185 0 0 0-1.63-.366 1.167 1.167 0 0 0-.368 1.618l.222.35c1.875 2.948 3.961 6.29 4.264 11.83-.677-.173-1.393-.453-2.18-.775-1.694-.683-3.619-1.465-6.033-1.465C6.257 12.74 1 19.816 1 30.348 1 40.275 8.478 55 18.81 55c1.884 0 2.735-.434 3.421-.782.433-.22.7-.357 1.27-.387.57.03.837.166 1.27.387.684.348 1.537.782 3.422.782C38.523 55 46.003 40.275 46 30.348c0-10.532-5.255-17.609-13.08-17.609zm1.213-9.32c-.494 6.595-4.9 9.912-9.369 10.424.494-6.595 4.9-9.913 9.37-10.424zm-5.942 49.23c-1.313 0-1.793-.241-2.344-.523-.53-.27-1.19-.603-2.334-.648a1.28 1.28 0 0 0-.213.01c-1.033.07-1.65.382-2.152.638-.55.28-1.028.524-2.343.524-8.173 0-15.445-12.472-15.445-22.304 0-9.129 4.306-15.261 10.715-15.261 1.951 0 3.57.657 5.139 1.294 1.428.58 2.776 1.126 4.247 1.126h.064c.005 0 .007.003.012.003.007 0 .014-.005.02-.005 1.462-.007 2.803-.55 4.224-1.124 1.568-.637 3.188-1.294 5.14-1.294 6.408 0 10.714 6.132 10.714 15.26 0 9.83-7.272 22.305-15.444 22.305z"/></svg>