<svg xmlns="http://www.w3.org/2000/svg" width="14" height="17" fill="none"><path stroke="currentColor" stroke-linecap="round" stroke-linejoin="round" d="M13 16H2.5c-.398 0-.78-.158-1.06-.44A1.494 1.494 0 011 14.5M7 2H3c-.53 0-1.04.21-1.414.586A1.995 1.995 0 001 4v10.5c0-.398.158-.78.44-1.06.28-.282.662-.44 1.06-.44h10c.133 0 .26-.053.354-.146A.504.504 0 0013 12.5v-10a.504.504 0 00-.146-.354A.504.504 0 0012.5 2H11m1 14v-3"/><path stroke="currentColor" stroke-linecap="round" stroke-linejoin="round" d="M11 9L9 7 7 9V2a.997.997 0 011-1h2a.997.997 0 011 1v7z"/></svg>