<svg xmlns="http://www.w3.org/2000/svg" width="60" height="60"><path stroke="#F9FAFA" stroke-width=".5" d="M23.272 16.467h-.02l-.009.002-.01-.002a.967.967 0 0 0 0 1.933c.008 0 .012-.004.02-.004.007 0 .011.004.019.004a.967.967 0 0 0 0-1.933zm-5.839 0h-3.866a.967.967 0 0 0 0 1.933h3.866a.967.967 0 0 0 0-1.933zM15.5 55.133a1.934 1.934 0 1 0-.001-3.868 1.934 1.934 0 0 0 .001 3.868zM54.167 1H21.3a4.839 4.839 0 0 0-4.833 4.833V9.7a.967.967 0 0 0 1.933 0V5.833c0-1.599 1.301-2.9 2.9-2.9h32.867c1.599 0 2.9 1.301 2.9 2.9v48.334c0 1.599-1.301 2.9-2.9 2.9H29.92a.967.967 0 0 0 0 1.933h24.246A4.839 4.839 0 0 0 59 54.167V5.833A4.839 4.839 0 0 0 54.167 1zM35.8 54.167a1.934 1.934 0 1 0 3.868-.002 1.934 1.934 0 0 0-3.868.002zM55.133 50.3V5.833a.967.967 0 0 0-.966-.966H21.3a.967.967 0 0 0-.967.966V9.7a.967.967 0 0 0 1.934 0V6.8H53.2v42.533H32.9a.967.967 0 0 0 0 1.934h21.267a.967.967 0 0 0 .966-.967zM30 21.3c0-4.797-3.903-8.7-8.7-8.7H9.7c-4.797 0-8.7 3.903-8.7 8.7v29C1 55.097 4.903 59 9.7 59h11.6c4.797 0 8.7-3.903 8.7-8.7v-29zm-1.933 29a6.774 6.774 0 0 1-6.767 6.767H9.7A6.774 6.774 0 0 1 2.933 50.3v-.967h25.134v.967zm0-2.9H2.933V21.3A6.774 6.774 0 0 1 9.7 14.533h11.6a6.774 6.774 0 0 1 6.767 6.767v26.1z"/></svg>