<svg xmlns="http://www.w3.org/2000/svg" width="55" height="47"><g stroke="#F9FAFA" stroke-width=".6"><path d="M50.503 46H4.497c-1.903 0-3.451-1.514-3.451-3.375v-31.5c0-1.86 1.548-3.375 3.45-3.375h46.007c1.903 0 3.451 1.514 3.451 3.375v31.5c0 1.86-1.548 3.375-3.45 3.375zM4.497 10c-.633 0-1.15.504-1.15 1.125v31.5c0 .619.517 1.125 1.15 1.125h46.006c.633 0 1.15-.506 1.15-1.125v-31.5c0-.621-.517-1.125-1.15-1.125H4.497z"/><path d="M34.401 10H20.599c-.635 0-1.15-.504-1.15-1.125v-4.5c0-1.86 1.548-3.375 3.45-3.375h9.202c1.902 0 3.45 1.514 3.45 3.375v4.5c0 .621-.515 1.125-1.15 1.125zM21.749 7.75h11.502V4.375c0-.621-.518-1.125-1.15-1.125h-9.202c-.632 0-1.15.504-1.15 1.125V7.75zM26.5 39C19.61 39 14 33.39 14 26.5 14 19.607 19.61 14 26.5 14S39 19.607 39 26.5C39 33.39 33.39 39 26.5 39zm0-22.727c-5.639 0-10.227 4.588-10.227 10.227S20.86 36.727 26.5 36.727 36.727 32.14 36.727 26.5 32.14 16.273 26.5 16.273z"/><path d="M28.643 34h-4.286c-.591 0-1.071-.48-1.071-1.071v-3.215H20.07c-.591 0-1.071-.48-1.071-1.071v-4.286c0-.591.48-1.071 1.071-1.071h3.215V20.07c0-.591.48-1.071 1.071-1.071h4.286c.591 0 1.071.48 1.071 1.071v3.215h3.215c.591 0 1.071.48 1.071 1.071v4.286c0 .591-.48 1.071-1.071 1.071h-3.215v3.215c0 .591-.48 1.071-1.071 1.071zm-3.214-2.143h2.142v-3.214c0-.592.48-1.072 1.072-1.072h3.214V25.43h-3.214c-.592 0-1.072-.48-1.072-1.072v-3.214H25.43v3.214c0 .592-.48 1.072-1.072 1.072h-3.214v2.142h3.214c.592 0 1.072.48 1.072 1.072v3.214z"/></g></svg>