<svg width="55" height="55" fill="none" xmlns="http://www.w3.org/2000/svg"><path d="M8.4 3.972H6.493c-1.581 0-2.863 1.338-2.863 2.988v39.833c0 1.65 1.282 2.987 2.863 2.987H8.4c1.58 0 2.863-1.337 2.863-2.987V6.96c0-1.65-1.282-2.988-2.863-2.988zm.955 42.82c0 .55-.427.997-.954.997H6.49c-.526 0-.953-.446-.953-.996V13.93h3.817v32.862zm0-34.853H5.538v-4.98c0-.55.427-.995.954-.995H8.4c.527 0 .954.446.954.996v4.979zM49.013 4.608h-29.69a2.978 2.978 0 00-2.97 2.988v39.833c0 1.65 1.33 2.988 2.97 2.988h29.69a2.978 2.978 0 002.97-2.988V7.596c0-1.65-1.33-2.988-2.97-2.988zm.99 42.821c0 .55-.443.996-.99.996h-29.69a.993.993 0 01-.99-.996V7.596c0-.55.443-.996.99-.996h29.69c.547 0 .99.446.99.996v39.833z" fill="#1358DB"/><path d="M44.62 16.06H32.623c-.552 0-1 .57-1 1.273s.448 1.273 1 1.273H44.62c.552 0 1-.57 1-1.273s-.448-1.272-1-1.272zM27.435 15.11l-3.141 3.485-1.233-1.367a.889.889 0 00-1.338.013 1.142 1.142 0 00-.012 1.483l1.909 2.116a.89.89 0 001.35 0l3.817-4.232c.248-.266.347-.66.26-1.03-.087-.37-.348-.658-.682-.755a.894.894 0 00-.928.288l-.002-.002zM44.62 26.24H32.623c-.552 0-1 .57-1 1.273 0 .702.448 1.272 1 1.272H44.62c.552 0 1-.57 1-1.273 0-.702-.448-1.272-1-1.272zM27.454 25.264l-3.152 3.5-1.236-1.373a.891.891 0 00-1.342.013 1.148 1.148 0 00-.012 1.49l1.915 2.125a.892.892 0 001.353 0l3.83-4.25a1.148 1.148 0 00-.012-1.49.891.891 0 00-1.342-.013l-.002-.002zM44.62 36.42H32.623c-.552 0-1 .57-1 1.272 0 .703.448 1.273 1 1.273H44.62c.552 0 1-.57 1-1.273s-.448-1.272-1-1.272zM27.454 34.171l-3.152 3.5-1.236-1.373a.891.891 0 00-1.342.013 1.148 1.148 0 00-.012 1.49l1.915 2.125a.892.892 0 001.353 0l3.83-4.25a1.148 1.148 0 00-.012-1.49.891.891 0 00-1.342-.013l-.002-.002z" fill="#1358DB"/></svg>