<svg class="animated-icon animated-icon--data" xmlns="http://www.w3.org/2000/svg" viewBox="0 0 42 36"><style>@keyframes draw--data{0%{stroke-dasharray:53px 53px;stroke-dashoffset:53px}28.57%,57.14%{stroke-dasharray:53px 53px;stroke-dashoffset:0}85.71%,100%{stroke-dasharray:53px 53px;stroke-dashoffset:-53px}}
</style><path d="M19 36a15.64 15.64 0 0 1 0-31.28.85.85 0 0 1 .85.85v13.94h13.96a.85.85 0 0 1 .85.85A15.65 15.65 0 0 1 19 36zm-.83-29.55a13.94 13.94 0 1 0 14.76 14.76H19a.85.85 0 0 1-.85-.85V6.45z" fill="#fff"/><path class="animated-icon__path" d="M38.77 15.65A14.79 14.79 0 0 0 24 .86v14.79h14.77z" style="animation:7000ms draw--data -5600ms infinite" fill="none" stroke="#fff" stroke-linecap="round" stroke-linejoin="round" stroke-width="1.6"/></svg>