<svg width="46" height="45" fill="none" xmlns="http://www.w3.org/2000/svg"><path clip-rule="evenodd" d="M31.283 37.299c-7.402 0-13.403-2.125-13.403-4.747v6.98h.026C18.314 42.024 24.146 44 31.283 44c7.137 0 12.97-1.976 13.377-4.468h.026v-6.98c0 2.622-6.001 4.747-13.403 4.747v0z" stroke="#1358DB" stroke-width="1.5" stroke-linecap="round" stroke-linejoin="round"/><path clip-rule="evenodd" d="M17.881 32.273v.279c0-.094.01-.187.025-.28h-.025v0zM44.66 32.273c.016.092.026.185.026.279v-.28h-.026v0z" stroke="#1358DB" stroke-width="1.5" stroke-linecap="round" stroke-linejoin="round"/><path clip-rule="evenodd" d="M31.283 30.597c-7.402 0-13.403-2.125-13.403-4.746v6.98h.026c.408 2.491 6.24 4.468 13.377 4.468 7.137 0 12.97-1.977 13.377-4.468h.026v-6.98c0 2.621-6.001 4.746-13.403 4.746v0z" stroke="#1358DB" stroke-width="1.5" stroke-linecap="round" stroke-linejoin="round"/><path clip-rule="evenodd" d="M17.881 25.571v.28c0-.094.01-.187.025-.28h-.025v0zM44.66 25.571c.016.093.026.186.026.28v-.28h-.026v0zM44.686 19.15c0 2.621-6.001 4.746-13.403 4.746S17.88 21.771 17.88 19.15c0-2.621 6.001-4.746 13.403-4.746s13.403 2.125 13.403 4.746v0z" stroke="#1358DB" stroke-width="1.5" stroke-linecap="round" stroke-linejoin="round"/><path clip-rule="evenodd" d="M31.283 23.896c-7.402 0-13.403-2.125-13.403-4.747v6.98h.026c.408 2.492 6.24 4.468 13.377 4.468 7.137 0 12.97-1.976 13.377-4.467h.026v-6.98c0 2.621-6.001 4.746-13.403 4.746v0z" stroke="#1358DB" stroke-width="1.5" stroke-linecap="round" stroke-linejoin="round"/><path clip-rule="evenodd" d="M17.881 18.87v.28c0-.095.01-.188.025-.28h-.025v0zM44.66 18.87c.016.092.026.185.026.28v-.28h-.026v0zM11.18 8.074a2.606 2.606 0 11-5.212 0 2.606 2.606 0 015.212 0v0z" stroke="#1358DB" stroke-width="1.5" stroke-linecap="round" stroke-linejoin="round"/><path fill-rule="evenodd" clip-rule="evenodd" d="M38.73 6.957a.745.745 0 11-1.49 0 .745.745 0 011.49 0zM35.75 6.957a.745.745 0 11-1.489 0 .745.745 0 011.49 0zM40.219 9.19a.745.745 0 11-1.49 0 .745.745 0 011.49 0zM37.24 9.19a.745.745 0 11-1.49 0 .745.745 0 011.49 0zM32.772 6.957a.745.745 0 11-1.49 0 .745.745 0 011.49 0zM34.262 9.19a.745.745 0 11-1.49 0 .745.745 0 011.49 0zM29.795 6.957a.745.745 0 11-1.49 0 .745.745 0 011.49 0zM31.284 9.19a.745.745 0 11-1.49 0 .745.745 0 011.49 0zM26.816 6.957a.745.745 0 11-1.49 0 .745.745 0 011.49 0zM28.305 9.19a.745.745 0 11-1.49 0 .745.745 0 011.49 0z" fill="#1358DB"/><path clip-rule="evenodd" d="M11.18 22.22a2.606 2.606 0 11-5.212 0 2.606 2.606 0 015.212 0v0zM11.18 36.368a2.606 2.606 0 11-5.212 0 2.606 2.606 0 015.212 0v0z" stroke="#1358DB" stroke-width="1.5" stroke-linecap="round" stroke-linejoin="round"/><path clip-rule="evenodd" d="M42 1H4.186A2.686 2.686 0 001.5 3.686v8.775a2.686 2.686 0 002.686 2.686h19.912c2.078-.469 4.539-.744 7.186-.744 2.647 0 5.107.275 7.186.744H42a2.686 2.686 0 002.686-2.686V3.686A2.686 2.686 0 0042 1v0z" stroke="#1358DB" stroke-width="1.5"/><path clip-rule="evenodd" d="M17.881 26.13v-6.98c0-1.685 2.483-3.16 6.216-4.003H4.188A2.687 2.687 0 001.5 17.834v8.774a2.686 2.686 0 002.686 2.686h13.695V26.13v0zM17.906 39.532h-.025V29.294H4.186A2.686 2.686 0 001.5 31.981v8.774a2.686 2.686 0 002.686 2.686h20.798c-4.006-.757-6.8-2.212-7.078-3.909v0z" stroke="#1358DB" stroke-width="1.5"/></svg>