<svg class="animated-icon animated-icon--design" xmlns="http://www.w3.org/2000/svg" viewBox="0 0 38 32"><style>@keyframes draw{0%{stroke-dashoffset:39px;stroke-dasharray:39px 39px}28.57%,57.14%{stroke-dashoffset:0;stroke-dasharray:39px 39px}85.71%,100%{stroke-dashoffset:-39px;stroke-dasharray:39px 39px}}</style><path d="M18.43 16.57a8.64 8.64 0 1 0-7.55 0A13 13 0 0 0 1.7 29v2.16a.72.72 0 1 0 1.44 0V29a11.52 11.52 0 0 1 23 0v2.16a.72.72 0 1 0 1.44 0V29a13 13 0 0 0-9.15-12.43zm-11-7.76a7.2 7.2 0 1 1 7.2 7.2 7.2 7.2 0 0 1-7.17-7.2z" fill="#fff"/><path class="animated-icon__path" d="M30.96 5.45l1.7 3.45 3.8.55-2.75 2.68.65 3.79-3.4-1.79-3.4 1.79.65-3.79-2.76-2.68 3.81-.55 1.7-3.45z" style="animation:7000ms draw 0ms infinite" stroke="#fff" fill="none" stroke-linecap="round" stroke-linejoin="round" stroke-width="1.35"/></svg>