<svg class="animated-icon animated-icon--development" xmlns="http://www.w3.org/2000/svg" viewBox="0 0 42.1 32"><style>.animated-icon__path--development{fill:none;stroke:#fff;stroke-width:1.6;stroke-linecap:round;stroke-linejoin:round;stroke-miterlimit:10}@keyframes draw1{0%{animation-timing-function:cubic-bezier(.645,.045,.355,1);stroke-dasharray:60px 26px;stroke-dashoffset:60px}28.57%{stroke-dashoffset:0}57.1399%{stroke-dashoffset:0;stroke-dasharray:60px 26px}57.14%{stroke-dashoffset:0;stroke-dasharray:26px 60px}85.71%{stroke-dashoffset:-60px}to{stroke-dashoffset:-60px;stroke-dasharray:26px 60px}}@keyframes draw2{0%{animation-timing-function:cubic-bezier(.645,.045,.355,1);stroke-dasharray:34px 52px;stroke-dashoffset:60px}28.57%{stroke-dashoffset:0}57.1399%{stroke-dasharray:34px 52px;stroke-dashoffset:0}57.14%{stroke-dashoffset:26px;stroke-dasharray:52px 34px}85.71%{stroke-dashoffset:-34px}to{stroke-dasharray:52px 34px;stroke-dashoffset:-34px}}@keyframes draw3{0%{animation-timing-function:cubic-bezier(.645,.045,.355,1);stroke-dasharray:8px 60px;stroke-dashoffset:60px}28.57%{stroke-dashoffset:0}57.1399%{stroke-dasharray:8px 60px;stroke-dashoffset:0}57.14%{stroke-dashoffset:52px;stroke-dasharray:60px 60px}85.71%{stroke-dashoffset:-8px}to{stroke-dasharray:60px 60px;stroke-dashoffset:-8px}}.line1{animation:7000ms draw1 -1400ms infinite}.line2{animation:7000ms draw2 -1400ms infinite}.line3{animation:7000ms draw3 -1400ms infinite}</style><path d="M40.4 27.8c0 1.4-1.1 2.5-2.5 2.5H4.2c-1.4 0-2.5-1.1-2.5-2.5V27h15.2v1.7h8.4V27h15.2v.8zM3.4 2.5c0-.5.4-.8.8-.8h33.7c.5 0 .8.4.8.8v22.7H3.4V2.5zm37 22.8V2.5c0-1.4-1.1-2.5-2.5-2.5H4.2C2.8 0 1.7 1.1 1.7 2.5v22.7H0v2.5C0 30.1 1.9 32 4.2 32h33.7c2.3 0 4.2-1.9 4.2-4.2v-2.5h-1.7z" fill="#fff"/><path class="animated-icon__path animated-icon__path--development line1" d="M8.1 8.8h26"/><path class="animated-icon__path animated-icon__path--development line3" d="M8.1 18.8h7.6"/><path class="animated-icon__path animated-icon__path--development line2" d="M8.1 13.8h26"/></svg>