<svg width="45" height="44" fill="none" xmlns="http://www.w3.org/2000/svg"><path clip-rule="evenodd" d="M43.637 22c0 11.708-9.492 21.2-21.2 21.2-11.709 0-21.2-9.492-21.2-21.2 0-11.709 9.492-21.2 21.2-21.2 11.708 0 21.2 9.491 21.2 21.2z" stroke="#1358DB" stroke-width="2"/><path clip-rule="evenodd" d="M10.427 36.513l7.29-3.127c.395-.197.717-.836.944-1.29a.623.623 0 00-.56-.896h-5.156s-1.864-.182-3.302-.8c-.842-.361-1.132-.84-.606-1.589 1.54-2.192 4.724-7.353 4.827-12.684 0 0 .176-8.205 8.272-8.273 4.722.04 6.953 2.819 7.992 5.13.58 1.287.828 2.692.921 4.103.336 5.08 2.924 9.727 4.13 11.713.408.674.21 1.57-.466 1.975-1.11.664-2.467.425-2.467.425h-5.19c-.507 0-.73.709-.333 1.023.325.256.634.488.802.579l6.064 3.67a5.24 5.24 0 012.048 2.023A21.107 21.107 0 0122.325 43.2a21.11 21.11 0 01-13.773-5.09 5.23 5.23 0 011.875-1.597z" stroke="#1358DB" stroke-width="2"/></svg>