<svg xmlns="http://www.w3.org/2000/svg" width="17" height="17" fill="none"><path fill="currentColor" d="M8.742.72C4.461.72.992 4.22.992 8.47a7.749 7.749 0 007.75 7.75c4.25 0 7.75-3.469 7.75-7.75 0-4.25-3.5-7.75-7.75-7.75zm2.563 11.187c-.125.125-.25.25-.375.344a.743.743 0 00-.188.344 3.214 3.214 0 01-.125.531l-.562 1.469a6.28 6.28 0 01-1.313.125v-.844c.031-.406-.25-1.125-.719-1.594a.99.99 0 01-.28-.719v-1c0-.343-.22-.687-.532-.875a37.194 37.194 0 00-1.531-.812c-.344-.188-.688-.406-.97-.688h-.03c-.188-.156-.438-.468-.563-.656a72.082 72.082 0 01-1.094-1.594c.657-1.437 1.782-2.562 3.22-3.187l.75.375c.343.156.75-.063.75-.438v-.375c.218-.03.5-.062.75-.062l.874.875a.529.529 0 010 .719l-.125.125-.344.343a.247.247 0 000 .344l.157.156a.247.247 0 010 .344l-.25.25a.34.34 0 01-.188.063h-.281a.17.17 0 00-.156.093l-.313.282c-.062.062-.094.125-.094.187 0 .031.032.094.032.125l.5.969c.062.156-.032.344-.22.344h-.187c-.062 0-.125 0-.156-.032l-.312-.28c-.063-.063-.22-.095-.313-.095h-.156l-.969.344c-.156.031-.25.188-.25.344 0 .156.063.281.188.344l.343.156a2.1 2.1 0 00.97.219c.312 0 .687.875 1 1h2.062c.28 0 .53.125.718.312l.438.438c.156.125.281.437.281.656 0 .344-.219.813-.437 1.031zm2.718-2.844a.958.958 0 01-.468-.312l-.563-.844a1.023 1.023 0 01-.125-.437c0-.125.063-.282.125-.407l.625-.906c.063-.125.156-.187.281-.25l.407-.219c.437.844.687 1.782.687 2.782 0 .281-.031.562-.062.812l-.907-.219z"/></svg>