<svg width="54" height="53" fill="none" xmlns="http://www.w3.org/2000/svg"><path d="M51.582 37.433V7.256c-.002-1.851-1.4-3.352-3.125-3.354H6.787C5.06 3.904 3.662 5.405 3.66 7.256v30.177H1.578v3.353c.003 3.085 2.333 5.585 5.208 5.589h41.67c2.876-.004 5.206-2.504 5.21-5.589v-3.353h-2.084zM5.745 7.256c0-.618.466-1.118 1.041-1.118h41.67c.576 0 1.042.5 1.042 1.118v30.177H5.745V7.256zm45.837 33.53c-.002 1.852-1.4 3.352-3.125 3.354H6.787c-1.726-.002-3.124-1.502-3.126-3.354V39.67h18.752v2.235H32.83V39.67h18.752v1.117z" fill="#1358DB"/><path d="M43.61 14.52H11.503c-.7 0-1.267.589-1.267 1.315s.567 1.314 1.267 1.314h32.105c.7 0 1.267-.588 1.267-1.314 0-.726-.567-1.315-1.267-1.315zM43.61 21.157H11.503c-.7 0-1.267.588-1.267 1.314 0 .726.567 1.314 1.267 1.314h32.105c.7 0 1.267-.588 1.267-1.314 0-.726-.567-1.314-1.267-1.314zM25.053 27.793h-13.55c-.699 0-1.266.589-1.266 1.314 0 .726.567 1.315 1.267 1.315h13.549c.7 0 1.266-.589 1.266-1.315 0-.725-.567-1.314-1.266-1.314z" fill="#1358DB"/></svg>