<svg width="48" height="46" fill="none" xmlns="http://www.w3.org/2000/svg"><path clip-rule="evenodd" d="M5.2 14.034h6.266v27.288H5.2V14.034zM15.383 14.034H42.8v6.237H15.383v-6.237z" stroke="#1358DB" stroke-width="1.5" stroke-linejoin="round"/><path clip-rule="evenodd" d="M1.283.78h45.434v44.44H1.283V.78z" stroke="#1358DB" stroke-width="1.5" stroke-linejoin="round"/><path clip-rule="evenodd" d="M8.333 5.458a2.344 2.344 0 01-2.35 2.339 2.344 2.344 0 01-2.35-2.34 2.344 2.344 0 012.35-2.338 2.344 2.344 0 012.35 2.339zM15.383 5.458a2.344 2.344 0 01-2.35 2.339 2.344 2.344 0 01-2.35-2.34 2.344 2.344 0 012.35-2.338 2.344 2.344 0 012.35 2.339zM22.433 5.458a2.344 2.344 0 01-2.35 2.339 2.344 2.344 0 01-2.35-2.34 2.344 2.344 0 012.35-2.338 2.344 2.344 0 012.35 2.339z" stroke="#1358DB" stroke-width="1.5" stroke-linejoin="round"/><path clip-rule="evenodd" d="M1.283.78h45.434v9.356H1.283V.78zM15.383 24.17H42.8v6.237H15.383v-6.238zM15.383 35.085H42.8v6.237H15.383v-6.237z" stroke="#1358DB" stroke-width="1.5" stroke-linejoin="round"/><path fill-rule="evenodd" clip-rule="evenodd" d="M9.116 15.593c0 .43-.35.78-.783.78a.782.782 0 01-.783-.78c0-.43.35-.78.783-.78.433 0 .783.35.783.78zM6.766 17.932c0 .43-.35.78-.783.78a.782.782 0 01-.783-.78c0-.43.35-.78.783-.78.432 0 .783.35.783.78zM11.467 17.932c0 .43-.351.78-.784.78a.782.782 0 01-.783-.78c0-.43.35-.78.783-.78.433 0 .784.35.784.78zM9.116 20.271c0 .43-.35.78-.783.78a.782.782 0 01-.783-.78c0-.43.35-.78.783-.78.433 0 .783.35.783.78zM6.766 22.61c0 .43-.35.78-.783.78a.782.782 0 01-.783-.78c0-.43.35-.78.783-.78.432 0 .783.35.783.78zM11.467 22.61c0 .43-.351.78-.784.78a.782.782 0 01-.783-.78c0-.43.35-.78.783-.78.433 0 .784.35.784.78zM9.116 24.95c0 .43-.35.779-.783.779a.782.782 0 01-.783-.78c0-.43.35-.78.783-.78.433 0 .783.35.783.78zM6.766 27.288c0 .43-.35.78-.783.78a.782.782 0 01-.783-.78c0-.43.35-.78.783-.78.432 0 .783.35.783.78zM11.467 27.288c0 .43-.351.78-.784.78a.782.782 0 01-.783-.78c0-.43.35-.78.783-.78.433 0 .784.35.784.78zM9.116 29.627c0 .43-.35.78-.783.78a.782.782 0 01-.783-.78c0-.43.35-.78.783-.78.433 0 .783.35.783.78zM6.766 31.966c0 .43-.35.78-.783.78a.782.782 0 01-.783-.78c0-.43.35-.78.783-.78.432 0 .783.35.783.78zM11.467 31.966c0 .43-.351.78-.784.78a.782.782 0 01-.783-.78c0-.43.35-.78.783-.78.433 0 .784.35.784.78zM9.116 34.305c0 .43-.35.78-.783.78a.782.782 0 01-.783-.78c0-.43.35-.78.783-.78.433 0 .783.35.783.78zM6.766 36.644c0 .43-.35.78-.783.78a.782.782 0 01-.783-.78c0-.43.35-.78.783-.78.432 0 .783.35.783.78zM11.467 36.644c0 .43-.351.78-.784.78a.782.782 0 01-.783-.78c0-.43.35-.78.783-.78.433 0 .784.35.784.78zM9.116 38.983c0 .43-.35.78-.783.78a.782.782 0 01-.783-.78c0-.43.35-.78.783-.78.433 0 .783.35.783.78zM6.766 41.322c0 .43-.35.78-.783.78a.782.782 0 01-.783-.78c0-.43.35-.78.783-.78.432 0 .783.35.783.78zM11.467 41.322c0 .43-.351.78-.784.78a.782.782 0 01-.783-.78c0-.43.35-.78.783-.78.433 0 .784.35.784.78z" fill="#1358DB"/></svg>