<svg class="animated-icon animated-icon--marketing" xmlns="http://www.w3.org/2000/svg" viewBox="0 0 38 35.95"><style>.cls-9{fill:transparent}.animated-icon__path--marketing{fill:none;stroke:#fff;stroke-linecap:round;stroke-linejoin:round;stroke-width:1.6px;animation:7000ms draw -4200ms infinite}@keyframes draw{0%{stroke-dasharray:82px 82px;stroke-dashoffset:82px}28.57%,57.14%{stroke-dasharray:82px 82px;stroke-dashoffset:0}85.71%,100%{stroke-dasharray:82px 82px;stroke-dashoffset:-82px}}</style><path d="M17 29.92h-3a.76.76 0 0 0 0 1.52h3a.76.76 0 0 0 0-1.52z" fill="#fff"/><path d="M26.76 7.39V2.28A2.27 2.27 0 0 0 24.51 0h-18a2.27 2.27 0 0 0-2.25 2.28v31.44A2.27 2.27 0 0 0 6.51 36h18a2.27 2.27 0 0 0 2.25-2.28V22.94h-1.5v10.78a.76.76 0 0 1-.75.76h-18a.76.76 0 0 1-.75-.76V2.28a.76.76 0 0 1 .75-.76h18a.76.76 0 0 1 .75.76v5.1h1.5z" fill="#fff"/><rect class="cls-9" x="18.5" y="8.19" width="18.08" height="13.95" rx="1.75" ry="1.75" fill="#fff"/><path class="animated-icon__path animated-icon__path--marketing" d="M19.13 8.6a1.74 1.74 0 0 1 1.13-.41h14.58a1.76 1.76 0 0 1 1.75 1.75v10.45a1.76 1.76 0 0 1-1.75 1.75H20.25a1.76 1.76 0 0 1-1.75-1.75V9.94a1.74 1.74 0 0 1 .5-1.22l8.54 5.74 8.55-5.59"/></svg>