<svg width="38" height="45" fill="none" xmlns="http://www.w3.org/2000/svg"><path d="M34.943 8.94h-9.224V2.71c0-1.473-1.127-2.668-2.516-2.668H3.078C1.688.042.563 1.237.563 2.71V41.86c0 1.474 1.126 2.669 2.515 2.669h20.125c1.39 0 2.516-1.195 2.516-2.67V26.735h9.224c1.389 0 2.515-1.195 2.515-2.67V11.609c0-1.474-1.126-2.669-2.515-2.669zm-.725 1.779l-7.66 5.176-7.662-5.176h15.322zm-10.176 31.14c0 .492-.376.89-.839.89H3.078c-.463 0-.838-.398-.838-.89V2.712c0-.492.375-.89.838-.89h20.125c.463 0 .839.398.839.89v6.228h-5.87c-1.39 0-2.516 1.195-2.516 2.67v12.456c0 1.474 1.126 2.669 2.516 2.669h5.87V41.86zm10.9-16.905h-16.77c-.463 0-.839-.398-.839-.89V11.778l8.773 5.924a.798.798 0 00.9 0l8.775-5.924v12.288c0 .491-.375.89-.838.89z" fill="#1358DB"/></svg>