<svg width="45" height="45" fill="none" xmlns="http://www.w3.org/2000/svg"><path d="M9 10.8A5.4 5.4 0 109 0a5.4 5.4 0 000 10.8zm0-9A3.6 3.6 0 119 9a3.6 3.6 0 010-7.2zM18 27.9v-6.3a9 9 0 10-18 0v6.3a2.7 2.7 0 002.7 2.7h.9v9.9a2.7 2.7 0 002.7 2.7h5.4a2.7 2.7 0 002.7-2.7v-9.9h.9a2.7 2.7 0 002.7-2.7zm-1.8 0a.901.901 0 01-.9.9h-.9a1.8 1.8 0 00-1.8 1.8v9.9a.901.901 0 01-.9.9H6.3a.901.901 0 01-.9-.9v-9.9a1.8 1.8 0 00-1.8-1.8h-.9a.901.901 0 01-.9-.9v-6.3a7.2 7.2 0 1114.4 0v6.3zM39.6 27.9V13.5a.9.9 0 10-1.8 0v14.4a.9.9 0 101.8 0zM23.4 27.9v-5.4a.9.9 0 10-1.8 0v5.4a.9.9 0 101.8 0zM34.2 27.9v-9a.9.9 0 10-1.8 0v9a.9.9 0 101.8 0zM28.8 27.9V11.7a.9.9 0 10-1.8 0v16.2a.9.9 0 101.8 0z" fill="#1358DB"/><path d="M42.3 3.6H17.1a.9.9 0 000 1.8h25.2a.901.901 0 01.9.9v25.2a.901.901 0 01-.9.9H17.1a.9.9 0 100 1.8h25.2a2.7 2.7 0 002.7-2.7V6.3a2.7 2.7 0 00-2.7-2.7z" fill="#1358DB"/></svg>