<svg class="animated-icon animated-icon--product" xmlns="http://www.w3.org/2000/svg" xmlns:xlink="http://www.w3.org/1999/xlink" viewBox="0 0 38.1 35.9"><style>.animated-icon__path--product{fill:none;stroke:#fff;stroke-width:1.6;stroke-linecap:round;stroke-linejoin:round;stroke-miterlimit:10}.st1{clip-path:url(#SVGID_2_)}.st2{clip-path:url(#SVGID_4_)}.st3{clip-path:url(#SVGID_6_)}.st4{clip-path:url(#SVGID_8_)}.st5{clip-path:url(#SVGID_10_)}.st6{clip-path:url(#SVGID_12_)}.st7{clip-path:url(#SVGID_16_)}.st8{clip-path:url(#SVGID_18_)}.st9{clip-path:url(#SVGID_22_)}.st10{clip-path:url(#SVGID_24_)}.animated-icon__path--product{stroke-dashoffset:7px;stroke-dasharray:7px}@keyframes draw--product1{0%{animation-timing-function:cubic-bezier(.645,.045,.355,1);stroke-dasharray:21px 7px;stroke-dashoffset:21px}28.57%{stroke-dashoffset:0}57.1399%{stroke-dashoffset:0;stroke-dasharray:21px 7px}57.14%{stroke-dashoffset:0;stroke-dasharray:7px 21px}85.71%{stroke-dashoffset:-21px}to{stroke-dashoffset:-7px;stroke-dasharray:7px 21px}}@keyframes draw--product2{0%{animation-timing-function:cubic-bezier(.645,.045,.355,1);stroke-dasharray:14px 14px;stroke-dashoffset:21px}28.57%{stroke-dashoffset:0}57.1399%{stroke-dasharray:14px 14px;stroke-dashoffset:0}57.14%{stroke-dashoffset:7px;stroke-dasharray:14px 14px}85.71%{stroke-dashoffset:-14px}to{stroke-dasharray:14px 14px;stroke-dashoffset:-14px}}@keyframes draw--product3{0%{animation-timing-function:cubic-bezier(.645,.045,.355,1);stroke-dasharray:7px 21px;stroke-dashoffset:21px}28.57%{stroke-dashoffset:0}57.1399%{stroke-dasharray:7px 21px;stroke-dashoffset:0}57.14%{stroke-dashoffset:14px;stroke-dasharray:21px 21px}85.71%{stroke-dashoffset:-7px}to{stroke-dasharray:21px 21px;stroke-dashoffset:-7px}}.check1{animation:7000ms draw--product1 -2800ms infinite}.check2{animation:7000ms draw--product2 -2800ms infinite}.check3{animation:7000ms draw--product3 -2800ms infinite}</style><defs><path id="SVGID_1_" d="M4.6 6.2h-3V2.3c0-.4.3-.8.8-.8h1.5c.4 0 .7.4.7.8v3.9zm0 27.4c0 .4-.3.8-.7.8H2.3c-.4 0-.8-.4-.8-.8V7.8h3v25.8zM3.8-.1H2.3C1.1-.1.1 1 .1 2.3v31.3c0 1.3 1 2.3 2.2 2.3h1.5C5 35.9 6 34.8 6 33.6V2.3C6.1 1 5-.1 3.8-.1z" fill="#fff"/></defs><clipPath id="SVGID_2_"><use xlink:href="#SVGID_1_" overflow="visible"/></clipPath><g class="st1"><path class="st2" d="M-4.9-5.1h16v46h-16z" fill="#fff"/></g><defs><path id="SVGID_5_" d="M36.5 33.6c0 .4-.3.8-.8.8H12.4c-.4 0-.8-.4-.8-.8V2.3c0-.4.3-.8.8-.8h23.3c.4 0 .8.4.8.8v31.3zM35.7-.1H12.4c-1.3 0-2.3 1.1-2.3 2.3v31.3c0 1.3 1 2.3 2.3 2.3h23.3c1.3 0 2.3-1.1 2.3-2.3V2.3c.1-1.3-1-2.4-2.3-2.4z" fill="#fff"/></defs><clipPath id="SVGID_6_"><use xlink:href="#SVGID_5_" overflow="visible"/></clipPath><g class="st3"><path class="st4" d="M5.1-5.1h38v46h-38z" fill="#fff"/></g><defs><path id="SVGID_9_" d="M32.3 8.9h-9.4c-.4 0-.8.4-.8 1s.4 1 .8 1h9.4c.4 0 .8-.4.8-1s-.4-1-.8-1z" fill="#fff"/></defs><clipPath id="SVGID_10_"><use xlink:href="#SVGID_9_" overflow="visible"/></clipPath><g class="st5"><path class="st6" d="M17.1 3.9h21v12h-21z" fill="#fff"/></g><defs><path id="SVGID_15_" d="M32.3 16.9h-9.4c-.4 0-.8.4-.8 1s.4 1 .8 1h9.4c.4 0 .8-.4.8-1s-.4-1-.8-1z" fill="#fff"/></defs><clipPath id="SVGID_16_"><use xlink:href="#SVGID_15_" overflow="visible"/></clipPath><g class="st7"><path class="st8" d="M17.1 11.9h21v12h-21z" fill="#fff"/></g><defs><path id="SVGID_21_" d="M32.3 24.9h-9.4c-.4 0-.8.4-.8 1s.4 1 .8 1h9.4c.4 0 .8-.4.8-1 0-.5-.4-1-.8-1z" fill="#fff"/></defs><clipPath id="SVGID_22_"><use xlink:href="#SVGID_21_" overflow="visible"/></clipPath><g class="st9"><path class="st10" d="M17.1 19.9h21v12h-21z" fill="#fff"/></g><path class="check1 animated-icon__path animated-icon__path--product" d="M14.8 10.5l1.5 1.7 3-3.5"/><path class="check2 animated-icon__path animated-icon__path--product" d="M14.8 18.5l1.5 1.7 3-3.5"/><path class="check3 animated-icon__path animated-icon__path--product" d="M14.8 26.5l1.5 1.7 3-3.5"/></svg>