<svg xmlns="http://www.w3.org/2000/svg" width="20" height="21"><g stroke="#000" stroke-width=".7" opacity=".5"><path d="M8.389 15.778C4.314 15.778 1 12.463 1 8.388 1 4.315 4.314 1 8.389 1c4.074 0 7.389 3.314 7.389 7.389 0 4.074-3.315 7.389-7.39 7.389zm0-14.074a6.693 6.693 0 0 0-6.685 6.685 6.693 6.693 0 0 0 6.685 6.685c3.686 0 6.685-3 6.685-6.685 0-3.686-3-6.685-6.685-6.685z"/><path d="M19.273 19.853a.353.353 0 0 1-.25-.103l-5.92-6.15a.352.352 0 0 1 .497-.497l5.921 6.15a.352.352 0 0 1-.248.6z"/></g></svg>
