<svg width="34" height="42" fill="none" xmlns="http://www.w3.org/2000/svg"><path fill-rule="evenodd" clip-rule="evenodd" d="M7.562 11.382c0-5.127 4.092-9.285 9.14-9.285 5.048 0 9.14 4.158 9.14 9.285 0 5.128-4.092 9.286-9.14 9.286-5.046-.007-9.133-4.16-9.14-9.286zm13.929 10.013c5.45-2.686 7.723-9.352 5.078-14.889-2.646-5.535-9.206-7.845-14.656-5.158C6.463 4.035 4.19 10.7 6.835 16.236a11.06 11.06 0 005.078 5.159C4.992 23.543.26 30.028.25 37.38v2.785c0 .513.41.929.914.929a.922.922 0 00.914-.928V37.38c0-8.205 6.548-14.855 14.624-14.855 8.077 0 14.624 6.65 14.624 14.855v2.785c0 .513.408.929.914.929a.922.922 0 00.914-.928V37.38c-.01-7.352-4.742-13.837-11.663-15.985z" fill="#1358DB"/></svg>