<svg width="147" height="24" viewBox="0 0 147 24" fill="none" xmlns="http://www.w3.org/2000/svg"><path fill-rule="evenodd" clip-rule="evenodd" d="M36.145 17.236h2.348c1.35 0 3.282-.267 3.282-2.177 0-1.52-1.06-2.053-3.178-2.053h-2.452v4.23zm0-6.449h2.327c1.745 0 2.68-.718 2.68-1.971 0-1.294-.935-1.807-2.909-1.807h-2.098v3.778zm-2.617-5.914h5.733c2.224 0 4.509 1.006 4.509 3.655 0 1.643-1.04 2.732-2.556 3.183v.042c1.85.246 3.18 1.479 3.18 3.43 0 3.162-2.785 4.23-5.569 4.23h-5.297V4.873zM45.952 9.555h2.389v1.643h.041c.54-1.13 1.6-1.93 2.909-1.93.187 0 .436.02.602.061v2.26a2.944 2.944 0 00-.769-.103c-2.243 0-2.68 1.93-2.68 2.65v5.277h-2.492V9.555zM58.75 14.915h-.562c-1.579 0-3.801.185-3.801 1.643 0 .945.893 1.233 1.745 1.233 1.704 0 2.617-.966 2.617-2.526v-.35zm.041 3.245h-.062c-.499.863-1.683 1.5-3.096 1.5-1.6 0-3.74-.76-3.74-3.06 0-2.937 3.74-3.348 6.856-3.348v-.247c0-1.211-1.038-1.807-2.285-1.807-1.06 0-2.077.493-2.721 1.13l-1.289-1.5c1.122-1.026 2.701-1.56 4.218-1.56 3.573 0 4.446 2.177 4.446 4.148v5.997h-2.327V18.16zM63.486 19.413h2.494V9.555h-2.494v9.858zm1.226-14.684c.914 0 1.62.637 1.62 1.479 0 .842-.706 1.478-1.62 1.478-.914 0-1.579-.698-1.579-1.478s.665-1.479 1.58-1.479zM68.431 9.555H70.8v1.582h.041c.437-.986 1.62-1.87 3.096-1.87 2.597 0 3.677 1.972 3.677 3.985v6.16h-2.493V13.95c0-1.17-.27-2.629-1.87-2.629-1.579 0-2.327 1.356-2.327 2.67v5.422h-2.493V9.555zM87.088 7.912c-.561-.719-1.662-1.253-2.7-1.253-1.206 0-2.598.576-2.598 1.992 0 1.336 1.143 1.726 2.805 2.239 1.89.575 4.3 1.397 4.3 4.251 0 3.122-2.472 4.642-5.36 4.642-1.911 0-3.885-.72-5.048-2.075l1.87-1.724c.727.985 2.056 1.601 3.22 1.601 1.225 0 2.659-.595 2.659-2.156 0-1.52-1.537-1.951-3.386-2.526-1.787-.555-3.72-1.417-3.72-4.128 0-2.958 2.723-4.272 5.382-4.272 1.475 0 3.157.514 4.28 1.561l-1.704 1.848zM89.353 11.527V9.555h1.745V6.701h2.451v2.854h2.493v1.972H93.55v4.58c0 .883.208 1.52 1.31 1.52.331 0 .768-.062 1.059-.206L96 19.35c-.436.165-1.101.267-1.662.267-2.639 0-3.241-1.601-3.241-3.49v-4.601h-1.745zM103.833 14.915h-.561c-1.578 0-3.802.185-3.802 1.643 0 .945.894 1.233 1.746 1.233 1.703 0 2.617-.966 2.617-2.526v-.35zm.042 3.245h-.062c-.499.863-1.683 1.5-3.096 1.5-1.6 0-3.74-.76-3.74-3.06 0-2.937 3.74-3.348 6.856-3.348v-.247c0-1.211-1.038-1.807-2.285-1.807-1.06 0-2.078.493-2.721 1.13l-1.288-1.5c1.121-1.026 2.7-1.56 4.217-1.56 3.573 0 4.446 2.177 4.446 4.148v5.997h-2.327V18.16zM107.18 11.527V9.555h1.746V6.701h2.451v2.854h2.493v1.972h-2.493v4.58c0 .883.208 1.52 1.309 1.52.333 0 .769-.062 1.059-.206l.084 1.93c-.436.165-1.101.267-1.663.267-2.638 0-3.24-1.601-3.24-3.49v-4.601h-1.746zM115.74 19.413h2.493V9.555h-2.493v9.858zm1.226-14.684c.914 0 1.621.637 1.621 1.479 0 .842-.707 1.478-1.621 1.478s-1.579-.698-1.579-1.478.665-1.479 1.579-1.479zM125.193 17.647c1.974 0 2.888-1.664 2.888-3.204 0-1.54-.914-3.163-2.888-3.163-1.974 0-2.888 1.623-2.888 3.163 0 1.54.914 3.204 2.888 3.204zm0-8.38c3.012 0 5.423 2.075 5.423 5.176s-2.411 5.258-5.423 5.258c-3.013 0-5.422-2.157-5.422-5.258s2.409-5.175 5.422-5.175zM132.153 9.555h2.369v1.582h.041c.436-.986 1.621-1.87 3.096-1.87 2.596 0 3.677 1.972 3.677 3.985v6.16h-2.493V13.95c0-1.17-.27-2.629-1.87-2.629-1.579 0-2.327 1.356-2.327 2.67v5.422h-2.493V9.555zM9.983 11.375l-7.3-4.26 7.3-4.608v8.868zM2.222 16.4l7.76-3.248.001 7.663L2.222 16.4zm3.828 6.397l-3.882-5.164 7.443 4.21-3.56.954zM1.873 7.894l7.483 4.351-8.107 3.396.624-7.747zm5.47-6.703l1.929.47-5.215 3.286L7.343 1.19zm3.294-.322L7.349.02a.698.698 0 00-.686.213l-5.66 6.502a.789.789 0 00-.188.444l-.743 9.227a.76.76 0 00.146.502l5.106 6.823a.678.678 0 00.719.244l4.6-1.267a.657.657 0 00.488-.632l-.002-9.37.002-11.206a.655.655 0 00-.494-.632zM14.74 12.245l7.484-4.351.623 7.747-8.107-3.396zm3.306 10.552l-3.562-.954 7.444-4.21-3.882 5.164zm-3.932-9.645l7.76 3.248-7.761 4.415v-7.663zm7.3-6.037l-7.3 4.26-.001-8.868 7.3 4.608zm-4.66-5.924l3.286 3.756-5.216-3.285 1.93-.471zm6.34 5.545L17.433.234a.698.698 0 00-.687-.213L13.46.869a.655.655 0 00-.494.632v20.575c0 .295.2.555.488.633l4.6 1.267a.678.678 0 00.72-.244l5.104-6.823a.763.763 0 00.146-.502L23.28 7.18a.79.79 0 00-.188-.444z" fill="#fff"/></svg>