<svg width="52" height="103" fill="none" xmlns="http://www.w3.org/2000/svg"><path d="M0 52a2 2 0 1 1 4 0 2 2 0 0 1-4 0zM24 52a2 2 0 1 1 4 0 2 2 0 0 1-4 0zM48 52a2 2 0 1 1 4 0 2 2 0 0 1-4 0zM0 27a2 2 0 1 1 4 0 2 2 0 0 1-4 0zM24 27a2 2 0 1 1 4 0 2 2 0 0 1-4 0zM48 27a2 2 0 1 1 4 0 2 2 0 0 1-4 0zM0 2a2 2 0 1 1 4 0 2 2 0 0 1-4 0zM24 2a2 2 0 1 1 4 0 2 2 0 0 1-4 0zM48 2a2 2 0 1 1 4 0 2 2 0 0 1-4 0zM24 101a2 2 0 1 1 4 0 2 2 0 0 1-4 0zM0 76a2 2 0 1 1 4 0 2 2 0 0 1-4 0zM24 76a2 2 0 1 1 4 0 2 2 0 0 1-4 0zM48 76a2 2 0 1 1 4 0 2 2 0 0 1-4 0z" fill="#FFCF00"/></svg>