<svg width="114" height="26" viewBox="0 0 114 26" fill="none" xmlns="http://www.w3.org/2000/svg"><path d="M9.971 26v-2.922c3.396 0 6.172-2.775 6.172-6.17 0-3.397-2.776-6.172-6.172-6.172V7.814c5.04 0 9.093 4.09 9.093 9.093S15.011 26 9.971 26z" fill="#fff"/><path d="M10.01 18.222c-5.004 0-9.093-4.09-9.093-9.13C.917 4.054 5.007 0 10.009 0v2.921c-3.396 0-6.171 2.776-6.171 6.172s2.775 6.171 6.171 6.171v2.958zM36.96 10.372a2.944 2.944 0 00-1.023-.84 2.761 2.761 0 00-1.424-.365c-.438 0-.876.11-1.241.292-.365.182-.548.51-.548.95 0 .437.22.73.62.912.402.183 1.023.365 1.827.548.438.11.84.219 1.278.365.438.146.803.365 1.168.62.365.256.621.585.84.95.22.365.329.84.329 1.388 0 .694-.146 1.278-.402 1.753-.255.474-.584.876-1.022 1.168a4.662 4.662 0 01-1.498.657c-.584.146-1.168.183-1.752.183a6.893 6.893 0 01-2.557-.475c-.84-.328-1.497-.767-2.044-1.387l1.862-1.717c.328.402.73.73 1.205 1.023a3.678 3.678 0 001.68.402c.219 0 .401-.037.62-.073a1.612 1.612 0 001.023-.621c.11-.183.146-.365.146-.621 0-.475-.22-.803-.657-1.023-.438-.219-1.06-.401-1.936-.62a12.3 12.3 0 01-1.241-.365c-.402-.147-.767-.33-1.06-.585-.328-.255-.547-.547-.766-.913-.22-.365-.292-.803-.292-1.35 0-.622.146-1.17.401-1.608.256-.438.585-.84 1.023-1.095a5.054 5.054 0 011.424-.657 6.15 6.15 0 011.643-.22c.804 0 1.607.147 2.374.439.767.292 1.388.694 1.826 1.278l-1.826 1.607zM39.992 7.376h3.104l3.14 8.18h.037l2.775-8.18h2.922l-5.332 13.657c-.219.511-.438.986-.657 1.388-.22.402-.511.73-.84 1.022-.329.256-.73.475-1.169.621-.438.146-.985.22-1.606.22-.22 0-.475 0-.73-.037a5.172 5.172 0 01-.73-.146l.218-2.447c.183.073.365.11.548.146.183.037.365.037.511.037.292 0 .548-.037.767-.11.22-.073.365-.183.511-.329.146-.146.256-.328.365-.547.11-.22.22-.475.366-.767l.547-1.424-4.747-11.284zM53.685 7.376h2.666v1.79h.037c.255-.548.694-1.06 1.314-1.497.621-.439 1.352-.658 2.191-.658.73 0 1.352.146 1.9.402.51.256.949.584 1.277 1.022.329.439.585.913.73 1.461.147.548.22 1.096.22 1.68v7.011h-2.812v-6.208c0-.329-.036-.657-.073-1.022a2.825 2.825 0 00-.292-.986c-.146-.292-.365-.511-.658-.73-.255-.183-.62-.293-1.095-.293-.438 0-.84.073-1.169.256a2.46 2.46 0 00-.803.694c-.219.292-.365.62-.475.986-.11.365-.146.73-.146 1.095v6.171h-2.812V7.377zM73.367 17.163h-.074c-.292.511-.73.913-1.35 1.241-.621.33-1.352.475-2.119.475-.438 0-.912-.073-1.424-.182a4.461 4.461 0 01-1.35-.585 3.157 3.157 0 01-1.023-1.059c-.256-.438-.402-.986-.402-1.643 0-.84.256-1.497.73-2.008.475-.512 1.096-.877 1.826-1.132.767-.256 1.57-.439 2.483-.512.913-.073 1.79-.146 2.666-.146v-.292c0-.694-.256-1.205-.767-1.57-.511-.329-1.095-.511-1.826-.511-.584 0-1.168.11-1.716.365-.548.256-.986.548-1.351.913L66.21 8.8a7.28 7.28 0 012.227-1.352 7.679 7.679 0 012.556-.438c.986 0 1.826.146 2.483.438.657.293 1.169.658 1.534 1.096.365.438.62.95.767 1.534.146.547.219 1.132.219 1.68v6.828h-2.63v-1.424zm-.074-3.688h-.62c-.439 0-.913.036-1.424.073-.512.036-.95.11-1.388.255a3.602 3.602 0 00-1.059.548 1.25 1.25 0 00-.438.986c0 .256.073.475.182.657.11.183.256.329.438.439a1.8 1.8 0 00.621.219c.22.036.475.073.694.073.95 0 1.716-.256 2.191-.767.475-.511.767-1.205.767-2.118v-.365h.036zM81 7.376v1.57h.072c.146-.219.329-.438.548-.657.22-.219.511-.438.84-.62a4.902 4.902 0 011.095-.439c.402-.11.877-.183 1.388-.183.803 0 1.534.147 2.191.439a5.31 5.31 0 011.716 1.241c.475.548.877 1.169 1.132 1.863.256.73.402 1.497.402 2.3 0 .84-.146 1.607-.402 2.337a5.749 5.749 0 01-1.095 1.9 4.917 4.917 0 01-1.716 1.277c-.694.329-1.461.475-2.301.475-.803 0-1.534-.146-2.191-.475-.657-.328-1.169-.767-1.534-1.35h-.036v7.12h-2.775V7.376h2.665zm6.572 5.55c0-.438-.073-.876-.182-1.314a4.381 4.381 0 00-.585-1.168 2.944 2.944 0 00-1.022-.84c-.402-.22-.877-.329-1.424-.329-.511 0-.986.11-1.388.329-.402.219-.767.51-1.059.84-.292.328-.511.73-.657 1.168-.146.438-.22.877-.22 1.315 0 .438.074.876.22 1.314.146.439.365.804.657 1.169.292.329.62.62 1.06.84.4.219.876.328 1.387.328.547 0 1.022-.11 1.424-.328.402-.22.73-.511 1.022-.84a3.2 3.2 0 00.585-1.169c.11-.438.182-.876.182-1.314zM98.82 10.37a2.943 2.943 0 00-1.023-.84 2.761 2.761 0 00-1.424-.365c-.438 0-.877.11-1.242.293-.365.182-.547.51-.547.949 0 .438.219.73.62.913.402.182 1.023.365 1.826.548.438.11.84.219 1.278.365.438.146.804.365 1.169.62.365.256.621.585.84.95.219.365.328.84.328 1.388 0 .693-.146 1.278-.401 1.752-.256.475-.585.877-1.023 1.17a4.662 4.662 0 01-1.497.656c-.584.146-1.169.183-1.753.183a6.892 6.892 0 01-2.556-.475c-.84-.328-1.497-.767-2.045-1.387l1.862-1.717c.33.402.73.73 1.206 1.023a3.678 3.678 0 001.68.401c.218 0 .401-.036.62-.073a1.612 1.612 0 001.023-.62c.11-.183.146-.365.146-.621 0-.475-.22-.803-.658-1.023-.438-.219-1.059-.401-1.935-.62-.438-.11-.84-.22-1.242-.366-.401-.146-.767-.328-1.059-.584-.328-.255-.547-.548-.767-.913-.219-.365-.292-.803-.292-1.35 0-.622.147-1.17.402-1.608.256-.438.584-.84 1.023-1.095a5.055 5.055 0 011.424-.657 6.15 6.15 0 011.643-.22c.803 0 1.607.147 2.374.439.766.292 1.387.694 1.825 1.278L98.82 10.37zM113.317 13.11v.365c0 .11 0 .255-.036.365h-8.545c.036.402.146.767.328 1.095.183.329.402.621.731.877.292.255.621.438 1.022.584.365.146.767.22 1.169.22.694 0 1.278-.147 1.789-.402.475-.256.877-.621 1.205-1.06l1.863 1.498c-1.096 1.497-2.703 2.264-4.821 2.264a7.255 7.255 0 01-2.41-.402 5.053 5.053 0 01-1.899-1.168c-.547-.512-.949-1.096-1.278-1.826-.292-.73-.438-1.534-.438-2.483 0-.913.146-1.717.438-2.484a5.714 5.714 0 011.242-1.899 6.01 6.01 0 011.899-1.205 6.186 6.186 0 012.337-.438c.767 0 1.497.146 2.154.402a5.023 5.023 0 011.717 1.132 5.173 5.173 0 011.132 1.899c.255.767.401 1.643.401 2.665zm-2.812-1.242c0-.365-.036-.694-.146-1.023a2.54 2.54 0 00-.474-.876c-.219-.256-.512-.438-.84-.584-.329-.146-.731-.22-1.169-.22-.84 0-1.57.256-2.154.768-.584.51-.913 1.168-.986 1.972h5.769v-.037z" fill="#fff"/></svg>