<svg width="40" height="40" viewBox="0 0 40 40" fill="none" xmlns="http://www.w3.org/2000/svg">
<path fill-rule="evenodd" clip-rule="evenodd" d="M16.4467 18.9581L4.42047 11.8586L16.4481 4.17811L16.4467 18.9581ZM3.66095 27.3329L16.4467 21.9205L16.4481 34.6919L3.66095 27.3329ZM9.96809 37.9948L3.5719 29.3881L15.8352 36.4052L9.96809 37.9948ZM3.08523 13.1562L15.4138 20.4086L2.05856 26.0691L3.08523 13.1562ZM12.0976 1.98477L15.2757 2.76954L6.68333 8.24477L12.0976 1.98477ZM17.5243 1.44811L12.1081 0.0342988C11.7033 -0.0714154 11.2495 0.0728702 10.9771 0.389537L1.65237 11.2272C1.47904 11.4267 1.36285 11.7038 1.34285 11.9662L0.119041 27.3457C0.0961834 27.6343 0.185231 27.9457 0.358564 28.1814L8.77095 39.5538C8.9819 39.8386 9.31761 40 9.66237 40C9.76047 40 9.85904 39.9871 9.95618 39.96L17.5338 37.8476C18.0076 37.7186 18.3381 37.2852 18.3381 36.7948L18.3362 21.1771L18.3381 2.50192C18.3381 2.00716 18.0043 1.5743 17.5243 1.44811Z" fill="#767676"/>
<path fill-rule="evenodd" clip-rule="evenodd" d="M24.2857 20.4086L36.6143 13.1562L37.6409 26.0691L24.2857 20.4086ZM29.7309 37.9948L23.8638 36.4052L36.1276 29.3881L29.7309 37.9948ZM23.2528 21.9205L36.0386 27.3329L23.2514 34.6919L23.2528 21.9205ZM35.279 11.8586L23.2528 18.9581L23.2514 4.17811L35.279 11.8586ZM27.6019 1.98477L33.0162 8.24477L24.4238 2.76954L27.6019 1.98477ZM38.0471 11.2272L28.7224 0.389537C28.45 0.0728702 27.9957 -0.0714154 27.5909 0.0342988L22.1752 1.44811C21.6952 1.5743 21.3614 2.00716 21.3614 2.50192L21.3633 21.1771L21.3614 36.7948C21.3614 37.2852 21.6919 37.7186 22.1657 37.8476L29.7433 39.96C29.84 39.9871 29.9386 40 30.0367 40C30.3814 40 30.7171 39.8386 30.9286 39.5538L39.3405 28.1814C39.5138 27.9457 39.6028 27.6343 39.5805 27.3457L38.3567 11.9662C38.3362 11.7038 38.2205 11.4267 38.0471 11.2272Z" fill="#767676"/>
</svg>
