<svg width="88" height="24" viewBox="0 0 88 24" fill="none" xmlns="http://www.w3.org/2000/svg">
<path d="M64.8359 1.66935C64.8359 0.74744 65.6022 -0.000362396 66.5476 -0.000362396H86.2863C87.2316 -0.000362396 87.9979 0.74744 87.9979 1.66935V21.6389C87.9979 22.5611 87.2316 23.3086 86.2863 23.3086H66.5476C65.6022 23.3086 64.8359 22.5611 64.8359 21.6389V1.66935Z" fill="#767676"/>
<path fill-rule="evenodd" clip-rule="evenodd" d="M0 19.5244H9.66618V16.351H3.49807V4.24351H0V19.5244Z" fill="#767676"/>
<path fill-rule="evenodd" clip-rule="evenodd" d="M14.5607 19.5244V8.99943H11.0623V19.5244H14.5607ZM12.8115 7.56238C14.0315 7.56238 14.7908 6.75415 14.7908 5.74348C14.7681 4.71101 14.0315 3.92552 12.8348 3.92552C11.6379 3.92552 10.8555 4.71101 10.8555 5.74348C10.8555 6.75415 11.6146 7.56238 12.7887 7.56238H12.8114H12.8115Z" fill="#767676"/>
<path fill-rule="evenodd" clip-rule="evenodd" d="M16.1842 19.5244H19.6826V13.6466C19.6826 13.3321 19.7054 13.0178 19.7979 12.7929C20.0506 12.1647 20.6262 11.5138 21.5927 11.5138C22.8587 11.5138 23.3652 12.4793 23.3652 13.8933V19.5244H26.8632V13.4894C26.8632 10.2565 25.1372 8.75213 22.8355 8.75213C20.9483 8.75213 20.1197 9.80703 19.6593 10.5256H19.6827V8.99943H16.1843C16.2302 9.98705 16.1843 19.5244 16.1843 19.5244H16.1842Z" fill="#767676"/>
<path fill-rule="evenodd" clip-rule="evenodd" d="M31.7993 4.24351H28.3008V19.5244H31.7993V16.1121L32.6736 15.0114L35.4125 19.5244H39.7162L35.1134 12.991L39.141 8.54595H34.9294C34.9294 8.54595 32.0525 12.5229 31.7993 12.9945V4.24351Z" fill="#767676"/>
<path fill-rule="evenodd" clip-rule="evenodd" d="M49.0711 15.1335C49.117 14.8632 49.1862 14.3446 49.1862 13.7585C49.1862 11.0376 47.805 8.27562 44.1689 8.27562C40.2792 8.27562 38.4841 11.3519 38.4841 14.1419C38.4841 17.5928 40.6705 19.748 44.491 19.748C46.0101 19.748 47.4138 19.5238 48.5647 19.0523L48.1042 16.7419C47.1607 17.0549 46.1941 17.2112 44.9974 17.2112C43.3633 17.2112 41.9365 16.5407 41.8212 15.1111L49.0711 15.1329V15.1335ZM41.7984 12.7668C41.8905 11.8686 42.4889 10.5436 43.9849 10.5436C45.5725 10.5436 45.941 11.9586 45.941 12.7668H41.7984Z" fill="#767676"/>
<path fill-rule="evenodd" clip-rule="evenodd" d="M57.8212 4.24262V9.53237H57.7753C57.2688 8.79204 56.2099 8.29808 54.8064 8.29808C52.1134 8.29808 49.743 10.4533 49.7658 14.135C49.7658 17.548 51.9063 19.7705 54.576 19.7705C56.0259 19.7705 57.4068 19.1417 58.0972 17.9292H58.1664L58.3045 19.5235H61.4117C61.3656 18.7826 61.3193 17.5028 61.3193 16.2458V4.24262H57.8212ZM57.8212 14.6518C57.8212 14.9208 57.7981 15.1906 57.752 15.4148C57.5451 16.3803 56.7163 17.0537 55.704 17.0537C54.2539 17.0537 53.3103 15.8864 53.3103 14.0453C53.3103 12.3168 54.116 10.9249 55.7268 10.9249C56.8083 10.9249 57.568 11.6655 57.7753 12.5859C57.8212 12.7883 57.8212 13.0129 57.8212 13.2147V14.6518Z" fill="#767676"/>
<path fill-rule="evenodd" clip-rule="evenodd" d="M71.8615 19.5117V8.98642H68.3631V19.5117H71.8615ZM70.1122 7.54937C71.3322 7.54937 72.0915 6.74114 72.0915 5.7311C72.0688 4.69831 71.3322 3.91251 70.1354 3.91251C68.9387 3.91251 68.1562 4.69831 68.1562 5.7311C68.1562 6.74114 68.9154 7.54937 70.0894 7.54937H70.1122H70.1122Z" fill="white"/>
<path fill-rule="evenodd" clip-rule="evenodd" d="M73.7927 19.512H77.2911V13.6342C77.2911 13.3196 77.3138 13.0054 77.4062 12.7805C77.6591 12.152 78.2348 11.501 79.2012 11.501C80.4671 11.501 80.9735 12.4662 80.9735 13.8812V19.512H84.4716V13.4769C84.4716 10.244 82.7457 8.73968 80.444 8.73968C78.5567 8.73968 77.7282 9.79458 77.2678 10.5131H77.2912V8.98666H73.7928C73.8387 9.97429 73.7928 19.512 73.7928 19.512H73.7927Z" fill="white"/>
</svg>
