<?xml version="1.0" encoding="UTF-8"?>
<svg width="100px" height="70px" viewBox="0 0 100 70" version="1.1" xmlns="http://www.w3.org/2000/svg" xmlns:xlink="http://www.w3.org/1999/xlink">
    <title>Path</title>
    <g id="Page-1" stroke="none" stroke-width="1" fill="none" fill-rule="evenodd">
        <path d="M48.1,67.8528094 C61.8,63.6528094 76.6,50.6528094 85.5,34.8528094 C88.6,29.3528094 100,2.25280937 100,0.352809373 C100,-0.0471906265 97.9,0.252809373 95.3,1.05280937 C92.1,2.05280937 83,2.85280937 68,3.35280937 C45.4,4.25280937 38.7,5.05280937 29.5,8.05280937 C12.4,13.5528094 2,24.2528094 0.4,38.0528094 C-0.4,44.6528094 1.2,49.3528094 6.1,54.2528094 L10.1,58.2528094 L16.8,55.8528094 C27.1,52.3528094 34.6,48.7528094 41.8,43.9528094 C48.3,39.6528094 57,31.5528094 54,32.5528094 C53.2,32.8528094 46.6,35.6528094 39.3,38.7528094 C24.6,45.0528094 15.9,47.4528094 13.2,45.7528094 C10.4,43.9528094 9.5,39.9528094 10.9,35.3528094 C14.4,23.4528094 29.5,16.0528094 55.5,13.4528094 C66.7,12.3528094 86,11.9528094 86,12.8528094 C86,13.1528094 84.9,16.0528094 83.6,19.3528094 C78.3,32.3528094 65.6,47.7528094 54.1,55.1528094 C44.7,61.2528094 39.2,62.8528094 27.3,62.8528094 C21.8,62.8528094 17.4,63.1528094 17.7,63.6528094 C18.7,65.3528094 26.2,68.4528094 31.2,69.1528094 C37.3,70.1528094 41.6,69.7528094 48.1,67.8528094 Z" id="Path" fill="#000000" fill-rule="nonzero" transform="translate(50.101991, 34.930229) scale(1, -1) translate(-50.101991, -34.930229) "></path>
    </g>
</svg>