<?xml version="1.0" encoding="UTF-8"?>
<svg width="577px" height="260px" viewBox="0 0 577 260" version="1.1" xmlns="http://www.w3.org/2000/svg" xmlns:xlink="http://www.w3.org/1999/xlink">
    <title>Shapes</title>
    <g id="Page-1" stroke="none" stroke-width="1" fill="none" fill-rule="evenodd">
        <g id="Shapes" fill="#000000" fill-rule="nonzero">
            <path d="M537.298,162.142 L537.818,156.968 L537.09,156.916 C536.362,160.504 535.426,161.362 532.15,161.362 L528.042,161.362 L528.042,152.756 L530.72,152.756 C532.254,152.756 533.268,152.964 533.658,153.354 C534.022,153.744 534.204,154.238 534.386,155.434 L535.114,155.434 L535.114,149.324 L534.386,149.324 C534.107944,151.548444 533.633284,151.954293 530.95501,151.975124 L528.042,151.976 L528.042,144.072 L531.63,144.072 C534.958,144.072 535.92,144.852 536.544,147.998 L537.298,147.946 L536.882,143.292 L523.752,143.292 L523.752,143.916 C524.948,143.916 525.416,144.124 525.598,144.67 C525.676,144.904 525.676,144.93 525.728,146.594 L525.728,158.84 C525.676,160.79 525.676,160.816 525.39,161.128 C525.156,161.388 524.636,161.518 523.752,161.518 L523.752,162.142 L537.298,162.142 Z M546.84,162.454 C548.556,162.454 549.986,161.986 551.078,161.024 C552.066,160.192 552.56,159.022 552.56,157.488 C552.56,156.292 552.352,155.434 551.832,154.628 C551.104,153.484 549.882,152.626 546.632,151.092 C543.538,149.636 542.706,148.778 542.706,147.062 C542.706,146.204 542.992,145.398 543.46,144.8 C544.084,144.072 544.968,143.708 546.216,143.708 C547.906,143.708 549.232,144.358 549.96,145.554 C550.376,146.256 550.584,147.01 550.688,148.284 L551.546,148.284 L551.702,143.162 C551,143.422 550.532,143.552 550.142,143.552 C549.882,143.552 549.57,143.5 549.18,143.422 C547.542,143.032 547.1,142.98 546.112,142.98 C544.552,142.98 543.382,143.37 542.394,144.228 C541.328,145.164 540.756,146.464 540.756,147.998 C540.756,149.246 541.146,150.26 541.9,151.066 C542.628,151.846 543.434,152.34 545.644,153.406 C549.518,155.278 550.48,156.266 550.48,158.32 C550.48,160.452 549.076,161.7 546.71,161.7 C544.994,161.7 543.642,161.18 542.81,160.218 C542.108,159.386 541.848,158.554 541.744,156.942 L540.886,156.942 L540.704,162.194 C541.614,162.012 542.082,161.934 542.498,161.934 C542.758,161.934 543.044,161.96 543.356,162.012 C545.176,162.376 545.826,162.454 546.84,162.454 Z M566.028,162.142 L566.028,161.492 C564.988,161.492 564.312,161.388 564.052,161.154 C563.707158,160.883053 563.595668,160.425424 563.584887,159.073689 L563.584,143.916 C568.264,143.968 568.992,144.566 569.668,148.804 L570.5,148.752 L570.032,143.292 L554.744,143.292 L554.276,148.752 L555.108,148.804 C555.758,144.566 556.512,143.968 561.166,143.916 L561.166,158.84 C561.166,160.296 561.088,160.816 560.75,161.102 C560.49,161.362 559.866,161.492 558.748,161.492 L558.748,162.142 L566.028,162.142 Z M572.918,162.48 C573.958,162.48 574.738,161.674 574.738,160.634 C574.738,159.594 573.958,158.814 572.918,158.814 C571.852,158.814 571.072,159.594 571.072,160.634 C571.072,161.674 571.852,162.48 572.918,162.48 Z M503.24,199.68 L504.32,192.72 L503.12,192.44 C502.32,195.8 501.32,196.68 498.44,196.68 L486.88,196.68 C487.6,194.56 488.4,193.32 490.16,191.6 C491.92,189.88 493,189.08 498,186 C502.44,183.28 503.92,181.24 503.92,177.92 C503.92,176.08 503.52,174.84 502.64,173.68 C501.12,171.76 498.32,170.68 494.96,170.68 C489.6,170.68 485.6,173.76 485.6,177.88 C485.6,179.04 486.16,179.52 487.64,179.52 C489.04,179.52 489.48,179.16 489.56,177.8 C489.64,176.24 489.72,175.68 489.96,174.88 C490.64,172.88 492.36,171.76 494.72,171.76 C497.96,171.76 500.16,174.04 500.16,177.4 C500.16,178.6 499.88,179.72 499.28,180.76 C498.72,181.68 497.88,182.56 496.24,183.88 C491.12,188.04 489.44,189.64 487.88,191.88 C486.24,194.16 485.4,196.44 484.92,199.68 L503.24,199.68 Z M518.2,200.28 C521.56,200.28 524.44,198.64 525.92,195.84 C527.4,193.08 528.2,189.44 528.2,185.48 C528.2,181.52 527.4,177.84 525.92,175.12 C524.44,172.32 521.56,170.68 518.2,170.68 C514.8,170.68 511.92,172.32 510.44,175.12 C508.96,177.92 508.16,181.52 508.16,185.48 C508.16,189.4 508.96,193.08 510.44,195.84 C511.92,198.6 514.8,200.28 518.2,200.28 Z M518.2,199.24 C513.92,199.24 512.04,195.04 512.04,185.52 C512.04,175.96 513.92,171.72 518.2,171.72 C522.48,171.72 524.36,175.92 524.36,185.48 C524.36,195.04 522.48,199.24 518.2,199.24 Z M541.72,200.28 C545.08,200.28 547.96,198.64 549.44,195.84 C550.92,193.08 551.72,189.44 551.72,185.48 C551.72,181.52 550.92,177.84 549.44,175.12 C547.96,172.32 545.08,170.68 541.72,170.68 C538.32,170.68 535.44,172.32 533.96,175.12 C532.48,177.92 531.68,181.52 531.68,185.48 C531.68,189.4 532.48,193.08 533.96,195.84 C535.44,198.6 538.32,200.28 541.72,200.28 Z M541.72,199.24 C537.44,199.24 535.56,195.04 535.56,185.52 C535.56,175.96 537.44,171.72 541.72,171.72 C546,171.72 547.88,175.92 547.88,185.48 C547.88,195.04 546,199.24 541.72,199.24 Z M563.16,200.36 C565.04,200.36 565.6,199.92 565.64,198.44 C565.8,195.76 565.92,194.68 566.4,192.6 C566.96,190.24 567.8,187.6 568.84,185.04 C570.52,180.84 572.56,177 574.92,173.64 L574.92,171.28 L556.68,171.28 L555.56,179.28 L556.8,179.36 C557.16,177.72 557.52,176.72 557.92,175.96 C558.68,174.64 559.36,174.32 561.24,174.32 L572.64,174.32 C566.48,184.12 561.28,195.4 561.28,199 C561.28,199.92 561.88,200.36 563.16,200.36 Z" id="EST.2007"></path>
            <path d="M424.395133,204.524628 C435.377535,201.140827 447.241736,190.66716 454.37629,177.937626 C456.861359,173.506459 466,151.67289 466,150.142123 C466,149.819857 464.316566,150.061557 462.232315,150.70609 C459.667082,151.511757 452.372202,152.15629 440.347674,152.559124 C422.230718,153.284224 416.859762,153.928757 409.484719,156.345757 C395.776757,160.776924 387.439751,169.397558 386.157134,180.515759 C385.515826,185.83316 386.798442,189.619793 390.726455,193.56756 L393.932996,196.790227 L399.303952,194.856627 C407.560794,192.036793 413.573058,189.136393 419.344832,185.269193 C424.55546,181.804826 431.529687,175.278925 429.124781,176.084592 C428.483473,176.326292 423.19268,178.582159 417.340744,181.079726 C405.556706,186.155426 398.58248,188.089026 396.418065,186.719393 C394.173486,185.269193 393.452015,182.046526 394.574304,178.340459 C397.380027,168.753025 409.484719,162.791091 430.327234,160.696358 C439.305548,159.810124 454.777107,159.487857 454.777107,160.212958 C454.777107,160.454658 453.895309,162.791091 452.853183,165.449791 C448.604516,175.923459 438.423749,188.330726 429.204944,194.29266 C421.669574,199.207227 417.26058,200.496294 407.721121,200.496294 C403.312128,200.496294 399.784933,200.737994 400.025423,201.140827 C400.827058,202.510461 406.839322,205.008028 410.847498,205.571994 C415.737473,206.377661 419.184504,206.055395 424.395133,204.524628 Z" id="leaf" transform="translate(426.000000, 178.000000) scale(-1, 1) rotate(180.000000) translate(-426.000000, -178.000000) "></path>
            <path d="M231.5,204 C240.9,204 247,198.1 247,188.9 C247,185 245.8,181.7 243.7,179.4 C241.4,176.9 238.9,175.4 232.2,172.6 C226.425,170.15 224.248437,169.078125 222.52168,167.910547 L222.27772,167.74294 C222.116667,167.630556 221.958333,167.516667 221.8,167.4 C220,166.1 219.1,164.3 219.1,162 C219.1,156.6 223.1,153.1 229.3,153.1 C236.6,153.1 241,158.4 241.2,167.3 L244.5,167.3 L245,151.5 C243,152 241.4,152.2 240.2,152.2 C239.6,152.2 238.9,152.1 238.1,152 C232.7,151 231.4,150.8 228.8,150.8 C223.8,150.8 219.1,152.9 216.4,156.5 C214.7,158.8 213.7,162.2 213.7,165.7 C213.7,172.5 217,176.1 227.8,180.8 C232.35,182.8 234.7,183.825 236.1375,184.5375 L236.389095,184.663749 C237.155787,185.053569 237.645855,185.353105 238.105034,185.688805 L238.249297,185.796166 L238.249297,185.796166 L238.393227,185.906815 C238.585675,186.056933 238.781818,186.218182 239,186.4 C240.5,187.7 241.4,189.9 241.4,192.2 C241.4,198.1 237.3,201.6 230.5,201.6 C225.9,201.6 222.2,199.8 219.6,196.2 C217.9,194 217.2,191.6 216.8,186.9 L213.7,186.9 L213.3,202.9 C215.3,202.6 216.7,202.5 217.8,202.5 C218.9,202.5 220.1,202.6 221.5,202.8 C227.4,203.8 228.7,204 231.5,204 Z M267.1,141.2 C270.2,141.2 272.7,138.7 272.7,135.5 C272.7,132.4 270.2,129.9 267.1,129.9 C263.9,129.9 261.4,132.4 261.4,135.5 C261.4,138.7 263.9,141.2 267.1,141.2 Z M278.7,202.7 L278.7,200.5 C272.082716,200.302469 271.513291,199.519662 271.500239,190.540573 L271.5,169.8 C271.5,165.6 271.8,156.9 272.1,151.1 L255.9,152.2 L255.9,154.4 C259.4,154.4 261,154.6 261.8,155.3 C262.9,156.2 263.3,158.5 263.3,163.5 L263.3,190.2 C263.3,199.5 262.8,200.3 255.9,200.5 L255.9,202.7 L278.7,202.7 Z M303.9,203.8 C307.5,203.8 310.7,203 314,201.3 L313.1,198.7 C310.9,200 309,200.5 306.8,200.5 C304.5,200.5 302.9,199.8 301.9,198.4 C300.92381,197.033333 300.614683,194.523129 300.600516,188.915845 L300.6,154.9 L312.6,154.9 L312.6,152.2 L300.6,152.2 C300.6,146.877419 300.665036,143.375858 300.795109,139.964509 L300.827575,139.146632 C300.850052,138.601353 300.874194,138.054839 300.9,137.5 L296.3,138.8 C294.8,148.2 291.8,152.1 285.9,152.6 L285.9,154.9 L292.2,154.9 L292.2,187.3 C292.2,194.7 292.5,196.9 293.6,198.9 C295.3,202.1 299,203.8 303.9,203.8 Z M344.6,204 C354.4,204 361.2,199.7 365.7,190.5 L363.4,189.2 C359.4,196.8 354,200.5 346.9,200.5 C339.7,200.5 334.8,196.9 331.9,189.5 C330.3,185.4 329.7,181.4 329.6,174.5 L364.9,174.5 C364.7,168.6 364.3,166.2 363.3,163.5 C360.2,155.4 353.3,150.8 344.2,150.8 C330.1,150.8 320.5,161.9 320.5,178.1 C320.5,193.4 330.3,204 344.6,204 Z M356.2,171.8 L329.8,171.8 C330.4,166.6 331,164 332.5,161.1 C335.2,156 339.2,153.3 344,153.3 C348.7,153.3 352.1,155.8 354.3,160.7 C355.6,163.6 356.1,166.5 356.2,171.8 Z" id="site"></path>
            <path d="M196.5,116.1 C210.4,116.1 219,105.5 219,88.5 C219,72.8 210.7,62.8 197.7,62.8 C190.5,62.8 185.4,65.9 181.5,72.6 L181.5,61.4 C181.5,56.2 181.7,48.1 182.1,41.4 L166,42.2 L166,44.4 C172.9,44.5 173.3,45 173.3,53.5 L173.3,97 L173.299999,97.486861 L173.299999,97.486861 L173.299025,102.132856 C173.298943,102.255244 173.298855,102.376068 173.29876,102.495359 L173.298095,103.192933 C173.289712,110.668999 173.244444,111.722222 173,114.9 L175.7,114.9 L179.7,108.7 C185.2,114 190,116.1 196.5,116.1 Z M195.8,113.8 C190.8,113.8 186.4,111.2 184.2,106.9 C182.1,103 181.1,97.6 181.1,90.4 C181.1,74.7 186.8,65.5 196.4,65.5 C205.2,65.5 209.7,73.7 209.7,89.7 C209.7,105.6 205,113.8 195.8,113.8 Z M253.1,116 C262.9,116 269.7,111.7 274.2,102.5 L271.9,101.2 C267.9,108.8 262.5,112.5 255.4,112.5 C248.2,112.5 243.3,108.9 240.4,101.5 C238.8,97.4 238.2,93.4 238.1,86.5 L273.4,86.5 C273.2,80.6 272.8,78.2 271.8,75.5 C268.7,67.4 261.8,62.8 252.7,62.8 C238.6,62.8 229,73.9 229,90.1 C229,105.4 238.8,116 253.1,116 Z M264.7,83.8 L238.3,83.8 C238.9,78.6 239.5,76 241,73.1 C243.7,68 247.7,65.3 252.5,65.3 C257.2,65.3 260.6,67.8 262.8,72.7 C264.1,75.6 264.6,78.5 264.7,83.8 Z M296.5,115.8 C301.6,115.8 305.1,114.7 309.5,111.5 C311.5,110.1 312.8,109 314.4,107.2 C314.8,113.9 315.6,115.5 318.6,115.5 C320.6,115.5 325,115.1 328.9,114.5 L328.9,112.4 C325.1,112.4 323.9,112.1 323.3,111.3 C322.7,110.5 322.2,106.9 322.2,102.7 L322.3,98.1 L322.4,88.6 C322.558333,80.8416667 322.591319,79.2253472 322.598192,78.7397642 L322.598823,78.69261 C322.598913,78.6853749 322.598997,78.6784336 322.599074,78.6717593 L322.599999,78.5123534 C322.6,78.5082755 322.6,78.5041667 322.6,78.5 C322.6,73 321.7,69.7 319.7,67.2 C317.3,64.3 312.7,62.8 306.3,62.8 C300.4,62.8 295.5,63.9 291.7,66 C287.5,68.4 284.9,72 284.9,75.6 C284.9,77.7 286.4,78.6 289.8,78.6 C291.3,78.6 292.6,78.3 293.3,77.8 C294.1,77.2 294.3,76.5 294.4,74.4 C294.8,68.2 298.2,65.2 304.8,65.2 C308.9,65.2 311.7,66.5 313,69.1 C314,71.2 314.4,73.6 314.4,78.2 L314.4,84.5 C307.1,85 301.8,85.7 296.6,86.9 C286.9,89.1 281.9,94.2 281.9,102.1 C281.9,106.3 283.6,110.3 286.3,112.7 C288.8,114.8 292.1,115.8 296.5,115.8 Z M299.3,112.4 C294.3,112.4 290.9,108.1 290.9,101.8 C290.9,96.5 293.2,92.5 297.6,90.4 C301.6,88.4 305.5,87.6 314.4,86.8 L314.4,91.5 C314.4,98.1 313.7,102.3 312.1,105.1 C309.6,109.4 304.4,112.4 299.3,112.4 Z M355.7,115.9 C363.1,115.9 369.6,111.9 373.5,105.1 C373.5,110 373.7,113 374,115.4 L388.6,114.7 L388.6,112.5 L387.9,112.5 C382.768421,112.5 381.824429,110.747057 381.800475,101.090492 L381.8,81.8 C381.8,77.3 382,70.7 382.3,63.2 L366.8,64.2 L366.8,66.4 L368.6,66.4 C370.4,66.5 371.4,66.8 372,67.4 C373.2,68.3 373.5,70.2 373.5,75.5 L373.5,90.9 C373.5,97.1 373.2,99.3 371.7,102.7 C369.1,108.8 364.2,112.4 358.7,112.4 C354.6,112.4 351.8,110.5 350.6,106.8 C350.498305,106.50339 350.403792,106.212525 350.315974,105.922415 L350.213775,105.574326 C349.388374,102.671278 349.212991,99.6440702 349.200721,91.5019281 L349.200566,80.942716 C349.209235,74.6832503 349.321277,72.1042553 349.8,63.2 L334.3,64.2 L334.3,66.4 L336.1,66.4 L336.1,66.4 C338,66.5 338.9,66.7 339.5,67.3 C340.6,68.2 341,70.3 341,75.5 L341,92 C341,100.7 341.4,104.8 342.4,107.5 C344.4,112.8 349.3,115.9 355.7,115.9 Z M413.3,115.8 C416.9,115.8 420.1,115 423.4,113.3 L422.5,110.7 C420.3,112 418.4,112.5 416.2,112.5 C413.9,112.5 412.3,111.8 411.3,110.4 C410.32381,109.033333 410.014683,106.523129 410.000516,100.915845 L410,66.9 L422,66.9 L422,64.2 L410,64.2 C410,58.8774194 410.065036,55.3758585 410.195109,51.9645094 L410.227575,51.1466315 C410.250052,50.6013528 410.274194,50.0548387 410.3,49.5 L405.7,50.8 C404.2,60.2 401.2,64.1 395.3,64.6 L395.3,66.9 L401.6,66.9 L401.6,99.3 C401.6,106.7 401.9,108.9 403,110.9 C404.7,114.1 408.4,115.8 413.3,115.8 Z M439.6,53.2 C442.7,53.2 445.2,50.7 445.2,47.5 C445.2,44.4 442.7,41.9 439.6,41.9 C436.4,41.9 433.9,44.4 433.9,47.5 C433.9,50.7 436.4,53.2 439.6,53.2 Z M451.2,114.7 L451.2,112.5 C444.582716,112.302469 444.013291,111.519662 444.000239,102.540573 L444,81.8 C444,77.6 444.3,68.9 444.6,63.1 L428.4,64.2 L428.4,66.4 C431.9,66.4 433.5,66.6 434.3,67.3 C435.4,68.2 435.8,70.5 435.8,75.5 L435.8,102.2 C435.8,111.5 435.3,112.3 428.4,112.5 L428.4,114.7 L451.2,114.7 Z M481.3,114.7 L481.3,112.5 C474.087952,112.30241 473.41543,111.51919 473.400272,102.532457 L473.4,66.9 L486.7,66.9 L486.7,64.2 L473.4,64.2 C473.4,62.6 473.3,61.3 473.3,60.3 C473.221053,56.5105263 473.204432,55.0894737 473.200933,53.9210089 L473.2,53 L473.2,53 C473.2,46.5 475.2,43.3 479.1,43.3 C482,43.3 483.3,44.5 483.8,47.6 C484.3,50.3 484.3,50.3 484.9,50.9 C485.5,51.4 486.7,51.8 488.2,51.8 C491.2,51.8 493.1,50.6 493.1,48.6 C493.1,44.4 487.6,41.2 480.5,41.2 C475.8,41.2 471.4,42.7 468.7,45.2 C466,47.7 465,50.4 465,54.9 C465,56.7 465.1,60.3 465.2,64.2 L457.5,64.2 L457.5,66.9 L465.2,66.9 L465.2,102.2 C465.2,111.5 464.7,112.3 458,112.5 L458,114.7 L481.3,114.7 Z M510.9,115.9 C518.3,115.9 524.8,111.9 528.7,105.1 C528.7,110 528.9,113 529.2,115.4 L543.8,114.7 L543.8,112.5 L543.1,112.5 C537.968421,112.5 537.024429,110.747057 537.000475,101.090492 L537,81.8 C537,77.3 537.2,70.7 537.5,63.2 L522,64.2 L522,66.4 L523.8,66.4 C525.6,66.5 526.6,66.8 527.2,67.4 C528.4,68.3 528.7,70.2 528.7,75.5 L528.7,90.9 C528.7,97.1 528.4,99.3 526.9,102.7 C524.3,108.8 519.4,112.4 513.9,112.4 C509.8,112.4 507,110.5 505.8,106.8 C505.698305,106.50339 505.603792,106.212525 505.515974,105.922415 L505.413775,105.574326 C504.588374,102.671278 504.412991,99.6440702 504.400721,91.5019281 L504.400566,80.942716 C504.409235,74.6832503 504.521277,72.1042553 505,63.2 L489.5,64.2 L489.5,66.4 L491.3,66.4 L491.3,66.4 C493.2,66.5 494.1,66.7 494.7,67.3 C495.8,68.2 496.2,70.3 496.2,75.5 L496.2,92 C496.2,100.7 496.6,104.8 497.6,107.5 C499.6,112.8 504.5,115.9 510.9,115.9 Z M572.9,114.7 L572.9,112.5 C566.282716,112.302469 565.713291,111.519662 565.700239,102.540573 L565.7,61.4 C565.7,56.1 565.9,48.1 566.3,41.4 L550.3,42.2 L550.3,44.4 C553.7,44.5 555.2,44.7 555.9,45.3 C557,46.2 557.4,48.6 557.4,53.5 L557.4,102.2 C557.4,111.5 556.9,112.3 550.3,112.5 L550.3,114.7 L572.9,114.7 Z" id="beautiful"></path>
            <path d="M63.18,220.42 L63.18,213.92 C48.1,213.4 41.34,209.24 41.34,199.88 C41.34,194.94 43.16,186.88 46.28,178.56 L54.6,155.16 L127.14,155.16 L138.06,187.92 C140.14,194.42 141.18,199.62 141.18,202.74 C141.18,210.28 135.72,213.4 122.46,213.92 L122.46,220.42 L189.54,220.42 L189.54,213.92 C174.46,213.4 169.52,208.46 162.24,187.14 L107.12,30.1 L91,31.92 L35.62,178.56 C25.74,204.82 17.16,213.92 2.34,213.92 L2.34,220.42 L63.18,220.42 Z M123.76,145.54 L58.24,145.54 L92.04,54.54 L123.76,145.54 Z" id="A"></path>
        </g>
    </g>
</svg>