<svg xmlns="http://www.w3.org/2000/svg" width="64" height="57" viewBox="0 0 64 57">
    <g fill="none" fill-rule="evenodd">
        <path fill="#4A9CEA" fill-rule="nonzero" d="M63.683 13.118L50.891.32a1.057 1.057 0 0 0-.758-.32H4.267C1.915 0 0 1.932 0 4.307V43.07c0 2.375 1.915 4.307 4.267 4.307h55.466c2.352 0 4.267-1.932 4.267-4.307V13.998v-.116c0-.287-.115-.563-.317-.764zM22.4 8.614h19.2c.59 0 1.067.482 1.067 1.077s-.477 1.076-1.067 1.076H22.4c-.59 0-1.067-.481-1.067-1.076 0-.595.477-1.077 1.067-1.077zm7.233 23.284c-5.435 6.865-6.787 6.865-7.233 6.865-1.37 0-2.137-1.565-2.877-3.08-.077-.155-.165-.337-.256-.516-.03.068-.057.134-.082.195-.595 1.435-1.41 3.4-3.185 3.4-1.081 0-2.375-.796-3.515-2.03a28.233 28.233 0 0 1-2.256 1.824 1.064 1.064 0 0 1-1.492-.236 1.084 1.084 0 0 1 .234-1.504 25.348 25.348 0 0 0 2.212-1.799c-.906-1.455-1.54-3.172-1.583-4.84-.017-.686.058-2.401 1.137-3.497.555-.565 1.278-.852 2.086-.836 3.087.064 3.152 3.128 3.177 4.28.04 1.934-.815 3.62-2.033 5.078.779.868 1.573 1.407 2.033 1.407.235 0 .646-.699 1.217-2.078.496-1.195.923-2.228 1.983-2.228 1.048 0 1.57 1.072 2.235 2.427.257.523.703 1.435 1.013 1.795.969-.621 3.53-3.46 5.519-5.97a1.064 1.064 0 0 1 1.5-.17c.46.372.533 1.05.166 1.513zm7.7-8.21H20.267c-.59 0-1.067-.481-1.067-1.076 0-.596.477-1.077 1.067-1.077h17.066c.59 0 1.067.481 1.067 1.077 0 .595-.477 1.076-1.067 1.076zm8.534-6.46H9.6c-.59 0-1.067-.482-1.067-1.077s.477-1.077 1.067-1.077h36.267c.59 0 1.066.482 1.066 1.077s-.477 1.077-1.066 1.077z"/>
        <path fill="#4A9CEA" fill-rule="nonzero" d="M12.857 28.26h-.027c-.25 0-.428.055-.588.186-.392.316-.63 1.014-.604 1.78.034 1.065.482 2.109 1.107 3.02.856-.916 1.413-1.913 1.384-2.972-.054-1.995-.618-2.004-1.272-2.014z"/>
        <g transform="translate(37.153 27.678)">
            <path fill="#E62D2D" stroke="#DD2E23" stroke-linejoin="round" stroke-width="2" d="M10.28 22.673a1.158 1.158 0 0 0-1.645 0L3.64 27.698V14.565a10.36 10.36 0 0 0 5.816 1.783c2.152 0 4.151-.659 5.816-1.783v13.133l-4.993-5.025z"/>
            <circle cx="9.558" cy="9.558" r="9.558" fill="#FFC504"/>
        </g>
        <path fill="#1A6ACC" d="M50.701 10.207V.17l13.13 13.128H53.766c-1.691 0-3.065-1.388-3.065-3.092z"/>
    </g>
</svg>
