<svg xmlns="http://www.w3.org/2000/svg" width="635" height="328" fill="none" viewBox="0 0 635 328"><g opacity=".25"><g fill="#959FB2" opacity=".7"><path fill-rule="evenodd" d="M165.862 195.765L108.705 1.748l-184.746 129.94 241.903 64.077zm35.819 87.451l101.238-144.02-136.261 57.131 35.023 86.889zM509.004 86.341l-49.205 31.617-94.163 60.615 267.385 147.431L509.004 86.341zm-205.098 52.455c-10.083 14.366-91.623 130.531-101.181 143.961l162.101-104.455h.001l94.52-60.736 48.036-30.921-203.477 52.151zM109.382 1.994l57.09 193.789 136.668-57.3L109.382 1.993zm255.51 177.058L202.939 283.304l193.347-32.46-31.394-71.792zm266.114 146.497L365.59 179.203l31.318 71.617 234.098 74.729zM108.702 1.049a.285.285 0 01.152-.049c.017 0 .031.003.047.005.022.002.043-.001.064.006.017.006.029.02.044.028.009.005.021.003.03.01l194.748 137.187 205.167-52.585a.288.288 0 01.113-.005.284.284 0 01.123.006c.08.02.147.074.184.146l124.598 240.786c.002.004 0 .009.002.013a.276.276 0 01.024.153l-.006.026c-.004.018-.005.036-.012.052-.01.021-.029.032-.042.049-.01.014-.011.032-.023.044-.01.008-.022.012-.032.02l-.03.019a.305.305 0 01-.14.04.311.311 0 01-.089-.014l-236.939-75.628-195.025 32.741c-.009.002-.018-.001-.027 0-.007 0-.014.004-.022.004a.2.2 0 01-.042-.005l-.014-.001h-.006c-.004-.002-.007-.005-.011-.006l-.014-.005-.036-.013c-.018-.008-.033-.019-.049-.03-.008-.006-.016-.011-.023-.018-.004-.003-.009-.004-.012-.008l-.004-.006c-.013-.014-.022-.03-.032-.046-.008-.013-.017-.024-.023-.037l-.002-.004-.002-.002-35.273-87.511-242.853-64.328a.29.29 0 01-.21-.226.282.282 0 01.117-.283L108.702 1.048z" clip-rule="evenodd"/><path d="M165.862 195.765l.239-.071.126.426-.429-.114.064-.241zM108.705 1.748l-.144-.204.285-.2.099.334-.24.07zm-184.746 129.94l-.064.241-.519-.137.44-.309.143.205zm277.722 151.528l.204.144-.264.376-.172-.427.232-.093zm101.238-144.02l-.097-.23.8-.336-.499.71-.204-.144zm-136.261 57.131l-.231.093-.093-.228.228-.096.096.231zM509.004 86.341l-.135-.21.231-.149.126.244-.222.115zm-49.205 31.617l-.135-.21.135.21zm-94.163 60.615l-.121.219-.367-.202.353-.227.135.21zm267.385 147.431l.222-.115.379.732-.722-.398.121-.219zM303.906 138.796l-.204-.144.053-.075.089-.023.062.242zM202.725 282.757l.136.21-.339-.355.203.145zm162.101-104.455l-.135-.21.061-.04h.074v.25zm.001 0v.25h-.852l.716-.46.136.21zm94.52-60.736l.135.211-.135-.211zm48.036-30.921l-.062-.242.197.452-.135-.21zM109.382 1.994l-.24.07-.203-.688.587.413-.144.205zm57.09 193.789l.096.231-.257.107-.079-.267.24-.071zm136.668-57.3l.144-.205.369.261-.417.174-.096-.23zm61.752 40.569l-.135-.21.247-.159.117.269-.229.1zM202.939 283.304l.042.246-.177-.456.135.21zm193.347-32.46l.23-.1.128.294-.316.053-.042-.247zm234.72 74.705l.121-.219-.197.457.076-.238zM365.59 179.203l-.229.1-.295-.674.644.355-.12.219zm31.318 71.617l-.076.238-.108-.034-.046-.104.23-.1zM108.702 1.048l-.144-.204.003-.002.141.206zm.152-.048l-.013-.25h.004l.009.25zm.047.005l.027-.249-.027.249zm.064.006l-.078.238-.006-.003.084-.235zm.044.028l-.121.219-.003-.002.124-.217zm.03.01l.137-.21.007.005-.144.204zm194.748 137.187l.062.242-.112.029-.094-.066.144-.205zm205.167-52.585l-.062-.242.004-.001.058.243zm.113-.005l.042.247-.038.006-.038-.005.034-.248zm.123.006l-.063.241h-.004l.067-.241zm.184.146l.222-.116v.001l-.222.115zm124.598 240.786l.222-.115.004.008.003.008-.229.099zm.002.013l-.227.106-.004-.008-.003-.009.234-.089zm.024.153l-.249-.03.001-.003.248.033zm-.006.026l.246.044-.003.014-.243-.058zm-.012.052l-.228-.102v-.001l.228.103zm-.042.049l-.203-.146.002-.003.201.149zm-.023.044l.175.178-.006.005-.169-.183zm-.032.02l.151.199-.006.004-.145-.203zm-.03.019l.124.217-.006.003-.118-.22zm-.229.026l-.074.239-.002-.001.076-.238zm-236.939-75.628l-.042-.247.06-.01.058.019-.076.238zM201.66 284.099l-.045-.246.004-.001.041.247zm-.027 0l-.021-.249.005-.001.016.25zm-.064-.001l.031-.248.01.002-.041.246zm-.014-.001l-.031.248-.024-.003-.023-.007.078-.238zm-.006 0v.25h-.03l-.03-.008.06-.242zm-.011-.006l-.068.24-.01-.002-.009-.004.087-.234zm-.014-.005l.078-.238.008.003-.086.235zm-.036-.013l-.098.23-.006-.002-.007-.004.111-.224zm-.049-.03l-.148.202-.005-.005.153-.197zm-.023-.018l.162-.191.007.006.007.007-.176.178zm-.012-.008l.175-.178.007.006.006.008-.188.164zm-.004-.006l-.176.178-.008-.008.184-.17zm-.032-.046l-.21.137-.005-.008.215-.129zm-.023-.037l-.229.101-.004-.011-.004-.01.237-.08zm-.002-.004l.207-.14.009.013.007.014-.223.113zm-.002-.002v.25h-.169l-.063-.157.232-.093zm-35.273-87.511l.064-.242.121.032.047.116-.232.094zm-242.853-64.328l-.065.241.064-.241zm-.21-.226l-.246.045.246-.045zm.117-.283l.144.204-.001.001-.143-.205zm242.5 64.261L108.465 1.819l.48-.141 57.156 194.016-.479.141zM108.849 1.953L-75.897 131.892l-.288-.409L108.561 1.543l.288.41zM-75.977 131.446l241.903 64.077-.128.483-241.903-64.077.128-.483zm277.453 151.626l101.238-144.019.409.287-101.238 144.02-.409-.288zm101.54-143.645l-136.261 57.13-.193-.461 136.26-57.13.194.461zM166.89 196.233l35.023 86.889-.464.187-35.022-86.889.463-.187zM509.139 86.551l-49.204 31.617-.271-.42 49.205-31.618.27.421zm-49.204 31.617l-94.164 60.616-.27-.421 94.163-60.615.271.42zm-94.178 60.186l267.385 147.431-.242.438-267.385-147.431.242-.438zm267.042 147.765L508.782 86.456l.444-.23 124.017 239.663-.444.23zM304.111 138.94c-10.083 14.364-91.623 130.531-101.182 143.962l-.407-.29c9.557-13.429 91.096-129.593 101.18-143.96l.409.288zM202.59 282.547l162.101-104.455.27.42-162.1 104.455-.271-.42zm162.236-104.495h.001v.5h-.001v-.5zm-.135.04l94.521-60.736.27.421-94.52 60.736-.271-.421zm94.521-60.736l48.035-30.921.271.42-48.036 30.922-.27-.421zm48.233-30.469l-203.476 52.151-.125-.484 203.477-52.151.124.484zM109.622 1.923l57.089 193.789-.479.142-57.09-193.79.48-.141zm56.753 193.629l136.668-57.3.193.461-136.668 57.301-.193-.462zm136.621-56.865L109.238 2.197l.288-.408 193.758 136.489-.288.409zm62.031 40.575L203.075 283.514l-.271-.42 161.953-104.252.27.42zM202.898 283.057l193.347-32.459.083.493-193.347 32.459-.083-.493zm193.159-32.113l-31.394-71.792.458-.2 31.395 71.792-.459.2zm234.829 74.824L365.469 179.422l.241-.438L631.127 325.33l-.241.438zM365.819 179.103l31.318 71.617-.459.2-31.317-71.617.458-.2zm31.165 71.479l234.098 74.729-.152.476-234.098-74.729.152-.476zM108.561.842a.54.54 0 01.28-.092l.027.5c-.011 0-.017.002-.021.003-.003 0-.004.001-.004.002l-.282-.413zm.284-.092a.46.46 0 01.065.004l.015.002h.003l-.053.497-.021-.002h-.003l-.003-.001h.015l-.018-.5zm.083.006h-.005.019c.019 0 .06.003.107.02l-.168.47c.014.005.025.007.033.009h.008-.01c-.008 0-.021 0-.037-.002l.053-.497zm.115.017c.049.016.083.042.095.05l.008.007.001.001-.014-.01-.248.435a.315.315 0 01-.036-.024l-.008-.006-.002-.002h-.001.001l.002.002.009.006a.168.168 0 00.037.016l.156-.475zm.087.047a.196.196 0 00-.051-.02l-.011-.003h.001a.272.272 0 01.107.042l-.275.418a.216.216 0 00.06.028l.015.004h.004-.003l-.005-.001-.018-.004a.334.334 0 01-.066-.026l.242-.438zm.053.024l194.748 137.188-.288.409L108.895 1.252l.288-.408zm194.542 137.15l205.167-52.585.124.484-205.167 52.585-.124-.484zm205.171-52.586a.555.555 0 01.205-.01l-.068.496c-.012-.002-.018 0-.021 0l-.116-.486zm.129-.008a.547.547 0 01.233.01l-.135.482h-.014l-.084-.492zm.229.01a.54.54 0 01.342.272l-.443.232a.038.038 0 00-.026-.02l.127-.484zm.342.273L634.194 326.47l-.444.23L509.152 85.913l.444-.23zm124.605 240.802a.256.256 0 01.021.077l.001.021v.003l-.001-.016a.24.24 0 00-.014-.061l-.468.177a.292.292 0 01-.016-.068l-.001-.02v-.007.004l.001.018a.251.251 0 00.019.071l.458-.199zm0 .007a.529.529 0 01.045.29l-.496-.065v-.006l-.003-.008.454-.211zm.045.287a.304.304 0 01-.009.045v.003l-.001.001c0 .001 0 0 0 0l.002-.008-.492-.088.004-.021.002-.007v-.001l.001-.002-.004.019.497.059zm-.011.055l.001-.003-.001.006-.002.01c-.003.015-.009.048-.026.085l-.455-.207c-.005.01-.007.019-.009.025l-.002.008.001-.003.001-.007.006-.029.486.115zm-.027.097c-.025.056-.062.091-.074.103l-.008.007-.001.002.014-.017-.402-.298a.259.259 0 01.036-.04l.009-.01.004-.004-.01.012a.19.19 0 00-.024.04l.456.205zm-.067.092a.161.161 0 00.019-.033l-.001.002a.282.282 0 01-.069.107l-.351-.356a.201.201 0 00-.036.046l-.006.014-.002.004.001-.002.001-.004.007-.015a.252.252 0 01.031-.055l.406.292zm-.057.081c-.015.014-.029.024-.04.032l-.024.014-.003.002.017-.012-.301-.399.032-.022.01-.005.002-.001.001-.001-.007.005c-.006.004-.015.01-.026.02l.339.367zm-.056.04c-.019.014-.036.024-.051.033l-.248-.434.006-.004.003-.002.29.407zm-.057.036a.536.536 0 01-.258.07v-.5h-.001l.022-.01.237.44zm-.258.07a.565.565 0 01-.163-.025l.148-.478.015.003v.5zm-.165-.026l-236.939-75.628.152-.476L633.7 326.748l-.152.476zm-236.822-75.62l-195.025 32.741-.082-.493 195.024-32.741.083.493zm-195.021 32.741c-.036.007-.067.004-.075.004h-.004.002l.02-.001-.031-.499h.034l.009.001h-.011c-.008 0-.02 0-.034.003l.09.492zm-.052.003c.015-.001.026-.004.031-.005l.004-.001-.002.001-.025.005a.214.214 0 01-.05.005v-.5c-.017 0-.03.002-.039.003l-.01.002-.002.001h-.001.001l.002-.001.009-.002a.228.228 0 01.041-.006l.041.498zm-.042.005a.451.451 0 01-.082-.008l.081-.493.008.001h-.007v.5zm-.072-.007l.009.001c.001 0 .002 0 0 0h-.008l-.016-.002.062-.496-.009-.001c-.001 0-.002 0 0 0l.007.001.016.001-.061.496zm-.062-.011c.015.005.027.007.036.009l.021.002.015.001v-.5h.021c.01.001.034.003.063.013l-.156.475zm.012.004a.246.246 0 01-.056-.021l-.016-.009-.008-.004h.001l.01.006c.01.005.027.014.05.02l.135-.481c.025.007.044.017.056.023l.012.007.004.003-.001-.001-.004-.002-.013-.008c-.011-.005-.028-.013-.05-.018l-.12.485zm-.038-.014l-.007-.002-.007-.003.173-.469.007.003.007.002-.173.469zm-.005-.002a.459.459 0 01-.056-.02l.195-.46h.001l.005.002.011.003-.156.475zm-.069-.026a.555.555 0 01-.085-.052l.294-.404.012.008-.221.448zm-.091-.057v.001l-.007-.006a.243.243 0 01-.038-.032l.351-.356-.016-.014.001.001.003.002.012.009-.306.395zm-.031-.024a.169.169 0 00.031.022l.006.004s.001 0 0 0l-.002-.001-.027-.017a.287.287 0 01-.048-.043l.377-.328a.235.235 0 00-.042-.039l-.014-.009-.007-.004.002.001.009.005a.372.372 0 01.038.027l-.323.382zm-.027-.021a.277.277 0 01-.032-.039l-.007-.011-.002-.003-.001-.002.002.003.006.01a.244.244 0 00.03.036l.351-.356a.266.266 0 01.032.038l.007.011.002.004.001.001-.002-.003-.006-.01a.201.201 0 00-.03-.035l-.351.356zm-.012-.014a.403.403 0 01-.042-.055l-.011-.016-.005-.008.419-.273.01.015.005.008-.009-.011-.367.34zm-.063-.087c.001.001.002.002 0 0l-.002-.004-.004-.006a.408.408 0 01-.031-.055l.458-.202-.008-.015-.001-.002.002.002.003.006.012.019-.429.257zm-.045-.086c.011.03.025.051.028.057l.002.003v-.001h-.001l-.001-.003c-.002-.003-.009-.013-.016-.027l.446-.226-.015-.026-.002-.002.002.003c.005.007.02.03.031.062l-.474.16zm.028.056l-.008-.013a.21.21 0 00.055.064.258.258 0 00.158.057v-.5a.249.249 0 01.215.121l-.006-.009-.414.28zm-.027-.049l-35.273-87.511.464-.187 35.273 87.511-.464.187zm-35.105-87.362l-242.853-64.329.127-.483 242.854 64.328-.128.484zm-242.853-64.329a.537.537 0 01-.392-.422l.492-.089a.036.036 0 00.028.028l-.129.483zm-.392-.422a.534.534 0 01.22-.533l.286.41a.032.032 0 00-.014.034l-.493.089zm.219-.533L108.558.844l.288.409-185.58 130.525-.288-.409z"/></g></g></svg>