<?xml version="1.0" standalone="no"?>
<!DOCTYPE svg PUBLIC "-//W3C//DTD SVG 20010904//EN"
 "http://www.w3.org/TR/2001/REC-SVG-20010904/DTD/svg10.dtd">
<svg version="1.0" xmlns="http://www.w3.org/2000/svg"
 width="1500.000000pt" height="1500.000000pt" viewBox="0 0 1500.000000 1500.000000"
 preserveAspectRatio="xMidYMid meet">
<metadata>
Created by potrace 1.14, written by Peter Selinger 2001-2017
</metadata>
<g transform="translate(0.000000,1500.000000) scale(0.100000,-0.100000)"
fill="#000000" stroke="none">
<path d="M8251 14282 c-61 -30 -76 -62 -75 -155 1 -70 7 -99 42 -192 35 -94
232 -534 262 -588 11 -18 6 -37 -9 -37 -5 0 -64 -26 -132 -59 -68 -32 -140
-65 -159 -74 -19 -8 -73 -33 -120 -55 -47 -22 -114 -53 -150 -69 -36 -17 -99
-46 -140 -66 -113 -53 -360 -167 -405 -187 -57 -25 -159 -72 -314 -146 -73
-35 -135 -64 -137 -64 -2 0 -50 -22 -107 -49 -57 -27 -132 -61 -166 -76 -33
-15 -61 -32 -61 -37 0 -5 -4 -7 -9 -4 -5 3 -75 -23 -157 -59 -81 -36 -153 -65
-161 -65 -7 0 -13 -4 -13 -10 0 -5 -5 -10 -12 -10 -16 0 -1028 -435 -1113
-478 -38 -20 -79 -42 -90 -49 -234 -150 -359 -250 -537 -424 -190 -187 -305
-330 -468 -579 -50 -76 -85 -138 -155 -275 -125 -243 -206 -461 -240 -645 -3
-14 -9 -47 -15 -75 -15 -80 -20 -107 -25 -161 -3 -28 -7 -60 -10 -72 -8 -46
-18 -255 -18 -392 0 -257 15 -436 54 -655 11 -60 21 -114 23 -120 1 -5 7 -28
11 -50 5 -22 10 -42 10 -45 1 -3 5 -18 9 -35 57 -227 182 -512 300 -688 216
-321 518 -626 921 -930 195 -147 496 -346 689 -457 17 -9 71 -41 119 -69 49
-28 90 -51 91 -51 2 0 42 -23 90 -50 94 -54 300 -164 403 -214 35 -17 63 -34
63 -37 0 -3 -35 -22 -77 -42 -43 -19 -118 -55 -168 -78 -49 -24 -92 -44 -95
-44 -3 0 -39 -17 -80 -37 -41 -20 -210 -99 -375 -176 -165 -77 -349 -163 -410
-192 -60 -29 -139 -66 -175 -82 -36 -16 -81 -37 -100 -46 -19 -9 -38 -20 -41
-25 -3 -5 -9 -8 -13 -6 -4 1 -40 -13 -79 -31 -40 -17 -81 -36 -92 -40 -34 -15
-127 -56 -195 -88 -73 -33 -150 -67 -195 -87 -30 -13 -164 -73 -330 -147 -49
-22 -127 -58 -173 -79 -46 -22 -85 -39 -88 -39 -3 0 -76 -34 -162 -76 -126
-61 -348 -195 -372 -223 -3 -3 -23 -19 -45 -35 -22 -17 -92 -82 -156 -145
-236 -236 -388 -488 -495 -821 -14 -41 -27 -86 -29 -100 -3 -14 -7 -36 -10
-50 -34 -148 -40 -220 -39 -430 1 -155 5 -219 23 -315 38 -207 91 -366 183
-548 98 -193 206 -343 351 -490 187 -188 393 -327 631 -426 93 -39 237 -86
296 -97 14 -3 39 -9 55 -14 84 -25 193 -32 460 -28 263 4 287 6 395 31 171 41
315 96 529 200 80 40 175 85 211 101 36 16 108 49 160 73 52 24 104 48 115 52
11 5 47 21 80 36 51 23 235 105 365 162 19 9 68 31 108 49 40 19 75 34 77 34
3 0 35 14 72 31 38 17 82 37 98 44 280 125 430 193 525 237 52 25 120 56 150
71 95 44 433 199 475 217 22 10 74 33 115 53 100 46 160 73 250 112 41 18 100
44 130 58 30 14 102 46 160 72 58 26 128 57 155 70 84 38 134 60 285 128 80
35 180 81 223 101 43 20 80 36 82 36 2 0 43 18 90 40 47 22 88 40 90 40 6 0
181 82 250 117 98 50 250 151 364 243 354 286 643 679 833 1135 56 134 134
367 153 455 2 8 10 44 19 80 8 36 17 77 20 93 3 15 7 35 10 45 13 43 50 325
62 477 37 439 -67 996 -264 1416 -21 46 -50 107 -63 134 -67 145 -221 378
-349 530 -75 88 -237 248 -315 310 -27 22 -52 43 -55 46 -19 23 -257 171 -375
233 -27 14 -57 30 -65 36 -8 5 -80 46 -160 91 -80 45 -188 106 -240 137 -52
30 -115 66 -140 80 -116 65 -260 149 -307 179 -29 18 -54 33 -57 33 -2 0 -51
28 -108 62 -133 79 -141 84 -239 142 l-82 48 64 28 c35 15 91 40 124 55 33 15
98 44 145 65 115 51 362 165 393 181 10 5 104 50 210 98 106 49 255 119 332
156 190 91 325 155 329 155 4 0 115 51 276 127 109 52 99 55 152 -57 155 -331
270 -550 312 -596 78 -88 171 -113 255 -69 44 22 105 90 139 152 18 32 39 69
47 83 13 22 58 113 285 585 32 66 93 192 135 280 296 612 406 841 540 1120 29
61 89 184 133 275 79 163 143 298 249 520 31 63 85 176 121 250 224 466 234
491 233 636 -1 198 -108 348 -311 439 -48 21 -835 225 -1115 289 -40 10 -67
16 -450 111 -214 53 -397 98 -405 100 -25 6 -453 111 -939 231 -255 63 -478
117 -495 120 -17 2 -47 9 -67 14 -20 6 -60 15 -90 21 -30 6 -63 12 -74 14 -11
3 -76 16 -144 30 -148 30 -261 33 -310 7z"/>
</g>
</svg>
