<svg width="143" height="53" viewBox="0 0 143 53" fill="none" xmlns="http://www.w3.org/2000/svg"><path fill-rule="evenodd" clip-rule="evenodd" d="M52.5 48.75a3.75 3.75 0 1 0-7.5 0 3.75 3.75 0 0 0 7.5 0zM52.5 3.75a3.75 3.75 0 1 0-7.5 0 3.75 3.75 0 0 0 7.5 0zM7.5 3.75a3.75 3.75 0 1 0-7.5 0 3.75 3.75 0 0 0 7.5 0zM142.5 48.75a3.75 3.75 0 1 0-7.5 0 3.75 3.75 0 0 0 7.5 0zM142.5 3.75a3.75 3.75 0 1 0-7.5 0 3.75 3.75 0 0 0 7.5 0zM97.5 48.75a3.75 3.75 0 1 0-7.5 0 3.75 3.75 0 0 0 7.5 0zM97.5 3.75a3.75 3.75 0 1 0-7.5 0 3.75 3.75 0 0 0 7.5 0z" fill="#FFCF00"/></svg>