<svg width="143" height="98" viewBox="0 0 143 98" fill="none" xmlns="http://www.w3.org/2000/svg"><path fill-rule="evenodd" clip-rule="evenodd" d="M90 93.75a3.75 3.75 0 1 1 7.5 0 3.75 3.75 0 0 1-7.5 0zM90 48.75a3.75 3.75 0 1 1 7.5 0 3.75 3.75 0 0 1-7.5 0zM135 48.75a3.75 3.75 0 1 1 7.5 0 3.75 3.75 0 0 1-7.5 0zM0 93.75a3.75 3.75 0 1 1 7.5 0 3.75 3.75 0 0 1-7.5 0zM0 48.75a3.75 3.75 0 1 1 7.5 0 3.75 3.75 0 0 1-7.5 0zM45 93.75a3.75 3.75 0 1 1 7.5 0 3.75 3.75 0 0 1-7.5 0zM45 48.75a3.75 3.75 0 1 1 7.5 0 3.75 3.75 0 0 1-7.5 0z" fill="#FFCF00"/><path fill-rule="evenodd" clip-rule="evenodd" d="M52.5 48.75a3.75 3.75 0 1 1-7.5 0 3.75 3.75 0 0 1 7.5 0zM7.5 48.75a3.75 3.75 0 1 1-7.5 0 3.75 3.75 0 0 1 7.5 0zM142.5 3.75a3.75 3.75 0 1 1-7.5 0 3.75 3.75 0 0 1 7.5 0zM142.5 48.75a3.75 3.75 0 1 1-7.5 0 3.75 3.75 0 0 1 7.5 0zM97.5 3.75a3.75 3.75 0 1 1-7.5 0 3.75 3.75 0 0 1 7.5 0zM97.5 48.75a3.75 3.75 0 1 1-7.5 0 3.75 3.75 0 0 1 7.5 0z" fill="#FFCF00"/></svg>