<svg width="98" height="188" viewBox="0 0 98 188" fill="none" xmlns="http://www.w3.org/2000/svg"><path fill-rule="evenodd" clip-rule="evenodd" d="M3.75 135a3.75 3.75 0 1 1 0 7.5 3.75 3.75 0 0 1 0-7.5zM48.75 135a3.75 3.75 0 1 1 0 7.5 3.75 3.75 0 0 1 0-7.5zM48.75 180a3.75 3.75 0 1 1 0 7.5 3.75 3.75 0 0 1 0-7.5zM3.75 90a3.75 3.75 0 1 1 0 7.5 3.75 3.75 0 0 1 0-7.5zM48.75 90a3.75 3.75 0 1 1 0 7.5 3.75 3.75 0 0 1 0-7.5zM93.75 90a3.75 3.75 0 1 1 0 7.5 3.75 3.75 0 0 1 0-7.5zM93.75 135a3.75 3.75 0 1 1 0 7.5 3.75 3.75 0 0 1 0-7.5zM93.75 0a3.75 3.75 0 1 1 0 7.5 3.75 3.75 0 0 1 0-7.5zM48.75 45a3.75 3.75 0 1 1 0 7.5 3.75 3.75 0 0 1 0-7.5zM93.75 45a3.75 3.75 0 1 1 0 7.5 3.75 3.75 0 0 1 0-7.5z" fill="#FFCF00"/></svg>