<svg xmlns="http://www.w3.org/2000/svg" width="24" height="29"><g fill="none" fill-rule="evenodd" stroke="#000" stroke-linejoin="round" stroke-width="1.5"><path stroke-linecap="round" d="M8.614 21.94h-5.71A1.901 1.901 0 011 20.04V4.847c0-1.049.852-1.9 1.904-1.9h17.132c1.05 0 1.903.851 1.903 1.9v9.496"/><path d="M1 8.548h20.939"/><path stroke-linecap="round" d="M6.6 4.896V1m9.252 3.896V1"/><g stroke-linecap="round" transform="translate(11.08 15.122)"><circle cx="6.087" cy="6.087" r="6.087"/><path d="M7.453 3.896h-1.85c-.585 0-1.087.37-1.198.882-.111.512.2 1.023.743 1.217l1.878.67c.542.195.854.706.743 1.218-.111.512-.613.882-1.198.882H4.723M6.33 3.896v-.974m0 7.304v-.974"/></g></g></svg>