<svg xmlns="http://www.w3.org/2000/svg" width="30" height="30"><g fill="none" fill-rule="evenodd" stroke="#000" stroke-linecap="round" stroke-linejoin="round" stroke-width="1.5" transform="translate(1 1)"><path d="M19.133 23.8h2.334a1.4 1.4 0 100-2.8h-.934a1.4 1.4 0 110-2.8h2.334M21 17.267v.933m0 5.6v.933m-5.563-7.146a17.972 17.972 0 00-3.304-.32c-3.706 0-7.078 1.264-9.233 2.31C1.409 20.3.467 21.74.467 23.322v.944a1.4 1.4 0 001.4 1.4h14.565"/><circle cx="21" cy="21" r="6.533"/><path d="M11.667 6.067l8.4-2.8-8.4-2.8-8.4 2.8z"/><path d="M19.133 6.533v-2.8l-7.466-.466"/><path d="M19.133 8.517l-.466-.33.466-1.654.467 1.653-.467.33m-12.6-4.16V8.4s2.78.933 5.134.933c2.352 0 5.133-.933 5.133-.933V4.356"/><path d="M6.852 8.5a5.11 5.11 0 00-.319 1.767 5.133 5.133 0 0010.267 0 5.11 5.11 0 00-.319-1.767"/></g></svg>