<svg height="16" viewBox="0 0 128 16" width="128" xmlns="http://www.w3.org/2000/svg"><path d="m12.526 9.966 1.079 5.62a.348.348 0 0 1 -.501.374l-4.775-2.465-4.775 2.463a.348.348 0 0 1 -.501-.376l1.11-5.612-4.05-3.632a.348.348 0 0 1 .179-.6l5.338-.862 2.41-4.687a.348.348 0 0 1 .618 0l2.408 4.687 5.338.862a.348.348 0 0 1 .178.6l-4.055 3.628zm56 0 1.079 5.62a.348.348 0 0 1 -.501.374l-4.775-2.465-4.775 2.463a.348.348 0 0 1 -.501-.376l1.11-5.612-4.05-3.632a.348.348 0 0 1 .179-.6l5.338-.862 2.41-4.687a.348.348 0 0 1 .618 0l2.408 4.687 5.338.862a.348.348 0 0 1 .178.6l-4.055 3.628zm-28 0 1.079 5.62a.348.348 0 0 1 -.501.374l-4.775-2.465-4.775 2.463a.348.348 0 0 1 -.501-.376l1.11-5.612-4.05-3.632a.348.348 0 0 1 .179-.6l5.338-.862 2.41-4.687a.348.348 0 0 1 .618 0l2.408 4.687 5.338.862a.348.348 0 0 1 .178.6l-4.055 3.628zm55 0 1.079 5.62a.348.348 0 0 1 -.501.374l-4.775-2.465-4.775 2.463a.348.348 0 0 1 -.501-.376l1.11-5.612-4.05-3.632a.348.348 0 0 1 .179-.6l5.338-.862 2.41-4.687a.348.348 0 0 1 .618 0l2.408 4.687 5.338.862a.348.348 0 0 1 .178.6l-4.055 3.628zm28 0 1.079 5.62a.348.348 0 0 1 -.501.374l-4.775-2.465-4.775 2.463a.348.348 0 0 1 -.501-.376l1.11-5.612-4.05-3.632a.348.348 0 0 1 .179-.6l5.338-.862 2.41-4.687a.348.348 0 0 1 .618 0l2.408 4.687 5.338.862a.348.348 0 0 1 .178.6l-4.055 3.628z" fill="#ffcf00"/></svg>