<svg height="363" viewBox="0 0 925 363" width="925" xmlns="http://www.w3.org/2000/svg" xmlns:xlink="http://www.w3.org/1999/xlink"><mask id="a" fill="#fff"><path d="m0 0h1440v631h-1440z" fill="#fff" fill-rule="evenodd"/></mask><g fill="#e7e7e7" mask="url(#a)" transform="translate(0 -268)"><path d="m135.435 270.298-217.88 223.83a.5.5 0 0 1 -.716-.698l217.88-223.83a.5.5 0 1 1 .716.698z"/><path d="m311.28 604.066-394.219-109.81a.5.5 0 0 1 .269-.963l394.219 109.81a.5.5 0 1 1 -.268.963z"/><path d="m310.97 603.819-175.627-334.199a.5.5 0 0 1 .886-.465l175.624 334.197a.5.5 0 0 1 -.885.466z"/><path d="m486.63 506.307-351.846-235.942a.5.5 0 1 1 .557-.83l351.846 235.941a.5.5 0 0 1 -.557.831z"/><path d="m310.4 602.168 176.98-97.28a.5.5 0 1 1 .48.877l-176.978 97.28a.5.5 0 0 1 -.482-.877zm92.656 152.051-92.079-150.382a.5.5 0 1 1 .853-.522l92.079 150.381a.5.5 0 0 1 -.853.523z"/><path d="m403.007 753.8 84.898-247.665a.5.5 0 0 1 .946.325l-84.898 247.664a.5.5 0 1 1 -.946-.325z"/><path d="m403.368 753.453 274.526-55.217a.5.5 0 0 1 .198.98l-274.527 55.218a.5.5 0 1 1 -.197-.98z"/><path d="m676.85 699.554-78.028-123.526a.5.5 0 1 1 .846-.534l78.027 123.526a.5.5 0 0 1 -.846.534z"/><path d="m404.57 752.463 366.548-333.676a.502.502 0 0 1 .708.033.502.502 0 0 1 -.034.707l-366.548 333.676a.502.502 0 0 1 -.707-.032.502.502 0 0 1 .034-.708z"/><path d="m487.467 504.854 283.843-86.176a.5.5 0 1 1 .291.957l-283.844 86.175a.5.5 0 0 1 -.29-.957zm112.016 70.473 466.974 253.2a.5.5 0 0 1 -.477.878l-466.974-253.199a.5.5 0 1 1 .477-.879z"/><path d="m677.418 698.803 388.957 129.687a.5.5 0 0 1 -.316.949l-388.957-129.687a.5.5 0 0 1 .316-.949z"/><path d="m771.853 418.863 294.768 409.813a.5.5 0 0 1 -.812.584l-294.768-409.813a.5.5 0 0 1 .812-.584z"/></g></svg>