<svg xmlns="http://www.w3.org/2000/svg" width="178" height="23" viewBox="0 0 178 23">
    <defs>
        <linearGradient id="a" x1="91.867%" x2="28.264%" y1="40.328%" y2="81.66%">
            <stop offset="18%" stop-color="#0052CC"/>
            <stop offset="100%" stop-color="#2684FF"/>
        </linearGradient>
        <linearGradient id="b" x1="8.71%" x2="72.243%" y1="59.166%" y2="17.99%">
            <stop offset="18%" stop-color="#0052CC"/>
            <stop offset="100%" stop-color="#2684FF"/>
        </linearGradient>
    </defs>
    <g fill="none" fill-rule="evenodd">
        <path fill="#253858" d="M33.308 2.724h2.414v12.165c0 3.224-1.42 5.448-4.749 5.448a8.633 8.633 0 0 1-2.895-.454v-2.33c.795.306 1.64.46 2.493.454 2.039 0 2.743-1.21 2.743-2.957l-.006-12.326z"/>
        <path fill="#253858" fill-rule="nonzero" d="M40.12 1.789c.436-.031.863.127 1.172.434.31.306.469.73.437 1.163 0 .883-.72 1.598-1.609 1.598s-1.61-.715-1.61-1.598a1.489 1.489 0 0 1 .438-1.163 1.512 1.512 0 0 1 1.172-.434zm-1.18 5.114h2.308v13.316H38.94V6.903z"/>
        <path fill="#253858" d="M44.732 6.9h2.252v2.342c.777-1.57 2.134-2.69 4.749-2.53V8.95c-2.95-.303-4.749.587-4.749 3.407v7.869h-2.252V6.9z"/>
        <path fill="#253858" fill-rule="nonzero" d="M62.54 17.819c-.859 1.758-2.468 2.663-4.532 2.663-3.566 0-5.364-3.008-5.364-6.924 0-3.756 1.878-6.924 5.633-6.924 1.956 0 3.46.877 4.267 2.608V6.9h2.307v13.316h-2.307l-.003-2.397zm-3.916.533c2.067 0 3.917-1.305 3.917-4.261v-1.078c0-2.957-1.689-4.26-3.658-4.26-2.603 0-3.944 1.703-3.944 4.793.012 3.208 1.299 4.806 3.688 4.806h-.003z"/>
        <path fill="#253858" d="M78.5 20.482c-3.408 0-4.99-.666-6.358-1.359v-2.448c1.637.853 4.157 1.465 6.489 1.465 2.655 0 3.657-1.038 3.657-2.585 0-1.546-.966-2.37-4.319-3.168-3.962-.96-5.739-2.318-5.739-5.193 0-2.724 2.091-4.74 6.197-4.74 2.548 0 4.185.606 5.391 1.277v2.397a10.888 10.888 0 0 0-5.486-1.331c-2.307 0-3.676.799-3.676 2.397 0 1.437 1.128 2.157 4.237 2.929 3.728.932 5.822 2.118 5.822 5.272-.019 3.035-1.841 5.087-6.215 5.087z"/>
        <path fill="#253858" fill-rule="nonzero" d="M86.735 13.53c0-3.994 2.36-6.896 6.383-6.896s6.33 2.902 6.33 6.897c0 3.994-2.334 6.96-6.33 6.96s-6.383-2.966-6.383-6.96zm2.253 0c0 2.53 1.262 4.822 4.13 4.822s4.078-2.291 4.078-4.821-1.234-4.755-4.078-4.755c-2.844 0-4.118 2.225-4.118 4.755h-.012z"/>
        <path fill="#253858" d="M105.322 6.9h3.46v2.118h-3.46v11.198h-2.253V9.018h-2.182V6.9h2.173V5.447c0-2.475 1.396-4.155 4.267-4.155a5.581 5.581 0 0 1 1.555.212v2.119a7.673 7.673 0 0 0-1.448-.134c-1.42 0-2.134.827-2.134 2.025l.022 1.386zM116.587 17.98a7.364 7.364 0 0 0 1.448-.188V20a5.569 5.569 0 0 1-1.555.212c-2.87 0-4.267-1.677-4.267-4.155V9.03h-2.182V6.912h2.173V4.076h2.252V6.9h3.567v2.118h-3.567v6.991c.013 1.171.71 1.97 2.131 1.97zM118.68 6.9h2.549l3.862 11.291L129.004 6.9h2.2l3.918 11.291L138.986 6.9h2.548L136.6 20.216h-2.95l-2.308-6.443-1.22-4.1-1.218 4.1-2.338 6.443h-2.95z"/>
        <path fill="#253858" fill-rule="nonzero" d="M152.071 17.819c-.86 1.758-2.469 2.663-4.532 2.663-3.566 0-5.365-3.008-5.365-6.924 0-3.756 1.878-6.924 5.633-6.924 1.957 0 3.46.877 4.267 2.608V6.9h2.307v13.316h-2.307l-.003-2.397zm-3.916.533c2.066 0 3.916-1.305 3.916-4.261v-1.078c0-2.957-1.688-4.26-3.657-4.26-2.591.023-3.941 1.715-3.941 4.805 0 3.196 1.295 4.794 3.685 4.794h-.003z"/>
        <path fill="#253858" d="M157.865 6.9h2.253v2.342c.777-1.57 2.133-2.69 4.748-2.53V8.95c-2.95-.303-4.748.587-4.748 3.407v7.869h-2.253V6.9z"/>
        <path fill="#253858" fill-rule="nonzero" d="M172.992 20.482c-5.017 0-7.214-2.875-7.214-6.96 0-4.022 2.252-6.897 6.33-6.897 4.13 0 5.791 2.85 5.791 6.897v1.038h-9.787c.324 2.263 1.799 3.728 4.963 3.728a11.963 11.963 0 0 0 4.078-.72v2.118c-1.1.59-2.792.796-4.16.796zm-4.907-7.868h7.477c-.134-2.476-1.262-3.89-3.566-3.89-2.436-.011-3.67 1.565-3.911 3.875v.015z"/>
        <path fill="#2684FF" fill-rule="nonzero" d="M22.067 10.822L12.131.956 11.168 0l-7.48 7.427-3.42 3.395a.903.903 0 0 0 0 1.283l6.834 6.785 4.066 4.037 7.48-7.426.115-.115 3.304-3.28a.903.903 0 0 0 0-1.284zm-10.9 4.031l-3.413-3.39 3.414-3.389 3.413 3.39-3.413 3.39z"/>
        <path fill="url(#a)" d="M11.168 8.074a5.679 5.679 0 0 1-.025-8.047l-7.47 7.415 4.066 4.037 3.429-3.405z"/>
        <path fill="url(#b)" d="M14.59 11.455l-3.422 3.398a5.687 5.687 0 0 1 1.685 4.037 5.687 5.687 0 0 1-1.685 4.037l7.488-7.435-4.065-4.037z"/>
    </g>
</svg>
