<svg xmlns="http://www.w3.org/2000/svg" width="99" height="67" viewBox="0 0 99 67">
    <g fill="none" fill-rule="evenodd">
        <path fill="#FFFFFE" d="M0 67h99V0H0z"/>
        <path fill="#5B7F93" d="M61.165 16.394c-.309 0-.526.045-.746.111v.045h.035c.147.356.402.603.583.914.146.356.274.712.419 1.068l.035-.045c.257-.222.384-.578.384-1.113-.11-.157-.127-.312-.219-.468-.109-.223-.345-.334-.491-.512"/>
        <path fill="#196D80" d="M30.574 54.17h-2.688c-.094-4.43-.356-8.595-.784-12.497h-.024l-4.09 12.497H20.94l-4.066-12.497h-.024c-.301 3.747-.491 7.913-.57 12.497h-2.45c.158-5.575.554-10.802 1.189-15.68h3.33l3.876 11.521h.024l3.9-11.522h3.187c.698 5.714 1.11 10.942 1.237 15.681M41.493 42.766c-1.056 5.8-2.45 10.013-4.178 12.642-1.347 2.026-2.823 3.039-4.43 3.039-.428 0-.956-.13-1.584-.39v-1.398c.307.045.666.07 1.08.07.75 0 1.353-.21 1.813-.629.55-.51.826-1.083.826-1.718 0-.434-.215-1.325-.643-2.671l-2.846-8.945h2.548l2.042 6.69c.46 1.519.65 2.579.574 3.183 1.117-3.02 1.898-6.311 2.342-9.873h2.456"/>
        <path fill="#E6892E" d="M77.162 54.17h-7.28V38.49h2.45V52.24h4.83v1.93M58.242 51.1c-.643-1.01-.965-2.628-.965-4.86 0-3.897 1.216-5.847 3.646-5.847 1.271 0 2.204.466 2.8 1.398.642 1.009.965 2.614.965 4.815 0 3.928-1.216 5.893-3.647 5.893-1.27 0-2.203-.466-2.799-1.4m9.457 3.47l-2.92-1.403c.26-.208.508-.432.73-.691 1.24-1.42 1.86-3.522 1.86-6.304 0-5.12-2.062-7.682-6.186-7.682-2.023 0-3.6.65-4.729 1.95-1.24 1.422-1.858 3.515-1.858 6.282 0 2.72.548 4.716 1.646 5.984 1.004 1.146 2.517 1.72 4.54 1.72.756 0 1.45-.091 2.08-.272l3.8 2.156 1.037-1.74M53.868 49.534c0 1.354-.506 2.466-1.514 3.336-1.009.866-2.364 1.3-4.061 1.3-1.588 0-3.126-.5-4.617-1.491l.698-1.372c1.282.631 2.443.946 3.485.946.977 0 1.742-.214 2.295-.637.553-.426.884-1.02.884-1.774 0-.948-.672-1.758-1.905-2.438a298.072 298.072 0 0 1-3.414-1.898c-1.232-.885-1.85-1.835-1.85-3.399 0-1.294.46-2.34 1.381-3.135.923-.797 2.113-1.195 3.57-1.195 1.507 0 2.877.395 4.11 1.184l-.626 1.37c-1.056-.44-2.097-.661-3.123-.661-.833 0-1.475.196-1.922.592-.45.393-.729.898-.729 1.513 0 .946.687 1.767 1.955 2.46 1.152.615 3.483 1.923 3.483 1.923 1.268.883 1.9 1.825 1.9 3.376"/>
        <path fill="#196D80" d="M80.746 33.066c-1.546-.037-2.743.112-3.746.525-.29.113-.753.113-.793.47.156.15.175.393.31.6.232.376.636.882 1.004 1.145.406.3.811.6 1.236.862.753.453 1.603.714 2.335 1.165.427.262.85.6 1.276.882.212.15.346.395.617.487v-.056c-.136-.169-.174-.413-.308-.601-.193-.187-.386-.357-.58-.544a9.082 9.082 0 0 0-2.007-1.894c-.619-.414-1.971-.977-2.221-1.67l-.04-.038c.426-.038.928-.188 1.334-.302.655-.169 1.254-.13 1.93-.299.309-.076.618-.17.928-.262v-.17c-.35-.337-.6-.789-.966-1.107a25.825 25.825 0 0 0-3.186-2.309c-.6-.375-1.372-.618-2.01-.938-.23-.113-.616-.168-.751-.357-.348-.413-.542-.956-.793-1.445a45.896 45.896 0 0 1-1.583-3.265c-.347-.732-.56-1.463-.984-2.139-1.99-3.19-4.152-5.123-7.473-7.018-.714-.395-1.564-.564-2.47-.77-.484-.02-.966-.056-1.45-.075-.309-.132-.618-.489-.888-.657-1.1-.676-3.938-2.14-4.75-.207-.521 1.221.773 2.421 1.217 3.04.328.432.753.92.984 1.408.135.32.174.657.31.995.308.825.598 1.745 1.004 2.515.212.394.443.807.713 1.162.156.208.426.3.484.64-.27.374-.29.937-.445 1.407-.695 2.12-.425 4.748.56 6.305.309.47 1.043 1.502 2.028 1.107.869-.338.676-1.407.927-2.345.057-.227.019-.376.134-.525v.038c.27.524.541 1.03.792 1.557.6.918 1.641 1.876 2.511 2.513.462.339.83.92 1.409 1.127v-.057h-.038c-.117-.168-.29-.244-.445-.375a9.357 9.357 0 0 1-1.004-1.125c-.81-1.051-1.526-2.215-2.162-3.416-.31-.583-.58-1.22-.83-1.802-.116-.224-.116-.563-.31-.675-.29.412-.714.77-.926 1.274-.367.808-.405 1.803-.541 2.835-.077.02-.038 0-.077.037-.617-.15-.83-.769-1.062-1.293-.58-1.334-.677-3.473-.174-5.012.135-.393.716-1.632.483-2.007-.117-.358-.503-.563-.715-.845a7.378 7.378 0 0 1-.694-1.201c-.464-1.05-.697-2.215-1.197-3.265-.232-.489-.638-.996-.966-1.445-.367-.507-.772-.863-1.062-1.463-.096-.207-.231-.545-.077-.77.037-.15.116-.207.27-.245.25-.206.966.056 1.216.17.715.28 1.314.544 1.911.937.27.188.56.545.908.64h.406c.617.13 1.313.036 1.893.206 1.022.318 1.949.787 2.78 1.294a16.837 16.837 0 0 1 6.023 6.418c.232.431.33.826.541 1.276.406.92.908 1.86 1.313 2.759.405.882.792 1.782 1.372 2.515.29.394 1.448.6 1.97.807.385.168.984.318 1.332.524.656.394 1.312.845 1.93 1.277.309.225 1.274.694 1.333 1.07"/>
        <path fill="#E6892E" d="M79.217 54.17h.44v-1.775h.577v-.363h-1.616v.363h.599v1.775zm3.353 0h.415v-2.138h-.624l-.509 1.457-.553-1.457h-.602v2.138h.393v-1.627h.022l.58 1.627h.3l.578-1.627v1.627z"/>
    </g>
</svg>
