<svg xmlns="http://www.w3.org/2000/svg" width="87" height="54" viewBox="0 0 87 54">
    <defs>
        <linearGradient id="a" x1="68.16%" x2="27.847%" y1="17.473%" y2="89.719%">
            <stop offset="0%" stop-color="#3F873F"/>
            <stop offset="33%" stop-color="#3F8B3D"/>
            <stop offset="64%" stop-color="#3E9637"/>
            <stop offset="93%" stop-color="#3DA92E"/>
            <stop offset="100%" stop-color="#3DAE2B"/>
        </linearGradient>
        <linearGradient id="b" x1="43.245%" x2="159.143%" y1="55.218%" y2="-18.297%">
            <stop offset="14%" stop-color="#3F873F"/>
            <stop offset="40%" stop-color="#529F44"/>
            <stop offset="71%" stop-color="#63B649"/>
            <stop offset="91%" stop-color="#6ABF4B"/>
        </linearGradient>
        <linearGradient id="c" x1="-4406.5%" x2="5334.5%" y1="50.5%" y2="50.5%">
            <stop offset="9%" stop-color="#6ABF4B"/>
            <stop offset="29%" stop-color="#63B649"/>
            <stop offset="60%" stop-color="#529F44"/>
            <stop offset="86%" stop-color="#3F873F"/>
        </linearGradient>
        <linearGradient id="d" x1="-4.44%" x2="101.567%" y1="50.034%" y2="50.034%">
            <stop offset="9%" stop-color="#6ABF4B"/>
            <stop offset="29%" stop-color="#63B649"/>
            <stop offset="60%" stop-color="#529F44"/>
            <stop offset="86%" stop-color="#3F873F"/>
        </linearGradient>
        <linearGradient id="e" x1="-9677%" x2="64%" y1="50.5%" y2="50.5%">
            <stop offset="9%" stop-color="#6ABF4B"/>
            <stop offset="29%" stop-color="#63B649"/>
            <stop offset="60%" stop-color="#529F44"/>
            <stop offset="86%" stop-color="#3F873F"/>
        </linearGradient>
        <linearGradient id="f" x1="-103.691%" x2="100.587%" y1="50.034%" y2="50.034%">
            <stop offset="9%" stop-color="#6ABF4B"/>
            <stop offset="29%" stop-color="#63B649"/>
            <stop offset="60%" stop-color="#529F44"/>
            <stop offset="86%" stop-color="#3F873F"/>
        </linearGradient>
        <linearGradient id="g" x1="130.342%" x2="4.362%" y1="-210.786%" y2="201.075%">
            <stop offset="0%" stop-color="#3F873F"/>
            <stop offset="33%" stop-color="#3F8B3D"/>
            <stop offset="64%" stop-color="#3E9637"/>
            <stop offset="93%" stop-color="#3DA92E"/>
            <stop offset="100%" stop-color="#3DAE2B"/>
        </linearGradient>
    </defs>
    <g fill="none" fill-rule="evenodd">
        <path fill="#679E63" d="M42.506 54c-.29 0-.573-.078-.824-.226l-2.622-1.592c-.393-.224-.196-.305-.07-.351.414-.133.81-.319 1.179-.553a.192.192 0 0 1 .196.016l2.013 1.227a.25.25 0 0 0 .244 0l7.853-4.654a.256.256 0 0 0 .12-.218v-9.304a.26.26 0 0 0-.122-.222l-7.85-4.641a.236.236 0 0 0-.24 0l-7.85 4.641a.26.26 0 0 0-.124.222v9.304c0 .09.048.173.124.216l2.15 1.275c1.168.606 1.884-.107 1.884-.807V39.14c0-.062.024-.122.067-.165a.223.223 0 0 1 .16-.067h.995c.06-.001.119.023.161.067a.235.235 0 0 1 .067.165v9.186c0 1.6-.847 2.517-2.325 2.517-.454 0-.81 0-1.808-.505l-2.06-1.21A1.716 1.716 0 0 1 33 47.654v-9.303c0-.606.314-1.166.824-1.47l7.848-4.666a1.683 1.683 0 0 1 1.652 0l7.852 4.66c.51.305.824.864.824 1.47v9.303a1.718 1.718 0 0 1-.824 1.471l-7.852 4.654c-.25.147-.531.225-.818.226z"/>
        <path fill="#679E63" d="M46.119 48C42.713 48 42 46.372 42 44.999c0-.063.023-.122.065-.166a.217.217 0 0 1 .16-.068h1.006a.227.227 0 0 1 .224.203c.152 1.07.604 1.612 2.664 1.612 1.64 0 2.338-.389 2.338-1.296 0-.525-.195-.914-2.745-1.175-2.13-.22-3.447-.712-3.447-2.49 0-1.64 1.323-2.619 3.542-2.619 2.494 0 3.727.903 3.883 2.849a.24.24 0 0 1-.058.179.224.224 0 0 1-.166.075h-1.01a.226.226 0 0 1-.217-.183c-.244-1.125-.832-1.485-2.432-1.485-1.79 0-1.999.65-1.999 1.139 0 .59.246.763 2.664 1.097 2.417.334 3.528.797 3.528 2.554C50 46.98 48.595 48 46.119 48z"/>
        <path fill="#679E63" fill-rule="nonzero" d="M57 38.5a1.5 1.5 0 1 1-3 0 1.5 1.5 0 0 1 3 0zm-2.758 0a1.258 1.258 0 1 0 0-.004v.004zm.695-.838h.584c.195 0 .585 0 .585.444a.39.39 0 0 1-.318.413c.23.016.246.168.277.39.009.151.038.3.088.444h-.357c0-.08-.064-.508-.064-.532-.024-.095-.057-.142-.176-.142h-.29v.674h-.325l-.004-1.69zm.318.739h.26a.226.226 0 0 0 .256-.238c0-.23-.16-.23-.248-.23h-.268v.468z"/>
        <path fill="#333" d="M19 18.04a1.05 1.05 0 0 0-.512-.912L10.01 12.14A1.006 1.006 0 0 0 9.545 12h-.088a1.02 1.02 0 0 0-.468.14L.512 17.127A1.057 1.057 0 0 0 0 18.04l.018 13.436a.516.516 0 0 0 .256.453.483.483 0 0 0 .509 0l5.037-2.95c.316-.19.511-.535.513-.91V21.79c0-.373.194-.718.51-.905l2.146-1.265a1.003 1.003 0 0 1 1.022 0l2.146 1.265c.316.187.51.532.51.905v6.279c.002.374.198.72.515.909l5.035 2.95a.49.49 0 0 0 .513 0 .526.526 0 0 0 .254-.453L19 18.04zM58.423.064a.513.513 0 0 0-.76.445v12.972a.359.359 0 1 1-.538.311L55.01 12.57a1.022 1.022 0 0 0-1.022 0l-8.476 4.88a1.015 1.015 0 0 0-.512.884v9.763c0 .365.195.702.512.884l8.476 4.884c.316.181.706.181 1.022 0l8.478-4.884c.316-.183.51-.52.512-.884V3.764c0-.37-.201-.712-.526-.892L58.423.064zm-.786 24.827a.253.253 0 0 1-.128.221l-2.911 1.675a.265.265 0 0 1-.256 0l-2.909-1.675a.253.253 0 0 1-.128-.221v-3.353c0-.09.048-.174.126-.22l2.911-1.678a.255.255 0 0 1 .256 0l2.91 1.678a.253.253 0 0 1 .129.22v3.353zM86.488 21.373c.317-.187.512-.532.512-.904v-2.424c0-.374-.195-.719-.512-.906l-8.45-4.999a1.014 1.014 0 0 0-1.03 0l-8.494 5.003a1.045 1.045 0 0 0-.514.906V28.05c0 .376.198.722.518.908l8.444 4.909c.312.177.692.177 1.003 0l5.107-2.894a.525.525 0 0 0 .262-.456c0-.19-.1-.363-.262-.456l-8.549-5.003a.528.528 0 0 1-.259-.454v-3.13c0-.186.098-.358.257-.451l2.662-1.565a.5.5 0 0 1 .512 0l2.663 1.565a.523.523 0 0 1 .257.452v2.454c0 .187.097.36.257.454.159.094.355.093.513-.002l5.103-3.008z"/>
        <path fill="#679E63" d="M77.411 21.026a.144.144 0 0 1 .165 0l1.342.904a.2.2 0 0 1 .082.166v1.808a.2.2 0 0 1-.082.164l-1.337.906a.144.144 0 0 1-.165 0l-1.335-.906a.201.201 0 0 1-.081-.164v-1.808c0-.068.03-.131.08-.166l1.331-.904z"/>
        <path fill="url(#a)" d="M33.016 12.14a1.01 1.01 0 0 0-1.024 0l-8.479 4.975c-.317.186-.513.53-.513.902v9.961c0 .372.196.716.513.9l8.473 4.982a1.01 1.01 0 0 0 1.024 0l8.479-4.981c.316-.186.51-.53.511-.9v-9.962c0-.372-.196-.716-.513-.902l-8.47-4.975z"/>
        <path d="M31.847 12.95l-8.186 4.945a1.08 1.08 0 0 0-.527.897v9.899c.005.244.095.478.254.657l9.197-16.505a.965.965 0 0 0-.738.108zM32.634 34.636a.958.958 0 0 0 .229-.1l8.177-4.95c.31-.183.503-.523.512-.895v-9.9a1.051 1.051 0 0 0-.298-.72l-8.62 16.565z"/>
        <path fill="url(#b)" d="M18.034 6.895L9.844 1.95a.957.957 0 0 0-.259-.108L.388 18.348c.08.094.172.174.275.238l8.207 4.95a.958.958 0 0 0 .762.1l8.622-16.564a1.172 1.172 0 0 0-.22-.177z" transform="translate(23 11)"/>
        <path d="M41.552 28.69v-9.898a1.07 1.07 0 0 0-.518-.897l-8.19-4.944a.941.941 0 0 0-.303-.116l8.98 16.092a.96.96 0 0 0 .031-.236zM23.661 17.895a1.08 1.08 0 0 0-.527.897v9.899c.015.375.216.714.53.895l8.206 4.95c.19.115.412.16.63.128l-8.785-16.798-.054.029z"/>
        <path fill="url(#c)" d="M8.593.132L8.48.2h.15z" transform="translate(23 11)"/>
        <path fill="url(#d)" d="M18.038 18.586c.238-.144.412-.38.483-.66l-8.98-16.1a.96.96 0 0 0-.694.116L.704 6.858l8.788 16.798a.975.975 0 0 0 .36-.128l8.186-4.942z" transform="translate(23 11)"/>
        <path fill="url(#e)" d="M18.8 18.427l-.054-.095v.128z" transform="translate(23 11)"/>
        <path fill="url(#f)" d="M18.038 18.586l-8.177 4.95a.975.975 0 0 1-.361.128l.163.312 9.083-5.516v-.13l-.225-.407c-.07.28-.244.518-.483.663z" transform="translate(23 11)"/>
        <path fill="url(#g)" d="M18.038 18.586l-8.177 4.95a.975.975 0 0 1-.361.128l.163.312 9.083-5.516v-.13l-.225-.407c-.07.28-.244.518-.483.663z" transform="translate(23 11)"/>
    </g>
</svg>
