<svg xmlns="http://www.w3.org/2000/svg" width="52" height="48" viewBox="0 0 52 48">
    <g fill="none" fill-rule="evenodd">
        <path fill="#FFF" d="M.153 23.948c0 4.01 3.811 7.753 9.82 9.863-1.2 6.206-.215 11.209 3.074 13.158 3.381 2.003 8.418.616 13.2-3.678 4.66 4.12 9.37 5.742 12.656 3.788 3.378-2.01 4.405-7.35 3.172-13.75 6.259-2.126 9.76-5.318 9.76-9.381 0-3.917-3.819-7.306-9.746-9.402C43.416 7.88 42.29 3 38.866.97 35.563-.986 30.798.72 26.069 4.948 21.15.46 16.432-.91 13.01 1.125c-3.3 1.963-4.24 7.056-3.037 13.377-5.806 2.08-9.82 5.545-9.82 9.446z"/>
        <path fill="#53C1DE" d="M40.833 16.628a30.15 30.15 0 0 0-1.477-.479c.082-.343.158-.689.228-1.035 1.118-5.578.387-10.072-2.11-11.55-2.394-1.42-6.31.06-10.265 3.596-.39.349-.77.708-1.143 1.077a28.25 28.25 0 0 0-.76-.722c-4.145-3.78-8.3-5.374-10.794-3.89-2.392 1.422-3.1 5.647-2.094 10.933.1.524.214 1.044.34 1.562-.588.172-1.156.354-1.7.549-4.858 1.74-7.962 4.469-7.962 7.298 0 2.923 3.331 5.854 8.393 7.631.41.144.824.277 1.241.399a31.578 31.578 0 0 0-.36 1.683c-.96 5.195-.21 9.32 2.175 10.733 2.464 1.46 6.6-.04 10.627-3.657.318-.286.638-.59.958-.907.403.4.816.787 1.24 1.163 3.901 3.449 7.754 4.841 10.137 3.423 2.462-1.464 3.262-5.895 2.223-11.285-.079-.412-.171-.833-.275-1.26.29-.089.575-.18.854-.275 5.261-1.79 8.685-4.686 8.685-7.648 0-2.84-3.204-5.586-8.16-7.34z"/>
        <path fill="#FFF" fill-rule="nonzero" d="M39.692 29.703c-.251.086-.509.168-.771.248-.581-1.89-1.365-3.898-2.324-5.974.915-2.026 1.669-4.01 2.234-5.887.469.14.925.287 1.364.443 4.247 1.502 6.838 3.723 6.838 5.434 0 1.823-2.798 4.19-7.341 5.736zm-1.885 3.838c.46 2.384.525 4.539.22 6.224-.273 1.514-.823 2.523-1.502 2.927-1.447.86-4.54-.258-7.876-3.207-.382-.338-.768-.7-1.154-1.081 1.293-1.454 2.586-3.143 3.847-5.02 2.22-.202 4.315-.532 6.216-.984.094.388.177.769.249 1.14zm-19.063 9.002c-1.414.513-2.54.528-3.22.125-1.447-.858-2.049-4.17-1.228-8.612.098-.525.21-1.047.335-1.566 1.88.428 3.961.735 6.185.92a48.794 48.794 0 0 0 3.94 5.001c-.285.284-.576.56-.874.828-1.781 1.6-3.566 2.734-5.138 3.304zm-6.62-12.851c-2.239-.786-4.087-1.807-5.354-2.922-1.138-1.002-1.713-1.996-1.713-2.803 0-1.717 2.492-3.907 6.647-5.396a27.743 27.743 0 0 1 1.58-.51 49.13 49.13 0 0 0 2.237 5.955 49.878 49.878 0 0 0-2.265 6.04c-.38-.112-.758-.233-1.133-.364zm2.218-15.52c-.862-4.53-.29-7.947 1.152-8.804 1.536-.913 4.931.39 8.51 3.654.228.208.458.427.688.653a48.056 48.056 0 0 0-3.91 4.971 46.725 46.725 0 0 0-6.124.978 30.232 30.232 0 0 1-.316-1.453zm19.798 5.022a64.424 64.424 0 0 0-1.395-2.358c1.464.19 2.867.442 4.185.751a43.727 43.727 0 0 1-1.47 4.06 70.805 70.805 0 0 0-1.32-2.453zm-8.073-8.08a42.846 42.846 0 0 1 2.7 3.35 56.198 56.198 0 0 0-5.424 0 44.167 44.167 0 0 1 2.724-3.35zm-8.126 8.094c-.45.802-.882 1.615-1.295 2.438a45.249 45.249 0 0 1-1.459-4.08 43.162 43.162 0 0 1 4.161-.734c-.487.78-.956 1.573-1.407 2.376zm1.45 12.038a40.721 40.721 0 0 1-4.23-.699 45.974 45.974 0 0 1 1.487-4.163 59.68 59.68 0 0 0 2.742 4.862zm6.73 5.716a45.016 45.016 0 0 1-2.761-3.396 66.6 66.6 0 0 0 2.685.054c.935 0 1.86-.022 2.77-.063a42.636 42.636 0 0 1-2.694 3.405zm9.358-10.65a43.515 43.515 0 0 1 1.542 4.148c-1.331.312-2.768.563-4.282.75.485-.79.955-1.59 1.41-2.4.461-.822.905-1.655 1.33-2.498zm-3.03 1.492a66.376 66.376 0 0 1-2.201 3.65c-1.362.1-2.769.151-4.203.151a62.64 62.64 0 0 1-4.156-.134 57.393 57.393 0 0 1-4.2-7.456 57.714 57.714 0 0 1 1.951-3.801 56.866 56.866 0 0 1 2.226-3.64 54.076 54.076 0 0 1 8.366.001 60.95 60.95 0 0 1 2.212 3.628c.699 1.239 1.359 2.5 1.978 3.784a61.274 61.274 0 0 1-1.972 3.817zm4.046-22.496c1.537.91 2.134 4.583 1.169 9.4-.064.313-.132.626-.207.937a45.813 45.813 0 0 0-6.137-.996c-1.26-1.845-2.567-3.523-3.88-4.975.345-.34.696-.672 1.056-.995 3.389-3.03 6.556-4.226 7.999-3.37z"/>
        <path fill="#53C1DE" d="M26.045 19.756c2.264 0 4.098 1.886 4.098 4.211 0 2.326-1.834 4.211-4.098 4.211s-4.099-1.885-4.099-4.211c0-2.325 1.835-4.21 4.099-4.21"/>
    </g>
</svg>
