<svg xmlns="http://www.w3.org/2000/svg" width="280" height="93" fill="none"><g clip-path="url(#clip0)"><path fill="#959FB2" fill-rule="evenodd" d="M0 81.525v-.818h11.852V68.854h.818v11.853h11.852v.818H12.67v11.85h-.818v-11.85H0zm31.06-62.122v-.817h11.853V6.732h.817v11.854h11.852v.817H43.73v11.851h-.817v-11.85H31.06z" clip-rule="evenodd" opacity=".65"/><path fill="#FFCF00" fill-rule="evenodd" d="M31.06 50.464v-.818h11.853V37.792h.817v11.854h11.852v.818H43.73v11.85h-.817v-11.85H31.06z" clip-rule="evenodd"/><path fill="#FFCF00" d="M31.06 49.646h-.5a.5.5 0 01.5-.5v.5zm0 .818v.5a.5.5 0 01-.5-.5h.5zm11.853-.818h.5a.5.5 0 01-.5.5v-.5zm0-11.854h-.5a.501.501 0 01.5-.5v.5zm.817 0v-.5a.5.5 0 01.5.5h-.5zm0 11.854v.5a.5.5 0 01-.5-.5h.5zm11.852 0v-.5a.5.5 0 01.5.5h-.5zm0 .818h.5a.5.5 0 01-.5.5v-.5zm-11.852 0h-.5a.5.5 0 01.5-.5v.5zm0 11.85h.5a.5.5 0 01-.5.5v-.5zm-.817 0v.5a.5.5 0 01-.5-.5h.5zm0-11.85v-.5a.5.5 0 01.5.5h-.5zm-11.352-.818v.818h-1v-.818h1zm11.352.5H31.06v-1h11.852v1zm.5-12.354v11.854h-1V37.792h1zm.317.5h-.817v-1h.817v1zm-.5 11.354V37.792h1v11.854h-1zm12.352.5H43.73v-1h11.852v1zm-.5.318v-.818h1v.818h-1zm-11.352-.5h11.852v1H43.73v-1zm-.5 12.35v-11.85h1v11.85h-1zm-.317-.5h.817v1h-.817v-1zm.5-11.35v11.85h-1v-11.85h1zm-12.352-.5h11.852v1H31.06v-1z"/><path fill="#959FB2" fill-rule="evenodd" d="M62.121-11.659v-.817h11.852V-24.33h.818v11.854h11.852v.817H74.79V.192h-.818v-11.85H62.121zm0 62.123v-.818h11.852V37.792h.818v11.854h11.852v.818H74.79v11.85h-.818v-11.85H62.121zm31.063-62.123v-.817h11.852V-24.33h.817v11.854h11.852v.817h-11.852V.192h-.817v-11.85H93.184zm0 31.062v-.817h11.852V6.732h.817v11.854h11.852v.817h-11.852v11.851h-.817v-11.85H93.184zm0 31.061v-.818h11.852V37.792h.817v11.854h11.852v.818h-11.852v11.85h-.817v-11.85H93.184zm0 31.061v-.818h11.852V68.854h.817v11.853h11.852v.818h-11.852v11.85h-.817v-11.85H93.184zm31.06-93.184v-.817h11.852V-24.33h.818v11.854h11.852v.817h-11.852V.192h-.818v-11.85h-11.852zm0 31.062v-.817h11.852V6.732h.818v11.854h11.852v.817h-11.852v11.851h-.818v-11.85h-11.852zm31.061 0v-.817h11.852V6.732h.817v11.854h11.853v.817h-11.853v11.851h-.817v-11.85h-11.852zm0 31.061v-.818h11.852V37.792h.817v11.854h11.853v.818h-11.853v11.85h-.817v-11.85h-11.852zm31.06-62.123v-.817h11.852V-24.33h.818v11.854h11.852v.817h-11.852V.192h-.818v-11.85h-11.852zm0 31.062v-.817h11.852V6.732h.818v11.854h11.852v.817h-11.852v11.851h-.818v-11.85h-11.852zm0 31.061v-.818h11.852V37.792h.818v11.854h11.852v.818h-11.852v11.85h-.818v-11.85h-11.852zm0 31.061v-.818h11.852V68.854h.818v11.853h11.852v.818h-11.852v11.85h-.818v-11.85h-11.852zm31.063-93.184v-.817h11.852V-24.33h.817v11.854h11.853v.817h-11.853V.192h-.817v-11.85h-11.852zm0 62.123v-.818h11.852V37.792h.817v11.854h11.853v.818h-11.853v11.85h-.817v-11.85h-11.852zm0 31.061v-.818h11.852V68.854h.817v11.853h11.853v.818h-11.853v11.85h-.817v-11.85h-11.852zm31.06-93.184v-.817h11.853V-24.33h.817v11.854h11.852v.817h-11.852V.192h-.817v-11.85h-11.853zm0 31.062v-.817h11.853V6.732h.817v11.854h11.852v.817h-11.852v11.851h-.817v-11.85h-11.853zm0 31.061v-.818h11.853V37.792h.817v11.854h11.852v.818h-11.852v11.85h-.817v-11.85h-11.853zm31.061-62.123v-.817h11.852V-24.33h.817v11.854h11.853v.817h-11.853V.192h-.817v-11.85h-11.852zm0 31.062v-.817h11.852V6.732h.817v11.854h11.853v.817h-11.853v11.851h-.817v-11.85h-11.852zm0 62.122v-.818h11.852V68.854h.817v11.853h11.853v.818h-11.853v11.85h-.817v-11.85h-11.852z" clip-rule="evenodd" opacity=".65"/></g><defs><clipPath id="clip0"><path fill="#fff" d="M0 0h93v280H0z" transform="matrix(0 1 1 0 0 0)"/></clipPath></defs></svg>