<svg xmlns="http://www.w3.org/2000/svg" width="278" height="277" fill="none"><g clip-path="url(#clip0)" opacity=".6"><path fill="#959FB2" fill-rule="evenodd" d="M260.337 277.132h.817V265.28h11.854v-.818h-11.854V252.61h-.817v11.852h-11.851v.818h11.851v11.852zm-31.059 0h.818V265.28h11.853v-.818h-11.853V252.61h-.818v11.852h-11.851v.818h11.851v11.852zm-31.06 0h.817V265.28h11.854v-.818h-11.854V252.61h-.817v11.852h-11.851v.818h11.851v11.852zm-62.123 0h.817V265.28h11.854v-.818h-11.854V252.61h-.817v11.852h-11.851v.818h11.851v11.852zm-124.245 0h.818V265.28h11.854v-.818H12.668V252.61h-.817v11.852H0v.818h11.85v11.852zm248.487-31.061h.817v-11.852h11.854v-.818h-11.854v-11.852h-.817v11.852h-11.851v.818h11.851v11.852zm-62.119 0h.817v-11.852h11.854v-.818h-11.854v-11.852h-.817v11.852h-11.851v.818h11.851v11.852zm-31.061 0h.818v-11.852h11.853v-.818h-11.853v-11.852h-.818v11.852h-11.851v.818h11.851v11.852zm-31.062 0h.817v-11.852h11.854v-.818h-11.854v-11.852h-.817v11.852h-11.851v.818h11.851v11.852zm-62.123 0h.817v-11.852h11.854v-.818H74.789v-11.852h-.817v11.852H62.12v.818h11.85v11.852z" clip-rule="evenodd"/><path fill="#FFCF00" fill-rule="evenodd" d="M42.911 246.071h.817v-11.852h11.854v-.818H43.728v-11.852h-.817v11.852h-11.85v.818h11.85v11.852z" clip-rule="evenodd"/><path fill="#FFCF00" d="M43.728 246.071v.5a.5.5 0 00.5-.5h-.5zm-.817 0h-.5a.5.5 0 00.5.5v-.5zm.817-11.852v-.5a.5.5 0 00-.5.5h.5zm11.854 0v.5a.5.5 0 00.5-.5h-.5zm0-.818h.5a.5.5 0 00-.5-.5v.5zm-11.854 0h-.5a.5.5 0 00.5.5v-.5zm0-11.852h.5a.5.5 0 00-.5-.5v.5zm-.817 0v-.5a.5.5 0 00-.5.5h.5zm0 11.852v.5a.5.5 0 00.5-.5h-.5zm-11.85 0v-.5a.5.5 0 00-.5.5h.5zm0 .818h-.5a.5.5 0 00.5.5v-.5zm11.85 0h.5a.5.5 0 00-.5-.5v.5zm.817 11.352h-.817v1h.817v-1zm-.5-11.352v11.852h1v-11.852h-1zm12.354-.5H43.728v1h11.854v-1zm-.5-.318v.818h1v-.818h-1zm-11.354.5h11.854v-1H43.728v1zm-.5-12.352v11.852h1v-11.852h-1zm-.317.5h.817v-1h-.817v1zm.5 11.352v-11.852h-1v11.852h1zm-12.35.5h11.85v-1h-11.85v1zm.5.318v-.818h-1v.818h1zm11.35-.5h-11.85v1h11.85v-1zm.5 12.352v-11.852h-1v11.852h1z"/><path fill="#959FB2" fill-rule="evenodd" d="M260.337 215.01h.817v-11.852h11.854v-.818h-11.854v-11.852h-.817v11.852h-11.851v.818h11.851v11.852zm-93.18 0h.818v-11.852h11.853v-.818h-11.853v-11.852h-.818v11.852h-11.851v.818h11.851v11.852zm-31.062 0h.817v-11.852h11.854v-.818h-11.854v-11.852h-.817v11.852h-11.851v.818h11.851v11.852zm-31.061 0h.818v-11.852h11.853v-.818h-11.853v-11.852h-.818v11.852h-11.85v.818h11.85v11.852zm-62.123 0h.817v-11.852h11.854v-.818H43.728v-11.852h-.817v11.852h-11.85v.818h11.85v11.852zm217.426-31.061h.817v-11.852h11.854v-.818h-11.854v-11.852h-.817v11.852h-11.851v.817h11.851v11.853zm-31.059 0h.818v-11.852h11.853v-.818h-11.853v-11.852h-.818v11.852h-11.851v.817h11.851v11.853zm-31.06 0h.817v-11.852h11.854v-.818h-11.854v-11.852h-.817v11.852h-11.851v.817h11.851v11.853zm-31.061 0h.818v-11.852h11.853v-.818h-11.853v-11.852h-.818v11.852h-11.851v.817h11.851v11.853zm-31.062 0h.817v-11.852h11.854v-.818h-11.854v-11.852h-.817v11.852h-11.851v.817h11.851v11.853zm-31.061 0h.818v-11.852h11.853v-.818h-11.853v-11.852h-.818v11.852h-11.85v.817h11.85v11.853zm-31.062 0h.817v-11.852h11.854v-.818H74.789v-11.852h-.817v11.852H62.12v.817h11.85v11.853zm-31.061 0h.817v-11.852h11.854v-.818H43.728v-11.852h-.817v11.852h-11.85v.818h11.85v11.852zm-31.061 0h.818v-11.852h11.854v-.818H12.668v-11.852h-.817v11.852H0v.817h11.85v11.853zm248.487-31.061h.817v-11.852h11.854v-.818h-11.854v-11.852h-.817v11.852h-11.851v.818h11.851v11.852zm-62.119 0h.817v-11.852h11.854v-.818h-11.854v-11.852h-.817v11.852h-11.851v.818h11.851v11.852zm-31.061 0h.818v-11.852h11.853v-.818h-11.853v-11.852h-.818v11.852h-11.851v.818h11.851v11.852zm-31.062 0h.817v-11.852h11.854v-.818h-11.854v-11.852h-.817v11.852h-11.851v.818h11.851v11.852zm-31.061 0h.818v-11.852h11.853v-.818h-11.853v-11.852h-.818v11.852h-11.85v.818h11.85v11.852zm-31.062 0h.817v-11.852h11.854v-.818H74.789v-11.852h-.817v11.852H62.12v.818h11.85v11.852zm186.365-31.061h.817v-11.852h11.854v-.818h-11.854V97.305h-.817v11.852h-11.851v.818h11.851v11.852zm-31.059 0h.818v-11.852h11.853v-.818h-11.853V97.305h-.818v11.852h-11.851v.818h11.851v11.852zm-62.121 0h.818v-11.852h11.853v-.818h-11.853V97.305h-.818v11.852h-11.851v.818h11.851v11.852zm-31.062 0h.817v-11.852h11.854v-.818h-11.854V97.305h-.817v11.852h-11.851v.818h11.851v11.852zm-62.123 0h.817v-11.852h11.854v-.818H74.789V97.305h-.817v11.852H62.12v.818h11.85v11.852zm-31.061 0h.817v-11.852h11.854v-.818H43.728V97.305h-.817v11.852h-11.85v.818h11.85v11.852zm217.426-31.061h.817V78.914h11.854v-.818h-11.854V66.244h-.817v11.852h-11.851v.818h11.851v11.852zm-31.059 0h.818V78.914h11.853v-.818h-11.853V66.244h-.818v11.852h-11.851v.818h11.851v11.852zm-31.06 0h.817V78.914h11.854v-.818h-11.854V66.244h-.817v11.852h-11.851v.818h11.851v11.852zm-31.061 0h.818V78.914h11.853v-.818h-11.853V66.244h-.818v11.852h-11.851v.818h11.851v11.852zm-31.062 0h.817V78.914h11.854v-.818h-11.854V66.244h-.817v11.852h-11.851v.818h11.851v11.852zm-31.061 0h.818V78.914h11.853v-.818h-11.853V66.244h-.818v11.852h-11.85v.818h11.85v11.852zm-31.062 0h.817V78.914h11.854v-.818H74.789V66.244h-.817v11.852H62.12v.818h11.85v11.852zm-31.061 0h.817V78.914h11.854v-.818H43.728V66.244h-.817v11.852h-11.85v.818h11.85v11.852zm-31.061 0h.818V78.914h11.854v-.818H12.668V66.244h-.817v11.852H0v.818h11.85v11.852zm186.368-31.061h.817V47.853h11.854v-.818h-11.854V35.183h-.817v11.852h-11.851v.818h11.851v11.852zm-31.061 0h.818V47.853h11.853v-.818h-11.853V35.183h-.818v11.852h-11.851v.818h11.851v11.852zm-31.062 0h.817V47.853h11.854v-.818h-11.854V35.183h-.817v11.852h-11.851v.818h11.851v11.852zm-31.061 0h.818V47.853h11.853v-.818h-11.853V35.183h-.818v11.852h-11.85v.818h11.85v11.852zm-62.123 0h.817V47.853h11.854v-.818H43.728V35.183h-.817v11.852h-11.85v.818h11.85v11.852zm-31.061 0h.818V47.853h11.854v-.818H12.668V35.183h-.817v11.852H0v.818h11.85v11.852zm248.487-31.061h.817V16.792h11.854v-.818h-11.854V4.122h-.817v11.852h-11.851v.818h11.851v11.852zm-31.059 0h.818V16.792h11.853v-.818h-11.853V4.122h-.818v11.852h-11.851v.818h11.851v11.852zm-31.06 0h.817V16.792h11.854v-.818h-11.854V4.122h-.817v11.852h-11.851v.818h11.851v11.852zm-62.123 0h.817V16.792h11.854v-.818h-11.854V4.122h-.817v11.852h-11.851v.818h11.851v11.852zm-31.061 0h.818V16.792h11.853v-.818h-11.853V4.122h-.818v11.852h-11.85v.818h11.85v11.852zm-31.062 0h.817V16.792h11.854v-.818H74.789V4.122h-.817v11.852H62.12v.818h11.85v11.852zm-31.061 0h.817V16.792h11.854v-.818H43.728V4.122h-.817v11.852h-11.85v.818h11.85v11.852z" clip-rule="evenodd"/></g><defs><clipPath id="clip0"><path fill="#fff" d="M0 0h278v277H0z"/></clipPath></defs></svg>