<svg width="247" height="127" fill="none" xmlns="http://www.w3.org/2000/svg"><g opacity=".65" clip-path="url(#a)" fill-rule="evenodd" clip-rule="evenodd" fill="#FAFAFA"><path d="M5.183 17.209v.817h11.852V29.88h.817V18.026h11.852v-.817H17.852V5.358h-.817v11.85H5.183zm31.061 0v.817h11.852V29.88h.818V18.026h11.852v-.817H48.914V5.358h-.818v11.85H36.244zm31.061 0v.817h11.852V29.88h.817V18.026h11.852v-.817H79.974V5.358h-.817v11.85H67.305zm31.061 0v.817h11.852V29.88h.818V18.026h11.852v-.817h-11.852V5.358h-.818v11.85H98.366zm62.122 0v.817h11.853V29.88h.817V18.026h11.852v-.817h-11.852V5.358h-.817v11.85h-11.853z"/></g><g opacity=".65" clip-path="url(#b)" fill-rule="evenodd" clip-rule="evenodd" fill="#FAFAFA"><path d="M17.853 34.122h-.818v11.852H5.182v.818h11.853v11.852h.818V46.792h11.85v-.818h-11.85V34.122zm0 31.061h-.818v11.852H5.182v.818h11.853v11.852h.818V77.853h11.85v-.818h-11.85V65.183z"/></g><defs><clipPath id="a"><path fill="#fff" transform="rotate(-90 18 18)" d="M0 0h36v247H0z"/></clipPath><clipPath id="b"><path fill="#fff" transform="translate(0 35)" d="M0 0h36v92H0z"/></clipPath></defs></svg>