<svg xmlns="http://www.w3.org/2000/svg" width="125" height="336" fill="none"><g opacity=".6"><path fill="#959FB2" fill-rule="evenodd" d="M-11.72 0h-.817v11.852h-11.854v.818h11.854v11.852h.817V12.67H.131v-.818h-11.85V0zm124.244 0h-.817v11.852H99.854v.818h11.853v11.852h.817V12.67h11.851v-.818h-11.851V0zM-11.72 31.061h-.817v11.852h-11.854v.818h11.854v11.852h.817V43.73H.131v-.818h-11.85V31.061zm62.123 0h-.817v11.852H37.732v.818h11.854v11.852h.817V43.73h11.851v-.818h-11.85V31.061z" clip-rule="evenodd"/><path fill="#FFCF00" fill-rule="evenodd" d="M81.464 31.06h-.817v11.853H68.793v.818h11.853v11.852h.818V43.73h11.85v-.818h-11.85V31.061z" clip-rule="evenodd"/><path fill="#FFCF00" d="M80.647 31.06v-.5a.5.5 0 00-.5.5h.5zm.817 0h.5a.5.5 0 00-.5-.5v.5zm-.817 11.853v.5a.5.5 0 00.5-.5h-.5zm-11.854 0v-.5a.5.5 0 00-.5.5h.5zm0 .818h-.5a.5.5 0 00.5.5v-.5zm11.853 0h.5c0-.277-.223-.5-.5-.5v.5zm0 11.852h-.5a.5.5 0 00.5.5v-.5zm.818 0v.5a.5.5 0 00.5-.5h-.5zm0-11.852v-.5a.5.5 0 00-.5.5h.5zm11.85 0v.5a.5.5 0 00.5-.5h-.5zm0-.818h.5a.5.5 0 00-.5-.5v.5zm-11.85 0h-.5a.5.5 0 00.5.5v-.5zm-.817-11.352h.817v-1h-.817v1zm.5 11.352V31.061h-1v11.852h1zm-12.354.5h11.853v-1H68.794v1zm.5.318v-.818h-1v.818h1zm11.353-.5H68.794v1h11.853v-1zm.5 12.352V43.73h-1v11.852h1zm.318-.5h-.817v1h.817v-1zm-.5-11.352v11.852h1V43.73h-1zm12.35-.5h-11.85v1h11.85v-1zm-.5-.318v.818h1v-.818h-1zm-11.35.5h11.85v-1h-11.85v1zm-.5-12.352v11.852h1V31.061h-1z"/><path fill="#959FB2" fill-rule="evenodd" d="M-11.72 62.122h-.817v11.852h-11.854v.818h11.854v11.852h.817V74.792H.131v-.818h-11.85V62.122zm31.06 0h-.817v11.852H6.67v.818h11.853v11.852h.818V74.792h11.85v-.818h-11.85V62.122zm62.124 0h-.817v11.852H68.793v.818h11.853v11.852h.818V74.792h11.85v-.818h-11.85V62.122zM-11.72 93.183h-.817v11.852h-11.854v.818h11.854v11.852h.817v-11.852H.131v-.818h-11.85V93.183zm31.06 0h-.817v11.852H6.67v.818h11.853v11.852h.818v-11.852h11.85v-.818h-11.85V93.183zm31.063 0h-.817v11.852H37.732v.818h11.854v11.852h.817v-11.852h11.851v-.818h-11.85V93.183zm31.061 0h-.817v11.852H68.793v.818h11.853v11.852h.818v-11.852h11.85v-.818h-11.85V93.183zm31.06 0h-.817v11.852H99.854v.818h11.853v11.852h.817v-11.852h11.851v-.818h-11.851V93.183zM-11.72 124.244h-.817v11.852h-11.854v.818h11.854v11.852h.817v-11.852H.131v-.818h-11.85v-11.852zm31.06 0h-.817v11.852H6.67v.818h11.853v11.852h.818v-11.852h11.85v-.818h-11.85v-11.852zm31.063 0h-.817v11.852H37.732v.818h11.854v11.852h.817v-11.852h11.851v-.818h-11.85v-11.852zm-62.123 31.061h-.817v11.852h-11.854v.818h11.854v11.852h.817v-11.852H.131v-.818h-11.85v-11.852zm62.123 0h-.817v11.852H37.732v.818h11.854v11.852h.817v-11.852h11.851v-.818h-11.85v-11.852zm31.061 0h-.817v11.852H68.793v.818h11.853v11.852h.818v-11.852h11.85v-.818h-11.85v-11.852zm-93.184 31.061h-.817v11.852h-11.854v.818h11.854v11.852h.817v-11.852H.131v-.818h-11.85v-11.852zm31.06 0h-.817v11.852H6.67v.818h11.853v11.852h.818v-11.852h11.85v-.818h-11.85v-11.852zm31.063 0h-.817v11.852H37.732v.818h11.854v11.852h.817v-11.852h11.851v-.818h-11.85v-11.852zm31.061 0h-.817v11.852H68.793v.818h11.853v11.852h.818v-11.852h11.85v-.818h-11.85v-11.852zm31.06 0h-.817v11.852H99.854v.818h11.853v11.852h.817v-11.852h11.851v-.818h-11.851v-11.852zM-11.72 217.427h-.817v11.852h-11.854v.818h11.854v11.852h.817v-11.852H.131v-.818h-11.85v-11.852zm31.06 0h-.817v11.852H6.67v.818h11.853v11.852h.818v-11.852h11.85v-.818h-11.85v-11.852zm62.124 0h-.817v11.852H68.793v.817h11.853v11.853h.818v-11.853h11.85v-.817h-11.85v-11.852zm31.06 0h-.817v11.852H99.854v.818h11.853v11.852h.817v-11.852h11.851v-.818h-11.851v-11.852zM-11.72 248.488h-.817v11.852h-11.854v.817h11.854v11.853h.817v-11.853H.131v-.817h-11.85v-11.852zm31.06 0h-.817v11.852H6.67v.818h11.853v11.852h.818v-11.852h11.85v-.818h-11.85v-11.852zm31.063 0h-.817v11.852H37.732v.817h11.854v11.853h.817v-11.853h11.851v-.817h-11.85v-11.852zm31.061 0h-.817v11.852H68.793v.818h11.853v11.852h.818v-11.852h11.85v-.818h-11.85v-11.852zm-93.184 31.061h-.817v11.852h-11.854v.818h11.854v11.852h.817v-11.852H.131v-.818h-11.85v-11.852zm31.06 0h-.817v11.852H6.67v.818h11.853v11.852h.818v-11.852h11.85v-.818h-11.85v-11.852zm31.063 0h-.817v11.852H37.732v.818h11.854v11.852h.817v-11.852h11.851v-.818h-11.85v-11.852zm62.121 0h-.817v11.852H99.854v.818h11.853v11.852h.817v-11.852h11.851v-.818h-11.851v-11.852zM-11.72 310.61h-.817v11.852h-11.854v.817h11.854v11.853h.817v-11.853H.131v-.817h-11.85V310.61zm62.123 0h-.817v11.852H37.732v.817h11.854v11.853h.817v-11.853h11.851v-.817h-11.85V310.61zm31.061 0h-.817v11.852H68.793v.817h11.853v11.853h.818v-11.853h11.85v-.817h-11.85V310.61zm31.06 0h-.817v11.852H99.854v.817h11.853v11.853h.817v-11.853h11.851v-.817h-11.851V310.61z" clip-rule="evenodd"/></g></svg>