<svg xmlns="http://www.w3.org/2000/svg" width="276" height="336" fill="none"><path fill="#959FB2" fill-rule="evenodd" d="M15.038 0h-.817v11.852H2.367v.818h11.854v11.852h.817V12.67H26.89v-.818H15.04V0zm31.059 0h-.818v11.852H33.426v.818h11.853v11.852h.818V12.67h11.85v-.818h-11.85V0zm62.121 0h-.818v11.852H95.547v.818H107.4v11.852h.818V12.67h11.851v-.818h-11.851V0zm93.185 0h-.817v11.852h-11.854v.818h11.854v11.852h.817V12.67h11.851v-.818h-11.851V0zM15.038 31.061h-.817v11.852H2.367v.818h11.854v11.852h.817V43.73H26.89v-.818H15.04V31.061zm31.059 0h-.818v11.852H33.426v.818h11.853v11.852h.818V43.73h11.85v-.818h-11.85V31.061zm31.06 0h-.817v11.852H64.486v.818H76.34v11.852h.817V43.73h11.851v-.818h-11.85V31.061zm31.061 0h-.818v11.852H95.547v.818H107.4v11.852h.818V43.73h11.851v-.818h-11.851V31.061zm62.123 0h-.818v11.852H157.67v.818h11.853v11.852h.818V43.73h11.851v-.818h-11.851V31.061zM15.038 62.122h-.817v11.852H2.367v.818h11.854v11.852h.817V74.792H26.89v-.818H15.04V62.122zm62.119 0h-.817v11.852H64.486v.818H76.34v11.852h.817V74.792h11.851v-.818h-11.85V62.122zm31.061 0h-.818v11.852H95.547v.817H107.4v11.853h.818V74.79h11.851v-.817h-11.851V62.122zm31.062 0h-.817v11.852h-11.854v.818h11.854v11.852h.817V74.792h11.851v-.818H139.28V62.122zm31.061 0h-.818v11.852H157.67v.818h11.853v11.852h.818V74.792h11.851v-.818h-11.851V62.122zm31.062 0h-.817v11.852h-11.854v.818h11.854v11.852h.817V74.792h11.851v-.818h-11.851V62.122zm31.061 0h-.817v11.852h-11.854v.818h11.854v11.852h.817V74.792h11.851v-.818h-11.851V62.122zM15.038 93.183h-.817v11.852H2.367v.818h11.854v11.852h.817v-11.852H26.89v-.818H15.04V93.183zm31.059 0h-.818v11.852H33.426v.818h11.853v11.852h.818v-11.852h11.85v-.818h-11.85V93.183zm31.06 0h-.817v11.852H64.486v.818H76.34v11.852h.817v-11.852h11.851v-.818h-11.85V93.183zm31.061 0h-.818v11.852H95.547v.818H107.4v11.852h.818v-11.852h11.851v-.818h-11.851V93.183zm62.123 0h-.818v11.852H157.67v.818h11.853v11.852h.818v-11.852h11.851v-.818h-11.851V93.183zm31.062 0h-.817v11.852h-11.854v.818h11.854v11.852h.817v-11.852h11.851v-.818h-11.851V93.183zm62.121 0h-.817v11.852h-11.853v.818h11.853v11.852h.817v-11.852h11.851v-.818h-11.851V93.183zM15.038 124.244h-.817v11.852H2.367v.818h11.854v11.852h.817v-11.852H26.89v-.818H15.04v-11.852zm31.059 0h-.818v11.852H33.426v.818h11.853v11.852h.818v-11.852h11.85v-.818h-11.85v-11.852zm31.06 0h-.817v11.852H64.486v.818H76.34v11.852h.817v-11.852h11.851v-.818h-11.85v-11.852zm62.123 0h-.817v11.852h-11.854v.818h11.854v11.852h.817v-11.852h11.851v-.818H139.28v-11.852zm31.061 0h-.818v11.852H157.67v.818h11.853v11.852h.818v-11.852h11.851v-.818h-11.851v-11.852zm31.062 0h-.817v11.852h-11.854v.818h11.854v11.852h.817v-11.852h11.851v-.818h-11.851v-11.852zm31.061 0h-.817v11.852h-11.854v.818h11.854v11.852h.817v-11.852h11.851v-.818h-11.851v-11.852zm31.06 0h-.817v11.852h-11.853v.818h11.853v11.852h.817v-11.852h11.851v-.818h-11.851v-11.852zM15.038 155.305h-.817v11.852H2.367v.818h11.854v11.852h.817v-11.852H26.89v-.818H15.04v-11.852zm31.059 0h-.818v11.852H33.426v.818h11.853v11.852h.818v-11.852h11.85v-.818h-11.85v-11.852zm31.06 0h-.817v11.852H64.486v.818H76.34v11.852h.817v-11.852h11.851v-.818h-11.85v-11.852zm31.061 0h-.818v11.852H95.547v.818H107.4v11.852h.818v-11.852h11.851v-.818h-11.851v-11.852zm31.062 0h-.817v11.852h-11.854v.818h11.854v11.852h.817v-11.852h11.851v-.818H139.28v-11.852zm31.061 0h-.818v11.852H157.67v.818h11.853v11.852h.818v-11.852h11.851v-.818h-11.851v-11.852zm31.062 0h-.817v11.852h-11.854v.818h11.854v11.852h.817v-11.852h11.851v-.818h-11.851v-11.852zm31.061 0h-.817v11.852h-11.854v.818h11.854v11.852h.817v-11.852h11.851v-.818h-11.851v-11.852zM15.038 186.366h-.817v11.852H2.367v.818h11.854v11.852h.817v-11.852H26.89v-.818H15.04v-11.852zm62.119 0h-.817v11.852H64.486v.818H76.34v11.852h.817v-11.852h11.851v-.818h-11.85v-11.852zm124.246 0h-.817v11.852h-11.854v.818h11.854v11.852h.817v-11.852h11.851v-.818h-11.851v-11.852zm31.061 0h-.817v11.852h-11.854v.818h11.854v11.852h.817v-11.852h11.851v-.818h-11.851v-11.852zm31.06 0h-.817v11.852h-11.853v.818h11.853v11.852h.817v-11.852h11.851v-.818h-11.851v-11.852zM15.038 217.427h-.817v11.852H2.367v.817h11.854v11.853h.817v-11.853H26.89v-.817H15.04v-11.852zm31.059 0h-.818v11.852H33.426v.817h11.853v11.853h.818v-11.853h11.85v-.817h-11.85v-11.852zm31.06 0h-.817v11.852H64.486v.817H76.34v11.853h.817v-11.853h11.851v-.817h-11.85v-11.852zm31.061 0h-.818v11.852H95.547v.818H107.4v11.852h.818v-11.852h11.851v-.818h-11.851v-11.852zm31.062 0h-.817v11.852h-11.854v.817h11.854v11.853h.817v-11.853h11.851v-.817H139.28v-11.852zm31.061 0h-.818v11.852H157.67v.817h11.853v11.853h.818v-11.853h11.851v-.817h-11.851v-11.852zm31.062 0h-.817v11.852h-11.854v.817h11.854v11.853h.817v-11.853h11.851v-.817h-11.851v-11.852zm31.061 0h-.817v11.852h-11.854v.817h11.854v11.853h.817v-11.853h11.851v-.817h-11.851v-11.852zm31.06 0h-.817v11.852h-11.853v.817h11.853v11.853h.817v-11.853h11.851v-.817h-11.851v-11.852zM15.038 248.488h-.817v11.852H2.367v.817h11.854v11.853h.817v-11.853H26.89v-.817H15.04v-11.852zm31.059 0h-.818v11.852H33.426v.817h11.853v11.853h.818v-11.853h11.85v-.817h-11.85v-11.852zm31.06 0h-.817v11.852H64.486v.817H76.34v11.853h.817v-11.853h11.851v-.817h-11.85v-11.852zm31.061 0h-.818v11.852H95.547v.817H107.4v11.853h.818v-11.853h11.851v-.817h-11.851v-11.852zm31.062 0h-.817v11.852h-11.854v.817h11.854v11.853h.817v-11.853h11.851v-.817H139.28v-11.852zm31.061 0h-.818v11.852H157.67v.817h11.853v11.853h.818v-11.853h11.851v-.817h-11.851v-11.852zm31.062 0h-.817v11.852h-11.854v.817h11.854v11.853h.817v-11.853h11.851v-.817h-11.851v-11.852zm31.061 0h-.817v11.852h-11.854v.817h11.854v11.853h.817v-11.853h11.851v-.817h-11.851v-11.852zm31.06 0h-.817v11.852h-11.853v.817h11.853v11.853h.817v-11.853h11.851v-.817h-11.851v-11.852zM15.038 279.549h-.817v11.852H2.367v.817h11.854v11.853h.817v-11.853H26.89v-.817H15.04v-11.852zm31.059 0h-.818v11.852H33.426v.817h11.853v11.853h.818v-11.853h11.85v-.817h-11.85v-11.852zm31.06 0h-.817v11.852H64.486v.817H76.34v11.853h.817v-11.853h11.851v-.817h-11.85v-11.852zm31.061 0h-.818v11.852H95.547v.817H107.4v11.853h.818v-11.853h11.851v-.817h-11.851v-11.852zm31.062 0h-.817v11.852h-11.854v.817h11.854v11.853h.817v-11.853h11.851v-.817H139.28v-11.852zm31.061 0h-.818v11.852H157.67v.817h11.853v11.853h.818v-11.853h11.851v-.817h-11.851v-11.852zm31.062 0h-.817v11.852h-11.854v.817h11.854v11.853h.817v-11.853h11.851v-.817h-11.851v-11.852zm31.061 0h-.817v11.852h-11.854v.817h11.854v11.853h.817v-11.853h11.851v-.817h-11.851v-11.852zm31.06 0h-.817v11.852h-11.853v.817h11.853v11.853h.817v-11.853h11.851v-.817h-11.851v-11.852zM15.038 310.61h-.817v11.852H2.367v.817h11.854v11.853h.817v-11.853H26.89v-.817H15.04V310.61zm31.059 0h-.818v11.852H33.426v.817h11.853v11.853h.818v-11.853h11.85v-.817h-11.85V310.61zm31.06 0h-.817v11.852H64.486v.817H76.34v11.853h.817v-11.853h11.851v-.817h-11.85V310.61zm31.061 0h-.818v11.852H95.547v.817H107.4v11.853h.818v-11.853h11.851v-.817h-11.851V310.61zm31.062 0h-.817v11.852h-11.854v.817h11.854v11.853h.817v-11.853h11.851v-.817H139.28V310.61zm31.061 0h-.818v11.852H157.67v.817h11.853v11.853h.818v-11.853h11.851v-.817h-11.851V310.61zm31.062 0h-.817v11.852h-11.854v.817h11.854v11.853h.817v-11.853h11.851v-.817h-11.851V310.61zm31.061 0h-.817v11.852h-11.854v.817h11.854v11.853h.817v-11.853h11.851v-.817h-11.851V310.61zm31.06 0h-.817v11.852h-11.853v.817h11.853v11.853h.817v-11.853h11.851v-.817h-11.851V310.61z" clip-rule="evenodd" opacity=".65"/></svg>