<svg xmlns="http://www.w3.org/2000/svg" width="248" height="68" fill="none" viewBox="0 0 248 68"><g clip-path="url(#clip0)"><g clip-path="url(#clip1)" opacity=".65"><path fill="#FAFAFA" fill-rule="evenodd" d="M6.184 18.791v-.817h11.852V6.12h.817v11.854h11.852v.817H18.853v11.851h-.817v-11.85H6.184zm0 31.062v-.818h11.852V37.182h.817v11.853h11.852v.818H18.853v11.85h-.817v-11.85H6.184zm31.06-31.062v-.817h11.852V6.12h.818v11.854h11.852v.817H49.914v11.851h-.818v-11.85H37.244zm0 31.062v-.818h11.852V37.182h.818v11.853h11.852v.818H49.914v11.85h-.818v-11.85H37.244zm31.061-31.062v-.817h11.852V6.12h.817v11.854h11.852v.817H80.974v11.851h-.817v-11.85H68.305zm0 31.062v-.818h11.852V37.182h.817v11.853h11.852v.818H80.974v11.85h-.817v-11.85H68.305zm31.06-31.062v-.817h11.852V6.12h.818v11.854h11.852v.817h-11.852v11.851h-.818v-11.85H99.365zm31.063 31.062v-.818h11.852V37.182h.817v11.853h11.853v.818h-11.853v11.85h-.817v-11.85h-11.852zm31.06-31.062v-.817h11.853V6.12h.817v11.854h11.852v.817h-11.852v11.851h-.817v-11.85h-11.853zm0 31.062v-.818h11.853V37.182h.817v11.853h11.852v.818h-11.852v11.85h-.817v-11.85h-11.853zm31.061 0v-.818h11.852V37.182h.817v11.853h11.853v.818h-11.853v11.85h-.817v-11.85h-11.852z" clip-rule="evenodd"/></g></g><defs><clipPath id="clip0"><path fill="#fff" d="M0 0h248v68H0z"/></clipPath><clipPath id="clip1"><path fill="#fff" d="M0 0h92v272H0z" transform="matrix(0 1 1 0 -24 0)"/></clipPath></defs></svg>