<svg xmlns="http://www.w3.org/2000/svg" width="178" height="274" fill="none" viewBox="0 0 178 274"><path d="M12.083 273.878h.817v-11.852h11.854v-.818H12.9v-11.852h-.817v11.852H.233v.818h11.85v11.852zm62.125-31.061h.817v-11.852h11.854v-.818H75.025v-11.852h-.817v11.852h-11.85v.818h11.85v11.852zm-31.063 0h.817v-11.852h11.854v-.818H43.962v-11.852h-.817v11.852h-11.85v.818h11.85v11.852zm-31.062 0h.817v-11.852h11.854v-.818H12.9v-11.852h-.817v11.852H.233v.818h11.85v11.852zm62.125-31.061h.817v-11.852h11.854v-.818H75.025v-11.852h-.817v11.852h-11.85v.818h11.85v11.852zm-31.063 0h.817v-11.852h11.854v-.818H43.962v-11.852h-.817v11.852h-11.85v.818h11.85v11.852zm31.063-31.061h.817v-11.852h11.854v-.818H75.025v-11.852h-.817v11.852h-11.85v.818h11.85v11.852zm-31.063 0h.817v-11.852h11.854v-.818H43.962v-11.852h-.817v11.852h-11.85v.818h11.85v11.852zm-31.062 0h.817v-11.852h11.854v-.818H12.9v-11.852h-.817v11.852H.233v.818h11.85v11.852zm62.125-31.061h.817v-11.852h11.854v-.818H75.025v-11.852h-.817v11.852h-11.85v.818h11.85v11.852zm-62.125 0h.817v-11.852h11.854v-.818H12.9v-11.852h-.817v11.852H.233v.818h11.85v11.852zm31.062-31.061h.817v-11.852h11.854v-.818H43.962V94.051h-.817v11.852h-11.85v.818h11.85v11.852zm-31.062 0h.817v-11.852h11.854v-.818H12.9V94.051h-.817v11.852H.233v.818h11.85v11.852zm62.125-31.061h.817V75.66h11.854v-.817H75.025V62.99h-.817v11.852h-11.85v.818h11.85v11.852zm-31.063 0h.817V75.66h11.854v-.817H43.962V62.99h-.817v11.852h-11.85v.818h11.85v11.852zm-31.062 0h.817V75.66h11.854v-.818H12.9V62.99h-.817v11.852H.233v.818h11.85v11.852zm31.062-31.061h.817V44.6h11.854v-.818H43.962V31.93h-.817v11.852h-11.85v.818h11.85v11.85zm-31.062 0h.817V44.6h11.854v-.818H12.9V31.93h-.817v11.852H.233v.818h11.85v11.85zm0-31.061h.817V13.538h11.854v-.818H12.9V.868h-.817V12.72H.233v.818h11.85V25.39zm79.038 235.819v.817h11.852v11.854h.818v-11.854h11.852v-.817h-11.852v-11.851h-.818v11.851H91.121zm0-31.062v.818h11.852v11.853h.818v-11.853h11.852v-.818h-11.852v-11.851h-.818v11.851H91.121zm31.063 31.062v.817h11.852v11.854h.817v-11.854h11.852v-.817h-11.852v-11.851h-.817v11.851h-11.852zm0-31.062v.818h11.852v11.853h.817v-11.853h11.852v-.818h-11.852v-11.851h-.817v11.851h-11.852zm31.058 31.062v.817h11.852v11.854h.818v-11.854h11.852v-.817h-11.852v-11.851h-.818v11.851h-11.852z" opacity=".65" fill="#FAFAFA" fill-rule="evenodd" clip-rule="evenodd"/></svg>