<svg xmlns="http://www.w3.org/2000/svg" width="336" height="119" fill="none" viewBox="0 0 336 119"><g opacity=".6"><path fill="#959FB2" fill-rule="evenodd" d="M0 12.475v.818h11.852v11.853h.818V13.293h11.852v-.818H12.67V.625h-.818v11.85H0zm31.06 62.122v.817h11.853v11.853h.817V75.415h11.852v-.817H43.73V62.746h-.817v11.85H31.06z" clip-rule="evenodd"/><path fill="#FFCF00" fill-rule="evenodd" d="M31.06 43.536v.818h11.853v11.853h.817V44.354h11.852v-.818H43.73v-11.85h-.817v11.85H31.06z" clip-rule="evenodd"/><path fill="#FFCF00" d="M31.06 44.354h-.5a.5.5 0 00.5.5v-.5zm0-.818v-.5a.5.5 0 00-.5.5h.5zm11.853.818h.5a.5.5 0 00-.5-.5v.5zm0 11.853h-.5a.5.5 0 00.5.5v-.5zm.817 0v.5a.5.5 0 00.5-.5h-.5zm0-11.853v-.5a.5.5 0 00-.5.5h.5zm11.852 0v.5a.5.5 0 00.5-.5h-.5zm0-.818h.5a.5.5 0 00-.5-.5v.5zm-11.852 0h-.5a.5.5 0 00.5.5v-.5zm0-11.85h.5a.5.5 0 00-.5-.5v.5zm-.817 0v-.5a.5.5 0 00-.5.5h.5zm0 11.85v.5a.5.5 0 00.5-.5h-.5zm-11.352.818v-.818h-1v.818h1zm11.352-.5H31.06v1h11.852v-1zm.5 12.353V44.354h-1v11.853h1zm.317-.5h-.817v1h.817v-1zm-.5-11.353v11.853h1V44.354h-1zm12.352-.5H43.73v1h11.852v-1zm-.5-.318v.818h1v-.818h-1zm-11.352.5h11.852v-1H43.73v1zm-.5-12.35v11.85h1v-11.85h-1zm-.317.5h.817v-1h-.817v1zm.5 11.35v-11.85h-1v11.85h1zm-12.352.5h11.852v-1H31.06v1z"/><path fill="#959FB2" fill-rule="evenodd" d="M62.121 105.659v.817h11.852v11.854h.818v-11.854h11.852v-.817H74.79V93.808h-.818v11.851H62.121zm0-62.123v.818h11.852v11.853h.818V44.354h11.852v-.818H74.79v-11.85h-.818v11.85H62.121zm31.063 62.123v.817h11.852v11.854h.817v-11.854h11.852v-.817h-11.852V93.808h-.817v11.851H93.184zm0-31.062v.817h11.852v11.853h.817V75.415h11.852v-.817h-11.852V62.746h-.817v11.85H93.184zm0-31.061v.818h11.852v11.853h.817V44.354h11.852v-.818h-11.852v-11.85h-.817v11.85H93.184zm0-31.061v.818h11.852v11.853h.817V13.293h11.852v-.818h-11.852V.625h-.817v11.85H93.184zm31.06 93.184v.817h11.852v11.854h.818v-11.854h11.852v-.817h-11.852V93.808h-.818v11.851h-11.852zm0-31.062v.817h11.852v11.853h.818V75.415h11.852v-.817h-11.852V62.746h-.818v11.85h-11.852zm31.061 0v.817h11.852v11.853h.817V75.415h11.853v-.817h-11.853V62.746h-.817v11.85h-11.852zm0-31.061v.818h11.852v11.853h.817V44.354h11.853v-.818h-11.853v-11.85h-.817v11.85h-11.852zm31.06 62.123v.817h11.852v11.854h.818v-11.854h11.852v-.817h-11.852V93.808h-.818v11.851h-11.852zm0-31.062v.817h11.852v11.853h.818V75.415h11.852v-.817h-11.852V62.746h-.818v11.85h-11.852zm0-31.061v.818h11.852v11.853h.818V44.354h11.852v-.818h-11.852v-11.85h-.818v11.85h-11.852zm0-31.061v.818h11.852v11.853h.818V13.293h11.852v-.818h-11.852V.625h-.818v11.85h-11.852zm31.063 93.184v.817h11.852v11.854h.817v-11.854h11.853v-.817h-11.853V93.808h-.817v11.851h-11.852zm0-62.123v.818h11.852v11.853h.817V44.354h11.853v-.818h-11.853v-11.85h-.817v11.85h-11.852zm0-31.061v.818h11.852v11.853h.817V13.293h11.853v-.818h-11.853V.625h-.817v11.85h-11.852zm31.06 93.184v.817h11.853v11.854h.817v-11.854h11.852v-.817h-11.852V93.808h-.817v11.851h-11.853zm0-31.062v.817h11.853v11.853h.817V75.415h11.852v-.817h-11.852V62.746h-.817v11.85h-11.853zm0-31.061v.818h11.853v11.853h.817V44.354h11.852v-.818h-11.852v-11.85h-.817v11.85h-11.853zm31.061 62.123v.817h11.852v11.854h.817v-11.854h11.853v-.817h-11.853V93.808h-.817v11.851h-11.852zm0-31.062v.817h11.852v11.853h.817V75.415h11.853v-.817h-11.853V62.746h-.817v11.85h-11.852zm0-62.122v.818h11.852v11.853h.817V13.293h11.853v-.818h-11.853V.625h-.817v11.85h-11.852zm31.06 62.122v.817h11.853v11.853h.817V75.415h11.852v-.817h-11.852V62.746h-.817v11.85h-11.853zm0-31.061v.818h11.853v11.853h.817V44.354h11.852v-.818h-11.852v-11.85h-.817v11.85h-11.853zm0-31.061v.818h11.853v11.853h.817V13.293h11.852v-.818h-11.852V.625h-.817v11.85h-11.853z" clip-rule="evenodd"/></g></svg>