<svg xmlns="http://www.w3.org/2000/svg" xmlns:xlink="http://www.w3.org/1999/xlink" width="965" height="718"><defs><linearGradient id="c" x1="21.876%" x2="84.314%" y1="12.996%" y2="76.809%"><stop offset="0%" stop-color="#1358DB"/><stop offset="55.356%" stop-color="#FFF"/><stop offset="100%" stop-color="#1358DB"/></linearGradient><linearGradient id="d" x1="99.27%" x2="18.386%" y1="-11.9%" y2="70.027%"><stop offset="0%" stop-color="#1358DB"/><stop offset="48.81%" stop-color="#FFF"/><stop offset="100%" stop-color="#1358DB"/></linearGradient><linearGradient id="e" x1="80.992%" x2="39.999%" y1="7.279%" y2="47.999%"><stop offset="0%" stop-color="#1358DB"/><stop offset="48.81%" stop-color="#FFF"/><stop offset="100%" stop-color="#1358DB"/></linearGradient><linearGradient id="f" x1="83.839%" x2="36.545%" y1="3.372%" y2="51.453%"><stop offset="0%" stop-color="#1358DB"/><stop offset="48.81%" stop-color="#FFF"/><stop offset="100%" stop-color="#1358DB"/></linearGradient><linearGradient id="g" x1="85.477%" x2="33.799%" y1="2.147%" y2="54.349%"><stop offset="0%" stop-color="#1358DB"/><stop offset="48.81%" stop-color="#FFF"/><stop offset="100%" stop-color="#1358DB"/></linearGradient><linearGradient id="h" x1="89.568%" x2="27.407%" y1="-1.649%" y2="60.775%"><stop offset="0%" stop-color="#1358DB"/><stop offset="48.81%" stop-color="#FFF"/><stop offset="100%" stop-color="#1358DB"/></linearGradient><linearGradient id="i" x1="21.876%" x2="94.723%" y1="12.996%" y2="86.177%"><stop offset="0%" stop-color="#1358DB"/><stop offset="55.356%" stop-color="#FFF"/><stop offset="100%" stop-color="#1358DB"/></linearGradient><linearGradient id="j" x1="21.876%" x2="92.308%" y1="12.996%" y2="84.209%"><stop offset="0%" stop-color="#1358DB"/><stop offset="55.356%" stop-color="#FFF"/><stop offset="100%" stop-color="#1358DB"/></linearGradient><linearGradient id="k" x1="21.876%" x2="95.056%" y1="12.996%" y2="86.604%"><stop offset="0%" stop-color="#1358DB"/><stop offset="55.356%" stop-color="#FFF"/><stop offset="100%" stop-color="#1358DB"/></linearGradient><path id="a" d="M0 0h1125v718H0z"/></defs><g fill="none" fill-rule="evenodd"><mask id="b" fill="#fff"><use xlink:href="#a"/></mask><g mask="url(#b)" opacity=".55"><path stroke="url(#c)" d="M238.3 429.371l1004.024 576.9" transform="translate(-644 -27)"/><path stroke="url(#d)" d="M315 995.396L1475.661 347" transform="translate(-644 -27)"/><path stroke="url(#d)" d="M327 1078.396L1487.661 430" opacity=".7" transform="translate(-644 -27)"/><path stroke="url(#e)" d="M0 723.628L1294.626 0" opacity=".5" transform="translate(-644 -27)"/><path stroke="url(#f)" d="M68 776.627L1362.626 53" opacity=".7" transform="translate(-644 -27)"/><path stroke="url(#g)" d="M130 832.627L1424.626 109" opacity=".8" transform="translate(-644 -27)"/><path stroke="url(#h)" d="M194 883.627L1488.626 160" transform="translate(-644 -27)"/><path stroke="url(#d)" d="M258.248 938.07L1469.5 258.5" transform="translate(-644 -27)"/><path stroke="url(#c)" d="M604.748 23.284l1004.023 576.9M544.024 89.987l1004.023 576.9" opacity=".5" transform="translate(-644 -27)"/><path stroke="url(#i)" d="M473.369 146.42l1004.023 576.9" transform="translate(-644 -27)"/><path stroke="url(#j)" d="M423.208 218.504l1004.023 576.9" transform="translate(-644 -27)"/><path stroke="url(#k)" d="M348.222 280.454l1004.023 576.9" transform="translate(-644 -27)"/><path stroke="url(#c)" d="M268.554 339.286l1004.023 576.9m-1110.79-421.56l1004.023 576.9" transform="translate(-644 -27)"/></g></g></svg>