<svg height="1587" width="1440" xmlns="http://www.w3.org/2000/svg"><g fill="none" fill-rule="evenodd" opacity=".15"><path d="M927.727 878a3 3 0 11-6 0 3 3 0 016 0m144.818 0a3 3 0 11-6 0 3 3 0 016 0m144.819 0a3 3 0 11-6 0 3 3 0 016 0m-724.091 0a3 3 0 11-6 0 3 3 0 016 0m289.637 0a3 3 0 11-6 0 3 3 0 016 0m-144.82 0a3 3 0 11-5.999 0 3 3 0 016 0m-579.273 0a3 3 0 11-6 0 3 3 0 016 0m289.637 0a3 3 0 11-6 0 3 3 0 016 0m-144.819 0a3 3 0 11-6 0 3 3 0 016 0m724.091-144a3 3 0 11-6 0 3 3 0 016 0m144.818 0a3 3 0 11-6 0 3 3 0 016 0m144.819 0a3 3 0 11-6 0 3 3 0 016 0m-724.091 0a3 3 0 11-6 0 3 3 0 016 0m289.637 0a3 3 0 11-6 0 3 3 0 016 0m-144.82 0a3 3 0 11-5.999 0 3 3 0 016 0m-579.273 0a3 3 0 11-6 0 3 3 0 016 0m289.637 0a3 3 0 11-6 0 3 3 0 016 0m-144.819 0a3 3 0 11-6 0 3 3 0 016 0m724.091-144a3 3 0 11-6 0 3 3 0 016 0m144.818 0a3 3 0 11-6 0 3 3 0 016 0m144.819 0a3 3 0 11-6 0 3 3 0 016 0m-724.091 0a3 3 0 11-6 0 3 3 0 016 0m289.637 0a3 3 0 11-6 0 3 3 0 016 0m-144.82 0a3 3 0 11-5.999 0 3 3 0 016 0m-579.273 0a3 3 0 11-6 0 3 3 0 016 0m289.637 0a3 3 0 11-6 0 3 3 0 016 0m-144.819 0a3 3 0 11-6 0 3 3 0 016 0m724.091-144a3 3 0 11-6 0 3 3 0 016 0m144.818 0a3 3 0 11-6 0 3 3 0 016 0m144.819 0a3 3 0 11-6 0 3 3 0 016 0m-724.091 0a3 3 0 11-6 0 3 3 0 016 0m289.637 0a3 3 0 11-6 0 3 3 0 016 0m-144.82 0a3 3 0 11-5.999 0 3 3 0 016 0m-579.273 0a3 3 0 11-6 0 3 3 0 016 0m289.637 0a3 3 0 11-6 0 3 3 0 016 0m-144.819 0a3 3 0 11-6 0 3 3 0 016 0m724.091-144a3 3 0 11-6 0 3 3 0 016 0m144.818 0a3 3 0 11-6 0 3 3 0 016 0m144.819 0a3 3 0 11-6 0 3 3 0 016 0m-724.091 0a3 3 0 11-6 0 3 3 0 016 0m289.637 0a3 3 0 11-6 0 3 3 0 016 0m-144.82 0a3 3 0 11-5.999 0 3 3 0 016 0m-579.273 0a3 3 0 11-6 0 3 3 0 016 0m289.637 0a3 3 0 11-6 0 3 3 0 016 0m-144.819 0a3 3 0 11-6 0 3 3 0 016 0m724.091-144a3 3 0 11-6 0 3 3 0 016 0m144.818 0a3 3 0 11-6 0 3 3 0 016 0m144.819 0a3 3 0 11-6 0 3 3 0 016 0m-724.091 0a3 3 0 11-6 0 3 3 0 016 0m289.637 0a3 3 0 11-6 0 3 3 0 016 0m-144.82 0a3 3 0 11-5.999 0 3 3 0 016 0m-579.273 0a3 3 0 11-6 0 3 3 0 016 0m289.637 0a3 3 0 11-6 0 3 3 0 016 0m-144.819 0a3 3 0 11-6 0 3 3 0 016 0M927.727 14a3 3 0 11-6 0 3 3 0 016 0m144.818 0a3 3 0 11-6 0 3 3 0 016 0m144.819 0a3 3 0 11-6 0 3 3 0 016 0m-724.091 0a3 3 0 11-6 0 3 3 0 016 0m289.637 0a3 3 0 11-6 0 3 3 0 016 0m-144.82 0a3 3 0 11-5.999 0 3 3 0 016 0M58.818 14a3 3 0 11-6 0 3 3 0 016 0m289.637 0a3 3 0 11-6 0 3 3 0 016 0m-144.819 0a3 3 0 11-6 0 3 3 0 016 0m1158.546 864a3 3 0 11-6 0 3 3 0 016 0m0-144a3 3 0 11-6 0 3 3 0 016 0m0-144a3 3 0 11-6 0 3 3 0 016 0m0-144a3 3 0 11-6 0 3 3 0 016 0m0-144a3 3 0 11-6 0 3 3 0 016 0m0-144a3 3 0 11-6 0 3 3 0 016 0m0-144a3 3 0 11-6 0 3 3 0 016 0" fill="#fff"/><g stroke="#fff"><path d="M201.02 878.225H56.204m289.636 0H201.02m289.638 0H345.839m289.636 0H490.657m1013.727 0h-144.818M56.202 733.68H-110m745.475 0H490.657m289.637 0H635.476m289.636 0H780.294m289.636 0H925.112m289.637 0h-144.82m289.638 0h-144.818m289.635 0h-144.818M56.202 589.68H-110m890.294 0H635.476m289.636 0H780.294m289.636 0H925.112m289.637 0h-144.82m289.638 0h-144.818m289.635 0h-144.818M56.202 446.225H-110m890.294 0H635.476m289.636 0H780.294m289.636 0H925.112m289.637 0h-144.82m289.638 0h-144.818m289.635 0h-144.818M56.202 301.953H-110m311.02 0H56.204m289.636 0H201.02m579.274 0H635.476m289.636 0H780.294m579.273 0h-144.818m289.635 0h-144.818M56.202 157.953H-110m311.02 0H56.204m289.636 0H201.02m289.638 0H345.839m434.455 0H635.476m289.636 0H780.294m434.455 0h-144.82m289.638 0h-144.818m289.635 0h-144.818M56.202 14.498H-110m311.02 0H56.204m289.636 0H201.02m289.638 0H345.839m579.273 0H780.294m289.636 0H925.112m289.637 0h-144.82m289.638 0h-144.818m289.635 0h-144.818M1211.864 876.5v537.01m0-681.513V876.5m0-289v144.497m0-287.497v143m0-431.5v144.5m0-288.5v144m0-214v70M1355.864 876.5v653m0-797.503V876.5m0-289v144.497m0-287.497v143m0-287v144m0-288.5v144.5m0-288.5v144m0-214v70M1067.045 876.5v218.005m0-362.508V876.5m0-289v144.497m0-287.497v143m0-287v144m0-432.5v144m0-214v70M922.227 876.5v294.507m0-439.01V876.5m0-289v144.497m0-287.497v143m0-287v144m0-288.5v144.5m0-288.5v144m0-214v70M777.41 1020.004V1094m0-217.5v143.504m0-288.007V876.5m0-289v144.497m0-287.497v143m0-287v144m0-288.5v144.5m0-288.5v144M632.59 731.997V876.5m0-289v144.497m0-431.497v144m0-288.5v144.5M487.773 1020.004V1094m0-217.5v143.504m0-288.007V876.5m0-289v144.497m0-719.997v144M488-58v70M342.955 876.5v377.026m0-521.529V876.5m0-720.5v144.5m0-288.5v144m0-214v70M198.136 876.5v543m0-687.503V876.5m0-576v144m0-288.5v144.5m0-288.5v144m0-214v70M53.318 876.5v710.006m0-1142.006v143m0-287v144m0-288.5v144.5m0-288.5v144m0-214v70"/></g></g></svg>