<svg version="1.0" xmlns="http://www.w3.org/2000/svg" width="933.333" height="933.333" viewBox="0 0 700 700" preserveAspectRatio="xMidYMid meet"><g fill="#000" stroke="none"><path d="M0 350v350h700V0H0v350zm428-24.7v203.4l13.3 2.9 13.2 2.9.3 10.8.3 10.7-54.8-.2-54.7-.3-2.9-7.5c-1.5-4.1-2.9-7.6-3.1-7.7-.1-.2-4.1 2.2-8.7 5.2-9.5 6.2-20.3 10.7-32.8 13.7-12.5 2.9-41.6 3.6-56.9 1.4-55.4-8.2-87-40.7-97.2-100.2-4.2-24.5-5.1-59.9-2-83.4 8.5-65.7 41-105.2 95.9-116.5 23.6-4.9 58-3.9 90 2.6 5.1 1 9.9 1.9 10.7 1.9 1.2 0 1.4-9.1 1.4-57.4 0-53.9-.1-57.5-1.7-58-1-.2-7.3-1.7-14-3.2l-12.3-2.8v-10.1c0-5.6.3-10.5.7-10.8.3-.4 26.4-.7 58-.7H428v203.3zm96.5 149.9c11.2 2.8 22.5 12.3 27.5 23 10.6 22.6 1.4 49.1-20.8 60-6.4 3.2-7.1 3.3-18.7 3.3-12 0-12.2 0-19.6-3.7-19.2-9.5-28.8-30.5-23.4-51.3 2.2-8.4 6-14.7 12.6-21 11.3-10.8 26.1-14.4 42.4-10.3z"/><path d="M277 290.5c-18.4 5.2-31.8 22.8-39.5 51.7-9.4 35.5-9.3 98.3.1 134.6 6.5 24.8 16.9 40.3 32.2 47.5 6.4 3.1 7.3 3.2 18.7 3.2 7.9-.1 14.7-.7 20-1.9 9-2.1 25.8-7.9 29.2-10.2l2.3-1.4V296l-2.7-1.1c-11.5-4.4-50.3-7.2-60.3-4.4z"/></g></svg>