<svg xmlns="http://www.w3.org/2000/svg" width="1440" height="723" fill="none"><mask id="a" width="1440" height="751" x="0" y="0" maskUnits="userSpaceOnUse"><path fill="#fff" d="M1440 .832H0v750h1440v-750z"/></mask><g mask="url(#a)"><path fill="#101D42" d="M1440 848.244V-401.268H0V848.244h1440z"/><path fill="url(#paint0_linear)" d="M1440 947.121V-302.391H-127V947.121h1567z"/><g style="mix-blend-mode:lighten" opacity=".5"><path stroke="#3C4556" stroke-linecap="square" d="M1675.55 98.561H720M1897.54 466.88H720m1176.53-183.655H720"/><path stroke="#3C4556" stroke-linecap="square" d="M1234.6 467.636V64v403.636zm-220.47 0V64v403.636zm-220.471 0V64v403.636z" clip-rule="evenodd"/><path fill="#3C4556" fill-rule="evenodd" d="M1234.64 278.832c-2.79 0-5.05 2.29-5.05 5.115s2.26 5.115 5.05 5.115c2.78 0 5.04-2.29 5.04-5.115s-2.26-5.115-5.04-5.115zm0-185.847c-2.79 0-5.05 2.29-5.05 5.115s2.26 5.115 5.05 5.115c2.78 0 5.04-2.29 5.04-5.115s-2.26-5.115-5.04-5.115zm0 368.283c-2.79 0-5.05 2.29-5.05 5.115s2.26 5.115 5.05 5.115c2.78 0 5.04-2.29 5.04-5.115s-2.26-5.115-5.04-5.115zm-220.4 0c-2.79 0-5.05 2.29-5.05 5.115s2.26 5.115 5.05 5.115 5.05-2.29 5.05-5.115-2.26-5.115-5.05-5.115zm0-182.436c-2.79 0-5.05 2.29-5.05 5.115s2.26 5.115 5.05 5.115 5.05-2.29 5.05-5.115-2.26-5.115-5.05-5.115zm0-185.847c-2.79 0-5.05 2.29-5.05 5.115s2.26 5.115 5.05 5.115 5.05-2.29 5.05-5.115-2.26-5.115-5.05-5.115zM793.845 278.832c-2.787 0-5.047 2.29-5.047 5.115s2.26 5.115 5.047 5.115c2.788 0 5.048-2.29 5.048-5.115s-2.26-5.115-5.048-5.115zm0-185.847c-2.787 0-5.047 2.29-5.047 5.115s2.26 5.115 5.047 5.115c2.788 0 5.048-2.29 5.048-5.115s-2.26-5.115-5.048-5.115zm0 368.283c-2.787 0-5.047 2.29-5.047 5.115s2.26 5.115 5.047 5.115c2.788 0 5.048-2.29 5.048-5.115s-2.26-5.115-5.048-5.115z" clip-rule="evenodd"/></g></g><defs><linearGradient id="paint0_linear" x1="578.926" x2="605.631" y1="378.029" y2="1245" gradientUnits="userSpaceOnUse"><stop stop-color="#101D42"/><stop offset="1" stop-color="#101D42" stop-opacity="0"/></linearGradient></defs></svg>