<svg xmlns="http://www.w3.org/2000/svg" width="156" height="120"><g fill="none" fill-rule="evenodd" transform="translate(6)"><circle cx="47.5" cy="66.5" r="2.5" fill="#101D42"/><path fill="#101D42" d="M97.5 69a2.5 2.5 0 1 1 0-5 2.5 2.5 0 0 1 0 5zm0 25a2.5 2.5 0 1 1 0-5 2.5 2.5 0 0 1 0 5z"/><path fill="#101D42" d="M97.5 94a2.5 2.5 0 1 1 0-5 2.5 2.5 0 0 1 0 5zm25-25a2.5 2.5 0 1 1 0-5 2.5 2.5 0 0 1 0 5z"/><circle cx="47.5" cy="91.5" r="2.5" fill="#101D42"/><circle cx="72.5" cy="91.5" r="2.5" fill="#101D42"/><circle cx="122.5" cy="117.5" r="2.5" fill="#101D42"/><circle cx="122.5" cy="91.5" r="2.5" fill="#101D42"/><path fill="#101D42" d="M147.5 69a2.5 2.5 0 1 1 0-5 2.5 2.5 0 0 1 0 5z"/><circle cx="147.5" cy="117.5" r="2.5" fill="#101D42"/><circle cx="147.5" cy="91.5" r="2.5" fill="#101D42"/><path fill="#101D42" d="M147.5 5a2.5 2.5 0 1 1 0-5 2.5 2.5 0 0 1 0 5z"/><circle cx="147.5" cy="27.5" r="2.5" fill="#101D42"/><circle cx="72.5" cy="66.5" r="2.5" fill="#101D42"/><path fill="#1358DB" d="M10 55h15v15H10z"/><path stroke="#101D42" stroke-width="6" d="M-2.5 73H7v9.5h-9.5z"/></g></svg>