<svg xmlns="http://www.w3.org/2000/svg" width="150" height="125"><g fill="none" fill-rule="evenodd"><circle cx="2.5" cy="2.5" r="2.5" fill="#101D42"/><path fill="#101D42" d="M52.5 5a2.5 2.5 0 1 1 0-5 2.5 2.5 0 0 1 0 5zm0 25a2.5 2.5 0 1 1 0-5 2.5 2.5 0 0 1 0 5zm-50 70a2.5 2.5 0 1 1 0-5 2.5 2.5 0 0 1 0 5zm0 25a2.5 2.5 0 1 1 0-5 2.5 2.5 0 0 1 0 5z"/><circle cx="27.5" cy="122.5" r="2.5" fill="#101D42"/><path fill="#101D42" d="M27.5 100a2.5 2.5 0 1 1 0-5 2.5 2.5 0 0 1 0 5z"/><circle cx="52.5" cy="122.5" r="2.5" fill="#101D42"/><path fill="#101D42" d="M52.5 100a2.5 2.5 0 1 1 0-5 2.5 2.5 0 0 1 0 5zm0-70a2.5 2.5 0 1 1 0-5 2.5 2.5 0 0 1 0 5zm25-25a2.5 2.5 0 1 1 0-5 2.5 2.5 0 0 1 0 5z"/><circle cx="2.5" cy="27.5" r="2.5" fill="#101D42"/><circle cx="27.5" cy="27.5" r="2.5" fill="#101D42"/><circle cx="77.5" cy="27.5" r="2.5" fill="#101D42"/><path fill="#101D42" d="M102.5 5a2.5 2.5 0 1 1 0-5 2.5 2.5 0 0 1 0 5z"/><circle cx="102.5" cy="27.5" r="2.5" fill="#101D42"/><circle cx="27.5" cy="2.5" r="2.5" fill="#101D42"/><path fill="#1358DB" d="M135 23h15v15h-15z"/><path stroke="#101D42" stroke-width="6" d="M122.5 41h9.5v9.5h-9.5z"/></g></svg>