<svg xmlns="http://www.w3.org/2000/svg" width="131" height="137"><g fill="none" fill-rule="evenodd"><path fill="#1358DB" d="M100 60V45h15v15z"/><path stroke="#101D42" stroke-width="6" d="M118 72.5V63h9.5v9.5z"/><circle cx="2.5" cy="2.5" r="2.5" fill="#101D42"/><path fill="#101D42" d="M27.5 112a2.5 2.5 0 1 1 0-5 2.5 2.5 0 0 1 0 5zm25-107a2.5 2.5 0 1 1 0-5 2.5 2.5 0 0 1 0 5zm0 25a2.5 2.5 0 1 1 0-5 2.5 2.5 0 0 1 0 5zm0 25a2.5 2.5 0 1 1 0-5 2.5 2.5 0 0 1 0 5z"/><path fill="#101D42" d="M52.5 30a2.5 2.5 0 1 1 0-5 2.5 2.5 0 0 1 0 5zm25-25a2.5 2.5 0 1 1 0-5 2.5 2.5 0 0 1 0 5z"/><circle cx="2.5" cy="27.5" r="2.5" fill="#101D42"/><circle cx="2.5" cy="52.5" r="2.5" fill="#101D42"/><circle cx="27.5" cy="27.5" r="2.5" fill="#101D42"/><circle cx="27.5" cy="52.5" r="2.5" fill="#101D42"/><path fill="#101D42" d="M77.5 55a2.5 2.5 0 1 1 0-5 2.5 2.5 0 0 1 0 5z"/><circle cx="77.5" cy="27.5" r="2.5" fill="#101D42"/><circle cx="27.5" cy="2.5" r="2.5" fill="#101D42"/><circle cx="2.5" cy="109.5" r="2.5" fill="#101D42"/><circle cx="2.5" cy="134.5" r="2.5" fill="#101D42"/></g></svg>