<svg width="67" height="24" fill="none" xmlns="http://www.w3.org/2000/svg"><g opacity=".5"><path fill-rule="evenodd" clip-rule="evenodd" d="M0 5.534C0 2.229 2.552 0 5.929 0c2.826 0 4.248 1.636 4.894 3.112L8.013 4.41c-.275-.834-1.115-1.556-2.084-1.556-1.567 0-2.617 1.187-2.617 2.679 0 1.49 1.05 2.678 2.617 2.678.969 0 1.809-.722 2.083-1.556l2.811 1.283c-.63 1.428-2.068 3.128-4.894 3.128C2.552 11.067 0 8.82 0 5.534zm19.579 0c0-1.492-1.018-2.679-2.585-2.679-1.566 0-2.584 1.187-2.584 2.679 0 1.49 1.018 2.678 2.584 2.678 1.567 0 2.585-1.187 2.585-2.678zm-8.48 0C11.098 2.246 13.666 0 16.994 0c3.327 0 5.896 2.246 5.896 5.534 0 3.287-2.569 5.533-5.896 5.533-3.328 0-5.897-2.246-5.897-5.533zm12.796.946V.176h3.312v6.192c0 1.026.678 1.844 2.02 1.844 1.323 0 2.002-.818 2.002-1.844V.176h3.312v6.288c0 2.662-1.68 4.603-5.315 4.603-3.635 0-5.331-1.94-5.331-4.587zm18.94-2.647c0-.577-.516-.834-1.065-.834h-1.988v1.684h1.988c.549 0 1.065-.256 1.065-.85zm-.387 7.041l-1.486-3.368h-1.18v3.368H36.52V.176h5.751c2.52 0 3.877 1.669 3.877 3.673 0 1.845-1.082 2.823-1.939 3.24l1.955 3.785h-3.715zm4.721-1.507l1.696-2.406a5.041 5.041 0 003.473 1.38c.614 0 1.196-.161 1.196-.578 0-1.026-6.01.016-6.01-4.202 0-1.813 1.519-3.545 4.475-3.545 1.76 0 3.344.497 4.571 1.492L54.826 3.8a5.47 5.47 0 00-3.166-1.058c-.646 0-.824.208-.824.48 0 1.011 5.993.145 5.993 4.123 0 2.357-1.761 3.72-4.653 3.72-2.293 0-3.86-.673-5.008-1.7zm10.924 1.507V.176h8.174V3h-4.911v1.059h4.798v2.823h-4.798v1.17h4.91v2.823h-8.173zM7.221 16.308c0-.577-.517-.834-1.066-.834H4.168v1.684h1.987c.55 0 1.066-.256 1.066-.85zm-.388 7.041l-1.486-3.368h-1.18v3.368H.906V12.652h5.75c2.52 0 3.878 1.668 3.878 3.673 0 1.844-1.083 2.822-1.939 3.24l1.955 3.784H6.833zm5.547.001v-10.7h8.174v2.823h-4.91v1.059h4.797v2.823h-4.797v1.17h4.91v2.823H12.38z" fill="#1A1919"/><mask id="a" maskUnits="userSpaceOnUse" x="22" y="12" width="23" height="12"><path fill-rule="evenodd" clip-rule="evenodd" d="M22.53 12.475h22.392V23.52H22.53V12.475z" fill="#fff"/></mask><g mask="url(#a)" fill-rule="evenodd" clip-rule="evenodd" fill="#1A1919"><path d="M28.846 16.325c0-.578-.437-.85-.986-.85h-2.068v1.684h2.068c.55 0 .986-.273.986-.834zm-6.317 7.024V12.652h5.751c2.52 0 3.878 1.668 3.878 3.673 0 1.989-1.358 3.656-3.878 3.656h-2.488v3.368H22.53zm19.081-5.34c0-1.492-1.017-2.679-2.584-2.679-1.567 0-2.585 1.187-2.585 2.679 0 1.491 1.018 2.678 2.585 2.678 1.566 0 2.585-1.187 2.585-2.678zm-8.48 0c0-3.288 2.568-5.534 5.896-5.534s5.896 2.246 5.896 5.534c0 3.287-2.568 5.533-5.896 5.533s-5.897-2.246-5.897-5.533z"/></g><path fill-rule="evenodd" clip-rule="evenodd" d="M52.563 16.308c0-.577-.517-.834-1.066-.834H49.51v1.684h1.987c.55 0 1.066-.256 1.066-.85zm-.388 7.041l-1.486-3.368h-1.18v3.368h-3.262V12.652h5.75c2.52 0 3.878 1.668 3.878 3.673 0 1.844-1.083 2.822-1.939 3.24l1.955 3.784h-3.715zm8.05.001v-7.876h-2.892v-2.822h9.031v2.822h-2.875v7.875h-3.264z" fill="#1A1919"/></g></svg>