<svg width="110" height="13" fill="none" xmlns="http://www.w3.org/2000/svg"><path d="M8.727.385v1.53c0 .102-.065.166-.165.166H1.98v3.135h5.427c.1 0 .165.064.165.165v1.53c0 .101-.064.166-.165.166H1.98v4.629c0 .1-.064.165-.165.165H.165c-.1 0-.165-.064-.165-.165V.385C0 .285.064.22.165.22h8.397c.1 0 .165.064.165.165zM22.156 11.88h-1.815c-.1 0-.165-.046-.192-.147a45.626 45.626 0 00-.862-2.979h-5.573a45.691 45.691 0 00-.862 2.98c-.027.1-.091.146-.192.146h-1.751c-.12 0-.183-.064-.147-.183 1.045-3.722 2.65-7.82 4.263-11.266.073-.156.165-.22.32-.22h2.366c.155 0 .247.055.32.22 1.632 3.437 3.209 7.544 4.263 11.256.046.12-.028.193-.138.193zm-3.492-4.932a68.897 68.897 0 00-1.97-4.895h-.395a70.696 70.696 0 00-1.98 4.895h4.345zm6.471-.806C25.135 2.53 27.518 0 30.919 0h.247c2.136 0 3.777 1.082 4.657 2.65.055.1.046.183-.055.228l-1.467.724c-.1.046-.229.046-.293-.073-.614-1.063-1.54-1.631-2.906-1.631h-.247c-2.136 0-3.612 1.695-3.612 4.161 0 2.475 1.448 4.134 3.612 4.134h.247c1.403 0 2.219-.476 2.842-1.2.082-.092.174-.11.275-.056l1.503.734c.055.037.083.073.083.119s-.019.073-.046.128c-.926 1.348-2.594 2.182-4.62 2.182h-.248c-3.465-.01-5.756-2.383-5.756-5.958zm23.953 4.033v1.53c0 .102-.065.166-.165.166h-8.745c-.101 0-.165-.064-.165-.165V.385c0-.1.064-.165.165-.165h8.589c.1 0 .165.064.165.165v1.53c0 .102-.064.166-.165.166h-6.784v3.034h5.51c.1 0 .165.064.165.165v1.512c0 .101-.065.165-.165.165h-5.51v3.053h6.93c.101 0 .175.064.175.165zM64.139 8.68c0 2.045-1.568 3.2-4.327 3.2h-5.729c-.1 0-.165-.064-.165-.165V.385c0-.1.064-.165.165-.165h5.225c2.686 0 4.153 1.063 4.153 3.016 0 1.283-.651 2.126-1.962 2.511 1.842.395 2.64 1.495 2.64 2.934zm-4.877-6.645h-3.364V5.17h3.364c1.504 0 2.2-.495 2.2-1.568 0-1.072-.697-1.567-2.2-1.567zm2.851 6.472c0-1.082-.715-1.577-2.292-1.577h-3.923v3.135h3.923c1.595-.01 2.292-.468 2.292-1.558zm5.519-2.457c0-3.51 2.328-6.05 5.995-6.05h.247c3.667 0 5.995 2.53 5.995 6.05 0 3.51-2.328 6.05-5.995 6.05h-.247c-3.667-.01-5.995-2.54-5.995-6.05zm6.242 4.143c2.393 0 3.896-1.64 3.896-4.143 0-2.502-1.503-4.143-3.896-4.143h-.247c-2.393 0-3.896 1.64-3.896 4.143s1.503 4.143 3.896 4.143h.247zm9.377-4.143c0-3.51 2.328-6.05 5.995-6.05h.248c3.666 0 5.995 2.53 5.995 6.05 0 3.51-2.329 6.05-5.996 6.05h-.247c-3.657-.01-5.995-2.54-5.995-6.05zm6.252 4.143c2.392 0 3.895-1.64 3.895-4.143 0-2.502-1.503-4.143-3.895-4.143h-.248c-2.392 0-3.896 1.64-3.896 4.143s1.504 4.143 3.896 4.143h.248zm20.36 1.687h-2.145c-.138 0-.202-.037-.293-.138a45.302 45.302 0 00-4.804-4.84h-.962v4.813c0 .1-.064.165-.165.165h-1.65c-.101 0-.165-.064-.165-.165V.385c0-.1.064-.165.165-.165h1.65c.101 0 .165.064.165.165v4.602h.981c1.622-1.467 3.125-3.053 4.345-4.639.082-.11.146-.128.247-.128h2.035c.101 0 .147.046.147.12 0 .036-.019.072-.055.127-1.788 2.21-3.566 4.015-5.207 5.418a50.204 50.204 0 015.803 5.793c.091.101.036.202-.092.202z" fill="#7C7C7C"/></svg>