<svg width="73" height="24" fill="none" xmlns="http://www.w3.org/2000/svg"><path opacity=".5" d="M17.73 8.435H9.242v2.522h6.041c-.294 3.537-3.208 5.046-5.958 5.046-3.518 0-6.588-2.797-6.588-6.716 0-3.817 2.927-6.758 6.596-6.758 2.831 0 4.5 1.823 4.5 1.823l1.748-1.828S13.337 0 9.244 0C4.032 0 0 4.443 0 9.242c0 4.703 3.793 9.289 9.377 9.289 4.91 0 8.506-3.399 8.506-8.424 0-1.06-.153-1.673-.153-1.673zm7.185-1.827c-3.453 0-5.927 2.727-5.927 5.907 0 3.227 2.4 6.005 5.968 6.005 3.23 0 5.876-2.494 5.876-5.935 0-3.945-3.078-5.977-5.917-5.977zm.035 2.34c1.698 0 3.307 1.386 3.307 3.62 0 2.188-1.602 3.614-3.315 3.614-1.882 0-3.366-1.522-3.366-3.63 0-2.064 1.466-3.604 3.374-3.604zm12.784-2.34c-3.453 0-5.928 2.727-5.928 5.907 0 3.227 2.4 6.005 5.968 6.005 3.23 0 5.876-2.494 5.876-5.935 0-3.945-3.078-5.977-5.916-5.977zm.034 2.34c1.698 0 3.307 1.386 3.307 3.62 0 2.188-1.602 3.614-3.315 3.614-1.881 0-3.366-1.522-3.366-3.63 0-2.064 1.466-3.604 3.374-3.604zm12.61-2.334c-3.169 0-5.66 2.804-5.66 5.952 0 3.584 2.888 5.962 5.606 5.962 1.68 0 2.574-.674 3.233-1.448v1.175c0 2.055-1.235 3.285-3.099 3.285-1.801 0-2.704-1.352-3.018-2.12l-2.266.957c.803 1.717 2.422 3.507 5.303 3.507 3.151 0 5.553-2.005 5.553-6.21V6.826h-2.472v1.157c-.76-.828-1.8-1.367-3.18-1.367zm.23 2.335c1.554 0 3.15 1.34 3.15 3.63 0 2.325-1.593 3.608-3.185 3.608-1.69 0-3.261-1.386-3.261-3.587 0-2.286 1.632-3.65 3.296-3.65zM66.802 6.6c-2.99 0-5.5 2.403-5.5 5.948 0 3.752 2.799 5.976 5.788 5.976 2.494 0 4.025-1.378 4.94-2.613l-2.039-1.37c-.529.829-1.413 1.64-2.889 1.64-1.657 0-2.42-.918-2.892-1.806l7.906-3.313-.41-.971c-.764-1.902-2.546-3.49-4.903-3.49zm.103 2.29c1.078 0 1.853.58 2.182 1.273l-5.28 2.23c-.227-1.728 1.393-3.503 3.1-3.503zm-9.225 9.28h2.42V.617h-2.42V18.17z" fill-rule="evenodd" clip-rule="evenodd" fill="#000"/></svg>