<svg width="184" height="463" fill="none" xmlns="http://www.w3.org/2000/svg"><g opacity=".55"><path d="M124.522 461.317L124.523 1M52.715 460.922V1" stroke="#3C4556" stroke-linecap="square"/><path clip-rule="evenodd" d="M184 374.539H-33h217zm-59.182-172.372H-33h157.818zm0-86.186L-33 115.98l157.818.001zm0-86.187H-33h157.818zM184 288.353H-33h217z" stroke="#3C4556" stroke-linecap="square"/><path fill-rule="evenodd" clip-rule="evenodd" d="M50.997 460.646c0-1.09.896-1.973 2-1.973 1.105 0 2 .883 2 1.973s-.895 1.973-2 1.973c-1.104 0-2-.883-2-1.973zm0-86.156c0-1.089.896-1.973 2-1.973 1.105 0 2 .884 2 1.973 0 1.09-.895 1.973-2 1.973-1.104 0-2-.883-2-1.973zm71.331 0c0-1.089.896-1.973 2-1.973 1.105 0 2 .884 2 1.973 0 1.09-.895 1.973-2 1.973-1.104 0-2-.883-2-1.973zm0-86.155c0-1.09.896-1.973 2-1.973 1.105 0 2 .883 2 1.973 0 1.089-.895 1.973-2 1.973-1.104 0-2-.884-2-1.973zm-71.331 0c0-1.09.896-1.973 2-1.973 1.105 0 2 .883 2 1.973 0 1.089-.895 1.973-2 1.973-1.104 0-2-.884-2-1.973zm0-86.156c0-1.09.896-1.973 2-1.973 1.105 0 2 .883 2 1.973 0 1.089-.895 1.973-2 1.973-1.104 0-2-.884-2-1.973zm71.331 0c0-1.09.896-1.973 2-1.973 1.105 0 2 .883 2 1.973 0 1.089-.895 1.973-2 1.973-1.104 0-2-.884-2-1.973zm0-86.156c0-1.09.896-1.973 2-1.973 1.105 0 2 .883 2 1.973s-.895 1.973-2 1.973c-1.104 0-2-.883-2-1.973zm-71.331 0c0-1.09.896-1.973 2-1.973 1.105 0 2 .883 2 1.973s-.895 1.973-2 1.973c-1.104 0-2-.883-2-1.973zm0-86.156c0-1.09.896-1.973 2-1.973 1.105 0 2 .884 2 1.973 0 1.09-.895 1.973-2 1.973-1.104 0-2-.883-2-1.973zm71.331 0c0-1.09.896-1.973 2-1.973 1.105 0 2 .884 2 1.973 0 1.09-.895 1.973-2 1.973-1.104 0-2-.883-2-1.973zm0 430.779c0-1.09.896-1.973 2-1.973 1.105 0 2 .883 2 1.973s-.895 1.973-2 1.973c-1.104 0-2-.883-2-1.973z" fill="#3C4556"/></g></svg>