<svg width="185" height="570" fill="none" xmlns="http://www.w3.org/2000/svg"><g opacity=".55"><path d="M13.514 22.695v87.172m0 85.594V569m144.008-460.317L157.523 569M85.715 109.078V569m0-568v20.117" stroke="#3C4556" stroke-linecap="square"/><path clip-rule="evenodd" d="M217 109.472H75.358 217zm-203.586 0H0h13.414zM217 195.461H0h217zm-59.182 172.372H0h157.818zm0 86.186L0 454.02l157.818-.001zm0 86.187H0h157.818zM217 281.647H0h217z" stroke="#3C4556" stroke-linecap="square"/><path fill-rule="evenodd" clip-rule="evenodd" d="M83.997 23.198c0 1.09.896 1.973 2 1.973 1.105 0 2-.883 2-1.973s-.895-1.973-2-1.973c-1.104 0-2 .883-2 1.973zm-72.664 0c0 1.09.896 1.973 2 1.973 1.105 0 2-.883 2-1.973s-.895-1.973-2-1.973c-1.104 0-2 .883-2 1.973zm72.664 86.156c0 1.09.896 1.973 2 1.973 1.105 0 2-.883 2-1.973s-.895-1.973-2-1.973c-1.104 0-2 .883-2 1.973zm-72.664 0c0 1.09.896 1.973 2 1.973 1.105 0 2-.883 2-1.973s-.895-1.973-2-1.973c-1.104 0-2 .883-2 1.973zm72.664 86.156c0 1.089.896 1.973 2 1.973 1.105 0 2-.884 2-1.973 0-1.09-.895-1.973-2-1.973-1.104 0-2 .883-2 1.973zm-72.664 0c0 1.089.896 1.973 2 1.973 1.105 0 2-.884 2-1.973 0-1.09-.895-1.973-2-1.973-1.104 0-2 .883-2 1.973zm143.995 0c0 1.089.896 1.973 2 1.973 1.105 0 2-.884 2-1.973 0-1.09-.895-1.973-2-1.973-1.104 0-2 .883-2 1.973zm0 86.155c0 1.09.896 1.973 2 1.973 1.105 0 2-.883 2-1.973 0-1.089-.895-1.973-2-1.973-1.104 0-2 .884-2 1.973zm-71.331 0c0 1.09.896 1.973 2 1.973 1.105 0 2-.883 2-1.973 0-1.089-.895-1.973-2-1.973-1.104 0-2 .884-2 1.973zm-72.664 0c0 1.09.896 1.973 2 1.973 1.105 0 2-.883 2-1.973 0-1.089-.895-1.973-2-1.973-1.104 0-2 .884-2 1.973zm72.664 86.156c0 1.09.896 1.973 2 1.973 1.105 0 2-.883 2-1.973 0-1.089-.895-1.973-2-1.973-1.104 0-2 .884-2 1.973zm-72.664 0c0 1.09.896 1.973 2 1.973 1.105 0 2-.883 2-1.973 0-1.089-.895-1.973-2-1.973-1.104 0-2 .884-2 1.973zm143.995 0c0 1.09.896 1.973 2 1.973 1.105 0 2-.883 2-1.973 0-1.089-.895-1.973-2-1.973-1.104 0-2 .884-2 1.973zm0 86.156c0 1.09.896 1.973 2 1.973 1.105 0 2-.883 2-1.973s-.895-1.973-2-1.973c-1.104 0-2 .883-2 1.973zm-71.331 0c0 1.09.896 1.973 2 1.973 1.105 0 2-.883 2-1.973s-.895-1.973-2-1.973c-1.104 0-2 .883-2 1.973zm-72.664 0c0 1.09.896 1.973 2 1.973 1.105 0 2-.883 2-1.973s-.895-1.973-2-1.973c-1.104 0-2 .883-2 1.973zm72.664 86.156c0 1.089.896 1.973 2 1.973 1.105 0 2-.884 2-1.973 0-1.09-.895-1.973-2-1.973-1.104 0-2 .883-2 1.973zm-72.664 0c0 1.089.896 1.973 2 1.973 1.105 0 2-.884 2-1.973 0-1.09-.895-1.973-2-1.973-1.104 0-2 .883-2 1.973zm143.995 0c0 1.089.896 1.973 2 1.973 1.105 0 2-.884 2-1.973 0-1.09-.895-1.973-2-1.973-1.104 0-2 .883-2 1.973zm0-430.779c0 1.09.896 1.973 2 1.973 1.105 0 2-.883 2-1.973s-.895-1.973-2-1.973c-1.104 0-2 .883-2 1.973z" fill="#3C4556"/></g></svg>