<svg width="1440" height="796" fill="none" xmlns="http://www.w3.org/2000/svg"><g opacity=".45"><path d="M55 791.75h221m217 0h947m-1167-365h1167m-1166 182h1166m-1440 0h51" stroke="#343f5e" stroke-linecap="square"/><path clip-rule="evenodd" d="M275 276v359-359zm0 516v34-34zm218-516v550-550zm437 150v400-400zm218.5 0v400-400zm218.5 0v400-400zM711.5 276v550-550z" stroke="#343f5e" stroke-linecap="square"/><path fill-rule="evenodd" clip-rule="evenodd" d="M56.277 613.104c2.763 0 5.002-2.27 5.002-5.069 0-2.8-2.239-5.069-5.002-5.069-2.762 0-5.002 2.269-5.002 5.069 0 2.799 2.24 5.069 5.002 5.069zm0 184.172c2.763 0 5.002-2.269 5.002-5.069 0-2.799-2.239-5.069-5.002-5.069-2.762 0-5.002 2.27-5.002 5.069 0 2.8 2.24 5.069 5.002 5.069zM274.7 613.104c2.763 0 5.002-2.27 5.002-5.069 0-2.8-2.239-5.069-5.002-5.069-2.762 0-5.002 2.269-5.002 5.069 0 2.799 2.24 5.069 5.002 5.069zm0 184.172c2.763 0 5.002-2.269 5.002-5.069 0-2.799-2.239-5.069-5.002-5.069-2.762 0-5.002 2.27-5.002 5.069 0 2.8 2.24 5.069 5.002 5.069zm218.423-184.172c2.763 0 5.002-2.27 5.002-5.069 0-2.8-2.239-5.069-5.002-5.069-2.762 0-5.002 2.269-5.002 5.069 0 2.799 2.24 5.069 5.002 5.069zm0 184.172c2.763 0 5.002-2.269 5.002-5.069 0-2.799-2.239-5.069-5.002-5.069-2.762 0-5.002 2.27-5.002 5.069 0 2.8 2.24 5.069 5.002 5.069zm0-364.965c2.763 0 5.002-2.27 5.002-5.069 0-2.8-2.239-5.069-5.002-5.069-2.762 0-5.002 2.269-5.002 5.069 0 2.799 2.24 5.069 5.002 5.069zm218.424 0c2.763 0 5.002-2.27 5.002-5.069 0-2.8-2.239-5.069-5.002-5.069s-5.002 2.269-5.002 5.069c0 2.799 2.239 5.069 5.002 5.069zm0 180.793c2.763 0 5.002-2.27 5.002-5.069 0-2.8-2.239-5.069-5.002-5.069s-5.002 2.269-5.002 5.069c0 2.799 2.239 5.069 5.002 5.069zm0 184.172c2.763 0 5.002-2.269 5.002-5.069 0-2.799-2.239-5.069-5.002-5.069s-5.002 2.27-5.002 5.069c0 2.8 2.239 5.069 5.002 5.069zM929.97 613.104c2.762 0 5.002-2.27 5.002-5.069 0-2.8-2.24-5.069-5.002-5.069-2.763 0-5.002 2.269-5.002 5.069 0 2.799 2.239 5.069 5.002 5.069zm0 184.172c2.762 0 5.002-2.269 5.002-5.069 0-2.799-2.24-5.069-5.002-5.069-2.763 0-5.002 2.27-5.002 5.069 0 2.8 2.239 5.069 5.002 5.069zm0-364.965c2.762 0 5.002-2.27 5.002-5.069 0-2.8-2.24-5.069-5.002-5.069-2.763 0-5.002 2.269-5.002 5.069 0 2.799 2.239 5.069 5.002 5.069zm218.42 0c2.77 0 5-2.27 5-5.069 0-2.8-2.23-5.069-5-5.069-2.76 0-5 2.269-5 5.069 0 2.799 2.24 5.069 5 5.069zm0 180.793c2.77 0 5-2.27 5-5.069 0-2.8-2.23-5.069-5-5.069-2.76 0-5 2.269-5 5.069 0 2.799 2.24 5.069 5 5.069zm0 184.172c2.77 0 5-2.269 5-5.069 0-2.799-2.23-5.069-5-5.069-2.76 0-5 2.27-5 5.069 0 2.8 2.24 5.069 5 5.069zm218.43-184.172c2.76 0 5-2.27 5-5.069 0-2.8-2.24-5.069-5-5.069-2.77 0-5.01 2.269-5.01 5.069 0 2.799 2.24 5.069 5.01 5.069zm0 184.172c2.76 0 5-2.269 5-5.069 0-2.799-2.24-5.069-5-5.069-2.77 0-5.01 2.27-5.01 5.069 0 2.8 2.24 5.069 5.01 5.069zm0-364.965c2.76 0 5-2.27 5-5.069 0-2.8-2.24-5.069-5-5.069-2.77 0-5.01 2.269-5.01 5.069 0 2.799 2.24 5.069 5.01 5.069zm-1092.12 0c2.763 0 5.002-2.27 5.002-5.069 0-2.8-2.239-5.069-5.002-5.069-2.762 0-5.002 2.269-5.002 5.069 0 2.799 2.24 5.069 5.002 5.069z" fill="#343f5e"/><path d="M55 240.75h221m217 0h947m-1166-183h1166m-1440 0h51" stroke="#343f5e" stroke-linecap="square"/><path clip-rule="evenodd" d="M275-275V84v-359zm0 516v34-34zm218-516v550-550zm437 150v400-400zm218.5 0v400-400zm218.5 0v400-400zM711.5-275v550-550z" stroke="#343f5e" stroke-linecap="square"/><path fill-rule="evenodd" clip-rule="evenodd" d="M56.277 62.104c2.763 0 5.002-2.27 5.002-5.07 0-2.799-2.239-5.068-5.002-5.068-2.762 0-5.002 2.27-5.002 5.069 0 2.8 2.24 5.069 5.002 5.069zm0 184.172c2.763 0 5.002-2.269 5.002-5.069 0-2.799-2.239-5.069-5.002-5.069-2.762 0-5.002 2.27-5.002 5.069 0 2.8 2.24 5.069 5.002 5.069zM274.7 62.104c2.763 0 5.002-2.27 5.002-5.07 0-2.799-2.239-5.068-5.002-5.068-2.762 0-5.002 2.27-5.002 5.069 0 2.8 2.24 5.069 5.002 5.069zm0 184.172c2.763 0 5.002-2.269 5.002-5.069 0-2.799-2.239-5.069-5.002-5.069-2.762 0-5.002 2.27-5.002 5.069 0 2.8 2.24 5.069 5.002 5.069zM493.123 62.104c2.763 0 5.002-2.27 5.002-5.07 0-2.799-2.239-5.068-5.002-5.068-2.762 0-5.002 2.27-5.002 5.069 0 2.8 2.24 5.069 5.002 5.069zm0 184.172c2.763 0 5.002-2.269 5.002-5.069 0-2.799-2.239-5.069-5.002-5.069-2.762 0-5.002 2.27-5.002 5.069 0 2.8 2.24 5.069 5.002 5.069zM711.547 62.104c2.763 0 5.002-2.27 5.002-5.07 0-2.799-2.239-5.068-5.002-5.068s-5.002 2.27-5.002 5.069c0 2.8 2.239 5.069 5.002 5.069zm0 184.172c2.763 0 5.002-2.269 5.002-5.069 0-2.799-2.239-5.069-5.002-5.069s-5.002 2.27-5.002 5.069c0 2.8 2.239 5.069 5.002 5.069zM929.97 62.104c2.762 0 5.002-2.27 5.002-5.07 0-2.799-2.24-5.068-5.002-5.068-2.763 0-5.002 2.27-5.002 5.069 0 2.8 2.239 5.069 5.002 5.069zm0 184.172c2.762 0 5.002-2.269 5.002-5.069 0-2.799-2.24-5.069-5.002-5.069-2.763 0-5.002 2.27-5.002 5.069 0 2.8 2.239 5.069 5.002 5.069zm218.42-184.172c2.77 0 5-2.27 5-5.07 0-2.799-2.23-5.068-5-5.068-2.76 0-5 2.27-5 5.069 0 2.8 2.24 5.069 5 5.069zm0 184.172c2.77 0 5-2.269 5-5.069 0-2.799-2.23-5.069-5-5.069-2.76 0-5 2.27-5 5.069 0 2.8 2.24 5.069 5 5.069zm218.43-184.172c2.76 0 5-2.27 5-5.07 0-2.799-2.24-5.068-5-5.068-2.77 0-5.01 2.27-5.01 5.069 0 2.8 2.24 5.069 5.01 5.069zm0 184.172c2.76 0 5-2.269 5-5.069 0-2.799-2.24-5.069-5-5.069-2.77 0-5.01 2.27-5.01 5.069 0 2.8 2.24 5.069 5.01 5.069z" fill="#343f5e"/></g></svg>