<svg width="80" height="18" fill="none" xmlns="http://www.w3.org/2000/svg"><path fill-rule="evenodd" clip-rule="evenodd" d="M25.427 2.613c.32.284.725.427 1.217.427.505 0 .914-.143 1.226-.427.313-.285.469-.653.469-1.103 0-.45-.156-.815-.469-1.093C27.558.14 27.15 0 26.644 0c-.492 0-.898.14-1.217.417-.319.278-.479.643-.479 1.093 0 .45.16.818.48 1.103zM1.785 14.205a5.789 5.789 0 002.004.378c.665 0 1.25-.083 1.755-.249.505-.165.93-.39 1.277-.675.345-.285.604-.62.777-1.003.173-.385.26-.802.26-1.252 0-.45-.08-.838-.24-1.162-.16-.325-.369-.6-.628-.825a3.924 3.924 0 00-.857-.566 10.732 10.732 0 00-.948-.407 288.47 288.47 0 01-.728-.269 5.546 5.546 0 01-.618-.268A1.584 1.584 0 013.41 7.6a.572.572 0 01-.16-.407c0-.517.373-.775 1.118-.775.345 0 .69.073 1.037.219.345.145.698.35 1.057.616l1.316-1.749a7.98 7.98 0 00-1.496-.864c-.572-.258-1.236-.387-1.994-.387-.572 0-1.09.076-1.556.228a3.78 3.78 0 00-1.196.626 2.68 2.68 0 00-.768.973 2.92 2.92 0 00-.27 1.252c0 .41.08.772.24 1.083.16.311.366.583.618.814.253.232.532.428.838.587.306.159.611.298.917.417.253.106.499.202.738.288.24.086.455.182.648.288.193.106.346.222.459.348a.62.62 0 01.17.427c0 .265-.1.47-.3.616-.2.145-.518.218-.957.218-.425 0-.844-.086-1.256-.258a5.972 5.972 0 01-1.297-.775L0 13.212c.505.41 1.1.742 1.785.993zm7.11-9.715l2.473 9.854h3.35l.877-3.933c.093-.464.177-.928.25-1.391.073-.464.156-.96.249-1.49h.08c.093.53.18 1.026.259 1.49.08.463.173.927.28 1.39l.897 3.934h3.43l2.373-9.854h-2.712l-.938 4.57c-.093.49-.17.973-.229 1.45-.06.477-.136.967-.23 1.47h-.079a95.588 95.588 0 01-.3-1.47c-.092-.477-.199-.96-.318-1.45L17.49 4.49h-2.533L13.86 9.06c-.12.463-.222.94-.309 1.43-.086.49-.176.987-.269 1.49h-.08c-.08-.503-.153-.993-.22-1.47a64.23 64.23 0 00-.218-1.45l-.958-4.57H8.895zm16.293 9.854V4.49h2.931v9.854h-2.931zm9.313.239c-.612 0-1.133-.093-1.566-.278a2.741 2.741 0 01-1.057-.775 3.147 3.147 0 01-.598-1.202c-.126-.47-.19-.99-.19-1.56V6.775h-1.355V4.609l1.515-.119.34-2.622h2.432V4.49h2.373v2.285h-2.373v3.954c0 .556.117.956.35 1.202.232.245.541.367.927.367.16 0 .322-.02.488-.06.166-.04.316-.086.449-.139l.459 2.126c-.266.08-.579.16-.938.239-.359.08-.777.119-1.256.119zm6.212-.348a5.23 5.23 0 001.925.348c.545 0 1.103-.09 1.675-.268a4.484 4.484 0 001.595-.904l-1.156-1.908a4.772 4.772 0 01-.848.507 2.176 2.176 0 01-.927.209c-.638 0-1.167-.252-1.585-.755-.42-.504-.629-1.186-.629-2.047 0-.86.206-1.543.619-2.046.412-.503.977-.755 1.695-.755.425 0 .87.192 1.336.576l1.376-1.887a5.123 5.123 0 00-1.267-.755c-.471-.199-1.013-.298-1.625-.298-.678 0-1.33.116-1.954.347a4.904 4.904 0 00-1.645 1.004 4.757 4.757 0 00-1.127 1.619c-.28.642-.42 1.374-.42 2.195 0 .821.127 1.553.38 2.196a4.655 4.655 0 001.037 1.619 4.48 4.48 0 001.545 1.003zm6.93.11V.416h2.932v3.417l-.14 1.769c.373-.331.805-.64 1.297-.924.492-.285 1.077-.427 1.755-.427 1.076 0 1.857.35 2.343 1.053.485.702.728 1.675.728 2.92v6.12h-2.932V8.602c0-.716-.096-1.206-.289-1.47-.193-.265-.502-.398-.927-.398-.373 0-.692.083-.958.248a5.65 5.65 0 00-.877.706v6.655h-2.932zm12.016-.815c.485.702 1.267 1.053 2.343 1.053.678 0 1.26-.143 1.745-.427.486-.285.941-.68 1.367-1.183h.06l.219 1.371h2.393V4.49h-2.932v6.517c-.292.384-.565.662-.817.834-.253.172-.566.258-.938.258-.425 0-.738-.132-.937-.397-.2-.265-.3-.755-.3-1.47V4.49h-2.93v6.12c0 1.244.242 2.218.727 2.92zM70.36 18V4.49h2.392l.2.974h.08a5.52 5.52 0 011.306-.865 3.455 3.455 0 011.506-.347c.598 0 1.136.119 1.615.357a3.43 3.43 0 011.216 1.014c.333.437.589.963.768 1.579.18.616.27 1.301.27 2.056 0 .848-.117 1.6-.35 2.255-.232.656-.544 1.212-.937 1.67a4.073 4.073 0 01-1.336 1.042 3.544 3.544 0 01-1.546.358c-.425 0-.837-.09-1.236-.268a3.948 3.948 0 01-1.117-.765l.1 1.57V18h-2.932zm5.803-6.487c-.36.457-.791.686-1.297.686-.252 0-.512-.047-.777-.14a2.394 2.394 0 01-.798-.496V7.53c.558-.596 1.123-.894 1.695-.894 1.143 0 1.715.887 1.715 2.662 0 1.02-.18 1.758-.538 2.215z" fill="#7C7C7C"/></svg>