<svg width="1785" height="1071" xmlns="http://www.w3.org/2000/svg"><style>@keyframes draw{0%{stroke-dashoffset:114px;stroke-dasharray:114px}}@keyframes draw-reverse{0%{stroke-dashoffset:-114px;stroke-dasharray:114px}}</style><g fill="none" fill-rule="evenodd"><path d="M952.5 241v114M.5 3v114m0 362v114m0-352v114m0 362v114m0-709v114m0 362v114m0-352v114m0 362v114m119-947v114m0 124v114m0 362v114m0-709v114m0 362v114m0-352v114m0 362v114m119-947v114m0 362v114m0-352v114m0 362v114m0-709v114m0 362v114m0-352v114m0 362v114m119-947v114m0 5v114m0 362v114m0-352v114m119 5v114m0-352v114m0-233v114m0 362v114m0 124v114m119-947v114m0 362v114m0-352v114m0 362v114m0-709v114m0 124v114m0 362v114m119-947v114m0 362v114m0-352v114m0 362v114m0-233v114m0 124v114m119-947v114m0 5v114m0 362v114m0-352v114m0 362v114m119-471v114m0 124v114m0-709v114m0 362v114m0-352v114m0 362v114m119-947v114m0 5v114m0 362v114m0-352v114m0 362v114m119-947v114m0 362v114m0-352v114m0 362v114m0 5v114m119-947v114m0 600v114m0-709v114m0 362v114m0-352v114m0 362v114m119-947v114m0 600v114m0-709v114m0 124v114m0 362v114m119-471v114m0-352v114m0 362v114m0-709v114m0 362v114m0-352v114m0 362v114m119-947v114m0 124v114m0 362v114m0-233v114m0-352v114m0 362v114M.5 955v114m238-114v114m119-114v114m119-114v114m238-114v114m119-114v114m238-114v114m119-114v114m238-114v114m119-114v114m119-114v114M3 .5h114M3 476.5h114M3 119.5h114M3 595.5h114m5-595h114m-114 238h114m-114 476h114m-114-119h114m-114 238h114m5-833h114m-114 476h114m-114-238h114m-114 476h114m-114-595h114m-114 476h114m-114-238h114m-114 476h114m5-833h114m-114 476h114m-114-238h114m-114 476h114m-114-595h114m-114 476h114m-114-238h114m5-357h114m-114 476h114m-114 238h114m-114-357h114m-114 476h114m5-833h114m-114 238h114m-114 476h114m-114-595h114m-114 238h114m5-357h114m-114 476h114m-114-238h114m-114 476h114m-114-595h114m-114 476h114m-114-238h114m-114 476h114m5-833h114m-114 476h114m-114-238h114m-114 476h114m-114-595h114m-114 476h114m-114 238h114m5-833h114m-114 238h114m-114 476h114m-114-119h114m-114-238h114m5-357h114m-114 476h114m-114 238h114m-114-595h114m-114 238h114m5-357h114m-114 476h114m-114 238h114m-114-595h114m-114 476h114m-114-238h114m-114 476h114m5-833h114m-114 476h114m-114-238h114m-114 476h114m-114-595h114m-114 476h114m-114-238h114m-114 476h114m5-833h114m-114 476h114m-114-238h114m-114-119h114m5-119h114m-114 476h114m-114 238h114m-114-595h114m-114 476h114m-114-238h114m5-357h114m-114 476h114m-114-238h114m-114 476h114m-114-595h114m-114 238h114M3 952.5h114m5 0h114m5 0h114m124 0h114m5 0h114m5 0h114m5 0h114m124 0h114m5 0h114m5 0h114m124 0h114m5 0h114" stroke="#3C4556"/><g stroke="#3C4556"><g class="delay1"><path d="M836 357.5h114m600 476h114M357.5 479v114M3 357.5h114M833.5 479v114M955 952.5h114M476.5 717v114m119-233v114" class="line" style="animation-delay:500ms;animation:1500ms draw cubic-bezier(.58,.01,.27,1) both"/></g><g class="delay2"><path d="M1428.5 241v114m-119 124v114m-238-114v114M479 119.5h114m362 0h114m-590 476h114M714.5 122v114" class="line" style="animation-delay:620ms;animation:1500ms draw cubic-bezier(.58,.01,.27,1) both"/><path d="M1071.5 241v114"/></g><g class="delay3"><path d="M357.5 717v114m0 5v114m-238 5v114M952.5 3v114M479 238.5h114M952.5 955v114M1074 238.5h114" class="line" style="animation-delay:740ms"/></g><g class="delay4"><path d="M1431 833.5h114m-590 0h114M595.5 955v114M3 833.5h114m5-476h114m362 119h114m-352 357h114M714.5 360v114" class="line" style="animation-delay:860ms;animation:1500ms draw cubic-bezier(.58,.01,.27,1) both"/></g><g class="delay5"><path d="M1669 595.5h114M476.5 3v114m1071-114v114m-1071 243v114M1669 833.5h114m-590-595h114m-947 714h114" class="line" style="animation-delay:980ms;animation:1500ms draw cubic-bezier(.58,.01,.27,1) both"/></g><g class="delay6"><path d="M1428.5 598v114m-357 5v114m357-352v114m-119-352v114M1431 595.5h114M3 238.5h114m957 595h114" class="line" style="animation-delay:1100ms;animation:1500ms draw-reverse cubic-bezier(.58,.01,.27,1) both"/></g><g class="delay7"><path d="M1309.5 955v114M955 476.5h114M1190.5 122v114m-357 5v114M3 714.5h114m1314 238h114M833.5 717v114M1074 595.5h114" class="line" style="animation-delay:1220ms;animation:1500ms draw-reverse cubic-bezier(.58,.01,.27,1) both"/></g><g class="delay8"><path d="M598 833.5h114M1666.5 479v114m-476-233v114m-1071 5v114m2.5-473.5h114m362 476h114m838-357h114" class="line" style="animation-delay:1340ms"/></g><g class="delay9"><path d="M1431 357.5h114m-114 357h114m-1423-238h114M1190.5 598v114m-833-471v114m1309-233v114" class="line" style="animation-delay:1460ms;animation:1500ms draw-reverse cubic-bezier(.58,.01,.27,1) both"/></g></g><g fill="#3C4556"><circle cx="3.5" cy="3.5" r="3.5" transform="translate(-3 1068)"/><circle cx="3.5" cy="3.5" r="3.5" transform="translate(116 1068)"/><circle cx="3.5" cy="3.5" r="3.5" transform="translate(235 1068)"/><circle cx="3.5" cy="3.5" r="3.5" transform="translate(354 1068)"/><circle cx="3.5" cy="3.5" r="3.5" transform="translate(473 1068)"/><circle cx="3.5" cy="3.5" r="3.5" transform="translate(592 1068)"/><circle cx="3.5" cy="3.5" r="3.5" transform="translate(711 1068)"/><circle cx="3.5" cy="3.5" r="3.5" transform="translate(830 1068)"/><circle cx="3.5" cy="3.5" r="3.5" transform="translate(949 1068)"/><circle cx="3.5" cy="3.5" r="3.5" transform="translate(1068 1068)"/><circle cx="3.5" cy="3.5" r="3.5" transform="translate(1187 1068)"/><circle cx="3.5" cy="3.5" r="3.5" transform="translate(1306 1068)"/><circle cx="3.5" cy="3.5" r="3.5" transform="translate(1425 1068)"/><circle cx="3.5" cy="3.5" r="3.5" transform="translate(1544 1068)"/><circle cx="3.5" cy="3.5" r="3.5" transform="translate(1663 1068)"/><circle cx="3.5" cy="3.5" r="3.5" transform="translate(1782 1068)"/><circle cx="3.5" cy="3.5" r="3.5" transform="translate(-3 949)"/><circle cx="3.5" cy="3.5" r="3.5" transform="translate(116 949)"/><circle cx="3.5" cy="3.5" r="3.5" transform="translate(235 949)"/><circle cx="3.5" cy="3.5" r="3.5" transform="translate(354 949)"/><circle cx="3.5" cy="3.5" r="3.5" transform="translate(473 949)"/><circle cx="3.5" cy="3.5" r="3.5" transform="translate(592 949)"/><circle cx="3.5" cy="3.5" r="3.5" transform="translate(711 949)"/><circle cx="3.5" cy="3.5" r="3.5" transform="translate(830 949)"/><circle cx="3.5" cy="3.5" r="3.5" transform="translate(949 949)"/><circle cx="3.5" cy="3.5" r="3.5" transform="translate(1068 949)"/><circle cx="3.5" cy="3.5" r="3.5" transform="translate(1187 949)"/><circle cx="3.5" cy="3.5" r="3.5" transform="translate(1306 949)"/><circle cx="3.5" cy="3.5" r="3.5" transform="translate(1425 949)"/><circle cx="3.5" cy="3.5" r="3.5" transform="translate(1544 949)"/><circle cx="3.5" cy="3.5" r="3.5" transform="translate(1663 949)"/><circle cx="3.5" cy="3.5" r="3.5" transform="translate(1782 949)"/><circle cx="3.5" cy="3.5" r="3.5" transform="translate(-3 830)"/><circle cx="3.5" cy="3.5" r="3.5" transform="translate(116 830)"/><circle cx="3.5" cy="3.5" r="3.5" transform="translate(235 830)"/><circle cx="3.5" cy="3.5" r="3.5" transform="translate(354 830)"/><circle cx="3.5" cy="3.5" r="3.5" transform="translate(473 830)"/><circle cx="3.5" cy="3.5" r="3.5" transform="translate(592 830)"/><circle cx="3.5" cy="3.5" r="3.5" transform="translate(711 830)"/><circle cx="3.5" cy="3.5" r="3.5" transform="translate(830 830)"/><circle cx="3.5" cy="3.5" r="3.5" transform="translate(949 830)"/><circle cx="3.5" cy="3.5" r="3.5" transform="translate(1068 830)"/><circle cx="3.5" cy="3.5" r="3.5" transform="translate(1187 830)"/><circle cx="3.5" cy="3.5" r="3.5" transform="translate(1306 830)"/><circle cx="3.5" cy="3.5" r="3.5" transform="translate(1425 830)"/><circle cx="3.5" cy="3.5" r="3.5" transform="translate(1544 830)"/><circle cx="3.5" cy="3.5" r="3.5" transform="translate(1663 830)"/><circle cx="3.5" cy="3.5" r="3.5" transform="translate(1782 830)"/><circle cx="3.5" cy="3.5" r="3.5" transform="translate(-3 711)"/><circle cx="3.5" cy="3.5" r="3.5" transform="translate(116 711)"/><circle cx="3.5" cy="3.5" r="3.5" transform="translate(235 711)"/><circle cx="3.5" cy="3.5" r="3.5" transform="translate(354 711)"/><circle cx="3.5" cy="3.5" r="3.5" transform="translate(473 711)"/><circle cx="3.5" cy="3.5" r="3.5" transform="translate(592 711)"/><circle cx="3.5" cy="3.5" r="3.5" transform="translate(711 711)"/><circle cx="3.5" cy="3.5" r="3.5" transform="translate(830 711)"/><circle cx="3.5" cy="3.5" r="3.5" transform="translate(949 711)"/><circle cx="3.5" cy="3.5" r="3.5" transform="translate(1068 711)"/><circle cx="3.5" cy="3.5" r="3.5" transform="translate(1187 711)"/><circle cx="3.5" cy="3.5" r="3.5" transform="translate(1306 711)"/><circle cx="3.5" cy="3.5" r="3.5" transform="translate(1425 711)"/><circle cx="3.5" cy="3.5" r="3.5" transform="translate(1544 711)"/><circle cx="3.5" cy="3.5" r="3.5" transform="translate(1663 711)"/><circle cx="3.5" cy="3.5" r="3.5" transform="translate(1782 711)"/><g><circle cx="3.5" cy="3.5" r="3.5" transform="translate(-3 592)"/><circle cx="3.5" cy="3.5" r="3.5" transform="translate(116 592)"/><circle cx="3.5" cy="3.5" r="3.5" transform="translate(235 592)"/><circle cx="3.5" cy="3.5" r="3.5" transform="translate(354 592)"/><circle cx="3.5" cy="3.5" r="3.5" transform="translate(473 592)"/><circle cx="3.5" cy="3.5" r="3.5" transform="translate(592 592)"/><circle cx="3.5" cy="3.5" r="3.5" transform="translate(711 592)"/><circle cx="3.5" cy="3.5" r="3.5" transform="translate(830 592)"/><circle cx="3.5" cy="3.5" r="3.5" transform="translate(949 592)"/><circle cx="3.5" cy="3.5" r="3.5" transform="translate(1068 592)"/><circle cx="3.5" cy="3.5" r="3.5" transform="translate(1187 592)"/><circle cx="3.5" cy="3.5" r="3.5" transform="translate(1306 592)"/><circle cx="3.5" cy="3.5" r="3.5" transform="translate(1425 592)"/><circle cx="3.5" cy="3.5" r="3.5" transform="translate(1544 592)"/><circle cx="3.5" cy="3.5" r="3.5" transform="translate(1663 592)"/><circle cx="3.5" cy="3.5" r="3.5" transform="translate(1782 592)"/></g><g><circle cx="3.5" cy="3.5" r="3.5" transform="translate(-3 473)"/><circle cx="3.5" cy="3.5" r="3.5" transform="translate(116 473)"/><circle cx="3.5" cy="3.5" r="3.5" transform="translate(235 473)"/><circle cx="3.5" cy="3.5" r="3.5" transform="translate(354 473)"/><circle cx="3.5" cy="3.5" r="3.5" transform="translate(473 473)"/><circle cx="3.5" cy="3.5" r="3.5" transform="translate(592 473)"/><circle cx="3.5" cy="3.5" r="3.5" transform="translate(711 473)"/><circle cx="3.5" cy="3.5" r="3.5" transform="translate(830 473)"/><circle cx="3.5" cy="3.5" r="3.5" transform="translate(949 473)"/><circle cx="3.5" cy="3.5" r="3.5" transform="translate(1068 473)"/><circle cx="3.5" cy="3.5" r="3.5" transform="translate(1187 473)"/><circle cx="3.5" cy="3.5" r="3.5" transform="translate(1306 473)"/><circle cx="3.5" cy="3.5" r="3.5" transform="translate(1425 473)"/><circle cx="3.5" cy="3.5" r="3.5" transform="translate(1544 473)"/><circle cx="3.5" cy="3.5" r="3.5" transform="translate(1663 473)"/><circle cx="3.5" cy="3.5" r="3.5" transform="translate(1782 473)"/></g><g><circle cx="3.5" cy="3.5" r="3.5" transform="translate(-3 354)"/><circle cx="3.5" cy="3.5" r="3.5" transform="translate(116 354)"/><circle cx="3.5" cy="3.5" r="3.5" transform="translate(235 354)"/><circle cx="3.5" cy="3.5" r="3.5" transform="translate(354 354)"/><circle cx="3.5" cy="3.5" r="3.5" transform="translate(473 354)"/><circle cx="3.5" cy="3.5" r="3.5" transform="translate(592 354)"/><circle cx="3.5" cy="3.5" r="3.5" transform="translate(711 354)"/><circle cx="3.5" cy="3.5" r="3.5" transform="translate(830 354)"/><circle cx="3.5" cy="3.5" r="3.5" transform="translate(949 354)"/><circle cx="3.5" cy="3.5" r="3.5" transform="translate(1068 354)"/><circle cx="3.5" cy="3.5" r="3.5" transform="translate(1187 354)"/><circle cx="3.5" cy="3.5" r="3.5" transform="translate(1306 354)"/><circle cx="3.5" cy="3.5" r="3.5" transform="translate(1425 354)"/><circle cx="3.5" cy="3.5" r="3.5" transform="translate(1544 354)"/><circle cx="3.5" cy="3.5" r="3.5" transform="translate(1663 354)"/><circle cx="3.5" cy="3.5" r="3.5" transform="translate(1782 354)"/></g><g><circle cx="3.5" cy="3.5" r="3.5" transform="translate(-3 235)"/><circle cx="3.5" cy="3.5" r="3.5" transform="translate(116 235)"/><circle cx="3.5" cy="3.5" r="3.5" transform="translate(235 235)"/><circle cx="3.5" cy="3.5" r="3.5" transform="translate(354 235)"/><circle cx="3.5" cy="3.5" r="3.5" transform="translate(473 235)"/><circle cx="3.5" cy="3.5" r="3.5" transform="translate(592 235)"/><circle cx="3.5" cy="3.5" r="3.5" transform="translate(711 235)"/><circle cx="3.5" cy="3.5" r="3.5" transform="translate(830 235)"/><circle cx="3.5" cy="3.5" r="3.5" transform="translate(949 235)"/><circle cx="3.5" cy="3.5" r="3.5" transform="translate(1068 235)"/><circle cx="3.5" cy="3.5" r="3.5" transform="translate(1187 235)"/><circle cx="3.5" cy="3.5" r="3.5" transform="translate(1306 235)"/><circle cx="3.5" cy="3.5" r="3.5" transform="translate(1425 235)"/><circle cx="3.5" cy="3.5" r="3.5" transform="translate(1544 235)"/><circle cx="3.5" cy="3.5" r="3.5" transform="translate(1663 235)"/><circle cx="3.5" cy="3.5" r="3.5" transform="translate(1782 235)"/></g><g><circle cx="3.5" cy="3.5" r="3.5" transform="translate(-3 116)"/><circle cx="3.5" cy="3.5" r="3.5" transform="translate(116 116)"/><circle cx="3.5" cy="3.5" r="3.5" transform="translate(235 116)"/><circle cx="3.5" cy="3.5" r="3.5" transform="translate(354 116)"/><circle cx="3.5" cy="3.5" r="3.5" transform="translate(473 116)"/><circle cx="3.5" cy="3.5" r="3.5" transform="translate(592 116)"/><circle cx="3.5" cy="3.5" r="3.5" transform="translate(711 116)"/><circle cx="3.5" cy="3.5" r="3.5" transform="translate(830 116)"/><circle cx="3.5" cy="3.5" r="3.5" transform="translate(949 116)"/><circle cx="3.5" cy="3.5" r="3.5" transform="translate(1068 116)"/><circle cx="3.5" cy="3.5" r="3.5" transform="translate(1187 116)"/><circle cx="3.5" cy="3.5" r="3.5" transform="translate(1306 116)"/><circle cx="3.5" cy="3.5" r="3.5" transform="translate(1425 116)"/><circle cx="3.5" cy="3.5" r="3.5" transform="translate(1544 116)"/><circle cx="3.5" cy="3.5" r="3.5" transform="translate(1663 116)"/><circle cx="3.5" cy="3.5" r="3.5" transform="translate(1782 116)"/></g><g><circle cx="3.5" cy="3.5" r="3.5" transform="translate(-3 -3)"/><circle cx="3.5" cy="3.5" r="3.5" transform="translate(116 -3)"/><circle cx="3.5" cy="3.5" r="3.5" transform="translate(235 -3)"/><circle cx="3.5" cy="3.5" r="3.5" transform="translate(354 -3)"/><circle cx="3.5" cy="3.5" r="3.5" transform="translate(473 -3)"/><circle cx="3.5" cy="3.5" r="3.5" transform="translate(592 -3)"/><circle cx="3.5" cy="3.5" r="3.5" transform="translate(711 -3)"/><circle cx="3.5" cy="3.5" r="3.5" transform="translate(830 -3)"/><circle cx="3.5" cy="3.5" r="3.5" transform="translate(949 -3)"/><circle cx="3.5" cy="3.5" r="3.5" transform="translate(1068 -3)"/><circle cx="3.5" cy="3.5" r="3.5" transform="translate(1187 -3)"/><circle cx="3.5" cy="3.5" r="3.5" transform="translate(1306 -3)"/><circle cx="3.5" cy="3.5" r="3.5" transform="translate(1425 -3)"/><circle cx="3.5" cy="3.5" r="3.5" transform="translate(1544 -3)"/><circle cx="3.5" cy="3.5" r="3.5" transform="translate(1663 -3)"/><circle cx="3.5" cy="3.5" r="3.5" transform="translate(1782 -3)"/></g></g></g></svg>