<svg xmlns="http://www.w3.org/2000/svg" width="528" height="270"><path fill="#8193A5" fill-rule="evenodd" stroke="#8193A5" stroke-width=".5" d="M179.487 59.177L63.625 159.213 1.53 1.498l177.957 57.679zm58.522-41l3.98 132.694-61.771-91.727 57.791-40.967zm111.25 250.107l-17.772-40.105-33.966-76.819 228.315 15.078L349.26 268.284zM242.444 151.527c-.388-13.23-3.524-120.212-3.969-132.634l58.428 132.31 34.14 77.04 17.327 39.188-105.926-115.904zM64.15 159.332l115.727-99.919 61.956 92.001-177.683 7.918zm233.103-8.579l-58.419-132.12 107.708 99.271-49.29 32.85zm227.133 15.155L297.752 150.94l49.17-32.769 177.464 47.736zM.958 1.23l62.376 158.426v.001a.214.214 0 00.076.092c.01.007.02.01.031.016.014.007.026.018.043.022.013.003.026 0 .039 0 .008 0 .014.006.022.006l178.592-7.959 106.806 116.868c.02.02.044.037.07.048a.218.218 0 00.255.029L526.67 166.456l.006-.007a.21.21 0 00.078-.087l.008-.02c.004-.012.011-.024.013-.038.003-.017-.005-.032-.006-.048 0-.013.006-.024.004-.037-.003-.01-.009-.017-.012-.025a.219.219 0 00-.082-.107.223.223 0 00-.061-.028l-179.615-48.32L238.36 17.608l-.017-.01c-.004-.004-.007-.009-.012-.012a.147.147 0 00-.028-.014l-.01-.005-.004-.002-.01-.001-.01-.003c-.01-.002-.018-.005-.028-.006a.245.245 0 00-.043 0l-.021.001h-.012l-.005.002c-.013.004-.025.01-.039.017a.155.155 0 00-.029.014l-.003.002h-.002l-58.205 41.26L1.226.944a.217.217 0 00-.268.286z" opacity=".7"/></svg>