<svg xmlns="http://www.w3.org/2000/svg" xmlns:xlink="http://www.w3.org/1999/xlink" width="887" height="413"><defs><path id="a" d="M584.02 246.742L655.327.948l230.477 164.616-301.782 81.178zm-44.685 110.79L413.037 175.076l169.99 72.377-43.692 110.077zM155.937 108.115l61.385 40.055 117.472 76.792L1.221 411.739l154.716-303.623zm255.867 66.454c12.58 18.199 114.304 165.366 126.228 182.38L335.805 224.62l-117.919-76.945L157.96 108.5l253.844 66.069zM654.481 1.259L583.26 246.765l-170.5-72.592L654.481 1.259zm-318.758 224.31l202.042 132.074-241.208-41.123 39.166-90.951zM3.735 411.162L334.852 225.76l-39.07 90.73L3.735 411.162zM886.848 165.42L655.33.06h-.002a.357.357 0 00-.188-.06c-.02 0-.039.004-.059.006-.027.003-.054-.002-.08.008-.021.007-.036.024-.055.035-.011.007-.026.005-.036.012l-242.956 173.8L156 107.24a.372.372 0 00-.141-.005.364.364 0 00-.383.192L.034 412.473c-.002.005 0 .011-.002.017a.35.35 0 00-.03.193c.001.012.005.021.007.034.005.021.006.045.015.066.012.026.037.04.052.061.013.018.014.04.03.055.011.011.026.016.038.026a.365.365 0 00.212.075.372.372 0 00.112-.017l295.59-95.812L539.36 358.65c.012.002.022 0 .034 0 .009 0 .017.005.027.005.017 0 .034-.003.052-.006l.018-.001.007-.001c.006-.002.01-.006.015-.007l.017-.007.045-.016a.409.409 0 00.06-.038c.01-.008.02-.014.029-.023.005-.004.011-.005.016-.01l.005-.008c.016-.017.027-.037.04-.058.009-.016.02-.03.028-.047 0-.002.002-.003.003-.005l.001-.001v-.003l44.005-110.864 302.97-81.495a.362.362 0 00.115-.645z"/></defs><use fill="#CBCBCB" fill-rule="evenodd" opacity=".55" transform="matrix(-1 0 0 1 887 0)" xlink:href="#a"/></svg>