<svg height="111" width="156" xmlns="http://www.w3.org/2000/svg"><g fill="none" fill-rule="evenodd"><path d="M51 15V0h15v15z" fill="#1358db"/><path d="M69 27.5V18h9.5v9.5z" stroke="#101d42" stroke-width="6"/><g fill="#101d42"><circle cx="2.5" cy="33.5" r="2.5"/><path d="M78.5 111a2.5 2.5 0 110-5 2.5 2.5 0 010 5zm25-25a2.5 2.5 0 110-5 2.5 2.5 0 010 5zm0 25a2.5 2.5 0 110-5 2.5 2.5 0 010 5z"/><circle cx="2.5" cy="58.5" r="2.5"/><circle cx="53.5" cy="83.5" r="2.5"/><circle cx="27.5" cy="58.5" r="2.5"/><circle cx="78.5" cy="83.5" r="2.5"/><circle cx="128.5" cy="108.5" r="2.5"/><path d="M128.5 86a2.5 2.5 0 110-5 2.5 2.5 0 010 5z"/><circle cx="153.5" cy="108.5" r="2.5"/><path d="M153.5 86a2.5 2.5 0 110-5 2.5 2.5 0 010 5z"/><circle cx="27.5" cy="33.5" r="2.5"/><circle cx="53.5" cy="108.5" r="2.5"/></g></g></svg>