<svg height="128" width="131" xmlns="http://www.w3.org/2000/svg"><g fill="none" fill-rule="evenodd"><g fill="#101d42"><path d="M2.5 80a2.5 2.5 0 110-5 2.5 2.5 0 010 5zm25-75a2.5 2.5 0 110-5 2.5 2.5 0 010 5zm0 25a2.5 2.5 0 110-5 2.5 2.5 0 010 5zm0 73a2.5 2.5 0 110-5 2.5 2.5 0 010 5z"/><path d="M27.5 30a2.5 2.5 0 110-5 2.5 2.5 0 010 5zm0 98a2.5 2.5 0 110-5 2.5 2.5 0 010 5zm25-123a2.5 2.5 0 110-5 2.5 2.5 0 010 5z"/><circle cx="2.5" cy="27.5" r="2.5"/><circle cx="2.5" cy="52.5" r="2.5"/><circle cx="52.5" cy="125.5" r="2.5"/><path d="M52.5 103a2.5 2.5 0 110-5 2.5 2.5 0 010 5z"/><circle cx="52.5" cy="27.5" r="2.5"/><path d="M77.5 5a2.5 2.5 0 110-5 2.5 2.5 0 010 5z"/><circle cx="77.5" cy="125.5" r="2.5"/><path d="M77.5 103a2.5 2.5 0 110-5 2.5 2.5 0 010 5z"/><circle cx="77.5" cy="27.5" r="2.5"/><circle cx="2.5" cy="2.5" r="2.5"/></g><path d="M100 35V20h15v15z" fill="#1358db"/><path d="M118 47.5V38h9.5v9.5z" stroke="#101d42" stroke-width="6"/></g></svg>