<svg xmlns="http://www.w3.org/2000/svg" xmlns:xlink="http://www.w3.org/1999/xlink" width="1681" height="874" viewBox="0 0 1681 874">
    <defs>
        <path id="a" d="M0 0h1681v874H0z"/>
    </defs>
    <g fill="none" fill-rule="evenodd">
        <mask id="b" fill="#fff">
            <use xlink:href="#a"/>
        </mask>
        <use fill="#101D42" xlink:href="#a"/>
        <g mask="url(#b)">
            <path fill="#101D42" d="M0-.164h1786v1013.325H0z"/>
            <g stroke="#1D2948">
                <path d="M.5 2.672v108M.5 452.618v108M.5 227.645v108M.5 677.592v108M.5 115.158v108M.5 565.105v108M.5 340.132v108M.5 790.078v108M119.5 2.672v108M119.5 227.645v108M119.5 677.592v108M119.5 115.158v108M119.5 565.105v108M119.5 340.132v108M119.5 790.078v108M238.5 2.672v108M238.5 452.618v108M238.5 227.645v108M238.5 677.592v108M238.5 115.158v108M238.5 565.105v108M238.5 340.132v108M238.5 790.078v108M357.5 2.672v108M357.5 677.592v108M357.5 115.158v108M357.5 565.105v108M357.5 340.132v108M476.5 452.618v108M476.5 227.645v108M476.5 677.592v108M476.5 115.158v108M476.5 565.105v108M476.5 790.078v108M595.5 2.672v108M595.5 452.618v108M595.5 227.645v108M595.5 677.592v108M595.5 115.158v108M595.5 565.105v108M595.5 340.132v108M595.5 790.078v108M714.5 2.672v108M714.5 452.618v108M714.5 227.645v108M714.5 677.592v108M714.5 115.158v108M714.5 565.105v108M714.5 790.078v108M833.5 2.672v108M833.5 452.618v108M833.5 227.645v108M833.5 115.158v108M833.5 565.105v108M833.5 340.132v108M833.5 790.078v108M952.5 452.618v108M952.5 677.592v108M952.5 115.158v108M952.5 565.105v108M952.5 340.132v108M952.5 790.078v108M1071.5 2.672v108M1071.5 452.618v108M1071.5 227.645v108M1071.5 677.592v108M1071.5 115.158v108M1071.5 565.105v108M1071.5 340.132v108M1071.5 790.078v108M1190.5 2.672v108M1190.5 452.618v108M1190.5 227.645v108M1190.5 677.592v108M1190.5 115.158v108M1190.5 790.078v108M1309.5 2.672v108M1309.5 452.618v108M1309.5 227.645v108M1309.5 677.592v108M1309.5 115.158v108M1309.5 565.105v108M1309.5 340.132v108M1309.5 790.078v108M1428.5 2.672v108M1428.5 677.592v108M1428.5 115.158v108M1428.5 340.132v108M1428.5 790.078v108M1547.5 452.618v108M1547.5 227.645v108M1547.5 677.592v108M1547.5 115.158v108M1547.5 565.105v108M1547.5 340.132v108M1547.5 790.078v108M1666.5 2.672v108M1666.5 227.645v108M1666.5 677.592v108M1666.5 565.105v108M1666.5 340.132v108M1666.5 790.078v108"/>
            </g>
            <g stroke="#1D2948">
                <path d="M3 .336h114M3 450.283h114M3 112.822h114M3 562.77h114M122 .336h114M122 225.31h114M122 675.256h114M122 112.822h114M122 562.77h114M122 787.743h114M241 .336h114M241 450.283h114M241 225.31h114M241 675.256h114M241 112.822h114M241 562.77h114M241 337.796h114M241 787.743h114M360 .336h114M360 450.283h114M360 225.31h114M360 675.256h114M360 112.822h114M360 562.77h114M360 337.796h114M360 787.743h114M479 .336h114M479 450.283h114M479 225.31h114M479 675.256h114M479 562.77h114M479 337.796h114M479 787.743h114M598 .336h114M598 225.31h114M598 675.256h114M598 112.822h114M598 562.77h114M598 337.796h114M717 .336h114M717 450.283h114M717 225.31h114M717 675.256h114M717 112.822h114M717 562.77h114M717 337.796h114M717 787.743h114M836 .336h114M836 450.283h114M836 225.31h114M836 675.256h114M836 112.822h114M836 562.77h114M836 337.796h114M836 787.743h114M955 .336h114M955 225.31h114M955 675.256h114M955 562.77h114M955 337.796h114M1074 .336h114M1074 450.283h114M1074 675.256h114M1074 112.822h114M1074 337.796h114M1074 787.743h114M1193 .336h114M1193 450.283h114M1193 225.31h114M1193 675.256h114M1193 112.822h114M1193 562.77h114M1193 337.796h114M1193 787.743h114M1312 .336h114M1312 450.283h114M1312 225.31h114M1312 675.256h114M1312 112.822h114M1312 562.77h114M1312 337.796h114M1312 787.743h114M1431 .336h114M1431 450.283h114M1431 225.31h114M1431 112.822h114M1431 562.77h114M1431 337.796h114M1550 .336h114M1550 450.283h114M1550 675.256h114M1550 112.822h114M1550 562.77h114M1550 337.796h114M1669 .336h114M1669 450.283h114M1669 225.31h114M1669 675.256h114M1669 112.822h114M1669 337.796h114"/>
            </g>
            <path stroke="#1D2948" d="M357.5 452.618v108M476.5 340.132v108M1190.5 565.105v108M1190.5 340.132v108M119.5 452.618v108M357.5 227.645v108M357.5 790.078v108M476.5 2.672v108M714.5 340.132v108M833.5 677.592v108M952.5 2.672v108M952.5 227.645v108M1428.5 452.618v108M1428.5 227.645v108M1428.5 565.105v108M1547.5 2.672v108M1666.5 452.618v108M1666.5 115.158v108M3 675.256h114M3 337.796h114M122 450.283h114M122 337.796h114M479 112.822h114M598 450.283h114M598 787.743h114M955 450.283h114M955 112.822h114M955 787.743h114M1074 225.31h114M1074 562.77h114M1431 675.256h114M1431 787.743h114M1550 225.31h114M1550 787.743h114M1669 562.77h114M1669 787.743h114M3 225.31h114M3 787.743h114"/>
            <g fill="#1D2948">
                <circle cx="3.5" cy="3.5" r="3.5" transform="translate(-3 784.407)"/>
                <circle cx="3.5" cy="3.5" r="3.5" transform="translate(116 784.407)"/>
                <circle cx="3.5" cy="3.5" r="3.5" transform="translate(235 784.407)"/>
                <circle cx="3.5" cy="3.5" r="3.5" transform="translate(354 784.407)"/>
                <circle cx="3.5" cy="3.5" r="3.5" transform="translate(473 784.407)"/>
                <circle cx="3.5" cy="3.5" r="3.5" transform="translate(592 784.407)"/>
                <circle cx="3.5" cy="3.5" r="3.5" transform="translate(711 784.407)"/>
                <circle cx="3.5" cy="3.5" r="3.5" transform="translate(830 784.407)"/>
                <circle cx="3.5" cy="3.5" r="3.5" transform="translate(949 784.407)"/>
                <circle cx="3.5" cy="3.5" r="3.5" transform="translate(1068 784.407)"/>
                <circle cx="3.5" cy="3.5" r="3.5" transform="translate(1187 784.407)"/>
                <circle cx="3.5" cy="3.5" r="3.5" transform="translate(1306 784.407)"/>
                <circle cx="3.5" cy="3.5" r="3.5" transform="translate(1425 784.407)"/>
                <circle cx="3.5" cy="3.5" r="3.5" transform="translate(1544 784.407)"/>
                <circle cx="3.5" cy="3.5" r="3.5" transform="translate(1663 784.407)"/>
                <g>
                    <circle cx="3.5" cy="3.5" r="3.5" transform="translate(-3 671.92)"/>
                    <circle cx="3.5" cy="3.5" r="3.5" transform="translate(116 671.92)"/>
                    <circle cx="3.5" cy="3.5" r="3.5" transform="translate(235 671.92)"/>
                    <circle cx="3.5" cy="3.5" r="3.5" transform="translate(354 671.92)"/>
                    <circle cx="3.5" cy="3.5" r="3.5" transform="translate(473 671.92)"/>
                    <circle cx="3.5" cy="3.5" r="3.5" transform="translate(592 671.92)"/>
                    <circle cx="3.5" cy="3.5" r="3.5" transform="translate(711 671.92)"/>
                    <circle cx="3.5" cy="3.5" r="3.5" transform="translate(830 671.92)"/>
                    <circle cx="3.5" cy="3.5" r="3.5" transform="translate(949 671.92)"/>
                    <circle cx="3.5" cy="3.5" r="3.5" transform="translate(1068 671.92)"/>
                    <circle cx="3.5" cy="3.5" r="3.5" transform="translate(1187 671.92)"/>
                    <circle cx="3.5" cy="3.5" r="3.5" transform="translate(1306 671.92)"/>
                    <circle cx="3.5" cy="3.5" r="3.5" transform="translate(1425 671.92)"/>
                    <circle cx="3.5" cy="3.5" r="3.5" transform="translate(1544 671.92)"/>
                    <circle cx="3.5" cy="3.5" r="3.5" transform="translate(1663 671.92)"/>
                </g>
                <g>
                    <circle cx="3.5" cy="3.5" r="3.5" transform="translate(-3 559.433)"/>
                    <circle cx="3.5" cy="3.5" r="3.5" transform="translate(116 559.433)"/>
                    <circle cx="3.5" cy="3.5" r="3.5" transform="translate(235 559.433)"/>
                    <circle cx="3.5" cy="3.5" r="3.5" transform="translate(354 559.433)"/>
                    <circle cx="3.5" cy="3.5" r="3.5" transform="translate(473 559.433)"/>
                    <circle cx="3.5" cy="3.5" r="3.5" transform="translate(592 559.433)"/>
                    <circle cx="3.5" cy="3.5" r="3.5" transform="translate(711 559.433)"/>
                    <circle cx="3.5" cy="3.5" r="3.5" transform="translate(830 559.433)"/>
                    <circle cx="3.5" cy="3.5" r="3.5" transform="translate(949 559.433)"/>
                    <circle cx="3.5" cy="3.5" r="3.5" transform="translate(1068 559.433)"/>
                    <circle cx="3.5" cy="3.5" r="3.5" transform="translate(1187 559.433)"/>
                    <circle cx="3.5" cy="3.5" r="3.5" transform="translate(1306 559.433)"/>
                    <circle cx="3.5" cy="3.5" r="3.5" transform="translate(1425 559.433)"/>
                    <circle cx="3.5" cy="3.5" r="3.5" transform="translate(1544 559.433)"/>
                    <circle cx="3.5" cy="3.5" r="3.5" transform="translate(1663 559.433)"/>
                </g>
                <g>
                    <circle cx="3.5" cy="3.5" r="3.5" transform="translate(-3 446.947)"/>
                    <circle cx="3.5" cy="3.5" r="3.5" transform="translate(116 446.947)"/>
                    <circle cx="3.5" cy="3.5" r="3.5" transform="translate(235 446.947)"/>
                    <circle cx="3.5" cy="3.5" r="3.5" transform="translate(354 446.947)"/>
                    <circle cx="3.5" cy="3.5" r="3.5" transform="translate(473 446.947)"/>
                    <circle cx="3.5" cy="3.5" r="3.5" transform="translate(592 446.947)"/>
                    <circle cx="3.5" cy="3.5" r="3.5" transform="translate(711 446.947)"/>
                    <circle cx="3.5" cy="3.5" r="3.5" transform="translate(830 446.947)"/>
                    <circle cx="3.5" cy="3.5" r="3.5" transform="translate(949 446.947)"/>
                    <circle cx="3.5" cy="3.5" r="3.5" transform="translate(1068 446.947)"/>
                    <circle cx="3.5" cy="3.5" r="3.5" transform="translate(1187 446.947)"/>
                    <circle cx="3.5" cy="3.5" r="3.5" transform="translate(1306 446.947)"/>
                    <circle cx="3.5" cy="3.5" r="3.5" transform="translate(1425 446.947)"/>
                    <circle cx="3.5" cy="3.5" r="3.5" transform="translate(1544 446.947)"/>
                    <circle cx="3.5" cy="3.5" r="3.5" transform="translate(1663 446.947)"/>
                </g>
                <g>
                    <circle cx="3.5" cy="3.5" r="3.5" transform="translate(-3 334.46)"/>
                    <circle cx="3.5" cy="3.5" r="3.5" transform="translate(116 334.46)"/>
                    <circle cx="3.5" cy="3.5" r="3.5" transform="translate(235 334.46)"/>
                    <circle cx="3.5" cy="3.5" r="3.5" transform="translate(354 334.46)"/>
                    <circle cx="3.5" cy="3.5" r="3.5" transform="translate(473 334.46)"/>
                    <circle cx="3.5" cy="3.5" r="3.5" transform="translate(592 334.46)"/>
                    <circle cx="3.5" cy="3.5" r="3.5" transform="translate(711 334.46)"/>
                    <circle cx="3.5" cy="3.5" r="3.5" transform="translate(830 334.46)"/>
                    <circle cx="3.5" cy="3.5" r="3.5" transform="translate(949 334.46)"/>
                    <circle cx="3.5" cy="3.5" r="3.5" transform="translate(1068 334.46)"/>
                    <circle cx="3.5" cy="3.5" r="3.5" transform="translate(1187 334.46)"/>
                    <circle cx="3.5" cy="3.5" r="3.5" transform="translate(1306 334.46)"/>
                    <circle cx="3.5" cy="3.5" r="3.5" transform="translate(1425 334.46)"/>
                    <circle cx="3.5" cy="3.5" r="3.5" transform="translate(1544 334.46)"/>
                    <circle cx="3.5" cy="3.5" r="3.5" transform="translate(1663 334.46)"/>
                </g>
                <g>
                    <circle cx="3.5" cy="3.5" r="3.5" transform="translate(-3 221.973)"/>
                    <circle cx="3.5" cy="3.5" r="3.5" transform="translate(116 221.973)"/>
                    <circle cx="3.5" cy="3.5" r="3.5" transform="translate(235 221.973)"/>
                    <circle cx="3.5" cy="3.5" r="3.5" transform="translate(354 221.973)"/>
                    <circle cx="3.5" cy="3.5" r="3.5" transform="translate(473 221.973)"/>
                    <circle cx="3.5" cy="3.5" r="3.5" transform="translate(592 221.973)"/>
                    <circle cx="3.5" cy="3.5" r="3.5" transform="translate(711 221.973)"/>
                    <circle cx="3.5" cy="3.5" r="3.5" transform="translate(830 221.973)"/>
                    <circle cx="3.5" cy="3.5" r="3.5" transform="translate(949 221.973)"/>
                    <circle cx="3.5" cy="3.5" r="3.5" transform="translate(1068 221.973)"/>
                    <circle cx="3.5" cy="3.5" r="3.5" transform="translate(1187 221.973)"/>
                    <circle cx="3.5" cy="3.5" r="3.5" transform="translate(1306 221.973)"/>
                    <circle cx="3.5" cy="3.5" r="3.5" transform="translate(1425 221.973)"/>
                    <circle cx="3.5" cy="3.5" r="3.5" transform="translate(1544 221.973)"/>
                    <circle cx="3.5" cy="3.5" r="3.5" transform="translate(1663 221.973)"/>
                </g>
                <g>
                    <circle cx="3.5" cy="3.5" r="3.5" transform="translate(-3 109.487)"/>
                    <circle cx="3.5" cy="3.5" r="3.5" transform="translate(116 109.487)"/>
                    <circle cx="3.5" cy="3.5" r="3.5" transform="translate(235 109.487)"/>
                    <circle cx="3.5" cy="3.5" r="3.5" transform="translate(354 109.487)"/>
                    <circle cx="3.5" cy="3.5" r="3.5" transform="translate(473 109.487)"/>
                    <circle cx="3.5" cy="3.5" r="3.5" transform="translate(592 109.487)"/>
                    <circle cx="3.5" cy="3.5" r="3.5" transform="translate(711 109.487)"/>
                    <circle cx="3.5" cy="3.5" r="3.5" transform="translate(830 109.487)"/>
                    <circle cx="3.5" cy="3.5" r="3.5" transform="translate(949 109.487)"/>
                    <circle cx="3.5" cy="3.5" r="3.5" transform="translate(1068 109.487)"/>
                    <circle cx="3.5" cy="3.5" r="3.5" transform="translate(1187 109.487)"/>
                    <circle cx="3.5" cy="3.5" r="3.5" transform="translate(1306 109.487)"/>
                    <circle cx="3.5" cy="3.5" r="3.5" transform="translate(1425 109.487)"/>
                    <circle cx="3.5" cy="3.5" r="3.5" transform="translate(1544 109.487)"/>
                    <circle cx="3.5" cy="3.5" r="3.5" transform="translate(1663 109.487)"/>
                </g>
                <g>
                    <circle cx="3.5" cy="3.5" r="3.5" transform="translate(-3 -3)"/>
                    <circle cx="3.5" cy="3.5" r="3.5" transform="translate(116 -3)"/>
                    <circle cx="3.5" cy="3.5" r="3.5" transform="translate(235 -3)"/>
                    <circle cx="3.5" cy="3.5" r="3.5" transform="translate(354 -3)"/>
                    <circle cx="3.5" cy="3.5" r="3.5" transform="translate(473 -3)"/>
                    <circle cx="3.5" cy="3.5" r="3.5" transform="translate(592 -3)"/>
                    <circle cx="3.5" cy="3.5" r="3.5" transform="translate(711 -3)"/>
                    <circle cx="3.5" cy="3.5" r="3.5" transform="translate(830 -3)"/>
                    <circle cx="3.5" cy="3.5" r="3.5" transform="translate(949 -3)"/>
                    <circle cx="3.5" cy="3.5" r="3.5" transform="translate(1068 -3)"/>
                    <circle cx="3.5" cy="3.5" r="3.5" transform="translate(1187 -3)"/>
                    <circle cx="3.5" cy="3.5" r="3.5" transform="translate(1306 -3)"/>
                    <circle cx="3.5" cy="3.5" r="3.5" transform="translate(1425 -3)"/>
                    <circle cx="3.5" cy="3.5" r="3.5" transform="translate(1544 -3)"/>
                    <circle cx="3.5" cy="3.5" r="3.5" transform="translate(1663 -3)"/>
                </g>
            </g>
        </g>
    </g>
</svg>
