<svg height="761" viewBox="0 0 1681 761" width="1681" xmlns="http://www.w3.org/2000/svg" xmlns:xlink="http://www.w3.org/1999/xlink"><defs><path id="a" d="m0 0h1681v761h-1681z"/><mask id="b" fill="#fff"><use fill="#fff" fill-rule="evenodd" xlink:href="#a"/></mask></defs><g fill="none" fill-rule="evenodd"><use fill="#101d42" xlink:href="#a"/><g mask="url(#b)"><path d="m0-.164h1786v1013.325h-1786z" fill="#101d42"/><g stroke="#1d2948"><path d="m.5 2.672v108m0 341.946v108m0-332.973v108m0 341.947v108m0-670.434v108m0 341.947v108m0-332.973v108m119-445.46v108m0 116.973v108m0 341.947v108m0-670.434v108m0 341.947v108m0-332.973v108m119-445.46v108m0 341.946v108m0-332.973v108m0 341.947v108m0-670.434v108m0 341.947v108m0-332.973v108m119-445.46v108m0 566.92v108m0-670.434v108m0 341.947v108m0-332.973v108m119 4.486v108m0-332.973v108m0 341.947v108m0-670.434v108m0 341.947v108m119-670.433v108m0 341.946v108m0-332.973v108m0 341.947v108m0-670.434v108m0 341.947v108m0-332.973v108m119-445.46v108m0 341.946v108m0-332.973v108m0 341.947v108m0-670.434v108m0 341.947v108m119-670.433v108m0 341.946v108m0-332.973v108m0-220.487v108m0 341.947v108m0-332.973v108m119 4.486v108m0 116.974v108m0-670.434v108m0 341.947v108m0-332.973v108m119-445.46v108m0 341.946v108m0-332.973v108m0 341.947v108m0-670.434v108m0 341.947v108m0-332.973v108m119-445.46v108m0 341.946v108m0-332.973v108m0 341.947v108m0-670.434v108m119-220.486v108m0 341.946v108m0-332.973v108m0 341.947v108m0-670.434v108m0 341.947v108m0-332.973v108m119-445.46v108m0 566.92v108m0-670.434v108m0 116.974v108m119 4.486v108m0-332.973v108m0 341.947v108m0-670.434v108m0 341.947v108m0-332.973v108m119-445.46v108m0 116.973v108m0 341.947v108m0-220.487v108m0-332.973v108"/><path d="m3 .336h114m-114 449.947h114m-114-337.461h114m-114 449.948h114m5-562.434h114m-114 224.974h114m-114 449.946h114m-114-562.434h114m-114 449.948h114m5-562.434h114m-114 449.947h114m-114-224.973h114m-114 449.946h114m-114-562.434h114m-114 449.948h114m-114-224.974h114m5-337.46h114m-114 449.947h114m-114-224.973h114m-114 449.946h114m-114-562.434h114m-114 449.948h114m-114-224.974h114m5-337.46h114m-114 449.947h114m-114-224.973h114m-114 449.946h114m-114-112.486h114m-114-224.974h114m5-337.46h114m-114 224.974h114m-114 449.946h114m-114-562.434h114m-114 449.948h114m-114-224.974h114m5-337.46h114m-114 449.947h114m-114-224.973h114m-114 449.946h114m-114-562.434h114m-114 449.948h114m-114-224.974h114m5-337.46h114m-114 449.947h114m-114-224.973h114m-114 449.946h114m-114-562.434h114m-114 449.948h114m-114-224.974h114m5-337.46h114m-114 224.974h114m-114 449.946h114m-114-112.486h114m-114-224.974h114m5-337.46h114m-114 449.947h114m-114 224.973h114m-114-562.434h114m-114 224.974h114m5-337.46h114m-114 449.947h114m-114-224.973h114m-114 449.946h114m-114-562.434h114m-114 449.948h114m-114-224.974h114m5-337.46h114m-114 449.947h114m-114-224.973h114m-114 449.946h114m-114-562.434h114m-114 449.948h114m-114-224.974h114m5-337.46h114m-114 449.947h114m-114-224.973h114m-114-112.488h114m-114 449.948h114m-114-224.974h114m5-337.46h114m-114 449.947h114m-114 224.973h114m-114-562.434h114m-114 449.948h114m-114-224.974h114m5-337.46h114m-114 449.947h114m-114-224.973h114m-114 449.946h114m-114-562.434h114m-114 224.974h114"/><path d="m357.5 452.618v108m119-220.486v108m714 116.973v108m0-332.973v108m-1071 4.486v108m238-332.973v108m119-332.973v108m238 229.46v108m119 229.46v108m119-782.92v108m0 116.973v108m476 116.973v108m0-332.973v108m0 229.46v108m119-670.433v108m119 341.946v108m0-445.46v108m-1663.5 452.098h114m-114-337.46h114m5 112.487h114m-114-112.487h114m243-224.974h114m5 337.461h114m243 0h114m-114-337.461h114m5 112.488h114m-114 337.46h114m243 112.486h114m5-449.946h114m5 337.46h114m-1780-337.46h114"/></g><g fill="#1d2948"><circle cx="3.5" cy="3.5" r="3.5" transform="translate(-3 671.92)"/><circle cx="3.5" cy="3.5" r="3.5" transform="translate(116 671.92)"/><circle cx="3.5" cy="3.5" r="3.5" transform="translate(235 671.92)"/><circle cx="3.5" cy="3.5" r="3.5" transform="translate(354 671.92)"/><circle cx="3.5" cy="3.5" r="3.5" transform="translate(473 671.92)"/><circle cx="3.5" cy="3.5" r="3.5" transform="translate(592 671.92)"/><circle cx="3.5" cy="3.5" r="3.5" transform="translate(711 671.92)"/><circle cx="3.5" cy="3.5" r="3.5" transform="translate(830 671.92)"/><circle cx="3.5" cy="3.5" r="3.5" transform="translate(949 671.92)"/><circle cx="3.5" cy="3.5" r="3.5" transform="translate(1068 671.92)"/><circle cx="3.5" cy="3.5" r="3.5" transform="translate(1187 671.92)"/><circle cx="3.5" cy="3.5" r="3.5" transform="translate(1306 671.92)"/><circle cx="3.5" cy="3.5" r="3.5" transform="translate(1425 671.92)"/><circle cx="3.5" cy="3.5" r="3.5" transform="translate(1544 671.92)"/><circle cx="3.5" cy="3.5" r="3.5" transform="translate(1663 671.92)"/><circle cx="3.5" cy="3.5" r="3.5" transform="translate(-3 559.433)"/><circle cx="3.5" cy="3.5" r="3.5" transform="translate(116 559.433)"/><circle cx="3.5" cy="3.5" r="3.5" transform="translate(235 559.433)"/><circle cx="3.5" cy="3.5" r="3.5" transform="translate(354 559.433)"/><circle cx="3.5" cy="3.5" r="3.5" transform="translate(473 559.433)"/><circle cx="3.5" cy="3.5" r="3.5" transform="translate(592 559.433)"/><circle cx="3.5" cy="3.5" r="3.5" transform="translate(711 559.433)"/><circle cx="3.5" cy="3.5" r="3.5" transform="translate(830 559.433)"/><circle cx="3.5" cy="3.5" r="3.5" transform="translate(949 559.433)"/><circle cx="3.5" cy="3.5" r="3.5" transform="translate(1068 559.433)"/><circle cx="3.5" cy="3.5" r="3.5" transform="translate(1187 559.433)"/><circle cx="3.5" cy="3.5" r="3.5" transform="translate(1306 559.433)"/><circle cx="3.5" cy="3.5" r="3.5" transform="translate(1425 559.433)"/><circle cx="3.5" cy="3.5" r="3.5" transform="translate(1544 559.433)"/><circle cx="3.5" cy="3.5" r="3.5" transform="translate(1663 559.433)"/><circle cx="3.5" cy="3.5" r="3.5" transform="translate(-3 446.947)"/><circle cx="3.5" cy="3.5" r="3.5" transform="translate(116 446.947)"/><circle cx="3.5" cy="3.5" r="3.5" transform="translate(235 446.947)"/><circle cx="3.5" cy="3.5" r="3.5" transform="translate(354 446.947)"/><circle cx="3.5" cy="3.5" r="3.5" transform="translate(473 446.947)"/><circle cx="3.5" cy="3.5" r="3.5" transform="translate(592 446.947)"/><circle cx="3.5" cy="3.5" r="3.5" transform="translate(711 446.947)"/><circle cx="3.5" cy="3.5" r="3.5" transform="translate(830 446.947)"/><circle cx="3.5" cy="3.5" r="3.5" transform="translate(949 446.947)"/><circle cx="3.5" cy="3.5" r="3.5" transform="translate(1068 446.947)"/><circle cx="3.5" cy="3.5" r="3.5" transform="translate(1187 446.947)"/><circle cx="3.5" cy="3.5" r="3.5" transform="translate(1306 446.947)"/><circle cx="3.5" cy="3.5" r="3.5" transform="translate(1425 446.947)"/><circle cx="3.5" cy="3.5" r="3.5" transform="translate(1544 446.947)"/><circle cx="3.5" cy="3.5" r="3.5" transform="translate(1663 446.947)"/><circle cx="3.5" cy="3.5" r="3.5" transform="translate(-3 334.46)"/><circle cx="3.5" cy="3.5" r="3.5" transform="translate(116 334.46)"/><circle cx="3.5" cy="3.5" r="3.5" transform="translate(235 334.46)"/><circle cx="3.5" cy="3.5" r="3.5" transform="translate(354 334.46)"/><circle cx="3.5" cy="3.5" r="3.5" transform="translate(473 334.46)"/><circle cx="3.5" cy="3.5" r="3.5" transform="translate(592 334.46)"/><circle cx="3.5" cy="3.5" r="3.5" transform="translate(711 334.46)"/><circle cx="3.5" cy="3.5" r="3.5" transform="translate(830 334.46)"/><circle cx="3.5" cy="3.5" r="3.5" transform="translate(949 334.46)"/><circle cx="3.5" cy="3.5" r="3.5" transform="translate(1068 334.46)"/><circle cx="3.5" cy="3.5" r="3.5" transform="translate(1187 334.46)"/><circle cx="3.5" cy="3.5" r="3.5" transform="translate(1306 334.46)"/><circle cx="3.5" cy="3.5" r="3.5" transform="translate(1425 334.46)"/><circle cx="3.5" cy="3.5" r="3.5" transform="translate(1544 334.46)"/><circle cx="3.5" cy="3.5" r="3.5" transform="translate(1663 334.46)"/><circle cx="3.5" cy="3.5" r="3.5" transform="translate(-3 221.973)"/><circle cx="3.5" cy="3.5" r="3.5" transform="translate(116 221.973)"/><circle cx="3.5" cy="3.5" r="3.5" transform="translate(235 221.973)"/><circle cx="3.5" cy="3.5" r="3.5" transform="translate(354 221.973)"/><circle cx="3.5" cy="3.5" r="3.5" transform="translate(473 221.973)"/><circle cx="3.5" cy="3.5" r="3.5" transform="translate(592 221.973)"/><circle cx="3.5" cy="3.5" r="3.5" transform="translate(711 221.973)"/><circle cx="3.5" cy="3.5" r="3.5" transform="translate(830 221.973)"/><circle cx="3.5" cy="3.5" r="3.5" transform="translate(949 221.973)"/><circle cx="3.5" cy="3.5" r="3.5" transform="translate(1068 221.973)"/><circle cx="3.5" cy="3.5" r="3.5" transform="translate(1187 221.973)"/><circle cx="3.5" cy="3.5" r="3.5" transform="translate(1306 221.973)"/><circle cx="3.5" cy="3.5" r="3.5" transform="translate(1425 221.973)"/><circle cx="3.5" cy="3.5" r="3.5" transform="translate(1544 221.973)"/><circle cx="3.5" cy="3.5" r="3.5" transform="translate(1663 221.973)"/><circle cx="3.5" cy="3.5" r="3.5" transform="translate(-3 109.487)"/><circle cx="3.5" cy="3.5" r="3.5" transform="translate(116 109.487)"/><circle cx="3.5" cy="3.5" r="3.5" transform="translate(235 109.487)"/><circle cx="3.5" cy="3.5" r="3.5" transform="translate(354 109.487)"/><circle cx="3.5" cy="3.5" r="3.5" transform="translate(473 109.487)"/><circle cx="3.5" cy="3.5" r="3.5" transform="translate(592 109.487)"/><circle cx="3.5" cy="3.5" r="3.5" transform="translate(711 109.487)"/><circle cx="3.5" cy="3.5" r="3.5" transform="translate(830 109.487)"/><circle cx="3.5" cy="3.5" r="3.5" transform="translate(949 109.487)"/><circle cx="3.5" cy="3.5" r="3.5" transform="translate(1068 109.487)"/><circle cx="3.5" cy="3.5" r="3.5" transform="translate(1187 109.487)"/><circle cx="3.5" cy="3.5" r="3.5" transform="translate(1306 109.487)"/><circle cx="3.5" cy="3.5" r="3.5" transform="translate(1425 109.487)"/><circle cx="3.5" cy="3.5" r="3.5" transform="translate(1544 109.487)"/><circle cx="3.5" cy="3.5" r="3.5" transform="translate(1663 109.487)"/><circle cx="3.5" cy="3.5" r="3.5" transform="translate(-3 -3)"/><circle cx="3.5" cy="3.5" r="3.5" transform="translate(116 -3)"/><circle cx="3.5" cy="3.5" r="3.5" transform="translate(235 -3)"/><circle cx="3.5" cy="3.5" r="3.5" transform="translate(354 -3)"/><circle cx="3.5" cy="3.5" r="3.5" transform="translate(473 -3)"/><circle cx="3.5" cy="3.5" r="3.5" transform="translate(592 -3)"/><circle cx="3.5" cy="3.5" r="3.5" transform="translate(711 -3)"/><circle cx="3.5" cy="3.5" r="3.5" transform="translate(830 -3)"/><circle cx="3.5" cy="3.5" r="3.5" transform="translate(949 -3)"/><circle cx="3.5" cy="3.5" r="3.5" transform="translate(1068 -3)"/><circle cx="3.5" cy="3.5" r="3.5" transform="translate(1187 -3)"/><circle cx="3.5" cy="3.5" r="3.5" transform="translate(1306 -3)"/><circle cx="3.5" cy="3.5" r="3.5" transform="translate(1425 -3)"/><circle cx="3.5" cy="3.5" r="3.5" transform="translate(1544 -3)"/><circle cx="3.5" cy="3.5" r="3.5" transform="translate(1663 -3)"/></g></g></g></svg>