<svg xmlns="http://www.w3.org/2000/svg" width="48" height="60"><g fill="none" fill-rule="evenodd" stroke="#000" stroke-linejoin="round" stroke-width="2"><path d="M43.712 21H29V6.288a.12.12 0 0 1 .204-.085l14.592 14.593a.12.12 0 0 1-.084.204zM44 21 29 6H6v50h38V21z"/><path stroke-linecap="round" d="M37.281 38.453c0 5.98-4.848 10.828-10.828 10.828-5.98 0-10.828-4.848-10.828-10.828 0-5.98 4.848-10.828 10.828-10.828 5.98 0 10.828 4.848 10.828 10.828zm-3.037 7.791L47 59 34.244 46.244zM20.625 35h6-6zm0 6h12-12zM6 6h23l10 10V1H1v50h5V6z"/></g></svg>