<svg xmlns="http://www.w3.org/2000/svg" width="32" height="32"><path d="M15.885 6.667a3.338 3.338 0 0 0 3.334-3.334A3.337 3.337 0 0 0 15.885 0a3.338 3.338 0 0 0-3.333 3.333 3.338 3.338 0 0 0 3.333 3.334zm0-5.334c1.103 0 2 .898 2 2 0 1.103-.897 2-2 2-1.102 0-2-.897-2-2 0-1.102.899-2 2-2zM25.333 8a3.338 3.338 0 0 0 3.334-3.333 3.337 3.337 0 0 0-3.334-3.334A3.338 3.338 0 0 0 22 4.667 3.338 3.338 0 0 0 25.333 8zm0-5.333c1.103 0 2 .897 2 2 0 1.102-.896 2-2 2-1.102 0-2-.898-2-2 0-1.103.899-2 2-2zM6.667 8A3.338 3.338 0 0 0 10 4.667a3.337 3.337 0 0 0-3.333-3.334 3.338 3.338 0 0 0-3.334 3.334A3.338 3.338 0 0 0 6.667 8zm0-5.333c1.102 0 2 .897 2 2 0 1.102-.896 2-2 2-1.102 0-2-.898-2-2 0-1.103.898-2 2-2zm24.473 16.42-.855-6.832a3.336 3.336 0 0 0-3.306-2.92h-3.292c-.371 0-.744.065-1.111.196a.667.667 0 0 0 .445 1.256c.223-.079.447-.119.666-.119h3.292c1.006 0 1.858.753 1.984 1.752l.854 6.832a.66.66 0 0 1-.161.524.657.657 0 0 1-.5.225h-.49c-.35 0-.64.27-.665.619l-.622 8.715h-4.092l-.147-2.048a.666.666 0 1 0-1.33.095l.191 2.666a.67.67 0 0 0 .666.619H28c.35 0 .64-.271.664-.618l.623-8.718a2 2 0 0 0 1.853-2.244zm-9.148 5.452-.967-4.895a2.203 2.203 0 0 0 .962-2.101l-.882-6.304C20.896 9.392 19.433 8 17.707 8H14.3c-1.728 0-3.19 1.392-3.398 3.221l-.886 6.338a2.19 2.19 0 0 0 .963 2.084l-.967 4.894a.666.666 0 0 0 .654.796h2.266l1.078 6.116a.667.667 0 0 0 .656.551h2.666c.324 0 .6-.232.66-.55l1.078-6.115h2.266a.666.666 0 0 0 .655-.796zm-2.381-5.151L20.523 24h-2.016c-.323 0-.6.232-.656.55l-1.076 6.117h-1.548l-1.08-6.118a.665.665 0 0 0-.656-.55h-2.015l.91-4.612a.666.666 0 0 0-.483-.774c-.371-.097-.612-.485-.567-.886l.885-6.338c.134-1.172 1.026-2.056 2.075-2.056h3.405c1.05 0 1.942.884 2.078 2.074l.881 6.304c.048.418-.195.806-.564.904a.668.668 0 0 0-.485.773zm-10.038 7.28a.663.663 0 0 0-.712.617l-.146 2.048H4.62L4 20.62a.668.668 0 0 0-.667-.62h-.489a.657.657 0 0 1-.5-.225.659.659 0 0 1-.161-.524l.854-6.832a2.001 2.001 0 0 1 1.984-1.752h3.292c.15 0 .308.022.503.074a.671.671 0 0 0 .815-.476.668.668 0 0 0-.476-.814 3.28 3.28 0 0 0-.843-.118h-3.29a3.337 3.337 0 0 0-3.307 2.92L.86 19.085a2.002 2.002 0 0 0 1.853 2.244l.623 8.719a.668.668 0 0 0 .664.619h5.333c.35 0 .64-.271.666-.62l.19-2.667a.667.667 0 0 0-.616-.712z"/></svg>