<svg xmlns="http://www.w3.org/2000/svg" width="30" height="32"><path d="M5.333 0A4.672 4.672 0 0 0 .667 4.667c0 2.345 1.744 4.272 4 4.598v9.792l-1.53-1.528a.667.667 0 0 0-.942.943l2.666 2.667c.023.021.051.03.075.049.045.035.09.072.143.093a.65.65 0 0 0 .706-.13c.006-.006.014-.007.019-.012l2.667-2.667a.667.667 0 0 0-.943-.943L6 19.057V9.265c2.256-.326 4-2.253 4-4.598A4.672 4.672 0 0 0 5.333 0zm0 8A3.337 3.337 0 0 1 2 4.667a3.337 3.337 0 0 1 3.333-3.334 3.337 3.337 0 0 1 3.334 3.334A3.337 3.337 0 0 1 5.333 8zm0 14.667a4.672 4.672 0 0 0-4.666 4.666A4.672 4.672 0 0 0 5.333 32 4.672 4.672 0 0 0 10 27.333a4.672 4.672 0 0 0-4.667-4.666zm0 8A3.337 3.337 0 0 1 2 27.333 3.337 3.337 0 0 1 5.333 24a3.337 3.337 0 0 1 3.334 3.333 3.337 3.337 0 0 1-3.334 3.334zm20-24a4.672 4.672 0 0 0-4.666 4.666c0 2.346 1.744 4.272 4 4.599V22A4.672 4.672 0 0 1 20 26.667h-6.39l1.527-1.53a.667.667 0 0 0-.942-.942l-2.667 2.666c-.001.002-.001.006-.004.007a.646.646 0 0 0-.173.376c-.028.2.024.408.177.561l2.667 2.667a.67.67 0 0 0 .942 0 .667.667 0 0 0 0-.943L13.608 28H20c3.308 0 6-2.692 6-6v-6.068c2.256-.327 4-2.255 4-4.599a4.672 4.672 0 0 0-4.667-4.666zm0 8A3.337 3.337 0 0 1 22 11.333 3.337 3.337 0 0 1 25.333 8a3.337 3.337 0 0 1 3.334 3.333 3.337 3.337 0 0 1-3.334 3.334z"/></svg>