<svg xmlns="http://www.w3.org/2000/svg" width="60" height="60"><g fill="none" fill-rule="evenodd"><path stroke="#1A1718" stroke-linecap="round" stroke-linejoin="round" stroke-width="2" d="M23.429 16H47 23.429zm0 15H47 23.429zm0 15H47 23.429zM1 1h58v58H1V1z"/><path fill="#000" d="m14.929 11 1.214 2.46 2.715.394-1.964 1.915.463 2.704-2.428-1.276-2.428 1.276.464-2.704L11 13.854l2.715-.394L14.929 11m0 15.083 1.214 2.46 2.715.394-1.964 1.915.463 2.704-2.428-1.276-2.428 1.276.464-2.704L11 28.937l2.715-.394 1.214-2.46m0 15.443 1.214 2.461 2.715.394-1.964 1.915.463 2.704-2.428-1.277L12.501 49l.464-2.704L11 44.381l2.715-.394 1.214-2.461"/></g></svg>