<svg xmlns="http://www.w3.org/2000/svg" width="60" height="60"><g fill="none" fill-rule="evenodd"><path stroke="#000" stroke-linejoin="round" stroke-width="2" d="M1 1h58v58H1z"/><path stroke="#000" stroke-linejoin="round" stroke-width="2" d="M10 7a3 3 0 1 1-6 0 3 3 0 0 1 6 0zm9 0a3 3 0 1 1-6 0 3 3 0 0 1 6 0zm9 0a3 3 0 1 1-6 0 3 3 0 0 1 6 0z"/><path stroke="#000" stroke-linejoin="round" stroke-width="2" d="M1 1h58v12H1z"/><path stroke="#000" stroke-linecap="round" stroke-linejoin="round" stroke-width="2" d="M1 13h12v46H1zm4 6h4-4zm0 5h4-4zm0 5h4-4zm0 5h4-4zm0 5h4-4zm0 5h4-4zm0 5h4-4zm0 5h4-4zm14-35h14v14H19zm20 0h14v14H39zM19 39h14v14H19zm20 0h14v14H39z"/><path fill="#000" d="M32 21a1 1 0 1 1 0-2 1 1 0 0 1 0 2m0 6a1 1 0 1 1 0-2 1 1 0 0 1 0 2m0 6a1 1 0 1 1 0-2 1 1 0 0 1 0 2m-3-9a1 1 0 1 1 0-2 1 1 0 0 1 0 2m-3-3a1 1 0 1 1 0-2 1 1 0 0 1 0 2m0 6a1 1 0 1 1 0-2 1 1 0 0 1 0 2m3 3a1 1 0 1 1 0-2 1 1 0 0 1 0 2m-3 3a1 1 0 1 1 0-2 1 1 0 0 1 0 2m-3-9a1 1 0 1 1 0-2 1 1 0 0 1 0 2m-3-3a1 1 0 1 1 0-2 1 1 0 0 1 0 2m0 6a1 1 0 1 1 0-2 1 1 0 0 1 0 2m3 3a1 1 0 1 1 0-2 1 1 0 0 1 0 2m-3 3a1 1 0 1 1 0-2 1 1 0 0 1 0 2"/></g></svg>