<svg xmlns="http://www.w3.org/2000/svg" width="60" height="28"><g fill="none" fill-rule="evenodd"><path stroke="#000" stroke-linecap="round" stroke-linejoin="round" stroke-width="2" d="M33 14c0 7.18 5.82 13 13 13s13-5.82 13-13S53.18 1 46 1 33 6.82 33 14zM7 8h27.474A12.93 12.93 0 0 0 33 14c0 2.166.537 4.204 1.474 6H7A6 6 0 1 1 7 8z"/><path fill="#000" d="M25 14a1 1 0 1 0 2 0 1 1 0 0 0-2 0m3-3a1 1 0 1 0 2 0 1 1 0 0 0-2 0m-6 0a1 1 0 1 0 2 0 1 1 0 0 0-2 0m6 6a1 1 0 1 0 2 0 1 1 0 0 0-2 0m-6 0a1 1 0 1 0 2 0 1 1 0 0 0-2 0m-3-3a1 1 0 1 0 2 0 1 1 0 0 0-2 0m-6 0a1 1 0 1 0 2 0 1 1 0 0 0-2 0m3-3a1 1 0 1 0 2 0 1 1 0 0 0-2 0m-6 0a1 1 0 1 0 2 0 1 1 0 0 0-2 0m6 6a1 1 0 1 0 2 0 1 1 0 0 0-2 0m-6 0a1 1 0 1 0 2 0 1 1 0 0 0-2 0m-3-3a1 1 0 1 0 2 0 1 1 0 0 0-2 0m-3-3a1 1 0 1 0 2 0 1 1 0 0 0-2 0m0 6a1 1 0 1 0 2 0 1 1 0 0 0-2 0"/></g></svg>