<svg xmlns="http://www.w3.org/2000/svg" width="61" height="55"><path fill="none" stroke="#000" stroke-linejoin="round" stroke-width="2" d="M45.08 49.744c-6.883 3.977-16.349 4.386-25.871.304C11.499 46.768 5.1 41.026 1 34.465c1.969 1.64 4.265 2.953 6.726 4.1 9.834 4.61 19.666 4.294 26.585.012l-.01-.012C24.458 31.02 16.09 21.177 9.859 13.14c-1.313-1.313-2.299-2.954-3.282-4.43C14.123 15.6 26.1 24.293 30.363 26.755 21.342 17.24 13.303 5.43 13.631 5.757c14.272 14.436 27.56 22.638 27.56 22.638.44.248.779.455 1.052.639.287-.732.54-1.491.752-2.279C45.29 18.39 42.667 8.874 36.925 1c13.287 8.038 21.162 23.13 17.88 35.762-.085.34-.178.677-.279 1.007.039.046.077.093.115.142 6.561 8.202 4.757 16.896 3.937 15.255-3.559-6.964-10.148-4.835-13.497-3.422z"/></svg>