<svg xmlns="http://www.w3.org/2000/svg" xmlns:xlink="http://www.w3.org/1999/xlink" width="353" height="302" viewBox="0 0 353 302">
    <defs>
        <path id="a" d="M0 0h733.17v302.155H0z"/>
        <path id="c" d="M572.443 233.712L642.333.898l225.91 155.924-295.8 76.89zm-43.8 104.94l-123.795-172.82 166.62 68.555-42.825 104.265zM152.846 102.407l60.167 37.94 115.144 72.736L1.197 389.997l151.649-287.59zm250.794 62.945c12.33 17.238 112.038 156.634 123.725 172.75L329.148 212.757h-.001l-115.58-72.881-58.739-37.105 248.812 62.58zM641.506 1.192l-69.81 232.542-167.118-68.758L641.506 1.192zm-312.44 212.466l198.038 125.1-236.426-38.952 38.389-86.148zM3.662 389.45L328.214 213.84l-38.296 85.938L3.661 389.45zm865.605-232.765L642.338.058V.057h-.001A.359.359 0 0 0 642.15 0c-.02 0-.037.004-.057.006-.026.002-.052-.002-.078.007-.021.007-.035.023-.054.034-.011.006-.025.004-.036.01L403.786 164.68l-250.879-63.101a.377.377 0 0 0-.138-.006.354.354 0 0 0-.376.182L.034 390.692c-.002.005 0 .01-.002.016a.322.322 0 0 0-.03.183l.008.032c.005.02.006.043.015.063.011.024.035.037.05.058.013.016.014.038.03.052.01.01.026.015.038.024a.367.367 0 0 0 .208.071.376.376 0 0 0 .109-.016l289.73-90.752 238.478 39.288c.011.002.022 0 .033 0 .009 0 .017.005.027.005a.323.323 0 0 0 .05-.005l.018-.002h.008c.005-.002.009-.006.014-.007l.017-.007c.015-.004.029-.009.044-.015a.403.403 0 0 0 .06-.036l.027-.021.016-.01.004-.007c.016-.017.027-.036.04-.055.009-.015.02-.03.027-.045 0-.002.002-.003.003-.005l.001-.001.001-.002 43.132-105.01 296.963-77.192a.338.338 0 1 0 .113-.61v-.001z"/>
    </defs>
    <g fill="none" fill-rule="evenodd" transform="scale(-1 1) rotate(23 -79.424 -1171.597)">
        <mask id="b" fill="#fff">
            <use xlink:href="#a"/>
        </mask>
        <g mask="url(#b)">
            <use fill="#CBCBCB" opacity=".55" transform="scale(-1 1) rotate(-11 -75.648 3797.563)" xlink:href="#c"/>
        </g>
    </g>
</svg>
