<svg height="604" viewBox="0 0 1681 604" width="1681" xmlns="http://www.w3.org/2000/svg" xmlns:xlink="http://www.w3.org/1999/xlink"><defs><path id="a" d="m0 0h1681v604h-1681z"/><mask id="b" fill="#fff"><use fill="#fff" fill-rule="evenodd" xlink:href="#a"/></mask></defs><g fill="none" fill-rule="evenodd"><use fill="#101d42" xlink:href="#a"/><g mask="url(#b)"><g opacity=".6"><path d="m-609.998 37.914h2429.33m-2434.332 547.448h2429.33m-2422.66-364.965h2429.33m-2430.998 182.483h2429.33" stroke="#3c4556" stroke-linecap="square"/><path d="m60.277-16.016v635.171-635.171zm218.423 0v635.171-635.171zm218.423 0v635.171-635.171zm436.847 0v635.171-635.171zm218.422 0v635.171-635.171zm218.423 0v635.171-635.171zm218.423 0v635.171-635.171zm-873.692 0v635.171-635.171z" stroke="#3c4556" stroke-linecap="square"/><g fill="#3c4556" transform="translate(-383.238 32)"><ellipse cx="443.515" cy="5.069" rx="5.002" ry="5.069"/><ellipse cx="443.515" cy="189.241" rx="5.002" ry="5.069"/><ellipse cx="443.515" cy="370.034" rx="5.002" ry="5.069"/><ellipse cx="443.515" cy="554.207" rx="5.002" ry="5.069"/><ellipse cx="661.938" cy="370.034" rx="5.002" ry="5.069"/><ellipse cx="661.938" cy="554.207" rx="5.002" ry="5.069"/><ellipse cx="880.361" cy="370.034" rx="5.002" ry="5.069"/><ellipse cx="880.361" cy="554.207" rx="5.002" ry="5.069"/><ellipse cx="880.361" cy="5.069" rx="5.002" ry="5.069"/><ellipse cx="880.361" cy="189.241" rx="5.002" ry="5.069"/><ellipse cx="1098.784" cy="5.069" rx="5.002" ry="5.069"/><ellipse cx="1098.784" cy="189.241" rx="5.002" ry="5.069"/><ellipse cx="1098.784" cy="370.034" rx="5.002" ry="5.069"/><ellipse cx="1098.784" cy="554.207" rx="5.002" ry="5.069"/><ellipse cx="1317.207" cy="370.034" rx="5.002" ry="5.069"/><ellipse cx="1317.207" cy="554.207" rx="5.002" ry="5.069"/><ellipse cx="1317.207" cy="5.069" rx="5.002" ry="5.069"/><ellipse cx="1317.207" cy="189.241" rx="5.002" ry="5.069"/><ellipse cx="1535.63" cy="5.069" rx="5.002" ry="5.069"/><ellipse cx="1535.63" cy="189.241" rx="5.002" ry="5.069"/><ellipse cx="1535.63" cy="370.034" rx="5.002" ry="5.069"/><ellipse cx="1535.63" cy="554.207" rx="5.002" ry="5.069"/><ellipse cx="1754.053" cy="370.034" rx="5.002" ry="5.069"/><ellipse cx="1754.053" cy="554.207" rx="5.002" ry="5.069"/><ellipse cx="1754.053" cy="5.069" rx="5.002" ry="5.069"/><ellipse cx="1754.053" cy="189.241" rx="5.002" ry="5.069"/><ellipse cx="1972.476" cy="5.069" rx="5.002" ry="5.069"/><ellipse cx="1972.476" cy="189.241" rx="5.002" ry="5.069"/><ellipse cx="1972.476" cy="370.034" rx="5.002" ry="5.069"/><ellipse cx="1972.476" cy="554.207" rx="5.002" ry="5.069"/><ellipse cx="661.938" cy="5.069" rx="5.002" ry="5.069"/><ellipse cx="661.938" cy="189.241" rx="5.002" ry="5.069"/></g></g><g fill="#101d42"><path d="m1158 3.254h208v139.755h-208z"/><path d="m1158 3.254h208v139.755h-208z"/><path d="m936 5.28h237v27.343h-237zm605 220.772h22v171.149h-22zm21 181.277h187v174.188h-187z"/><path d="m1376 192.633h208v415.215h-208z"/><path d="m835 41.738h604v174.188h-604zm-1240 549.906h597v28.356h-597z"/><path d="m-153 567.339h208v28.356h-208zm430-160.01h168v174.188h-168zm-212-49.623h208v174.188h-208z"/><path d="m-443 407.329h552v174.188h-552zm498-237.989h218v104.31h-218z"/><path d="m10 42.75h208v134.692h-208zm0-39.496h208v28.356h-208zm-140 277.485h332v118.488h-332z"/><path d="m-153 147.06h208v174.188h-208zm437 384.833h208v88.107h-208zm-219-525.6h208v77.979h-208zm-218 0h208v77.979h-208z"/></g></g></g></svg>