<svg height="228" viewBox="0 0 129 228" width="129" xmlns="http://www.w3.org/2000/svg"><g fill="none" fill-rule="evenodd"><g fill="#ffcf00" transform="translate(94 96)"><circle cx="32.5" cy="129.5" r="2.5" transform="matrix(0 -1 1 0 -97 162)"/><circle cx="32.5" cy="98.5" r="2.5" transform="matrix(0 -1 1 0 -66 131)"/><circle cx="2.5" cy="129.5" r="2.5" transform="matrix(0 -1 1 0 -127 132)"/><circle cx="2.5" cy="98.5" r="2.5" transform="matrix(0 -1 1 0 -96 101)"/><path d="m2.5 69a2.5 2.5 0 1 1 0-5 2.5 2.5 0 0 1 0 5z"/><circle cx="32.5" cy="66.5" r="2.5" transform="matrix(0 -1 1 0 -34 99)"/><circle cx="32.5" cy="33.5" r="2.5" transform="matrix(0 -1 1 0 -1 66)"/><circle cx="32.5" cy="2.5" r="2.5" transform="matrix(0 -1 1 0 30 35)"/></g><g fill="#ffcf00"><circle cx="32.5" cy="32.5" r="2.5" transform="matrix(0 -1 1 0 0 65)"/><circle cx="32.5" cy="2.5" r="2.5" transform="matrix(0 -1 1 0 30 35)"/><circle cx="2.5" cy="32.5" r="2.5" transform="matrix(0 -1 1 0 -30 35)"/><circle cx="2.5" cy="2.5" r="2.5" transform="matrix(0 -1 1 0 0 5)"/></g><path d="m64 71h15v-15h-15z" fill="#fff"/><path d="m79 86h15v-15h-15z" fill="#ffcf00"/></g></svg>