<svg height="120" viewBox="0 0 213 120" width="213" xmlns="http://www.w3.org/2000/svg"><g fill="none" fill-rule="evenodd"><g fill="#ffcf00" transform="translate(125 85)"><circle cx="32.5" cy="32.5" r="2.5" transform="matrix(0 -1 1 0 0 65)"/><circle cx="32.5" cy="2.5" r="2.5" transform="matrix(0 -1 1 0 30 35)"/><circle cx="2.5" cy="32.5" r="2.5" transform="matrix(0 -1 1 0 -30 35)"/><circle cx="2.5" cy="2.5" r="2.5" transform="matrix(0 -1 1 0 0 5)"/></g><g fill="#ffcf00"><circle cx="32.5" cy="32.5" r="2.5" transform="matrix(0 -1 1 0 0 65)"/><circle cx="32.5" cy="2.5" r="2.5" transform="matrix(0 -1 1 0 30 35)"/><circle cx="2.5" cy="32.5" r="2.5" transform="matrix(0 -1 1 0 -30 35)"/><circle cx="2.5" cy="2.5" r="2.5" transform="matrix(0 -1 1 0 0 5)"/><circle cx="92.5" cy="32.5" r="2.5" transform="matrix(0 -1 1 0 60 125)"/><circle cx="92.5" cy="2.5" r="2.5" transform="matrix(0 -1 1 0 90 95)"/><circle cx="62.5" cy="32.5" r="2.5" transform="matrix(0 -1 1 0 30 95)"/><circle cx="62.5" cy="2.5" r="2.5" transform="matrix(0 -1 1 0 60 65)"/></g><path d="m198 61v-15h-15v15z" fill="#fff"/><path d="m213 46v-15h-15v15z" fill="#ffcf00"/></g></svg>